<svg version="1.2" xmlns="http://www.w3.org/2000/svg" viewBox="0 0 984 984" width="500" height="500"><style>.a{fill:#d8f3ff}.b{fill:#aed6f1}.c{fill:#7fb3d5}.d{fill:#5499c7}.e{fill:#134f4f}.f{fill:#2e8b8b}.g{fill:#7fd1d9}.h{fill:#d0f0f7}.i{fill:#e8daef}.j{fill:#bb8fce}.k{fill:#7d3c98}.l{fill:#4a235a}.m{fill:#6f3943}.n{fill:#b56b78}.o{fill:#e4b9c0}.p{fill:#f8e1e7}</style><path fill-rule="evenodd" class="a" d="m134.5 247c-48.4 0-87.5-39.1-87.5-87.5 0-48.4 39.1-87.5 87.5-87.5 48.4 0 87.5 39.1 87.5 87.5 0 48.4-39.1 87.5-87.5 87.5z"/><path fill-rule="evenodd" class="b" d="m357.5 247c-48.4 0-87.5-39.1-87.5-87.5 0-48.4 39.1-87.5 87.5-87.5 48.4 0 87.5 39.1 87.5 87.5 0 48.4-39.1 87.5-87.5 87.5z"/><path fill-rule="evenodd" class="c" d="m578.5 247c-48.4 0-87.5-39.1-87.5-87.5 0-48.4 39.1-87.5 87.5-87.5 48.4 0 87.5 39.1 87.5 87.5 0 48.4-39.1 87.5-87.5 87.5z"/><path fill-rule="evenodd" class="d" d="m802.5 247c-48.4 0-87.5-39.1-87.5-87.5 0-48.4 39.1-87.5 87.5-87.5 48.4 0 87.5 39.1 87.5 87.5 0 48.4-39.1 87.5-87.5 87.5z"/><path fill-rule="evenodd" class="e" d="m134.5 470c-48.4 0-87.5-39.1-87.5-87.5 0-48.4 39.1-87.5 87.5-87.5 48.4 0 87.5 39.1 87.5 87.5 0 48.4-39.1 87.5-87.5 87.5z"/><path fill-rule="evenodd" class="f" d="m357.5 470c-48.4 0-87.5-39.1-87.5-87.5 0-48.4 39.1-87.5 87.5-87.5 48.4 0 87.5 39.1 87.5 87.5 0 48.4-39.1 87.5-87.5 87.5z"/><path fill-rule="evenodd" class="g" d="m579.5 470c-48.4 0-87.5-39.1-87.5-87.5 0-48.4 39.1-87.5 87.5-87.5 48.4 0 87.5 39.1 87.5 87.5 0 48.4-39.1 87.5-87.5 87.5z"/><path fill-rule="evenodd" class="h" d="m802.5 470c-48.4 0-87.5-39.1-87.5-87.5 0-48.4 39.1-87.5 87.5-87.5 48.4 0 87.5 39.1 87.5 87.5 0 48.4-39.1 87.5-87.5 87.5z"/><path fill-rule="evenodd" class="i" d="m802.5 908c-48.4 0-87.5-39.1-87.5-87.5 0-48.4 39.1-87.5 87.5-87.5 48.4 0 87.5 39.1 87.5 87.5 0 48.4-39.1 87.5-87.5 87.5z"/><path fill-rule="evenodd" class="j" d="m579.5 907c-48.4 0-87.5-39.1-87.5-87.5 0-48.4 39.1-87.5 87.5-87.5 48.4 0 87.5 39.1 87.5 87.5 0 48.4-39.1 87.5-87.5 87.5z"/><path fill-rule="evenodd" class="k" d="m357.5 907c-48.4 0-87.5-39.1-87.5-87.5 0-48.4 39.1-87.5 87.5-87.5 48.4 0 87.5 39.1 87.5 87.5 0 48.4-39.1 87.5-87.5 87.5z"/><path fill-rule="evenodd" class="l" d="m134.5 907c-48.4 0-87.5-39.1-87.5-87.5 0-48.4 39.1-87.5 87.5-87.5 48.4 0 87.5 39.1 87.5 87.5 0 48.4-39.1 87.5-87.5 87.5z"/><path fill-rule="evenodd" class="m" d="m802.5 694c-48.4 0-87.5-39.1-87.5-87.5 0-48.4 39.1-87.5 87.5-87.5 48.4 0 87.5 39.1 87.5 87.5 0 48.4-39.1 87.5-87.5 87.5z"/><path fill-rule="evenodd" class="n" d="m579.5 694c-48.4 0-87.5-39.1-87.5-87.5 0-48.4 39.1-87.5 87.5-87.5 48.4 0 87.5 39.1 87.5 87.5 0 48.4-39.1 87.5-87.5 87.5z"/><path fill-rule="evenodd" class="o" d="m357.5 694c-48.4 0-87.5-39.1-87.5-87.5 0-48.4 39.1-87.5 87.5-87.5 48.4 0 87.5 39.1 87.5 87.5 0 48.4-39.1 87.5-87.5 87.5z"/><path fill-rule="evenodd" class="p" d="m134.5 693c-48.4 0-87.5-39.1-87.5-87.5 0-48.4 39.1-87.5 87.5-87.5 48.4 0 87.5 39.1 87.5 87.5 0 48.4-39.1 87.5-87.5 87.5z"/></svg>