<?xml version="1.0" encoding="UTF-8"?>
<!DOCTYPE svg PUBLIC "-//W3C//DTD SVG 1.1//EN" "http://www.w3.org/Graphics/SVG/1.1/DTD/svg11.dtd">
<svg xmlns="http://www.w3.org/2000/svg" version="1.1" width="512px" height="512px" style="shape-rendering:geometricPrecision; text-rendering:geometricPrecision; image-rendering:optimizeQuality; fill-rule:evenodd; clip-rule:evenodd" xmlns:xlink="http://www.w3.org/1999/xlink">
<g><path style="opacity:0.99" fill="#777777" d="M 111.5,208.5 C 116.07,207.559 120.737,207.226 125.5,207.5C 125.167,280.002 125.501,352.335 126.5,424.5C 130.144,445.982 142.477,459.816 163.5,466C 242.833,466.667 322.167,466.667 401.5,466C 421.769,460.731 434.269,447.898 439,427.5C 439.5,345.167 439.667,262.834 439.5,180.5C 412.165,180.667 384.831,180.5 357.5,180C 327,174.833 309.167,157 304,126.5C 303.5,99.1687 303.333,71.8354 303.5,44.5C 256.832,44.3333 210.165,44.5 163.5,45C 143.383,50.9487 131.049,64.1153 126.5,84.5C 121.833,84.5 117.167,84.5 112.5,84.5C 116.908,55.2569 133.575,37.4236 162.5,31C 212.833,30.3333 263.167,30.3333 313.5,31C 359.972,76.4723 406.139,122.306 452,168.5C 453.661,255.085 453.995,341.752 453,428.5C 447.272,456.561 430.439,473.728 402.5,480C 322.5,480.667 242.5,480.667 162.5,480C 137.8,474.41 121.633,459.577 114,435.5C 113.007,431.558 112.34,427.558 112,423.5C 111.5,351.834 111.333,280.167 111.5,208.5 Z"/></g>
<g><path style="opacity:1" fill="#f4f4f4" d="M 126.5,424.5 C 126.5,352.5 126.5,280.5 126.5,208.5C 166.004,208.832 205.337,208.499 244.5,207.5C 253.963,206.206 259.796,200.873 262,191.5C 262.667,161.167 262.667,130.833 262,100.5C 259.427,92.2614 253.927,87.0948 245.5,85C 205.835,84.5 166.168,84.3333 126.5,84.5C 131.049,64.1153 143.383,50.9487 163.5,45C 210.165,44.5 256.832,44.3333 303.5,44.5C 303.333,71.8354 303.5,99.1687 304,126.5C 309.167,157 327,174.833 357.5,180C 384.831,180.5 412.165,180.667 439.5,180.5C 439.667,262.834 439.5,345.167 439,427.5C 434.269,447.898 421.769,460.731 401.5,466C 322.167,466.667 242.833,466.667 163.5,466C 142.477,459.816 130.144,445.982 126.5,424.5 Z"/></g>
<g><path style="opacity:0.996" fill="#75c307" d="M 112.5,84.5 C 117.167,84.5 121.833,84.5 126.5,84.5C 166.168,84.3333 205.835,84.5 245.5,85C 253.927,87.0948 259.427,92.2614 262,100.5C 262.667,130.833 262.667,161.167 262,191.5C 259.796,200.873 253.963,206.206 244.5,207.5C 204.833,207.5 165.167,207.5 125.5,207.5C 120.737,207.226 116.07,207.559 111.5,208.5C 99.1622,208.667 86.8288,208.5 74.5,208C 66.5309,206.034 61.0309,201.201 58,193.5C 57.3333,162.167 57.3333,130.833 58,99.5C 60.2579,91.6111 65.4245,86.7778 73.5,85C 86.4957,84.5001 99.4957,84.3334 112.5,84.5 Z"/></g>
<g><path style="opacity:1" fill="#fcfdf9" d="M 116.5,124.5 C 120.846,124.334 125.179,124.501 129.5,125C 135.648,125.476 139.482,128.643 141,134.5C 141.235,144.927 141.901,155.26 143,165.5C 141.519,168.08 139.352,168.913 136.5,168C 134.649,166.316 132.982,164.483 131.5,162.5C 125.473,167.896 118.473,169.729 110.5,168C 100.571,162.563 99.2375,155.563 106.5,147C 114.343,144.303 122.343,142.136 130.5,140.5C 131.273,134.106 128.44,131.106 122,131.5C 116.789,132.366 112.956,135.199 110.5,140C 104.264,140.089 102.431,137.256 105,131.5C 108.225,127.979 112.058,125.646 116.5,124.5 Z"/></g>
<g><path style="opacity:1" fill="#fcfdf9" d="M 163.5,124.5 C 168.511,124.334 173.511,124.501 178.5,125C 185.173,125.416 189.006,128.916 190,135.5C 190.333,143.167 190.667,150.833 191,158.5C 193.796,163.344 192.629,166.677 187.5,168.5C 183.976,167.793 181.476,165.793 180,162.5C 172.498,168.703 164.331,169.869 155.5,166C 148.094,157.844 149.094,150.844 158.5,145C 165.513,143.498 172.513,141.998 179.5,140.5C 179.629,134.793 176.795,131.793 171,131.5C 168.747,131.631 166.581,132.131 164.5,133C 162.5,135.333 160.5,137.667 158.5,140C 154.833,140.67 152.833,139.17 152.5,135.5C 152.622,133.209 153.455,131.209 155,129.5C 157.682,127.415 160.516,125.748 163.5,124.5 Z"/></g>
<g><path style="opacity:1" fill="#fcfdfa" d="M 214.5,124.5 C 220.7,124.016 226.7,124.849 232.5,127C 238.869,130.262 240.536,134.929 237.5,141C 235.765,141.651 234.098,141.485 232.5,140.5C 229.856,136.007 226.022,133.341 221,132.5C 215.918,132.91 212.584,135.577 211,140.5C 209.909,146.097 210.576,151.43 213,156.5C 216.854,160.671 221.354,161.504 226.5,159C 229.206,156.629 231.539,153.963 233.5,151C 237.45,149.975 239.783,151.475 240.5,155.5C 238.29,162.947 233.29,167.114 225.5,168C 209.096,170.091 200.429,162.924 199.5,146.5C 199.565,135.679 204.565,128.346 214.5,124.5 Z"/></g>
<g><path style="opacity:1" fill="#7cc61e" d="M 129.5,146.5 C 132.597,154.92 129.43,159.92 120,161.5C 113.143,160.782 111.31,157.449 114.5,151.5C 119.49,149.449 124.49,147.783 129.5,146.5 Z"/></g>
<g><path style="opacity:1" fill="#7ac517" d="M 177.5,146.5 C 181.053,155.198 177.887,160.198 168,161.5C 161.369,160.239 159.869,156.739 163.5,151C 168.274,149.481 172.941,147.981 177.5,146.5 Z"/></g>
<g><path style="opacity:1" fill="#fafcf5" d="M 83.5,156.5 C 91.9568,157.437 93.6235,161.27 88.5,168C 82.1987,169.281 79.3654,166.781 80,160.5C 80.6897,158.65 81.8564,157.316 83.5,156.5 Z"/></g>
<g><path style="opacity:0.753" fill="#d2d7ca" d="M 125.5,207.5 C 165.167,207.5 204.833,207.5 244.5,207.5C 205.337,208.499 166.004,208.832 126.5,208.5C 126.5,280.5 126.5,352.5 126.5,424.5C 125.501,352.335 125.167,280.002 125.5,207.5 Z"/></g>
<g><path style="opacity:1" fill="#777777" d="M 284.5,235.5 C 289.485,234.771 293.985,235.771 298,238.5C 303.64,255.444 310.64,271.777 319,287.5C 326.333,296.167 333.667,304.833 341,313.5C 350.751,327 358.418,341.667 364,357.5C 365.458,372.388 359.458,376.721 346,370.5C 340.085,354.001 332.085,338.668 322,324.5C 314.248,316.752 307.248,308.419 301,299.5C 300.667,335.5 300.333,371.5 300,407.5C 296.459,420.712 288.293,429.878 275.5,435C 255.539,442.169 236.205,440.836 217.5,431C 201.128,419.895 196.961,405.395 205,387.5C 218.439,371.68 235.605,364.846 256.5,367C 263.786,367.757 270.786,369.59 277.5,372.5C 278.333,329.171 278.833,285.837 279,242.5C 280.666,240.004 282.5,237.671 284.5,235.5 Z"/></g>
</svg>
