<?xml version="1.0" encoding="UTF-8" standalone="no"?><svg xmlns="http://www.w3.org/2000/svg" xmlns:xlink="http://www.w3.org/1999/xlink" width="128" height="128" version="1.0"><defs><linearGradient id="a"><stop offset="0" stop-color="#fff"/><stop offset=".401" stop-color="#f5c878"/><stop offset="1" stop-color="#c09656"/></linearGradient><linearGradient id="f"><stop offset="0" stop-opacity=".663"/><stop offset=".724" stop-opacity=".663"/><stop offset="1" stop-opacity="0"/></linearGradient><linearGradient id="d"><stop offset="0" stop-color="#ffe000"/><stop offset=".394" stop-color="#f0d000"/><stop offset="1" stop-color="#fff7bc" stop-opacity=".601"/></linearGradient><linearGradient id="b"><stop offset="0" stop-color="#fff" stop-opacity=".785"/><stop offset="1" stop-color="#fff" stop-opacity="0"/></linearGradient><linearGradient id="c"><stop offset="0" stop-color="#fff" stop-opacity=".587"/><stop offset="1" stop-color="#fff" stop-opacity="0"/></linearGradient><linearGradient id="e"><stop offset="0" stop-color="#06667a"/><stop offset="1" stop-color="#88d8e7"/></linearGradient><linearGradient xlink:href="#b" id="m" x1="64.597" x2="64.597" y1="6.37" y2="33.828" gradientTransform="matrix(1.07988 0 0 1.46296 -5.084 -2.943)" gradientUnits="userSpaceOnUse"/><linearGradient xlink:href="#c" id="l" x1="86.934" x2="49.706" y1="73.707" y2="42.487" gradientTransform="translate(2.893 5.95)" gradientUnits="userSpaceOnUse"/><linearGradient xlink:href="#d" id="k" x1="96.596" x2="91.051" y1="81.685" y2="87.449" gradientTransform="translate(2.893 5.95)" gradientUnits="userSpaceOnUse"/><linearGradient xlink:href="#e" id="j" x1="66.66" x2="64.23" y1="52.148" y2="6.426" gradientTransform="translate(2.893 3.95)" gradientUnits="userSpaceOnUse"/><radialGradient xlink:href="#a" id="i" cx="66.875" cy="113.81" r="63.78" fx="66.875" fy="113.81" gradientTransform="matrix(1.19977 0 0 1.58205 -13.36 -64.942)" gradientUnits="userSpaceOnUse"/><radialGradient xlink:href="#f" id="g" cx="68.413" cy="124.695" r="56.745" fx="68.413" fy="124.695" gradientTransform="matrix(1 0 0 .24922 -1.584 82.67)" gradientUnits="userSpaceOnUse"/><filter id="h" width="1.06" height="1.241" x="-.03" y="-.12"><feGaussianBlur stdDeviation="1.418"/></filter></defs><path fill="url(#g)" d="M120.745 113.747c0 7.811-25.403 14.144-56.745 14.144s-56.745-6.333-56.745-14.144S32.658 99.603 64 99.603s56.745 6.333 56.745 14.144z" filter="url(#h)" opacity=".641"/><path fill="url(#i)" d="M130.655 69.502a63.78 63.78 0 1 1-127.56 0 63.78 63.78 0 1 1 127.56 0z" transform="matrix(1.00345 0 0 1.00345 -3.106 -5.742)"/><path fill="url(#j)" stroke="#000" stroke-linejoin="round" d="M68.163 13.946c-19.926.639-57.536 80.553-42.514 84.98 12.794 3.77 67.364-24.777 63.947-26.373C85.31 70.55 35.542 94.949 34.31 88.156c-1.305-7.185 24.095-54.435 33.123-57.185 7.217-2.2 25.814 40.315 37.78 66.138.242-16.538-21.075-83.68-37.05-83.163z"/><path fill="url(#k)" stroke="#000" d="m87.602 88.938 6.57 6.467c2.753-.372 6.179-.099 8.714 1.144-1.568-2.376-2.187-3.801-2.503-7.578l-7.254-6.35"/><path fill="#323232" stroke="#000" d="M36.431 37.303c16.766 11.031 36.473 24.963 58.206 43.83-2.29 3.119-4.662 6.21-8.34 8.866C31.68 39.434 33.476 35.36 36.43 37.303z"/><path fill="url(#l)" d="M47.929 46.194c7.71 5.213 34.097 23.483 43.743 35.462-5.926-2.803-10.551-8.708-17.612-14.453-9.203-7.487-20.36-15.926-26.131-21.009z"/><path fill="url(#m)" d="M109.625 35.624c0 16.338-20.37 29.591-45.531 29.625-25.161.033-45.615-13.166-45.719-29.503C18.272 19.409 38.557 6.101 63.718 6c25.16-.102 45.698 13.042 45.905 29.38"/></svg>