<svg version="1.2" xmlns="http://www.w3.org/2000/svg" viewBox="0 0 467 567" width="467" height="567">
	<title>alz-svg</title>
	<style>
		.s0 { fill: #27d7dd } 
		.s1 { fill: #27acdd } 
		.s2 { fill: #020202 } 
		.s3 { fill: #010101 } 
	</style>
	<g id="Layer">
	</g>
	<g id="Layer">
		<path id="Layer" fill-rule="evenodd" class="s0" d="m46.5 13.5q124-0.3 248 0.5 18.7 2.1 33 14 37.8 36.8 73.5 75.5 4.4 7.6 7 16 2.2 92.9 1.5 186-84 0.3-168-0.5-8.6-8.1-18-15-5.2-1-10-3-68-1.3-136 1-18.4 5.9-23.5 24.5-1 91.5 0 183 5.7 17.7 23.5 23.5 165.9 2.2 332 1.5-1 24.3-25 28.5-168.5 1-337 0-16.4-3.9-22.5-19.5-1-247.5 0-495 5.7-15.9 21.5-21z"/>
	</g>
	<g id="Layer">
		<path id="Layer" fill-rule="evenodd" class="s1" d="m77.5 295.5q69-0.3 138 0.5 6.4 2.9 12 7 5.1 5.6 11 10 93.5 0.5 187 1 14.5 3.1 20.5 16.5 1 82.5 0 165-5 12-17.5 15.5-174.5 1-349 0-12.7-4.8-17.5-17.5-1-89.5 0-179 3.5-13.1 15.5-19z"/>
	</g>
	<g id="Layer">
		<path id="Layer" fill-rule="evenodd" class="s2" d="m171.5 361.5q8-1.1 11.5 6 16.8 38.7 32 78 1.9 12.6-10.5 9.5-1.8-1.8-3.5-3.5-3.6-8.1-7.5-16-19-2-38 0-4.6 9.2-9 18.5-12.1 5.4-12.5-7.5 16-39 32-78 2.1-4.2 5.5-7z"/>
	</g>
	<g id="Layer">
		<path id="Layer" fill-rule="evenodd" class="s2" d="m304.5 362.5q31-0.3 62 0.5 4.7 1.9 5 7-0.8 5.9-4.5 10.5-23.8 28.8-46.5 58.5 22.5 0.5 45 1 7.3 6.6 1 14-32.9 2.5-66 1-9.6-5.3-3.5-14.5 23.2-30.7 47.5-60.5-19.5-1.1-39-2-6.9-3.8-4.5-11.5 2.1-1.8 3.5-4z"/>
	</g>
	<g id="Layer">
		<path id="Layer" fill-rule="evenodd" class="s3" d="m229.5 362.5q4.5-0.2 9 0.5 3.3 1.2 4.5 4.5 0.8 35.5 0.5 71 18-0.3 36 0.5 8.4 3.6 5.5 12.5-1.8 2.3-4.5 3.5-24.5 1-49 0-2.1-0.7-3.5-2.5-2.3-43-1-86 2.2-1.5 2.5-4z"/>
	</g>
	<g id="Layer">
		<path id="Layer" fill-rule="evenodd" class="s0" d="m172.5 391.5q1.3-0.2 2 1 6.2 12.2 12 24.5-11.5 2.7-23 0.5 5.1-12.8 9-26z"/>
	</g>
</svg>