<?xml version="1.0" encoding="UTF-8"?>
<!DOCTYPE svg PUBLIC "-//W3C//DTD SVG 1.1//EN" "http://www.w3.org/Graphics/SVG/1.1/DTD/svg11.dtd">
<svg xmlns="http://www.w3.org/2000/svg" version="1.1" width="1024px" height="1024px" style="shape-rendering:geometricPrecision; text-rendering:geometricPrecision; image-rendering:optimizeQuality; fill-rule:evenodd; clip-rule:evenodd" xmlns:xlink="http://www.w3.org/1999/xlink">
<g><path style="opacity:0.994" fill="#a9d179" d="M 514.5,105.5 C 514.971,107.579 515.637,109.579 516.5,111.5C 491.273,111.019 466.273,113.019 441.5,117.5C 397.399,124.922 355.899,139.588 317,161.5C 295.832,128.502 275.166,95.1687 255,61.5C 245.198,45.7008 232.865,43.3675 218,54.5C 214.19,58.7916 212.69,63.7916 213.5,69.5C 210.739,53.4079 217.572,44.0746 234,41.5C 242.672,42.1687 249.338,46.1687 254,53.5C 274.604,87.7648 295.604,121.765 317,155.5C 378.442,121.848 444.275,105.181 514.5,105.5 Z"/></g>
<g><path style="opacity:0.99" fill="#a5cf73" d="M 810.5,66.5 C 806.889,52.753 797.889,46.5863 783.5,48C 776.481,50.3513 771.314,54.8513 768,61.5C 747.333,94.8333 726.667,128.167 706,161.5C 646.982,129.453 583.815,112.786 516.5,111.5C 515.637,109.579 514.971,107.579 514.5,105.5C 582.523,106.463 646.357,123.13 706,155.5C 727.396,121.765 748.396,87.7648 769,53.5C 779.324,39.7871 791.324,38.1204 805,48.5C 809.15,53.7832 810.983,59.7832 810.5,66.5 Z"/></g>
<g><path style="opacity:1" fill="#94c859" d="M 441.5,117.5 C 441.082,118.222 440.416,118.722 439.5,119C 468.798,179.997 472.298,242.497 450,306.5C 426.457,368.377 384.624,413.21 324.5,441C 266.404,465.66 207.404,467.994 147.5,448C 136.451,443.975 125.784,439.141 115.5,433.5C 125.024,384.227 143.691,338.894 171.5,297.5C 199.751,317.055 230.085,320.889 262.5,309C 302.791,289.606 321.291,257.44 318,212.5C 311.368,175.046 290.201,150.046 254.5,137.5C 240.014,115.343 226.348,92.6764 213.5,69.5C 212.69,63.7916 214.19,58.7916 218,54.5C 232.865,43.3675 245.198,45.7008 255,61.5C 275.166,95.1687 295.832,128.502 317,161.5C 355.899,139.588 397.399,124.922 441.5,117.5 Z"/></g>
<g><path style="opacity:1" fill="#92c655" d="M 810.5,66.5 C 808.815,72.2039 806.315,77.5373 803,82.5C 783.142,114.231 763.308,145.898 743.5,177.5C 742.203,179.693 742.203,182.027 743.5,184.5C 762.01,197.007 779.01,211.34 794.5,227.5C 791.85,328.769 765.517,423.435 715.5,511.5C 512.5,511.5 309.5,511.5 106.5,511.5C 106.5,506.5 106.5,501.5 106.5,496.5C 106.275,486.954 106.942,477.621 108.5,468.5C 110.295,456.732 112.628,445.065 115.5,433.5C 125.784,439.141 136.451,443.975 147.5,448C 207.404,467.994 266.404,465.66 324.5,441C 384.624,413.21 426.457,368.377 450,306.5C 472.298,242.497 468.798,179.997 439.5,119C 440.416,118.722 441.082,118.222 441.5,117.5C 466.273,113.019 491.273,111.019 516.5,111.5C 583.815,112.786 646.982,129.453 706,161.5C 726.667,128.167 747.333,94.8333 768,61.5C 771.314,54.8513 776.481,50.3513 783.5,48C 797.889,46.5863 806.889,52.753 810.5,66.5 Z"/></g>
<g><path style="opacity:1" fill="#96c85b" d="M 254.5,137.5 C 290.201,150.046 311.368,175.046 318,212.5C 321.291,257.44 302.791,289.606 262.5,309C 230.085,320.889 199.751,317.055 171.5,297.5C 199.903,252.759 235.903,215.092 279.5,184.5C 279.833,183.167 280.167,181.833 280.5,180.5C 280.415,178.667 279.748,177.334 278.5,176.5C 270.249,163.667 262.249,150.667 254.5,137.5 Z"/></g>
<g><path style="opacity:0.993" fill="#a8d07a" d="M 278.5,176.5 C 279.748,177.334 280.415,178.667 280.5,180.5C 280.167,181.833 279.833,183.167 279.5,184.5C 235.903,215.092 199.903,252.759 171.5,297.5C 143.691,338.894 125.024,384.227 115.5,433.5C 112.628,445.065 110.295,456.732 108.5,468.5C 123.527,346.565 180.527,249.732 279.5,178C 278.944,177.617 278.611,177.117 278.5,176.5 Z"/></g>
<g><path style="opacity:0.993" fill="#a3ce70" d="M 743.5,177.5 C 813.46,228.314 863.626,294.314 894,375.5C 897.013,383.702 899.513,392.036 901.5,400.5C 900.503,400.53 899.836,400.03 899.5,399C 884.37,349.895 861.037,305.395 829.5,265.5C 818.755,252.032 807.089,239.366 794.5,227.5C 779.01,211.34 762.01,197.007 743.5,184.5C 742.203,182.027 742.203,179.693 743.5,177.5 Z"/></g>
<g><path style="opacity:1" fill="#90c551" d="M 794.5,227.5 C 807.089,239.366 818.755,252.032 829.5,265.5C 822.722,352.504 798.722,434.504 757.5,511.5C 743.5,511.5 729.5,511.5 715.5,511.5C 765.517,423.435 791.85,328.769 794.5,227.5 Z"/></g>
<g><path style="opacity:1" fill="#8ec44f" d="M 829.5,265.5 C 861.037,305.395 884.37,349.895 899.5,399C 899.836,400.03 900.503,400.53 901.5,400.5C 902.167,400.5 902.5,400.833 902.5,401.5C 901.522,401.811 900.855,402.478 900.5,403.5C 907.846,428.156 912.846,453.156 915.5,478.5C 916.167,484.833 916.833,491.167 917.5,497.5C 916.514,501.97 916.181,506.637 916.5,511.5C 863.5,511.5 810.5,511.5 757.5,511.5C 798.722,434.504 822.722,352.504 829.5,265.5 Z"/></g>
<g><path style="opacity:1" fill="#f1f1f1" d="M 331.5,287.5 C 365.015,285.874 385.849,301.208 394,333.5C 394.909,366.914 379.075,387.081 346.5,394C 318.554,395.117 299.721,382.617 290,356.5C 283.365,321.094 297.198,298.094 331.5,287.5 Z"/></g>
<g><path style="opacity:1" fill="#f1f1f1" d="M 672.5,287.5 C 705.105,285.624 725.938,300.29 735,331.5C 737.454,363.115 723.62,383.615 693.5,393C 661.125,396.942 639.958,383.442 630,352.5C 626.11,318.932 640.276,297.266 672.5,287.5 Z"/></g>
<g><path style="opacity:0.627" fill="#9cc769" d="M 902.5,401.5 C 909.318,426.744 913.652,452.411 915.5,478.5C 912.846,453.156 907.846,428.156 900.5,403.5C 900.855,402.478 901.522,401.811 902.5,401.5 Z"/></g>
<g><path style="opacity:1" fill="#739b4d" d="M 106.5,511.5 C 309.5,511.5 512.5,511.5 715.5,511.5C 729.5,511.5 743.5,511.5 757.5,511.5C 810.5,511.5 863.5,511.5 916.5,511.5C 916.5,513.167 916.5,514.833 916.5,516.5C 907.5,516.5 898.5,516.5 889.5,516.5C 635.833,516.5 382.167,516.5 128.5,516.5C 122.833,516.5 117.167,516.5 111.5,516.5C 109.5,515.167 107.833,513.5 106.5,511.5 Z"/></g>
<g><path style="opacity:1" fill="#90c258" d="M 106.5,496.5 C 106.5,501.5 106.5,506.5 106.5,511.5C 107.833,513.5 109.5,515.167 111.5,516.5C 111.5,517.167 111.833,517.5 112.5,517.5C 122.167,527.833 132.167,537.833 142.5,547.5C 142.5,547.833 142.5,548.167 142.5,548.5C 129.128,548.211 117.295,543.878 107,535.5C 106.5,616.166 106.333,696.833 106.5,777.5C 106.5,790.167 106.5,802.833 106.5,815.5C 106.5,827.833 106.5,840.167 106.5,852.5C 106.167,852.5 105.833,852.5 105.5,852.5C 105.167,733.665 105.5,614.999 106.5,496.5 Z"/></g>
<g><path style="opacity:1" fill="#80ab52" d="M 111.5,516.5 C 117.167,516.5 122.833,516.5 128.5,516.5C 137.841,517.258 147.341,517.925 157,518.5C 186.153,517.847 215.32,517.514 244.5,517.5C 320.834,517.947 397.167,518.447 473.5,519C 423.167,519.333 372.833,519.667 322.5,520C 389.502,520.399 456.502,520.899 523.5,521.5C 452.277,522.01 380.944,522.843 309.5,524C 361.833,524.333 414.167,524.667 466.5,525C 463.5,527.333 460.5,529.667 457.5,532C 476.005,532.168 494.338,532.668 512.5,533.5C 512.167,533.5 511.833,533.5 511.5,533.5C 392.5,533.03 273.5,532.53 154.5,532C 156.087,531.138 157.754,530.471 159.5,530C 155.5,529.333 151.5,529.333 147.5,530C 149.5,530.333 151.5,530.667 153.5,531C 139.747,531.612 127.747,527.445 117.5,518.5C 115.955,517.548 114.288,517.215 112.5,517.5C 111.833,517.5 111.5,517.167 111.5,516.5 Z"/></g>
<g><path style="opacity:1" fill="#7aa64e" d="M 128.5,516.5 C 382.167,516.5 635.833,516.5 889.5,516.5C 884.608,516.884 879.942,518.384 875.5,521C 874.5,522.667 873.5,524.333 872.5,526C 858.862,527.718 845.196,527.885 831.5,526.5C 831.709,525.914 832.043,525.414 832.5,525C 842.833,524.667 853.167,524.333 863.5,524C 862.4,522.977 861.067,522.477 859.5,522.5C 837.223,522.955 814.89,523.288 792.5,523.5C 702.835,522.548 613.168,521.882 523.5,521.5C 456.502,520.899 389.502,520.399 322.5,520C 372.833,519.667 423.167,519.333 473.5,519C 397.167,518.447 320.834,517.947 244.5,517.5C 215.32,517.514 186.153,517.847 157,518.5C 147.341,517.925 137.841,517.258 128.5,516.5 Z"/></g>
<g><path style="opacity:1" fill="#7dab4e" d="M 917.5,497.5 C 917.5,504.167 917.5,510.833 917.5,517.5C 915.143,517.337 912.81,517.503 910.5,518C 899.939,530.614 886.273,537.447 869.5,538.5C 812.681,537.899 755.681,537.399 698.5,537C 699.167,536.333 699.833,535.667 700.5,535C 637.832,534.592 575.165,534.092 512.5,533.5C 494.338,532.668 476.005,532.168 457.5,532C 460.5,529.667 463.5,527.333 466.5,525C 414.167,524.667 361.833,524.333 309.5,524C 380.944,522.843 452.277,522.01 523.5,521.5C 613.168,521.882 702.835,522.548 792.5,523.5C 814.89,523.288 837.223,522.955 859.5,522.5C 861.067,522.477 862.4,522.977 863.5,524C 853.167,524.333 842.833,524.667 832.5,525C 832.043,525.414 831.709,525.914 831.5,526.5C 845.196,527.885 858.862,527.718 872.5,526C 873.5,524.333 874.5,522.667 875.5,521C 879.942,518.384 884.608,516.884 889.5,516.5C 898.5,516.5 907.5,516.5 916.5,516.5C 916.5,514.833 916.5,513.167 916.5,511.5C 916.181,506.637 916.514,501.97 917.5,497.5 Z"/></g>
<g><path style="opacity:1" fill="#82b24e" d="M 917.5,517.5 C 917.5,525.833 917.5,534.167 917.5,542.5C 916.926,544.788 915.926,546.955 914.5,549C 910.48,551.034 906.48,553.034 902.5,555C 901.365,555.749 900.365,555.583 899.5,554.5C 900.506,553.604 900.506,552.938 899.5,552.5C 892.756,555.07 885.756,556.57 878.5,557C 799.496,556.894 720.496,556.061 641.5,554.5C 641.977,553.522 642.643,552.689 643.5,552C 592.834,551.5 542.168,551.333 491.5,551.5C 492.306,550.272 493.306,549.272 494.5,548.5C 497.469,546.008 500.469,543.508 503.5,541C 484.167,540.667 464.833,540.333 445.5,540C 465.5,539.667 485.5,539.333 505.5,539C 506.328,538.085 507.328,537.419 508.5,537C 489.5,536.667 470.5,536.333 451.5,536C 471.582,534.857 491.582,534.024 511.5,533.5C 511.833,533.5 512.167,533.5 512.5,533.5C 575.165,534.092 637.832,534.592 700.5,535C 699.833,535.667 699.167,536.333 698.5,537C 755.681,537.399 812.681,537.899 869.5,538.5C 886.273,537.447 899.939,530.614 910.5,518C 912.81,517.503 915.143,517.337 917.5,517.5 Z"/></g>
<g><path style="opacity:1" fill="#84b252" d="M 112.5,517.5 C 114.288,517.215 115.955,517.548 117.5,518.5C 127.747,527.445 139.747,531.612 153.5,531C 151.5,530.667 149.5,530.333 147.5,530C 151.5,529.333 155.5,529.333 159.5,530C 157.754,530.471 156.087,531.138 154.5,532C 273.5,532.53 392.5,533.03 511.5,533.5C 491.582,534.024 471.582,534.857 451.5,536C 470.5,536.333 489.5,536.667 508.5,537C 507.328,537.419 506.328,538.085 505.5,539C 485.5,539.333 465.5,539.667 445.5,540C 464.833,540.333 484.167,540.667 503.5,541C 500.469,543.508 497.469,546.008 494.5,548.5C 377.159,548.81 259.825,548.476 142.5,547.5C 132.167,537.833 122.167,527.833 112.5,517.5 Z"/></g>
<g><path style="opacity:1" fill="#90c653" d="M 142.5,548.5 C 166.14,571.806 189.806,595.139 213.5,618.5C 254.5,660.167 295.833,701.5 337.5,742.5C 347.167,752.5 356.833,762.5 366.5,772.5C 280.362,794.463 193.695,796.13 106.5,777.5C 106.333,696.833 106.5,616.166 107,535.5C 117.295,543.878 129.128,548.211 142.5,548.5 Z"/></g>
<g><path style="opacity:1" fill="#88b953" d="M 142.5,548.5 C 142.5,548.167 142.5,547.833 142.5,547.5C 259.825,548.476 377.159,548.81 494.5,548.5C 493.306,549.272 492.306,550.272 491.5,551.5C 489.862,552.657 488.196,553.824 486.5,555C 504.5,555.333 522.5,555.667 540.5,556C 538.167,558.333 535.833,560.667 533.5,563C 513.833,563.333 494.167,563.667 474.5,564C 473.167,565 471.833,566 470.5,567C 489.5,567.333 508.5,567.667 527.5,568C 522.833,572 518.167,576 513.5,580C 548.505,580.167 583.505,580.667 618.5,581.5C 606.652,594.182 594.318,606.349 581.5,618C 562.17,618.5 542.836,618.667 523.5,618.5C 420.167,618.5 316.833,618.5 213.5,618.5C 189.806,595.139 166.14,571.806 142.5,548.5 Z"/></g>
<g><path style="opacity:1" fill="#86b94e" d="M 917.5,542.5 C 917.5,547.167 917.5,551.833 917.5,556.5C 916.501,608.997 916.168,661.664 916.5,714.5C 875.499,714.667 834.499,714.5 793.5,714C 798.877,708.292 803.877,702.292 808.5,696C 740.501,695.5 672.501,695.333 604.5,695.5C 618.603,683.236 632.603,670.736 646.5,658C 608.5,657.667 570.5,657.333 532.5,657C 541.447,651.053 550.114,644.72 558.5,638C 538.167,637.667 517.833,637.333 497.5,637C 506.761,631.548 515.428,625.381 523.5,618.5C 542.836,618.667 562.17,618.5 581.5,618C 594.318,606.349 606.652,594.182 618.5,581.5C 583.505,580.667 548.505,580.167 513.5,580C 518.167,576 522.833,572 527.5,568C 508.5,567.667 489.5,567.333 470.5,567C 471.833,566 473.167,565 474.5,564C 494.167,563.667 513.833,563.333 533.5,563C 535.833,560.667 538.167,558.333 540.5,556C 522.5,555.667 504.5,555.333 486.5,555C 488.196,553.824 489.862,552.657 491.5,551.5C 542.168,551.333 592.834,551.5 643.5,552C 642.643,552.689 641.977,553.522 641.5,554.5C 720.496,556.061 799.496,556.894 878.5,557C 885.756,556.57 892.756,555.07 899.5,552.5C 900.506,552.938 900.506,553.604 899.5,554.5C 900.365,555.583 901.365,555.749 902.5,555C 906.48,553.034 910.48,551.034 914.5,549C 915.926,546.955 916.926,544.788 917.5,542.5 Z"/></g>
<g><path style="opacity:1" fill="#8abc51" d="M 213.5,618.5 C 316.833,618.5 420.167,618.5 523.5,618.5C 515.428,625.381 506.761,631.548 497.5,637C 517.833,637.333 538.167,637.667 558.5,638C 550.114,644.72 541.447,651.053 532.5,657C 570.5,657.333 608.5,657.667 646.5,658C 632.603,670.736 618.603,683.236 604.5,695.5C 559.165,695.333 513.832,695.5 468.5,696C 455.409,702.215 442.409,708.381 429.5,714.5C 399.613,726.306 368.947,735.64 337.5,742.5C 295.833,701.5 254.5,660.167 213.5,618.5 Z"/></g>
<g><path style="opacity:1" fill="#88bd4d" d="M 917.5,556.5 C 917.5,622.167 917.5,687.833 917.5,753.5C 916.673,748.015 916.173,742.348 916,736.5C 907.024,748.31 897.857,759.977 888.5,771.5C 897.81,772.498 907.143,772.832 916.5,772.5C 916.5,778.833 916.5,785.167 916.5,791.5C 901.496,791.333 886.496,791.5 871.5,792C 854.198,811.635 835.865,830.302 816.5,848C 850.387,847.85 884.054,848.683 917.5,850.5C 917.427,857.346 916.427,864.012 914.5,870.5C 913.861,869.903 913.528,869.07 913.5,868C 915.121,862.573 915.954,857.073 916,851.5C 904.833,863.333 893.667,875.167 882.5,887C 845.502,887.5 808.502,887.667 771.5,887.5C 752.164,887.667 732.83,887.5 713.5,887C 730.075,875.095 746.075,862.428 761.5,849C 721.5,848.667 681.5,848.333 641.5,848C 667.301,830.87 691.968,812.203 715.5,792C 675.167,791.667 634.833,791.333 594.5,791C 612.537,779.649 629.87,767.316 646.5,754C 603.5,753.667 560.5,753.333 517.5,753C 538.514,741.833 558.514,729.166 577.5,715C 528.168,714.5 478.834,714.333 429.5,714.5C 442.409,708.381 455.409,702.215 468.5,696C 513.832,695.5 559.165,695.333 604.5,695.5C 672.501,695.333 740.501,695.5 808.5,696C 803.877,702.292 798.877,708.292 793.5,714C 834.499,714.5 875.499,714.667 916.5,714.5C 916.168,661.664 916.501,608.997 917.5,556.5 Z"/></g>
<g><path style="opacity:1" fill="#8abf4e" d="M 429.5,714.5 C 478.834,714.333 528.168,714.5 577.5,715C 558.514,729.166 538.514,741.833 517.5,753C 560.5,753.333 603.5,753.667 646.5,754C 629.87,767.316 612.537,779.649 594.5,791C 634.833,791.333 675.167,791.667 715.5,792C 691.968,812.203 667.301,830.87 641.5,848C 681.5,848.333 721.5,848.667 761.5,849C 746.075,862.428 730.075,875.095 713.5,887C 732.83,887.5 752.164,887.667 771.5,887.5C 764.31,894.182 756.644,900.349 748.5,906C 767.5,906.333 786.5,906.667 805.5,907C 803.382,908.049 801.716,909.549 800.5,911.5C 702.5,911.5 604.5,911.5 506.5,911.5C 470.525,874.526 433.859,838.192 396.5,802.5C 386.833,792.167 376.833,782.167 366.5,772.5C 356.833,762.5 347.167,752.5 337.5,742.5C 368.947,735.64 399.613,726.306 429.5,714.5 Z"/></g>
<g><path style="opacity:1" fill="#8fc450" d="M 366.5,772.5 C 376.833,782.167 386.833,792.167 396.5,802.5C 323.76,824.311 249.426,831.811 173.5,825C 151.004,822.905 128.67,819.739 106.5,815.5C 106.5,802.833 106.5,790.167 106.5,777.5C 193.695,796.13 280.362,794.463 366.5,772.5 Z"/></g>
<g><path style="opacity:1" fill="#87be49" d="M 917.5,753.5 C 917.5,785.833 917.5,818.167 917.5,850.5C 884.054,848.683 850.387,847.85 816.5,848C 835.865,830.302 854.198,811.635 871.5,792C 886.496,791.5 901.496,791.333 916.5,791.5C 916.5,785.167 916.5,778.833 916.5,772.5C 907.143,772.832 897.81,772.498 888.5,771.5C 897.857,759.977 907.024,748.31 916,736.5C 916.173,742.348 916.673,748.015 917.5,753.5 Z"/></g>
<g><path style="opacity:1" fill="#8ec44f" d="M 396.5,802.5 C 433.859,838.192 470.525,874.526 506.5,911.5C 391.166,911.667 275.833,911.5 160.5,911C 129.122,903.79 111.122,884.29 106.5,852.5C 106.5,840.167 106.5,827.833 106.5,815.5C 128.67,819.739 151.004,822.905 173.5,825C 249.426,831.811 323.76,824.311 396.5,802.5 Z"/></g>
<g><path style="opacity:1" fill="#89be49" d="M 914.5,870.5 C 914.737,871.791 914.404,872.791 913.5,873.5C 912.811,872.226 911.977,872.226 911,873.5C 900.63,895.187 883.463,907.687 859.5,911C 839.836,911.5 820.169,911.667 800.5,911.5C 801.716,909.549 803.382,908.049 805.5,907C 786.5,906.667 767.5,906.333 748.5,906C 756.644,900.349 764.31,894.182 771.5,887.5C 808.502,887.667 845.502,887.5 882.5,887C 893.667,875.167 904.833,863.333 916,851.5C 915.954,857.073 915.121,862.573 913.5,868C 913.528,869.07 913.861,869.903 914.5,870.5 Z"/></g>
<g><path style="opacity:0.998" fill="#7cab4b" d="M 105.5,852.5 C 105.833,852.5 106.167,852.5 106.5,852.5C 111.122,884.29 129.122,903.79 160.5,911C 275.833,911.5 391.166,911.667 506.5,911.5C 507.625,913.129 508.959,914.629 510.5,916C 626.001,916.167 741.334,916.667 856.5,917.5C 625.833,917.667 395.166,917.5 164.5,917C 138.656,913.828 120.489,900.328 110,876.5C 107.34,868.713 105.84,860.713 105.5,852.5 Z"/></g>
<g><path style="opacity:1" fill="#77a548" d="M 913.5,873.5 C 903.678,899.925 884.678,914.592 856.5,917.5C 741.334,916.667 626.001,916.167 510.5,916C 508.959,914.629 507.625,913.129 506.5,911.5C 604.5,911.5 702.5,911.5 800.5,911.5C 820.169,911.667 839.836,911.5 859.5,911C 883.463,907.687 900.63,895.187 911,873.5C 911.977,872.226 912.811,872.226 913.5,873.5 Z"/></g>
</svg>
