<svg version="1.2" xmlns="http://www.w3.org/2000/svg" viewBox="0 0 512 512" width="512" height="512">
	<title>at3-svg</title>
	<style>
		.s0 { opacity: 1;fill: #2b8bc8 } 
		.s1 { opacity: .9;fill: #2b8bc8 } 
		.s2 { opacity: .8;fill: #2b8bc8 } 
	</style>
	<g id="Layer">
		<path id="Layer" fill-rule="evenodd" class="s0" d="m107.5 14.5q110.5-0.3 221 0.5 60.3 60.3 120.5 120.5 1 168.5 0 337-4.6 18.1-22.5 23.5-159.5 1-319 0-17.2-5.2-22.5-22.5-0.7-23.5-0.5-47-15.4 3.7-22.5-10-0.3-22.5-0.5-45-0.2-24.1 1.5-48 7.9-10.9 21.5-8-0.3-139 0.5-278 5.5-17.3 22.5-23zm-10.5 26q-0.8 137.5-0.5 275 83.5-0.3 167 0.5 9.6 2.2 12.5 11.5 1 43.5 0 87-2.7 8.7-11.5 11.5-84 0.8-168 0.5-0.2 22 0.5 44 2.7 10.8 13.5 13.5 156.5 1 313 0 10.9-3.4 13.5-14.5 0.8-162 0.5-324-45 0.3-90-0.5-23.2-2.7-28.5-25.5-0.8-46.5-0.5-93-104 0-208 0-10.5 3.2-13.5 14zm15.5 351q3 0.2 6-0.5 2.4-3.8 4-8 10.5-1.2 21 0.5 0.9 5.9 6 8 2.7 0.2 4-2-8-20-16-40-4.4-1.5-9-1-9.2 21.1-16 43zm41-36.5q6 0.7 12 0.5 0 18 0 36 3.5 0 7 0 0-18 0-36 6 0.2 12-0.5 1.4-3.1 1-6.5-16.5 0-33 0-0.4 3.4 1 6.5zm40 0q9 0.5 18 1-5.3 4.8-9.5 10.5-0.7 3-0.5 6 7.3-0.5 14 2.5 2.8 10-8 10.5-6.4 0-10-5-2.9-1.7-6-0.5-0.8 4.5 3 8 9.4 5 20 3 4.6-1.6 7.5-5.5 6.5-15.8-10.5-19.5 5.8-5.3 10.5-11.5 1-2.5 0-5-14.6-1.5-29.5-1-0.4 3.4 1 6.5z"/>
	</g>
	<g id="Layer">
		<path id="Layer" fill-rule="evenodd" class="s1" d="m168.5 168.5q50-0.3 100 0.5 8.3 4.3 2 11-52 1-104 0-4.5-6.8 2-11.5z"/>
	</g>
	<g id="Layer">
		<path id="Layer" fill-rule="evenodd" class="s1" d="m168.5 212.5q98.5-0.3 197 0.5 7.2 4.9 1 11-99.5 1-199 0-6.3-6.4 1-11.5z"/>
	</g>
	<g id="Layer">
		<path id="Layer" fill-rule="evenodd" class="s1" d="m167.5 256.5q99.5-0.3 199 0.5 6 5.5 0 11-99.5 1-199 0-5.9-5.7 0-11.5z"/>
	</g>
	<g id="Layer">
		<path id="Layer" fill-rule="evenodd" class="s2" d="m131.5 357.5q1.3-0.2 2 1 3.7 8.2 7 16.5-7.5 1.2-15-0.5 3.6-8.3 6-17z"/>
	</g>
</svg>