<?xml version="1.0" encoding="UTF-8"?>
<!DOCTYPE svg PUBLIC "-//W3C//DTD SVG 1.1//EN" "http://www.w3.org/Graphics/SVG/1.1/DTD/svg11.dtd">
<svg xmlns="http://www.w3.org/2000/svg" version="1.1" width="512px" height="512px" style="shape-rendering:geometricPrecision; text-rendering:geometricPrecision; image-rendering:optimizeQuality; fill-rule:evenodd; clip-rule:evenodd" xmlns:xlink="http://www.w3.org/1999/xlink">
<g><path style="opacity:0.957" fill="#211e1e" d="M 511.5,144.5 C 511.5,218.5 511.5,292.5 511.5,366.5C 509.918,368.97 507.585,370.47 504.5,371C 479.502,371.5 454.502,371.667 429.5,371.5C 429.667,413.168 429.5,454.835 429,496.5C 428.654,498.848 427.487,500.681 425.5,502C 368.89,503.161 312.224,503.661 255.5,503.5C 198.776,503.661 142.11,503.161 85.5,502C 83.5125,500.681 82.3459,498.848 82,496.5C 81.5,454.835 81.3333,413.168 81.5,371.5C 56.4978,371.667 31.4978,371.5 6.5,371C 3.41501,370.47 1.08167,368.97 -0.5,366.5C -0.5,292.5 -0.5,218.5 -0.5,144.5C 0.93142,142.563 2.59809,140.73 4.5,139C 30.0874,121.29 55.5874,103.456 81,85.5C 81.3333,61.5 81.6667,37.5 82,13.5C 82.9332,9.60506 85.4332,7.43839 89.5,7C 200.167,6.33333 310.833,6.33333 421.5,7C 425.567,7.43839 428.067,9.60506 429,13.5C 429.333,37.5 429.667,61.5 430,85.5C 455.413,103.456 480.913,121.29 506.5,139C 508.402,140.73 510.069,142.563 511.5,144.5 Z M 99.5,24.5 C 203.5,24.5 307.5,24.5 411.5,24.5C 411.5,62.8333 411.5,101.167 411.5,139.5C 403.833,139.5 396.167,139.5 388.5,139.5C 388.667,128.162 388.5,116.828 388,105.5C 387.573,101.473 385.406,98.9729 381.5,98C 297.5,97.3333 213.5,97.3333 129.5,98C 125.594,98.9729 123.427,101.473 123,105.5C 122.5,116.828 122.333,128.162 122.5,139.5C 114.833,139.5 107.167,139.5 99.5,139.5C 99.5,101.167 99.5,62.8333 99.5,24.5 Z M 80.5,107.5 C 81.4944,117.987 81.8278,128.654 81.5,139.5C 66.163,139.667 50.8297,139.5 35.5,139C 50.6795,128.637 65.6795,118.137 80.5,107.5 Z M 429.5,107.5 C 444.953,117.779 460.286,128.279 475.5,139C 460.17,139.5 444.837,139.667 429.5,139.5C 429.5,128.833 429.5,118.167 429.5,107.5 Z M 99.5,371.5 C 107.167,371.5 114.833,371.5 122.5,371.5C 122.082,383.895 122.582,396.228 124,408.5C 125.214,410.049 126.714,411.215 128.5,412C 213.167,412.667 297.833,412.667 382.5,412C 385.883,410.62 387.716,408.12 388,404.5C 388.5,393.505 388.667,382.505 388.5,371.5C 396.167,371.5 403.833,371.5 411.5,371.5C 411.5,409.5 411.5,447.5 411.5,485.5C 307.5,485.5 203.5,485.5 99.5,485.5C 99.5,447.5 99.5,409.5 99.5,371.5 Z"/></g>
<g><path style="opacity:0.959" fill="#201e1d" d="M 188.5,48.5 C 233.167,48.5 277.833,48.5 322.5,48.5C 322.5,54.1667 322.5,59.8333 322.5,65.5C 277.833,65.5 233.167,65.5 188.5,65.5C 188.5,59.8333 188.5,54.1667 188.5,48.5 Z"/></g>
<g><path style="opacity:0.967" fill="#211e1e" d="M 164.5,72.5 C 225.167,72.5 285.833,72.5 346.5,72.5C 346.5,78.5 346.5,84.5 346.5,90.5C 285.833,90.5 225.167,90.5 164.5,90.5C 164.5,84.5 164.5,78.5 164.5,72.5 Z"/></g>
<g><path style="opacity:1" fill="#c0a1a7" d="M 370.5,139.5 C 370.5,131.5 370.5,123.5 370.5,115.5C 293.833,115.5 217.167,115.5 140.5,115.5C 140.5,123.5 140.5,131.5 140.5,139.5C 139.507,131.35 139.174,123.017 139.5,114.5C 216.833,114.5 294.167,114.5 371.5,114.5C 371.826,123.017 371.493,131.35 370.5,139.5 Z"/></g>
<g><path style="opacity:1" fill="#f4ccd3" d="M 370.5,139.5 C 293.833,139.5 217.167,139.5 140.5,139.5C 140.5,131.5 140.5,123.5 140.5,115.5C 217.167,115.5 293.833,115.5 370.5,115.5C 370.5,123.5 370.5,131.5 370.5,139.5 Z"/></g>
<g><path style="opacity:1" fill="#e4657c" d="M 494.5,156.5 C 494.5,222.167 494.5,287.833 494.5,353.5C 335.167,353.5 175.833,353.5 16.5,353.5C 16.5,287.833 16.5,222.167 16.5,156.5C 175.833,155.167 335.167,155.167 494.5,156.5 Z"/></g>
<g><path style="opacity:1" fill="#9b4b58" d="M 16.5,156.5 C 16.5,222.167 16.5,287.833 16.5,353.5C 175.833,353.5 335.167,353.5 494.5,353.5C 494.5,287.833 494.5,222.167 494.5,156.5C 495.499,222.331 495.832,288.331 495.5,354.5C 335.5,354.5 175.5,354.5 15.5,354.5C 15.1675,288.331 15.5009,222.331 16.5,156.5 Z"/></g>
<g><path style="opacity:1" fill="#221e1e" d="M 324.5,180.5 C 338.171,180.333 351.837,180.5 365.5,181C 376.623,182.635 383.789,188.802 387,199.5C 387.667,241.167 387.667,282.833 387,324.5C 381.951,331.154 376.951,331.154 372,324.5C 371.5,304.169 371.333,283.836 371.5,263.5C 354.833,263.5 338.167,263.5 321.5,263.5C 321.667,283.836 321.5,304.169 321,324.5C 315.951,331.154 310.951,331.154 306,324.5C 305.333,282.5 305.333,240.5 306,198.5C 309.416,189.583 315.583,183.583 324.5,180.5 Z"/></g>
<g><path style="opacity:1" fill="#783e47" d="M 370.5,203.5 C 371.496,217.99 371.829,232.657 371.5,247.5C 354.658,247.83 337.992,247.497 321.5,246.5C 337.833,246.5 354.167,246.5 370.5,246.5C 370.5,232.167 370.5,217.833 370.5,203.5 Z"/></g>
<g><path style="opacity:1" fill="#e5657c" d="M 370.5,203.5 C 370.5,217.833 370.5,232.167 370.5,246.5C 354.167,246.5 337.833,246.5 321.5,246.5C 321.333,231.83 321.5,217.163 322,202.5C 322.956,201.421 323.789,200.255 324.5,199C 338.406,197.369 352.406,197.036 366.5,198C 368.464,199.451 369.797,201.284 370.5,203.5 Z"/></g>
<g><path style="opacity:1" fill="#221e1e" d="M 233.5,180.5 C 247.171,180.333 260.837,180.5 274.5,181C 285.623,182.635 292.789,188.802 296,199.5C 296.667,241.167 296.667,282.833 296,324.5C 291.049,331.154 286.049,331.154 281,324.5C 280.5,304.169 280.333,283.836 280.5,263.5C 263.833,263.5 247.167,263.5 230.5,263.5C 230.667,283.836 230.5,304.169 230,324.5C 224.951,331.154 219.951,331.154 215,324.5C 214.333,282.833 214.333,241.167 215,199.5C 218.017,189.984 224.184,183.651 233.5,180.5 Z"/></g>
<g><path style="opacity:1" fill="#e4657c" d="M 235.5,197.5 C 248.837,197.333 262.171,197.5 275.5,198C 277.333,199.167 278.833,200.667 280,202.5C 280.5,217.163 280.667,231.83 280.5,246.5C 263.833,246.5 247.167,246.5 230.5,246.5C 230.333,231.83 230.5,217.163 231,202.5C 232.366,200.638 233.866,198.972 235.5,197.5 Z"/></g>
<g><path style="opacity:1" fill="#221e1e" d="M 129.5,180.5 C 151.552,176.969 171.886,181.136 190.5,193C 196.189,198.347 200.689,204.514 204,211.5C 205.633,239.785 205.966,268.118 205,296.5C 201.003,313.01 190.836,323.51 174.5,328C 159.203,329.546 143.869,329.879 128.5,329C 126.667,327.833 125.167,326.333 124,324.5C 123.333,278.167 123.333,231.833 124,185.5C 125.73,183.598 127.563,181.931 129.5,180.5 Z"/></g>
<g><path style="opacity:1" fill="#e5657c" d="M 140.5,197.5 C 156.172,194.788 170.172,198.288 182.5,208C 185.037,210.906 187.204,214.073 189,217.5C 189.667,242.833 189.667,268.167 189,293.5C 185.694,304.311 178.527,310.645 167.5,312.5C 158.5,312.5 149.5,312.5 140.5,312.5C 140.5,274.167 140.5,235.833 140.5,197.5 Z"/></g>
<g><path style="opacity:1" fill="#954855" d="M 140.5,197.5 C 140.5,235.833 140.5,274.167 140.5,312.5C 149.5,312.5 158.5,312.5 167.5,312.5C 158.348,313.494 149.015,313.827 139.5,313.5C 139.168,274.663 139.501,235.996 140.5,197.5 Z"/></g>
<g><path style="opacity:1" fill="#c0a1a7" d="M 370.5,395.5 C 370.5,387.5 370.5,379.5 370.5,371.5C 293.833,371.5 217.167,371.5 140.5,371.5C 140.5,379.5 140.5,387.5 140.5,395.5C 139.507,387.35 139.174,379.017 139.5,370.5C 216.833,370.5 294.167,370.5 371.5,370.5C 371.826,379.017 371.493,387.35 370.5,395.5 Z"/></g>
<g><path style="opacity:1" fill="#f4ccd3" d="M 370.5,395.5 C 293.833,395.5 217.167,395.5 140.5,395.5C 140.5,387.5 140.5,379.5 140.5,371.5C 217.167,371.5 293.833,371.5 370.5,371.5C 370.5,379.5 370.5,387.5 370.5,395.5 Z"/></g>
<g><path style="opacity:0.956" fill="#201d1d" d="M 164.5,419.5 C 225.167,419.5 285.833,419.5 346.5,419.5C 346.5,425.5 346.5,431.5 346.5,437.5C 285.833,437.5 225.167,437.5 164.5,437.5C 164.5,431.5 164.5,425.5 164.5,419.5 Z"/></g>
<g><path style="opacity:0.904" fill="#201e1d" d="M 188.5,444.5 C 233.167,444.5 277.833,444.5 322.5,444.5C 322.5,450.5 322.5,456.5 322.5,462.5C 277.833,462.5 233.167,462.5 188.5,462.5C 188.5,456.5 188.5,450.5 188.5,444.5 Z"/></g>
</svg>
