<svg version="1.2" xmlns="http://www.w3.org/2000/svg" viewBox="0 0 586 586" width="586" height="586">
	<title>dbf-svg</title>
	<style>
		.s0 { fill: #ff008a } 
	</style>
	<g id="Layer">
		<path id="Layer" class="s0" d="m197.5 265.4c0-9.4-7.1-14.2-19.5-13.8-5.9 0.1-9.2 0.6-11.5 1v28.3h8.8c14.3-0.1 22.2-6.2 22.2-15.5z"/>
		<path id="Layer" class="s0" d="m65.5 255.5c-5.1 0.1-8.3 0.7-10.2 1.3v73c1.9 0.5 5 0.6 7.8 0.7 20.9 0.9 34.9-11.6 34.9-39.2 0.2-23.9-12.6-36.3-32.5-35.8z"/>
		<path id="Layer" class="s0" d="m175.7 300.7l-9.2-0.1v34.3c2.7 0.4 5.8 0.5 10.4 0.7 12.4 0.4 23.5-4 23.5-17.1 0-12.6-11.1-17.7-24.7-17.8z"/>
		<path id="Layer" fill-rule="evenodd" class="s0" d="m357.4 0v49.1c0.8 0 1.5-0.1 2.3-0.1h177.4c20.8 0 37.6 16.9 37.6 37.6v411.2c0 20.8-16.8 37.6-37.6 37.6h-177.4c-0.8 0-1.5 0-2.3-0.1v50.6l-346.2-47.4v-492.3zm0 70.7v154.2c13.8-4.8 32.4-7.3 50.4-7.3 35.2 0 72.6 9.4 72.6 26.7 0 1.4-0.3 2.7-0.8 4l0.2 0.4c1.6 2.9 2.4 5.8 2.4 8.7v21.5c0 3.3-1 6.4-2.9 9.4l0.3 0.4c1.7 3 2.6 6.1 2.6 9.2v17.3c-2-1.6-4.5-2.6-7.3-2.6h-0.7v-13.5c-12.2 11.2-37.3 18.4-66.4 18.4-19.5 0-37.2-3.3-50.4-8.8v26.9c11.7 5.7 29.3 9.7 50.4 9.7 3.9 0 7.6-0.2 11.2-0.4 0.2 0.8 0.4 1.7 0.7 2.5 0.6 1.4 0.6 3 0.1 4.4-0.6 1.4-1.8 2.5-3.3 3.1-1.4 0.6-2.5 1.4-3.5 2.3-1.7 0-3.4 0.1-5.2 0.1-19.5 0-37.2-3.2-50.4-8.8v27c11.7 5.6 29.3 9.7 50.4 9.7 1.2 0 2.4-0.1 3.6-0.1 1.3 1.8 3 3.2 5.2 4.1 1.5 0.6 2.6 1.7 3.2 3.1 0 0.1 0 0.2 0 0.3-3.9 0.3-7.9 0.5-12 0.5-19.7 0-37.3-3.4-50.4-8.9v129.5c0.7 0.1 1.5 0.3 2.3 0.3h177.4c8.9 0 16.1-7.3 16.1-16.2v-411.2c0-8.9-7.2-16.1-16.1-16.1h-177.4c-0.8 0-1.6 0.1-2.3 0.2zm-233.4 219.9c0-20.8-7.1-35.2-18.4-43.8-10.3-8.1-23.2-11.5-42.5-10.7-11.4 0.5-22 1.7-30 3.5v107.6c5.4 1.1 13.5 2.4 25.1 2.9 19.8 1 36.5-2.9 47.7-12.5 10.5-9.2 18.1-24.5 18.1-47zm106.4 29.7c0-16.4-10.8-27.5-25.2-31.4v-0.4c14.2-5.2 20.8-15.8 20.8-27.1 0-11.5-6.4-19.9-15.2-24.3-9.1-5-19.5-6.3-36.2-5.6-13.3 0.6-27.2 2.2-34 3.9v117.1c5.8 1.2 15.3 2.6 28.4 3.2 23.9 1.3 39-2.1 48.1-8.9 8-6.1 13.3-15 13.3-26.5zm106.4-94.4l-86.2 3.4v129.2l30.9 1.6v-53.1l51.5 0.7v-25.1l-51.5 0.1v-30.1l55.3-1.3zm20.6 69.3c11.7 5.6 29.3 9.6 50.4 9.6 39.2 0 66.4-13.7 66.4-25.9v-17.9c-11.9 10.1-39.5 15.4-66.4 15.4-18.1 0-36.6-2.5-50.4-7.2z"/>
		<path id="Layer" fill-rule="evenodd" class="s0" d="m484.8 329.4c4.1 1.7 8.8 1.6 12.9-0.2 0.2-0.1 0.6-0.2 1.1 0.2l8.8 8.9c0.3 0.3 0.4 0.7 0.2 1.1-1.8 4-1.8 8.7-0.1 12.8 1.7 4.1 5 7.3 9.1 8.9 0.4 0.2 0.7 0.6 0.7 1v3.9c-2.1 0.1-3.9 1.4-4.7 3.4-0.3 0.7-0.9 1.3-1.6 1.6-0.6 0.2-1.4 0.3-2.2-0.1l-1.1-0.4h-1c-1.4 0-2.8 0.5-3.9 1.6l-4.1 4.1c-1.6 1.6-2.1 4-1.2 6.1 0.3 0.7 0.3 1.5 0.1 2.1-0.3 0.7-0.9 1.3-1.6 1.6-2.1 0.8-3.5 2.8-3.5 5v5.9c0 2.3 1.4 4.3 3.5 5.1 0.7 0.3 1.3 0.8 1.6 1.5 0.2 0.7 0.2 1.5-0.1 2.2q-0.3 0.8-0.4 1.6c-4-1.6-8.5-1.7-12.5 0-4.1 1.7-7.3 5-8.9 9.1-0.2 0.4-0.5 0.7-1 0.7h-12.4c-0.4 0-0.8-0.3-1-0.7-1.6-4.1-4.8-7.4-8.9-9.1-2-0.8-4.1-1.2-6.3-1.2-2.3 0-4.5 0.4-6.6 1.3-0.2 0.2-0.6 0.3-1.1-0.2l-8.8-8.8c-0.3-0.3-0.4-0.8-0.2-1.1 1.8-4.1 1.8-8.7 0.1-12.8-1.7-4.1-5-7.4-9.1-9-0.4-0.1-0.7-0.5-0.7-0.9v-12.5c0-0.4 0.3-0.8 0.7-1 4.1-1.6 7.4-4.8 9.1-8.9 1.7-4.1 1.7-8.8-0.1-12.8-0.2-0.4-0.1-0.8 0.2-1.1l8.8-8.9c0.5-0.5 0.9-0.3 1.1-0.2 4.1 1.8 8.8 1.8 12.9 0.1 4.1-1.6 7.3-5 8.9-9.1 0.2-0.4 0.6-0.6 1-0.6h12.4c0.5 0 0.8 0.2 1 0.6 1.6 4.1 4.9 7.5 8.9 9.2zm-16.1 14.7c-13.4 0-24.3 10.9-24.3 24.2 0 13.4 10.9 24.3 24.3 24.3 13.4 0 24.3-10.9 24.3-24.3 0-13.3-10.9-24.2-24.3-24.2z"/>
		<path id="Layer" fill-rule="evenodd" class="s0" d="m518 371.2c0.1-0.2 0.3-0.3 0.5-0.3h5.9c0.2 0 0.3 0.1 0.4 0.3 0.8 1.9 2.3 3.5 4.3 4.3 1.9 0.8 4.1 0.8 6-0.1 0.1 0 0.3-0.1 0.6 0.2l4.1 4.1c0.2 0.2 0.2 0.4 0.1 0.6-0.8 1.9-0.8 4.1 0 6 0.8 2 2.3 3.5 4.3 4.3 0.2 0.1 0.3 0.2 0.3 0.4v5.9c0 0.2-0.1 0.4-0.3 0.5-2 0.8-3.5 2.3-4.3 4.2-0.8 2-0.8 4.2 0 6.1 0.1 0.2 0.1 0.4-0.1 0.5l-4.1 4.2c-0.3 0.2-0.4 0.2-0.6 0.1-1.9-0.8-4.1-0.9-6-0.1-2 0.9-3.5 2.4-4.3 4.4-0.1 0.2-0.2 0.3-0.4 0.3h-5.9c-0.2 0-0.4-0.1-0.5-0.3-0.7-2-2.3-3.6-4.2-4.4q-1.5-0.5-3-0.5-1.6 0-3.1 0.6c-0.1 0.1-0.3 0.1-0.5-0.1l-4.2-4.2c-0.1-0.1-0.2-0.3-0.1-0.5 0.8-1.9 0.9-4.1 0.1-6.1-0.8-1.9-2.4-3.4-4.4-4.2-0.2-0.1-0.3-0.3-0.3-0.5v-5.9c0-0.2 0.1-0.3 0.3-0.4 2-0.8 3.6-2.3 4.4-4.3 0.8-1.9 0.7-4.1-0.1-6-0.1-0.2 0-0.4 0.1-0.6l4.2-4.1c0.2-0.3 0.4-0.2 0.5-0.2 1.9 0.9 4.1 0.9 6.1 0.1 1.9-0.8 3.5-2.4 4.2-4.3zm-8.1 22.8c0 6.3 5.2 11.5 11.5 11.5 6.3 0 11.5-5.2 11.5-11.5 0-6.4-5.2-11.5-11.5-11.5-6.3 0-11.5 5.1-11.5 11.5z"/>
	</g>
</svg>