<?xml version="1.0" encoding="UTF-8"?>
<!DOCTYPE svg PUBLIC "-//W3C//DTD SVG 1.1//EN" "http://www.w3.org/Graphics/SVG/1.1/DTD/svg11.dtd">
<svg xmlns="http://www.w3.org/2000/svg" version="1.1" width="512px" height="512px" style="shape-rendering:geometricPrecision; text-rendering:geometricPrecision; image-rendering:optimizeQuality; fill-rule:evenodd; clip-rule:evenodd" xmlns:xlink="http://www.w3.org/1999/xlink">
<g><path style="opacity:0.997" fill="#e2e1e1" d="M 277.5,5.5 C 277.5,39.1667 277.5,72.8333 277.5,106.5C 251.165,106.333 224.831,106.5 198.5,107C 195.274,108.198 192.441,110.031 190,112.5C 176.016,141.136 162.016,169.802 148,198.5C 147.333,221.5 147.333,244.5 148,267.5C 149.769,272.935 153.269,276.768 158.5,279C 221.167,279.667 283.833,279.667 346.5,279C 351.731,276.768 355.231,272.935 357,267.5C 357.667,244.5 357.667,221.5 357,198.5C 349.398,183.18 341.898,167.847 334.5,152.5C 364.005,152.831 393.338,152.498 422.5,151.5C 423.666,237.999 423.832,324.666 423,411.5C 418.992,435.176 405.158,449.343 381.5,454C 299.167,454.667 216.833,454.667 134.5,454C 129.466,453.413 124.799,451.913 120.5,449.5C 111.678,445.682 104.678,439.682 99.5,431.5C 178.833,430.833 258.167,430.167 337.5,429.5C 353.743,427.091 363.243,417.757 366,401.5C 366.667,376.5 366.667,351.5 366,326.5C 362.383,311.883 353.217,303.05 338.5,300C 256.167,299.5 173.834,299.333 91.5,299.5C 91.3333,215.166 91.5,130.833 92,46.5C 96.9484,23.8848 110.782,10.3848 133.5,6C 181.499,5.50001 229.499,5.33334 277.5,5.5 Z"/></g>
<g><path style="opacity:1" fill="#fefefe" d="M 277.5,5.5 C 286.167,13.5 294.5,21.8333 302.5,30.5C 342.527,70.8603 382.527,111.194 422.5,151.5C 393.338,152.498 364.005,152.831 334.5,152.5C 331.167,152.5 327.833,152.5 324.5,152.5C 306.761,152.882 293.261,145.549 284,130.5C 281.474,126.086 279.641,121.42 278.5,116.5C 277.949,113.193 277.616,109.86 277.5,106.5C 277.5,72.8333 277.5,39.1667 277.5,5.5 Z"/></g>
<g><path style="opacity:0.988" fill="#c6c4c4" d="M 302.5,30.5 C 340.54,30.0308 378.54,30.5308 416.5,32C 434.847,38.0119 445.68,50.5119 449,69.5C 449.667,192.167 449.667,314.833 449,437.5C 444.509,460.658 430.676,474.491 407.5,479C 349.168,479.5 290.834,479.667 232.5,479.5C 208.498,479.667 184.498,479.5 160.5,479C 142.162,475.813 128.828,465.98 120.5,449.5C 124.799,451.913 129.466,453.413 134.5,454C 216.833,454.667 299.167,454.667 381.5,454C 405.158,449.343 418.992,435.176 423,411.5C 423.832,324.666 423.666,237.999 422.5,151.5C 382.527,111.194 342.527,70.8603 302.5,30.5 Z"/></g>
<g><path style="opacity:1" fill="#ea7b9a" d="M 277.5,106.5 C 277.616,109.86 277.949,113.193 278.5,116.5C 252.165,116.333 225.831,116.5 199.5,117C 194.032,125.433 189.198,134.266 185,143.5C 178.215,157.402 171.715,171.402 165.5,185.5C 164.957,185.56 164.624,185.893 164.5,186.5C 223.167,187.833 281.833,187.833 340.5,186.5C 340.376,185.893 340.043,185.56 339.5,185.5C 334.306,174.584 329.306,163.584 324.5,152.5C 327.833,152.5 331.167,152.5 334.5,152.5C 341.898,167.847 349.398,183.18 357,198.5C 357.667,221.5 357.667,244.5 357,267.5C 355.231,272.935 351.731,276.768 346.5,279C 283.833,279.667 221.167,279.667 158.5,279C 153.269,276.768 149.769,272.935 148,267.5C 147.333,244.5 147.333,221.5 148,198.5C 162.016,169.802 176.016,141.136 190,112.5C 192.441,110.031 195.274,108.198 198.5,107C 224.831,106.5 251.165,106.333 277.5,106.5 Z"/></g>
<g><path style="opacity:1" fill="#e2e1e1" d="M 278.5,116.5 C 279.641,121.42 281.474,126.086 284,130.5C 293.261,145.549 306.761,152.882 324.5,152.5C 329.306,163.584 334.306,174.584 339.5,185.5C 281.5,186.833 223.5,186.833 165.5,185.5C 171.715,171.402 178.215,157.402 185,143.5C 189.198,134.266 194.032,125.433 199.5,117C 225.831,116.5 252.165,116.333 278.5,116.5 Z"/></g>
<g><path style="opacity:1" fill="#e5bec9" d="M 165.5,185.5 C 223.5,186.833 281.5,186.833 339.5,185.5C 340.043,185.56 340.376,185.893 340.5,186.5C 281.833,187.833 223.167,187.833 164.5,186.5C 164.624,185.893 164.957,185.56 165.5,185.5 Z"/></g>
<g><path style="opacity:1" fill="#e2dfe0" d="M 161.5,196.5 C 221.834,196.333 282.168,196.5 342.5,197C 344.286,197.785 345.786,198.951 347,200.5C 347.667,222.5 347.667,244.5 347,266.5C 345.786,268.049 344.286,269.215 342.5,270C 282.167,270.667 221.833,270.667 161.5,270C 160.333,268.833 159.167,267.667 158,266.5C 157.333,244.5 157.333,222.5 158,200.5C 159.376,199.295 160.542,197.962 161.5,196.5 Z"/></g>
<g><path style="opacity:1" fill="#ea7d9b" d="M 180.5,210.5 C 228.168,210.333 275.834,210.5 323.5,211C 330.294,212.146 334.794,215.979 337,222.5C 337.667,231.167 337.667,239.833 337,248.5C 334.794,255.021 330.294,258.854 323.5,260C 275.833,260.667 228.167,260.667 180.5,260C 169.523,255.554 165.19,247.387 167.5,235.5C 165.319,223.521 169.652,215.188 180.5,210.5 Z"/></g>
<g><path style="opacity:1" fill="#e2dfe0" d="M 180.5,220.5 C 228.168,220.333 275.834,220.5 323.5,221C 324.931,221.465 326.097,222.299 327,223.5C 327.667,231.5 327.667,239.5 327,247.5C 326.097,248.701 324.931,249.535 323.5,250C 275.833,250.667 228.167,250.667 180.5,250C 179.299,249.097 178.465,247.931 178,246.5C 177.333,238.833 177.333,231.167 178,223.5C 179.045,222.627 179.878,221.627 180.5,220.5 Z"/></g>
<g><path style="opacity:1" fill="#ea7999" d="M 189.5,230.5 C 218.835,230.333 248.169,230.5 277.5,231C 281.085,233.528 281.418,236.528 278.5,240C 248.833,240.667 219.167,240.667 189.5,240C 185.562,236.887 185.562,233.72 189.5,230.5 Z"/></g>
<g><path style="opacity:1" fill="#ea7d9b" d="M 292.5,230.5 C 299.238,231.061 300.905,234.228 297.5,240C 291.507,241.668 289.007,239.502 290,233.5C 290.698,232.309 291.531,231.309 292.5,230.5 Z"/></g>
<g><path style="opacity:1" fill="#ea7e9c" d="M 309.5,230.5 C 316.632,230.789 318.298,233.956 314.5,240C 309.932,241.65 307.266,240.15 306.5,235.5C 307.092,233.577 308.092,231.911 309.5,230.5 Z"/></g>
<g><path style="opacity:0.999" fill="#eb7999" d="M 91.5,299.5 C 173.834,299.333 256.167,299.5 338.5,300C 353.217,303.05 362.383,311.883 366,326.5C 366.667,351.5 366.667,376.5 366,401.5C 363.243,417.757 353.743,427.091 337.5,429.5C 257.665,429.167 177.998,429.501 98.5,430.5C 79.0747,429.941 66.7414,438.941 61.5,457.5C 61.3333,413.165 61.5,368.832 62,324.5C 66.2369,309.421 76.0703,301.088 91.5,299.5 Z"/></g>
<g><path style="opacity:1" fill="#fefcfd" d="M 288.5,329.5 C 297.473,328.701 306.14,329.868 314.5,333C 321.407,337.321 325.407,343.488 326.5,351.5C 321.833,351.5 317.167,351.5 312.5,351.5C 311.428,345.927 308.095,342.427 302.5,341C 290.438,339.378 282.938,344.544 280,356.5C 277.113,367.828 279.946,377.328 288.5,385C 296.813,389.023 304.313,387.857 311,381.5C 312.766,379.119 313.932,376.452 314.5,373.5C 309.544,372.506 304.544,372.173 299.5,372.5C 299.5,368.833 299.5,365.167 299.5,361.5C 308.5,361.5 317.5,361.5 326.5,361.5C 326.5,373.5 326.5,385.5 326.5,397.5C 323.5,397.5 320.5,397.5 317.5,397.5C 317.752,394.68 317.252,392.014 316,389.5C 304.778,401.007 292.278,402.507 278.5,394C 266.336,382.184 262.503,368.018 267,351.5C 271.045,340.956 278.212,333.623 288.5,329.5 Z"/></g>
<g><path style="opacity:1" fill="#f5c0cf" d="M 160.5,331.5 C 149.167,331.5 137.833,331.5 126.5,331.5C 126.5,353.5 126.5,375.5 126.5,397.5C 125.503,375.34 125.169,353.006 125.5,330.5C 137.345,330.172 149.012,330.505 160.5,331.5 Z"/></g>
<g><path style="opacity:1" fill="#fefdfd" d="M 160.5,331.5 C 171.381,333.88 178.215,340.546 181,351.5C 182.55,362.89 181.217,373.89 177,384.5C 173.306,390.531 168.139,394.697 161.5,397C 149.838,397.5 138.171,397.667 126.5,397.5C 126.5,375.5 126.5,353.5 126.5,331.5C 137.833,331.5 149.167,331.5 160.5,331.5 Z"/></g>
<g><path style="opacity:1" fill="#f4bccc" d="M 212.5,331.5 C 205.833,331.5 199.167,331.5 192.5,331.5C 192.5,353.5 192.5,375.5 192.5,397.5C 191.503,375.34 191.169,353.006 191.5,330.5C 198.687,330.175 205.687,330.509 212.5,331.5 Z"/></g>
<g><path style="opacity:1" fill="#fefdfd" d="M 212.5,331.5 C 216.225,348.177 220.058,364.843 224,381.5C 228.049,365.202 231.882,348.868 235.5,332.5C 242.078,331.54 248.745,331.207 255.5,331.5C 255.5,353.5 255.5,375.5 255.5,397.5C 251.5,397.5 247.5,397.5 243.5,397.5C 243.667,379.164 243.5,360.83 243,342.5C 242.392,344.154 241.892,345.821 241.5,347.5C 237.834,364.16 234.168,380.827 230.5,397.5C 225.678,398.065 221.178,397.399 217,395.5C 213.283,379.859 209.783,364.193 206.5,348.5C 206.313,346.436 205.813,344.436 205,342.5C 204.5,360.83 204.333,379.164 204.5,397.5C 200.5,397.5 196.5,397.5 192.5,397.5C 192.5,375.5 192.5,353.5 192.5,331.5C 199.167,331.5 205.833,331.5 212.5,331.5 Z"/></g>
<g><path style="opacity:1" fill="#f4b7c9" d="M 255.5,397.5 C 255.5,375.5 255.5,353.5 255.5,331.5C 248.745,331.207 242.078,331.54 235.5,332.5C 242.087,330.539 249.087,329.872 256.5,330.5C 256.831,353.006 256.497,375.34 255.5,397.5 Z"/></g>
<g><path style="opacity:1" fill="#eb7999" d="M 139.5,342.5 C 145.509,342.334 151.509,342.501 157.5,343C 163.062,344.265 166.228,347.765 167,353.5C 167.667,359.833 167.667,366.167 167,372.5C 165.93,378.857 162.43,383.024 156.5,385C 150.843,385.499 145.176,385.666 139.5,385.5C 139.5,371.167 139.5,356.833 139.5,342.5 Z"/></g>
<g><path style="opacity:1" fill="#f2a9be" d="M 206.5,348.5 C 205.833,364.833 205.167,381.167 204.5,397.5C 204.333,379.164 204.5,360.83 205,342.5C 205.813,344.436 206.313,346.436 206.5,348.5 Z"/></g>
<g><path style="opacity:1" fill="#f4b3c5" d="M 243.5,397.5 C 242.833,380.833 242.167,364.167 241.5,347.5C 241.892,345.821 242.392,344.154 243,342.5C 243.5,360.83 243.667,379.164 243.5,397.5 Z"/></g>
<g><path style="opacity:1" fill="#f3acc0" d="M 112.5,397.5 C 112.5,393.167 112.5,388.833 112.5,384.5C 108.167,384.5 103.833,384.5 99.5,384.5C 99.5,388.833 99.5,393.167 99.5,397.5C 98.5139,393.03 98.1805,388.363 98.5,383.5C 103.5,383.5 108.5,383.5 113.5,383.5C 113.819,388.363 113.486,393.03 112.5,397.5 Z"/></g>
<g><path style="opacity:1" fill="#fefdfe" d="M 112.5,397.5 C 108.167,397.5 103.833,397.5 99.5,397.5C 99.5,393.167 99.5,388.833 99.5,384.5C 103.833,384.5 108.167,384.5 112.5,384.5C 112.5,388.833 112.5,393.167 112.5,397.5 Z"/></g>
<g><path style="opacity:1" fill="#e6aebe" d="M 337.5,429.5 C 258.167,430.167 178.833,430.833 99.5,431.5C 98.8333,431.5 98.5,431.167 98.5,430.5C 177.998,429.501 257.665,429.167 337.5,429.5 Z"/></g>
<g><path style="opacity:0.996" fill="#a04567" d="M 98.5,430.5 C 98.5,431.167 98.8333,431.5 99.5,431.5C 104.678,439.682 111.678,445.682 120.5,449.5C 128.828,465.98 142.162,475.813 160.5,479C 184.498,479.5 208.498,479.667 232.5,479.5C 229.767,493.4 221.434,501.9 207.5,505C 167.5,505.667 127.5,505.667 87.5,505C 73.6667,501.833 65.1667,493.333 62,479.5C 61.5003,472.174 61.3337,464.841 61.5,457.5C 66.7414,438.941 79.0747,429.941 98.5,430.5 Z"/></g>
</svg>
