<svg xmlns="http://www.w3.org/2000/svg" xmlns:xlink="http://www.w3.org/1999/xlink" width="512" height="512"><g><svg xmlns="http://www.w3.org/2000/svg" xmlns:xlink="http://www.w3.org/1999/xlink" width="512" height="512"/><svg xmlns="http://www.w3.org/2000/svg" width="512" height="512" version="1.0" viewBox="0 0 512 512"><g fill="#f0f1f1" transform="matrix(.1 0 0 -.1 0 512)"><path d="M1035 4908c-119-40-185-107-224-227-8-24-11-437-11-1407 0-1328-1-1373-19-1386-10-7-28-29-40-48-21-35-21-40-21-665 0-611 1-631 21-696 39-122 136-219 258-258 66-21 72-21 1561-21s1495 0 1561 21c122 39 219 136 258 258 20 64 21 87 21 553 0 526-1 533-55 576-25 20-25 20-25 1071v1051l-595 595-595 595-1032-1c-668 0-1044-4-1063-11z"/></g></svg><svg xmlns="http://www.w3.org/2000/svg" width="512" height="512" version="1.0" viewBox="0 0 512 512"><g fill="#ebeeed" transform="matrix(.1 0 0 -.1 0 512)"><path d="M3044 4905c-4-10-14-13-30-9-13 3-24 2-24-3s-7-10-15-10-15 3-15 6-26 4-57 2c-45-3-52-6-33-12 24-7 24-7 3-8-13-1-23-5-23-11 0-5 10-10 23-11 12 0 16-3 10-6-18-7-16-38 2-53 22-18 10-29-30-26-46 4-51-6-15-28 25-14 29-15 24-1-3 8-1 15 5 15s11-3 12-7c0-5 2-18 5-29 2-15-4-27-20-37-17-11-23-23-20-43 2-19-1-23-8-16-8 8-15 6-26-4-18-19-26-11-28 29-3 46-3 47-15 47-7 0-9-14-5-40 5-39 5-41-39-61-25-12-42-25-39-30s0-9-5-9c-6 0-11-8-12-17 0-16-1-16-8 1-6 16-8 17-13 4-4-9-1-21 5-27 8-8 7-11-6-11-9 0-17 5-17 10 0 6-4 10-10 10-5 0-10-7-10-15 0-20 49-20 56 0 4 8 10 12 15 9s6 2 3 10c-4 10 2 17 20 22 14 3 26 10 26 15s9 9 19 9c14 0 19-6 18-20-1-20-17-29-17-10 0 12-10 13-27 2-18-11-26-65-8-59 7 3 15-3 18-14 7-25-35-44-63-29-10 5-30 10-44 10s-26 4-26 9 15 5 35 1c20-5 33-4 29 1-3 5-14 9-24 9s-25 6-32 14c-8 8-23 16-34 19-15 4-14 5 6 6s22 3 10 11c-24 16-50 12-50-7 0-15-2-16-10-3-15 23 12 45 38 31 12-6 23-7 26-2s-6 12-20 15c-19 5-24 11-19 26 7 22-2 25-25 10-12-8-12-10-1-10 8 0 12-3 8-6-3-3-11-3-18 1-20 13-249 18-249 6 0-6-16-11-36-11s-33 4-29 10c7 12-166 1-180-12-6-6 8-9 40-8 84 3 119 0 135-10 13-9 13-11 0-20-8-5-28-10-43-10-16 0-26-4-22-9 3-5-5-12-17-14-13-2 0-5 27-5 36-1 46 1 35 8s3 10 46 10c48 0 63-4 68-16 5-14 4-15-9-4-10 8-15 9-15 1 0-6-10-11-22-12-22 0-22-1-3-10 15-7 10-8-22-6-24 1-43-1-43-5 0-5 9-8 19-8 31 0 33-17 3-26-15-4-33-6-41-5-7 1-10-2-6-8 4-7-4-11-19-11-14 0-26-5-26-11 0-7-12-9-34-5-24 5-37 2-46-9-7-8-10-15-7-15 2 0 21-7 40-15 32-13 37-13 51 1 9 8 20 13 25 10 5-4 15 0 23 7 13 14 21 17 39 17 5 0 8 4 5 9s8 14 25 20c23 8 29 8 26-2-2-6-12-11-21-11-9 1-16-2-16-7 0-11-33-43-48-46-6-1-23-14-38-28-26-24-26-25-5-25 12 0 19 4 16 10s3 10 14 10 23-4 26-10-1-7-9-4c-9 3-16 1-16-4 0-6 8-13 18-15 10-3 6-5-11-6-16 0-38 4-50 11s-30 13-40 15c-36 6 6-23 49-34 31-8 47-7 65 2 12 7 30 10 38 7 9-3 12-1 7 6-8 13 2 15 49 12 26-2 27 0 16 14-12 14-10 15 19 9 23-4 31-3 26 5-4 6 1 11 11 11 42 1 64 7 73 21 8 13 10 12 10-2 0-10 5-18 11-18s9 7 5 15c-6 18-5 18 29 5 14-5 23-15 20-20-4-6-11-7-17-4-7 4-8 2-4-5 4-6 12-9 17-6 5 4 9 1 9-4 0-6 8-11 18-11s22-4 28-9c5-5 18-11 29-14 12-3 6-5-15-6-25-1-31-4-21-10 10-7 2-9-25-7-21 2-29 1-16-1 12-2 22-11 22-18 0-8 13-21 29-29 16-9 32-23 35-33 6-14 4-15-5-6-12 12-39 6-51-11-5-7-8-7-8 2 0 6-8 12-17 12-13 0-15-3-5-8 9-6 6-16-14-38-14-16-24-24-21-19 3 6-3 11-13 11-16 0-16-2-2-23 8-13 13-25 11-27-30-28-322-215-329-211-6 4-10 1-10-5 0-11-100-76-112-72-5 1-8-2-8-8 0-5-9-14-20-20s-20-9-20-7c0 9 37 45 63 62 15 10 32 26 37 35 9 16 7 17-20 7-16-6-26-15-23-21 4-5-1-7-11-3-16 6-76-17-76-29 0-3 5-2 12 2s8 3 4-4c-4-6-13-9-21-5-15 5-18 13-18 45 0 10-4 15-8 12-5-3-8-18-7-34s5-27 9-24c4 2 10 0 14-5 3-6-4-15-16-21-17-10-20-9-13 2 6 10 5 11-7 2-8-6-23-13-35-16-17-4-20-1-16 18 3 14 0 24-8 24-13 0-46-30-33-30 10 0-19-20-29-20-5 0-8 11-8 25s-5 25-10 25c-6 0-9-3-9-7 4-26-2-43-13-36-7 4-22 7-33 5-19-2-19-1 1 7 22 10 37 35 27 45-4 3-12 1-19-5-8-6-22-8-31-5-10 4-14 4-10 0 8-8-64-52-106-65-24-7-29-4-37 14-5 12-9 16-9 10-1-7-10-13-21-13s-20-7-20-16 5-12 12-8c8 5 9 2 5-9s-1-17 8-17c8 0 15-7 15-16 0-13-6-15-28-9-15 4-33 8-39 8-7 0-13 5-13 11s-4 4-10-4c-8-12-10-12-16 3-7 20-24 23-24 3 0-8 7-16 15-20 8-3 15-12 15-20 0-15-69-32-122-29-16 0-25-3-22-8s0-9-6-9-10-8-9-17c3-32-1-44-11-38-6 4-8 10-5 14 2 5-7 13-21 20-16 7-23 7-19 1 4-7-3-8-21-4-19 5-25 4-20-5 4-6 1-11-6-11-8 0-5-5 5-11 11-6 30-9 43-6 17 3 24 0 24-10 0-9-6-13-13-10-8 3-14-3-14-15-1-11-9-28-17-37-20-22-20-32-2-25 17 7 25-22 15-52-4-11-8-62-8-113-1-101-4-113-27-104-9 3-14 0-12-7s-2-14-7-16c-7-3-10 12-8 37 1 23-1 38-5 35-7-8-12-84-15-237-1-65-6-95-13-92-6 2-10 27-10 61 1 31-1 71-5 87-6 26-7 23-6-15 0-25-3-60-7-77-4-24-3-33 6-33s8-3-2-10c-8-5-11-10-6-10s2-8-5-17c-10-12-11-15-1-9 9 6 11 1 8-18-3-14-7-30-10-35-4-5-1-13 5-16 7-5 3-14-10-27-12-10-18-24-15-30 5-7 10-3 15 10 5 12 11 22 15 22 3 0 4-6 1-14-4-9 5-21 20-31 14-10 22-12 18-6-4 8 1 10 17 7 13-2 32 2 42 9 10 8 24 11 32 8 24-9-11-34-41-29-17 3-28 0-32-10-3-8-14-14-24-14s-19-4-19-10v-17c-1-12 70-16 83-5 7 5 26 9 42 8 22-1 30-6 29-18-1-10 2-15 7-12s12-1 15-9 13-13 23-10c15 4 17-1 15-31-2-27 0-34 12-29 12 4 13 1 4-21-5-14-8-26-7-27 15-5 49-4 53 3 3 4-4 8-15 8-22 0-28 14-12 24 5 4 11 0 14-6 6-18 14-8 19 22 2 20-1 24-22 25-15 0-24 5-22 13 1 7-2 21-7 30-9 16-4 18 40 17 27-1 49 2 49 7 0 4 41 8 90 8 71 0 92-3 96-15 4-8 14-15 23-15 12 0 17-9 18-27 1-54 2-55 16-41 8 6 12 23 10 37-4 24-3 24 10-4 8-16 12-47 11-68-2-23 1-35 7-32 5 4 7 15 4 24-3 10 1 24 9 30 13 11 14 5 13-38-1-31 2-50 8-47 6 1 9 10 7 20-2 9 2 16 8 16s9 4 5 9c-3 5-1 12 5 16 5 3 10-1 10-10s4-14 8-11c5 3 9-1 9-8 0-9-7-12-16-8-9 3-3-6 13-21 21-20 32-24 37-16 9 16 40-56 33-75-3-8-1-17 5-21 6-3 9 0 8 7-2 7-2 10 0 6 3-5 9-8 14-8 6 0 7 5 3 12-5 8-2 9 10 5 10-4 20-7 22-7s3-10 3-22c-1-17-2-19-6-6-2 10-8 18-11 18-12 0-38-20-27-20 6 0 11-9 12-20s-2-20-8-20c-5 0-8 3-8 8 3 20-3 32-17 32-8 0-12-4-9-10 3-5 2-10-4-10-12 0-25 36-17 48 3 5-1 17-8 27-12 16-13 14-11-18 3-36-7-48-20-27-4 6-15 8-26 5-12-4-19-2-19 8 0 17-65 13-113-7-29-12-30-14-12-22 11-4 24-12 28-18 6-8 10-7 14 2 2 6 11 12 19 12 9 0 12-4 9-10-3-5-2-10 4-10 5 0 11 6 14 13 3 9 7 9 19-1 13-10 17-10 21 0 4 9 6 8 6-3 1-22-11-25-87-24-42 0-61-3-58-11 2-6-2-11-9-11-8 0-12 10-10 24 1 13-2 26-6 29-5 3-9 0-9-6s-6-10-12-9c-26 3-34-2-35-22-2-20-1-20 17-4 21 19 28 12 26-30-1-28-3-30-38-27-24 2-38-1-38-8s-7-5-16 5c-18 18-50 16-46-4 1-7-2-10-7-7-17 11 0 47 19 41 11-3 20 1 24 10 3 8 10 15 17 15 6 0 9-7 5-15-3-8-1-15 4-15 6 0 10 10 10 23 0 20-4 23-30 19-16-2-28-8-25-12 3-5-9-8-27-8-69 1-89-2-83-12 9-14-8-13-23 2-9 9-15 9-24 0-7-7-8-12-2-12 5 0 2-5-6-11-11-8-12-12-2-16 6-2 12-9 12-14s-11-3-25 3c-19 9-22 14-13 21 9 6 6 7-9 4-20-4-21-2-17 23 4 15 1 31-5 34-6 4-11 1-11-7 0-9-12-17-29-19-23-3-31 0-37 16-6 19-7 18-11-6-2-16-9-28-15-28-5 0-8-7-4-15 4-12-3-15-37-15-27 0-37-3-29-9 9-5 0-10-28-15-23-3-38-11-35-16 3-6-3-10-14-10-10 0-22-6-24-12-4-9-6-8-6 3-1 8 4 20 11 27 9 9 8 12-5 12-18 0-21-13-18-72 2-35 1-36-28-34-22 2-31-2-32-13 0-12-3-10-9 4s-9 4-8-34c1-34-3-56-10-59-16-5-16-72 0-72 6 0-5-12-25-27-19-16-45-44-56-64-21-36-21-48-21-665 0-610 1-630 21-695 39-122 136-219 259-258 66-21 66-21 1576-19 1444 3 1511 4 1560 22 112 40 208 142 242 255 19 63 20 90 18 561-3 543-1 524-64 583-17 15-40 27-51 27-12 0-21 5-21 11 0 7-11 9-30 6-16-4-32-2-35 3-3 6 3 10 15 10 17 0 19 3 11 19-6 10-7 21-4 25 3 3-2 6-13 7-14 0-11 4 11 14l30 14-30 1c-18 0-38 8-48 20-9 11-12 20-7 20 6 0 19 9 30 20 25 25 27 52 3 43-11-4-14-3-9 5 4 7 2 12-3 12-6 0-11-12-11-26 0-15-4-23-11-19-12 8-49-23-49-42 0-7-4-13-10-13-11 0-1 32 13 41 4 3 11 24 14 46 5 40 5 41-21 36-18-4-26-1-24 7 2 7-4 15-12 17-10 3-11 2-3-4 7-5 9-14 3-23-7-11-10-8-15 13-4 15-12 27-17 27-6 0-8-7-4-15 3-8 1-15-4-15-6 0-10 7-10 15 0 18-14 19-43 3-19-10-20-9-10 3 14 17 6 32-21 42-14 6-16 4-9-5 6-8 7-22 2-33-7-19-8-18-8 4-1 21-3 22-18 10-11-10-14-10-9-1 4 6 3 12-3 12-5 0-11-6-14-12-4-10-7-10-18 0s-10 12 2 12c8 0 22 9 31 19 15 18 15 20-5 26-12 4-25 8-29 9-22 4-15 14 7 10s26-2 22 11c-4 9-1 15 8 15 8 0 15 4 15 9 0 6-9 9-20 8s-20-7-20-14-11-13-24-13-27-6-29-12c-3-7-6-3-6 9-1 33 44 64 75 52 36-13 44-11 44 9 0 19-47 45-56 31-3-5-10-9-15-9-6 0-3 7 6 16 12 12 13 20 5 28s-13 7-20-4c-8-13-10-12-10 3 0 21 14 22 45 1 24-15 25-15 26 2 0 18 1 18 9-1 7-17 9-17 9-2 1 9 6 17 12 17 5 0 7 5 4 10-3 6-1 10 4 10 6 0 11-4 11-10 0-19 16-10 17 10 1 13-4 20-17 20-23 0-38 39-19 51 8 5 21 9 29 10 10 0 8 3-5 9-11 5-14 9-7 9 19 1 14 18-8 24-27 7-25 25 3 30 20 4 19 4-4 6-26 1-44 22-31 36 4 4 8 11 8 16 1 5 2 14 3 19 0 6 6 10 12 10 5 0 7-5 3-12s-3-8 4-4 12 19 11 34c0 24-1 25-9 7-8-19-11-18-14 6 0 7-10 15-20 19-14 4-16 9-8 14 7 4 10 12 7 17-4 5-1 9 4 9 14 0 14 63 0 77-8 8-8 13 0 17 14 9 14 73 0 82-8 5-8 8 0 13 6 4 12 18 15 31 2 14 9 24 16 22 6-1 9 2 6 6-3 5-17 7-32 4-19-3-22-7-12-13 9-6 3-9-19-9-17 0-35 5-38 10-3 6-1 10 4 10 6 0 11 6 11 14s9 12 25 11c14-2 23 1 19 6-3 5-10 7-15 4-5-4-9-2-9 4s15 7 37 4c27-5 34-3 28 6-4 8 4 7 24-3 17-9 31-12 31-6 0 5-7 10-15 10-13 0-12 4 5 22 16 17 23 19 32 10s9-12 0-12c-19 0-14-20 6-21 10 0 12-3 5-6-7-2-13-11-13-19 0-7-11-16-25-20-14-3-22-10-19-15s-2-9-10-9c-9 0-16-4-16-10 0-15 15-12 55 10 20 11 42 20 50 20s15 5 15 11 9 9 19 6c24-6 22 21-3 35-13 8-21 7-27-3-7-11-9-10-9 4 0 11 8 17 23 18 12 0 16 3 9 6-10 4-10 8-1 19 6 8 14 14 18 14 16 0 36-50 42-105 5-55 6-57 14-28 4 18 11 30 16 28 4-3 11-1 14 5 4 6 1 9-7 8-7-2-12 3-10 10 1 6-3 12-9 12-7 0-9 11-6 26 4 21-1 28-29 42-26 12-33 20-28 34 3 12 0 18-10 18-9 0-15 3-15 8 1 4 1 16 0 26-1 20-1 20-16 0-15-18-15-16-10 24 6 40-5 57-20 32-5-8-12-7-23 2-9 7-13 8-9 2 6-10-60-40-69-31-3 3-6 28-6 56-1 43-4 51-20 51-23 0-57 30-36 31 7 0 21 2 31 4 15 3 16 1 5-12-11-14-10-15 12-8 34 10 36 13 22 35-14 23-16 66-3 74s8 71-6 69c-7-2-17 6-23 17s-15 18-20 15-11-1-14 4-21 6-40 1c-19-4-37-6-40-3-9 9 6 33 20 33 8 0 14 6 14 14s14 17 30 21c17 4 30 13 30 21 0 12-11 13-55 9-47-4-54-3-48 11 3 8 12 13 20 10s32-6 54-6c28 0 39-4 39-15 0-13 12-19 32-16 4 0 21 2 37 3 17 1 31 6 31 11 0 4-18 7-40 5-22-1-43 1-46 5-4 4 5 7 19 7 15 0 27 5 27 10 0 6 9 10 19 10 11 0 21 4 23 10 3 9 42 16 63 10 21-5 46 0 40 9-3 5 0 13 6 17s16-1 21-10c5-10 22-16 41-16 22 0 28 3 18 9-11 7-10 11 7 20 29 16 30 15 34-21 4-37 23-48 31-18 5 18 3 20-11 8-16-12-16-11-1 7 20 26 19 45-5 59-14 8-20 8-23-2-6-16-23-5-23 15 0 10 6 13 16 9s22 1 31 11c8 10 11 11 7 3-7-13-5-13 9-1 20 16 20 16 19-69-1-55 0-60 7-30 5 19 11 80 15 135l6 100-588 588c-324 324-595 593-603 598-23 14-79 11-85-6zm-119-133c2-12 0-24-4-27-10-5-21 41-13 50 8 7 12 1 17-23zm-542-219c-7-2-19-2-25 0-7 3-2 5 12 5s19-2 13-5zm-66-19c-3-3-12-4-19-1-8 3-5 6 6 6 11 1 17-2 13-5zm63-10c0-2-7-4-15-4s-15 4-15 10c0 5 7 7 15 4 8-4 15-8 15-10zm426-9c-2-7 0-17 6-23 8-8 5-11-10-9-15 1-21 7-20 22 1 12 8 22 15 22 8 0 12-6 9-12zm-453-12c-7-2-19-2-25 0-7 3-2 5 12 5s19-2 13-5zm167-2c0-5-9-7-20-4s-20 7-20 9 9 4 20 4 20-4 20-9zm246-18c-1-16 2-34 8-42 9-12 8-13-3-6-11 6-13 4-8-7 4-12-2-17-24-20-33-5-40 11-9 19 17 5 20 12 16 36-5 32-1 47 14 47 5 0 8-12 6-27zm-185-10c12-16 12-17-2-6-9 7-18 10-21 7s-9-1-13 5c-11 18 22 12 36-6zm14-33c3-6-1-7-9-4-9 3-16 1-16-5 0-14-27-15-35-1-3 6 1 7 9 4 9-3 16-1 16 5 0 14 27 15 35 1zm272-12c-3-8-6-5-6 6-1 11 2 17 5 13 3-3 4-12 1-19zm23-8c0-11-4-20-9-20s-7 9-4 20 7 20 9 20 4-9 4-20zm-205 0c3-5 2-10-4-10-5 0-13 5-16 10-3 6-2 10 4 10 5 0 13-4 16-10zm162-35c-2-49-17-63-18-17 0 15-2 35-4 45-2 9 3 17 10 17 10 0 13-13 12-45zm-307 25c8-5 11-10 5-10-5 0-17 5-25 10s-10 10-5 10c6 0 17-5 25-10zm268-37c-3-50-21-66-26-24-5 31 6 71 19 71 6 0 9-19 7-47zm-708-13c12-8 12-10-5-9-11 0-29 4-40 9-18 8-18 9 5 9 14 0 32-4 40-9zm173 3c-7-2-19-2-25 0-7 3-2 5 12 5s19-2 13-5zm111-2c3-4-6-6-19-3-14 2-25 6-25 8 0 8 39 4 44-5zm141-1c8-13-15-13-35 0-12 8-11 10 7 10 12 0 25-4 28-10zm169-2c-7-11-42-10-49 2-4 6 5 10 24 8 16-1 27-6 25-10zm72-15c-1-16-8-27-15-25-7 1-10-2-6-7 3-6-3-15-14-20-14-8-20-7-25 4-3 8-12 15-21 15-8 0-14 6-12 13 3 17 38 30 51 17s29-13 21 0c-7 12 2 30 15 30 5 0 8-12 6-27zm-533 0c-7-2-19-2-25 0-7 3-2 5 12 5s19-2 13-5zm407-2c0-5-9-7-20-4s-20 7-20 9 9 4 20 4 20-4 20-9zm-429-20c-12-8-51-4-51 5 0 2 15 4 33 4 22 0 28-3 18-9zm349 5c0-9-30-14-35-6-4 6 3 10 14 10 12 0 21-2 21-4zm46-11c-8-8-23-14-33-14-17 1-17 2 0 6 9 2 15 9 12 14-4 5 3 9 15 9 19 0 20-2 6-15zm30-34c-4-5 0-11 6-14 9-3 7-7-5-12-10-4-20-5-23-3-7 8 7 38 18 38 5 0 7-4 4-9zm160-18c-10-10-19 5-10 18 6 11 8 11 12 0 2-7 1-15-2-18zm-135-16c-10-9-11-8-5 6 3 10 9 15 12 12s0-11-7-18zm134-194c-3-13-1-23 5-23 5 0 10 6 11 13 0 10 2 10 6 0 2-7 11-13 20-13 8 0 13-3 11-7-3-5-11-22-18-40-8-19-23-33-35-35-23-3-27-29-6-36 8-3 11 0 7 7-8 12 4 15 19 3 12-8 13-16 17-70 2-23 7-38 13-34 6 3 4-2-3-11-12-14-11-19 7-38 20-22 20-22 1-39-25-22-25-30-1-30 25 0 32-22 12-38-9-7-11-12-6-11 21 3 35-1 35-11 0-5-8-6-17-3-14 5-13 3 3-14 17-18 22-19 41-7 17 10 22 11 26 1 2-6 8-8 13-4 10 10-25 39-37 32-8-5-39 33-39 47 0 8 22 3 56-14 38-18 56-6 71 47 16 53 33 81 33 53 0-9 5-20 12-24 7-5 8-3 3 7-8 12-6 12 8 0 10-8 15-16 13-18-5-6 68-64 103-82 12-7 19-16 16-21-3-6 0-7 8-4 7 2 27 0 43-7 16-6 24-13 17-16-7-2-21 1-32 7-18 9-21 8-22-7 0-11-3-13-6-5-2 6-11 12-18 12s-16 6-18 13c-4 9-8 9-15-1-7-11-10-9-15 7-7 29-19 26-39-10-11-18-22-27-29-23-8 5-4 13 12 25 21 16 22 20 10 42-8 15-19 23-27 20s-14-1-14 5c0 5-8 13-17 16-15 6-15 5 1-13 23-25 13-41-25-41-26 0-30-3-27-22 2-13 9-22 16-20 6 1 12-5 12-14 0-8 5-12 10-9 6 3 10-1 10-9 0-9 5-16 10-16 6 0 10-7 10-15 0-9 11-20 25-25s26-16 26-25c1-8 3-19 4-25 1-5 3-17 4-26 0-8 6-12 12-9 6 4 8 13 5 21s-1 14 4 14c6 0 10-7 10-15s7-15 15-15 15-7 15-15 5-15 11-15c5 0 7-4 4-10-3-5-2-10 3-10 6 0 12 7 16 15 8 23 21 18 24-10 1-20-3-25-21-25-16 0-23-6-24-22-1-11-8-25-15-29-9-6-9-9-1-9 6 0 18-2 26-5 9-4 13 1 13 16-1 12 5 23 12 25 7 1 8 0 2-3-16-8-12-23 8-23 12 0 14-2 4-8-9-7-8-13 8-27 11-10 20-28 19-39-1-19-2-18-8 3-4 14-12 26-20 29-10 3-11 0-2-16 17-31 13-35-11-12-16 15-24 17-30 8-12-19-10-25 15-49 22-22 22-22-18 0-22 13-34 17-27 10 15-16 16-53 1-43-8 5-10-3-7-24 4-27 0-33-26-44-16-6-38-11-49-11-18 2-18 1 2-21 19-20 20-24 6-30-10-3-14-2-9 5 3 6-3 5-14-2-16-10-18-17-10-26 7-9-1-23-33-53-24-22-40-40-36-40s-9-18-29-40c-34-36-65-55-49-30 11 18-11 11-29-9-17-19-17-19 3-14 12 3 21 1 21-5 0-14-25-33-33-25-4 3-7-1-7-9 0-9-17-31-37-50-21-18-40-38-42-43-2-6-24-32-49-60-36-40-43-45-38-25 4 14 7 151 8 305 1 169 4 250 8 205 3-41 7-65 8-54 2 23 46 59 61 49 5-2 12 2 15 11 6 16 6 16-43-4-10-4-12-1-6 8 6 10 4 12-9 7s-16-3-14 11c2 9 10 16 16 15 7-2 12 8 12 23 0 17-4 23-12 18-10-6-10-4 0 7 15 16 16 29 1 29-5 0-7-5-3-12s3-8-4-4c-9 5-12 86-12 288 0 232 2 279 14 275 10-4 13 16 15 99 1 81-2 104-12 98-6-4-9-3-4 1 4 5 0 16-9 26s-14 24-11 31c4 8 8 5 12-9 8-26 49-32 58-9 4 10 0 12-14 9-10-3-19-1-19 4 0 14 7 19 30 19 17 0 20-5 15-23zm-785-241c0-5-7-9-15-9s-12 4-9 9c3 4 9 8 15 8 5 0 9-4 9-8zm997-34c-3-8-6-5-6 6-1 11 2 17 5 13 3-3 4-12 1-19zm-1052-47c-8-14-25-14-25 0 0 5 5 7 10 4 6-3 10-1 10 6s3 10 6 6c3-3 3-10-1-16zm1035-19c0-18-5-29-14-29-14 0-15 9-1 40 10 24 15 21 15-11zm-1264 11c-11-11-35-12-42-2-3 5 7 9 22 9s24-3 20-7zm84-9c0-2-7-4-15-4s-15 4-15 10c0 5 7 7 15 4 8-4 15-8 15-10zm-180 2c0-2-7-7-16-10-8-3-12-2-9 4 6 10 25 14 25 6zm1310 0c0-11-19-15-25-6-3 5 1 10 9 10 9 0 16-2 16-4zm-1183-78c0-17-2-26-6-21-3 6-16 13-28 17-19 6-21 10-11 31 14 32 43 15 45-27zm1323 13c0-5-11-16-25-25-24-16-25-16-25 5 0 16 5 20 20 16 11-3 20-1 20 4s2 9 5 9 5-4 5-9zm110-49c0-5-7-17-15-28-14-18-14-17-4 9 12 27 19 34 19 19zm750-12c0-5-14-8-30-7-44 5-49 17-7 17 21 0 37-4 37-10zm35 0c3-5 1-10-4-10-6 0-11 5-11 10 0 6 2 10 4 10 3 0 8-4 11-10zm117 2c-13-4-23-10-23-14 2-22 0-28-10-28-6 0-8 8-4 19 5 17 2 19-25 15-16-3-30-2-30 3 0 4 26 9 58 10 33 1 47-1 34-5zm-842-6c0-11-19-15-25-6-3 5 1 10 9 10 9 0 16-2 16-4zm865-16c-3-5-11-10-16-10-6 0-7 5-4 10 3 6 11 10 16 10 6 0 7-4 4-10zm-905-9c0-6-4-12-8-15-5-3-9 1-9 9s4 15 9 15c4 0 8-4 8-9zm-1450-103c0-28-2-49-4-47-7 7-14 88-8 94 10 10 12 4 12-47zm17 5c-3-10-5-2-5 17s2 27 5 18c2-10 2-26 0-35zm1633 37c0-5-4-10-10-10-5 0-10 5-10 10 0 6 5 10 10 10 6 0 10-4 10-10zm-235-38c-3-3-11 0-18 7-9 10-8 11 6 5 10-3 15-9 12-12zm85-7c0-7-11-10-30-7-39 6-39 17 0 18 17 1 30-4 30-11zm-2016-48c-3-123-32-227-35-124-1 23-2 67-3 97-2 68 1 79 22 73 13-3 17-14 16-46zm2160 44c4-5-3-7-14-4-12 3-20 0-20-6 0-7 5-9 12-5s8 3 4-4-2-12 5-12 10-2 7-5-20 1-39 9c-29 13-32 21-6 17 4 0 7 4 7 9 0 12 37 13 44 1zm-138-44c1-9-3-17-10-17-6 0-12 9-12 20 0 24 18 21 22-3zm92 3c40-25 42-36 2-15-23 12-30 12-28 3 2-7-4-12-12-10-12 3-12 1-3-9 10-9 15-10 27 0 19 16 34-6 16-22-10-9-11-9-6 1 9 15-6 16-22 0-7-7-12-8-12-2s-7 11-15 11-12-4-9-9c3-4 0-8-6-8-7 0-4-7 5-16 21-21 13-29-16-14-19 11-21 10-16-5 5-11 3-15-5-13-23 8-14 44 22 86 19 23 37 41 40 42 3 0 20-9 38-20zm-651-133c-2-23-3-1-3 48 0 50 1 68 3 42s2-67 0-90zm1063 119c0-2-7-7-16-10-8-3-12-2-9 4 6 10 25 14 25 6zm135-86c3-5 1-10-4-10-6 0-11 5-11 10 0 6 2 10 4 10 3 0 8-4 11-10zm-700-60c3-5 1-10-4-10-6 0-11 5-11 10 0 6 2 10 4 10 3 0 8-4 11-10zm-1977-66c0-17-4-22-11-15-5 5-7 17-4 25 9 23 15 19 15-10zm2656-19c3-8 1-15-4-15-6 0-10 7-10 15s2 15 4 15 6-7 10-15zm-2737-65c1-11-1-20-6-20s-11 14-13 30c-3 21-1 27 6 20 5-5 11-19 13-30zm33 10c0-11-4-20-10-20-5 0-10 9-10 20s5 20 10 20c6 0 10-9 10-20zm2680-41c0-5-4-9-10-9-5 0-10 7-10 16 0 8 5 12 10 9 6-3 10-10 10-16zm30 11c0-5-4-10-10-10-5 0-10 5-10 10 0 6 5 10 10 10 6 0 10-4 10-10zm34-44c-9-29-25-44-31-28-7 19-23 14-23-7 0-11-4-22-9-25-11-7-9 67 2 75 4 3 21 6 38 6 25 0 28-3 23-21zm-2742-21c0-5-5-11-10-13-5-1-9 4-9 13s4 14 9 13c5-2 10-8 10-13zm-35-10c0-8-4-12-9-9s-6 10-3 15c9 13 12 11 12-6zm2683-21c0-2-9 0-20 6s-20 13-20 16c0 2 9 0 20-6s20-13 20-16zm133 0c3-4-1-13-9-21-11-12-12-18-3-29 6-7 16-12 21-11 6 1 13-4 16-12 3-9 0-11-8-6-10 6-12 4-7-8 4-12 1-17-10-17-13 0-14-2-2-17 13-15 12-15-8-4-24 12-31 3-13-15 7-7 2-9-18-6-19 2-28 9-28 23 0 11 6 17 12 15 19-7 58 34 45 47-8 8-19 6-40-6-37-22-58-22-36-1 9 9 14 23 11 30-4 9 2 14 17 15 21 0 21 1 2 10-15 7-11 7 14 3 23-4 31-3 27 5-8 12 6 15 17 5zm-170-21c-3-10-3-15 1-12 11 10 54-33 49-48-3-7-9-10-14-7s-9 0-9-6 10-8 26-4c23 6 25 5 16-12-5-11-7-24-5-31s-7-15-21-19c-14-3-25-9-24-13 0-3-1-8-2-11-11-28-7-42 11-37 21 6 22 2 9-28-7-18-8-19-15-2-9 21-31 22-39 2-3-8-12-15-21-15-8 0-15-4-15-10 0-5-8-10-17-10-14 0-15-2-4-9 18-12 3-34-19-28-9 2-25 0-34-5-12-7-14-13-6-29 8-14 7-19-2-20-20-2-21-2-48 5l-25 7 25-15c14-9 21-15 16-16-5 0-3-7 4-15 11-13 10-14-4-9-23 9-20-12 7-37 22-21 22-21 0-10-15 8-23 8-23 1 0-5 6-10 13-10 8-1 6-5-4-13-21-16-15-57 12-79 27-23 11-24-20-2-27 19-38 11-44-31-2-17-10-30-18-30s-17-8-21-17c-4-10-14-18-23-18-8 0-15-5-15-11s-9-9-20-6c-25 6-26-1-2-19 16-13 16-14 0-8-12 4-18 1-18-10 0-9-11-26-25-38-13-11-22-26-18-31 6-10-11-2-35 16-10 8-9 12 3 21 13 9 11 11-10 12-18 1-25-3-25-15 0-11-16-26-39-37-22-10-37-22-35-26 3-4-2-5-10-2-9 3-19-3-26-16-8-16-17-19-33-14-12 3-19 3-15-1s3-16-3-26c-6-13-6-25 0-37 8-14 6-19-5-19-8 0-14 5-13 11 5 46 0 53-41 50-22-2-40 0-40 4 0 5-16 7-36 6-30-3-35-1-30 13 6 14 4 14-14-2-22-20-26-14-10 16 7 13 7 19 0 19-5 0-10-5-10-11 0-8-5-8-15 1-13 10-15 9-15-9 0-12 5-19 10-16 17 11 11-7-7-20-15-11-14-13 12-8 25 3 27 2 12-7-23-15-52-9-52 10 0 17-75 22-87 5-5-6-8-5-8 3 0 7 10 17 23 22 22 9 22 9-3 10s-25 1-2 11c13 5 29 6 34 2 7-3 8-1 4 5-7 11 12 16 51 15 7-1 11 3 8 7-6 9 66 31 78 23 6-3 7-1 3 5-4 8 0 12 11 12s41 25 68 55c37 40 55 54 70 50 11-3 14-2 8 1-17 8-17 28 0 21 8-3 14 3 14 16 1 11 6 23 10 26s30 31 57 61 75 82 106 115c30 33 115 126 188 207 137 152 161 175 148 143-5-15-4-16 9-5 8 7 12 17 8 24-4 6 1 5 10-2 14-12 16-11 12 5-2 12 2 20 10 20s11-5 8-11 3-3 13 7c10 9 19 17 21 17 1 0 0-8-4-17zm52-11c-3-3-11 0-18 7-9 10-8 11 6 5 10-3 15-9 12-12zm-585-17c0-13-29-29-38-20-3 3 0 5 6 5 7 0 11 3 11 8-1 4-1 13 0 20 1 17 21 5 21-13zm-2114-10c-3-23-12-26-13-5-1 11 2 20 7 20 4 0 7-7 6-15zm33-14c-15-5-22 6-14 19 6 9 10 9 16-1 5-8 4-15-2-18zm2174-8c-5-15-3-16 7-6 10 9 17 10 27 2 21-18 16-31-35-84-26-28-70-76-98-107-35-38-59-56-73-55-23 1-24 18-1 25 8 3 10 0 5-9-5-8-5-11-1-7 4 3 8 10 8 15 0 4 4 14 10 20 8 9 4 18-13 33-21 17-22 19-6 20 11 0 15 5 11 11-4 7-1 10 7 7s13-12 11-19c-3-11-1-12 10-1 10 10 10 14 0 21-8 4-10 15-6 26 5 12 4 16-4 11-6-3-13-2-16 3-6 10 49 27 72 22 6-1 12 3 12 9 0 13-26 13-53-1-21-12-21-11-4 8 20 23 23 38 5 26-7-4-17-8-23-8-5 0-15-11-21-23-8-17-14-20-19-12s-1 16 9 22c9 5 13 14 10 20-4 6-3 8 4 4 5-3 12-2 14 4s13 12 26 15c12 2 26 6 31 9 5 4 23-2 39-11 30-17 60-11 33 7-11 6-10 9 5 13 10 2 20 5 21 6 1 0 0-7-4-16zm-1575-145c-2-83-6-103-18-103s-14 13-12 70c2 39 8 72 13 73 5 2 10 29 10 60 1 32 4 45 6 30 2-14 3-73 1-130zm-686 80c-6-6-7 0-4 19 5 21 7 23 10 9 2-10 0-22-6-28zm2054-33c-9-9-13-22-9-28 3-7 3-9-2-5-4 4-14 3-22-4-11-9-13-8-11 3 2 7 13 22 26 32 12 10 19 24 16 30-5 9-4 9 6 0s10-15-4-28zm974 9c0-2-7-4-15-4s-15 4-15 10c0 5 7 7 15 4 8-4 15-8 15-10zm-3020-8c-4-4-16-4-26 2-16 9-14 10 8 9 15-1 23-6 18-11zm560-140c0-2-9-6-20-9s-18-1-14 4c5 9 34 13 34 5zm1354-27c-5-8 9-13 29-10 11 2 9-37-3-44-7-4-6-13 1-26 7-15 7-24-2-35s-8-14 7-15c11 0 14-3 7-6-7-2-13-10-13-17s-24-35-52-62c-73-68-198-108-198-63 0 6 9 13 20 16 23 6 24 7 8 33-19 29 16 96 91 178 51 55 69 68 88 64 12-2 20-8 17-13zm-1347 5c-3-3-12-4-19-1-8 3-5 6 6 6 11 1 17-2 13-5zm74-8c12 7 11-7-1-26-6-9-10-10-10-3 0 6-2 17-3 25-2 7-2 10 0 5 3-4 9-5 14-1zm1944 4c3-6-1-7-9-4-18 7-21 14-7 14 6 0 13-4 16-10zm-1898-6c-3-3-12-4-19-1-8 3-5 6 6 6 11 1 17-2 13-5zm31-29c-3-3-9 2-12 12-6 14-5 15 5 6 7-7 10-15 7-18zm-53 5c3-5 1-10-4-10-6 0-11 5-11 10 0 6 2 10 4 10 3 0 8-4 11-10zm46-23c10 3 19 9 19 14s16-1 35-12c38-23 44-36 20-45-8-4-15-10-15-16 0-5 4-6 10-3s7-1 4-9c-3-9-10-16-14-16s-7-7-6-16c0-9-5-18-12-20-7-1-8 0-2 3 17 8 11 20-12 27s-23 7 0 16c25 11 29 35 8 56-18 17-30 18-20 2 6-10 4-10-8 0-13 10-19 10-32-3-9-9-26-15-38-12-22 3-22 4 5 15 15 6 28 19 28 29 1 16 2 16 6 2 3-11 11-15 24-12zm1306-22c-24-25-47-45-52-45-12 0 69 88 82 89 7 1-7-19-30-44zm-1397 20c11-13 10-14-4-9-9 3-16 10-16 15 0 13 6 11 20-6zm1950-5c13-8 13-10-2-10-9 0-20 5-23 10-8 13 5 13 25 0zm-1720-51c0-6 5-7 10-4 6 3 10 1 10-4 0-6 6-10 13-8 7 1 11-7 10-19-4-35-22-74-35-74-9 0-9 3-2 8 19 13 24 43 10 57-12 12-15 12-18-3-3-10-15-18-28-19-17-2-20 1-11 10 14 14 15 51 1 42-11-7-13 6-4 29 5 12 10 13 25 5 10-5 19-14 19-20zm-130 17c0-14-14-36-22-36-6 0-6 6 1 14 9 11 9 15-1 19-8 4-7 6 5 6 9 1 17-1 17-3zm222-71c3 3 16-5 29-17 14-13 29-25 34-27 28-11 42-26 38-38-8-19-23-16-23 5 0 27-11 34-28 19-13-9-14-9-8 1 4 6 3 12-3 12-5 0-12-8-14-17-3-12-5-9-6 8 0 15-7 29-15 32s-20 16-26 29c-10 21-10 21 3 6 8-10 16-15 19-13zm1854 16c-4-5 0-12 6-14 8-3 6-6-4-6-18-1-24 10-11 22 9 10 15 8 9-2zm-26-31c0-5-5-10-11-10-5 0-7 5-4 10 3 6 8 10 11 10 2 0 4-4 4-10zm-1940-20c0-5-5-10-11-10-5 0-7 5-4 10 3 6 8 10 11 10 2 0 4-4 4-10zm1910 1c0-5-7-11-15-15-15-5-20 5-8 17 9 10 23 9 23-2zm-165-11c3-5 1-10-4-10-6 0-11 5-11 10 0 6 2 10 4 10 3 0 8-4 11-10zm-1655-20c0-5-8-10-17-10-15 0-16 2-3 10 19 12 20 12 20 0zm220-71c0-13-14-11-28 3-9 9-14 6-21-13-5-13-10-20-10-15-1 5-9 2-18-5-15-11-16-11-6 0 7 8 8 22 4 35-6 18-7 32-2 51 2 8 81-47 81-56zm-182 33c2-7-1-12-8-12-6 0-9 4-6 9 4 5 1 12-4 14-6 3-5 4 2 3 6-1 14-8 16-14zm1779 12c-3-3-12-4-19-1-8 3-5 6 6 6 11 1 17-2 13-5zm79-34c-1-21-6-30-18-30-10 0-19 8-19 18-1 16-2 16-6 0-2-10-12-18-21-18-12 1-7 9 18 30 43 37 47 37 46 0zm-2216 16c0-3-4-8-10-11-5-3-10-1-10 4 0 6 5 11 10 11 6 0 10-2 10-4zm529-65c-1-13-2-13-6 2-2 9-9 15-14 12-5-4-9 1-9 11 0 13 3 14 15 4 8-7 14-20 14-29zm91-4c25-17 54-40 65-52 11-11 16-14 10-6-5 8 13-1 42-20 28-19 51-38 50-43s4-11 12-14c9-3 11 0 6 8s-4 11 3 6c14-8 5-33-13-40-8-3-21 1-29 9s-28 16-44 17c-26 2-29 5-21 20s6 18-11 18c-12 0-18 5-15 10 3 6 1 10-6 10s-9 8-6 21c4 17 3 19-6 10-14-14-41-15-32-1 8 13-11 13-35 0-16-8-18-8-14 5 3 8 10 13 14 10s10 4 13 16c5 17 3 18-10 8-12-11-14-10-11 5 2 12-4 20-15 21-9 2-15-1-11-6 3-5 10-7 15-4s6-1 3-10c-6-14-8-13-21 5-15 22-9 44 10 33 7-3 32-20 57-36zm-180 23c0-5-2-10-4-10-3 0-8 5-11 10-3 6-1 10 4 10 6 0 11-4 11-10zm1427-22c-3-8-6-5-6 6-1 11 2 17 5 13 3-3 4-12 1-19zm123 6c0-2-7-4-15-4s-15 4-15 10c0 5 7 7 15 4 8-4 15-8 15-10zm-150-8c0-3-4-8-10-11-5-3-10-1-10 4 0 6 5 11 10 11 6 0 10-2 10-4zm-35-16c3-5 1-10-4-10-6 0-11 5-11 10 0 6 2 10 4 10 3 0 8-4 11-10zm135-22c0-7-5-6-13 1-8 6-18 7-22 3-5-4-5-2-1 5 8 14 36 6 36-9zm-2460 2c0-5-5-10-11-10-5 0-7 5-4 10 3 6 8 10 11 10 2 0 4-4 4-10zm200 0c0-5-5-10-11-10-5 0-7 5-4 10 3 6 8 10 11 10 2 0 4-4 4-10zm2210-3c0-8-7-14-15-14-11 0-12 4-4 14 6 7 13 13 15 13s4-6 4-13zm-74-25c-9-9-37 8-31 18 5 8 11 7 21-1 8-6 12-14 10-17zm31 21c-4-3-2-12 4-20 7-8 8-13 1-13-12 0-23 26-15 34 4 3 9 6 11 6 3 0 2-3-1-7zm363-3c0-5-4-10-10-10-5 0-10 5-10 10 0 6 5 10 10 10 6 0 10-4 10-10zm-1644-15c20-19 5-19-20 0-11 9-14 15-7 15s19-7 27-15zm-1079-12c0-7-4-10-8-7-5 3-17 0-27-5-14-7-19-6-19 4 0 7 7 11 15 7 9-3 13-1 9 4-3 5 2 10 12 10s18-6 18-13zm198-2c3-5 0-13-6-17-7-4-9-3-5 4 3 5 0 13-6 15-9 4-10 6-1 6 6 1 14-3 18-8zm210-31c-13-15-20-16-40-6-25 11-34 36-14 36 5 0 7-4 4-10-3-5-2-10 3-10 6 0 13 7 16 15 5 13 10 14 27 5 19-11 20-13 4-30zm755 26c0-7-11-16-25-18-13-3-22-1-19 3 3 5 12 9 20 9s14 5 14 10c0 6 2 10 5 10s5-6 5-14zm-1240-6c0-5-5-10-11-10-5 0-7 5-4 10 3 6 8 10 11 10 2 0 4-4 4-10zm2237-40c2-12-3-20-12-20-17 0-20 16-5 25 6 4 7 12 4 18-4 7-3 9 1 4 5-4 10-16 12-27zm43 4c0-2-7-4-15-4s-15 4-15 10c0 5 7 7 15 4 8-4 15-8 15-10zm450-22c0-15-2-15-10-2-13 20-13 33 0 25 6-3 10-14 10-23zm-2880 8c0-5-2-10-4-10-3 0-8 5-11 10-3 6-1 10 4 10 6 0 11-4 11-10zm1420 0c0-5-2-10-4-10-3 0-8 5-11 10-3 6-1 10 4 10 6 0 11-4 11-10zm-741-16c6 4 11 2 11-3 0-6 7-11 16-11s14-7 12-17c-5-26-55-27-69-2-13 25-3 62 10 40 5-7 14-10 20-7zm895 4c-5-7-2-9 7-6 22 9 44-13 46-47 1-16-1-22-3-12-6 20-30 23-37 5-3-7-6-3-6 10-1 14 5 22 15 22 8 0 13 4 10 9-9 13-66-17-66-35 0-8-5-14-10-14-12 0 2 30 28 61 18 21 27 25 16 7zm276-7c-8-5-26-11-40-15-21-5-20-3 5 9 32 15 60 20 35 6zm477-13c-3-8-6-5-6 6-1 11 2 17 5 13 3-3 4-12 1-19zm533 12c0-5-2-10-4-10-3 0-8 5-11 10-3 6-1 10 4 10 6 0 11-4 11-10zm-2824-19c21 4 31-2 31-17 0-14-2-14-11-2-6 7-19 12-28 10-12-2-18 3-18 15 0 13 2 15 9 5 4-7 12-12 17-11zm2271 13c-3-3-12-4-19-1-8 3-5 6 6 6 11 1 17-2 13-5zm-1682-24c-3-5-11-10-16-10-6 0-7 5-4 10 3 6 11 10 16 10 6 0 7-4 4-10zm125 0c0-5-4-10-10-10-5 0-10 5-10 10 0 6 5 10 10 10 6 0 10-4 10-10zm40 0c0-5-4-10-10-10-5 0-10 5-10 10 0 6 5 10 10 10 6 0 10-4 10-10zm40 0c0-5-4-10-10-10-5 0-10 5-10 10 0 6 5 10 10 10 6 0 10-4 10-10zm900-6c39 13 43 13 61-5 21-21 26-37 7-21-24 19-105 12-93-8 11-19-26-2-45 20-26 30-25 34 4 15 21-14 28-14 66-1zm210 4c0 6 4 12 10 12 5 0 7-7 4-15-4-10-17-15-40-13-18 1-30 6-27 11 3 4 11 6 19 3s14 0 14 7c0 8 4 6 10-3 6-10 10-11 10-2zm1030-8c0-13-11-13-30 0-12 8-11 10 8 10 12 0 22-4 22-10zm-2960-20c0-6-4-9-9-5-5 3-12 1-15-3-3-5-17-7-31-4-21 3-25 0-25-18 0-15-4-20-15-16-8 3-18-2-23-10-7-12-9-7-9 18-1 18 1 27 4 21 3-7 12-13 21-13 8 0 12 3 9 7-4 3-3 11 3 18 12 15 90 19 90 5zm2180-10c0-11-39-20-56-13-8 3-11 10-8 15 4 6 9 6 14-2 4-7 13-9 19-6 6 4 9 12 6 17s1 6 9 3c9-3 16-10 16-14zm95 10c-3-5-12-10-18-10-7 0-6 4 3 10 19 12 23 12 15 0zm-221-16c3-8 2-12-4-9s-10 10-10 16c0 14 7 11 14-7zm36 6c0-5-4-10-10-10-5 0-10 5-10 10 0 6 5 10 10 10 6 0 10-4 10-10zm-240-21c0-6-4-7-10-4-5 3-10 11-10 16 0 6 5 7 10 4 6-3 10-11 10-16zm80 6c0-13-37-23-51-13-11 8-11 9 3 4 10-3 20-1 23 4 6 10 25 14 25 5zm-640-21c0-12-3-14-12-6-7 5-22 12-33 15-13 3-9 5 13 6 23 1 32-3 32-15zm1547 0c-3-3-12-4-19-1-8 3-5 6 6 6 11 1 17-2 13-5zm-1497-39c0-12-19-12-23 0-4 9-1 12 9 8 7-3 14-7 14-8zm-69-29c7 4 9 3 6-3-4-6-17-10-30-10-18 0-23 5-23 24 0 25 0 25 18 3 10-12 22-18 29-14zm105 2c-3-13-5-25-6-28 0-3-5 3-11 14-9 14-8 20 2 27 19 12 19 12 15-13zm34-6c0-13 2-14 9-4 7 11 11 11 23-2 11-10 18-12 26-4 16 16 36 0 22-17-8-10-19-11-34-5-13 4-29 5-36 0-21-13-40 0-36 23 3 12 5 26 5 30 2 15 21-4 21-21zm-210-32c0-5 9-10 19-10 11 0 23-5 26-10 4-6 11-8 16-5 8 5 13-15 10-37 0-4 12-4 27-2 26 5 26 5 7-10s-19-15 4-9c17 4 22 3 17-6-4-6-12-9-17-6-5 4-9 1-9-5s-14 5-31 25c-65 74-24 69-724 75l-630 5 643 3c423 1 642-1 642-8zm103-30c-5-19-23-29-23-12 0 7 20 32 26 32 1 0 0-9-3-20zm52 0c-3-5-12-10-18-10-7 0-6 4 3 10 19 12 23 12 15 0zm15-20c-8-5-19-10-25-10-5 0-3 5 5 10s20 10 25 10c6 0 3-5-5-10zm-14-35c-1-8-5-17-8-21-5-4-4 16 1 34 3 9 9-1 7-13zm1778-1c3-8 2-12-4-9s-10 10-10 16c0 14 7 11 14-7zm-1729-4c-27-12-43-12-25 0 8 5 22 9 30 9 10 0 8-3-5-9zm1685-20c14-9 12-12-6-9-4 0-10-5-15-12-10-17-23-4-16 16 7 17 16 19 37 5zm105 0c3-5-1-10-9-10-9 0-16-5-16-12 0-6-2-9-5-6-7 7 5 38 15 38 5 0 12-4 15-10zm-45-54c0-3-4-8-10-11-5-3-10-1-10 4 0 6 5 11 10 11 6 0 10-2 10-4zm28-41c-3-3-9 2-12 12-6 14-5 15 5 6 7-7 10-15 7-18zm-31 9c-3-3-12-4-19-1-8 3-5 6 6 6 11 1 17-2 13-5zm-1707-40c0-8-19-13-24-6-3 5 1 9 9 9s15-2 15-3zm215-28c11-2-35-4-103-5-68 0-121 3-118 7 4 7 172 6 221-2zm1078-3c-79-2-207-2-285 0-79 1-15 3 142 3s221-2 143-3zm-1536-393h83v-110h-310v-57c0-105-3-102 119-105l106-3 5-48c3-26 1-52-4-57-6-6-59-10-118-10h-108V731c0-169 4-161-85-161-53 0-54 0-50 28 2 15 4 175 4 356l1 329 137-6c75-4 174-7 220-7zm305-282 3-293 148-3 148-3-3-57-3-57-212-3-213-2v710h130l2-292zm757 270c56-15 115-71 130-123 25-92 6-162-59-218-50-43-100-57-210-60l-85-2-3-137c-3-156-1-153-92-146l-44 3 2 335c1 184 2 342 2 350 0 13 23 15 157 12 87-1 178-8 202-14zm-428 2726c0-11 3-14 6-6 3 7 2 16-1 19-3 4-6-2-5-13zm-21-130c0-8 5-12 10-9 6 3 10 10 10 16 0 5-4 9-10 9-5 0-10-7-10-16zm-46-105c-3-6-1-16 5-22 8-8 11-5 11 11 0 24-5 28-16 11zm-4-123c0-8 4-17 9-21 6-3 9 4 8 15-1 23-17 28-17 6zm143-47c3-9 0-22-6-29-9-10-9-11 0-6 6 3 22 2 34-3 24-8 24-8 2-15-25-8-39-36-18-36 11 0 12-6 6-23-6-15-4-26 6-36 14-12 12-15-12-25-27-11-44-46-24-46 6 0 8-4 4-9-3-5 0-13 5-16 7-5 5-12-7-21-17-14-17-14 0-28 18-14 18-14 1-18-25-4-28-68-3-68 18 0 21-30 4-42-14-11 7-10 24 1 9 6 10 11 2 15-6 4-8 12-5 18 4 6 1 14-7 18-18 12-20 40-2 40 8 0 13-6 10-13-6-16 20-41 28-27 3 6 15 10 26 10 12 0 17 5 14 10-4 6-1 17 5 25 15 18-1 20-18 3-9-9-15-10-20-2-4 6-14 14-22 17-12 4-12 6 2 6 9 1 22 9 27 19 6 9 11 11 11 5 0-7 6-13 14-13 9 0 13 7 11 20-2 11 0 22 6 25 5 4 9 2 9-3 0-6 7-13 16-16 8-3 12-2 9 3s6 22 20 37c22 23 28 26 35 14 6-8 10-13 11-10 0 3 3 20 6 39 4 29 2 33-10 23-9-8-24-9-45-3-18 5-48 8-67 6-24-2-35 1-32 8 2 7 11 11 21 9 16-3 20 7 17 39-1 9 5 19 14 23 10 4 14 2 9-5-4-8 1-9 15-4 16 5 23 1 30-17 6-13 10-18 11-13 1 6 3 20 6 32 3 17 0 21-11 17-9-4-21-1-28 4-7 6-22 9-32 7-11-2-23-4-27-4-5-1-7-4-7-8 1-5 1-17 0-27-1-18-3-17-21 4-15 17-17 26-8 31 20 13 20 49 0 49-10 0-24 6-31 13-11 10-13 9-8-4zm172-179c3-5-5-6-17-2-17 4-20 2-15-11s1-16-19-15c-23 2-24 4-8 15 11 8 13 13 5 13-7 0-10 4-7 9 6 10 54 3 61-9zm-160-100c3-5 2-10-4-10-5 0-13 5-16 10-3 6-2 10 4 10 5 0 13-4 16-10zm-105 249c0-5 5-7 10-4 6 3 10 8 10 11 0 2-4 4-10 4-5 0-10-5-10-11zm-42-16c7-3 16-2 19 1 4 3-2 6-13 5-11 0-14-3-6-6zm247-73c-3-5-1-10 4-10 6 0 11 5 11 10 0 6-2 10-4 10-3 0-8-4-11-10zm40-20c3-5 11-10 16-10 6 0 7 5 4 10-3 6-11 10-16 10-6 0-7-4-4-10zm-169-19c-4-5 1-8 9-7 21 3 31 16 12 16-9 0-18-4-21-9zm-80-147c-17-12-17-14-4-14 9 0 20 5 23 11 11 17 2 18-19 3zm373 3c7-7 14-8 21-1 6 6 2 10-12 11-16 2-18-1-9-10zm-82-44c-4-3-7-11-7-17s5-5 12 2c6 6 9 14 7 17-3 3-9 2-12-2zm-1339 410c7-3 16-2 19 1 4 3-2 6-13 5-11 0-14-3-6-6zm2007-873c-3-6 1-7 9-4 18 7 21 14 7 14-6 0-13-4-16-10zm-30-40c-3-6 1-7 9-4 18 7 21 14 7 14-6 0-13-4-16-10zm-40-50c3-5 8-10 11-10 2 0 4 5 4 10 0 6-5 10-11 10-5 0-7-4-4-10zm33-7c7-3 16-2 19 1 4 3-2 6-13 5-11 0-14-3-6-6zm-112-88c-3-9 0-15 9-15s12 6 9 15c-4 8-7 15-9 15s-5-7-9-15zm-81-5c-3-5-1-10 4-10 6 0 11 5 11 10 0 6-2 10-4 10-3 0-8-4-11-10zm40-20c3-5 8-10 11-10 2 0 4 5 4 10 0 6-5 10-11 10-5 0-7-4-4-10zm48-11c4-11-5-19-29-28-19-7-34-19-34-27 0-11 4-12 19-5 14 8 20 7 25-4 3-8 11-15 18-14 10 0 10 2 0 6-8 3-9 9-4 16 16 22 20 44 10 58-8 11-9 11-5-2zm-128-29c-3-5-1-10 4-10 6 0 11 5 11 10 0 6-2 10-4 10-3 0-8-4-11-10zm115-70c0-5 5-10 10-10 6 0 10 5 10 10 0 6-4 10-10 10-5 0-10-4-10-10zm-79-17c-10-11-11-19-2-36 7-13 9-14 7-4-3 9-1 17 3 17 12 0 22 28 13 34-4 2-13-3-21-11zm44-23c-3-5-1-10 4-10 6 0 11 5 11 10 0 6-2 10-4 10-3 0-8-4-11-10zm-122-56c-3-8-1-20 6-25 6-5 9-6 6-3-2 4 0 15 6 25 7 13 6 19-1 19-6 0-13-7-17-16zm-40-64c5-31 17-36 17-7 0 15-4 27-10 27-5 0-9-9-7-20zm32 0c-3-6 1-7 9-4 18 7 21 14 7 14-6 0-13-4-16-10zm-150-30c-3-5-1-10 4-10 6 0 11 5 11 10 0 6-2 10-4 10-3 0-8-4-11-10zm-150-40c-18-19-39-30-56-30-15 0-31-5-35-12-5-8-2-9 9-5 10 3 17 2 17-4s5-7 10-4c6 3 10 4 10 0 0-3-10-10-22-16-23-9-23-9 1-5 14 3 31 0 38-6 15-12 47-3 38 12-4 6-15 8-26 5-29-10-23 11 17 55 42 47 41 54-1 10zm290 20c-3-5-1-10 4-10 6 0 11 5 11 10 0 6-2 10-4 10-3 0-8-4-11-10zm-136-37c-13-16-12-17 4-4s21 21 13 21c-2 0-10-8-17-17zm-124-3c-3-5-1-10 4-10 6 0 11 5 11 10 0 6-2 10-4 10-3 0-8-4-11-10zm40-40c-3-5-1-10 4-10 6 0 11 5 11 10 0 6-2 10-4 10-3 0-8-4-11-10zm-40-10c3-5 8-10 11-10 2 0 4 5 4 10 0 6-5 10-11 10-5 0-7-4-4-10zm115 609c0-5 5-7 10-4 6 3 10 8 10 11 0 2-4 4-10 4-5 0-10-5-10-11zm-1329-265c0-11 3-14 6-6 3 7 2 16-1 19-3 4-6-2-5-13zm240-150c0-11 3-14 6-6 3 7 2 16-1 19-3 4-6-2-5-13zm282-159c0-8 4-12 9-9s6 10 3 15c-9 13-12 11-12-6zm555-1031c-5-4-8-47-8-96v-88h70c86 0 136 19 151 57 15 40 3 90-27 110-27 17-173 31-186 17zM1105 4903c-16-2-37-7-45-10s-21-5-27-4c-14 2-73-26-73-35 0-3 6-2 13 2 6 4 4-2-5-13-10-11-18-28-18-39s-3-15-8-8c-4 6-14 11-24 11-12 0-15-8-13-35 2-20 0-30-4-24-11 19-43-25-35-50 4-14 2-18-5-14-6 4-11 1-11-7 0-10 7-14 23-10 18 4 19 3 7-6s-10-11 11-11c15 0 30-7 33-16 4-9 13-14 21-10 11 4 15-2 14-22-1-17-3-20-6-9-4 16-15 21-40 18-6-1-15 4-19 10-5 9-2 10 10 6 10-4 15-3 11 3s-17 8-30 6c-13-3-26 1-29 7-2 7-3-3-1-22 2-18 7-36 10-40 4-3 6 1 5 9-5 36 1 40 26 16 16-14 24-30 21-39s3-21 16-30c20-13 24-12 37 2 8 8 14 19 13 23-2 5 2 8 8 8 5 0 7 6 4 13-4 6 0 3 9-7 8-10 13-22 11-26-3-4 4-10 15-13s18-2 15 3c-6 9 25 23 33 15 3-3-1-5-9-5-10-1-9-3 4-11 9-5 17-15 17-21s-7-5-17 3c-16 13-17 12-5-3 10-13 10-17 0-20-8-3-6-7 6-11 10-4 15-3 11 3-3 6-1 10 4 10 10 0 15-14 12-32 0-5 3-8 9-8 13 0 13 27 0 35-6 4-8 10-5 15 3 4-2 13-9 20-10 7-13 26-11 54 2 23-1 49-7 57-8 12-9 12-5-1 2-8-1-28-8-44l-12-29-6 34c-6 33-1 112 8 137 2 6 16 12 30 12 20 0 25-5 26-27 1-16 1-32 0-36-1-5 2-6 6-4 5 3 13-5 19-18 9-19 9-25-2-29-17-7-7-36 12-36 12 0 12-4 3-21-7-14-14-18-18-11-8 13-27 2-25-15 3-26 5-28 14-13 8 11 9 9 6-12-6-36 18-57 33-29 14 26 14 51 0 51-7 0-8 7-4 18 4 9 8 30 9 46 1 27 26 52 26 26 0-6-4-8-10-5-5 3-10 1-10-4 0-6 7-11 15-11s15 6 15 14 3 21 6 29c4 11-1 13-18 11-13-3-34 4-48 15-24 19-24 20-3 14 27-6 40 17 24 44-11 17-11 17-9-2 2-12-4-21-14-23-28-5-23 37 5 47 12 5 27 7 32 6 6-1 7 0 3 2-5 3-8 11-8 19 0 11-5 10-21-5-21-19-81-23-106-8-7 4-14 3-17-2-4-5 4-11 16-13 22-4 22-5-4-16-16-6-28-19-29-29 0-10-1-41-1-70 0-43-3-51-16-45-10 4-12 7-4 10 7 2 12 22 12 44 0 35-2 39-15 28-10-8-15-9-15-2 0 6 6 15 13 19 21 12 31 63 13 63s-30 16-13 18c51 3 84 14 99 32 16 19 14 65-2 55-5-3-11-1-15 5s4 10 19 10c31 0 37-17 19-52-7-16-10-28-6-28s17 12 30 28c20 24 22 25 23 7 1-19 1-19 11-1 9 14 8 20-2 27-22 13-6 19 61 24 35 2 65 7 68 10 6 6-136 4-183-2zm-125-82c0-6-4-13-10-16-5-3-10 1-10 9 0 9 5 16 10 16 6 0 10-4 10-9zm0-82c-6-11-17-22-25-25s-11-12-8-20-1-14-10-14c-10 0-13 7-10 24 3 16 10 23 19 19 8-3 14 1 14 10 0 13 9 21 28 26 1 1-2-8-8-20zm-93-51c-3-8-6-5-6 6-1 11 2 17 5 13 3-3 4-12 1-19zm268-18c3-5 1-10-4-10-6 0-11 5-11 10 0 6 2 10 4 10 3 0 8-4 11-10zm-128-62c-3-7-5-2-5 12s2 19 5 13c2-7 2-19 0-25zm336 295c9-2 25-2 35 0 9 3 1 5-18 5s-27-2-17-5zm300 0c136-2 358-2 495 0 136 1 24 2-248 2s-384-1-247-2zm-463-42c0-6 5-13 10-16 6-3 10 1 10 9 0 9-4 16-10 16-5 0-10-4-10-9zm112-8c-8-8-11-21-7-31 6-14 9-11 16 12 10 36 8 39-9 19zm1503 7c-3-5-1-10 4-10 6 0 11 5 11 10 0 6-2 10-4 10-3 0-8-4-11-10zm-1707-67c7-3 16-2 19 1 4 3-2 6-13 5-11 0-14-3-6-6zm93-25c-16-26-11-30 11-7 10 10 14 20 10 23-5 3-14-4-21-16zm-136-38c3-5 8-10 11-10 2 0 4 5 4 10 0 6-5 10-11 10-5 0-7-4-4-10zm1-33c3-10 9-15 12-12s0 11-7 18c-10 9-11 8-5-6zm181-16c-3-15-1-18 11-14 11 5 13 3 7-7s-4-12 11-6c10 5 25 9 32 9 17 1 15 17-3 18-23 2-29 4-41 12-7 4-14-1-17-12zm1481 1c-10-2-18-8-18-13s-8-9-17-9c-15 0-16-2-3-9 8-6 17-8 21-5 4 2 9-3 12-11 4-9 1-12-7-9s-17 1-20-4 6-9 19-9c14 0 25 5 25 12 0 8 4 15 8 17 16 6-3 44-20 40zm-130-9c7-3 16-2 19 1 4 3-2 6-13 5-11 0-14-3-6-6zm205-8c-6-18 1-28 23-31 10-2 14 3 10 13-3 8-6 19-6 24 0 15-20 10-27-6zm-430-12c9-2 23-2 30 0 6 3-1 5-18 5-16 0-22-2-12-5zm-1273-42c0-6 4-13 10-16s7 1 4 9c-7 18-14 21-14 7zm170-11c0-6 5-8 10-5 6 3 10-1 10-9 0-24 13-26 39-5 23 19 23 19 0 18-13-1-32 2-41 6-11 4-18 3-18-5zm1365-2c-11-7-24-13-30-14-5 0-16-2-22-2-7-1-13-6-13-11 0-16 46-6 76 17 31 23 23 30-11 10zm-1389-7c-3-5 1-12 10-15 22-8 25-4 9 11-8 7-16 9-19 4zm1212 2c7-3 16-2 19 1 4 3-2 6-13 5-11 0-14-3-6-6zm-1232-26c3-10 9-15 12-12s0 11-7 18c-10 9-11 8-5-6zm-42-3c-13-5-7-44 6-44 4 0 10 11 12 25 5 25 3 27-18 19zm-334-59c0-8 2-15 4-15s6 7 10 15c3 8 1 15-4 15-6 0-10-7-10-15zm440-13c-14-9-26-25-26-34-2-25 12-23 19 2 4 15 10 18 24 13 10-3 15-3 11 2-4 4-3 14 3 22 15 18 0 15-31-5zm-255-12c-3-5-4-10 0-10 3 0 1-9-5-20-9-16-8-18 5-14 8 4 15 17 15 30 0 26-5 30-15 14zm1023-7c6-2 18-2 25 0 6 3 1 5-13 5s-19-2-12-5zm-873-13c3-5 11-10 16-10 6 0 7 5 4 10-3 6-11 10-16 10-6 0-7-4-4-10zm-215-22c0-4 8-8 18-9 15 0 15-1-2-8-18-7-18-8-3-14 9-3 17-3 18 1 0 4 2 14 4 22 1 10-5 16-16 16s-19-4-19-8zm170 1c0-5 5-7 10-4 6 3 10 8 10 11 0 2-4 4-10 4-5 0-10-5-10-11zm-23-6c-4-3-7-11-7-17s5-5 12 2c6 6 9 14 7 17-3 3-9 2-12-2zm17-49c3-9 6-18 6-20 0-11 18-2 23 10 4 11 1 13-10 9s-14-2-9 5c4 7 2 12-4 12-7 0-9-7-6-16zm854 9c7-3 16-2 19 1 4 3-2 6-13 5-11 0-14-3-6-6zm-682-12c-12-5-15-10-9-14s16 0 23 8c14 17 13 17-14 6zm614-11c0-5 4-10 9-10 6 0 13 5 16 10 3 6-1 10-9 10-9 0-16-4-16-10zm90-31c0-5 7-9 15-9s15-5 15-11c0-5-4-8-9-5s-12-1-15-10c-4-10-12-14-22-10-12 4-15 2-10-9 3-9 0-15-9-15-8 0-15-4-15-10 0-5-9-10-21-10-11 0-18-4-14-9 3-5-3-12-12-14-17-4-17-5 0-6 10 0 28 8 40 20 12 11 30 18 39 16 10-3 16 0 15 7-1 6 3 10 9 9 7-1 20 7 29 17 10 11 24 20 32 20 28 0 11 16-27 27-22 5-40 6-40 2zm-30-23c0-2 7-6 15-10 8-3 15-1 15 4 0 6-7 10-15 10s-15-2-15-4zm377-13c-4-3-7-11-7-17s5-5 12 2c6 6 9 14 7 17-3 3-9 2-12-2zm103-3c0-5 5-10 10-10 6 0 10 5 10 10 0 6-4 10-10 10-5 0-10-4-10-10zm-1186-8c3-5 1-12-6-14-8-3-9-6-1-11 6-4 13 0 17 8 3 8 0 17-6 21s-8 3-4-4zm294 1c7-3 16-2 19 1 4 3-2 6-13 5-11 0-14-3-6-6zm935-6c5-15 37-22 37-9 0 5-9 12-21 15-13 3-19 1-16-6zm-465-31c-20-15-14-26 15-26 16 0 17 2 7 15-11 13-10 14 4 9 9-3 16-1 16 5 0 15-21 13-42-3zm52-7c0-4 8-10 18-12 13-4 11-5-5-6-13 0-23-5-23-11 0-5-9-10-20-10s-20-5-20-11c0-7-9-9-21-6-15 4-19 2-15-8 3-8-3-16-12-18-12-3-11-5 6-6 12 0 22 4 22 9 0 6 7 10 15 10 16 0 50 19 92 51 23 17 23 17-7 21-17 3-30 1-30-3zm105-19c4-6-7-10-26-10-39 0-33-10 10-15 20-3 30 0 28 8-1 7 8 11 23 9 19-2 22 0 10 8-20 13-53 13-45 0zm303 3c7-3 16-2 19 1 4 3-2 6-13 5-11 0-14-3-6-6zm-498-13c-13-8-12-10 3-10 9 0 17 5 17 10 0 12-1 12-20 0zm473-26c-15-16-17-34-4-34 10 0 26 39 19 45-1 2-9-3-15-11zm-505-51c7-3 16-2 19 1 4 3-2 6-13 5-11 0-14-3-6-6zm492 3c0-2 7-6 15-10 8-3 15-1 15 4 0 6-7 10-15 10s-15-2-15-4zm-532-23c7-3 16-2 19 1 4 3-2 6-13 5-11 0-14-3-6-6zm492-33c-19-12-22-40-3-40 8 0 21 6 28 14 12 11 12 16 2 24-8 7-18 7-27 2zm14-15c-4-8-11-12-16-9-6 4-5 10 3 15 19 12 19 11 13-6zm-207-32c-4-3-7-11-7-17s5-5 12 2c6 6 9 14 7 17-3 3-9 2-12-2zm-647-184c-18-5-20-7-6-8 12-1 16-6 12-16-3-8-2-15 3-15 7 0 24 42 18 45-1 1-13-2-27-6zm170-9c-6-11-7-20-2-20 6 0 12 9 15 20s3 20 1 20-8-9-14-20zm345 9c-4-6-4-13-1-16 3-4 6-1 6 6s5 9 12 5 8-3 4 4c-9 15-13 15-21 1zm-830-9c3-5 11-10 16-10 6 0 7 5 4 10-3 6-11 10-16 10-6 0-7-4-4-10zm150-70c-3-5 1-10 9-10s18 5 21 10c3 6-1 10-9 10s-18-4-21-10zm137-13c-10-12-9-15 7-20 10-2 25-1 32 4 11 7 11 9-3 9-9 0-18 5-20 11-2 7-8 6-16-4zm-282-8c0-5 5-7 10-4 6 3 10 8 10 11 0 2-4 4-10 4-5 0-10-5-10-11zm-124-34c-9-26-7-32 5-12 6 10 9 21 6 23-2 3-7-2-11-11zm154-5c0-5 5-10 10-10 6 0 10 5 10 10 0 6-4 10-10 10-5 0-10-4-10-10zm30-20c0-5 4-10 9-10 6 0 13 5 16 10 3 6-1 10-9 10-9 0-16-4-16-10zm10-20c-13-8-12-10 3-10 9 0 17 5 17 10 0 12-1 12-20 0zm-140-8c0-7-9-12-20-12s-20-4-20-9c0-11 38-2 46 11 3 5 3 12 0 15-3 4-6 1-6-5zm-60-42c0-5 5-10 11-10 5 0 7 5 4 10-3 6-8 10-11 10-2 0-4-4-4-10zm-24-37c-6-14-5-15 5-6 7 7 10 15 7 18s-9-2-12-12zm29-63c3-5 8-10 11-10 2 0 4 5 4 10 0 6-5 10-11 10-5 0-7-4-4-10zm3042-61c8-8 16-8 30 0 16 9 14 10-11 11-22 0-27-3-19-11zm-292-69c-3-5-2-10 4-10 5 0 13 5 16 10 3 6 2 10-4 10-5 0-13-4-16-10zm15-20c-8-5-5-9 8-12 11-3 25-2 32 2 8 5 5 9-8 12-11 3-25 2-32-2zm351-66c0-11 3-14 6-6 3 7 2 16-1 19-3 4-6-2-5-13zm-291-65c0-23 7-47 15-55 13-14 15-14 15 0 0 23-4 31-12 29-11-4-10 11 2 41 7 21 6 26-5 26s-15-11-15-41zm-2823 14c-2-5-1-19 3-33 6-24 7-24 11 8 5 29-4 44-14 25zm2823-110c0-21 3-24 9-14 5 8 7 20 4 28-8 21-13 15-13-14zm20-37c0-21 6-36 15-40 24-9 32 24 10 40-10 8-13 14-7 14 7 0 12 5 12 10 0 6-7 10-15 10-10 0-15-10-15-34zm56-3c-4-9-3-20 2-25 6-6 12-1 15 11 6 25-8 38-17 14zm50-4c-22-22-10-25 17-5 10 8 15 16 10 19-4 2-17-4-27-14zm-13-90c-1-13 5-19 18-19 24 0 25 26 1 32-12 4-18-1-19-13zm-3057-175c-4-10-1-14 6-12 15 5 23 28 10 28-5 0-13-7-16-16zm3210-10c-9-34-5-387 5-446 6-37 7-39 9-13l2 30 8-30c4-17 8 47 9 153 1 115-3 182-9 182-5 0-10 5-10 11 0 5 5 7 11 4 14-9 9 71-6 109l-12 29-7-29zm58-244c0-146 2-205 3-132 2 72 2 192 0 265-1 72-3 13-3-133zm-227 160c-3-12 0-20 8-20s11 8 8 20c-3 11-7 20-8 20s-5-9-8-20zm-2952-114c12-8 16-20 12-35-5-19-1-21 37-21 40 0 42 1 44 33 1 20-1 27-6 19-5-7-16-10-25-6-12 4-17 1-17-10 0-9-5-16-12-16-6 0-8 3-5 7 8 8-22 43-36 43-6 0-3-6 8-14zm115-30c0-27 14-34 26-14 5 7 3 8-6 3-10-6-12-4-7 8 3 9 2 19-3 22-6 4-10-5-10-19zm195 4c-3-5-1-10 4-10 6 0 11 5 11 10 0 6-2 10-4 10-3 0-8-4-11-10zm164 3c-7-41-5-53 6-43 7 6 11 20 8 30-5 20-12 26-14 13zm-80-5c-7-28-5-38 7-38 16 0 19 26 4 35-5 3-10 5-11 3zm37-13c-9-23-8-25 9-25s19 9 6 28c-7 11-10 10-15-3zm-121-26c3-12-1-29-8-38-8-10-8-13 0-8 6 4 14 1 16-5 3-7 6 2 6 20 1 17 1 35 2 39 0 4-4 9-10 11s-8-6-6-19zm126-25c0-11 3-14 6-6 3 7 2 16-1 19-3 4-6-2-5-13zm-322 4c-6-21-5-38 2-38 5 0 9 2 9 4s3 11 6 20 1 16-5 16-11-1-12-2zm40 2c0-3-2-13-4-22-2-10 1-18 5-18 15 0 19 15 9 30-5 8-9 13-10 10zm196-10c-3-5-1-10 4-10 6 0 11 5 11 10 0 6-2 10-4 10-3 0-8-4-11-10zm36-7c1-26 17-62 19-43 1 8 3 25 4 38 2 13-3 22-11 22-7 0-13-8-12-17zm129 7c0-5 5-10 11-10 5 0 7 5 4 10-3 6-8 10-11 10-2 0-4-4-4-10zm-436-9c4-5 1-12-4-14-6-3-5-4 2-3 15 3 23 26 8 26-6 0-9-4-6-9zm-79-62c2-14 8-23 15-21 10 2 11 0 2-10-8-11-7-14 8-15 13-1 18 4 17 18-1 10-5 19-11 19-5 0-14 7-21 16-10 15-12 14-10-7zm228-9c-1-11 2-22 8-25 5-4 9 3 9 14 0 26-15 35-17 11zm322-20c0-22 3-40 8-40 4 0 7 14 7 30 0 17 0 33 1 37 0 4-3 9-8 10-4 2-8-15-8-37zm-399 5c-3-8-1-15 4-15 6 0 10 7 10 15s-2 15-4 15-6-7-10-15zm159-5c-3-5-1-10 4-10 6 0 11 5 11 10 0 6-2 10-4 10-3 0-8-4-11-10zm95 0c-14-4-18-9-10-9 13-1 13-2 0-11-15-10-13-11 25-14 21-1 35 11 35 32 0 13-13 14-50 2zm2641-6c0-11 3-14 6-6 3 7 2 16-1 19-3 4-6-2-5-13zm-2581-15c0-11 5-17 10-14 6 3 10 13 10 21s-4 14-10 14c-5 0-10-9-10-21zm40 1c0-5 5-10 10-10 6 0 10 5 10 10 0 6-4 10-10 10-5 0-10-4-10-10zm-510-55c0-8 7-15 15-15s15-7 15-17c0-15 2-15 18 0 9 8 26 17 37 20 11 2 5 3-13 1-18-1-30 1-27 6 3 6-1 7-9 4-9-3-16-1-16 5s-4 11-10 11c-5 0-10-7-10-15zm157-7c-7-5 1-8 18-9 29-1 29-2 5-8-14-3-26-14-26-23-2-21 12-24 18-6 3 7 13 13 24 13 10 0 18 6 17 13-2 6 4 12 12 12 9 0 12-6 8-16-4-12-2-15 8-12 8 3 13 11 12 17-2 6 2 11 7 11 6 0 10-4 10-10 0-5 5-10 10-10 18 0 11 30-7 31-10 0-38 1-61 2-24 1-49-1-55-5zm2888 2c-8-13 9-20 24-11 10 6 9 10-3 14-8 3-18 2-21-3zm-2734-17c7-10 15-20 16-22 2-2 3 5 3 17 0 14-6 22-16 22-14 0-15-3-3-17zm-321-7c0-2 7-7 16-10 8-3 12-2 9 4-6 10-25 14-25 6zm128-46c-7-24-3-38 8-28 3 4 4 17 2 30-3 23-3 23-10-2zm2928-18c-2-4-1-14 5-22 7-12 9-10 9 8 0 23-5 28-14 14zm-2651-13c7-11 35-12 35-1 0 4-9 8-20 9s-18-2-15-8zm-440-9c3-5 8-10 11-10 2 0 4 5 4 10 0 6-5 10-11 10-5 0-7-4-4-10zm2940-40c3-5 8-10 11-10 2 0 4 5 4 10 0 6-5 10-11 10-5 0-7-4-4-10zm145-32c0-12 3-18 7-14 11 10 12 36 2 36-5 0-9-10-9-22zm-3270 4c0-7-8-12-17-12-15 0-16-2-3-10 13-9 13-10 0-10s-13-1 0-10c12-7 17-3 22 17 4 15 5 29 3 32-3 2-5-1-5-7zm-48-22c0-14 2-19 5-12 2 6 2 18 0 25-3 6-5 1-5-13zm3145-17c-15-14-6-41 16-46 20-6 21-5 4 7-10 8-15 20-11 30 6 17 2 21-9 9zm33-19c0-8 5-12 10-9 6 3 10 10 10 16 0 5-4 9-10 9-5 0-10-7-10-16zm35-4c-3-5-1-10 4-10 6 0 11 5 11 10 0 6-2 10-4 10-3 0-8-4-11-10zm-114-66c0-11 3-14 6-6 3 7 2 16-1 19-3 4-6-2-5-13zm215-9c4-8 10-15 15-15 4 0 6 7 3 15-4 8-10 15-15 15-4 0-6-7-3-15zm-146-40c0-8-6-15-14-15-9 0-12-7-9-20 3-12 14-20 27-20 16 0 18 3 7 9-11 7-10 11 5 20 12 6 14 11 5 11-7 0-11 6-7 15 3 8 1 15-4 15-6 0-10-7-10-15zm115-36c-4-6-5-12-2-15 2-3 7 2 10 11 7 17 1 20-8 4zm32-6c-15-14-6-33 16-33 20 1 20 2 4 11-9 6-15 14-12 20 7 10 2 12-8 2zm101-18c-6-30-2-32 12-6 6 11 6 22 1 25s-11-5-13-19zm-102-51c-4-15-3-31 2-36s9-3 10 4c0 7 4 23 7 36 4 13 3 22-3 22-5 0-13-12-16-26zm74 6c0-5 5-10 10-10 6 0 10 5 10 10 0 6-4 10-10 10-5 0-10-4-10-10zm11-37c0-11 3-13 6-5 2 6 10 9 15 6 7-4 8-2 4 4-11 18-26 14-25-5zm17-170c7-3 16-2 19 1 4 3-2 6-13 5-11 0-14-3-6-6z"/></g></svg><svg xmlns="http://www.w3.org/2000/svg" width="512" height="512" version="1.0" viewBox="0 0 512 512"><g fill="#c5c6c7" transform="matrix(.1 0 0 -.1 0 512)"><path d="M3047 4897c-27-23-27-23-27-527 0-505 0-505 24-557 30-64 89-124 158-160 53-28 53-28 563-31 404-2 514 0 527 10 9 7 20 30 24 52 7 38 7 38-593 637-643 644-621 624-676 576zm-758-958c-162-105-339-221-394-258l-100-67-3-486-2-486 62-38c35-21 180-114 323-207 306-200 461-297 475-297 5 0 72 23 147 50 282 103 265 94 334 173 35 40 120 133 189 207 402 436 500 550 500 586 0 20-319 299-346 302-29 4-51-17-334-328-296-324-444-485-450-488-3-1-4 310-2 690 2 381 0 713-3 737-7 49-50 101-82 101-11 0-152-86-314-191zm1252-776c32-31 59-64 59-75 0-10-16-35-34-56l-35-37-70 69c-70 70-70 70-48 91 12 12 30 31 39 43 10 12 20 22 24 22 3 0 32-25 65-57zm-131-288c0-12-239-276-374-413-87-89-94-94-170-117-44-14-82-23-84-20-2 2 5 41 18 87 27 105 32 110 364 470l119 129 64-63c35-34 63-67 63-73zm-2035 708c-16-3-36-9-42-15-10-8-13-109-13-443 0-433 0-433 23-439 32-8 300-7 314 2 9 5 14 121 19 427 8 515 23 469-153 471-65 1-131 0-148-3zM844 1921c-43-11-79-39-103-82-21-36-21-48-21-665 0-671 0-666 50-764 28-55 105-132 161-161 100-51 42-49 1609-49 911 0 1488 4 1525 10 127 21 240 103 296 217 24 48 24 48 27 563 2 283 0 530-3 549-4 19-22 49-42 70l-35 36-950 5-951 5-101 115c-56 63-117 124-136 135-34 19-51 20-665 22-346 1-644-2-661-6zm1414-703c3-55 3-57-24-64-15-4-85-4-156 0l-128 6v-159l113-3 112-3 3-57 3-58h-231l-1-122c-1-205 8-183-76-186l-73-3v711l227-2 227-3 4-57zm222-233V690h300V570h-453l6 158c4 86 7 246 7 355v197h140V985zm765 272c85-38 125-99 125-192 0-139-99-215-281-215h-89V570h-140v712l173-4c136-3 180-8 212-21zm-221-105c-14-9-26-111-17-152 6-33 6-33 82-26 50 4 84 12 100 24 46 34 46 101 1 133-26 18-147 33-166 21z"/></g></svg><svg xmlns="http://www.w3.org/2000/svg" width="512" height="512" version="1.0" viewBox="0 0 512 512"><g fill="#65dbdb" transform="matrix(.1 0 0 -.1 0 512)"><path d="M875 1921c-69-7-103-28-134-82-21-36-21-48-21-665 0-511 3-638 14-675 45-146 147-247 291-285 77-21 2960-20 3058 1 124 26 223 102 279 215 23 45 23 49 26 550 2 278 0 524-3 547-4 28-17 54-41 80l-35 38-949 3-950 2-107 121c-58 66-119 127-135 135-24 13-123 15-631 17-331 2-629 1-662-2zm1380-706v-60l-150-1-150-2v-147l113-3 112-3V880h-229l-3-152-3-153-72-3-73-3v711l228-2 227-3v-60zm225-224c0-285 0-290 21-296 11-4 78-5 147-3l127 3 3-62 3-63h-451v348c0 192 3 352 7 355 3 4 37 7 75 7h68V991zm780 257c75-38 103-81 108-168 9-149-89-230-277-230h-87l1-127c1-71-1-134-3-140-3-9-27-13-73-13h-69v712l173-4c164-3 175-4 227-30zm-248-185 3-88 75 3c95 4 124 22 128 80 3 34-2 47-22 67-23 23-33 25-106 25h-81l3-87z"/></g></svg><svg xmlns="http://www.w3.org/2000/svg" width="512" height="512" version="1.0" viewBox="0 0 512 512"><g fill="#03d6d7" transform="matrix(.1 0 0 -.1 0 512)"><path d="M810 1901c-19-10-45-33-57-51-23-33-23-33-23-690V503l35-70c40-81 106-147 186-190l54-28h3100l67 33c75 37 159 120 192 192 21 44 21 55 18 575-4 578-3 563-62 606-24 18-73 19-968 21l-943 3-37 41c-20 22-70 78-111 123-41 46-89 90-108 97-26 11-152 14-670 14-602 0-640-1-673-19zm1452-658c4-21 5-50 2-65-6-28-6-28-155-28h-149v-140h219l6-43c14-93 16-92-117-95-113-3-117-3-116-25 1-12 1-82 0-155l-2-133-77 3-78 3-3 350c-1 192 0 355 2 362 4 10 58 12 233 8l228-5 7-37zm222 29c3-9 3-120 1-247-2-126-2-251 2-277l6-47 146-3 146-3 3-68 3-67h-230c-174 0-230 3-234 13-4 13 3 686 7 702 2 6 35 11 74 12 59 1 72-1 76-15zm769-15c101-42 147-141 116-252-28-101-115-155-265-163l-94-5V559l-77 3-78 3-3 350c-1 192 0 356 3 363 3 9 42 11 177 6 140-5 182-10 221-27zm-239-120c-3-8-4-45-2-83l3-69 55-3c30-2 72 2 92 8 31 9 39 17 49 51 11 35 10 43-8 67-24 32-48 40-126 41-40 1-59-3-63-12z"/></g></svg><svg xmlns="http://www.w3.org/2000/svg" width="512" height="512" version="1.0" viewBox="0 0 512 512"><g fill="#01d5c7" transform="matrix(.1 0 0 -.1 0 512)"><path d="M810 1901c-19-10-45-33-57-51-23-33-23-33-23-670 0-555 2-639 15-650 8-7 15-23 15-36 0-12 5-26 10-29 6-3 10-15 10-26 0-10 5-19 10-19 6 0 10-6 10-13 0-17 79-101 103-110 27-10 20 12-13 40-17 13-28 28-25 32 2 5-6 19-18 32s-21 27-20 31c2 4-7 18-19 31s-22 34-23 46c-2 21-1 21 16 2 10-11 20-25 21-32 4-16 63-79 75-79 5 0-3 26-18 58-16 31-28 66-28 77 1 17 2 17 6 3 2-10 9-18 14-18 6 0 7-4 4-10-3-5-1-10 5-10s8-5 5-10c-3-6 1-13 9-16s18-14 21-24c3-11 16-22 28-26 29-9 47-35 41-56-6-22-4-22 32-3 16 8 46 15 68 15 30 0 37 3 32 15-6 16 30 55 51 55 7 0 21 9 30 20 10 11 26 20 36 20 15 0 17-3 8-14s-6-12 14-8c20 3 25 10 25 34 0 29 1 29 44 23 39-6 48-3 93 29 28 20 60 36 72 36s20 4 17 8c-6 11 39 28 149 55 25 6 35 20 35 49 0 23-3 28-13 22-7-5-6-2 3 6 13 13 15 41 14 175-2 209 4 295 22 295 8 0 14 9 14 20s5 20 10 20c6 0 10 8 10 18 0 9 7 26 16 37 12 17 17 18 35 7 21-14 34-9 34 11 0 12 43 26 62 19 6-2 9-10 6-18-4-12 12-14 93-12 55 1 74 3 44 5s-71 6-90 9c-35 6-35 6-10 16 15 6 20 12 13 15-19 7-16 23 5 21 9-1 39 0 65 0 44 2 47 3 33 18-24 23-20 31 18 31 24 0 33-5 32-16 0-9-8-19-16-23-16-7 53-13 108-9 29 2 33 0 27-18-5-16-2-18 15-14 12 3 24 12 27 19 7 19 20 17 43-6 12-12 15-20 8-20-9 0-8-3 2-10 9-5 19-5 26 1 6 5 25 7 43 5 33-4 55-15 30-17-23-1 24-18 52-18 24-1 52-31 29-31-6 0-10-65-10-165 0-142 2-164 15-159 11 4 15 21 15 55 0 57 9 61 31 14 13-28 14-35 2-39-7-3-13-10-13-16s7-4 16 4c11 12 20 13 34 6 24-13 33-13 25 0-3 6 2 10 13 10 15 0 18 6 14 29-2 16 1 32 7 35 7 5 11-4 11-23 0-17 5-31 10-31 6 0 10 16 10 36 0 35 1 36 22 22 12-8 24-21 26-29s-2-6-8 4c-15 23-30 22-30-3 0-10 10-25 22-31 19-10 24-9 36 10 16 24 37 29 29 6-4-8-2-17 3-20 9-6 12 17 12 90 0 61-3 75-14 73-8-2-15 13-18 37-4 32-9 39-24 37-18-3-18-2-2 13 20 21 21 32 1 15-10-9-15-9-15-1 0 6-8 11-17 12-18 1-18 1 27 15 13 5 13 6 0 15-12 9-11 10 5 6 11-3 27-8 36-11 12-5 18 0 21 19 4 21 3 23-9 14-10-9-17-9-25-1s-7 13 7 18c18 7 18 8-1 15-17 7-17 8 4 8 12 1 22-4 22-9 0-6 3-9 8-9 19 3 42-2 41-8-4-26 3-34 29-31 15 2 26 8 24 16-3 18 23 26 45 13 16-9 16-10-6-11-13 0-21-3-18-6 4-4 71-10 149-14 116-5 152-11 190-28 26-12 50-27 53-32 4-6 10-8 15-5 13 8 49-71 56-124 13-97-33-183-119-226-49-24-219-51-240-38-4 2-7-67-7-155l2-159 39 2c22 1 42 5 45 8s18 1 34-3c21-6 32-4 41 6 9 11 15 12 27 2 8-7 24-12 36-10 12 1 28-2 36-8 13-9 13-11 0-20-10-7 2-8 40-5 30 3 57 10 60 16 8 12 53 5 58-9 2-7 7-10 12-7s11-4 15-15 11-17 17-14c7 4 7 9-1 13-6 4-3 11 9 19 17 10 20 10 20-5 0-13 3-14 12-5 15 15 138 16 138 2 0-6-10-15-22-20-19-8-17-9 14-6 21 1 41 6 45 11 5 4 1 5-7 0s-12-4-7 0c4 5 21 10 38 11s40 9 52 17c12 7 46 22 75 32 28 11 52 25 52 32s3 12 8 11c4-2 7-1 7 2 0 12 52 56 88 74 21 11 33 22 27 26-14 9-2 83 16 93 8 4 14 23 14 43 0 24-4 33-12 28-7-5-8-3-4 5 5 7 18 16 31 21 23 9 39 57 37 110 0 16 1 19 4 7 7-24 23-22 17 3-3 11-9 20-14 20-15 0-10 22 8 43 13 14 17 33 15 75-3 47 1 61 19 80 12 13 23 38 24 55s7 33 14 35c6 2 9-3 5-11-3-8-1-18 5-21 8-5 9 43 2 117-1 5-5 5-11 2-13-8-13-62 0-68 6-3 5-4-2-3-9 2-13 23-13 67 0 55 3 64 18 63 9-1 18 4 18 12 1 8 3 19 4 24 1 6 3 20 4 33 1 12 5 17 9 12 7-11 52-18 52-9 0 3-7 12-15 20-23 23-18 34 14 34 18 0 41-10 57-25 25-23 44-25 44-5 0 5-7 7-16 3-12-4-14 0-9 19 5 20 0 31-25 52-32 26-32 26-893 27-474 1-899 2-945 3-95 1-66-19-231 165-41 46-89 90-108 97-26 11-152 14-670 14-602 0-640-1-673-19zm1400-499c25-17 25-17 0-20-16-3-30 3-41 17-9 11-19 17-23 14-3-4-6-1-6 6 0 15 33 7 70-17zm490-122c0-5-5-10-11-10-5 0-7 5-4 10 3 6 8 10 11 10 2 0 4-4 4-10zm348-498c2-7-2-10-12-6-9 3-16 11-16 16 0 13 23 5 28-10zM1627 668c-3-8-6-5-6 6-1 11 2 17 5 13 3-3 4-12 1-19zm-77-18c0-5-8-10-17-10-15 0-16 2-3 10 19 12 20 12 20 0zm-750-83c0-23-33-31-47-11-16 22-17 46-2 61 9 9 17 6 30-12 11-13 19-30 19-38zm2557-53c-3-3-12-4-19-1-8 3-5 6 6 6 11 1 17-2 13-5zm836 901c0-8 4-12 9-9s6 10 3 15c-9 13-12 11-12-6zm-2075-112c12-2 32-2 45 0 12 2 2 4-23 4s-35-2-22-4zm80 0c7-3 16-2 19 1 4 3-2 6-13 5-11 0-14-3-6-6zm643-49c0-11 3-14 6-6 3 7 2 16-1 19-3 4-6-2-5-13zm-555-10c-8-22 1-31 16-16 9 9 9 15 1 23-7 7-12 5-17-7zm-26-74c0-5 5-10 10-10 6 0 10 5 10 10 0 6-4 10-10 10-5 0-10-4-10-10zm64-230c0-124 2-174 3-112 2 61 2 163 0 225-1 61-3 11-3-113zm-331 197c16-6 25-17 23-24-6-14 27-36 38-26 3 3 6 0 6-8 0-12 2-11 11 1 8 11 12 12 16 3 2-7 11-13 19-13 9 0 12 5 9 10-3 6-1 10 4 10 6 0 11-5 11-11 0-20-21-49-35-49-8 0-15-5-15-11 0-7 20-10 55-7 31 2 56-1 58-7 2-5 1-38-1-72l-4-63h-101c-106 0-120-15-19-19 31-1 59-6 60-12 2-5 12-9 21-9 10 0 21-3 25-7 8-8 10-9 44-12 15-2 14-3-3-11-19-8-19-9 3-9 17-1 22 5 22 24 0 14 6 28 13 31 17 6 18 35 1 52-8 7-12 31-10 60 4 65 0 72-44 72-25 0-37 4-36 13 10 48 41 68 62 40 12-17 13-16 7 5-4 16-1 22 11 22 9 0 16 8 16 20 0 19-6 20-147 19-119-1-142-3-120-12zm227-297c8-5 11-10 5-10-5 0-17 5-25 10s-10 10-5 10c6 0 17-5 25-10zm797 303c-4-3-7-39-7-78 0-81-7-76 95-78 72-2 93 9 106 53 11 36 10 44-8 68-11 14-31 30-44 33-32 9-134 11-142 2zm-195-98c-1-46 1-55 8-37 6 13 6 38 1 60-8 35-9 33-9-23zm-597 5c-3-5-1-10 4-10 6 0 11 5 11 10 0 6-2 10-4 10-3 0-8-4-11-10zm350-130c-3-5-2-10 4-10 5 0 8-11 5-24-2-14 1-28 7-31 17-11 21 0 14 39-7 36-18 45-30 26zm-85-30c0-11 4-20 9-20 6 0 9 9 8 20s-5 20-9 20-8-9-8-20zm-456-59c7-10 31-9 42 2 4 4-5 7-20 7s-25-4-22-9zm135-41c0-3-2-13-4-22-4-21 21-31 46-18 26 14 24 30-2 23-12-4-25 0-30 8s-9 12-10 9zm-216-60c0-30 2-43 4-27 2 15 2 39 0 55-2 15-4 2-4-28zm2431-95c0-66 1-92 3-57 2 34 2 88 0 120-2 31-3 3-3-63zm-1646 88c7-3 16-2 19 1 4 3-2 6-13 5-11 0-14-3-6-6zm-785-128c0-22 2-30 4-17 2 12 2 30 0 40-3 9-5-1-4-23zm891-42c2-13 13-18 37-19 19-1 36-2 39-4 3-1 16-3 30-4s30-5 36-9c14-8 25 15 16 30-4 6-38 11-76 12-37 1-72 3-76 6-5 3-7-3-6-12zm-964-5c0-11 32-10 48 1 9 5 3 8-17 7-17-1-31-4-31-8zm461-3c6-6 91-11 197-13 103-1 193-4 200-7 18-6 42 5 42 20 0 11-46 13-224 12-149-1-222-5-215-12zm1209-75c-9-6-10-10-3-10 6 0 15 5 18 10 8 12 4 12-15 0z"/></g></svg></g></svg>