<svg height="96" width="96" xmlns="http://www.w3.org/2000/svg" xmlns:xlink="http://www.w3.org/1999/xlink"><linearGradient id="a"><stop offset="0" stop-color="#fff"/><stop offset="1" stop-color="#fff" stop-opacity="0"/></linearGradient><linearGradient id="b" gradientUnits="userSpaceOnUse" x1="48" x2="48" y1="72" y2="5.987717"><stop offset="0" stop-color="#dcdcdc"/><stop offset="1" stop-color="#fafafa"/></linearGradient><linearGradient id="c" gradientTransform="matrix(1.0058652 0 0 .994169 100 0)" gradientUnits="userSpaceOnUse" x1="45.447727" x2="45.447727" y1="92.539597" y2="7.01654"><stop offset="0"/><stop offset="1" stop-opacity=".588235"/></linearGradient><linearGradient id="d" gradientTransform="matrix(1.0238095 0 0 1.0119048 -1.142857 -98.071429)" gradientUnits="userSpaceOnUse" x1="32.251034" x2="32.251034" xlink:href="#c" y1="6.131708" y2="90.238609"/><linearGradient id="e" gradientTransform="translate(0 -97)" gradientUnits="userSpaceOnUse" x1="32.251034" x2="32.251034" xlink:href="#c" y1="6.131708" y2="90.238609"/><radialGradient id="f" cx="48" cy="87.792389" gradientTransform="matrix(1 -.00000007 .00000008 1.2557894 109.99999 -24.505592)" gradientUnits="userSpaceOnUse" r="42"><stop offset="0" stop-color="#fff" stop-opacity=".717557"/><stop offset="1" stop-color="#fff"/></radialGradient><linearGradient id="g" gradientTransform="matrix(1 0 0 -1 0 92)" gradientUnits="userSpaceOnUse" x1="48" x2="48" xlink:href="#a" y1="88" y2="-40"/><linearGradient id="h" gradientUnits="userSpaceOnUse" spreadMethod="reflect" x1="48" x2="112.12357" xlink:href="#a" y1="82" y2="82.454597"/><linearGradient id="i" gradientUnits="userSpaceOnUse" spreadMethod="reflect" x1="90" x2="48" y1="88" y2="88"><stop offset="0" stop-opacity=".588235"/><stop offset=".11780351" stop-opacity=".470588"/><stop offset=".23809524" stop-opacity=".392157"/><stop offset="1" stop-opacity=".313726"/></linearGradient><linearGradient id="j"><stop offset="0" stop-color="#ededed"/><stop offset="1" stop-color="#b0b0b0"/></linearGradient><linearGradient id="k"><stop offset="0" stop-color="#2f2f2f"/><stop offset=".43731192" stop-color="#fff"/><stop offset=".62138397" stop-color="#979797"/><stop offset=".7723214" stop-color="#505050"/><stop offset="1" stop-color="#e6e6e6"/></linearGradient><linearGradient id="l"><stop offset="0" stop-color="#fff"/><stop offset=".48973215" stop-color="#8c8c8c"/><stop offset=".50044644" stop-color="#cfcfcf"/><stop offset=".62276787" stop-color="#fff"/><stop offset=".81696427" stop-color="#c8c8c8"/><stop offset="1" stop-color="#505050"/></linearGradient><linearGradient id="m" gradientUnits="userSpaceOnUse" x1="64" x2="70" y1="67" y2="67"><stop offset="0" stop-color="#b4b4b4"/><stop offset=".20467032" stop-color="#646464"/><stop offset=".49567693" stop-color="#fff"/><stop offset="1" stop-color="#3c3c3c"/></linearGradient><linearGradient id="n" gradientUnits="userSpaceOnUse" x1="64" x2="68" xlink:href="#l" y1="15.5" y2="15.5"/><linearGradient id="o" gradientUnits="userSpaceOnUse" x1="64" x2="68" xlink:href="#l" y1="19.5" y2="19.5"/><linearGradient id="p" gradientTransform="matrix(-1 0 0 1 139 -32.5)" gradientUnits="userSpaceOnUse" x1="69" x2="73" xlink:href="#k" y1="54" y2="54"/><linearGradient id="q" gradientUnits="userSpaceOnUse" x1="64" x2="68" xlink:href="#l" y1="23.5" y2="23.5"/><linearGradient id="r" gradientTransform="matrix(-1 0 0 1 139 -28.5)" gradientUnits="userSpaceOnUse" x1="69" x2="73" xlink:href="#k" y1="54" y2="54"/><linearGradient id="s" gradientUnits="userSpaceOnUse" x1="64" x2="68" xlink:href="#l" y1="27.5" y2="27.5"/><linearGradient id="t" gradientTransform="matrix(-1 0 0 1 139 -24.5)" gradientUnits="userSpaceOnUse" x1="69" x2="73" xlink:href="#k" y1="54" y2="54"/><linearGradient id="u" gradientUnits="userSpaceOnUse" x1="64" x2="68" xlink:href="#l" y1="31.5" y2="31.5"/><linearGradient id="v" gradientTransform="matrix(-1 0 0 1 139 -20.5)" gradientUnits="userSpaceOnUse" x1="69" x2="73" xlink:href="#k" y1="54" y2="54"/><linearGradient id="w" gradientUnits="userSpaceOnUse" x1="64" x2="68" xlink:href="#l" y1="35.5" y2="35.5"/><linearGradient id="x" gradientTransform="matrix(-1 0 0 1 139 -16.5)" gradientUnits="userSpaceOnUse" x1="69" x2="73" xlink:href="#k" y1="54" y2="54"/><linearGradient id="y" gradientUnits="userSpaceOnUse" x1="64" x2="68" xlink:href="#l" y1="39.5" y2="39.5"/><linearGradient id="z" gradientTransform="matrix(-1 0 0 1 139 -12.5)" gradientUnits="userSpaceOnUse" x1="69" x2="73" xlink:href="#k" y1="54" y2="54"/><linearGradient id="A" gradientUnits="userSpaceOnUse" x1="64" x2="68" xlink:href="#l" y1="43.5" y2="43.5"/><linearGradient id="B" gradientTransform="matrix(-1 0 0 1 139 -8.5)" gradientUnits="userSpaceOnUse" x1="69" x2="73" xlink:href="#k" y1="54" y2="54"/><linearGradient id="C" gradientUnits="userSpaceOnUse" x1="64" x2="68" xlink:href="#l" y1="47.5" y2="47.5"/><linearGradient id="D" gradientTransform="matrix(-1 0 0 1 139 -4.5)" gradientUnits="userSpaceOnUse" x1="69" x2="73" xlink:href="#k" y1="54" y2="54"/><linearGradient id="E" gradientUnits="userSpaceOnUse" x1="64" x2="68" xlink:href="#l" y1="51.5" y2="51.5"/><linearGradient id="F" gradientTransform="matrix(-1 0 0 1 139 -.5)" gradientUnits="userSpaceOnUse" x1="69" x2="73" xlink:href="#k" y1="54" y2="54"/><linearGradient id="G" gradientUnits="userSpaceOnUse" x1="64" x2="68" xlink:href="#l" y1="55.5" y2="55.5"/><linearGradient id="H" gradientTransform="matrix(-1 0 0 1 139 3.5)" gradientUnits="userSpaceOnUse" x1="69" x2="73" xlink:href="#k" y1="54" y2="54"/><linearGradient id="I" gradientUnits="userSpaceOnUse" x1="64" x2="68" xlink:href="#l" y1="59.5" y2="59.5"/><linearGradient id="J" gradientTransform="matrix(-1 0 0 1 139 7.5)" gradientUnits="userSpaceOnUse" x1="69" x2="73" xlink:href="#k" y1="54" y2="54"/><linearGradient id="K" gradientUnits="userSpaceOnUse" x1="64" x2="68" xlink:href="#l" y1="63.5" y2="63.5"/><linearGradient id="L" gradientTransform="matrix(-1 0 0 1 139 11.5)" gradientUnits="userSpaceOnUse" x1="69" x2="73" xlink:href="#k" y1="54" y2="54"/><linearGradient id="M" gradientUnits="userSpaceOnUse" x1="64" x2="68" xlink:href="#l" y1="67.5" y2="67.5"/><linearGradient id="N" gradientTransform="matrix(-1 0 0 1 139 15.5)" gradientUnits="userSpaceOnUse" x1="69" x2="73" xlink:href="#k" y1="54" y2="54"/><linearGradient id="O" gradientTransform="matrix(-1 0 0 1 139 -36.5)" gradientUnits="userSpaceOnUse" x1="69" x2="73" xlink:href="#k" y1="54" y2="54"/><linearGradient id="P" gradientUnits="userSpaceOnUse" x1="64" x2="70" xlink:href="#l" y1="8" y2="8"/><linearGradient id="Q" gradientUnits="userSpaceOnUse" x1="68" x2="74" xlink:href="#j" y1="8" y2="8"/><linearGradient id="R" gradientTransform="matrix(1 0 0 .83333333 0 2.166667)" gradientUnits="userSpaceOnUse" x1="67" x2="67" y1="7" y2="13"><stop offset="0"/><stop offset="1" stop-opacity="0"/></linearGradient><linearGradient id="S" gradientTransform="matrix(-.99481865 0 0 1.0020877 137.64767 -23.05428)" gradientUnits="userSpaceOnUse" x1="69.005211" x2="73.026047" xlink:href="#j" y1="20.012501" y2="16.020834"/><linearGradient id="T" gradientTransform="matrix(.99481865 0 0 1.0020877 -3.64767 -23.05428)" gradientUnits="userSpaceOnUse" x1="68" x2="74.03125" xlink:href="#j" y1="16.020834" y2="20.012501"/><linearGradient id="U" gradientTransform="matrix(1.1262691 0 0 1 -12.212569 -48)" gradientUnits="userSpaceOnUse" x1="69.443947" x2="71.219719" xlink:href="#j" y1="58" y2="62"/><linearGradient id="V" gradientUnits="userSpaceOnUse" x1="63" x2="71" y1="-7" y2="-7"><stop offset="0" stop-color="#f9f9f9"/><stop offset="1" stop-color="#858585"/></linearGradient><clipPath id="W"><path d="m10.6875 67.90625c-2.216 0-4 1.784-4 4v32.40625c0 2.216 1.784 4 4 4h39.09375c2.216 0 4-1.784 4-4v-32.40625c0-2.216-1.784-4-4-4zm12.65625 12.09375c.670141.000014 1.250428.105379 1.75.3125.499557.194965.927891.466044 1.28125.84375.365526.377732.655669.851077.875 1.375.231496.523945.397209 1.085163.53125 1.71875l-1.53125.53125c-.109669-.475187-.24786-.903518-.40625-1.28125-.146222-.377709-.331003-.70068-.5625-.96875-.219329-.268048-.49571-.459708-.8125-.59375-.304619-.146202-.686364-.21874-1.125-.21875-.694522.000012-1.255742.151965-1.71875.46875-.45083.304623-.813511.707011-1.09375 1.21875-.268062.499574-.471907 1.0661-.59375 1.6875-.109663.621418-.156251 1.253596-.15625 1.875-.000002.621416.04659 1.222347.15625 1.84375.121843.621414.325687 1.187941.59375 1.6875.28024.499568.630735.901955 1.09375 1.21875.463007.304615 1.055478.468751 1.75.46875.243684.000002.494119-.03283.75-.09375.268052-.06092.506302-.140338.75-.25.255867-.109659.499421-.228784.71875-.375.219312-.146212.423159-.31723.59375-.5v-2.46875h-3.0625v-1.6875h4.8125v6.96875h-1.71875v-.8125c-.414282.243691-.880747.46818-1.34375.6875-.450834.231506-.90669.343749-1.40625.34375-.98695-.000001-1.836737-.210727-2.53125-.625-.69452-.414273-1.24886-.935784-1.6875-1.59375-.438643-.657961-.773798-1.402384-.96875-2.21875-.194953-.828542-.281251-1.67145-.28125-2.5-.000001-.816355.09848-1.62801.28125-2.46875.182767-.840721.460726-1.611091.875-2.28125.414271-.682321.973915-1.229779 1.65625-1.65625.682328-.438629 1.532115-.656236 2.53125-.65625zm7.25 0h7.78125v1.90625c-.219329.352214-.476646.778116-.78125 1.28125-.292435.490577-.615406 1.015142-.96875 1.59375-.353357.578624-.70385 1.202246-1.09375 1.84375-.389909.641515-.785416 1.295997-1.1875 1.9375-.389908.641514-.785416 1.25865-1.1875 1.875-.402091.616355-.809782 1.177872-1.1875 1.71875h6.59375v1.84375h-8.5625v-1.96875l5.34375-8.71875c.170577-.264139.341595-.498416.5-.75.170577-.251561.348477-.529667.53125-.78125h-5.78125z"/></clipPath><g><g fill="url(#d)"><path d="m12-95.03125c-5.5110903 0-10.03125 4.52016-10.03125 10.03125v71c0 5.5110902 4.5201598 10.03125 10.03125 10.03125h72c5.51109 0 10.03125-4.5201597 10.03125-10.03125v-71c0-5.51109-4.52016-10.03125-10.03125-10.03125z" opacity=".08" transform="scale(1 -1)"/><path d="m12-94.03125c-4.971633 0-9.03125 4.059617-9.03125 9.03125v71c0 4.9716329 4.0596171 9.03125 9.03125 9.03125h72c4.971633 0 9.03125-4.059617 9.03125-9.03125v-71c0-4.971633-4.059617-9.03125-9.03125-9.03125z" opacity=".1" transform="scale(1 -1)"/><path d="m12-93c-4.4091333 0-8 3.590867-8 8v71c0 4.4091333 3.5908667 8 8 8h72c4.409133 0 8-3.5908667 8-8v-71c0-4.409133-3.590867-8-8-8z" opacity=".2" transform="scale(1 -1)"/><rect height="85" opacity=".3" rx="7" transform="scale(1 -1)" width="86" x="5" y="-92"/></g><rect fill="url(#e)" height="84" opacity=".45" rx="6" transform="scale(1 -1)" width="84" x="6" y="-91"/></g><path d="m12 6c-3.324 0-6 2.676-6 6v72c0 3.324 2.676 6 6 6h72c3.324 0 6-2.676 6-6v-72c0-3.324-2.676-6-6-6h-12v2h-10v-2z" fill="url(#b)"/><path d="m120.78125 6.125c-2.73902.5576484-4.78125 2.9665-4.78125 5.875v68c0 3.324 2.676 6 6 6h72c3.324 0 6-2.676 6-6v-68c0-2.9085-2.04223-5.3173516-4.78125-5.875 2.20512.5362071 3.8125 2.4908437 3.8125 4.875v68c0 2.80489-2.22636 5.03125-5.03125 5.03125h-72c-2.80489 0-5.03125-2.22636-5.03125-5.03125v-68c0-2.3841563 1.60738-4.3387929 3.8125-4.875z" fill="url(#f)" opacity=".2"/><path d="m12 6c-3.324 0-6 2.676-6 6v68c0 3.324 2.676 6 6 6h72c3.324 0 6-2.676 6-6v-68c0-3.324-2.676-6-6-6h-12v.96875h12c2.80489 0 5.03125 2.22636 5.03125 5.03125v68c0 2.80489-2.22636 5.03125-5.03125 5.03125h-72c-2.8048898 0-5.03125-2.22636-5.03125-5.03125v-68c0-2.80489 2.2263602-5.03125 5.03125-5.03125h50v-.96875z" fill="url(#g)" opacity=".8"/><path d="m6 78v2c0 3.324 2.676 6 6 6h72c3.324 0 6-2.676 6-6v-2c0 3.324-2.676 6-6 6h-72c-3.324 0-6-2.676-6-6z" fill="url(#h)" opacity=".2"/><path d="m6 100v1c0 3.324 2.676 6 6 6h72c3.324 0 6-2.676 6-6v-1c0 3.324-2.676 6-6 6h-72c-3.324 0-6-2.676-6-6z" opacity=".15"/><rect fill="#fff" height="64" opacity=".6" rx="2.5" width="11.99999" x="61" y="7"/><g><path d="m6 80v4c0 3.324 2.676 6 6 6h72c3.324 0 6-2.676 6-6v-4c0 3.324-2.676 6-6 6h-72c-3.324 0-6-2.676-6-6z" fill="url(#i)"/><path d="m6 82v2c0 3.324 2.676 6 6 6h72c3.324 0 6-2.676 6-6v-2c0 3.324-2.676 6-6 6h-72c-3.324 0-6-2.676-6-6z" opacity=".1"/><path d="m6 83v1c0 3.324 2.676 6 6 6h72c3.324 0 6-2.676 6-6v-1c0 3.324-2.676 6-6 6h-72c-3.324 0-6-2.676-6-6z" opacity=".15"/></g><path d="m62 6v62c0 1.108.892 2 2 2h6c1.108 0 2-.892 2-2v-62h-3v2h-4v-2z" fill="#252525"/><path d="m62 6v62c0 1.108.892 2 2 2h6c1.108 0 2-.892 2-2v-62h-3v2h-4v-2zm.90625.90625h1.1875v1.09375a.91904621.91904621 0 0 0 .90625.90625h4a.91904621.91904621 0 0 0 .90625-.90625v-1.09375h1.1875v61.09375c0 .614795-.478955 1.09375-1.09375 1.09375h-6c-.614795 0-1.09375-.478955-1.09375-1.09375z" opacity=".5"/><path d="m65 8.047294h4v56.952705h-4z" fill="#4d4d4d"/><g stroke="#000" stroke-opacity=".519802" stroke-width=".5"><rect fill="url(#m)" height="3" rx=".5" width="6" x="64" y="65"/><path d="m68.28125 60c-.02611.190275-.06688.360445-.125.5-.104652.251277-.228329.39653-.375.46875-.293338.144432-.625033.02896-.84375-.21875-.139784-.15832-.398039-.27648-.59375-.1875-.09786.04449-.19394.145215-.25.28125s-.09375.331718-.09375.65625.03769.520215.09375.65625.152145.236759.25.28125c.195711.08898.453966-.02918.59375-.1875.218717-.247713.550412-.363182.84375-.21875.146671.07222.270348.217473.375.46875.05812.139555.09889.309725.125.5h1.46875c.1385 0 .25-.1115.25-.25v-2.5c0-.1385-.1115-.25-.25-.25z" fill="url(#N)"/><path d="m64.25 62c-.1385 0-.25.1115-.25.25v2.5c0 .1385.1115.25.25.25h1.5c.02518-.207053.06401-.383265.125-.53125.10538-.255706.25936-.40196.40625-.46875.293781-.13357.598407.0075.8125.25.135161.15305.39367.25476.59375.15625.10004-.04926.19468-.148433.25-.28125.02766-.06641.04558-.147861.0625-.25v-.75c-.01692-.102139-.03484-.183591-.0625-.25-.05532-.132817-.14996-.231993-.25-.28125-.20008-.09851-.458589.0032-.59375.15625-.214093.242477-.518719.38357-.8125.25-.146897-.06679-.30087-.213044-.40625-.46875-.060987-.147985-.099822-.324197-.125-.53125z" fill="url(#M)"/><path d="m68.28125 56c-.02611.190275-.06688.360445-.125.5-.104652.251277-.228329.39653-.375.46875-.293338.144432-.625033.02896-.84375-.21875-.139784-.15832-.398039-.27648-.59375-.1875-.09786.04449-.19394.145215-.25.28125s-.09375.331718-.09375.65625.03769.520215.09375.65625.152145.236759.25.28125c.195711.08898.453966-.02918.59375-.1875.218717-.247713.550412-.363182.84375-.21875.146671.07222.270348.217473.375.46875.05812.139555.09889.309725.125.5h1.46875c.1385 0 .25-.1115.25-.25v-2.5c0-.1385-.1115-.25-.25-.25z" fill="url(#L)"/><path d="m64.25 58c-.1385 0-.25.1115-.25.25v2.5c0 .1385.1115.25.25.25h1.5c.02518-.207053.06401-.383265.125-.53125.10538-.255706.25936-.40196.40625-.46875.293781-.13357.598407.0075.8125.25.135161.15305.39367.25476.59375.15625.10004-.04926.19468-.148433.25-.28125.02766-.06641.04558-.147861.0625-.25v-.75c-.01692-.102139-.03484-.183591-.0625-.25-.05532-.132817-.14996-.231993-.25-.28125-.20008-.09851-.458589.0032-.59375.15625-.214093.242477-.518719.38357-.8125.25-.146897-.06679-.30087-.213044-.40625-.46875-.060987-.147985-.099822-.324197-.125-.53125z" fill="url(#K)"/><path d="m68.28125 52c-.02611.190275-.06688.360445-.125.5-.104652.251277-.228329.39653-.375.46875-.293338.144432-.625033.02896-.84375-.21875-.139784-.15832-.398039-.27648-.59375-.1875-.09786.04449-.19394.145215-.25.28125s-.09375.331718-.09375.65625.03769.520215.09375.65625.152145.236759.25.28125c.195711.08898.453966-.02918.59375-.1875.218717-.247713.550412-.363182.84375-.21875.146671.07222.270348.217473.375.46875.05812.139555.09889.309725.125.5h1.46875c.1385 0 .25-.1115.25-.25v-2.5c0-.1385-.1115-.25-.25-.25z" fill="url(#J)"/><path d="m64.25 54c-.1385 0-.25.1115-.25.25v2.5c0 .1385.1115.25.25.25h1.5c.02518-.207053.06401-.383265.125-.53125.10538-.255706.25936-.40196.40625-.46875.293781-.13357.598407.0075.8125.25.135161.15305.39367.25476.59375.15625.10004-.04926.19468-.148433.25-.28125.02766-.06641.04558-.147861.0625-.25v-.75c-.01692-.102139-.03484-.183591-.0625-.25-.05532-.132817-.14996-.231993-.25-.28125-.20008-.09851-.458589.0032-.59375.15625-.214093.242477-.518719.38357-.8125.25-.146897-.06679-.30087-.213044-.40625-.46875-.060987-.147985-.099822-.324197-.125-.53125z" fill="url(#I)"/><path d="m68.28125 48c-.02611.190275-.06688.360445-.125.5-.104652.251277-.228329.39653-.375.46875-.293338.144432-.625033.02896-.84375-.21875-.139784-.15832-.398039-.27648-.59375-.1875-.09786.04449-.19394.145215-.25.28125s-.09375.331718-.09375.65625.03769.520215.09375.65625.152145.236759.25.28125c.195711.08898.453966-.02918.59375-.1875.218717-.247713.550412-.363182.84375-.21875.146671.07222.270348.217473.375.46875.05812.139555.09889.309725.125.5h1.46875c.1385 0 .25-.1115.25-.25v-2.5c0-.1385-.1115-.25-.25-.25z" fill="url(#H)"/><path d="m64.25 50c-.1385 0-.25.1115-.25.25v2.5c0 .1385.1115.25.25.25h1.5c.02518-.207053.06401-.383265.125-.53125.10538-.255706.25936-.40196.40625-.46875.293781-.13357.598407.0075.8125.25.135161.15305.39367.25476.59375.15625.10004-.04926.19468-.148433.25-.28125.02766-.06641.04558-.147861.0625-.25v-.75c-.01692-.102139-.03484-.183591-.0625-.25-.05532-.132817-.14996-.231993-.25-.28125-.20008-.09851-.458589.0032-.59375.15625-.214093.242477-.518719.38357-.8125.25-.146897-.06679-.30087-.213044-.40625-.46875-.060987-.147985-.099822-.324197-.125-.53125z" fill="url(#G)"/><path d="m68.28125 44c-.02611.190275-.06688.360445-.125.5-.104652.251277-.228329.39653-.375.46875-.293338.144432-.625033.02896-.84375-.21875-.139784-.15832-.398039-.27648-.59375-.1875-.09786.04449-.19394.145215-.25.28125s-.09375.331718-.09375.65625.03769.520215.09375.65625.152145.236759.25.28125c.195711.08898.453966-.02918.59375-.1875.218717-.247713.550412-.363182.84375-.21875.146671.07222.270348.217473.375.46875.05812.139555.09889.309725.125.5h1.46875c.1385 0 .25-.1115.25-.25v-2.5c0-.1385-.1115-.25-.25-.25z" fill="url(#F)"/><path d="m64.25 46c-.1385 0-.25.1115-.25.25v2.5c0 .1385.1115.25.25.25h1.5c.02518-.207053.06401-.383265.125-.53125.10538-.255706.25936-.40196.40625-.46875.293781-.13357.598407.0075.8125.25.135161.15305.39367.25476.59375.15625.10004-.04926.19468-.148433.25-.28125.02766-.06641.04558-.147861.0625-.25v-.75c-.01692-.102139-.03484-.183591-.0625-.25-.05532-.132817-.14996-.231993-.25-.28125-.20008-.09851-.458589.0032-.59375.15625-.214093.242477-.518719.38357-.8125.25-.146897-.06679-.30087-.213044-.40625-.46875-.060987-.147985-.099822-.324197-.125-.53125z" fill="url(#E)"/><path d="m68.28125 40c-.02611.190275-.06688.360445-.125.5-.104652.251277-.228329.39653-.375.46875-.293338.144432-.625033.02896-.84375-.21875-.139784-.15832-.398039-.27648-.59375-.1875-.09786.04449-.19394.145215-.25.28125s-.09375.331718-.09375.65625.03769.520215.09375.65625.152145.236759.25.28125c.195711.08898.453966-.02918.59375-.1875.218717-.247713.550412-.363182.84375-.21875.146671.07222.270348.217473.375.46875.05812.139555.09889.309725.125.5h1.46875c.1385 0 .25-.1115.25-.25v-2.5c0-.1385-.1115-.25-.25-.25z" fill="url(#D)"/><path d="m64.25 42c-.1385 0-.25.1115-.25.25v2.5c0 .1385.1115.25.25.25h1.5c.02518-.207053.06401-.383265.125-.53125.10538-.255706.25936-.40196.40625-.46875.293781-.13357.598407.0075.8125.25.135161.15305.39367.25476.59375.15625.10004-.04926.19468-.148433.25-.28125.02766-.06641.04558-.147861.0625-.25v-.75c-.01692-.102139-.03484-.183591-.0625-.25-.05532-.132817-.14996-.231993-.25-.28125-.20008-.09851-.458589.0032-.59375.15625-.214093.242477-.518719.38357-.8125.25-.146897-.06679-.30087-.213044-.40625-.46875-.060987-.147985-.099822-.324197-.125-.53125z" fill="url(#C)"/><path d="m68.28125 36c-.02611.190275-.06688.360445-.125.5-.104652.251277-.228329.39653-.375.46875-.293338.144432-.625033.02896-.84375-.21875-.139784-.15832-.398039-.27648-.59375-.1875-.09786.04449-.19394.145215-.25.28125s-.09375.331718-.09375.65625.03769.520215.09375.65625.152145.236759.25.28125c.195711.08898.453966-.02918.59375-.1875.218717-.247713.550412-.363182.84375-.21875.146671.07222.270348.217473.375.46875.05812.139555.09889.309725.125.5h1.46875c.1385 0 .25-.1115.25-.25v-2.5c0-.1385-.1115-.25-.25-.25z" fill="url(#B)"/><path d="m64.25 38c-.1385 0-.25.1115-.25.25v2.5c0 .1385.1115.25.25.25h1.5c.02518-.207053.06401-.383265.125-.53125.10538-.255706.25936-.40196.40625-.46875.293781-.13357.598407.0075.8125.25.135161.15305.39367.25476.59375.15625.10004-.04926.19468-.148433.25-.28125.02766-.06641.04558-.147861.0625-.25v-.75c-.01692-.102139-.03484-.183591-.0625-.25-.05532-.132817-.14996-.231993-.25-.28125-.20008-.09851-.458589.0032-.59375.15625-.214093.242477-.518719.38357-.8125.25-.146897-.06679-.30087-.213044-.40625-.46875-.060987-.147985-.099822-.324197-.125-.53125z" fill="url(#A)"/><path d="m68.28125 32c-.02611.190275-.06688.360445-.125.5-.104652.251277-.228329.39653-.375.46875-.293338.144432-.625033.02896-.84375-.21875-.139784-.15832-.398039-.27648-.59375-.1875-.09786.04449-.19394.145215-.25.28125s-.09375.331718-.09375.65625.03769.520215.09375.65625.152145.236759.25.28125c.195711.08898.453966-.02918.59375-.1875.218717-.247713.550412-.363182.84375-.21875.146671.07222.270348.217473.375.46875.05812.139555.09889.309725.125.5h1.46875c.1385 0 .25-.1115.25-.25v-2.5c0-.1385-.1115-.25-.25-.25z" fill="url(#z)"/><path d="m64.25 34c-.1385 0-.25.1115-.25.25v2.5c0 .1385.1115.25.25.25h1.5c.02518-.207053.06401-.383265.125-.53125.10538-.255706.25936-.40196.40625-.46875.293781-.13357.598407.0075.8125.25.135161.15305.39367.25476.59375.15625.10004-.04926.19468-.148433.25-.28125.02766-.06641.04558-.147861.0625-.25v-.75c-.01692-.102139-.03484-.183591-.0625-.25-.05532-.132817-.14996-.231993-.25-.28125-.20008-.09851-.458589.0032-.59375.15625-.214093.242477-.518719.38357-.8125.25-.146897-.06679-.30087-.213044-.40625-.46875-.060987-.147985-.099822-.324197-.125-.53125z" fill="url(#y)"/><path d="m68.28125 28c-.02611.190275-.06688.360445-.125.5-.104652.251277-.228329.39653-.375.46875-.293338.144432-.625033.02896-.84375-.21875-.139784-.15832-.398039-.27648-.59375-.1875-.09786.04449-.19394.145215-.25.28125s-.09375.331718-.09375.65625.03769.520215.09375.65625.152145.236759.25.28125c.195711.08898.453966-.02918.59375-.1875.218717-.247713.550412-.363182.84375-.21875.146671.07222.270348.217473.375.46875.05812.139555.09889.309725.125.5h1.46875c.1385 0 .25-.1115.25-.25v-2.5c0-.1385-.1115-.25-.25-.25z" fill="url(#x)"/><path d="m64.25 30c-.1385 0-.25.1115-.25.25v2.5c0 .1385.1115.25.25.25h1.5c.02518-.207053.06401-.383265.125-.53125.10538-.255706.25936-.40196.40625-.46875.293781-.13357.598407.0075.8125.25.135161.15305.39367.25476.59375.15625.10004-.04926.19468-.148433.25-.28125.02766-.06641.04558-.147861.0625-.25v-.75c-.01692-.102139-.03484-.183591-.0625-.25-.05532-.132817-.14996-.231993-.25-.28125-.20008-.09851-.458589.0032-.59375.15625-.214093.242477-.518719.38357-.8125.25-.146897-.06679-.30087-.213044-.40625-.46875-.060987-.147985-.099822-.324197-.125-.53125z" fill="url(#w)"/><path d="m68.28125 24c-.02611.190275-.06688.360445-.125.5-.104652.251277-.228329.39653-.375.46875-.293338.144432-.625033.02896-.84375-.21875-.139784-.15832-.398039-.27648-.59375-.1875-.09786.04449-.19394.145215-.25.28125s-.09375.331718-.09375.65625.03769.520215.09375.65625.152145.236759.25.28125c.195711.08898.453966-.02918.59375-.1875.218717-.247713.550412-.363182.84375-.21875.146671.07222.270348.217473.375.46875.05812.139555.09889.309725.125.5h1.46875c.1385 0 .25-.1115.25-.25v-2.5c0-.1385-.1115-.25-.25-.25z" fill="url(#v)"/><path d="m64.25 26c-.1385 0-.25.1115-.25.25v2.5c0 .1385.1115.25.25.25h1.5c.02518-.207053.06401-.383265.125-.53125.10538-.255706.25936-.40196.40625-.46875.293781-.13357.598407.0075.8125.25.135161.15305.39367.25476.59375.15625.10004-.04926.19468-.148433.25-.28125.02766-.06641.04558-.147861.0625-.25v-.75c-.01692-.102139-.03484-.183591-.0625-.25-.05532-.132817-.14996-.231993-.25-.28125-.20008-.09851-.458589.0032-.59375.15625-.214093.242477-.518719.38357-.8125.25-.146897-.06679-.30087-.213044-.40625-.46875-.060987-.147985-.099822-.324197-.125-.53125z" fill="url(#u)"/><path d="m68.28125 20c-.02611.190275-.06688.360445-.125.5-.104652.251277-.228329.39653-.375.46875-.293338.144432-.625033.02896-.84375-.21875-.139784-.15832-.398039-.27648-.59375-.1875-.09786.04449-.19394.145215-.25.28125s-.09375.331718-.09375.65625.03769.520215.09375.65625.152145.236759.25.28125c.195711.08898.453966-.02918.59375-.1875.218717-.247713.550412-.363182.84375-.21875.146671.07222.270348.217473.375.46875.05812.139555.09889.309725.125.5h1.46875c.1385 0 .25-.1115.25-.25v-2.5c0-.1385-.1115-.25-.25-.25z" fill="url(#t)"/><path d="m64.25 22c-.1385 0-.25.1115-.25.25v2.5c0 .1385.1115.25.25.25h1.5c.02518-.207053.06401-.383265.125-.53125.10538-.255706.25936-.40196.40625-.46875.293781-.13357.598407.0075.8125.25.135161.15305.39367.25476.59375.15625.10004-.04926.19468-.148433.25-.28125.02766-.06641.04558-.147861.0625-.25v-.75c-.01692-.102139-.03484-.183591-.0625-.25-.05532-.132817-.14996-.231993-.25-.28125-.20008-.09851-.458589.0032-.59375.15625-.214093.242477-.518719.38357-.8125.25-.146897-.06679-.30087-.213044-.40625-.46875-.060987-.147985-.099822-.324197-.125-.53125z" fill="url(#s)"/><path d="m68.28125 16c-.02611.190275-.06688.360445-.125.5-.104652.251277-.228329.39653-.375.46875-.293338.144432-.625033.02896-.84375-.21875-.139784-.15832-.398039-.27648-.59375-.1875-.09786.04449-.19394.145215-.25.28125s-.09375.331718-.09375.65625.03769.520215.09375.65625.152145.236759.25.28125c.195711.08898.453966-.02918.59375-.1875.218717-.247713.550412-.363182.84375-.21875.146671.07222.270348.217473.375.46875.05812.139555.09889.309725.125.5h1.46875c.1385 0 .25-.1115.25-.25v-2.5c0-.1385-.1115-.25-.25-.25z" fill="url(#r)"/><path d="m64.25 18c-.1385 0-.25.1115-.25.25v2.5c0 .1385.1115.25.25.25h1.5c.02518-.207053.06401-.383265.125-.53125.10538-.255706.25936-.40196.40625-.46875.293781-.13357.598407.0075.8125.25.135161.15305.39367.25476.59375.15625.10004-.04926.19468-.148433.25-.28125.02766-.06641.04558-.147861.0625-.25v-.75c-.01692-.102139-.03484-.183591-.0625-.25-.05532-.132817-.14996-.231993-.25-.28125-.20008-.09851-.458589.0032-.59375.15625-.214093.242477-.518719.38357-.8125.25-.146897-.06679-.30087-.213044-.40625-.46875-.060987-.147985-.099822-.324197-.125-.53125z" fill="url(#q)"/><path d="m68.28125 12c-.02611.190275-.06688.360445-.125.5-.104652.251277-.228329.39653-.375.46875-.293338.144432-.625033.02896-.84375-.21875-.139784-.15832-.398039-.27648-.59375-.1875-.09786.04449-.19394.145215-.25.28125s-.09375.331718-.09375.65625.03769.520215.09375.65625.152145.236759.25.28125c.195711.08898.453966-.02918.59375-.1875.218717-.247713.550412-.363182.84375-.21875.146671.07222.270348.217473.375.46875.05812.139555.09889.309725.125.5h1.46875c.1385 0 .25-.1115.25-.25v-2.5c0-.1385-.1115-.25-.25-.25z" fill="url(#p)"/><path d="m64.25 14c-.1385 0-.25.1115-.25.25v2.5c0 .1385.1115.25.25.25h1.5c.02518-.207053.06401-.383265.125-.53125.10538-.255706.25936-.40196.40625-.46875.293781-.13357.598407.0075.8125.25.135161.15305.39367.25476.59375.15625.10004-.04926.19468-.148433.25-.28125.02766-.06641.04558-.147861.0625-.25v-.75c-.01692-.102139-.03484-.183591-.0625-.25-.05532-.132817-.14996-.231993-.25-.28125-.20008-.09851-.458589.0032-.59375.15625-.214093.242477-.518719.38357-.8125.25-.146897-.06679-.30087-.213044-.40625-.46875-.060987-.147985-.099822-.324197-.125-.53125z" fill="url(#o)"/><path d="m64.25 10c-.1385 0-.25.1115-.25.25v2.5c0 .1385.1115.25.25.25h1.5c.02518-.207053.06401-.383265.125-.53125.10538-.255706.25936-.40196.40625-.46875.293781-.13357.598407.0075.8125.25.135161.15305.39367.25476.59375.15625.10004-.04926.19468-.148433.25-.28125.02766-.06641.04558-.147861.0625-.25v-.75c-.01692-.102139-.03484-.183591-.0625-.25-.05532-.132817-.14996-.231993-.25-.28125-.20008-.09851-.458589.0032-.59375.15625-.214093.242477-.518719.38357-.8125.25-.146897-.06679-.30087-.213044-.40625-.46875-.060987-.147985-.099822-.324197-.125-.53125z" fill="url(#n)"/><path d="m68.28125 8c-.02611.190275-.06688.360445-.125.5-.104652.251277-.228329.39653-.375.46875-.293338.144432-.625033.02896-.84375-.21875-.139784-.15832-.398039-.27648-.59375-.1875-.09786.04449-.19394.145215-.25.28125s-.09375.331718-.09375.65625.03769.520215.09375.65625.152145.236759.25.28125c.195711.08898.453966-.02918.59375-.1875.218717-.247713.550412-.363182.84375-.21875.146671.07222.270348.217473.375.46875.05812.139555.09889.309725.125.5h1.46875c.1385 0 .25-.1115.25-.25v-2.5c0-.1385-.1115-.25-.25-.25z" fill="url(#O)"/></g><path d="m64 8h6v5h-6z" fill="url(#R)" opacity=".5"/><rect fill="url(#P)" height="4" rx=".5" stroke="#000" stroke-opacity=".519802" stroke-width=".5" width="2" x="64" y="6"/><path d="m64 64h6v1h-6z" opacity=".5"/><rect fill="url(#Q)" height="4" rx=".5" stroke="#000" stroke-opacity=".519802" stroke-width=".5" width="2" x="68" y="6"/><g transform="translate(0 20)"><path d="m67-12.5c-1.160024 0-2.303714.261233-3.21875.71875-.461543.230771-.834351.498857-1.15625.84375-.334964.35889-.625.857435-.625 1.4375v3c-.000019-.000854.00006.063352 0 .0625-.00006-.0008521.000101.032098 0 .03125-.000101-.0008482.000141.063343 0 .0625-.000141-.0008425.03143.063335.03125.0625-.000181-.0008348.00022.032075 0 .03125-.00022-.0008253.00026.063314 0 .0625-.00026-.0008138.03155.032051.03125.03125-.000298-.0008005.03159.032035.03125.03125-.000336-.0007854.000373.063269 0 .0625-.000373-.0007685.03166.032.03125.03125-.000409-.0007499.03169.06323.03125.0625-.000444-.0007295.000479.031957 0 .03125-.000479-.0007075.03176.031934.03125.03125-.000512-.0006839.03179.031909.03125.03125-.000544-.0006588.03182.031882.03125.03125-.000575-.0006321.03185.063104.03125.0625-.000604-.000604.06313.031824.0625.03125-.000632-.0005745.03191.031794.03125.03125-.000659-.0005438.03193.031762.03125.03125-.000684-.0005118.03196.031729.03125.03125-.000708-.0004786.03198.0004443.03125 0s.06325.031659.0625.03125c-.00075-.0004091.03202.031623.03125.03125-.000769-.0003729.06329.0003358.0625 0-.000785-.0003358.03205.031548.03125.03125-.000801-.000298.03206.03151.03125.03125-.000814-.0002595.06332.0002205.0625 0-.000825-.0002205.03209.0001809.03125 0-.000835-.0001809.06334.031391.0625.03125-.000842-.0001409.06335.0001006.0625 0-.000848-.0001006.0321.0000601.03125 0-.000852-.0000601.06335.0000194.0625 0 .04274 0 .250619.086712.53125.4375.273039.3412984.555617.873419.78125 1.4375.456366 1.140916.6875 2.3125.6875 2.3125a.5335874.5335874 0 0 0 0 .03125c-.000165-.0007387.03145.031981.03125.03125-.000196-.0007311.000227.031972 0 .03125-.000227-.0007221.000257.063212 0 .0625-.000257-.0007119.03154.03195.03125.03125-.000287-.0007004.03157.031938.03125.03125-.000317-.0006877.000345.031924 0 .03125-.000345-.0006737.03162.0631585.03125.0625-.000373-.0006585.000401.0318921 0 .03125-.000401-.00064214.03168.0318746.03125.03125-.000428-.00062463.0317.031856.03125.03125-.000454-.00060601.03173.0318363.03125.03125-.000479-.00058632.03175.0318156.03125.03125-.000503-.00056557.03178.0317938.03125.03125-.000527-.00054382.0318.0317711.03125.03125-.000549-.00052109.03182.0317474.03125.03125-.000571-.00049744.03184.0317229.03125.03125-.000591-.0004729.03186.0316975.03125.03125-.000611-.00044751.03188.0316713.03125.03125-.000629-.00042133.0319.00039439.03125 0-.000646-.00039439.03191.0316167.03125.03125-.000662-.00036675.03193.0315885.03125.03125-.000677-.00033846.06319.00030956.0625 0-.000691-.00030956.03195.0315301.03125.03125-.000703-.00028011.03196.00025016.03125 0-.000714-.00025016.06322.0314698.0625.03125-.000724-.00021976.03198.00018897.03125 0-.000733-.00018897.03199.00015785.03125 0s.06325.0313764.0625.03125c-.000746-.00012644.032.00009481.03125 0-.000751-.00009481.032.00006301.03125 0-.000754-.00006301.06326.00003109.0625 0-.000756-.00003109.03201-.00000088.03125 0h2c-.000757-.00000088.03201-.00003109.03125 0-.000756.00003109.06325-.00006301.0625 0-.000754.00006301.032-.00009481.03125 0-.000751.00009481.032-.00012644.03125 0-.000746.00012644.06324-.0314079.0625-.03125-.00074.00015785.03198-.00018897.03125 0-.000733.00018897.03197-.00021976.03125 0-.000724.00021976.06321-.0315002.0625-.03125-.000714.00025016.03195-.00028011.03125 0-.000703.00028011.03194-.0315596.03125-.03125-.000691.00030956.06318-.00033846.0625 0-.000677.00033846.03191-.0316167.03125-.03125-.000662.00036675.0319-.0316444.03125-.03125-.000646.00039439.03188-.00042133.03125 0-.000629.00042133.03186-.0316975.03125-.03125-.000611.00044751.03184-.0317229.03125-.03125-.000591.0004729.03182-.0317474.03125-.03125-.000571.00049744.0318-.0317711.03125-.03125-.000549.00052109.03178-.0317938.03125-.03125-.000527.00054382.03175-.0318156.03125-.03125-.000503.00056557.03173-.0318363.03125-.03125-.000479.00058632.0317-.031856.03125-.03125-.000454.00060601.03168-.0318746.03125-.03125-.000428.00062463.03165-.0318921.03125-.03125-.000401.00064214.000373-.0319085 0-.03125-.000373.00065849.03159-.063174.03125-.0625-.000345.0006737.000317-.031938 0-.03125-.000317.0006877.03154-.03195.03125-.03125-.000287.0007004.03151-.031962.03125-.03125-.000257.0007119.000227-.063222 0-.0625-.000227.0007221.000196-.031981 0-.03125-.000196.0007311.03141-.031989.03125-.03125a.5335874.5335874 0 0 0 0-.03125s.231134-1.171584.6875-2.3125c.225633-.564081.508211-1.0962016.78125-1.4375.280631-.3507884.488511-.4375.53125-.4375-.000854.0000194.06335-.0000601.0625 0-.000852.0000601.0321-.0001006.03125 0-.000848.0001006.06334-.0001409.0625 0-.000842.0001409.06333-.031431.0625-.03125-.000835.0001809.03208-.0002205.03125 0-.000825.0002205.06331-.0002595.0625 0-.000814.0002595.03205-.031548.03125-.03125-.000801.000298.03203-.031586.03125-.03125-.000785.0003358.06327-.0003729.0625 0-.000769.0003729.032-.031659.03125-.03125-.00075.0004091.06323-.031694.0625-.03125-.00073.0004443.03196-.0004786.03125 0-.000708.0004786.03193-.031762.03125-.03125-.000684.0005118.03191-.031794.03125-.03125-.000659.0005438.03188-.031824.03125-.03125-.000632.0005745.0631-.031854.0625-.03125-.000604.000604.03182-.063132.03125-.0625-.000575.0006321.03179-.031909.03125-.03125-.000544.0006588.03176-.031934.03125-.03125-.000512.0006839.03173-.031957.03125-.03125-.000479.0007075.000444-.03198 0-.03125-.000444.0007295.03166-.06325.03125-.0625-.000409.0007499.03162-.032019.03125-.03125-.000373.0007685.000336-.063285 0-.0625-.000336.0007854.03155-.032051.03125-.03125-.000298.0008005.03151-.032064.03125-.03125-.00026.0008138.00022-.063325 0-.0625-.00022.0008253.000181-.032085 0-.03125-.000181.0008348.03139-.063343.03125-.0625-.000141.0008425.000101-.063348 0-.0625-.000101.0008482.00006-.032102 0-.03125-.00006.0008521.000019-.063354 0-.0625v-3c0-.580065-.290036-1.07861-.625-1.4375-.321899-.344893-.694707-.612979-1.15625-.84375-.915036-.457517-2.058726-.71875-3.21875-.71875z" opacity=".2"/><path d="m67-11.96875c-1.079954 0-2.142469.24311-2.96875.65625-.41314.20657-.758594.457868-1.03125.75s-.46875.6525912-.46875 1.0625v3a.47977432.47977432 0 0 0 .46875.46875c.300114 0 .611229.2171611.9375.625s.635239.9943485.875 1.59375c.479521 1.1988029.71875 2.40625.71875 2.40625a.47977432.47977432 0 0 0 .46875.375h2a.47977432.47977432 0 0 0 .46875-.375s.239229-1.2074471.71875-2.40625c.239761-.5994015.548729-1.1859111.875-1.59375s.637386-.625.9375-.625a.47977432.47977432 0 0 0 .46875-.46875v-3c0-.4099088-.196094-.770368-.46875-1.0625s-.61811-.54343-1.03125-.75c-.826281-.41314-1.888796-.65625-2.96875-.65625z" opacity=".3"/><path d="m67-11.5c-2 0-4 1-4 2v3c2 0 3 5 3 5h2s1-5 3-5v-3c0-1-2-2-4-2z" opacity=".5"/><path d="m67-12c-2 0-4 1-4 2v3c2 0 3 5 3 5h2s1-5 3-5v-3c0-1-2-2-4-2z" fill="url(#V)"/><path d="m67-12c-2 0-4 1-4 2v1c0-1 2-2 4-2s4 1 4 2v-1c0-1-2-2-4-2z" fill="#fff" opacity=".5"/></g><g transform="translate(0 23)"><path d="m65.21875-11.5c-1.155312 0-2.21875.860678-2.21875 2.0625v11.84375c.000044 1.1960469 1.040779 2.09375 2.21875 2.09375h3.5625c1.177964 0 2.21875-.8976673 2.21875-2.09375v-11.84375c0-1.201823-1.06344-2.0625-2.21875-2.0625zm.71875 10.96875h2.0625v1.125h-2.0625z" opacity=".2"/><path d="m65.21875-11c-.910815 0-1.71875.662438-1.71875 1.5625v11.84375c.000033.900041.792569 1.59375 1.71875 1.59375h3.5625c.926182 0 1.71875-.6936877 1.71875-1.59375v-11.84375c0-.900063-.807937-1.5625-1.71875-1.5625zm.21875 9.96875h3.0625v2.125h-3.0625z" opacity=".3"/><path d="m65.212435-10.5c-.683578 0-1.212435.464289-1.212435 1.064718v11.8392486c.000022.6004299.528859 1.0960334 1.212435 1.0960334h3.57513c.683578 0 1.212435-.4956035 1.212435-1.0960334v-11.8392486c0-.600429-.528859-1.064718-1.212435-1.064718zm-.279793 8.9582463h4.072539v3.1315241h-4.072539z" opacity=".5"/><path d="m68.787565-11c.683578 0 1.212435.464289 1.212435 1.0647182v11.8392484c-.000022.6004299-.528859 1.0960334-1.212435 1.0960334h-3.57513c-.683578 0-1.212435-.4956035-1.212435-1.0960334v-11.8392484c0-.6004292.528859-1.0647182 1.212435-1.0647182zm.279793 8.9582463h-4.072539v3.1315241h4.072539z" fill="url(#S)"/><path d="m68.78125-11c.683576 0 1.21875.462071 1.21875 1.0625v11.84375c0 .6004299-.535172 1.09375-1.21875 1.09375h-3.5625c-.683576 0-1.218728-.4933201-1.21875-1.09375v-11.84375c0-.600429.535172-1.0625 1.21875-1.0625zm.03125 1h-3.625c-.1108 0-.1875.0767-.1875.1875v7.78125h-.0625v3.125h.0625v.71875c0 .1108.0767.1875.1875.1875h3.625c.1108 0 .1875-.0767.1875-.1875v-.71875-3.125-7.78125c0-.1108-.0767-.1875-.1875-.1875z" fill="url(#T)"/></g><rect fill="url(#U)" height="6" rx=".563135" ry=".5" stroke="#000" stroke-linecap="square" stroke-opacity=".440594" stroke-width=".5" width="3" x="65.5" y="9"/><path d="m23.34375 80c-.999135.000014-1.848922.217621-2.53125.65625-.682335.426471-1.241979.973929-1.65625 1.65625-.414274.670159-.692233 1.440529-.875 2.28125-.182768.84074-.281251 1.652395-.28125 2.46875-.000001.82855.0863 1.671458.28125 2.5.194952.816366.530107 1.560789.96875 2.21875.43864.657966.99298 1.179477 1.6875 1.59375.694513.414273 1.5443.624999 2.53125.625.49956-.000001.955416-.112244 1.40625-.34375.463003-.21932.929468-.443809 1.34375-.6875v.8125h1.71875v-6.96875h-4.8125v1.6875h3.0625v2.46875c-.170591.18277-.374438.353788-.59375.5-.219329.146216-.462883.265341-.71875.375-.243698.109662-.481948.189079-.75.25-.255881.06092-.506316.09375-.75.09375-.694522.000001-1.286993-.164135-1.75-.46875-.463015-.316795-.81351-.719182-1.09375-1.21875-.268063-.499559-.471907-1.066086-.59375-1.6875-.109663-.621403-.156252-1.222334-.15625-1.84375-.000001-.621404.04659-1.253582.15625-1.875.121843-.6214.325688-1.187926.59375-1.6875.280239-.511739.64292-.914127 1.09375-1.21875.463008-.316785 1.024228-.468738 1.71875-.46875.438636.00001.820381.07255 1.125.21875.31679.134042.593171.325702.8125.59375.231497.26807.416278.591041.5625.96875.15839.377732.296581.806063.40625 1.28125l1.53125-.53125c-.134041-.633587-.299754-1.194805-.53125-1.71875-.219331-.523923-.509474-.997268-.875-1.375-.353359-.377706-.781693-.648785-1.28125-.84375-.499572-.207121-1.079859-.312486-1.75-.3125zm7.25 0v1.78125h5.78125c-.182773.251583-.360673.529689-.53125.78125-.158405.251584-.329423.485861-.5.75l-5.34375 8.71875v1.96875h8.5625v-1.84375h-6.59375c.377718-.540878.785409-1.102395 1.1875-1.71875.402084-.61635.797592-1.233486 1.1875-1.875.402084-.641503.797591-1.295985 1.1875-1.9375.3899-.641504.740393-1.265126 1.09375-1.84375.353344-.578608.676315-1.103173.96875-1.59375.304604-.503134.561921-.929036.78125-1.28125v-1.90625z" fill="none" opacity=".1" stroke="#fff" stroke-width="6" transform="translate(0 -24)"/><path clip-path="url(#W)" d="m23.34375 80c-.999135.000014-1.848922.217621-2.53125.65625-.682335.426471-1.241979.973929-1.65625 1.65625-.414274.670159-.692233 1.440529-.875 2.28125-.182768.84074-.281251 1.652395-.28125 2.46875-.000001.82855.0863 1.671458.28125 2.5.194952.816366.530107 1.560789.96875 2.21875.43864.657966.99298 1.179477 1.6875 1.59375.694513.414273 1.5443.624999 2.53125.625.49956-.000001.955416-.112244 1.40625-.34375.463003-.21932.929468-.443809 1.34375-.6875v.8125h1.71875v-6.96875h-4.8125v1.6875h3.0625v2.46875c-.170591.18277-.374438.353788-.59375.5-.219329.146216-.462883.265341-.71875.375-.243698.109662-.481948.189079-.75.25-.255881.06092-.506316.09375-.75.09375-.694522.000001-1.286993-.164135-1.75-.46875-.463015-.316795-.81351-.719182-1.09375-1.21875-.268063-.499559-.471907-1.066086-.59375-1.6875-.109663-.621403-.156252-1.222334-.15625-1.84375-.000001-.621404.04659-1.253582.15625-1.875.121843-.6214.325688-1.187926.59375-1.6875.280239-.511739.64292-.914127 1.09375-1.21875.463008-.316785 1.024228-.468738 1.71875-.46875.438636.00001.820381.07255 1.125.21875.31679.134042.593171.325702.8125.59375.231497.26807.416278.591041.5625.96875.15839.377732.296581.806063.40625 1.28125l1.53125-.53125c-.134041-.633587-.299754-1.194805-.53125-1.71875-.219331-.523923-.509474-.997268-.875-1.375-.353359-.377706-.781693-.648785-1.28125-.84375-.499572-.207121-1.079859-.312486-1.75-.3125zm7.25 0v1.78125h5.78125c-.182773.251583-.360673.529689-.53125.78125-.158405.251584-.329423.485861-.5.75l-5.34375 8.71875v1.96875h8.5625v-1.84375h-6.59375c.377718-.540878.785409-1.102395 1.1875-1.71875.402084-.61635.797592-1.233486 1.1875-1.875.402084-.641503.797591-1.295985 1.1875-1.9375.3899-.641504.740393-1.265126 1.09375-1.84375.353344-.578608.676315-1.103173.96875-1.59375.304604-.503134.561921-.929036.78125-1.28125v-1.90625z" fill="none" opacity=".15" stroke="#fff" stroke-width="4" transform="translate(0 -24)"/><path clip-path="url(#W)" d="m23.34375 80c-.999135.000014-1.848922.217621-2.53125.65625-.682335.426471-1.241979.973929-1.65625 1.65625-.414274.670159-.692233 1.440529-.875 2.28125-.182768.84074-.281251 1.652395-.28125 2.46875-.000001.82855.0863 1.671458.28125 2.5.194952.816366.530107 1.560789.96875 2.21875.43864.657966.99298 1.179477 1.6875 1.59375.694513.414273 1.5443.624999 2.53125.625.49956-.000001.955416-.112244 1.40625-.34375.463003-.21932.929468-.443809 1.34375-.6875v.8125h1.71875v-6.96875h-4.8125v1.6875h3.0625v2.46875c-.170591.18277-.374438.353788-.59375.5-.219329.146216-.462883.265341-.71875.375-.243698.109662-.481948.189079-.75.25-.255881.06092-.506316.09375-.75.09375-.694522.000001-1.286993-.164135-1.75-.46875-.463015-.316795-.81351-.719182-1.09375-1.21875-.268063-.499559-.471907-1.066086-.59375-1.6875-.109663-.621403-.156252-1.222334-.15625-1.84375-.000001-.621404.04659-1.253582.15625-1.875.121843-.6214.325688-1.187926.59375-1.6875.280239-.511739.64292-.914127 1.09375-1.21875.463008-.316785 1.024228-.468738 1.71875-.46875.438636.00001.820381.07255 1.125.21875.31679.134042.593171.325702.8125.59375.231497.26807.416278.591041.5625.96875.15839.377732.296581.806063.40625 1.28125l1.53125-.53125c-.134041-.633587-.299754-1.194805-.53125-1.71875-.219331-.523923-.509474-.997268-.875-1.375-.353359-.377706-.781693-.648785-1.28125-.84375-.499572-.207121-1.079859-.312486-1.75-.3125zm7.25 0v1.78125h5.78125c-.182773.251583-.360673.529689-.53125.78125-.158405.251584-.329423.485861-.5.75l-5.34375 8.71875v1.96875h8.5625v-1.84375h-6.59375c.377718-.540878.785409-1.102395 1.1875-1.71875.402084-.61635.797592-1.233486 1.1875-1.875.402084-.641503.797591-1.295985 1.1875-1.9375.3899-.641504.740393-1.265126 1.09375-1.84375.353344-.578608.676315-1.103173.96875-1.59375.304604-.503134.561921-.929036.78125-1.28125v-1.90625z" fill="none" opacity=".3" stroke="#fff" stroke-width="2" transform="translate(0 -24)"/><path d="m23.34375 56c-.999135.000014-1.848922.217621-2.53125.65625-.682335.426471-1.241979.973929-1.65625 1.65625-.414274.670159-.692233 1.440529-.875 2.28125-.182768.84074-.281251 1.652395-.28125 2.46875-.000001.82855.0863 1.671458.28125 2.5.194952.816366.530107 1.560789.96875 2.21875.43864.657966.99298 1.179477 1.6875 1.59375.694513.414273 1.5443.624999 2.53125.625.49956-.000001.955416-.112244 1.40625-.34375.463003-.21932.929468-.443809 1.34375-.6875v.8125h1.71875v-6.96875h-4.8125v1.6875h3.0625v2.46875c-.170591.18277-.374438.353788-.59375.5-.219329.146216-.462883.265341-.71875.375-.243698.109662-.481948.189079-.75.25-.255881.06092-.506316.09375-.75.09375-.694522.000001-1.286993-.164135-1.75-.46875-.463015-.316795-.81351-.719182-1.09375-1.21875-.268063-.499559-.471907-1.066086-.59375-1.6875-.109663-.621403-.156252-1.222334-.15625-1.84375-.000001-.621404.04659-1.253582.15625-1.875.121843-.6214.325688-1.187926.59375-1.6875.280239-.511739.64292-.914127 1.09375-1.21875.463008-.316785 1.024228-.468738 1.71875-.46875.438636.00001.820381.07255 1.125.21875.31679.134042.593171.325702.8125.59375.231497.26807.416278.591041.5625.96875.15839.377732.296581.806063.40625 1.28125l1.53125-.53125c-.134041-.633587-.299754-1.194805-.53125-1.71875-.219331-.523923-.509474-.997268-.875-1.375-.353359-.377706-.781693-.648785-1.28125-.84375-.499572-.207121-1.079859-.312486-1.75-.3125zm7.25 0v1.78125h5.78125c-.182773.251583-.360673.529689-.53125.78125-.158405.251584-.329423.485861-.5.75l-5.34375 8.71875v1.96875h8.5625v-1.84375h-6.59375c.377718-.540878.785409-1.102395 1.1875-1.71875.402084-.61635.797592-1.233486 1.1875-1.875.402084-.641503.797591-1.295985 1.1875-1.9375.3899-.641504.740393-1.265126 1.09375-1.84375.353344-.578608.676315-1.103173.96875-1.59375.304604-.503134.561921-.929036.78125-1.28125v-1.90625z" fill="#333"/><path d="m23.34375 56c-.999135.000014-1.848922.217621-2.53125.65625-.682335.426471-1.241979.973929-1.65625 1.65625-.414274.670159-.692233 1.440529-.875 2.28125-.182768.84074-.281251 1.652395-.28125 2.46875 0 .165813.02416.333267.03125.5.03165-.648399.104744-1.300568.25-1.96875.182767-.840721.460726-1.611091.875-2.28125.414271-.682321.973915-1.229779 1.65625-1.65625.682328-.438629 1.532115-.656236 2.53125-.65625.670141.000014 1.250428.105379 1.75.3125.499557.194965.927891.466044 1.28125.84375.365526.377732.655669.851077.875 1.375.11187.253195.227505.506686.3125.78125l.21875-.0625c-.134041-.633587-.299754-1.194805-.53125-1.71875-.219331-.523923-.509474-.997268-.875-1.375-.353359-.377706-.781693-.648785-1.28125-.84375-.499572-.207121-1.079859-.312486-1.75-.3125zm7.25 0v1h7.78125v-1zm5.09375 2.78125c-.115652.172292-.224018.345845-.34375.53125l-5.34375 8.71875v1l5.34375-8.71875c.170577-.264139.341595-.498416.5-.75.170577-.251561.348477-.529667.53125-.78125zm-12.5625 4.03125v1h4.8125v-1zm-3.3125.65625c-.007.166994-.03125.334131-.03125.5-.000002.621416.04659 1.222347.15625 1.84375.121843.621414.325687 1.187941.59375 1.6875.28024.499568.630735.901955 1.09375 1.21875.463007.304615 1.055478.468751 1.75.46875.243684.000002.494119-.03283.75-.09375.268052-.06092.506302-.140338.75-.25.255867-.109659.499421-.228784.71875-.375.219312-.146212.423159-.31723.59375-.5v-1c-.170591.18277-.374438.353788-.59375.5-.219329.146216-.462883.265341-.71875.375-.243698.109662-.481948.189079-.75.25-.255881.06092-.506316.09375-.75.09375-.694522.000001-1.286993-.164135-1.75-.46875-.463015-.316795-.81351-.719182-1.09375-1.21875-.268063-.499559-.471907-1.066086-.59375-1.6875-.08039-.455535-.105907-.894083-.125-1.34375zm12.84375 4.6875c-.232668.334823-.468087.685809-.6875 1h6.59375v-1z" opacity=".4"/></svg>