<svg xmlns="http://www.w3.org/2000/svg" shape-rendering="geometricPrecision" text-rendering="geometricPrecision" image-rendering="optimizeQuality" fill-rule="evenodd" clip-rule="evenodd" viewBox="0 0 421 511.605"><path fill="#E44B4D" d="M95.705.014h199.094L421 136.548v317.555c0 31.54-25.961 57.502-57.502 57.502H95.705c-31.55 0-57.502-25.873-57.502-57.502V57.515C38.203 25.886 64.076.014 95.705.014z"/><path fill="#CD4445" d="M341.028 133.408h-.019L421 188.771v-52.066h-54.357c-9.458-.15-17.998-1.274-25.615-3.297z"/><path fill="#FBCFD0" d="M294.8 0L421 136.533v.172h-54.357c-45.068-.718-69.33-23.397-71.843-61.384V0z"/><path fill="#CD4445" fill-rule="nonzero" d="M0 431.901V253.404l.028-1.261c.668-16.446 14.333-29.706 30.936-29.706h7.238v50.589h342.975c12.862 0 23.373 10.51 23.373 23.371v135.504c0 12.83-10.543 23.373-23.373 23.373H23.373C10.541 455.274 0 444.75 0 431.901z"/><path fill="#963232" fill-rule="nonzero" d="M143.448 240.364a8.496 8.496 0 01-8.496-8.497 8.496 8.496 0 018.496-8.497h163.176a8.496 8.496 0 018.496 8.497 8.496 8.496 0 01-8.496 8.497H143.448zm0-59.176a8.496 8.496 0 010-16.993h172.304a8.496 8.496 0 110 16.993H143.448z"/><path fill="#fff" fill-rule="nonzero" d="M11.329 276.171v154.728c0 7.793 6.38 14.178 14.179 14.178H380.175c7.799 0 14.178-6.379 14.178-14.178V297.405c0-7.798-6.388-14.178-14.178-14.178H37.892c-12.618-.096-19.586-1.638-26.563-7.056z"/><path fill="#1A1A1A" fill-rule="nonzero" d="M146.829 401.572H94.415v-81.894h26.206v60.93h26.208v20.964zm7.205-40.88c0-14.939 2.796-25.835 8.386-32.692 5.592-6.857 15.681-10.287 30.269-10.287 14.587 0 24.677 3.43 30.266 10.287 5.592 6.857 8.388 17.753 8.388 32.692 0 7.424-.591 13.671-1.771 18.736-1.177 5.067-3.209 9.477-6.093 13.234-2.881 3.758-6.856 6.508-11.922 8.255-5.067 1.747-11.356 2.621-18.868 2.621-7.512 0-13.802-.874-18.869-2.621-5.066-1.747-9.041-4.497-11.925-8.255-2.881-3.757-4.913-8.167-6.092-13.234-1.178-5.065-1.769-11.312-1.769-18.736zm28.171-13.629v34.069h10.878c3.579 0 6.178-.415 7.794-1.246 1.617-.828 2.426-2.729 2.426-5.699v-34.068h-11.008c-3.494 0-6.048.415-7.664 1.245-1.617.829-2.426 2.73-2.426 5.699zm104.169 30.4v-3.537h-6.682v-20.048h31.577v43.764c-10.393 3.93-21.138 5.896-32.231 5.896-14.939 0-25.202-3.625-30.794-10.876-2.881-3.757-4.891-8.167-6.026-13.234-1.137-5.065-1.704-11.333-1.704-18.803 0-7.469.591-13.713 1.768-18.736 1.18-5.024 3.299-9.413 6.356-13.17 5.765-7.337 16.902-11.006 33.412-11.006 3.408 0 7.841.349 13.3 1.049 5.459.698 9.456 1.484 11.989 2.359l-3.931 20.047c-7.075-1.223-13.474-1.835-19.196-1.835-5.721 0-9.738.437-12.055 1.31-2.314.874-3.472 2.62-3.472 5.241v37.083h8.649c3.144 0 5.437-.328 6.878-.983 1.443-.655 2.162-2.162 2.162-4.521z"/></svg>