<svg viewBox="0 0 96 39" fill="none" xmlns="http://www.w3.org/2000/svg"><title>Logo</title><path d="M15.7376 11.4588C14.258 9.683 12.0049 8.57733 9.21387 8.57733C3.63175 8.54382 0 12.4974 0 17.6572V29.4845H1.71499C2.89195 29.4175 5.1786 28.8479 5.24585 25.4639V17.5567C5.24585 15.2449 6.85996 13.6701 9.21387 13.6701C12.6775 13.6701 13.0474 16.4175 13.0474 17.5567V29.4845H14.7624C15.9057 29.4175 18.1924 28.8479 18.2932 25.4974V17.5567C18.2932 15.2449 19.9746 13.6701 22.2613 13.6701C25.7249 13.6701 26.1284 16.4175 26.1284 17.5567V29.4845H27.8434C29.0203 29.4175 31.3406 28.8479 31.3742 25.3969V17.6572C31.3742 12.2964 27.9779 8.54382 22.2613 8.54382C19.6047 8.54382 17.2844 9.683 15.7376 11.4588Z" fill="#b81c55"></path><path d="M46.5065 11.3248L42.1014 23.5206L37.2927 10.8892C36.5529 8.87888 34.6697 9.0129 34.6697 9.0129H30.5672L38.705 28.8479C38.705 28.8144 38.705 28.8144 38.6714 28.7809C38.6714 28.7809 38.6714 28.8144 38.705 28.8479C38.705 28.8815 38.7386 28.915 38.7386 28.915L38.705 28.8144C38.974 29.6186 38.9068 30.0541 38.6377 30.8583L38.4696 31.3608C37.528 33.7062 36.183 34.3428 33.3583 34.1753V34.2088L35.3086 39C38.9404 38.933 41.6978 37.7268 43.5137 33.2036L53.2992 9.0129H49.6339C49.4657 9.0129 47.3808 9.07991 46.5065 11.3248Z" fill="#b81c55"></path><path d="M57.2 19.3325C57.2 15.8144 59.453 13.3351 62.2441 13.3351C65.0352 13.3351 67.2882 15.7809 67.2882 19.3325C67.2882 22.7835 65.0352 25.1624 62.2441 25.1624C59.453 25.1624 57.2 22.7835 57.2 19.3325ZM51.9542 19.299C51.9542 25.3969 56.5611 29.9536 62.2441 29.9536C67.9271 29.9536 72.5677 25.3969 72.5677 19.299C72.5677 13.201 67.9271 8.57733 62.2441 8.57733C56.5611 8.54382 51.9542 13.201 51.9542 19.299Z" fill="#b81c55"></path><path d="M79.5621 19.3325C79.5621 16.0825 81.916 13.4691 84.808 13.4691C87.6999 13.4691 90.0538 16.0155 90.0538 19.3325C90.0538 22.5825 87.6999 25.0619 84.808 25.0619C81.916 25.0954 79.5621 22.5155 79.5621 19.3325ZM78.4861 0C74.9216 0 74.3499 2.41237 74.2827 3.55155V29.4845H76.8047C78.8223 29.518 79.2931 28.2448 79.3267 27.5077V27.4072V27.3067C80.9072 28.982 83.093 29.9201 85.5814 29.9201C90.9618 29.9201 95.3333 25.3299 95.3333 19.299C95.3333 13.2345 90.9618 8.64433 85.5814 8.64433C83.2275 8.64433 81.1426 9.51546 79.5621 11.0232V0H78.4861Z" fill="#b81c55"></path><defs><linearGradient id="paint0_linear" x1="0" y1="19.5028" x2="95.3214" y2="19.5028" gradientUnits="userSpaceOnUse"><stop offset="0.36" stop-color="#6100A5"></stop><stop offset="0.4557" stop-color="#7001A0"></stop><stop offset="0.6409" stop-color="#980293"></stop><stop offset="0.8947" stop-color="#D9057E"></stop><stop offset="0.97" stop-color="#ED0677"></stop></linearGradient><linearGradient id="paint1_linear" x1="1.19127e-05" y1="19.5028" x2="95.3214" y2="19.5028" gradientUnits="userSpaceOnUse"><stop offset="0.36" stop-color="#6100A5"></stop><stop offset="0.4557" stop-color="#7001A0"></stop><stop offset="0.6409" stop-color="#980293"></stop><stop offset="0.8947" stop-color="#D9057E"></stop><stop offset="0.97" stop-color="#ED0677"></stop></linearGradient><linearGradient id="paint2_linear" x1="1.75706e-05" y1="19.5028" x2="95.3214" y2="19.5028" gradientUnits="userSpaceOnUse"><stop offset="0.36" stop-color="#6100A5"></stop><stop offset="0.4557" stop-color="#7001A0"></stop><stop offset="0.6409" stop-color="#980293"></stop><stop offset="0.8947" stop-color="#D9057E"></stop><stop offset="0.97" stop-color="#ED0677"></stop></linearGradient><linearGradient id="paint3_linear" x1="2.7434e-05" y1="19.5028" x2="95.3214" y2="19.5028" gradientUnits="userSpaceOnUse"><stop offset="0.36" stop-color="#6100A5"></stop><stop offset="0.4557" stop-color="#7001A0"></stop><stop offset="0.6409" stop-color="#980293"></stop><stop offset="0.8947" stop-color="#D9057E"></stop><stop offset="0.97" stop-color="#ED0677"></stop></linearGradient></defs></svg>