<?xml version="1.0" encoding="utf-8"?>
<!-- Generator: Adobe Illustrator 25.3.1, SVG Export Plug-In . SVG Version: 6.00 Build 0)  -->
<svg version="1.1"
	 id="PSD_Icon" sodipodi:docname="PDF file icon.svg" xmlns:cc="http://creativecommons.org/ns#" xmlns:dc="http://purl.org/dc/elements/1.1/" xmlns:inkscape="http://www.inkscape.org/namespaces/inkscape" xmlns:rdf="http://www.w3.org/1999/02/22-rdf-syntax-ns#" xmlns:sodipodi="http://sodipodi.sourceforge.net/DTD/sodipodi-0.dtd" xmlns:svg="http://www.w3.org/2000/svg"
	 xmlns="http://www.w3.org/2000/svg" xmlns:xlink="http://www.w3.org/1999/xlink" x="0px" y="0px" viewBox="0 0 213.5 262.5"
	 style="enable-background:new 0 0 213.5 262.5;" xml:space="preserve">
<style type="text/css">
	.st0{fill:#31A8FF;}
	.st1{fill:#001E36;}
	.st2{fill:#FFFFFF;}
</style>
<path id="_x33_1A8FF" inkscape:connector-curvature="0" class="st0" d="M27.1,0C12.2,0,0,12.2,0,27.1v208.3
	c0,14.9,12.2,27.1,27.1,27.1h159.3c14.9,0,27.1-12.2,27.1-27.1V64.1c0,0,0.4-5-1.8-9.9c-2-4.6-5.4-7.8-5.4-7.8c0,0,0,0,0,0
	L166.8,7.7c0,0,0,0-0.1-0.1c0,0-3.4-3.2-8.4-5.4c-5.9-2.5-12-2.3-12-2.3l0.1,0L27.1,0z"/>
<path id="_x30_01E36" inkscape:connector-curvature="0" class="st1" d="M27.1,8.9h119.4c0,0,0.1,0,0.1,0c0,0,4.8,0,8.3,1.5
	c3.4,1.4,5.7,3.6,5.8,3.6c0,0,0,0,0,0l39.4,38.7c0,0,2.4,2.5,3.5,5.1c0.9,2.1,1,5.9,1,5.9c0,0.1,0,0.1,0,0.2v171.4
	c0,10.2-8,18.2-18.2,18.2H27.1c-10.2,0-18.2-8-18.2-18.2V27.1C8.9,17,16.9,8.9,27.1,8.9L27.1,8.9z"/>
<g id="PS">
	<path id="P_1_" class="st0" d="M50.1,139V55.9c0-0.6,0.2-0.9,0.8-0.9c1.4,0,2.7,0,4.5-0.1c1.9-0.1,4-0.1,6.1-0.2
		c2.2-0.1,4.5-0.1,7-0.2c2.5-0.1,4.9-0.1,7.3-0.1c6.6,0,12.1,0.8,16.6,2.5c4,1.4,7.7,3.6,10.8,6.6c2.6,2.6,4.6,5.7,5.9,9.2
		c1.2,3.4,1.9,6.9,1.9,10.5c0,6.9-1.6,12.7-4.8,17.2c-3.2,4.5-7.7,7.9-13,9.8c-5.5,2-11.5,2.7-18.2,2.7c-1.9,0-3.2,0-4-0.1
		c-0.8-0.1-1.9-0.1-3.5-0.1v25.9c0.1,0.6-0.3,1-0.9,1.1c-0.1,0-0.2,0-0.3,0H51C50.4,140.1,50.1,139.7,50.1,139z M67.7,70.6v27.1
		c1.1,0.1,2.2,0.2,3.1,0.2h4.3c3.1,0,6.3-0.5,9.3-1.5c2.6-0.7,4.8-2.3,6.6-4.3c1.7-2,2.5-4.8,2.5-8.3c0.1-2.5-0.6-5-1.9-7.2
		c-1.4-2.1-3.3-3.7-5.7-4.6c-3-1.2-6.2-1.7-9.5-1.6c-2.1,0-4,0-5.5,0.1C69.4,70.5,68.2,70.6,67.7,70.6L67.7,70.6z"/>
	<path id="S_1_" class="st0" d="M161.5,92.8c-2.4-1.3-5-2.2-7.7-2.7c-3-0.6-6-1-9-1c-1.6-0.1-3.3,0.2-4.8,0.6
		c-1,0.2-1.9,0.8-2.5,1.6c-0.4,0.6-0.6,1.5-0.6,2.2s0.3,1.5,0.8,2.1c0.7,0.9,1.7,1.6,2.7,2.2c1.9,1,3.8,1.9,5.7,2.7
		c4.4,1.5,8.6,3.5,12.4,5.9c2.7,1.7,4.8,4,6.4,6.7c1.3,2.6,1.9,5.4,1.9,8.3c0.1,3.8-1,7.6-3.1,10.7c-2.3,3.2-5.4,5.7-9,7.2
		c-4,1.7-8.8,2.6-14.6,2.6c-3.7,0-7.3-0.3-11-1c-2.8-0.5-5.7-1.4-8.2-2.6c-0.6-0.3-1-0.9-0.9-1.5v-14c0-0.2,0.1-0.6,0.3-0.7
		c0.2-0.2,0.5-0.1,0.7,0.1c3.1,1.9,6.5,3.1,10,4c3.1,0.8,6.3,1.2,9.5,1.2c3.1,0,5.2-0.4,6.7-1.1c1.3-0.6,2.2-1.9,2.2-3.4
		c0-1.1-0.6-2.2-1.9-3.2c-1.3-1-4-2.3-7.9-3.8c-4.1-1.5-7.9-3.4-11.5-5.8c-2.5-1.8-4.6-4.1-6.1-6.9c-1.3-2.6-1.9-5.4-1.9-8.2
		c0-3.5,1-6.8,2.7-9.8c2-3.2,5-5.8,8.5-7.4c3.8-1.9,8.6-2.8,14.3-2.8c3.3,0,6.7,0.2,10,0.7c2.4,0.3,4.8,1,6.9,1.9
		c0.3,0.1,0.6,0.4,0.8,0.7c0.1,0.3,0.2,0.6,0.2,1V92c0,0.3-0.2,0.6-0.4,0.8C162.2,93,161.8,93,161.5,92.8z"/>
</g>
<g id="PSD">
	<path id="P" class="st2" d="M72.6,208.5v13.8h-6.4v-37.6h10.6c7.5,0,11.7,4.3,11.7,11.9c0,7.6-4.3,11.9-11.7,11.9H72.6z
		 M72.6,190.1V203h4.6c3,0,4.9-2.4,4.9-6.5c0-4.1-1.9-6.5-5.2-6.5H72.6z"/>
	<path id="S" class="st2" d="M94.8,220.6v-6.2c2.6,1.5,5.7,2.8,9,2.8c3.6,0,6.1-1.6,6.1-4.5c0-3-1.9-4.6-6.4-6.7
		c-5.7-2.6-9-5.4-9-11.5c0-6.7,4.5-10.5,11.5-10.5c3.3,0,6.4,0.9,8.3,2v5.9c-2-1.2-5-2.2-7.8-2.2c-3.5,0-5.7,1.8-5.7,4.7
		c0,2.7,1.7,4.6,6.3,6.6c5.7,2.6,9.1,5.4,9.1,11.4c0,6.7-4.3,10.5-11.7,10.5C100.6,222.9,97.1,221.9,94.8,220.6z"/>
	<path id="D" class="st2" d="M123,222.2v-37.6h10.1c11.1,0,17.4,7.3,17.4,18.8c0,11.5-6.3,18.8-17.3,18.8H123z M129.4,190.1v26.7
		h3.8c6.8,0,10.8-5.2,10.8-13.4c0-8.1-4-13.4-11-13.4H129.4z"/>
</g>
</svg>
