<svg version="1.2" xmlns="http://www.w3.org/2000/svg" viewBox="0 0 586 586" width="586" height="586">
	<title>srt-svg</title>
	<style>
		.s0 { fill: #ff6600 } 
	</style>
	<g id="Layer">
		<path id="Layer" fill-rule="evenodd" class="s0" d="m574.7 86.6v411.2c0 20.8-16.8 37.7-37.6 37.7h-177.4c-0.8 0-1.5-0.1-2.3-0.2v50.6l-346.2-47.4v-492.3l346.2-46.2v49.1c0.8 0 1.5-0.1 2.3-0.1h177.4c20.8 0 37.6 16.9 37.6 37.6zm-21.4 411.2v-411.2c0-8.9-7.3-16.1-16.2-16.1h-177.4c-0.8 0-1.5 0.1-2.3 0.2v118.9h18.3v-16.1h15.4v16.1h67.9v16.2h-101.6v64.5c5.6 11.3 12.8 23.5 22.3 36 38.1-48 43.2-93.9 43.3-94.6l16.1 1.6c-0.3 3.1-6.1 53.9-48.8 106 7.4 8.4 15.9 16.9 25.6 25.1l-5.2 16.8c-12-9.6-22.4-19.5-31.4-29.4-6.6 6.9-13.8 13.8-21.9 20.6v161.3c0.8 0.1 1.5 0.2 2.3 0.2h177.4c8.9 0 16.1-7.2 16.1-16.1zm-442.6-165.1c0-15.9-8.6-26.3-26.6-33.6-12.8-5.3-18.4-8.3-18.4-15.3 0-5.6 4.7-10.6 14.4-10.8 9.8-0.2 17.1 2.8 21.2 4.8l5.2-20.5c-6.1-2.8-14.6-5.2-26-4.7-23.1 0.9-36.7 15.3-36.7 33.6 0 15.5 10.3 25.4 26.4 31.9 12 4.9 16.7 8.9 16.7 15.8 0 7.2-5.5 11.8-15.8 11.4-9.4-0.3-18.4-4-24.2-7.5l-4.3 19.8c5.3 3.6 16.1 7.4 27.2 7.9 27.6 1.4 40.9-13.9 40.9-32.8zm102.6 38.4c-2.3-4.8-6.1-20.8-9.9-34.5-3-11.2-7.6-19.3-15.8-22.8v-0.5c10.2-3.6 21-14.2 21-29.7 0-11.1-3.9-19.5-11-25-8.5-6.5-20.6-8.7-37.5-8-13.5 0.5-25.3 1.9-33.2 3.6v112.6l24.5 1.2v-45.7l7.7 0.1c10.4 0.4 15.4 4.5 18.4 19.3 3.5 14.8 6.2 24.6 8.2 28zm107.3-100.7v-24.9l-101.4 3.8v23.2l33.9-0.7v101.3l29.9 1.5v-103.4l37.6-0.8zm36.8 60.1c4-3.7 7.8-7.5 11.3-11.4-4.1-5.3-7.8-10.5-11.3-15.8z"/>
		<path id="Layer" class="s0" d="m162.8 270.1c-6.2 0.2-9.7 0.8-11.5 1.1v32.1l10 0.1c12.9 0 20.6-6.7 20.6-17.1 0-11-7.2-16.3-19.1-16.2z"/>
		<path id="Layer" fill-rule="evenodd" class="s0" d="m490.1 263l45.8 147.4h-35.9l-11.4-37.9h-42.2l-10.5 37.9h-34.6l45.1-147.4zm-6.3 84.6l-9.2-31.3c-2.7-8.7-5.3-19.7-7.5-28.4h-0.4c-2.2 8.7-4.4 19.9-6.8 28.4l-8.7 31.3z"/>
	</g>
</svg>