<svg height="48" width="48" xmlns="http://www.w3.org/2000/svg" xmlns:xlink="http://www.w3.org/1999/xlink"><radialGradient id="a" cx="5" cy="41.5" gradientTransform="matrix(.5938225 0 0 1.5366531 41.140892 -103.93618)" gradientUnits="userSpaceOnUse" r="5" xlink:href="#c"/><linearGradient id="b" gradientTransform="matrix(1.7570316 0 0 1.3969574 -17.394014 -16.411698)" gradientUnits="userSpaceOnUse" x1="17.554192" x2="17.554192" y1="46.000275" y2="34.999718"><stop offset="0" stop-opacity="0"/><stop offset=".5"/><stop offset="1" stop-opacity="0"/></linearGradient><linearGradient id="c"><stop offset="0"/><stop offset="1" stop-opacity="0"/></linearGradient><radialGradient id="d" cx="5" cy="41.5" gradientTransform="matrix(.5938225 0 0 1.5366531 -6.659474 -103.93618)" gradientUnits="userSpaceOnUse" r="5" xlink:href="#c"/><linearGradient id="e" gradientUnits="userSpaceOnUse" x1="15.464298" x2="15.464298" y1="7.975685" y2="45.04248"><stop offset="0" stop-color="#c9af8b"/><stop offset=".23942046" stop-color="#ad8757"/><stop offset=".27582464" stop-color="#c2a57f"/><stop offset="1" stop-color="#9d7d53"/></linearGradient><linearGradient id="f" gradientTransform="matrix(1.2822251 0 0 1.5572619 -6.070192 -15.290756)" gradientUnits="userSpaceOnUse" x1="24.822832" x2="24.996943" y1="15.377745" y2="37.27668"><stop offset="0" stop-color="#dac197"/><stop offset=".23942046" stop-color="#c1a581"/><stop offset=".27582464" stop-color="#dbc298"/><stop offset="1" stop-color="#a68b60"/></linearGradient><linearGradient id="g" gradientTransform="matrix(1.2822251 0 0 1.1746872 -6.070192 -5.303168)" gradientUnits="userSpaceOnUse" x1="23.451576" x2="43.00663" y1="30.554907" y2="45.934479"><stop offset="0" stop-color="#fff" stop-opacity="0"/><stop offset="1" stop-color="#fff" stop-opacity="0"/></linearGradient><linearGradient id="h" gradientUnits="userSpaceOnUse" x1="26" x2="26" y1="22" y2="8"><stop offset="0" stop-color="#fff"/><stop offset=".3021296" stop-color="#fff"/><stop offset=".34361121" stop-color="#fff" stop-opacity=".690196"/><stop offset="1" stop-color="#fff" stop-opacity="0"/></linearGradient><linearGradient id="i" gradientUnits="userSpaceOnUse" spreadMethod="reflect" x1="44.994774" x2="3.005225" y1="17.5" y2="17.5"><stop offset="0" stop-color="#fff" stop-opacity="0"/><stop offset=".245" stop-color="#fff"/><stop offset=".77350003" stop-color="#fff"/><stop offset="1" stop-color="#fff" stop-opacity="0"/></linearGradient><g opacity=".4" transform="matrix(.9926623 0 0 .9761474 .27519 1.292963)"><path d="m-3.690363-47.848343h2.960195v15.366531h-2.960195z" fill="url(#d)" opacity="1" transform="scale(-1)"/><path d="m3.690363 32.481812h40.41172v15.366531h-40.41172z" fill="url(#b)" opacity="1"/><path d="m44.110001-47.848343h2.960195v15.366531h-2.960195z" fill="url(#a)" opacity="1" transform="scale(1 -1)"/></g><path d="m9.010725 8.5h29.497723c1.721985 0 2.496922-.2865505 2.991552 1l3.001734 8v25.673912c0 1.553304.10293 1.315976-1.619063 1.315976h-37.7653422c-1.7219924 0-1.6190635.237328-1.6190635-1.315976v-25.673912l3.0017347-8c.4808316-1.2605622.7887325-1 2.510725-1z" display="block" fill="url(#f)" stroke="url(#e)" stroke-linecap="round" stroke-width=".994201"/><path d="m9.948194 9.5129459h27.652872c1.614293 0 2.61338.5565361 3.289521 2.0860281l2.32894 6.419721v23.144557c0 1.460676-.818759 2.196085-2.433056 2.196085h-33.7332031c-1.6142934 0-2.2727761-.808827-2.2727761-2.269504v-23.071138l2.2538109-6.55736c.4507622-1.185392 1.2995941-1.9483891 2.9138913-1.9483891z" display="block" fill="none" opacity=".505495" stroke="url(#g)" stroke-width=".742115"/><path d="m22 8h4v14c-.393729 0-.787458 0-1.181187 0-.403125 0-.80625 0-1.209375 0-.324529 0-.649057 0-.973585 0-.211951 0-.423902 0-.635853 0 0-4.666667 0-9.333333 0-14z" fill="url(#h)" opacity=".4"/><path d="m17.232375 41.142857h1.596c0-1.732 0-3.464 0-5.196h.96c0-.483999 0-.967999 0-1.451999-.32 0-.64 0-.96 0 0-.740001 0-1.480001 0-2.220001-.532 0-1.064 0-1.596 0v2.220001c-.26 0-.52 0-.78 0v1.451999h.78zm10.101375-6.647999c-.488 0-.976 0-1.464 0v.888c-.62133-.930603-1.839697-1.199196-2.882437-.976618-1.432383.239285-2.532947 1.543101-2.648047 2.971853-.198489 1.445692.517142 3.047722 1.903854 3.630286 1.145487.503569 2.652677.395695 3.507307-.599415.223725-.296146.077662.356059.119323.527579-.102181.338598.307452.165382.502937.206314h.961063c0-2.216 0-4.432 0-6.647999zm-3.468 1.307998c1.020032-.048826 1.911869.83476 1.946558 1.84109.104805.944516-.477117 2.01841-1.483058 2.151161-.955762.215892-2.084431-.305937-2.32563-1.303504-.314659-1.044195.225574-2.375825 1.35415-2.627433.165862-.041747.337031-.061351.50798-.061313zm4.657874 5.340001h1.596001c.012883-1.35272-.026875-2.707617.021984-4.058859.025702-.727717.701391-1.253367 1.406016-1.209141 0-.512001 0-1.024001-.000001-1.536001-.632935-.072983-1.252565.243793-1.559999.804001-.046635-.195156.096533-.580116-.077375-.647999-.462209 0-.924417 0-1.386626 0z" opacity=".4"/><path d="m3.5052248 17.5h40.9895502" fill="none" opacity=".4" stroke="url(#i)" stroke-linecap="square"/></svg>