<?xml version="1.0" encoding="UTF-8"?>
<svg version="1.1" xmlns="http://www.w3.org/2000/svg" width="256" height="256">
<path d="M0 0 C5.10885511 0.07382819 10.20225364 0.00606923 15.30927837 -0.13954771 C67.91789219 -1.60564496 67.91789219 -1.60564496 83.56494033 12.08133376 C89.79525657 18.05031702 94.95488674 24.77845216 99.78227413 31.90331042 C102.90320763 36.40673799 106.54019018 40.35683363 110.71465862 43.89144289 C116.0822957 48.51818633 119.53380319 52.14377432 120.18305767 59.57309878 C120.20150835 62.22185298 120.16332394 64.82328232 120.06635845 67.4656769 C120.05342022 68.87763072 120.04496863 70.28963201 120.0407542 71.70163882 C120.02101914 74.63797412 119.96598128 77.57054564 119.88129985 80.50571597 C119.77307125 84.26645487 119.72674653 88.02464482 119.702999 91.78677523 C119.67792994 95.38841472 119.62369005 98.98942936 119.56635845 102.5906769 C119.55768623 103.27468066 119.54901401 103.95868441 119.540079 104.66341555 C119.51006018 106.59456419 119.45648668 108.5253035 119.40180767 110.45591128 C119.37529125 111.55302432 119.34877483 112.65013735 119.32145488 113.78049624 C118.82363002 116.89079223 118.30189344 117.58272002 115.88667095 119.4969269 C112.94430727 119.79193563 110.21352711 119.90140037 107.26997173 119.87787783 C106.37931074 119.8825578 105.48864974 119.88723778 104.57099903 119.89205956 C101.57451083 119.90406409 98.57847537 119.89453103 95.58198345 119.8851105 C93.43864983 119.88917377 91.2953183 119.89451427 89.15199077 119.90104067 C83.32152245 119.91474908 77.49121289 119.90940106 71.66074169 119.89990342 C65.56824099 119.89232507 59.47575419 119.89934734 53.38325298 119.90406191 C43.15064343 119.90952479 32.91809877 119.90231388 22.68549907 119.88804018 C10.8435711 119.87171269 -0.99820194 119.87700082 -12.84012616 119.8935194 C-22.99472774 119.9071191 -33.1492826 119.90906135 -43.30389035 119.90120339 C-49.37432724 119.89651853 -55.44469123 119.89592432 -61.51512349 119.90581286 C-67.22128018 119.91445818 -72.9272365 119.90850519 -78.63337147 119.89113009 C-80.73166011 119.88715221 -82.82996553 119.88832139 -84.92824757 119.89491808 C-87.7846052 119.90307232 -90.64031395 119.89288632 -93.49662983 119.87787783 C-94.7527926 119.88791608 -94.7527926 119.88791608 -96.03433239 119.89815712 C-101.68129318 119.8402955 -101.68129318 119.8402955 -103.8193866 118.14100575 C-105.75126312 115.68637006 -105.58891984 113.62786424 -105.70781147 110.53525698 C-105.75922795 109.30579852 -105.81064442 108.07634005 -105.86361897 106.80962527 C-105.9014408 105.46197759 -105.93642483 104.11424774 -105.9687978 102.76645815 C-105.98601698 102.08309578 -106.00323617 101.39973341 -106.02097714 100.69566309 C-106.1070639 97.06582758 -106.17019844 93.43628574 -106.21855366 89.80576479 C-106.26273159 86.82823706 -106.35254146 83.85779152 -106.48515522 80.88291323 C-107.6157673 54.94055146 -107.6157673 54.94055146 -101.71342671 47.158548 C-98.4977227 43.68585733 -94.95056681 40.86209343 -91.13684285 38.0784241 C-86.6912234 34.60390631 -83.27195623 30.31547067 -80.250826 25.57360232 C-61.63896724 -3.52021025 -30.98070608 -0.52406898 0 0 Z " fill="#464646" transform="translate(121.11332905292511,72.50307309627533)"/>
<path d="M0 0 C5.10885511 0.07382819 10.20225364 0.00606923 15.30927837 -0.13954771 C67.91789219 -1.60564496 67.91789219 -1.60564496 83.56494033 12.08133376 C89.79525657 18.05031702 94.95488674 24.77845216 99.78227413 31.90331042 C102.90320763 36.40673799 106.54019018 40.35683363 110.71465862 43.89144289 C116.0822957 48.51818633 119.53380319 52.14377432 120.18305767 59.57309878 C120.20150835 62.22185298 120.16332394 64.82328232 120.06635845 67.4656769 C120.05342022 68.87763072 120.04496863 70.28963201 120.0407542 71.70163882 C120.02101914 74.63797412 119.96598128 77.57054564 119.88129985 80.50571597 C119.77307125 84.26645487 119.72674653 88.02464482 119.702999 91.78677523 C119.67792994 95.38841472 119.62369005 98.98942936 119.56635845 102.5906769 C119.55768623 103.27468066 119.54901401 103.95868441 119.540079 104.66341555 C119.51006018 106.59456419 119.45648668 108.5253035 119.40180767 110.45591128 C119.37529125 111.55302432 119.34877483 112.65013735 119.32145488 113.78049624 C118.82363002 116.89079223 118.30189344 117.58272002 115.88667095 119.4969269 C112.94430727 119.79193563 110.21352711 119.90140037 107.26997173 119.87787783 C106.37931074 119.8825578 105.48864974 119.88723778 104.57099903 119.89205956 C101.57451083 119.90406409 98.57847537 119.89453103 95.58198345 119.8851105 C93.43864983 119.88917377 91.2953183 119.89451427 89.15199077 119.90104067 C83.32152245 119.91474908 77.49121289 119.90940106 71.66074169 119.89990342 C65.56824099 119.89232507 59.47575419 119.89934734 53.38325298 119.90406191 C43.15064343 119.90952479 32.91809877 119.90231388 22.68549907 119.88804018 C10.8435711 119.87171269 -0.99820194 119.87700082 -12.84012616 119.8935194 C-22.99472774 119.9071191 -33.1492826 119.90906135 -43.30389035 119.90120339 C-49.37432724 119.89651853 -55.44469123 119.89592432 -61.51512349 119.90581286 C-67.22128018 119.91445818 -72.9272365 119.90850519 -78.63337147 119.89113009 C-80.73166011 119.88715221 -82.82996553 119.88832139 -84.92824757 119.89491808 C-87.7846052 119.90307232 -90.64031395 119.89288632 -93.49662983 119.87787783 C-94.7527926 119.88791608 -94.7527926 119.88791608 -96.03433239 119.89815712 C-101.68129318 119.8402955 -101.68129318 119.8402955 -103.8193866 118.14100575 C-105.75126312 115.68637006 -105.58891984 113.62786424 -105.70781147 110.53525698 C-105.75922795 109.30579852 -105.81064442 108.07634005 -105.86361897 106.80962527 C-105.9014408 105.46197759 -105.93642483 104.11424774 -105.9687978 102.76645815 C-105.98601698 102.08309578 -106.00323617 101.39973341 -106.02097714 100.69566309 C-106.1070639 97.06582758 -106.17019844 93.43628574 -106.21855366 89.80576479 C-106.26273159 86.82823706 -106.35254146 83.85779152 -106.48515522 80.88291323 C-107.6157673 54.94055146 -107.6157673 54.94055146 -101.71342671 47.158548 C-98.4977227 43.68585733 -94.95056681 40.86209343 -91.13684285 38.0784241 C-86.6912234 34.60390631 -83.27195623 30.31547067 -80.250826 25.57360232 C-61.63896724 -3.52021025 -30.98070608 -0.52406898 0 0 Z M-98.11332905 50.4969269 C-102.58193156 83.76599014 -102.58193156 83.76599014 -94.11332905 112.4969269 C-91.20111168 112.98822363 -88.87384154 113.15293811 -85.96360981 113.09819949 C-85.13531454 113.10247161 -84.30701926 113.10674374 -83.45362413 113.11114532 C-80.6739548 113.11939116 -77.89578937 113.09186476 -75.11625874 113.06455386 C-73.12554662 113.06314373 -71.1348319 113.06393468 -69.14412129 113.06676638 C-63.73521277 113.06820331 -58.32685658 113.03876846 -52.91807663 113.00389659 C-47.26730777 112.97267932 -41.6165268 112.969706 -35.96568501 112.96376956 C-25.26299054 112.94821752 -14.56055087 112.90717051 -3.85796869 112.85702211 C8.32565314 112.80117106 20.50928703 112.77365278 32.69300497 112.74854493 C57.75770166 112.69625598 82.82217204 112.60828713 107.88667095 112.4969269 C107.88667095 111.8369269 107.88667095 111.1769269 107.88667095 110.4969269 C108.87667095 110.1669269 109.86667095 109.8369269 110.88667095 109.4969269 C117.10671025 90.836809 111.88667095 70.16641823 111.88667095 50.4969269 C42.58667095 50.4969269 -26.71332905 50.4969269 -98.11332905 50.4969269 Z " fill="#E0E2E5" transform="translate(121.11332905292511,72.50307309627533)"/>
<path d="M0 0 C0.00586624 0.7052179 0.01173248 1.41043579 0.01777649 2.13702393 C0.07571462 8.7876921 0.14779735 15.43803959 0.23571491 22.08838272 C0.28041555 25.50730272 0.31967187 28.92610365 0.34643555 32.34521484 C0.37745412 36.2772773 0.43224353 40.20883626 0.48828125 44.140625 C0.49467117 45.36678528 0.5010611 46.59294556 0.50764465 47.85626221 C0.52743881 48.99714294 0.54723297 50.13802368 0.56762695 51.31347656 C0.57873001 52.31719299 0.58983307 53.32090942 0.60127258 54.3550415 C1.08974562 57.59532759 1.61080526 58.74349681 4 61 C6.80440687 61.40413219 9.22185629 61.54701498 12.02946472 61.51898193 C13.270626 61.53023381 13.270626 61.53023381 14.53686124 61.541713 C17.31934116 61.56207038 20.10101245 61.55387189 22.88354492 61.54589844 C24.87411815 61.55462908 26.86468434 61.56511308 28.85523987 61.57722473 C34.2681682 61.60516759 39.68086848 61.60848759 45.09385848 61.60750484 C50.74738323 61.61062684 56.40080418 61.63623011 62.05427551 61.65948486 C72.76396271 61.70010319 83.47358894 61.72039928 94.18334132 61.73345876 C106.37428579 61.74930907 118.5651262 61.78771636 130.75601041 61.82805204 C155.83730538 61.91053081 180.91859757 61.96457306 206 62 C206 61.34 206 60.68 206 60 C206.66 59.67 207.32 59.34 208 59 C209.02406112 55.92781664 209.1546536 53.73987825 209.20532227 50.51879883 C209.22526749 49.39786331 209.24521271 48.2769278 209.26576233 47.12202454 C209.28247482 45.91257675 209.29918732 44.70312897 209.31640625 43.45703125 C209.3475779 41.59893074 209.3475779 41.59893074 209.37937927 39.70329285 C209.43371797 36.41374744 209.48395951 33.12417274 209.53222656 29.83453369 C209.58250646 26.47622186 209.63815861 23.11799954 209.69335938 19.75976562 C209.80053048 13.17324841 209.90230135 6.58666416 210 0 C212.86724686 0.57344937 213.8614515 0.8614515 216 3 C216.26742554 5.57408142 216.26742554 5.57408142 216.29052734 8.87084961 C216.30328705 10.10230209 216.31604675 11.33375458 216.32919312 12.6025238 C216.33225034 13.9524622 216.33447833 15.30240268 216.3359375 16.65234375 C216.34236209 18.03235515 216.3490902 19.41236516 216.35610962 20.79237366 C216.36809378 23.6867285 216.37178927 26.58096389 216.37060547 29.4753418 C216.37040217 33.18582389 216.39770896 36.89554095 216.43214989 40.60584164 C216.45437791 43.4565839 216.4584443 46.30714083 216.45738602 49.15796089 C216.459748 50.52593181 216.46860519 51.89390738 216.48405075 53.26179314 C216.50362453 55.17434731 216.49537238 57.08712528 216.48583984 58.99975586 C216.48868988 60.08848495 216.49153992 61.17721405 216.49447632 62.29893494 C216 65 216 65 214.50803661 66.64500713 C210.8817332 68.60415527 207.39655222 68.41364185 203.37693787 68.38095093 C202.05804073 68.38797089 202.05804073 68.38797089 200.7124992 68.39513266 C197.76057282 68.4071171 194.80910772 68.39761196 191.85717773 68.38818359 C189.74325285 68.39224773 187.62933009 68.39758872 185.51541138 68.40411377 C179.76970948 68.41781108 174.02416886 68.41247893 168.27846408 68.40297651 C162.27272013 68.39539344 156.2669902 68.40242166 150.26124573 68.40713501 C140.17584752 68.41259608 130.09051517 68.40539126 120.00512695 68.39111328 C108.33415656 68.37478171 96.66334334 68.3800776 84.99237674 68.3965925 C74.98212728 68.41019205 64.97192522 68.41213466 54.9616695 68.40427649 C48.97843762 68.39959212 42.99527971 68.39899617 37.01205254 68.40888596 C31.38877985 68.41753122 25.76571051 68.4115784 20.14245987 68.39420319 C18.07480902 68.39022547 16.00714115 68.39139422 13.93949699 68.39799118 C11.12479058 68.40614595 8.31074255 68.39595888 5.49607849 68.38095093 C4.67099161 68.38764309 3.84590473 68.39433526 2.99581522 68.40123022 C-2.56721417 68.34339021 -2.56721417 68.34339021 -4.70800155 66.64480078 C-6.65361704 64.16790162 -6.38855298 62.13025206 -6.40405273 59.015625 C-6.41673691 57.78424805 -6.42942108 56.55287109 -6.44248962 55.28417969 C-6.44043832 53.93945142 -6.43745041 52.5947243 -6.43359375 51.25 C-6.43815438 49.87141665 -6.4434596 48.49283557 -6.44947815 47.11425781 C-6.45841249 44.22581746 -6.45598232 41.33765355 -6.44604492 38.44921875 C-6.4345479 34.74656862 -6.45477467 31.04487114 -6.48396206 27.34234619 C-6.50230165 24.4958693 -6.50203633 21.64962173 -6.49632454 18.80310059 C-6.49617108 17.43793398 -6.50223575 16.07275207 -6.51461601 14.7076416 C-6.52948066 12.79993913 -6.51624238 10.89208003 -6.50170898 8.984375 C-6.50154282 7.89866211 -6.50137665 6.81294922 -6.50120544 5.69433594 C-6 3 -6 3 -4.09364319 1.12597656 C-2 0 -2 0 0 0 Z " fill="#AAAAAA" transform="translate(23,123)"/>
<path d="M0 0 C1.06081787 0.16048828 1.06081787 0.16048828 2.14306641 0.32421875 C-0.84048909 6.67808694 -5.28409376 10.99267312 -10.79443359 15.26171875 C-16.99784315 20.0907202 -21.59002071 25.63535928 -26.29443359 31.88671875 C-29.68515042 36.32073306 -33.57883719 39.77389047 -37.85693359 43.32421875 C-38.51693359 43.98421875 -39.17693359 44.64421875 -39.85693359 45.32421875 C26.80306641 45.32421875 93.46306641 45.32421875 162.14306641 45.32421875 C158.51306641 41.69421875 154.88306641 38.06421875 151.14306641 34.32421875 C149.16306641 31.84921875 149.16306641 31.84921875 147.14306641 29.32421875 C145.49544551 27.63872151 143.82720977 25.97322351 142.14306641 24.32421875 C141.17350945 23.33539688 140.20613999 22.34442641 139.24072266 21.3515625 C138.22905106 20.32156826 137.21733183 19.29162082 136.20556641 18.26171875 C135.70605469 17.74544922 135.20654297 17.22917969 134.69189453 16.69726562 C132.21391345 14.18731059 129.93586755 12.18651199 126.97509766 10.21875 C124.2036759 8.36476441 122.66208574 6.77996066 120.76806641 4.07421875 C120.26533203 3.3678125 119.76259766 2.66140625 119.24462891 1.93359375 C118.88111328 1.4025 118.51759766 0.87140625 118.14306641 0.32421875 C121.4009835 -0.09340965 124.02291789 -0.38921665 126.88525391 1.43383789 C128.7294636 3.08443743 130.44050812 4.80899914 132.14306641 6.60546875 C132.78244141 7.25237671 133.42181641 7.89928467 134.08056641 8.5657959 C136.11837437 10.6360665 138.13035475 12.72957199 140.14306641 14.82421875 C141.49565779 16.20336963 142.84981037 17.58099122 144.20556641 18.95703125 C149.68229449 24.54306659 155.06513191 30.14207873 160.10470581 36.12915039 C162.18715181 38.4569478 162.18715181 38.4569478 164.98831177 40.74975586 C170.3602257 45.35503547 173.79140422 48.98486133 174.43945312 56.40039062 C174.45790381 59.04914483 174.41971939 61.65057417 174.32275391 64.29296875 C174.30981568 65.70492257 174.30136409 67.11692385 174.29714966 68.52893066 C174.2774146 71.46526596 174.22237674 74.39783749 174.13769531 77.33300781 C174.02946671 81.09374671 173.98314198 84.85193667 173.95939445 88.61406708 C173.9343254 92.21570656 173.88008551 95.8167212 173.82275391 99.41796875 C173.81408169 100.1019725 173.80540947 100.78597626 173.79647446 101.4907074 C173.76645564 103.42185604 173.71288214 105.35259535 173.65820312 107.28320312 C173.63168671 108.38031616 173.60517029 109.4774292 173.57785034 110.60778809 C173.08002548 113.71808408 172.5582889 114.41001186 170.14306641 116.32421875 C167.20070273 116.61922748 164.46992257 116.72869222 161.52636719 116.70516968 C160.6357062 116.70984965 159.7450452 116.71452962 158.82739449 116.71935141 C155.83090629 116.73135594 152.83487083 116.72182288 149.83837891 116.71240234 C147.69504529 116.71646562 145.55171376 116.72180612 143.40838623 116.72833252 C137.57791791 116.74204093 131.74760835 116.73669291 125.91713715 116.72719526 C119.82463645 116.71961691 113.73214965 116.72663919 107.63964844 116.73135376 C97.40703889 116.73681664 87.17449423 116.72960573 76.94189453 116.71533203 C65.09996656 116.69900454 53.25819352 116.70429267 41.4162693 116.72081125 C31.26166772 116.73441094 21.10711286 116.7363532 10.95250511 116.72849524 C4.88206822 116.72381038 -1.18829577 116.72321617 -7.25872803 116.73310471 C-12.96488472 116.74175003 -18.67084104 116.73579703 -24.37697601 116.71842194 C-26.47526466 116.71444406 -28.57357007 116.71561324 -30.67185211 116.72220993 C-33.52820974 116.73036417 -36.38391849 116.72017817 -39.24023438 116.70516968 C-40.49639714 116.71520793 -40.49639714 116.71520793 -41.77793694 116.72544897 C-47.42489772 116.66758734 -47.42489772 116.66758734 -49.56299114 114.9682976 C-51.49486766 112.51366191 -51.33252438 110.45515609 -51.45141602 107.36254883 C-51.50283249 106.13309036 -51.55424896 104.9036319 -51.60722351 103.63691711 C-51.64504534 102.28926943 -51.68002937 100.94153958 -51.71240234 99.59375 C-51.72962152 98.91038763 -51.74684071 98.22702526 -51.76458168 97.52295494 C-51.85066844 93.89311942 -51.91380298 90.26357758 -51.9621582 86.63305664 C-52.00633613 83.65552891 -52.096146 80.68508337 -52.22875977 77.71020508 C-53.35937185 51.76784331 -53.35937185 51.76784331 -47.45703125 43.98583984 C-44.24714556 40.51943247 -40.71437816 37.69026586 -36.89208984 34.9312439 C-34.04104639 32.67996784 -31.82051143 30.04204264 -29.49241638 27.26741028 C-25.57637821 22.61458712 -21.19701148 18.36025663 -16.92236328 14.03955078 C-15.78647307 12.88692735 -14.65599922 11.7289433 -13.53076172 10.56591797 C-11.88840587 8.86897515 -10.23035368 7.18891971 -8.56787109 5.51171875 C-7.81925308 4.72909668 -7.81925308 4.72909668 -7.05551147 3.93066406 C-4.69516401 1.58440333 -3.36351637 0.38170823 0 0 Z M-49.85693359 50.32421875 C-50.458352 53.10088695 -50.458352 53.10088695 -50.35864258 56.30859375 C-50.36802353 57.5399707 -50.37740448 58.77134766 -50.3870697 60.04003906 C-50.37659166 61.38477268 -50.36522268 62.72949961 -50.35302734 64.07421875 C-50.35318231 65.45280025 -50.3546709 66.8313822 -50.35743713 68.20996094 C-50.3588216 71.09850333 -50.34625629 73.98654946 -50.32348633 76.875 C-50.29510069 80.57754537 -50.29783795 84.27926616 -50.31057644 87.98187256 C-50.31753157 90.8283594 -50.30974641 93.67465565 -50.29731941 96.52111816 C-50.29280324 97.88626372 -50.29246958 99.25142973 -50.29638481 100.61657715 C-50.29929503 102.52436695 -50.28063708 104.43215293 -50.26098633 106.33984375 C-50.25558334 107.42555664 -50.25018036 108.51126953 -50.24461365 109.62988281 C-49.79641197 112.74483774 -49.26883197 113.41051862 -46.85693359 115.32421875 C-43.95381222 115.61918198 -41.26512051 115.72872577 -38.3608551 115.70516968 C-37.48315033 115.70984965 -36.60544556 115.71452962 -35.70114368 115.71935141 C-32.74844582 115.73135522 -29.79620749 115.72182314 -26.84350586 115.71240234 C-24.73135099 115.71646568 -22.61919825 115.72180622 -20.50704956 115.72833252 C-14.76122137 115.74204103 -9.01555428 115.73669265 -3.26972318 115.72719526 C2.73555874 115.71961597 8.74082657 115.72663954 14.74610901 115.73135376 C24.83328739 115.73681678 34.92039996 115.72960579 45.00756836 115.71533203 C56.67792998 115.69900893 68.34813436 115.70428942 80.01849216 115.72081125 C90.02788785 115.7344158 100.03723613 115.73635068 110.04663807 115.72849524 C116.02935779 115.72381249 122.01200355 115.72321032 127.99471855 115.73310471 C133.61962256 115.74175692 139.24432346 115.73578431 144.86920547 115.71842194 C146.93643544 115.71444757 149.00368244 115.71560729 151.07090569 115.72220993 C153.88750439 115.73037807 156.70344761 115.72016107 159.52000427 115.70516968 C160.34286043 115.71186184 161.16571659 115.71855401 162.01350778 115.72544897 C165.31032125 115.69128968 167.72146502 115.55210219 170.65068245 113.96880531 C172.88225742 111.50964044 172.64427363 109.61824776 172.64477539 106.33984375 C172.65415634 105.1084668 172.66353729 103.87708984 172.67320251 102.60839844 C172.66272447 101.26366482 172.65135549 99.91893789 172.63916016 98.57421875 C172.63931512 97.19563725 172.64080371 95.8170553 172.64356995 94.43847656 C172.64495441 91.54993417 172.6323891 88.66188804 172.60961914 85.7734375 C172.5812335 82.07089213 172.58397077 78.36917134 172.59670925 74.66656494 C172.60366439 71.8200781 172.59587922 68.97378185 172.58345222 66.12731934 C172.57893605 64.76217378 172.57860239 63.39700777 172.58251762 62.03186035 C172.58542785 60.12407055 172.56676989 58.21628457 172.54711914 56.30859375 C172.53901466 54.68002441 172.53901466 54.68002441 172.53074646 53.01855469 C172.08254478 49.90359976 171.55496479 49.23791888 169.14306641 47.32421875 C166.23994504 47.02925552 163.55125333 46.91971173 160.64698792 46.94326782 C159.76928315 46.93858785 158.89157838 46.93390788 157.98727649 46.92908609 C155.03457864 46.91708228 152.0823403 46.92661436 149.12963867 46.93603516 C147.01748381 46.93197182 144.90533106 46.92663128 142.79318237 46.92010498 C137.04735418 46.90639647 131.3016871 46.91174485 125.55585599 46.92124224 C119.55057408 46.92882153 113.54530624 46.92179796 107.5400238 46.91708374 C97.45284542 46.91162072 87.36573285 46.91883171 77.27856445 46.93310547 C65.60820283 46.94942857 53.93799845 46.94414808 42.26764065 46.92762625 C32.25824497 46.9140217 22.24889668 46.91208682 12.23949474 46.91994226 C6.25677502 46.92462501 0.27412926 46.92522718 -5.70858574 46.91533279 C-11.33348975 46.90668058 -16.95819065 46.91265319 -22.58307266 46.93001556 C-24.65030263 46.93398993 -26.71754963 46.93283021 -28.78477287 46.92622757 C-31.60137158 46.91805943 -34.41731479 46.92827643 -37.23387146 46.94326782 C-38.05672762 46.93657566 -38.87958378 46.92988349 -39.72737497 46.92298853 C-43.98154736 46.96706731 -46.90187776 47.06778792 -49.85693359 50.32421875 Z " fill="#CFD0D1" transform="translate(66.85693359375,75.67578125)"/>
<path d="M0 0 C2.86724686 0.57344937 3.8614515 0.8614515 6 3 C6.24050903 5.51834106 6.24050903 5.51834106 6.22705078 8.73486328 C6.22682419 10.53650436 6.22682419 10.53650436 6.22659302 12.37454224 C6.21627045 13.67664642 6.20594788 14.97875061 6.1953125 16.3203125 C6.19158276 17.66266673 6.18873561 19.00502367 6.18673706 20.34738159 C6.17909744 23.882014 6.1594463 27.41648228 6.1373291 30.9510498 C6.11687765 34.5571877 6.10773685 38.16335209 6.09765625 41.76953125 C6.0762006 48.84642135 6.04206079 55.92319997 6 63 C5.01 62.67 4.02 62.34 3 62 C3 61.34 3 60.68 3 60 C1.35 60 -0.3 60 -2 60 C-1.83923477 59.45539124 -1.67846954 58.91078247 -1.51283264 58.34967041 C-0.92406239 55.65207295 -0.8382162 53.16685617 -0.79467773 50.40527344 C-0.7647599 48.72398346 -0.7647599 48.72398346 -0.73423767 47.00872803 C-0.71752518 45.80444153 -0.70081268 44.60015503 -0.68359375 43.359375 C-0.66281265 42.12205627 -0.64203156 40.88473755 -0.62062073 39.60992432 C-0.56634128 36.32861309 -0.51608221 33.04727267 -0.46777344 29.76586914 C-0.41743908 26.41416896 -0.3617364 23.0625628 -0.30664062 19.7109375 C-0.19955491 13.14069536 -0.09776964 6.57038702 0 0 Z " fill="#929292" transform="translate(233,123)"/>
<path d="M0 0 C0.22350686 7.49263129 0.42497317 14.98558098 0.59840012 22.47953415 C0.67962332 25.95941218 0.76839699 29.43875373 0.87451172 32.91796875 C0.99620653 36.91892106 1.08490131 40.92001628 1.171875 44.921875 C1.21439392 46.16990906 1.25691284 47.41794312 1.30072021 48.70379639 C1.32104309 49.86469788 1.34136597 51.02559937 1.36230469 52.22167969 C1.38895203 53.24316101 1.41559937 54.26464233 1.4430542 55.31707764 C0.87636069 58.74869998 -0.25808006 59.92429185 -3 62 C-3.99 62 -4.98 62 -6 62 C-6.09265347 54.35929258 -6.16374109 46.71864335 -6.20724869 39.07750225 C-6.22812977 35.52941238 -6.25645545 31.98170665 -6.30175781 28.43383789 C-6.35350697 24.35559387 -6.37294074 20.27775374 -6.390625 16.19921875 C-6.41127014 14.92414963 -6.43191528 13.64908051 -6.45318604 12.33537292 C-6.45348816 11.15437515 -6.45379028 9.97337738 -6.45410156 8.7565918 C-6.46298401 7.71512497 -6.47186646 6.67365814 -6.48101807 5.60063171 C-6 3 -6 3 -4.09661865 1.14021301 C-2 0 -2 0 0 0 Z " fill="#909090" transform="translate(23,123)"/>
<path d="M0 0 C3.69186542 2.59216083 4.82883761 4.04149064 5.625 8.5 C4.82883761 12.95850936 3.69186542 14.40783917 0 17 C-4.4117517 17.7878128 -6.22192774 17.52975133 -9.9375 15 C-12.80380719 10.83082591 -12.79190864 8.98902441 -12 4 C-8.52445854 -0.21277753 -5.30670762 -0.85286372 0 0 Z " fill="#74FE74" transform="translate(63,146)"/>
<path d="M0 0 C4 1 4 1 6 3 C6.22705078 5.79736328 6.22705078 5.79736328 6.1953125 9.3203125 C6.18886719 10.57714844 6.18242187 11.83398438 6.17578125 13.12890625 C6.15902344 14.44761719 6.14226562 15.76632813 6.125 17.125 C6.11496983 18.46483721 6.10584404 19.80468152 6.09765625 21.14453125 C6.07402075 24.42986573 6.04107234 27.71484465 6 31 C4.02 31 2.04 31 0 31 C0 20.77 0 10.54 0 0 Z " fill="#7B7B7B" transform="translate(233,123)"/>
<path d="M0 0 C0 8.91 0 17.82 0 27 C-1.98 27.33 -3.96 27.66 -6 28 C-6.11591764 23.89606988 -6.18715601 19.79255894 -6.25 15.6875 C-6.28351562 14.52025391 -6.31703125 13.35300781 -6.3515625 12.15039062 C-6.36445313 11.03212891 -6.37734375 9.91386719 -6.390625 8.76171875 C-6.41157227 7.73006592 -6.43251953 6.69841309 -6.45410156 5.63549805 C-6 3 -6 3 -4.10058594 1.13989258 C-2 0 -2 0 0 0 Z " fill="#707070" transform="translate(23,123)"/>
<path d="M0 0 C-1.58794878 3.76696739 -3.97551512 6.34043817 -6.75 9.3125 C-9.74953081 12.54609825 -12.69427581 15.78451769 -15.5 19.1875 C-16.325 20.115625 -17.15 21.04375 -18 22 C-18.66 22 -19.32 22 -20 22 C-20.25910156 22.58394531 -20.51820312 23.16789062 -20.78515625 23.76953125 C-22.08738963 26.16044848 -23.50827548 27.77487096 -25.4375 29.6875 C-26.03433594 30.28949219 -26.63117187 30.89148438 -27.24609375 31.51171875 C-29 33 -29 33 -32 34 C-35.12624754 36.35039049 -35.92013497 37.54743151 -36.609375 41.453125 C-36.65578125 42.70609375 -36.7021875 43.9590625 -36.75 45.25 C-36.80671875 46.51328125 -36.8634375 47.7765625 -36.921875 49.078125 C-36.94765625 50.04234375 -36.9734375 51.0065625 -37 52 C-37.33 52 -37.66 52 -38 52 C-39.06075526 46.87301622 -39.66393267 42.02308755 -38 37 C-34.26418017 31.48450318 -29.03382806 27.24357858 -24.05102539 22.89111328 C-21.37323086 20.42209811 -19.04766716 17.72801567 -16.69018555 14.95678711 C-13.99329609 11.83450356 -11.10195991 8.91786068 -8.1875 6 C-7.61580078 5.41605469 -7.04410156 4.83210938 -6.45507812 4.23046875 C-2.23947051 0 -2.23947051 0 0 0 Z " fill="#CFD0D2" transform="translate(54,88)"/>
<path d="M0 0 C3.69186542 2.59216083 4.82883761 4.04149064 5.625 8.5 C4.82883761 12.95850936 3.69186542 14.40783917 0 17 C-4.4117517 17.7878128 -6.22192774 17.52975133 -9.9375 15 C-12.80380719 10.83082591 -12.79190864 8.98902441 -12 4 C-8.52445854 -0.21277753 -5.30670762 -0.85286372 0 0 Z M-9.875 3.625 C-11.29607814 6.62505385 -11.35685017 8.71697841 -11 12 C-9.13036002 14.26298437 -9.13036002 14.26298437 -6.1875 14.4375 C-2.81473168 14.24221086 -2.81473168 14.24221086 -0.0625 11.75 C2.2125 9.28958333 2.2125 9.28958333 2 6.875 C0.82566512 4.67312211 0.07107049 3.42832448 -2 2 C-5.45460302 1.49620373 -7.18371416 1.29255227 -9.875 3.625 Z " fill="#07F007" transform="translate(63,146)"/>
<path d="M0 0 C2.77263424 1.73366487 3.3527029 2.97995532 5 6 C5.4375 9.75 5.4375 9.75 5 13 C4.34 13.66 3.68 14.32 3 15 C2.89042969 14.37351563 2.78085938 13.74703125 2.66796875 13.1015625 C2.50941406 12.28429687 2.35085937 11.46703125 2.1875 10.625 C2.03667969 9.81289062 1.88585937 9.00078125 1.73046875 8.1640625 C1.12455058 5.64179359 1.12455058 5.64179359 -2 4 C-5.54359483 3.67785502 -8.12780596 3.6421768 -11.4375 5 C-13.48200263 7.61696336 -13.42911739 9.80727905 -13.2734375 13.05859375 C-12.95061227 15.35065289 -12.28430581 17.07354129 -11 19 C-13.475 18.01 -13.475 18.01 -16 17 C-17.43639844 9.05654358 -17.43639844 9.05654358 -15.8125 5.125 C-11.24234765 -0.23310965 -6.88359087 -1.35670127 0 0 Z " fill="#307430" transform="translate(65,143)"/>
<path d="M0 0 C5.44305294 4.54065206 10.50260354 9.35078389 15.5 14.375 C16.22058594 15.09171875 16.94117188 15.8084375 17.68359375 16.546875 C21.7861098 20.65680971 25.69990169 24.86949859 29.49072266 29.26806641 C31.22877935 31.26253004 33.04788085 33.1489445 34.9375 35 C35.81728516 35.86625 35.81728516 35.86625 36.71484375 36.75 C37.35099609 37.36875 37.35099609 37.36875 38 38 C35 38 35 38 33.39355469 36.75 C32.82540039 36.1725 32.25724609 35.595 31.671875 35 C31.04071777 34.36433105 30.40956055 33.72866211 29.75927734 33.07373047 C29.09621582 32.38939941 28.4331543 31.70506836 27.75 31 C27.06760254 30.30664551 26.38520508 29.61329102 25.68212891 28.89892578 C21.94644326 25.08072318 18.32774315 21.20386518 14.89453125 17.109375 C11.53127228 13.36471552 7.88571737 9.88481834 4.26513672 6.39013672 C2.80715292 4.96289226 1.39892652 3.48517612 0 2 C0 1.34 0 0.68 0 0 Z " fill="#CBCCCF" transform="translate(198,83)"/>
<path d="M0 0 C2.86724686 0.57344937 3.8614515 0.8614515 6 3 C6.1953125 5.3828125 6.1953125 5.3828125 6.125 8.125 C6.10695312 9.03507813 6.08890625 9.94515625 6.0703125 10.8828125 C6.04710937 11.58148438 6.02390625 12.28015625 6 13 C4.35 13.66 2.7 14.32 1 15 C0 14 0 14 -0.09765625 10.83984375 C-0.08025391 8.90818359 -0.08025391 8.90818359 -0.0625 6.9375 C-0.05347656 5.64714844 -0.04445312 4.35679688 -0.03515625 3.02734375 C-0.02355469 2.02832031 -0.01195312 1.02929688 0 0 Z " fill="#676767" transform="translate(233,123)"/>
<path d="M0 0 C0 3.63 0 7.26 0 11 C-1.98 11.33 -3.96 11.66 -6 12 C-6.22893102 8.96666395 -6.35414522 6.02633186 -6 3 C-3.95583718 0.7514209 -3.03707969 0 0 0 Z " fill="#676767" transform="translate(23,123)"/>
<path d="M0 0 C2.43157657 0.15587029 4.11266564 -0.20293027 6.4375 -0.84375 C8.6875 -0.40625 8.6875 -0.40625 10.4375 0.15625 C10.4375 0.81625 10.4375 1.47625 10.4375 2.15625 C1.8575 2.15625 -6.7225 2.15625 -15.5625 2.15625 C-9.67547539 -0.7872623 -6.41678687 -0.86078848 0 0 Z " fill="#656565" transform="translate(187.5625,182.84375)"/>
<path d="M0 0 C2.77946252 0.06033566 4.58184751 0.12430828 6.95703125 1.59765625 C9.51748967 4.36472226 10.19286637 6.54599746 10.625 10.25 C10.1875 13.5 10.1875 13.5 8.1875 15.5 C8.06632812 14.90832031 7.94515625 14.31664062 7.8203125 13.70703125 C7.65273437 12.91683594 7.48515625 12.12664062 7.3125 11.3125 C7.15007812 10.53519531 6.98765625 9.75789062 6.8203125 8.95703125 C6.12069515 6.02346075 6.12069515 6.02346075 4.1875 1.5 C0.5575 1.83 -3.0725 2.16 -6.8125 2.5 C-4.35192818 0.03942818 -3.40528095 0.12252885 0 0 Z " fill="#355235" transform="translate(59.8125,142.5)"/>
<path d="M0 0 C0.66 0.66 1.32 1.32 2 2 C1.8668165 5.66254638 1.72325007 8.10984607 -0.625 11 C-3.98844312 12.41618658 -6.49623443 11.74118118 -10 11 C-10 10.67 -10 10.34 -10 10 C-9.071875 9.731875 -8.14375 9.46375 -7.1875 9.1875 C-3.49494953 7.81949169 -3.49494953 7.81949169 -1 5 C-0.27802838 2.39388923 -0.27802838 2.39388923 0 0 Z " fill="#01B701" transform="translate(65,150)"/>
<path d="M0 0 C3.41589896 -0.29071481 5.73842267 -0.08719244 9 1 C9.825 0.79375 10.65 0.5875 11.5 0.375 C12.325 0.25125 13.15 0.1275 14 0 C14.99 0.99 15.98 1.98 17 3 C10.73 3 4.46 3 -2 3 C-1.34 2.01 -0.68 1.02 0 0 Z " fill="#656565" transform="translate(120,182)"/>
<path d="M0 0 C3.66668859 -0.55797435 5.36314287 -0.44090109 8.4375 1.6875 C10 4 10 4 9.75 6.75 C9.5025 7.4925 9.255 8.235 9 9 C8.29875 8.195625 7.5975 7.39125 6.875 6.5625 C3.73708407 3.76566189 2.11241237 3.28691249 -2 3 C-1.34 2.01 -0.68 1.02 0 0 Z " fill="#3DFD3D" transform="translate(55,148)"/>
<path d="M0 0 C2.34087842 0.27539746 4.67402489 0.6186926 7 1 C9.71148998 0.82460642 12.31125325 0.42453896 15 0 C15 0.99 15 1.98 15 3 C9.06 3 3.12 3 -3 3 C-2.01 2.01 -1.02 1.02 0 0 Z " fill="#656565" transform="translate(88,182)"/>
<path d="M0 0 C0.6875 1.8125 0.6875 1.8125 1 4 C-0.61133319 6.55917624 -1.97643583 6.9928283 -4.875 7.875 C-8.56503279 8.02260131 -10.06978621 7.15456896 -13 5 C-11 4 -11 4 -7.625 4.1875 C-3.94289116 4.35660051 -3.94289116 4.35660051 -1.5625 2 C-1.046875 1.34 -0.53125 0.68 0 0 Z " fill="#378337" transform="translate(67,158)"/>
<path d="M0 0 C2.97 0.495 2.97 0.495 6 1 C6 2.65 6 4.3 6 6 C4.02 6 2.04 6 0 6 C0 4.02 0 2.04 0 0 Z " fill="#838383" transform="translate(233,148)"/>
<path d="M0 0 C1.875 0.375 1.875 0.375 4 1 C6.00946222 0.72949547 8.01354224 0.40632091 10 0 C10.66 0.99 11.32 1.98 12 3 C6.72 3 1.44 3 -4 3 C-2.68 2.01 -1.36 1.02 0 0 Z " fill="#656565" transform="translate(150,182)"/>
<path d="M0 0 C2.125 0.375 2.125 0.375 4 1 C4 2.65 4 4.3 4 6 C2.02 6.33 0.04 6.66 -2 7 C-2.125 4.625 -2.125 4.625 -2 2 C-1.34 1.34 -0.68 0.68 0 0 Z " fill="#7E7E7E" transform="translate(19,144)"/>
<path d="M0 0 C1.32 0.66 2.64 1.32 4 2 C3.34 2.66 2.68 3.32 2 4 C1.319375 4.8353125 1.319375 4.8353125 0.625 5.6875 C0.08875 6.120625 -0.4475 6.55375 -1 7 C-3.1875 6.6875 -3.1875 6.6875 -5 6 C-5 5.34 -5 4.68 -5 4 C-4.01 4 -3.02 4 -2 4 C-1.34 2.68 -0.68 1.36 0 0 Z " fill="#9E9E9E" transform="translate(22,181)"/>
<path d="M0 0 C0.66 0.33 1.32 0.66 2 1 C2 2.65 2 4.3 2 6 C0.02 6.33 -1.96 6.66 -4 7 C-4 5.35 -4 3.7 -4 2 C-2.125 0.9375 -2.125 0.9375 0 0 Z " fill="#777777" transform="translate(21,139)"/>
<path d="M0 0 C0 2.31 0 4.62 0 7 C-1.98 6.34 -3.96 5.68 -6 5 C-5.67 3.68 -5.34 2.36 -5 1 C-1.125 0 -1.125 0 0 0 Z " fill="#737373" transform="translate(239,136)"/>
<path d="M0 0 C1.65 0 3.3 0 5 0 C5.33 1.65 5.66 3.3 6 5 C4.35 5 2.7 5 1 5 C0.67 3.35 0.34 1.7 0 0 Z " fill="#97FF97" transform="translate(54,153)"/>
<path d="M0 0 C1.32 0.33 2.64 0.66 4 1 C4.33 2.32 4.66 3.64 5 5 C3.35 5.33 1.7 5.66 0 6 C0 4.02 0 2.04 0 0 Z " fill="#606060" transform="translate(233,123)"/>
<path d="M0 0 C1.6875 1.4375 1.6875 1.4375 3 3 C3 3.66 3 4.32 3 5 C-0.66881155 4.29445932 -3.70450534 2.72264494 -7 1 C-3.375 -1.125 -3.375 -1.125 0 0 Z " fill="#9F9F9F" transform="translate(236,183)"/>
<path d="M0 0 C0 2.31 0 4.62 0 7 C-2.475 6.01 -2.475 6.01 -5 5 C-4.625 3.0625 -4.625 3.0625 -4 1 C-2 0 -2 0 0 0 Z " fill="#5E5E5E" transform="translate(23,123)"/>
<path d="M0 0 C2.475 0.99 2.475 0.99 5 2 C5.125 5.375 5.125 5.375 5 9 C4.34 9.66 3.68 10.32 3 11 C2.86722656 10.37351563 2.73445313 9.74703125 2.59765625 9.1015625 C2.42105469 8.28429687 2.24445313 7.46703125 2.0625 6.625 C1.80146484 5.40683594 1.80146484 5.40683594 1.53515625 4.1640625 C1.07669307 1.970537 1.07669307 1.970537 0 0 Z " fill="#2E7D2E" transform="translate(65,147)"/>
<path d="M0 0 C3.75 0.8125 3.75 0.8125 7 2 C7 2.33 7 2.66 7 3 C3.37 3 -0.26 3 -4 3 C-2.68 2.01 -1.36 1.02 0 0 Z " fill="#656565" transform="translate(69,182)"/>
<path d="M0 0 C2.35953094 2.35953094 2.49141413 3.77895617 3 7 C4.65 7 6.3 7 8 7 C8 7.33 8 7.66 8 8 C5.125 8.125 5.125 8.125 2 8 C0 6 0 6 -0.125 2.875 C-0.08375 1.92625 -0.0425 0.9775 0 0 Z " fill="#58F858" transform="translate(52,152)"/>
<path d="M0 0 C1.98 0 3.96 0 6 0 C5.67 0.99 5.34 1.98 5 3 C2.9375 3.6875 2.9375 3.6875 1 4 C0.67 2.68 0.34 1.36 0 0 Z " fill="#6D6D6D" transform="translate(233,134)"/>
<path d="M0 0 C3.0831351 1.19899698 6.06279492 2.47700477 9 4 C7.3125 4.8125 7.3125 4.8125 5 5 C2.25 2.5625 2.25 2.5625 0 0 Z " fill="#456545" transform="translate(50,161)"/>
</svg>
