<svg xmlns="http://www.w3.org/2000/svg" viewBox="0 0 474 474"><g fill="none" stroke-width="2"><path stroke="#fbe099" d="M227.78 34.98C157.22 40.05 93.12 75.12 56.67 136.93c-8.03 13.63-15.21 28.46-19.84 44.13-4.39 14.85-8.48 30.43-9.35 43.69-.47 7.3-1.79 15.04-1.2 22.33.51 6.38.71 13.33 1.54 19.05q4.09 27.96 14.03 54.42c5.91 15.72 14.89 30.37 24.35 44 24.38 35.17 61.48 62.97 102.31 76.37 17.77 5.84 36.84 10.8 55.51 11.85 26.33 1.48 49.02-3.27 73.99-10.77 51.7-15.54 95.68-53.28 121.2-101.15 9.24-17.33 13.47-31.01 19.04-51.85 8.49-31.75 7.56-62.15-.75-93.69q-4.44-16.82-7.27-24.01C398.65 91.21 329.97 42.33 244.73 35.18q-9.11-.76-16.95-.2" vector-effect="non-scaling-stroke"/><path stroke="#fbcf4f" d="M120.86 89.98q-9.34 8.05-16.91 17.78" vector-effect="non-scaling-stroke"/><path stroke="#fac819" d="m103.95 107.76-2.71-.97a.63.62 33.3 0 0-.62.12l-10.84 9.66q-.37.32-.84.43-2.28.54-2.84 2.58a1.78 1.69 78.4 0 1-.51.82q-6.36 5.66-10.26 13.13c-1.14 2.19-3.32 3.44-3.9 6.4q-.09.49-.44.84-3.4 3.47-4.92 8.07-.49 1.48-1.43 2.61c-2.2 2.66-2.75 5.29-4.66 8.05q-2.3 3.32-6.55 15.88-.15.45-.54.73-.28.22-.39.64c-1.89 7.41-6.1 12.87-5.8 21.23q.02.53-.27.98l-.91 1.4q-.3.46-.28 1.01c.09 3.54-1.93 6.13-2.53 8.87q-2.35 10.64-2.57 21.53c-.17 7.99-.52 13.94-.37 20.9.08 4.21-.72 10.39.63 16.15q1.07 4.56 2.84 14.74.03.18-.03.37-.05.16-.09.33-.12.48.03.95c2.89 8.62 4.15 17.52 7.94 25.91 1.9 4.2 2.9 8.62 4.95 12.65q1.85 3.65 3.42 7.44c1.07 2.57 2.85 4.83 4.06 7.39q2.47 5.19 5.35 10.16 1.8 3.11 5.88 8.05c4.13 5.02 7.05 10.81 11.39 15.45q5.43 5.82 10.77 11.73c3.62 4.01 8.31 6.59 12.32 9.94q2.74 2.29 4.67 3.74c3.82 2.89 6.78 6.96 9.57 8.65q8.33 5.06 16.87 9.78c5.71 3.16 11.45 4.82 17.64 7.95q6.49 3.27 14.9 5.78.12.04.12.17 0 .12-.02.26-.03.31.28.38 8.03 1.88 15.9 4.31c2.48.76 5.2.51 7.82 1.02 9.04 1.79 18.13 2.59 27.17 4.23 6.14 1.11 13.19.57 19.45.53q.07 0 .1-.07.04-.13.09-.27.03-.11.15-.11c5.82 0 12.46-1.36 16.83-1.93 3.61-.47 9.6-.59 12.81-1.97q.46-.19.95-.13 3.11.37 5.86-.94c4.39-2.1 9.47-3.14 14.16-4.36 1.65-.43 2.56-1.96 4.32-2.4q7.99-2.02 15.46-5.4c4.64-2.1 9.99-4.16 14.74-6.82a.35.34-15 0 0 .18-.3v-.31a.41.4 80.6 0 1 .28-.4c2.07-.67 2.98-2.18 4.7-3.01 3.88-1.87 8.08-3.24 11.44-5.56q3.1-2.14 5.9-4.63c4.83-4.29 9.5-7.73 14.06-11.85 2.32-2.09 6.34-5.27 9.19-8.4 5.5-6.05 10.36-10.57 14.19-15.35 2.48-3.08 4.78-7.65 7.51-11.25q3.8-5 7.19-10.28.27-.41.25-.9c-.02-.52 1.8-2.69 2.04-3.83q.1-.47.4-.84c.52-.66.99-1.07 1.35-1.87q3.93-8.94 8.27-17.68c3.21-6.48 4.86-12.51 6.65-19.25.95-3.59 2.79-7.47 3.75-11.36 2.22-8.9 4.49-17.37 4.09-26.51-.17-3.95.98-7.57 1.03-10.77q.21-15.38-.89-30.73-.01-.14-.15-.18-.13-.03-.28-.06-.28-.06-.29-.35c-.23-5.29-1.7-10.63-2.31-15.48q-.86-6.87-2.72-13.57-.13-.45-.44-.81-.53-.61-.26-1.18.21-.44.06-.9-2.5-7.54-5.18-15.01c-1.86-5.17-5.33-10.3-7.42-15.42q-.11-.25-.39-.32-.26-.06-.33-.32c-1.2-4.56-4.28-9.22-5.91-12.48q-2.94-5.89-7.29-10.91-1.36-1.56-3.87-7.54-.17-.39-.59-.46-.13-.03-.28 0-.37.08-.5-.27-1.03-2.84-3.8-3.92-.45-.17-.76-.54c-4.26-5.03-8.94-8.73-12.48-14.5-.51-.82-.54-2.34-1.2-3.25q-6.95-9.55-15.69-17.44c-7.04-6.36-11.73-15.36-21.56-17.57q-.48-.11-.91.12l-1.63.87q-.51.28-1.01-.01l-6.98-3.97a.98.96-37.5 0 0-.72-.09q-4.05 1.13-8.05.01-.38-.11-.78.87" vector-effect="non-scaling-stroke"/><path stroke="#fbd774" d="M316.93 66.57c-2.35-1.47-4.59-2.93-7.12-4.11-14.37-6.67-26.85-12.43-39.31-14.98q-5.8-1.19-23.02-3.18c-15.3-1.76-25.15-.14-42.73 2.25q-6.69.9-9.76 1.92-22.63 7.46-36.78 15-17.69 9.42-37.35 26.51" vector-effect="non-scaling-stroke"/><path stroke="#fede5b" d="M316.93 66.57c10.74 6.92 20.08 12.69 30.54 22.25" vector-effect="non-scaling-stroke"/><path stroke="#ffe690" d="m347.47 88.82.02 1.92q0 .52-.52.49c-4.73-.23-9.16.14-13.93-.36-5.01-.52-12.31-1.19-16.72.86q-.08.04-.14.03-.15-.03-.16-.2 0-.1-.11-.08-4.58.66-6.91 4.55" vector-effect="non-scaling-stroke"/><path stroke="#887f63" d="M309 96.03q-7.93-3.79-15.42-5.88c-25.8-7.23-52.13-11.51-79.24-7.76-10.13 1.39-21.39 4.65-31.92 7.5q-5.3 1.43-16.39 7.73" vector-effect="non-scaling-stroke"/><path stroke="#ffe690" d="M166.03 97.62q-3.11-2.86-7.86-1.95a.14.14 0 0 1-.17-.14v-.29q-.01-.49-.5-.49h-3.76a1.44 1.42 60.7 0 1-.76-.22q-1.71-1.07-3.72-1.15-11.94-.47-23.82-.56c-1.96-.01-4.26-.83-4.58-2.84" vector-effect="non-scaling-stroke"/><path stroke="#88783e" d="M309 96.03c2.46 1.08 7.44 2.46 8.58 4.9a1.14 1.13 79.1 0 1-1.09 1.61q-9.63-.5-18.13 2.57" vector-effect="non-scaling-stroke"/><path stroke="#887809" d="M298.36 105.11c-14.13 5.75-27.82 12.45-40.23 21.42q-35.53 25.69-60.67 61.74c-4.69 6.72-9.11 14.57-13.44 21.98-5.45 9.35-9.62 19.35-14.71 30.32q-5.07 10.91-8.5 25.45-.36 1.53-1.7 3.25-.33.43-.82.2l-26.39-12.24" vector-effect="non-scaling-stroke"/><path stroke="#88783e" d="M107.78 145.73c12.44-16.16 26.84-27.89 43.22-39.43 4.53-3.19 9.98-5.63 15.03-8.68M374.39 152.98c-3.25-6.27-8.37-11.04-12.89-16.21-4.91-5.63-11.1-9.71-16.87-14.42a1.05 1.05 0 0 0-.92-.2l-12.04 2.93" vector-effect="non-scaling-stroke"/><path stroke="#ffdf36" d="M331.67 125.08q-.41-3.35-3.24-4.49-8.95-3.62-23.59-10.58c-2.88-1.37-5.26-1.39-6.48-4.9" vector-effect="non-scaling-stroke"/><path stroke="#fed736" d="M103.95 107.76q-11.13 13.67-18.4 29.38c-1.22 2.65-.83 5.04-.37 7.76a2.43 2.42-6.3 0 0 2.54 2.03c4.01-.24 7.88-1.72 11.71-1.7q4.2.02 8.35.5" vector-effect="non-scaling-stroke"/><path stroke="#877009" d="M107.78 145.73c-4.93 6.8-9.86 13.35-13.5 20.91-7.36 15.33-15.54 33.05-14.08 50.53q.12 1.45 1.62 2.99c15.32 15.71 30.19 27.85 50.08 37.07" vector-effect="non-scaling-stroke"/><path stroke="#fed700" d="M131.9 257.23q-2.86 1.44 2.78 1.87.14.02.13.16l-.07.5a.34.34 0 0 1-.51.24q-2.02-1.23-3.93-.31-.41.19-.68-.17-1.39-1.83-4.07-1.07a1.24 1.23-21.4 0 0-.77 1.75q1.65 3.2 4.97 4.73a1.92 1.92 0 0 1 .93 2.57l-2.5 5.24q-.17.36-.12.76.24 1.95-.71 3.75a1.15 1.12-83.3 0 1-.69.56l-5.3 1.59q-.3.09-.1.33l3.2 3.95a.14.13-23.2 0 0 .14.05q.27-.05.45.09.29.24-.08.31l-1.49.29" vector-effect="non-scaling-stroke"/><path stroke="#877009" d="M123.48 284.42c-7.3-3.09-13.64-7.51-20.32-11.81-11.28-7.29-20.12-15.47-28.05-26.08q-.66-.88-1.6-.32-.75.45-.55 2.05c2.44 18.74 5.76 39.22 13.16 56.7 4.53 10.7 9.18 21.04 15.62 30.9 18.02 27.61 39.89 44.25 68.97 58.08q3.96 1.88 8.91 3.47c7.6 2.44 16.46 5.68 22.8 7.3 28.74 7.31 57.97 5.61 85.36-6.47q2.92-1.28 4.18-3.47" vector-effect="non-scaling-stroke"/><path stroke="#fed700" d="M291.96 394.77q.8-.23 1.14-.06.21.1.04.27l-.23.24q-.25.25.02.47 1.03.84 2.34.54.44-.11.64-.52l.32-.67q.2-.42.61-.65c3.3-1.82 4.92-4.99 7.65-6.6q2.21-1.3 4.71-2.07a1 .98-35.3 0 1 .88.14q1.97 1.41 4.38 1.43a.82.8 14.3 0 0 .71-.41q1.14-1.97 3.89-3.04" vector-effect="non-scaling-stroke"/><path stroke="#877009" d="M319.06 383.84q-.83 1.27-1.03 2.65-.09.6.45.34 6.11-3 10.22-6.14 21.09-16.1 38.59-37.47c4.26-5.19 7.74-11.07 11.51-16.85q4.59-7.05 7.48-13.33c6.82-14.83 12.45-30.21 14.22-45.03q5.5-46.09-12.03-89.5-5.76-14.26-14.08-25.53" vector-effect="non-scaling-stroke"/><path stroke="#fed736" d="M374.39 152.98q1.77-1.57 4.63-2.89 2.03-.93 4.75-3.39c5.65-5.09-.47-11.61-2.89-16.29q-12.46-24.14-33.41-41.59" vector-effect="non-scaling-stroke"/><path stroke="#887809" d="M331.67 125.08q-9.52 2.82-19.36 5.49-4.37 1.19-8.24 3.26-20.37 10.9-25.39 14.6-9.4 6.92-19.03 13.25a1.44 1.44 0 0 0-.36 2.07c4.58 6.11 10.38 12.21 14.5 17.75 17.25 23.22 29.78 45.78 40.3 72.33 3.68 9.28 5.57 19.08 8.32 29.74 8.17 31.66 10.57 69.77-3.35 100.27" vector-effect="non-scaling-stroke"/><path stroke="#887809" d="M291.96 394.77q8.2-21.5 9.55-44.03c.92-15.3-1.21-32.78-3.16-48.52a.91.9-10.4 0 0-1.12-.77q-36.98 9.03-75.05 7.8c-22.45-.72-40.16-5.49-60.44-10.26-13.52-3.18-25.89-8.73-38.26-14.57M235.3 107.25c-21.32 1.17-43.42 6.25-61.84 17.08-30.48 17.9-53.41 42.58-64.57 76.83-.78 2.38-2.14 6.94.52 8.93 7.43 5.55 14.75 12.22 22.53 16.64q5.07 2.88 10.55 5.59a.93.92 27.1 0 0 1.22-.39c3.61-6.67 6.39-14.84 9.3-20.72 14.28-28.88 30.92-52.82 52.98-75.63 6.31-6.52 13.49-13.57 20.72-19.1 2.44-1.86 8.08-5.45 9.3-8.2a.74.73 10.6 0 0-.71-1.03M298.94 168.38q-.19 1.3.34 2.09 5.48 8.19 10.94 16.39c6.38 9.57 11.52 19.47 16.88 29.58 4.74 8.95 8.13 18.51 11.93 27.93 5.92 14.68 8.18 27.26 11.28 41.43 1.8 8.24 2.99 17.97 4.94 26.97a.85.85 0 0 0 1.32.51c1.73-1.22 2.49-5.34 3.2-7.28q.87-2.39 2.3-5.26c5.75-11.5 11.44-26.11 11.86-39.05q.3-9.52-.12-29.25c-.48-21.89-9.48-48-22.29-65.31-2.42-3.27-11.57-16.56-15.99-15.33-11.48 3.19-25.83 8.33-36.21 15.96q-.32.23-.38.62" vector-effect="non-scaling-stroke"/><path stroke="#887809" d="M135.44 335.65c16.32 20.33 41.07 32.19 65.57 40.55q28.95 9.88 58.9 3.4c2.99-.65 9.35-1.91 10.39-5.11q6.26-19.26 4.14-40.81-.04-.45-.49-.39c-30.49 4.06-61 4.04-91.28-1.66-5.16-.98-11.66-2.78-17.54-3.93-13.28-2.62-25.43-6.45-37.63-12.14q-3.27-1.52-6.31-2.49a.89.88 86.7 0 0-1.07 1.21c3.83 8.51 9.68 14.35 15.32 21.37" vector-effect="non-scaling-stroke"/></g><path fill="#fff" d="M0 0h474v474H0V0Zm227.78 34.98C157.22 40.05 93.12 75.12 56.67 136.93c-8.03 13.63-15.21 28.46-19.84 44.13-4.39 14.85-8.48 30.43-9.35 43.69-.47 7.3-1.79 15.04-1.2 22.33.51 6.38.71 13.33 1.54 19.05q4.09 27.96 14.03 54.42c5.91 15.72 14.89 30.37 24.35 44 24.38 35.17 61.48 62.97 102.31 76.37 17.77 5.84 36.84 10.8 55.51 11.85 26.33 1.48 49.02-3.27 73.99-10.77 51.7-15.54 95.68-53.28 121.2-101.15 9.24-17.33 13.47-31.01 19.04-51.85 8.49-31.75 7.56-62.15-.75-93.69q-4.44-16.82-7.27-24.01C398.65 91.21 329.97 42.33 244.73 35.18q-9.11-.76-16.95-.2Z"/><path fill="#f7c032" d="M56.67 136.93C93.12 75.12 157.22 40.05 227.78 34.98q7.84-.56 16.95.2c85.24 7.15 153.92 56.03 185.5 136.12q2.83 7.19 7.27 24.01c8.31 31.54 9.24 61.94.75 93.69-5.57 20.84-9.8 34.52-19.04 51.85-25.52 47.87-69.5 85.61-121.2 101.15-24.97 7.5-47.66 12.25-73.99 10.77-18.67-1.05-37.74-6.01-55.51-11.85-40.83-13.4-77.93-41.2-102.31-76.37-9.46-13.63-18.44-28.28-24.35-44q-9.94-26.46-14.03-54.42c-.83-5.72-1.03-12.67-1.54-19.05-.59-7.29.73-15.03 1.2-22.33.87-13.26 4.96-28.84 9.35-43.69 4.63-15.67 11.81-30.5 19.84-44.13Zm64.19-46.95q-9.34 8.05-16.91 17.78l-2.71-.97a.63.62 33.3 0 0-.62.12l-10.84 9.66q-.37.32-.84.43-2.28.54-2.84 2.58a1.78 1.69 78.4 0 1-.51.82q-6.36 5.66-10.26 13.13c-1.14 2.19-3.32 3.44-3.9 6.4q-.09.49-.44.84-3.4 3.47-4.92 8.07-.49 1.48-1.43 2.61c-2.2 2.66-2.75 5.29-4.66 8.05q-2.3 3.32-6.55 15.88-.15.45-.54.73-.28.22-.39.64c-1.89 7.41-6.1 12.87-5.8 21.23q.02.53-.27.98l-.91 1.4q-.3.46-.28 1.01c.09 3.54-1.93 6.13-2.53 8.87q-2.35 10.64-2.57 21.53c-.17 7.99-.52 13.94-.37 20.9.08 4.21-.72 10.39.63 16.15q1.07 4.56 2.84 14.74.03.18-.03.37-.05.16-.09.33-.12.48.03.95c2.89 8.62 4.15 17.52 7.94 25.91 1.9 4.2 2.9 8.62 4.95 12.65q1.85 3.65 3.42 7.44c1.07 2.57 2.85 4.83 4.06 7.39q2.47 5.19 5.35 10.16 1.8 3.11 5.88 8.05c4.13 5.02 7.05 10.81 11.39 15.45q5.43 5.82 10.77 11.73c3.62 4.01 8.31 6.59 12.32 9.94q2.74 2.29 4.67 3.74c3.82 2.89 6.78 6.96 9.57 8.65q8.33 5.06 16.87 9.78c5.71 3.16 11.45 4.82 17.64 7.95q6.49 3.27 14.9 5.78.12.04.12.17 0 .12-.02.26-.03.31.28.38 8.03 1.88 15.9 4.31c2.48.76 5.2.51 7.82 1.02 9.04 1.79 18.13 2.59 27.17 4.23 6.14 1.11 13.19.57 19.45.53q.07 0 .1-.07.04-.13.09-.27.03-.11.15-.11c5.82 0 12.46-1.36 16.83-1.93 3.61-.47 9.6-.59 12.81-1.97q.46-.19.95-.13 3.11.37 5.86-.94c4.39-2.1 9.47-3.14 14.16-4.36 1.65-.43 2.56-1.96 4.32-2.4q7.99-2.02 15.46-5.4c4.64-2.1 9.99-4.16 14.74-6.82a.35.34-15 0 0 .18-.3v-.31a.41.4 80.6 0 1 .28-.4c2.07-.67 2.98-2.18 4.7-3.01 3.88-1.87 8.08-3.24 11.44-5.56q3.1-2.14 5.9-4.63c4.83-4.29 9.5-7.73 14.06-11.85 2.32-2.09 6.34-5.27 9.19-8.4 5.5-6.05 10.36-10.57 14.19-15.35 2.48-3.08 4.78-7.65 7.51-11.25q3.8-5 7.19-10.28.27-.41.25-.9c-.02-.52 1.8-2.69 2.04-3.83q.1-.47.4-.84c.52-.66.99-1.07 1.35-1.87q3.93-8.94 8.27-17.68c3.21-6.48 4.86-12.51 6.65-19.25.95-3.59 2.79-7.47 3.75-11.36 2.22-8.9 4.49-17.37 4.09-26.51-.17-3.95.98-7.57 1.03-10.77q.21-15.38-.89-30.73-.01-.14-.15-.18-.13-.03-.28-.06-.28-.06-.29-.35c-.23-5.29-1.7-10.63-2.31-15.48q-.86-6.87-2.72-13.57-.13-.45-.44-.81-.53-.61-.26-1.18.21-.44.06-.9-2.5-7.54-5.18-15.01c-1.86-5.17-5.33-10.3-7.42-15.42q-.11-.25-.39-.32-.26-.06-.33-.32c-1.2-4.56-4.28-9.22-5.91-12.48q-2.94-5.89-7.29-10.91-1.36-1.56-3.87-7.54-.17-.39-.59-.46-.13-.03-.28 0-.37.08-.5-.27-1.03-2.84-3.8-3.92-.45-.17-.76-.54c-4.26-5.03-8.94-8.73-12.48-14.5-.51-.82-.54-2.34-1.2-3.25q-6.95-9.55-15.69-17.44c-7.04-6.36-11.73-15.36-21.56-17.57q-.48-.11-.91.12l-1.63.87q-.51.28-1.01-.01l-6.98-3.97a.98.96-37.5 0 0-.72-.09q-4.05 1.13-8.05.01-.38-.11-.78.87c-2.35-1.47-4.59-2.93-7.12-4.11-14.37-6.67-26.85-12.43-39.31-14.98q-5.8-1.19-23.02-3.18c-15.3-1.76-25.15-.14-42.73 2.25q-6.69.9-9.76 1.92-22.63 7.46-36.78 15-17.69 9.42-37.35 26.51Z"/><path fill="#ffedb5" d="M316.93 66.57c10.74 6.92 20.08 12.69 30.54 22.25l.02 1.92q0 .52-.52.49c-4.73-.23-9.16.14-13.93-.36-5.01-.52-12.31-1.19-16.72.86q-.08.04-.14.03-.15-.03-.16-.2 0-.1-.11-.08-4.58.66-6.91 4.55-7.93-3.79-15.42-5.88c-25.8-7.23-52.13-11.51-79.24-7.76-10.13 1.39-21.39 4.65-31.92 7.5q-5.3 1.43-16.39 7.73-3.11-2.86-7.86-1.95a.14.14 0 0 1-.17-.14v-.29q-.01-.49-.5-.49h-3.76a1.44 1.42 60.7 0 1-.76-.22q-1.71-1.07-3.72-1.15-11.94-.47-23.82-.56c-1.96-.01-4.26-.83-4.58-2.84q19.66-17.09 37.35-26.51 14.15-7.54 36.78-15 3.07-1.02 9.76-1.92c17.58-2.39 27.43-4.01 42.73-2.25q17.22 1.99 23.02 3.18c12.46 2.55 24.94 8.31 39.31 14.98 2.53 1.18 4.77 2.64 7.12 4.11Z"/><path fill="#fdcf00" d="M103.95 107.76q-11.13 13.67-18.4 29.38c-1.22 2.65-.83 5.04-.37 7.76a2.43 2.42-6.3 0 0 2.54 2.03c4.01-.24 7.88-1.72 11.71-1.7q4.2.02 8.35.5c-4.93 6.8-9.86 13.35-13.5 20.91-7.36 15.33-15.54 33.05-14.08 50.53q.12 1.45 1.62 2.99c15.32 15.71 30.19 27.85 50.08 37.07q-2.86 1.44 2.78 1.87.14.02.13.16l-.07.5a.34.34 0 0 1-.51.24q-2.02-1.23-3.93-.31-.41.19-.68-.17-1.39-1.83-4.07-1.07a1.24 1.23-21.4 0 0-.77 1.75q1.65 3.2 4.97 4.73a1.92 1.92 0 0 1 .93 2.57l-2.5 5.24q-.17.36-.12.76.24 1.95-.71 3.75a1.15 1.12-83.3 0 1-.69.56l-5.3 1.59q-.3.09-.1.33l3.2 3.95a.14.13-23.2 0 0 .14.05q.27-.05.45.09.29.24-.08.31l-1.49.29c-7.3-3.09-13.64-7.51-20.32-11.81-11.28-7.29-20.12-15.47-28.05-26.08q-.66-.88-1.6-.32-.75.45-.55 2.05c2.44 18.74 5.76 39.22 13.16 56.7 4.53 10.7 9.18 21.04 15.62 30.9 18.02 27.61 39.89 44.25 68.97 58.08q3.96 1.88 8.91 3.47c7.6 2.44 16.46 5.68 22.8 7.3 28.74 7.31 57.97 5.61 85.36-6.47q2.92-1.28 4.18-3.47.8-.23 1.14-.06.21.1.04.27l-.23.24q-.25.25.02.47 1.03.84 2.34.54.44-.11.64-.52l.32-.67q.2-.42.61-.65c3.3-1.82 4.92-4.99 7.65-6.6q2.21-1.3 4.71-2.07a1 .98-35.3 0 1 .88.14q1.97 1.41 4.38 1.43a.82.8 14.3 0 0 .71-.41q1.14-1.97 3.89-3.04-.83 1.27-1.03 2.65-.09.6.45.34 6.11-3 10.22-6.14 21.09-16.1 38.59-37.47c4.26-5.19 7.74-11.07 11.51-16.85q4.59-7.05 7.48-13.33c6.82-14.83 12.45-30.21 14.22-45.03q5.5-46.09-12.03-89.5-5.76-14.26-14.08-25.53 1.77-1.57 4.63-2.89 2.03-.93 4.75-3.39c5.65-5.09-.47-11.61-2.89-16.29q-12.46-24.14-33.41-41.59c-10.46-9.56-19.8-15.33-30.54-22.25q.4-.98.78-.87 4 1.12 8.05-.01a.98.96-37.5 0 1 .72.09l6.98 3.97q.5.29 1.01.01l1.63-.87q.43-.23.91-.12c9.83 2.21 14.52 11.21 21.56 17.57q8.74 7.89 15.69 17.44c.66.91.69 2.43 1.2 3.25 3.54 5.77 8.22 9.47 12.48 14.5q.31.37.76.54 2.77 1.08 3.8 3.92.13.35.5.27.15-.03.28 0 .42.07.59.46 2.51 5.98 3.87 7.54 4.35 5.02 7.29 10.91c1.63 3.26 4.71 7.92 5.91 12.48q.07.26.33.32.28.07.39.32c2.09 5.12 5.56 10.25 7.42 15.42q2.68 7.47 5.18 15.01.15.46-.06.9-.27.57.26 1.18.31.36.44.81 1.86 6.7 2.72 13.57c.61 4.85 2.08 10.19 2.31 15.48q.01.29.29.35.15.03.28.06.14.04.15.18 1.1 15.35.89 30.73c-.05 3.2-1.2 6.82-1.03 10.77.4 9.14-1.87 17.61-4.09 26.51-.96 3.89-2.8 7.77-3.75 11.36-1.79 6.74-3.44 12.77-6.65 19.25q-4.34 8.74-8.27 17.68c-.36.8-.83 1.21-1.35 1.87q-.3.37-.4.84c-.24 1.14-2.06 3.31-2.04 3.83q.02.49-.25.9-3.39 5.28-7.19 10.28c-2.73 3.6-5.03 8.17-7.51 11.25-3.83 4.78-8.69 9.3-14.19 15.35-2.85 3.13-6.87 6.31-9.19 8.4-4.56 4.12-9.23 7.56-14.06 11.85q-2.8 2.49-5.9 4.63c-3.36 2.32-7.56 3.69-11.44 5.56-1.72.83-2.63 2.34-4.7 3.01a.41.4 80.6 0 0-.28.4v.31a.35.34-15 0 1-.18.3c-4.75 2.66-10.1 4.72-14.74 6.82q-7.47 3.38-15.46 5.4c-1.76.44-2.67 1.97-4.32 2.4-4.69 1.22-9.77 2.26-14.16 4.36q-2.75 1.31-5.86.94-.49-.06-.95.13c-3.21 1.38-9.2 1.5-12.81 1.97-4.37.57-11.01 1.93-16.83 1.93q-.12 0-.15.11-.05.14-.09.27-.03.07-.1.07c-6.26.04-13.31.58-19.45-.53-9.04-1.64-18.13-2.44-27.17-4.23-2.62-.51-5.34-.26-7.82-1.02q-7.87-2.43-15.9-4.31-.31-.07-.28-.38.02-.14.02-.26 0-.13-.12-.17-8.41-2.51-14.9-5.78c-6.19-3.13-11.93-4.79-17.64-7.95q-8.54-4.72-16.87-9.78c-2.79-1.69-5.75-5.76-9.57-8.65q-1.93-1.45-4.67-3.74c-4.01-3.35-8.7-5.93-12.32-9.94q-5.34-5.91-10.77-11.73c-4.34-4.64-7.26-10.43-11.39-15.45q-4.08-4.94-5.88-8.05-2.88-4.97-5.35-10.16c-1.21-2.56-2.99-4.82-4.06-7.39q-1.57-3.79-3.42-7.44c-2.05-4.03-3.05-8.45-4.95-12.65-3.79-8.39-5.05-17.29-7.94-25.91q-.15-.47-.03-.95.04-.17.09-.33.06-.19.03-.37-1.77-10.18-2.84-14.74c-1.35-5.76-.55-11.94-.63-16.15-.15-6.96.2-12.91.37-20.9q.22-10.89 2.57-21.53c.6-2.74 2.62-5.33 2.53-8.87q-.02-.55.28-1.01l.91-1.4q.29-.45.27-.98c-.3-8.36 3.91-13.82 5.8-21.23q.11-.42.39-.64.39-.28.54-.73 4.25-12.56 6.55-15.88c1.91-2.76 2.46-5.39 4.66-8.05q.94-1.13 1.43-2.61 1.52-4.6 4.92-8.07.35-.35.44-.84c.58-2.96 2.76-4.21 3.9-6.4q3.9-7.47 10.26-13.13a1.78 1.69 78.4 0 0 .51-.82q.56-2.04 2.84-2.58.47-.11.84-.43l10.84-9.66a.63.62 33.3 0 1 .62-.12l2.71.97Z"/><path fill="#101111" d="M309 96.03c2.46 1.08 7.44 2.46 8.58 4.9a1.14 1.13 79.1 0 1-1.09 1.61q-9.63-.5-18.13 2.57c-14.13 5.75-27.82 12.45-40.23 21.42q-35.53 25.69-60.67 61.74c-4.69 6.72-9.11 14.57-13.44 21.98-5.45 9.35-9.62 19.35-14.71 30.32q-5.07 10.91-8.5 25.45-.36 1.53-1.7 3.25-.33.43-.82.2l-26.39-12.24c-19.89-9.22-34.76-21.36-50.08-37.07q-1.5-1.54-1.62-2.99c-1.46-17.48 6.72-35.2 14.08-50.53 3.64-7.56 8.57-14.11 13.5-20.91 12.44-16.16 26.84-27.89 43.22-39.43 4.53-3.19 9.98-5.63 15.03-8.68q11.09-6.3 16.39-7.73c10.53-2.85 21.79-6.11 31.92-7.5 27.11-3.75 53.44.53 79.24 7.76q7.49 2.09 15.42 5.88Zm-73.7 11.22c-21.32 1.17-43.42 6.25-61.84 17.08-30.48 17.9-53.41 42.58-64.57 76.83-.78 2.38-2.14 6.94.52 8.93 7.43 5.55 14.75 12.22 22.53 16.64q5.07 2.88 10.55 5.59a.93.92 27.1 0 0 1.22-.39c3.61-6.67 6.39-14.84 9.3-20.72 14.28-28.88 30.92-52.82 52.98-75.63 6.31-6.52 13.49-13.57 20.72-19.1 2.44-1.86 8.08-5.45 9.3-8.2a.74.73 10.6 0 0-.71-1.03Z"/><path fill="#ffde6b" d="M347.47 88.82q20.95 17.45 33.41 41.59c2.42 4.68 8.54 11.2 2.89 16.29q-2.72 2.46-4.75 3.39-2.86 1.32-4.63 2.89c-3.25-6.27-8.37-11.04-12.89-16.21-4.91-5.63-11.1-9.71-16.87-14.42a1.05 1.05 0 0 0-.92-.2l-12.04 2.93q-.41-3.35-3.24-4.49-8.95-3.62-23.59-10.58c-2.88-1.37-5.26-1.39-6.48-4.9q8.5-3.07 18.13-2.57a1.14 1.13 79.1 0 0 1.09-1.61c-1.14-2.44-6.12-3.82-8.58-4.9q2.33-3.89 6.91-4.55.11-.02.11.08.01.17.16.2.06.01.14-.03c4.41-2.05 11.71-1.38 16.72-.86 4.77.5 9.2.13 13.93.36q.52.03.52-.49l-.02-1.92ZM120.86 89.98c.32 2.01 2.62 2.83 4.58 2.84q11.88.09 23.82.56 2.01.08 3.72 1.15a1.44 1.42 60.7 0 0 .76.22h3.76q.49 0 .5.49v.29a.14.14 0 0 0 .17.14q4.75-.91 7.86 1.95c-5.05 3.05-10.5 5.49-15.03 8.68-16.38 11.54-30.78 23.27-43.22 39.43q-4.15-.48-8.35-.5c-3.83-.02-7.7 1.46-11.71 1.7a2.43 2.42-6.3 0 1-2.54-2.03c-.46-2.72-.85-5.11.37-7.76q7.27-15.71 18.4-29.38 7.57-9.73 16.91-17.78Z"/><path fill="#ffdf00" d="M298.36 105.11c1.22 3.51 3.6 3.53 6.48 4.9q14.64 6.96 23.59 10.58 2.83 1.14 3.24 4.49-9.52 2.82-19.36 5.49-4.37 1.19-8.24 3.26-20.37 10.9-25.39 14.6-9.4 6.92-19.03 13.25a1.44 1.44 0 0 0-.36 2.07c4.58 6.11 10.38 12.21 14.5 17.75 17.25 23.22 29.78 45.78 40.3 72.33 3.68 9.28 5.57 19.08 8.32 29.74 8.17 31.66 10.57 69.77-3.35 100.27q-2.75 1.07-3.89 3.04a.82.8 14.3 0 1-.71.41q-2.41-.02-4.38-1.43a1 .98-35.3 0 0-.88-.14q-2.5.77-4.71 2.07c-2.73 1.61-4.35 4.78-7.65 6.6q-.41.23-.61.65l-.32.67q-.2.41-.64.52-1.31.3-2.34-.54-.27-.22-.02-.47l.23-.24q.17-.17-.04-.27-.34-.17-1.14.06 8.2-21.5 9.55-44.03c.92-15.3-1.21-32.78-3.16-48.52a.91.9-10.4 0 0-1.12-.77q-36.98 9.03-75.05 7.8c-22.45-.72-40.16-5.49-60.44-10.26-13.52-3.18-25.89-8.73-38.26-14.57l1.49-.29q.37-.07.08-.31-.18-.14-.45-.09a.14.13-23.2 0 1-.14-.05l-3.2-3.95q-.2-.24.1-.33l5.3-1.59a1.15 1.12-83.3 0 0 .69-.56q.95-1.8.71-3.75-.05-.4.12-.76l2.5-5.24a1.92 1.92 0 0 0-.93-2.57q-3.32-1.53-4.97-4.73a1.24 1.23-21.4 0 1 .77-1.75q2.68-.76 4.07 1.07.27.36.68.17 1.91-.92 3.93.31a.34.34 0 0 0 .51-.24l.07-.5q.01-.14-.13-.16-5.64-.43-2.78-1.87l26.39 12.24q.49.23.82-.2 1.34-1.72 1.7-3.25 3.43-14.54 8.5-25.45c5.09-10.97 9.26-20.97 14.71-30.32 4.33-7.41 8.75-15.26 13.44-21.98q25.14-36.05 60.67-61.74c12.41-8.97 26.1-15.67 40.23-21.42ZM235.3 107.25a.74.73 10.6 0 1 .71 1.03c-1.22 2.75-6.86 6.34-9.3 8.2-7.23 5.53-14.41 12.58-20.72 19.1-22.06 22.81-38.7 46.75-52.98 75.63-2.91 5.88-5.69 14.05-9.3 20.72a.93.92 27.1 0 1-1.22.39q-5.48-2.71-10.55-5.59c-7.78-4.42-15.1-11.09-22.53-16.64-2.66-1.99-1.3-6.55-.52-8.93 11.16-34.25 34.09-58.93 64.57-76.83 18.42-10.83 40.52-15.91 61.84-17.08Z"/><path fill="#101111" d="M374.39 152.98q8.32 11.27 14.08 25.53 17.53 43.41 12.03 89.5c-1.77 14.82-7.4 30.2-14.22 45.03q-2.89 6.28-7.48 13.33c-3.77 5.78-7.25 11.66-11.51 16.85q-17.5 21.37-38.59 37.47-4.11 3.14-10.22 6.14-.54.26-.45-.34.2-1.38 1.03-2.65c13.92-30.5 11.52-68.61 3.35-100.27-2.75-10.66-4.64-20.46-8.32-29.74-10.52-26.55-23.05-49.11-40.3-72.33-4.12-5.54-9.92-11.64-14.5-17.75a1.44 1.44 0 0 1 .36-2.07q9.63-6.33 19.03-13.25 5.02-3.7 25.39-14.6 3.87-2.07 8.24-3.26 9.84-2.67 19.36-5.49l12.04-2.93a1.05 1.05 0 0 1 .92.2c5.77 4.71 11.96 8.79 16.87 14.42 4.52 5.17 9.64 9.94 12.89 16.21Zm-75.45 15.4q-.19 1.3.34 2.09 5.48 8.19 10.94 16.39c6.38 9.57 11.52 19.47 16.88 29.58 4.74 8.95 8.13 18.51 11.93 27.93 5.92 14.68 8.18 27.26 11.28 41.43 1.8 8.24 2.99 17.97 4.94 26.97a.85.85 0 0 0 1.32.51c1.73-1.22 2.49-5.34 3.2-7.28q.87-2.39 2.3-5.26c5.75-11.5 11.44-26.11 11.86-39.05q.3-9.52-.12-29.25c-.48-21.89-9.48-48-22.29-65.31-2.42-3.27-11.57-16.56-15.99-15.33-11.48 3.19-25.83 8.33-36.21 15.96q-.32.23-.38.62Z"/><path fill="#ffdf00" d="M298.94 168.38q.06-.39.38-.62c10.38-7.63 24.73-12.77 36.21-15.96 4.42-1.23 13.57 12.06 15.99 15.33 12.81 17.31 21.81 43.42 22.29 65.31q.42 19.73.12 29.25c-.42 12.94-6.11 27.55-11.86 39.05q-1.43 2.87-2.3 5.26c-.71 1.94-1.47 6.06-3.2 7.28a.85.85 0 0 1-1.32-.51c-1.95-9-3.14-18.73-4.94-26.97-3.1-14.17-5.36-26.75-11.28-41.43-3.8-9.42-7.19-18.98-11.93-27.93-5.36-10.11-10.5-20.01-16.88-29.58q-5.46-8.2-10.94-16.39-.53-.79-.34-2.09Z"/><path fill="#101111" d="M123.48 284.42c12.37 5.84 24.74 11.39 38.26 14.57 20.28 4.77 37.99 9.54 60.44 10.26q38.07 1.23 75.05-7.8a.91.9-10.4 0 1 1.12.77c1.95 15.74 4.08 33.22 3.16 48.52q-1.35 22.53-9.55 44.03-1.26 2.19-4.18 3.47c-27.39 12.08-56.62 13.78-85.36 6.47-6.34-1.62-15.2-4.86-22.8-7.3q-4.95-1.59-8.91-3.47c-29.08-13.83-50.95-30.47-68.97-58.08-6.44-9.86-11.09-20.2-15.62-30.9-7.4-17.48-10.72-37.96-13.16-56.7q-.2-1.6.55-2.05.94-.56 1.6.32c7.93 10.61 16.77 18.79 28.05 26.08 6.68 4.3 13.02 8.72 20.32 11.81Zm11.96 51.23c16.32 20.33 41.07 32.19 65.57 40.55q28.95 9.88 58.9 3.4c2.99-.65 9.35-1.91 10.39-5.11q6.26-19.26 4.14-40.81-.04-.45-.49-.39c-30.49 4.06-61 4.04-91.28-1.66-5.16-.98-11.66-2.78-17.54-3.93-13.28-2.62-25.43-6.45-37.63-12.14q-3.27-1.52-6.31-2.49a.89.88 86.7 0 0-1.07 1.21c3.83 8.51 9.68 14.35 15.32 21.37Z"/><path fill="#ffdf00" d="M201.01 376.2c-24.5-8.36-49.25-20.22-65.57-40.55-5.64-7.02-11.49-12.86-15.32-21.37a.89.88 86.7 0 1 1.07-1.21q3.04.97 6.31 2.49c12.2 5.69 24.35 9.52 37.63 12.14 5.88 1.15 12.38 2.95 17.54 3.93 30.28 5.7 60.79 5.72 91.28 1.66q.45-.06.49.39 2.12 21.55-4.14 40.81c-1.04 3.2-7.4 4.46-10.39 5.11q-29.95 6.48-58.9-3.4Z"/></svg>