<?xml version="1.0" encoding="UTF-8"?>
<!DOCTYPE svg PUBLIC "-//W3C//DTD SVG 1.1//EN" "http://www.w3.org/Graphics/SVG/1.1/DTD/svg11.dtd">
<svg xmlns="http://www.w3.org/2000/svg" version="1.1" width="512px" height="512px" style="shape-rendering:geometricPrecision; text-rendering:geometricPrecision; image-rendering:optimizeQuality; fill-rule:evenodd; clip-rule:evenodd" xmlns:xlink="http://www.w3.org/1999/xlink">
<g><path style="opacity:0.958" fill="#c135b5" d="M 204.5,121.5 C 212.5,121.5 220.5,121.5 228.5,121.5C 228.5,124.167 228.5,126.833 228.5,129.5C 220.167,129.5 211.833,129.5 203.5,129.5C 203.279,126.721 203.612,124.054 204.5,121.5 Z"/></g>
<g><path style="opacity:0.958" fill="#cd4eb0" d="M 228.5,121.5 C 236.833,121.5 245.167,121.5 253.5,121.5C 253.5,124.167 253.5,126.833 253.5,129.5C 245.167,129.5 236.833,129.5 228.5,129.5C 228.5,126.833 228.5,124.167 228.5,121.5 Z"/></g>
<g><path style="opacity:0.954" fill="#d763ac" d="M 253.5,121.5 C 260.5,121.5 267.5,121.5 274.5,121.5C 273.612,124.054 273.279,126.721 273.5,129.5C 266.833,129.5 260.167,129.5 253.5,129.5C 253.5,126.833 253.5,124.167 253.5,121.5 Z"/></g>
<g><path style="opacity:0.963" fill="#e17aa8" d="M 274.5,121.5 C 283.167,121.5 291.833,121.5 300.5,121.5C 300.5,124.167 300.5,126.833 300.5,129.5C 291.5,129.5 282.5,129.5 273.5,129.5C 273.279,126.721 273.612,124.054 274.5,121.5 Z"/></g>
<g><path style="opacity:0.999" fill="#fefefe" d="M 191.5,130.5 C 230.168,130.333 268.835,130.5 307.5,131C 313.376,137.372 319.042,143.872 324.5,150.5C 335.825,163.824 347.492,176.824 359.5,189.5C 359.461,190.756 359.961,191.756 361,192.5C 361.667,252.833 361.667,313.167 361,373.5C 359.479,378.824 356.646,383.157 352.5,386.5C 350.641,387.594 348.641,388.427 346.5,389C 294.834,389.5 243.168,389.667 191.5,389.5C 183.026,387.863 177.526,382.863 175,374.5C 174.667,369.5 174.333,364.5 174,359.5C 172.89,357.963 171.39,357.297 169.5,357.5C 169.5,354.833 169.5,352.167 169.5,349.5C 170.492,349.672 171.158,349.338 171.5,348.5C 172.117,348.389 172.617,348.056 173,347.5C 173.667,343.833 173.667,340.167 173,336.5C 172.617,335.944 172.117,335.611 171.5,335.5C 170.833,335.167 170.167,334.833 169.5,334.5C 169.5,331.5 169.5,328.5 169.5,325.5C 217.332,324.667 265.332,324.167 313.5,324C 317.143,322.195 319.476,319.362 320.5,315.5C 322.984,313.88 324.484,311.547 325,308.5C 325.667,288.167 325.667,267.833 325,247.5C 323.795,243.123 320.961,240.79 316.5,240.5C 312.03,239.514 307.363,239.181 302.5,239.5C 296.833,239.5 291.167,239.5 285.5,239.5C 276.167,239.5 266.833,239.5 257.5,239.5C 252.833,239.5 248.167,239.5 243.5,239.5C 236.167,239.5 228.833,239.5 221.5,239.5C 212.833,239.5 204.167,239.5 195.5,239.5C 190.833,239.5 186.167,239.5 181.5,239.5C 177.833,239.5 174.167,239.5 170.5,239.5C 170.167,239.5 169.833,239.5 169.5,239.5C 169.5,238.5 169.5,237.5 169.5,236.5C 169.5,235.833 169.833,235.5 170.5,235.5C 173.012,233.763 174.012,231.263 173.5,228C 173.333,226.167 173.167,224.333 173,222.5C 172.329,221.748 171.496,221.414 170.5,221.5C 170.5,220.833 170.167,220.5 169.5,220.5C 169.5,217.5 169.5,214.5 169.5,211.5C 171.582,211.376 173.082,210.376 174,208.5C 174.333,187.167 174.667,165.833 175,144.5C 177.963,136.694 183.463,132.027 191.5,130.5 Z"/></g>
<g><path style="opacity:0.916" fill="#ad10be" d="M 204.5,121.5 C 203.612,124.054 203.279,126.721 203.5,129.5C 199.298,129.183 195.298,129.517 191.5,130.5C 183.463,132.027 177.963,136.694 175,144.5C 174.667,165.833 174.333,187.167 174,208.5C 173.082,210.376 171.582,211.376 169.5,211.5C 167.983,211.489 166.816,210.823 166,209.5C 165.333,188.167 165.333,166.833 166,145.5C 167.799,134.398 173.966,126.898 184.5,123C 191.092,121.671 197.759,121.171 204.5,121.5 Z"/></g>
<g><path style="opacity:0.986" fill="#ec9ab0" d="M 300.5,121.5 C 304.182,121.335 307.848,121.501 311.5,122C 316.044,127.04 320.378,132.206 324.5,137.5C 325.736,141.965 325.736,146.299 324.5,150.5C 319.042,143.872 313.376,137.372 307.5,131C 268.835,130.5 230.168,130.333 191.5,130.5C 195.298,129.517 199.298,129.183 203.5,129.5C 211.833,129.5 220.167,129.5 228.5,129.5C 236.833,129.5 245.167,129.5 253.5,129.5C 260.167,129.5 266.833,129.5 273.5,129.5C 282.5,129.5 291.5,129.5 300.5,129.5C 300.5,126.833 300.5,124.167 300.5,121.5 Z"/></g>
<g><path style="opacity:1" fill="#b723bb" d="M 315.5,189.5 C 315.806,192.385 315.473,195.052 314.5,197.5C 309.865,195.861 306.532,192.861 304.5,188.5C 304.333,175.829 304.5,163.162 305,150.5C 307.333,147.833 309.667,147.833 312,150.5C 312.333,162.5 312.667,174.5 313,186.5C 313.377,187.942 314.21,188.942 315.5,189.5 Z"/></g>
<g><path style="opacity:0.964" fill="#f7ada0" d="M 324.5,137.5 C 336.471,151.141 348.471,164.808 360.5,178.5C 359.577,182.064 359.244,185.731 359.5,189.5C 347.492,176.824 335.825,163.824 324.5,150.5C 325.736,146.299 325.736,141.965 324.5,137.5 Z"/></g>
<g><path style="opacity:0.991" fill="#fdb99c" d="M 360.5,178.5 C 363.469,181.642 366.302,184.975 369,188.5C 369.667,251.167 369.667,313.833 369,376.5C 367.152,384.545 362.652,390.545 355.5,394.5C 353.902,392.143 352.902,389.477 352.5,386.5C 356.646,383.157 359.479,378.824 361,373.5C 361.667,313.167 361.667,252.833 361,192.5C 359.961,191.756 359.461,190.756 359.5,189.5C 359.244,185.731 359.577,182.064 360.5,178.5 Z"/></g>
<g><path style="opacity:1" fill="#cc4db1" d="M 315.5,189.5 C 318.054,190.388 320.721,190.721 323.5,190.5C 323.5,193.167 323.5,195.833 323.5,198.5C 320.287,198.81 317.287,198.477 314.5,197.5C 315.473,195.052 315.806,192.385 315.5,189.5 Z"/></g>
<g><path style="opacity:1" fill="#de73a9" d="M 323.5,190.5 C 326.833,190.5 330.167,190.5 333.5,190.5C 333.5,193.167 333.5,195.833 333.5,198.5C 330.167,198.5 326.833,198.5 323.5,198.5C 323.5,195.833 323.5,193.167 323.5,190.5 Z"/></g>
<g><path style="opacity:1" fill="#f3a4a1" d="M 333.5,190.5 C 337.846,190.334 342.179,190.501 346.5,191C 348.155,192.444 348.822,194.278 348.5,196.5C 347.711,196.783 347.044,197.283 346.5,198C 342.179,198.499 337.846,198.666 333.5,198.5C 333.5,195.833 333.5,193.167 333.5,190.5 Z"/></g>
<g><path style="opacity:1" fill="#e0dddf" d="M 304.5,188.5 C 306.532,192.861 309.865,195.861 314.5,197.5C 317.287,198.477 320.287,198.81 323.5,198.5C 326.833,198.5 330.167,198.5 333.5,198.5C 337.846,198.666 342.179,198.499 346.5,198C 347.044,197.283 347.711,196.783 348.5,196.5C 348.052,199.233 346.719,201.399 344.5,203C 334.5,203.667 324.5,203.667 314.5,203C 307.821,200.476 304.488,195.643 304.5,188.5 Z"/></g>
<g><path style="opacity:0.961" fill="#d25bad" d="M 168.5,220.5 C 168.833,220.5 169.167,220.5 169.5,220.5C 170.167,220.5 170.5,220.833 170.5,221.5C 170.5,226.167 170.5,230.833 170.5,235.5C 169.833,235.5 169.5,235.833 169.5,236.5C 168.833,236.5 168.5,236.167 168.5,235.5C 168.5,230.5 168.5,225.5 168.5,220.5 Z"/></g>
<g><path style="opacity:1" fill="#b823b8" d="M 168.5,220.5 C 168.5,225.5 168.5,230.5 168.5,235.5C 167.504,235.586 166.671,235.252 166,234.5C 165.333,230.5 165.333,226.5 166,222.5C 166.708,221.619 167.542,220.953 168.5,220.5 Z"/></g>
<g><path style="opacity:1" fill="#ed98a4" d="M 170.5,221.5 C 171.496,221.414 172.329,221.748 173,222.5C 173.167,224.333 173.333,226.167 173.5,228C 174.012,231.263 173.012,233.763 170.5,235.5C 170.5,230.833 170.5,226.167 170.5,221.5 Z"/></g>
<g><path style="opacity:0.996" fill="#ad08bd" d="M 155.5,239.5 C 154.955,242.998 155.788,245.998 158,248.5C 158.5,268.497 158.667,288.497 158.5,308.5C 157.5,308.5 156.5,308.5 155.5,308.5C 155.5,311.167 155.5,313.833 155.5,316.5C 152.167,316.5 148.833,316.5 145.5,316.5C 144.167,316.167 142.833,315.833 141.5,315.5C 139.73,313.887 138.564,311.887 138,309.5C 137.333,288.833 137.333,268.167 138,247.5C 139.077,244.087 141.244,241.587 144.5,240C 148.152,239.501 151.818,239.335 155.5,239.5 Z"/></g>
<g><path style="opacity:0.999" fill="#b51eba" d="M 155.5,239.5 C 160.167,239.5 164.833,239.5 169.5,239.5C 169.833,239.5 170.167,239.5 170.5,239.5C 171.919,240.451 173.585,240.784 175.5,240.5C 176.338,245.956 177.004,251.456 177.5,257C 177.498,260.352 177.165,263.518 176.5,266.5C 174.303,262.611 171.97,258.778 169.5,255C 167.833,254.333 166.167,254.333 164.5,255C 163.978,255.561 163.645,256.228 163.5,257C 167.286,263.403 170.953,269.903 174.5,276.5C 170.396,282.598 166.73,288.931 163.5,295.5C 164.557,298.604 166.557,299.27 169.5,297.5C 170.643,300.976 170.81,304.642 170,308.5C 168.208,311.361 166.708,314.361 165.5,317.5C 158.646,317.824 151.979,317.491 145.5,316.5C 148.833,316.5 152.167,316.5 155.5,316.5C 155.5,313.833 155.5,311.167 155.5,308.5C 156.5,308.5 157.5,308.5 158.5,308.5C 158.667,288.497 158.5,268.497 158,248.5C 155.788,245.998 154.955,242.998 155.5,239.5 Z"/></g>
<g><path style="opacity:1" fill="#bf32b7" d="M 170.5,239.5 C 174.167,239.5 177.833,239.5 181.5,239.5C 184.287,240.477 187.287,240.81 190.5,240.5C 190.987,244.867 191.653,249.201 192.5,253.5C 191.209,253.263 190.209,253.596 189.5,254.5C 185.863,259.658 182.363,264.991 179,270.5C 177.905,269.307 177.072,267.973 176.5,266.5C 177.165,263.518 177.498,260.352 177.5,257C 177.004,251.456 176.338,245.956 175.5,240.5C 173.585,240.784 171.919,240.451 170.5,239.5 Z"/></g>
<g><path style="opacity:1" fill="#c641b4" d="M 181.5,239.5 C 186.167,239.5 190.833,239.5 195.5,239.5C 199.298,240.483 203.298,240.817 207.5,240.5C 208.11,246.815 208.443,253.149 208.5,259.5C 204.84,271.482 201.173,283.482 197.5,295.5C 197.516,297.516 198.516,298.516 200.5,298.5C 201.657,300.215 202.324,302.215 202.5,304.5C 201.977,308.489 201.644,312.489 201.5,316.5C 199.585,316.216 197.919,316.549 196.5,317.5C 194.5,317.5 192.5,317.5 190.5,317.5C 191.883,311.346 192.549,305.013 192.5,298.5C 194.377,297.341 194.877,295.674 194,293.5C 190.374,287.75 186.874,281.916 183.5,276C 187.125,270.585 190.625,265.085 194,259.5C 194.494,257.866 194.66,256.199 194.5,254.5C 192.833,254.5 191.167,254.5 189.5,254.5C 190.209,253.596 191.209,253.263 192.5,253.5C 191.653,249.201 190.987,244.867 190.5,240.5C 187.287,240.81 184.287,240.477 181.5,239.5 Z"/></g>
<g><path style="opacity:1" fill="#d25ab0" d="M 195.5,239.5 C 204.167,239.5 212.833,239.5 221.5,239.5C 222.209,240.404 223.209,240.737 224.5,240.5C 225.644,250.657 225.644,260.657 224.5,270.5C 223.087,264.924 221.087,259.591 218.5,254.5C 213.226,252.47 209.892,254.137 208.5,259.5C 208.443,253.149 208.11,246.815 207.5,240.5C 203.298,240.817 199.298,240.483 195.5,239.5 Z"/></g>
<g><path style="opacity:1" fill="#d868ad" d="M 221.5,239.5 C 228.833,239.5 236.167,239.5 243.5,239.5C 243.331,244.181 242.998,248.848 242.5,253.5C 241.209,253.263 240.209,253.596 239.5,254.5C 238.883,254.611 238.383,254.944 238,255.5C 237.333,269.5 237.333,283.5 238,297.5C 239.356,298.38 240.856,298.714 242.5,298.5C 242.701,304.509 243.034,310.509 243.5,316.5C 242.209,316.263 241.209,316.596 240.5,317.5C 232.167,317.5 223.833,317.5 215.5,317.5C 216.919,316.549 218.585,316.216 220.5,316.5C 220.5,307.167 220.5,297.833 220.5,288.5C 221.496,288.414 222.329,288.748 223,289.5C 223.834,292.172 224.668,294.839 225.5,297.5C 228.638,298.931 230.971,298.098 232.5,295C 229.727,286.847 227.06,278.68 224.5,270.5C 225.644,260.657 225.644,250.657 224.5,240.5C 223.209,240.737 222.209,240.404 221.5,239.5 Z"/></g>
<g><path style="opacity:1" fill="#e17ca9" d="M 243.5,239.5 C 248.167,239.5 252.833,239.5 257.5,239.5C 258.919,240.451 260.585,240.784 262.5,240.5C 261.094,248.086 260.427,255.752 260.5,263.5C 259.453,267.261 257.619,270.594 255,273.5C 251.793,266.914 247.959,260.747 243.5,255C 242.207,254.51 240.873,254.343 239.5,254.5C 240.209,253.596 241.209,253.263 242.5,253.5C 242.998,248.848 243.331,244.181 243.5,239.5 Z"/></g>
<g><path style="opacity:1" fill="#eb93a4" d="M 257.5,239.5 C 266.833,239.5 276.167,239.5 285.5,239.5C 286.061,240.908 286.395,242.408 286.5,244C 285.141,246.958 284.474,250.124 284.5,253.5C 283.504,253.414 282.671,253.748 282,254.5C 281.333,268.5 281.333,282.5 282,296.5C 282.708,297.381 283.542,298.047 284.5,298.5C 284.33,304.967 284.996,311.3 286.5,317.5C 282.5,317.5 278.5,317.5 274.5,317.5C 273.117,311.346 272.451,305.013 272.5,298.5C 273.648,284.241 273.815,269.908 273,255.5C 270.936,254.409 268.769,254.242 266.5,255C 264.601,257.988 262.601,260.821 260.5,263.5C 260.427,255.752 261.094,248.086 262.5,240.5C 260.585,240.784 258.919,240.451 257.5,239.5 Z"/></g>
<g><path style="opacity:1" fill="#f5aaa1" d="M 285.5,239.5 C 291.167,239.5 296.833,239.5 302.5,239.5C 304.265,240.461 306.265,240.795 308.5,240.5C 308.5,242.833 308.5,245.167 308.5,247.5C 307.178,247.33 306.011,247.663 305,248.5C 304.185,263.241 304.351,277.908 305.5,292.5C 299.833,292.5 294.167,292.5 288.5,292.5C 288.667,279.829 288.5,267.162 288,254.5C 286.989,253.663 285.822,253.33 284.5,253.5C 284.474,250.124 285.141,246.958 286.5,244C 286.395,242.408 286.061,240.908 285.5,239.5 Z"/></g>
<g><path style="opacity:1" fill="#f9b19e" d="M 302.5,239.5 C 307.363,239.181 312.03,239.514 316.5,240.5C 316.998,243.681 316.165,246.347 314,248.5C 313.5,268.831 313.333,289.164 313.5,309.5C 314.5,309.5 315.5,309.5 316.5,309.5C 316.5,311.833 316.5,314.167 316.5,316.5C 311.695,317.487 306.695,317.821 301.5,317.5C 301.222,314.09 300.055,311.09 298,308.5C 297.502,305.183 297.335,301.85 297.5,298.5C 300.518,298.665 303.518,298.498 306.5,298C 307.98,295.765 307.647,293.932 305.5,292.5C 304.351,277.908 304.185,263.241 305,248.5C 306.011,247.663 307.178,247.33 308.5,247.5C 308.5,245.167 308.5,242.833 308.5,240.5C 306.265,240.795 304.265,240.461 302.5,239.5 Z"/></g>
<g><path style="opacity:1" fill="#fdb99e" d="M 316.5,240.5 C 320.961,240.79 323.795,243.123 325,247.5C 325.667,267.833 325.667,288.167 325,308.5C 324.484,311.547 322.984,313.88 320.5,315.5C 319.292,316.234 317.959,316.567 316.5,316.5C 316.5,314.167 316.5,311.833 316.5,309.5C 315.5,309.5 314.5,309.5 313.5,309.5C 313.333,289.164 313.5,268.831 314,248.5C 316.165,246.347 316.998,243.681 316.5,240.5 Z"/></g>
<g><path style="opacity:1" fill="#fdf8fc" d="M 176.5,266.5 C 177.072,267.973 177.905,269.307 179,270.5C 182.363,264.991 185.863,259.658 189.5,254.5C 191.167,254.5 192.833,254.5 194.5,254.5C 194.66,256.199 194.494,257.866 194,259.5C 190.625,265.085 187.125,270.585 183.5,276C 186.874,281.916 190.374,287.75 194,293.5C 194.877,295.674 194.377,297.341 192.5,298.5C 191.022,298.762 189.689,298.429 188.5,297.5C 185.532,292.036 182.366,286.703 179,281.5C 175.559,286.724 172.392,292.057 169.5,297.5C 166.557,299.27 164.557,298.604 163.5,295.5C 166.73,288.931 170.396,282.598 174.5,276.5C 170.953,269.903 167.286,263.403 163.5,257C 163.645,256.228 163.978,255.561 164.5,255C 166.167,254.333 167.833,254.333 169.5,255C 171.97,258.778 174.303,262.611 176.5,266.5 Z"/></g>
<g><path style="opacity:1" fill="#fdf9fc" d="M 224.5,270.5 C 227.06,278.68 229.727,286.847 232.5,295C 230.971,298.098 228.638,298.931 225.5,297.5C 224.668,294.839 223.834,292.172 223,289.5C 222.329,288.748 221.496,288.414 220.5,288.5C 215.5,288.5 210.5,288.5 205.5,288.5C 204.978,291.568 204.145,294.568 203,297.5C 202.329,298.252 201.496,298.586 200.5,298.5C 198.516,298.516 197.516,297.516 197.5,295.5C 201.173,283.482 204.84,271.482 208.5,259.5C 209.892,254.137 213.226,252.47 218.5,254.5C 221.087,259.591 223.087,264.924 224.5,270.5 Z"/></g>
<g><path style="opacity:1" fill="#fefbfc" d="M 239.5,254.5 C 240.873,254.343 242.207,254.51 243.5,255C 247.959,260.747 251.793,266.914 255,273.5C 257.619,270.594 259.453,267.261 260.5,263.5C 262.601,260.821 264.601,257.988 266.5,255C 268.769,254.242 270.936,254.409 273,255.5C 273.815,269.908 273.648,284.241 272.5,298.5C 270.533,298.739 268.699,298.406 267,297.5C 266.667,287.833 266.333,278.167 266,268.5C 263.607,272.054 261.44,275.72 259.5,279.5C 258.522,282.487 256.522,283.654 253.5,283C 250.541,278.249 247.707,273.416 245,268.5C 244.667,278.167 244.333,287.833 244,297.5C 243.617,298.056 243.117,298.389 242.5,298.5C 240.856,298.714 239.356,298.38 238,297.5C 237.333,283.5 237.333,269.5 238,255.5C 238.383,254.944 238.883,254.611 239.5,254.5 Z"/></g>
<g><path style="opacity:1" fill="#fef9f9" d="M 284.5,253.5 C 285.822,253.33 286.989,253.663 288,254.5C 288.5,267.162 288.667,279.829 288.5,292.5C 294.167,292.5 299.833,292.5 305.5,292.5C 307.647,293.932 307.98,295.765 306.5,298C 303.518,298.498 300.518,298.665 297.5,298.5C 293.167,298.5 288.833,298.5 284.5,298.5C 283.542,298.047 282.708,297.381 282,296.5C 281.333,282.5 281.333,268.5 282,254.5C 282.671,253.748 283.504,253.414 284.5,253.5 Z"/></g>
<g><path style="opacity:1" fill="#d25db4" d="M 214.5,263.5 C 217.482,269.787 219.482,276.454 220.5,283.5C 216.5,283.5 212.5,283.5 208.5,283.5C 209.899,276.639 211.899,269.972 214.5,263.5 Z"/></g>
<g><path style="opacity:1" fill="#e788a6" d="M 272.5,298.5 C 272.451,305.013 273.117,311.346 274.5,317.5C 270.167,317.5 265.833,317.5 261.5,317.5C 262.061,316.092 262.395,314.592 262.5,313C 260.986,301.742 259.986,290.575 259.5,279.5C 261.44,275.72 263.607,272.054 266,268.5C 266.333,278.167 266.667,287.833 267,297.5C 268.699,298.406 270.533,298.739 272.5,298.5 Z"/></g>
<g><path style="opacity:1" fill="#e17ba9" d="M 259.5,279.5 C 259.986,290.575 260.986,301.742 262.5,313C 262.395,314.592 262.061,316.092 261.5,317.5C 254.5,317.5 247.5,317.5 240.5,317.5C 241.209,316.596 242.209,316.263 243.5,316.5C 243.034,310.509 242.701,304.509 242.5,298.5C 243.117,298.389 243.617,298.056 244,297.5C 244.333,287.833 244.667,278.167 245,268.5C 247.707,273.416 250.541,278.249 253.5,283C 256.522,283.654 258.522,282.487 259.5,279.5 Z"/></g>
<g><path style="opacity:1" fill="#bc2bb8" d="M 192.5,298.5 C 192.549,305.013 191.883,311.346 190.5,317.5C 182.167,317.5 173.833,317.5 165.5,317.5C 166.708,314.361 168.208,311.361 170,308.5C 170.81,304.642 170.643,300.976 169.5,297.5C 172.392,292.057 175.559,286.724 179,281.5C 182.366,286.703 185.532,292.036 188.5,297.5C 189.689,298.429 191.022,298.762 192.5,298.5 Z"/></g>
<g><path style="opacity:1" fill="#cd4fb0" d="M 220.5,288.5 C 220.5,297.833 220.5,307.167 220.5,316.5C 218.585,316.216 216.919,316.549 215.5,317.5C 209.167,317.5 202.833,317.5 196.5,317.5C 197.919,316.549 199.585,316.216 201.5,316.5C 201.644,312.489 201.977,308.489 202.5,304.5C 202.324,302.215 201.657,300.215 200.5,298.5C 201.496,298.586 202.329,298.252 203,297.5C 204.145,294.568 204.978,291.568 205.5,288.5C 210.5,288.5 215.5,288.5 220.5,288.5 Z"/></g>
<g><path style="opacity:1" fill="#f3a3a1" d="M 284.5,298.5 C 288.833,298.5 293.167,298.5 297.5,298.5C 297.335,301.85 297.502,305.183 298,308.5C 300.055,311.09 301.222,314.09 301.5,317.5C 296.5,317.5 291.5,317.5 286.5,317.5C 284.996,311.3 284.33,304.967 284.5,298.5 Z"/></g>
<g><path style="opacity:0.996" fill="#e0dfe0" d="M 141.5,315.5 C 142.833,315.833 144.167,316.167 145.5,316.5C 151.979,317.491 158.646,317.824 165.5,317.5C 173.833,317.5 182.167,317.5 190.5,317.5C 192.5,317.5 194.5,317.5 196.5,317.5C 202.833,317.5 209.167,317.5 215.5,317.5C 223.833,317.5 232.167,317.5 240.5,317.5C 247.5,317.5 254.5,317.5 261.5,317.5C 265.833,317.5 270.167,317.5 274.5,317.5C 278.5,317.5 282.5,317.5 286.5,317.5C 291.5,317.5 296.5,317.5 301.5,317.5C 306.695,317.821 311.695,317.487 316.5,316.5C 317.959,316.567 319.292,316.234 320.5,315.5C 319.476,319.362 317.143,322.195 313.5,324C 265.332,324.167 217.332,324.667 169.5,325.5C 162.079,325.891 154.746,325.391 147.5,324C 144.51,321.847 142.51,319.013 141.5,315.5 Z"/></g>
<g><path style="opacity:1" fill="#e17caa" d="M 169.5,334.5 C 170.167,334.833 170.833,335.167 171.5,335.5C 171.5,339.833 171.5,344.167 171.5,348.5C 171.158,349.338 170.492,349.672 169.5,349.5C 169.5,344.5 169.5,339.5 169.5,334.5 Z"/></g>
<g><path style="opacity:1" fill="#bc2ab8" d="M 169.5,334.5 C 169.5,339.5 169.5,344.5 169.5,349.5C 168.178,349.67 167.011,349.337 166,348.5C 165.172,344.129 165.339,339.795 166.5,335.5C 167.417,334.873 168.417,334.539 169.5,334.5 Z"/></g>
<g><path style="opacity:1" fill="#f4a7a1" d="M 171.5,335.5 C 172.117,335.611 172.617,335.944 173,336.5C 173.667,340.167 173.667,343.833 173,347.5C 172.617,348.056 172.117,348.389 171.5,348.5C 171.5,344.167 171.5,339.833 171.5,335.5 Z"/></g>
<g><path style="opacity:1" fill="#e2e2e2" d="M 347.5,340.5 C 349.903,340.393 351.736,341.393 353,343.5C 353.667,352.833 353.667,362.167 353,371.5C 349.501,378.999 343.667,381.833 335.5,380C 334.424,378.274 334.257,376.441 335,374.5C 337.564,372.923 340.397,371.923 343.5,371.5C 344.332,362.184 344.832,352.851 345,343.5C 345.698,342.309 346.531,341.309 347.5,340.5 Z"/></g>
<g><path style="opacity:0.975" fill="#b118bd" d="M 169.5,357.5 C 171.39,357.297 172.89,357.963 174,359.5C 174.333,364.5 174.667,369.5 175,374.5C 177.526,382.863 183.026,387.863 191.5,389.5C 195.298,390.483 199.298,390.817 203.5,390.5C 203.5,393.167 203.5,395.833 203.5,398.5C 175.884,400.051 163.384,387.051 166,359.5C 166.816,358.177 167.983,357.511 169.5,357.5 Z"/></g>
<g><path style="opacity:0.957" fill="#c135b5" d="M 203.5,390.5 C 211.833,390.5 220.167,390.5 228.5,390.5C 228.5,393.167 228.5,395.833 228.5,398.5C 220.167,398.5 211.833,398.5 203.5,398.5C 203.5,395.833 203.5,393.167 203.5,390.5 Z"/></g>
<g><path style="opacity:0.965" fill="#cd4eb0" d="M 228.5,390.5 C 236.833,390.5 245.167,390.5 253.5,390.5C 253.5,393.167 253.5,395.833 253.5,398.5C 245.167,398.5 236.833,398.5 228.5,398.5C 228.5,395.833 228.5,393.167 228.5,390.5 Z"/></g>
<g><path style="opacity:0.945" fill="#d763ac" d="M 253.5,390.5 C 260.167,390.5 266.833,390.5 273.5,390.5C 273.279,393.279 273.612,395.946 274.5,398.5C 267.5,398.5 260.5,398.5 253.5,398.5C 253.5,395.833 253.5,393.167 253.5,390.5 Z"/></g>
<g><path style="opacity:0.945" fill="#e079a8" d="M 273.5,390.5 C 282.5,390.5 291.5,390.5 300.5,390.5C 300.279,393.279 300.612,395.946 301.5,398.5C 292.5,398.5 283.5,398.5 274.5,398.5C 273.612,395.946 273.279,393.279 273.5,390.5 Z"/></g>
<g><path style="opacity:0.95" fill="#eb92a4" d="M 300.5,390.5 C 308.833,390.5 317.167,390.5 325.5,390.5C 325.5,393.167 325.5,395.833 325.5,398.5C 317.5,398.5 309.5,398.5 301.5,398.5C 300.612,395.946 300.279,393.279 300.5,390.5 Z"/></g>
<g><path style="opacity:0.965" fill="#f4aeaf" d="M 352.5,386.5 C 352.902,389.477 353.902,392.143 355.5,394.5C 353.142,396.129 350.476,397.295 347.5,398C 340.174,398.5 332.841,398.666 325.5,398.5C 325.5,395.833 325.5,393.167 325.5,390.5C 317.167,390.5 308.833,390.5 300.5,390.5C 291.5,390.5 282.5,390.5 273.5,390.5C 266.833,390.5 260.167,390.5 253.5,390.5C 245.167,390.5 236.833,390.5 228.5,390.5C 220.167,390.5 211.833,390.5 203.5,390.5C 199.298,390.817 195.298,390.483 191.5,389.5C 243.168,389.667 294.834,389.5 346.5,389C 348.641,388.427 350.641,387.594 352.5,386.5 Z"/></g>
</svg>
