<svg version="1.2" xmlns="http://www.w3.org/2000/svg" viewBox="0 0 256 256" width="500" height="500">
	<title>clj -svg</title>
	<style>
		.s0 { fill: #ffffff } 
		.s1 { fill: #91dc47 } 
		.s2 { fill: #63b132 } 
		.s3 { fill: #90b4fe } 
		.s4 { fill: #5881d8 } 
	</style>
	<path id="path8" class="s0" d="m128 0c-70.6 0-128 57.4-128 128 0 70.6 57.4 128 128 128 70.6 0 128-57.4 128-128 0-70.6-57.4-128-128-128z"/>
	<path id="path10" class="s1" d="m123.3 130.3c-1.1 2.5-2.4 5.3-3.7 8.3-4.7 10.5-9.8 23.3-11.7 31.5-0.7 2.9-1.1 6.6-1.1 10.6q0 2.4 0.3 4.9c6.5 2.4 13.6 3.8 21 3.8 6.8 0 13.2-1.2 19.3-3.2-1.4-1.3-2.8-2.7-4-4.2-8.2-10.5-12.8-25.9-20.1-51.7z"/>
	<path id="path12" class="s1" d="m93 78.2c-15.7 11.1-26 29.3-26 50 0 20.4 10 38.4 25.3 49.5 3.7-15.6 13.1-29.9 27.2-58.6-0.8-2.3-1.8-4.9-2.8-7.5-3.9-9.8-9.6-21.2-14.6-26.4-2.6-2.7-5.7-5-9.1-7z"/>
	<path id="path14" class="s2" d="m181.4 198.4c-8.1-1-14.8-2.3-20.6-4.3-9.9 4.8-21 7.6-32.7 7.6-40.6 0-73.5-32.9-73.5-73.5 0-22 9.7-41.8 25.1-55.2-4.1-1-8.4-1.6-12.8-1.6-21.5 0.2-44.3 12.1-53.8 44.4-0.9 4.7-0.6 8.2-0.6 12.4 0 63.9 51.7 115.7 115.6 115.7 39.1 0 73.7-19.4 94.6-49.2-11.3 2.8-22.2 4.2-31.5 4.2q-5.2 0-9.8-0.5z"/>
	<path id="path16" class="s3" d="m159.7 176c0.7 0.3 2.3 0.9 4.5 1.5 15.2-11.1 25.1-29 25.1-49.3-0.1-33.8-27.4-61.1-61.2-61.1-6.7 0-13.1 1.1-19.2 3.1 12.4 14.1 18.4 34.4 24.2 56.5q0 0 0 0c0 0 1.8 6.2 5 14.3 3.1 8.1 7.6 18.2 12.5 25.5 3.2 4.9 6.7 8.4 9.1 9.5z"/>
	<path id="path18" class="s4" d="m128.1 12.5c-38.7 0-73 19.1-94 48.4 10.9-6.9 22.1-9.4 31.8-9.3 13.5 0.1 24 4.2 29.1 7.1q1.8 1.1 3.5 2.2c9.1-3.9 19.1-6.2 29.6-6.2 40.6 0 73.5 32.9 73.5 73.5 0 20.5-8.4 39-21.9 52.3 3.4 0.4 6.9 0.6 10.5 0.6 12.8 0 26.7-2.8 37-11.6 6.8-5.7 12.5-14 15.6-26.5 0.6-4.9 1-9.8 1-14.8 0-63.9-51.8-115.7-115.7-115.7z"/>
</svg>