<svg version="1.2" xmlns="http://www.w3.org/2000/svg" viewBox="0 0 735 852" width="500" height="580">
	<title>logo-svg</title>
	<style>
		.s0 { fill: #cc6699 } 
		.s1 { fill: #dadbdf } 
		.s2 { fill: #ffffff } 
	</style>
	<path id="Layer" class="s0" d="m369.5 7.4l358.7 207.1v422.1l-358.7 208.4-366.7-208.4v-422.1l366.7-207.1z"/>
	<path id="Layer" fill-rule="evenodd" class="s1" d="m734.9 213.1v424.3l-29.3 16.9-281.3 162.4-56.8 32.8-56.9-32.8-281.2-162.4-29.3-16.9v-424.3l29.3-16.9 277.8-160.4 60.3-34.8 60.3 34.8 277.8 160.4zm-29.3 17.9l-338.1-195.2-338.1 195.2v390.5l338.1 195.2 338.1-195.2z"/>
	<g id="sass_name">
		<path id="Layer" fill-rule="evenodd" class="s2" d="m593.5 447.1c51.8-0.4 81 33.2 79.7 64-0.9 24-23 34-27.1 34.7-3 0.4-4.6 0.5-5-1.8-0.3-1.6 0.8-2.3 4.3-4.5 3.4-2.3 13.8-9.4 15.7-22.4 1.9-13-7.9-44.2-57.7-50-23.2-2.8-41.5 0.5-55.6 6.4q1 2.5 1.8 5.1 0.8 2.5 1.4 5.2 0.6 2.6 1 5.3 0.4 2.6 0.6 5.3c0.6 15.6-10.2 27.1-21.4 35.4q-2.2 1.6-4.5 3.1-2.3 1.4-4.8 2.7-2.4 1.2-4.9 2.3-2.6 1.1-5.2 1.9c-4.7 2-10.9 4-15.3 3.1-9.7-2-14.9-10.6-8.3-29.6 3.6-10.3 14-26 30.6-39.6-3.8-7.8-8.1-15.8-10.2-23q-0.9-2.9-1.6-5.7-0.8-2.9-1.5-5.8-0.7-2.9-1.3-5.8-0.6-2.9-1.1-5.8c0 0-13.7 28.4-31.3 54.3-1 1.6-2 3-3 4.5 3.4 8 6.2 16.6 6.6 25.2 0.6 15.7-6.2 27.4-17.4 35.7q-2.1 1.5-4.3 2.9-2.2 1.3-4.5 2.5-2.2 1.2-4.6 2.2-2.4 1.1-4.8 1.9-2.5 1.1-5.1 1.9-2.6 0.8-5.2 1.5-2.7 0.6-5.3 0.9-2.7 0.4-5.4 0.6c-5.8 0.4-11.2 0-14.2-2.3-4.1-3.1-4.5-7-2.4-12.3 1.8-4.5 15.4-20.1 26.8-33.7 3.2-3.8 6.2-7.6 8.9-11.2l-0.1-0.1c0 0 2-2.7 5.3-7.4-4.1-9.1-9.5-18.4-12-26.9q-0.8-2.9-1.6-5.7-0.8-2.9-1.4-5.8-0.7-2.9-1.3-5.8-0.6-2.9-1.1-5.8c0 0-13.9 35.6-28.4 64.1-11.2 22.1-18.7 35.4-22 41.2v0.2c-0.5 0.8-0.9 1.4-1.4 2.2-0.4 0.8-0.7 1.1-0.7 1.1v-0.1c-3.8 5.6-12.2 16.4-20.6 16.4-22.9 0-14.5-46.7-14.5-46.7 0 0-6.7 17.3-14.4 32.2-6.1 12.2-11.7 22.4-24 22.4-3.5 0-9.1-0.1-13.8-4.5-10.7-10.1-18.7-35.6-17.2-55.3 1.4-16.8 4-28.4 7.6-38.1-6.4 3.5-13.7 7.5-21.1 11.9l-11.4 6.7 0.3 0.7c9.5 18.2 12.1 58.2-8.6 89-20.7 30.8-59 49.5-96.4 39.1-12.1-3.4-30.3-28.4-14.6-63.1 13.9-30.7 69.3-59.7 83.9-66.9 1.2-0.6 2.5-1.4 4-2.2-29.1-25.4-101.8-59.8-112-112.6-2.9-14.8 4-50.4 47.7-91.1 36.8-34.4 87.8-60.6 135-77.4 79.2-28.1 163-11.5 175.8 39 12.7 49.6-30.4 109-85.6 130.3-49.3 19.1-90.1 16.1-106.8 10.6-19-6.3-30.2-18.8-32.9-25.9-1.1-2.8-2.9-7.5 0-9.1 1.8-1 2.5-0.8 7.3 4.5 4.5 5.1 22.8 18.5 57.5 14.6 91.2-10.2 146.1-81 128.7-119.1-12.2-26.7-82.4-38.7-170.1 5-107.1 53.3-112.9 97.3-113.8 114-2.5 45.9 56.8 70.1 88.8 104.3l1.3 1.3c6-3.2 12.4-6.8 18.5-10.2 16.2-8.8 31.4-17 38.6-21 11.3-16.5 34.1-34.5 50.7-34.5 26.4 0 17.4 38 17.4 38 0 0 0.5-1.8 1.2-1.8 0.7 0 3.6-5 11.8-2 8.4 3.1 6.5 9 6.5 9.6 0.1 1.2-10 34.9-14.2 56.5-1.9 10.3-0.7 17.8-0.2 17.8 0.8 0 2.5-2.7 4-5.5v-0.1c0 0 1.2-2.1 3.2-5.9 0.2-0.5-2.1 3.7 0.3-0.8 2.4-4.5 5.6-11.1 9.3-19.4 7.3-16.2 35.2-78.5 37.6-85.4 2.5-7 3.7-14.1 4.8-17.2 1.2-3 11.1-5.3 22.7-5.2 11.5 0 12.7 4.8 12.7 6 0 1.1-5.6 14.8-6.8 24.4-1.2 9.6 0 14.5 1 22.6 0.7 5.4 4.1 12.1 8 19.7 12-19.6 33.1-56.9 35.1-67.4q0.4-2.2 0.9-4.3 0.6-2.2 1.2-4.4 0.6-2.1 1.2-4.2 0.7-2.1 1.5-4.2c1.1-3.1 11.1-5.4 22.6-5.3 11.5 0.1 12.8 4.9 12.8 6 0 1.2-5.6 14.8-6.9 24.5-1.2 9.6 0 14.5 1 22.6 0.9 6.9 6.3 16.2 11.7 26.9q6-3 12.4-5.3 6.3-2.2 12.9-3.8 6.5-1.5 13.2-2.3 6.7-0.7 13.5-0.7zm-384.4 129.5c17.4-18.9 24.5-42.9 17-70.2-0.9 0.6-1.8 1.1-2.5 1.6 0 0-0.5 0.2-1.2 0.6-4.2 2.6-7.8 4.7-10.2 6.2-10.5 6.6-26.5 17.3-38.8 29-20.3 19.1-24.4 45.7-13.8 51.9 9.9 5.8 33-1 49.5-19zm135.1-135c-2.5-4.1-12.4-0.8-21.4 9.3-5.6 6.3-15.2 22.4-19.6 36-8.9 26.8-5.1 54.1 1.2 55.7 7.3 2.1 19.4-33.9 25.1-47.9 3.6-8.7 17.6-47.7 14.7-53.1zm84.6 100.6c7-4.4 22.4-15.2 22.4-31.3v-1.3c-3.6 4.7-6.9 8.9-9.7 12.4-5 6.2-17.4 19.5-17.4 19.5 0 0-1.8 1.7-1 2.2 1 0.6 3.3-0.3 5.7-1.5zm99.8-48.2q0-1.3-0.1-2.5-0.1-1.2-0.3-2.4-0.2-1.3-0.5-2.4-0.3-1.2-0.8-2.4-2.6 2.3-5 4.8-2.4 2.6-4.6 5.3-2.1 2.8-4 5.8-1.8 2.9-3.4 6.1c-6 13-6.2 17.1-4.5 18.5 8.8-3.2 23.1-10.7 23.2-30.8z"/>
	</g>
</svg>