<svg version="1.2" xmlns="http://www.w3.org/2000/svg" viewBox="0 0 2226 2520" width="100" height="113">
	<title>Ada_Mascot_with_slogan-svg</title>
	<style>
		tspan { white-space:pre } 
		.s0 { fill: #000000 } 
		.s1 { fill: #ffffff } 
		.s2 { fill: #001ec8 } 
		.s3 { fill: none;stroke: #000050;stroke-linecap: round;stroke-width: 4.6;stroke-dasharray: 4.56,9.12 } 
		.s4 { fill: #14127b } 
	</style>
	<g id="mascot">
		<path id="Layer" class="s0" d="m1368 893.9c0 0 9.5-105.8 218.4-113.2 176.1 10.5 299.6 181.1 341.4 235.7 0 0-152.6 101.2-309.9-74.5-181.3-162.7-249.9-48-249.9-48z"/>
		<path id="Layer" class="s0" d="m1368 893.9c0 0 9.5-105.8 218.4-113.2 176.1 10.5 299.6 181.1 341.4 235.7 0 0-152.6 101.2-309.9-74.5-181.3-162.7-249.9-48-249.9-48z"/>
		<path id="Layer" class="s0" d="m1366 951.2c0 0-17.9 77.4 85.7 137.4 72.3 41.8 31.7 53.2 31.7 53.2 0 0 33.5 6.1 89.9-45.2 80.1-72.9 39.4-130.6 39.4-130.6 0 0-84.5-119.8-160.2-28.1 0 0-24 28.2-86.5 13.3z"/>
		<path id="Layer" class="s0" d="m1366 951.2c0 0-17.9 77.4 85.7 137.4 72.3 41.8 31.7 53.2 31.7 53.2 0 0 33.5 6.1 89.9-45.2 80.1-72.9 39.4-130.6 39.4-130.6 0 0-84.5-119.8-160.2-28.1 0 0-24 28.2-86.5 13.3z"/>
		<path id="Layer" class="s0" d="m1642.5 988.6c0 0 11.1 115-147.1 163.6 0 0 162.2-61.4 338.9 89.6 0 0 18.5-138.5 102.7-209.6-9.6 2.8-141.1 89.5-294.5-43.6z"/>
		<path id="Layer" class="s0" d="m1642.5 988.6c0 0 11.1 115-147.1 163.6 0 0 162.2-61.4 338.9 89.6 0 0 18.5-138.5 102.7-209.6-9.6 2.8-141.1 89.5-294.5-43.6z"/>
		<path id="Layer" class="s0" d="m1376.4 927.7c0 0 52.8 50.6 101-46.6 0 0-59.9-41.8-101 46.6z"/>
		<path id="Layer" class="s0" d="m1376.4 927.7c0 0 52.8 50.6 101-46.6 0 0-59.9-41.8-101 46.6z"/>
		<path id="eye" class="s1" d="m1419.6 906.9c2 6.6-1.1 13.3-6.9 15-5.8 1.7-12.1-2.3-14.1-8.9-2-6.6 1.1-13.3 6.9-15 5.8-1.7 12.2 2.3 14.1 8.9z"/>
		<path id="Layer" class="s0" d="m2181.2 1516.7c10.3-223.6 6.5-390.5-147-494.1-197.3-224.6-429.3-530.8-380.5-901.6 35.2-268 54.6-5.4 54.6-5.4 0 0 43.6 382.2 187.4 504.9 366.2 323.4 366.7 500.8 285.5 896.2z"/>
		<path id="Layer" class="s0" d="m2181.2 1516.7c10.3-223.6 6.5-390.5-147-494.1-197.3-224.6-429.3-530.8-380.5-901.6 35.2-268 54.6-5.4 54.6-5.4 0 0 43.6 382.2 187.4 504.9 366.2 323.4 366.7 500.8 285.5 896.2z"/>
		<path id="Layer" class="s0" d="m1584.8 315.4c0 0 52.7 258.8 193 419.4 147.3 168.7 110.8 131.4 234.2 285.9 0 0-13.7-12.4-55.4 0.3 0 0-112.9-170.9-224.3-222.9 0 0-139.6-143.1-161.4-297.2-35.3-250.3-3.1-280 13.9-185.5z"/>
		<path id="Layer" class="s0" d="m1584.8 315.4c0 0 52.7 258.8 193 419.4 147.3 168.7 110.8 131.4 234.2 285.9 0 0-13.7-12.4-55.4 0.3 0 0-112.9-170.9-224.3-222.9 0 0-139.6-143.1-161.4-297.2-35.3-250.3-3.1-280 13.9-185.5z"/>
		<path id="Layer" class="s0" d="m1704.5 783.2c0 0-125.8-141-138-179.9-21.6-68.7-29.6-88.4-36.6-29.5-3.9 32.7 19.9 183.7 86.2 190.6 44.1 4.5 88.4 18.8 88.4 18.8z"/>
		<path id="Layer" class="s0" d="m1704.5 783.2c0 0-125.8-141-138-179.9-21.6-68.7-29.6-88.4-36.6-29.5-3.9 32.7 19.9 183.7 86.2 190.6 44.1 4.5 88.4 18.8 88.4 18.8z"/>
		<path id="Layer" class="s0" d="m21.7 564.1c-8.1 108.7 34.9 295.6 94.4 374.4 116.7 238.8 440.3 520.6 886.6 435.7 138.7-39.6 259.4 24.9 346 98.7 83.3 84.9 112.5 99.4 169.5 65.9-59.1-57.3-122.4-124.3-121.1-212.5 4.1-64.1 27.5-126.9 68.6-161.1-40.6-142.5-268-149.3-369.3-139.2-131.3 8.9-263 76.6-380.2 89.6-325.5-26.7-561.4-250.7-638-595.6-32.5-158.8-48.3-64.7-56.5 44.1z"/>
		<path id="Layer" class="s0" d="m21.7 564.1c-8.1 108.7 34.9 295.6 94.4 374.4 116.7 238.8 440.3 520.6 886.6 435.7 138.7-39.6 259.4 24.9 346 98.7 83.3 84.9 112.5 99.4 169.5 65.9-59.1-57.3-122.4-124.3-121.1-212.5 4.1-64.1 27.5-126.9 68.6-161.1-40.6-142.5-268-149.3-369.3-139.2-131.3 8.9-263 76.6-380.2 89.6-325.5-26.7-561.4-250.7-638-595.6-32.5-158.8-48.3-64.7-56.5 44.1z"/>
		<path id="Layer" class="s0" d="m318.8 1304.8c230.1 136.8 460.7 181.9 651 111.4 0 0 173.7-105.6 417 116.1 0 0-273.1 145.2-534.3 135.6-94.5-3.4-390.5-65.6-583.4-262.8-175.1-179.2-178-366.3-99.3-247.7 77.5 116.8 149 147.4 149 147.4z"/>
		<path id="Layer" class="s0" d="m318.8 1304.8c230.1 136.8 460.7 181.9 651 111.4 0 0 173.7-105.6 417 116.1 0 0-273.1 145.2-534.3 135.6-94.5-3.4-390.5-65.6-583.4-262.8-175.1-179.2-178-366.3-99.3-247.7 77.5 116.8 149 147.4 149 147.4z"/>
		<path id="Layer" class="s0" d="m721.4 1707c335.5 31.7 535.6-83.3 681.6-151.1 24.4 174.5-266.8 305.7-474.5 287-138.9-6.7-333.3-37.4-454.1-163.1-11.6-12.1-91.4-113.8 36.1-35.3 82.6 39.2 141.5 48.6 210.9 62.5z"/>
		<path id="Layer" class="s0" d="m721.4 1707c335.5 31.7 535.6-83.3 681.6-151.1 24.4 174.5-266.8 305.7-474.5 287-138.9-6.7-333.3-37.4-454.1-163.1-11.6-12.1-91.4-113.8 36.1-35.3 82.6 39.2 141.5 48.6 210.9 62.5z"/>
		<path id="Layer" class="s0" d="m1440.5 1568.6c63.3 128 114.8 155.2 291.3 232.4 107.7 49.2 143 77.5 117.9 122.3 0 0 133.8-71.6 196.3-165.7 0 0-339.2-60.1-515.4-210.4-44.6 36.7-90.1 21.4-90.1 21.4z"/>
		<path id="Layer" class="s0" d="m1440.5 1568.6c63.3 128 114.8 155.2 291.3 232.4 107.7 49.2 143 77.5 117.9 122.3 0 0 133.8-71.6 196.3-165.7 0 0-339.2-60.1-515.4-210.4-44.6 36.7-90.1 21.4-90.1 21.4z"/>
		<path id="Layer" class="s0" d="m1426.9 1581.3c0 0 5.5 149.7-207.8 248-153.6 70.7 39.7 44.1 138.2-3.8 101.4-49.3 123.4-118.5 108.9-175.3-11.1-43.4-28.2-56.9-39.3-68.9z"/>
		<path id="Layer" class="s0" d="m1426.9 1581.3c0 0 5.5 149.7-207.8 248-153.6 70.7 39.7 44.1 138.2-3.8 101.4-49.3 123.4-118.5 108.9-175.3-11.1-43.4-28.2-56.9-39.3-68.9z"/>
		<path id="Layer" class="s0" d="m2177.8 1531.3c0 0-61.8 173.4-118.6 221.5 0 0 36.3 8.6 49.2 85.8 37-90.6 69.4-307.3 69.4-307.3z"/>
		<path id="Layer" class="s0" d="m2177.8 1531.3c0 0-61.8 173.4-118.6 221.5 0 0 36.3 8.6 49.2 85.8 37-90.6 69.4-307.3 69.4-307.3z"/>
		<path id="Layer" class="s0" d="m2054.1 1774.3c0 0 60.5 207-215.4 436.2-121.2 100.7-246.9 149.3-391.9 178.3 0 0-287 47.1-352.7-156.1 0 0 58.9 34.8 211.6 24.4 430.2-29.3 709.9-266.4 748.4-482.8z"/>
		<path id="Layer" class="s0" d="m2054.1 1774.3c0 0 60.5 207-215.4 436.2-121.2 100.7-246.9 149.3-391.9 178.3 0 0-287 47.1-352.7-156.1 0 0 58.9 34.8 211.6 24.4 430.2-29.3 709.9-266.4 748.4-482.8z"/>
		<path id="Layer" class="s0" d="m1252.5 2128.5c0 0 38.2 92.1 159.8 90.2 210.3-3.2 551.6-189.7 614.5-413.9 0 0-176.7 210-498.8 285.3-209.3 49-275.5 38.4-275.5 38.4z"/>
		<path id="Layer" class="s0" d="m1252.5 2128.5c0 0 38.2 92.1 159.8 90.2 210.3-3.2 551.6-189.7 614.5-413.9 0 0-176.7 210-498.8 285.3-209.3 49-275.5 38.4-275.5 38.4z"/>
		<path id="Layer" class="s0" d="m2075.6 1784.4c67.9 66.1 49.5 575.5-455.5 704.9 0 0-201.5 64.4-354.5-55.3 201.2 25.1 498.8-106.3 617.4-227.3 131.9-134.7 211.6-272.9 192.6-422.3z"/>
		<path id="Layer" class="s0" d="m2075.6 1784.4c67.9 66.1 49.5 575.5-455.5 704.9 0 0-201.5 64.4-354.5-55.3 201.2 25.1 498.8-106.3 617.4-227.3 131.9-134.7 211.6-272.9 192.6-422.3z"/>
		<path id="Layer" class="s0" d="m703.4 945.1c251.8-104.9 473.1-102.8 658.5-50.6 0 0-8.2 17.8-24.4 14-5.7-1.4 1.7 12.1 26.5 40.6-188.8-76.3-414.2-62.7-660.6-4z"/>
		<path id="beak" class="s0" d="m703.4 945.1c251.8-104.9 473.1-102.8 658.5-50.6 0 0-8.2 17.8-24.4 14-5.7-1.4 1.7 12.1 26.5 40.6-188.8-76.3-414.2-62.7-660.6-4z"/>
		<path id="Layer" class="s2" d="m1828.6 1258.6c0 0-40.7-39.9-105.4-69.2-32.3-14.7-73.9-29.1-112.8-29.9-47.7-1.1-90-8.3-140 30.3-161.9 199 48.8 442.3 554.5 543.5-53.7-4.6-636.8-584.7-196.3-474.7z"/>
		<path id="Layer" fill-rule="evenodd" class="s3" d="m1828.6 1258.6c0 0-40.7-39.9-105.4-69.2-32.3-14.7-73.9-29.1-112.8-29.9-47.7-1.1-90-8.3-140 30.3-161.9 199 48.8 442.3 554.5 543.5-53.7-4.6-636.8-584.7-196.3-474.7z"/>
		<path id="Layer" class="s2" d="m1845 1250.8c0 0 6.6-47.5 31.1-105.4 24.4-58 69.3-122.6 135.3-108.5 99 38.7 198.1 202.7 144.8 504.2-27.1 96.1-92.9 186.5-92.9 186.5 11.8 2.2-14.8-880.7-218.3-476.8z"/>
		<path id="Layer" fill-rule="evenodd" class="s3" d="m1845 1250.8c0 0 6.6-47.5 31.1-105.4 24.4-58 69.3-122.6 135.3-108.5 99 38.7 198.1 202.7 144.8 504.2-27.1 96.1-92.9 186.5-92.9 186.5 11.8 2.2-14.8-880.7-218.3-476.8z"/>
		<path id="Layer" class="s4" d="m1849.6 1281.5c-180.6-66.1-247.6 81.8 206.3 465.2-9.6-211.5-48.2-785.2-206.3-465.2z"/>
		<path id="Layer" fill-rule="evenodd" class="s3" d="m1849.6 1281.5c-180.6-66.1-247.6 81.8 206.3 465.2-9.6-211.5-48.2-785.2-206.3-465.2z"/>
	</g>
</svg>