<svg version="1.2" xmlns="http://www.w3.org/2000/svg" viewBox="0 0 306 277" width="100" height="91">
	<title>agda lagda lagda</title>
	<defs>
		<clipPath clipPathUnits="userSpaceOnUse" id="cp1">
			<path d="m0-13h306v306h-306z"/>
		</clipPath>
	</defs>
	<style>
		.s0 { fill: #2ce9fd } 
		.s1 { fill: none;stroke: #2ce9fd;stroke-linecap: round;stroke-linejoin: round;stroke-width: 8.8 } 
	</style>
	<g id="Clip-Path" clip-path="url(#cp1)">
		<g id="Layer">
			<path id="Layer" fill-rule="evenodd" class="s0" d="m71 83.5c0 3.6-2.9 6.5-6.5 6.5-3.6 0-6.5-2.9-6.5-6.5 0-3.6 2.9-6.5 6.5-6.5 3.6 0 6.5 2.9 6.5 6.5z"/>
			<path id="Layer" fill-rule="evenodd" class="s0" d="m95 83.5c0 3.6-2.9 6.5-6.5 6.5-3.6 0-6.5-2.9-6.5-6.5 0-3.6 2.9-6.5 6.5-6.5 3.6 0 6.5 2.9 6.5 6.5z"/>
			<path id="Layer" fill-rule="evenodd" class="s1" d="m251.5 17.5l-98 98"/>
			<path id="Layer" fill-rule="evenodd" class="s1" d="m300.5 42.5l-49 49"/>
			<path id="Layer" fill-rule="evenodd" class="s1" d="m300.5 17.5l-49 49"/>
			<path id="Layer" fill-rule="evenodd" class="s1" d="m129.5 17.5l-49 49"/>
			<path id="Layer" fill-rule="evenodd" class="s1" d="m153.5 17.5l-49 49"/>
			<path id="Layer" fill-rule="evenodd" class="s1" d="m104.5 17.5l-98 98.4h49v49.2c0 54.1 44.1 98.4 98 98.4 53.9 0 98-44.3 98-98.4v-49.2l49-49.2"/>
		</g>
	</g>
</svg>