<svg version="1.2" xmlns="http://www.w3.org/2000/svg" viewBox="0 0 23 22" width="100" height="96">
	<title>svgexport-1-svg</title>
	<defs>
		<linearGradient id="g1" x2="1" gradientUnits="userSpaceOnUse" gradientTransform="matrix(1.463,-12.716,2.869,.33,1.929,16.906)">
			<stop offset="0" stop-color="#cfd0d1"/>
			<stop offset="1" stop-color="#dbdbdb"/>
		</linearGradient>
		<linearGradient id="g2" x2="1" gradientUnits="userSpaceOnUse" gradientTransform="matrix(-2.007,-12.39,3.912,-0.634,21.218,16.609)">
			<stop offset="0" stop-color="#cfd0d1"/>
			<stop offset="1" stop-color="#dbdbdb"/>
		</linearGradient>
		<linearGradient id="g3" x2="1" gradientUnits="userSpaceOnUse" gradientTransform="matrix(1.265,-0.862,.773,1.135,2.98,4.403)">
			<stop offset="0" stop-color="#dbdbdb"/>
			<stop offset="1" stop-color="#f3f3f3"/>
		</linearGradient>
		<linearGradient id="g4" x2="1" gradientUnits="userSpaceOnUse" gradientTransform="matrix(-0.897,-1.296,1.21,-0.838,19.701,4.041)">
			<stop offset="0" stop-color="#dbdbdb"/>
			<stop offset="1" stop-color="#f3f3f3"/>
		</linearGradient>
		<linearGradient id="g5" x2="1" gradientUnits="userSpaceOnUse" gradientTransform="matrix(-1.265,.862,-0.829,-1.217,20.167,17.839)">
			<stop offset="0" stop-color="#cfd0d1"/>
			<stop offset="1" stop-color="#b7b7b7"/>
		</linearGradient>
		<linearGradient id="g6" x2="1" gradientUnits="userSpaceOnUse" gradientTransform="matrix(1.265,.862,-0.743,1.09,2.98,17.789)">
			<stop offset="0" stop-color="#cfd0d1"/>
			<stop offset="1" stop-color="#b7b7b7"/>
		</linearGradient>
		<linearGradient id="g7" x2="1" gradientUnits="userSpaceOnUse" gradientTransform="matrix(8.176,0,0,7.998,2.923,10.743)">
			<stop offset="0" stop-color="#f4f5f7"/>
			<stop offset="1" stop-color="#e9eaeb"/>
		</linearGradient>
	</defs>
	<style>
		.s0 { fill: url(#g1) } 
		.s1 { fill: url(#g2) } 
		.s2 { fill: #f3f3f3 } 
		.s3 { fill: url(#g3) } 
		.s4 { fill: url(#g4) } 
		.s5 { fill: url(#g5) } 
		.s6 { fill: url(#g6) } 
		.s7 { fill: #b7b7b7 } 
		.s8 { fill: url(#g7) } 
		.s9 { fill: #000000 } 
	</style>
	<g id="layer4">
		<g id="Folder 3">
			<path id="rect940" class="s0" d="m1.9 4.2h1.5v12.9h-1.5z"/>
			<path id="rect940-8" class="s1" d="m21.2 4.2h-2v12.4h2z"/>
			<path id="rect1004" class="s2" d="m3.6 1.8h15v1.1h-15z"/>
			<path id="path4905-8" class="s3" d="m3.2 4.7l-1.3-0.4v-1c0.1-0.9 0.9-1.5 1.5-1.5h0.3l0.4 1.9z"/>
			<path id="path4905-0-7" class="s4" d="m19.3 5.5l1.9-1.2v-1.1c0-0.5-0.4-1.3-1.4-1.4h-1.4l-0.4 2.3z"/>
			<path id="path4905-0" class="s5" d="m19 16.1l2.2 0.4v2.5c0 0.5-0.4 1.3-1.4 1.3h-1.2l-0.4-2.1z"/>
			<path id="path4905" class="s6" d="m4.1 16.6l-2.2-0.1v2.4c0.1 0.9 0.9 1.4 1.5 1.4h1.2l0.5-2.1z"/>
			<path id="rect4901" class="s7" d="m4.5 16.9h14.1v3.4h-14.1z"/>
		</g>
		<path id="rect839-2" class="s8" d="m2.9 2.7h16.4v16h-16.4z"/>
	</g>
	<g id="layer5">
		<g id="text1041">
			<path id="path3185" fill-rule="evenodd" class="s9" d="m6.4 15.6l-0.5 1.2h-0.5l1.5-4.1h0.6l1.5 4.1h-0.6l-0.4-1.2zm1.4-0.5l-0.6-1.8-0.6 1.8z"/>
		</g>
		<g id="text1041-1">
			<path id="path3182" class="s9" d="m16.7 14.7h-2.2v-1.7h-0.5v4.1h0.5v-1.9h2.2v1.9h0.5v-4.1h-0.5z"/>
		</g>
		<g id="text1041-1-7">
			<path id="path3179" class="s9" d="m14.5 6.6l0.7-0.6 1.4 2.1h0.7l-1.7-2.5 1.7-1.6h-0.8l-2 2v-2h-0.5v4.1h0.5z"/>
		</g>
	</g>
</svg>