<svg version="1.2" xmlns="http://www.w3.org/2000/svg" viewBox="0 0 1890 1890" width="100" height="100">
	<title>APL_(programming_language)_logo-svg</title>
	<defs>
		<clipPath clipPathUnits="userSpaceOnUse" id="cp1">
			<path d="m0 0h1890v1889h-1890z"/>
		</clipPath>
	</defs>
	<style>
		.s0 { fill: #24a148 } 
		.s1 { fill: #defbe6 } 
	</style>
	<g id="Clip-Path" clip-path="url(#cp1)">
		<g id="Layer">
			<path id="Layer" fill-rule="evenodd" class="s0" d="m1300.9 1432.5h483.8l-26.5 58.3c-92 187.4-229.9 334.4-405.9 381.8l-51.4 9.7zm-622.7 0h540.2v456h-7.5c-49.5-1.7-101.3-10.9-155.4-28.4-117.8-38.2-118.3-38.9-229.2-0.4-44.2 15.4-87.1 24.7-128.4 28.4l-19.7 1zm-570 0h487.4v453.1l-17.1-2.2c-195.1-34-348.5-195.2-448.1-401.4zm1192.7-632.3h583.4l4.2 48.9c7.1 144.5-11.6 298.8-53.8 443.1l-18.6 57.8h-515.2zm-622.7 0h540.2v549.8h-540.2zm-672.4 0h589.9v549.9h-519.8l-20.4-63.3c-47.3-160.7-65.5-331.7-50.2-482.9zm373.9-450.9c50.8-1 107.1 7.2 169 26.3l46.9 16.1v325.9h-577.1l13.3-57.4c50.6-179.9 163.1-307.1 347.9-310.9zm838.7-66.8v435.1h-540.2v-289.6l19.6 9.3c35.2 18.1 72 39.1 110.2 63.3 129.9-93.1 246.9-157.7 351.8-198.2zm219.9-33.6c240.3 9.8 378.3 192.6 429.1 432.8l6 35.9h-572.5v-456.7l7.1-1.7c46.4-8.7 89.8-12 130.3-10.3zm-928.1-248.9h274.4q29.8 0 37.6 23.1 5.8 16.9-37.4 394.3-293.1-378.1-298.1-393-3.9-11.5 4.6-18.3 7.4-6.1 18.9-6.1z"/>
			<path id="Layer" fill-rule="evenodd" class="s1" d="m277.7 888h87.2l119.4 275q1.2 2.9 1.7 4.9 0.6 2 1.8 3.8 0.5 2.3 1.4 4 0.9 1.7 1.4 3.4 1.2 1.7 1.8 3.5 0.5 1.7 1.7 3.4 0.6 1.7 1.4 3.2 0.9 1.4 1.5 2.6 4.5 8.6 10 14.9 5.4 6.3 11.2 9.8 6.3 4 15.8 5.7 9.4 1.7 23.2 1.7v47.1h-212.4v-48.2h20.1q1.2 0.5 1.8 0.5 0.5 0 1.7 0 0.5 0 1.4 0 0.9 0 1.4 0 6.4 0 11-0.8 4.5-0.9 8-2 4-1.8 6-4.6 2-2.9 2-6.9 0-2.9-0.6-6-0.5-3.2-1.7-7.2-1.1-3.5-2.6-7.2-1.4-3.7-2.5-7.8-0.6-1.1-1.2-2.3-0.6-1.1-1.1-2.2-0.6-1.2-1.2-2.3-0.6-1.2-1.1-2.9-1.2-2.9-2.3-5.5-1.2-2.6-2.3-4.8-1.2-2.9-2-4.9-0.9-2-2-4.3v-1.2h-143q-0.5 1.7-1.1 2.9-0.6 1.1-0.6 2.3-0.6 1.7-1.1 2.9-0.6 1.1-1.2 2.3-0.6 2.2-1.4 4.5-0.9 2.3-2 4.6-0.6 1.8-1.5 3.5-0.8 1.7-1.4 3.4-0.6 0.6-0.9 1.5-0.2 0.8-0.2 1.4-0.6 1.2-0.9 1.7-0.3 0.6-0.3 1.8-1.7 3.4-2.6 6.8-0.8 3.5-2 6.9-0.6 3.5-1.1 6.9-0.6 3.5-0.6 6.3 0 4.1 1.4 7.2 1.5 3.2 4.9 4.3 2.9 1.2 9.5 1.7 6.6 0.6 16.3 0.6l16.7-1.1v48.2h-170.5v-48.2q0.6 0.5 1.4 0.5 0.9 0 1.5 0 0.5 0 1.4 0 0.9 0 1.4 0 9.2 0 17-1.1 7.7-1.2 13.5-3.4 6.3-2.9 12-9.8 5.8-6.9 10.9-17.8 1.2-2.9 2.3-5.5 1.2-2.6 2.3-4.9 0.6-1.1 1.2-2.3 0.5-1.1 1.1-2.8 0.6-1.2 1.2-2.3 0.5-1.2 1.1-2.3 0-0.6 0-0.9 0-0.3 0.6-0.8 0 0 0.3-0.3 0.3-0.3 0.3-0.9 0-0.6 0.2-1.1 0.3-0.6 0.9-1.2 1.2-1.7 1.7-3.1 0.6-1.5 1.7-3.2 0.6-1.1 1.5-2.9 0.8-1.7 1.4-3.4 1.7-2.9 3.2-6.3 1.4-3.5 2.6-6.9zm481.9 0h252.6q32.7 1.1 57.4 8.3 24.7 7.2 41.3 21 16.7 13.7 25.3 33.8 8.6 20.1 8.6 47.1 0 26.4-8.9 46.5-8.9 20.1-26.7 33.3-17.8 13.2-45.1 19.9-27.2 6.6-63.4 6.6l-85.5-1.2v93.6q0 8 1.7 13.5 1.7 5.5 5.2 8.3 3.4 2.9 9.5 4.3 6 1.5 14.6 1.5l36.2-1.2v47.7h-222.8v-47.1h29.9q1.1 0.6 2.3 0.6 1.1 0 1.7 0 6.9 0 12.1-1.5 5.1-1.4 8-4.3 3.4-2.9 5.2-8 1.7-5.2 1.7-12.7v-235.4q0-6.3-1.7-11.5-1.8-5.1-5.2-8-3.5-2.9-9.5-4.6-6-1.7-14.6-1.7l-29.9-1.2zm626.8 0h221v47.7h-34.4q-8.6 1.2-14.7 2.9-6 1.7-9.4 4.6-3.5 2.8-5.2 8-1.7 5.2-1.7 12.6v257.9h79.2q30.4 1.1 48.5-7.5 18.1-8.6 25-25.9 6.3-17.2 9.7-38.4 3.5-21.3 4-46l54.6-1.1v168.2h-376.6v-47h29.9q1.1 0.5 2.3 0.5 1.1 0 1.7 0 6.9 0 12-1.4 5.2-1.4 8.1-4.3 3.4-2.9 5.2-8 1.7-5.2 1.7-12.7v-235.4q0-6.3-1.7-11.5-1.8-5.2-5.2-8-3.5-2.9-9.5-4.6-6-1.8-14.6-1.7l-29.9-1.2zm-471.2 49.4v116.6h47.6q1.2 0.5 2.6 0.5 1.5 0 2 0 19.5 0 33.9-3.4 14.3-3.5 24.1-9.8 9.8-6.9 14.9-18.1 5.2-11.2 5.2-26.1 0-16.1-5.2-27.3-5.1-11.2-14.9-18.1-9.8-6.3-26.7-9.7-16.9-3.5-41-3.5zm-613.5 37.4l-48.8 126.3h102.8z"/>
		</g>
	</g>
</svg>