<svg version="1.2" xmlns="http://www.w3.org/2000/svg" viewBox="0 0 14 14" width="100" height="100">
	<title>bqn-svg</title>
	<defs>
		<clipPath clipPathUnits="userSpaceOnUse" id="cp1">
			<path d="m0 1h14v12h-14z"/>
		</clipPath>
	</defs>
	<style>
		.s0 { fill: none;stroke: #2b7067 } 
	</style>
	<g id="Clip-Path" clip-path="url(#cp1)">
		<path id="Layer" fill-rule="evenodd" class="s0" d="m1.3 12.8v-11.5l2.7 2.7c-0.7 0.7-1.1 1.6-1.2 2.6-0.1 1 0.1 1.9 0.7 2.8 0.5 0.8 1.3 1.4 2.3 1.7 0.9 0.2 1.9 0.2 2.8-0.2m4.1-9.7v11.5l-2.7-2.7c0.7-0.7 1.1-1.6 1.2-2.6 0.1-1-0.1-1.9-0.7-2.8-0.5-0.8-1.3-1.4-2.3-1.7q-0.8-0.2-1.7-0.1zm-6.1 1.6l-1.2 0.3q0.6-0.3 1.2-0.3zm-1.6 2.2h4v1.2l-0.8 0.8 0.8 0.8v1.2h-4z"/>
	</g>
</svg>