<svg version="1.2" xmlns="http://www.w3.org/2000/svg" viewBox="0 0 56 54" width="100" height="96">
	<title>Adobe_ColdFusion_logo_2021-svg</title>
	<style>
		.s0 { fill: #002258 } 
		.s1 { fill: #7badff } 
	</style>
	<g id="Layer">
		<g id="Outline no shadow copy 3">
			<path id="Layer" class="s0" d="m0 9.9c0-5.5 4.4-9.9 9.9-9.9h36.2c5.5 0 9.9 4.4 9.9 9.9v34.2c0 5.5-4.4 9.9-9.9 9.9h-36.2c-5.5 0-9.9-4.4-9.9-9.9z"/>
		</g>
	</g>
	<g id="Outlined Mnemonics &amp; Logos">
		<path id="Layer" class="s1" d="m30.7 33.4v3.8q0 0.1 0 0.1 0 0.1-0.1 0.2 0 0.1-0.1 0.1 0 0.1-0.1 0.1-0.3 0.1-0.5 0.2-0.3 0.1-0.6 0.1-0.3 0.1-0.6 0.1-0.2 0.1-0.5 0.1-0.4 0-0.8 0.1-0.3 0-0.7 0-0.3 0.1-0.7 0.1-0.4 0-0.7 0-0.6 0-1.1-0.1-0.5 0-1 0-0.5-0.1-1-0.2-0.5-0.1-1-0.2-0.5-0.1-1-0.3-0.4-0.2-0.9-0.3-0.4-0.2-0.8-0.5-0.5-0.2-0.9-0.4-0.4-0.3-0.7-0.6-0.4-0.3-0.7-0.6-0.4-0.3-0.7-0.6-0.3-0.4-0.6-0.7-0.3-0.4-0.6-0.8-0.2-0.5-0.4-0.9-0.3-0.4-0.4-0.9-0.2-0.4-0.4-0.9-0.1-0.5-0.3-1.1-0.1-0.5-0.2-1.1 0-0.5-0.1-1.1 0-0.6 0-1.1 0-0.9 0.1-1.7 0.1-0.9 0.3-1.7 0.2-0.8 0.5-1.6 0.3-0.8 0.7-1.6 0.4-0.7 0.9-1.3 0.5-0.7 1.1-1.2 0.6-0.6 1.3-1.1 0.6-0.4 1.3-0.8 0.9-0.4 1.7-0.7 0.9-0.3 1.8-0.5 0.9-0.2 1.8-0.3 1-0.1 1.9-0.1 0.3 0 0.7 0 0.4 0 0.7 0.1 0.4 0 0.7 0 0.4 0 0.8 0.1 0.2 0 0.5 0.1 0.2 0 0.4 0 0.3 0.1 0.5 0.2 0.3 0 0.5 0.1 0.1 0.1 0.1 0.1 0 0.1 0.1 0.1 0 0.1 0 0.1 0 0.1 0 0.2v4q0 0.4-0.3 0.3-0.2-0.2-0.5-0.3-0.3-0.1-0.5-0.1-0.3-0.1-0.6-0.2-0.3 0-0.6-0.1-0.3 0-0.6-0.1-0.4 0-0.7 0-0.3-0.1-0.7-0.1-0.3 0-0.7 0-0.5 0-1.1 0.1-0.5 0-1 0.1-0.6 0.2-1.1 0.4-0.5 0.1-1 0.4-0.4 0.2-0.8 0.5-0.4 0.3-0.8 0.7-0.3 0.3-0.6 0.7-0.3 0.4-0.6 0.9-0.2 0.4-0.4 1-0.2 0.5-0.3 1-0.1 0.5-0.2 1.1 0 0.5 0 1 0 0.4 0 0.8 0 0.4 0.1 0.8 0 0.3 0.1 0.7 0.1 0.4 0.3 0.8 0.1 0.3 0.2 0.6 0.1 0.3 0.3 0.5 0.1 0.3 0.3 0.6 0.2 0.3 0.4 0.5 0.2 0.3 0.4 0.5 0.2 0.2 0.5 0.4 0.2 0.2 0.5 0.3 0.2 0.2 0.5 0.3 0.2 0.2 0.5 0.3 0.3 0.1 0.6 0.2 0.2 0.1 0.5 0.2 0.3 0.1 0.6 0.2 0.3 0 0.5 0.1 0.3 0 0.6 0.1 0.3 0 0.6 0 0.3 0 0.6 0 0.3 0 0.6 0 0.3 0 0.6 0 0.3 0 0.6 0 0.3 0 0.7-0.1 0.2 0 0.5 0 0.2-0.1 0.5-0.1 0.2-0.1 0.5-0.2 0.3 0 0.5-0.1 0.2-0.1 0.2-0.1 0 0.1 0.1 0.1 0 0 0 0 0 0.1 0 0.1 0 0 0 0.1z"/>
		<path id="Layer" class="s1" d="m34.8 23.9h-2.2q-0.3 0-0.3-0.3v-3.7q0-0.1 0-0.1 0.1-0.1 0.1-0.1 0-0.1 0.1-0.1 0 0 0.1 0h2.2v-0.6q0-0.3 0-0.6 0-0.2 0-0.5 0.1-0.3 0.1-0.6 0-0.3 0.1-0.6 0-0.2 0.1-0.5 0.1-0.2 0.1-0.4 0.1-0.3 0.2-0.5 0.1-0.2 0.2-0.5 0.2-0.3 0.4-0.7 0.2-0.3 0.5-0.6 0.2-0.3 0.6-0.6 0.3-0.3 0.6-0.5 0.4-0.3 0.8-0.5 0.5-0.2 0.9-0.3 0.5-0.1 1-0.2 0.4 0 0.9 0 0.2 0 0.3 0 0.1 0 0.3 0 0.1 0 0.2 0 0.2 0 0.3 0.1 0.1 0 0.2 0 0.1 0 0.2 0 0.1 0.1 0.2 0.1 0.1 0 0.2 0.1 0.1 0 0.2 0 0 0.1 0 0.1 0.1 0.1 0.1 0.1 0 0.1 0 0.1v3.7q0 0.3-0.3 0.2-0.1 0-0.1 0-0.1 0-0.2-0.1 0 0-0.1 0-0.1 0-0.1 0h-0.6q-0.2 0-0.3 0.1-0.2 0-0.3 0-0.1 0-0.3 0.1-0.1 0-0.3 0.1-0.1 0.1-0.2 0.2-0.1 0.1-0.2 0.2-0.1 0.1-0.2 0.2-0.1 0.1-0.1 0.3-0.1 0.2-0.1 0.4-0.1 0.2-0.1 0.4 0 0.2 0 0.4-0.1 0.2 0 0.4v1h3.1q0.2 0 0.2 0.1 0.1 0 0.1 0 0 0.1 0 0.1 0 0 0 0.1 0 0 0 0v3.7q0 0.3-0.3 0.3h-3.1v13.8q0 0-0.1 0 0 0.1 0 0.1 0 0 0 0 0 0.1 0 0.1-0.1 0.1-0.3 0.1h-4.5q-0.3 0-0.3-0.3z"/>
	</g>
</svg>