<svg version="1.2" xmlns="http://www.w3.org/2000/svg" viewBox="0 0 400 433" width="100" height="108">
	<title>chpl-svg</title>
	<style>
		.s0 { fill: #079dcc } 
		.s1 { fill: #84bc43 } 
	</style>
	<g id="svgg">
		<path id="path0" fill-rule="evenodd" class="s0" d="m240 74.1c0 0.1 0.5 0.3 1.1 0.3 1.5 0 8.7 1.3 8.9 1.6 0.1 0.1 1.6 0.5 3.3 0.8 1.7 0.3 3.1 0.7 3.1 0.8 0 0.2 0.6 0.5 1.3 0.6 3 0.6 5.1 1.2 5.1 1.4 0 0.2 1.1 0.5 2.4 0.8 1.4 0.3 2.7 0.7 2.9 1 0.3 0.2 1.6 0.8 2.9 1.2 1.3 0.4 2.6 1 2.9 1.3 0.3 0.2 1.2 0.6 1.9 0.7 0.8 0.2 1.4 0.4 1.4 0.6 0 0.2 0.9 0.6 2 1 1.1 0.4 2 0.9 2 1 0 0.2 0.9 0.6 1.9 1 1 0.4 2 0.9 2.1 1 0.1 0.2 0.9 0.6 1.8 1 0.9 0.4 1.8 1 2.1 1.3 0.3 0.3 0.8 0.5 1.1 0.5 0.3 0 0.7 0.2 0.9 0.5 0.2 0.3 1.1 0.9 2 1.3 0.9 0.4 1.7 0.9 1.7 1.1 0 0.1 0.7 0.6 1.5 1 0.8 0.4 1.8 0.9 2.1 1.3 0.4 0.3 1.4 1.1 2.2 1.6 0.8 0.5 1.7 1.2 1.9 1.4 0.3 0.3 1 0.8 1.7 1.2 0.7 0.4 1.4 1.1 1.7 1.5 0.3 0.4 0.8 0.7 1.1 0.7 0.3 0 0.8 0.5 1.2 1 0.3 0.6 0.8 1 1 1 0.3 0 1.2 0.7 2 1.6 0.8 0.9 1.7 1.6 1.9 1.6 0.6 0 12.8 12.8 15.3 16 0.5 0.7 1.2 1.5 1.4 1.7 1.6 1.8 3.4 4.3 3.4 4.6 0 0.2 0.3 0.5 0.6 0.6 0.3 0.2 0.6 0.5 0.6 0.9 0 0.3 0.3 0.8 0.7 1.1 0.4 0.3 1.1 1.2 1.4 2 0.4 0.8 0.9 1.5 1.1 1.5 0.2 0 0.5 0.5 0.8 1.2 0.3 0.7 0.6 1.2 0.7 1.2 0.2 0 0.6 0.7 1.1 1.6 0.4 0.9 0.9 1.6 1 1.6 0.2 0 0.6 0.9 1 1.9 0.4 1 1 2.1 1.3 2.4 0.8 0.9 0.6 1.7-0.7 2.2-0.7 0.2-1.2 0.5-1.2 0.7 0 0.1-0.7 0.5-1.6 0.8-0.9 0.3-1.6 0.6-1.6 0.8 0 0.2-0.8 0.5-1.7 0.8-0.9 0.3-2.7 1.1-3.8 1.7-1.2 0.6-2.4 1.1-2.7 1.1-0.3 0-0.6 0.2-0.6 0.4 0 0.7-0.9 0.4-1.9-0.6-0.5-0.6-0.9-1.2-0.9-1.4 0-0.2-0.3-0.6-0.6-0.9-1-1.1-1.2-2.9-0.3-3.2 1-0.4 2-1.1 4.4-3.1 0.4-0.3 1.4-1 2.2-1.4 1.4-0.7 2.1-2.2 1.1-2.2-0.2 0-0.4-0.3-0.6-0.7-0.1-0.4-0.7-1.3-1.4-2.1-0.7-0.8-1.2-1.6-1.2-1.9 0-0.2-0.3-0.5-0.6-0.6-0.3-0.2-0.8-0.7-1-1.3-0.2-0.5-0.6-1-0.8-1-0.2 0-0.4-0.3-0.6-0.7-0.1-0.4-0.7-1.3-1.4-2.1-0.7-0.8-1.6-1.9-2.1-2.5-0.5-0.6-2.1-2.4-3.6-3.9-1.5-1.5-2.7-2.9-2.7-3.1 0-0.4-4.2-4.5-4.6-4.5-0.1 0-1.5-1.2-3-2.7-1.5-1.5-3.2-3.1-3.9-3.6-0.6-0.5-1.7-1.4-2.5-2.1-0.8-0.7-1.5-1.2-1.6-1.2-0.3 0-1.7-1.1-3.2-2.6-0.4-0.3-0.9-0.6-1.1-0.6-0.3 0-0.7-0.3-1-0.7-0.3-0.4-1.2-1.1-2-1.5-0.8-0.4-1.5-0.9-1.5-1 0-0.2-0.8-0.6-1.7-1-0.9-0.5-2-1.1-2.4-1.4-1.4-1.3-1.9-1.6-3.5-2.2-0.9-0.4-1.6-0.8-1.6-1 0-0.2-0.9-0.6-2-1-1.1-0.4-2-0.9-2-1 0-0.2-0.9-0.6-2-1-1.1-0.4-2-0.9-2-1 0-0.2-0.6-0.5-1.4-0.8-0.8-0.3-1.4-0.6-1.4-0.8 0-0.1-1.1-0.6-2.5-1-1.4-0.4-2.6-0.9-2.7-1-0.1-0.2-1.2-0.6-2.4-1-1.2-0.4-2.4-0.8-2.6-1-0.2-0.2-1.7-0.6-3.3-1-1.6-0.4-2.9-0.9-2.9-1 0-0.2-1.2-0.5-2.6-0.8-1.4-0.3-2.6-0.6-2.6-0.8 0-0.2-1.9-0.6-4.2-1-2.3-0.4-4.2-0.8-4.2-1 0-0.1-0.3-0.3-0.7-0.3-0.4 0-2.7-0.3-5.2-0.7-2.5-0.3-5.1-0.6-5.9-0.6-0.7 0-1.4-0.2-1.5-0.5-0.3-0.8-29.1-0.7-30 0-0.4 0.4-1.4 0.5-2.6 0.4l-1.9-0.1 0.1 4.3c0.1 2.9 0 4.3-0.3 4.3-0.2 0-0.4 0.5-0.4 1.1 0 1.7-0.4 2-4 2.5-1.9 0.3-3.6 0.6-3.8 0.8-0.2 0.2-1.9 0.6-3.8 1-1.9 0.4-3.5 0.9-3.6 1-0.1 0.2-1.5 0.6-3 1-1.5 0.4-2.9 0.9-3 1-0.1 0.2-1.3 0.6-2.7 1-1.4 0.4-2.5 0.9-2.5 1.1 0 0.2-0.2 0.3-0.5 0.3-0.3 0-1.2 0.4-2.1 0.8-0.9 0.5-2.4 1.1-3.4 1.5-0.9 0.3-2 0.8-2.3 1.1-0.3 0.3-0.8 0.6-1.1 0.6-0.3 0-1.1 0.4-1.9 1-0.8 0.5-2.1 1.2-2.9 1.4-0.8 0.3-1.4 0.7-1.4 0.9 0 0.2-0.5 0.5-1.2 0.8-0.7 0.2-1.2 0.5-1.2 0.7 0 0.2-0.7 0.7-1.5 1.1-0.8 0.3-1.6 0.9-1.8 1.2-0.2 0.3-0.6 0.5-0.8 0.5-0.3 0-1 0.5-1.7 1-0.6 0.6-1.3 1-1.4 1-0.2 0-0.8 0.4-1.4 0.9-0.5 0.5-1.8 1.5-2.9 2.3-1 0.8-2.1 1.6-2.3 1.8-0.3 0.2-1.1 0.9-2 1.6-2 1.6-13.8 13.4-13.8 13.8 0 0.2-0.3 0.6-0.7 0.9-0.4 0.3-1.1 1-1.5 1.7-0.4 0.7-1.1 1.4-1.5 1.7-0.4 0.3-0.7 0.8-0.7 1.1 0 0.3-0.4 0.8-0.8 1-0.4 0.2-0.8 0.7-0.8 1 0 0.3-0.3 0.8-0.7 1.1-0.4 0.3-1 1-1.3 1.7-0.3 0.7-0.8 1.3-1.1 1.5-0.3 0.2-0.5 0.6-0.5 0.8 0 0.3-0.4 1-1 1.6-0.5 0.7-1.2 1.7-1.5 2.3-0.3 0.7-0.6 1.2-0.8 1.2-0.2 0-0.3 0.2-0.3 0.4 0 0.3-0.4 1-0.8 1.6-0.4 0.6-0.7 1.2-0.5 1.3 0.1 0.2 0 0.3-0.2 0.3-0.2 0-0.6 0.6-0.9 1.4-0.3 0.8-0.6 1.4-0.8 1.4-0.2 0-0.7 0.9-1 1.9-0.4 1-0.9 2-1 2.1-0.1 0.1-0.6 1.1-1 2.2-0.4 1.1-0.8 2.1-1 2.2-0.1 0.1-0.5 1-0.8 2-0.3 1-0.8 2.1-1 2.4-0.3 0.3-0.7 1.5-1 2.7-0.3 1.2-0.6 2.1-0.8 2.1-0.2 0-0.6 1.4-1 3.1-0.4 1.7-0.8 3.2-1 3.3-0.1 0.1-0.6 1.9-1 4-0.4 2.1-0.8 3.9-1 4-0.3 0.2-1.7 9.1-2.4 15.2-0.4 3.8-0.4 18.8 0 23 0.6 5.6 2.1 14.8 2.4 15 0.2 0.1 0.6 2 1 4.3 0.4 2.3 0.9 4.1 1 4.1 0.2 0 0.4 0.6 0.6 1.3 0.6 3 1.2 5.1 1.4 5.1 0.2 0 0.5 0.8 0.8 1.8 0.2 1 0.7 2.3 1 2.7 0.3 0.5 0.7 1.8 1 2.8 0.3 1 0.7 1.9 0.9 1.9 0.2 0 0.3 0.2 0.3 0.4 0 0.2 0.5 1.6 1.2 3 0.7 1.5 1.4 3.1 1.6 3.6 0.2 0.6 0.5 1 0.7 1 0.2 0 0.6 0.7 0.9 1.6 0.3 0.9 0.7 1.6 0.8 1.6 0.2 0 0.6 0.8 1 1.8 0.4 1 0.9 1.8 1 1.8 0.2 0 0.5 0.5 0.8 1.2 0.3 0.7 0.7 1.4 1 1.5 0.2 0.2 0.8 1 1.1 1.8 0.4 0.8 0.9 1.5 1.1 1.5 0.2 0 0.5 0.5 0.8 1.2 0.3 0.7 0.6 1.2 0.8 1.2 0.1 0 0.6 0.6 1 1.3 0.4 0.6 1 1.5 1.4 1.9 0.3 0.4 1 1.2 1.4 1.8 1.4 1.9 2.7 3.4 5.8 6.7 1.6 1.7 3.1 3.4 3.1 3.7 0.1 0.3 0.4 0.6 0.6 0.6 0.3 0 2.1 1.5 3.9 3.3 1.9 1.8 4 3.7 4.7 4.3 2.2 1.8 3.2 2.6 4.2 3.3 0.5 0.4 1.6 1.2 2.4 1.9 0.9 0.6 1.9 1.3 2.3 1.4 0.5 0.1 0.8 0.4 0.8 0.6 0 0.2 0.7 0.7 1.5 1.1 0.8 0.3 1.6 0.9 1.8 1.1 0.2 0.3 0.8 0.7 1.5 1 0.7 0.3 1.2 0.6 1.2 0.8 0 0.1 0.6 0.5 1.4 0.8 0.8 0.3 1.4 0.7 1.4 0.8 0 0.2 0.8 0.6 1.8 1 1 0.4 1.8 0.9 1.8 1 0 0.2 0.9 0.6 2 1 1.1 0.4 2 0.9 2 1 0 0.2 0.9 0.6 2.1 1 1.2 0.4 2.2 0.8 2.3 1 0.1 0.2 0.9 0.5 1.8 0.8 0.9 0.3 1.7 0.6 1.8 0.8 0.2 0.3 4.3 1.6 5 1.6 0.4 0 0.6 0.1 0.6 0.3 0 0.2 1.3 0.7 2.9 1.1 1.6 0.4 3 0.9 3.1 1 0.1 0.1 1.8 0.6 3.8 1 2 0.4 3.8 0.8 4 0.9 0.2 0.2 1.6 0.5 3 0.7 2.4 0.4 2.6 0.5 2.7 1.5 0.1 0.6 0.3 1.1 0.5 1.1 0.2 0 0.4 1.8 0.4 4.1v4.2l2.7 0.2c9.9 1 35.4 0.6 36.1-0.5 0.1-0.1 2.6-0.6 5.6-0.9 3-0.4 5.5-0.9 5.6-1.1 0.1-0.1 1.7-0.5 3.5-0.8 1.8-0.3 3.3-0.7 3.3-0.9 0-0.1 1.4-0.6 3.2-0.9 1.8-0.4 3.2-0.9 3.2-1.1 0-0.2 0.2-0.3 0.6-0.3 0.7 0 4.7-1.3 5-1.6 0.1-0.2 1.3-0.6 2.7-1 1.4-0.4 2.5-0.9 2.5-1 0-0.2 0.7-0.5 1.7-0.8 0.9-0.2 1.9-0.7 2.1-1 0.3-0.3 1.4-0.7 2.4-1 1-0.3 1.8-0.7 1.8-0.8 0-0.2 0.8-0.6 1.8-1 1-0.4 1.8-0.9 1.8-1 0-0.2 0.9-0.6 1.9-1 1-0.4 2-1 2.2-1.3 0.2-0.3 0.6-0.5 0.9-0.5 0.3 0 0.8-0.2 1.1-0.5 0.3-0.3 1.2-0.8 2-1.2 0.8-0.4 1.5-0.9 1.5-1.1 0-0.2 0.4-0.5 0.9-0.6 0.5-0.2 1.4-0.8 2.1-1.3 0.6-0.5 1.6-1.1 2.1-1.3 0.5-0.2 0.9-0.6 0.9-0.8 0-0.2 0.3-0.4 0.6-0.4 0.3 0 0.8-0.3 1.1-0.7 0.3-0.4 0.8-0.9 1.1-1 1.3-0.6 2.3-1.4 5.5-4.3 1-0.9 1.9-1.6 2-1.6 0.2 0 1.2-0.9 2.2-2 1.1-1.1 2.1-2 2.3-2 0.3 0 8-7.6 8-8 0-0.2 0.9-1.2 1.9-2.3 2.4-2.6 3.9-4.4 6.4-7.5 1.4-2 1.4-2-1-3.8-5.5-4.3-6.6-5.9-4.7-6.6 0.3-0.2 0.7-0.6 0.8-1 0.2-0.8 2.2-1.2 2.2-0.5 0 0.2 0.8 0.7 1.7 1.1 0.9 0.4 1.9 0.9 2.1 1.1 0.7 0.6 3.6 2.3 4.7 2.7 0.6 0.3 1.1 0.6 1.1 0.8 0 0.2 0.7 0.7 1.5 1.1 2.5 1.1 3.2 2.6 1.8 4-0.4 0.4-1.1 1.4-1.5 2.2-0.4 0.8-0.9 1.5-1.1 1.5-0.1 0-0.6 0.6-0.9 1.4-0.4 0.7-1 1.6-1.4 2-0.5 0.4-0.8 0.9-0.8 1.1 0 0.2-0.4 0.8-0.9 1.3-0.5 0.5-1.4 1.5-1.9 2.2-0.5 0.7-1.8 2.1-2.7 3.1-0.9 1-1.7 2-1.7 2.1 0 0.4-11.2 11.6-11.6 11.6-0.2 0-1.2 0.9-2.3 2-1 1.1-2 2-2.2 2-0.1 0-0.7 0.4-1.2 0.9-0.5 0.5-1.5 1.4-2.3 1.9-0.7 0.5-1.7 1.4-2.3 1.9-0.6 0.5-1.3 0.9-1.5 0.9-0.2 0-0.6 0.4-0.9 0.8-0.3 0.4-0.8 0.8-1.1 0.8-0.3 0-0.7 0.2-0.9 0.5-0.2 0.3-0.9 0.9-1.6 1.3-0.7 0.3-1.3 0.8-1.3 0.9 0 0.2-0.8 0.7-1.8 1.1-1 0.4-1.8 0.9-1.8 1 0 0.2-0.6 0.5-1.3 0.8-0.7 0.3-1.6 0.9-1.9 1.2-0.4 0.4-1.3 0.8-2 1-0.6 0.1-1.2 0.4-1.2 0.6 0 0.1-0.7 0.6-1.6 1-0.9 0.3-1.6 0.8-1.6 1 0 0.1-1 0.6-2.3 1-1.3 0.4-2.4 0.8-2.5 1-0.4 0.5-4.3 2.3-6.1 2.8-1 0.3-1.9 0.7-1.9 0.8 0 0.2-1.2 0.6-2.6 1-1.4 0.5-2.6 0.9-2.6 1 0 0.2-1.4 0.6-3.2 1-1.8 0.4-3.2 0.9-3.2 1 0 0.2-1.2 0.5-2.6 0.8-1.4 0.3-2.6 0.6-2.6 0.8 0 0.3-6.8 1.6-8.5 1.6-0.6 0-1.1 0.1-1.1 0.3 0 0.4-10.8 1.7-14.1 1.7-1.3 0-2.3 0.2-2.3 0.4 0 0.5-20.3 0.6-20.6 0.1-0.1-0.2-2-0.5-4.3-0.6-4.8-0.3-11.6-1.1-11.9-1.5-0.1-0.1-2.1-0.6-4.4-0.9-2.2-0.4-4.3-0.9-4.6-1-0.2-0.2-1.6-0.6-3.1-0.9-1.5-0.3-2.7-0.6-2.7-0.8 0-0.1-1.4-0.6-3-1-1.7-0.4-3-0.9-3-1.1 0-0.2-0.2-0.3-0.6-0.3-0.7 0-4.8-1.3-5-1.6-0.1-0.2-0.9-0.5-1.8-0.8-1.9-0.6-5.9-2.4-6.2-2.8-0.1-0.2-1.1-0.6-2.1-1-1-0.4-1.9-0.9-1.9-1.1 0-0.1-0.2-0.3-0.5-0.3-0.6 0-7.1-3.2-7.1-3.6 0-0.1-0.6-0.5-1.4-0.8-0.8-0.3-1.4-0.7-1.4-0.8 0-0.2-0.5-0.5-1.2-0.8-0.7-0.3-1.3-0.7-1.5-1-0.2-0.2-1-0.8-1.8-1.1-0.8-0.4-1.5-0.9-1.5-1.1 0-0.2-0.3-0.5-0.8-0.6-0.4-0.1-1.4-0.8-2.3-1.4-0.8-0.7-1.9-1.5-2.4-1.9-0.5-0.4-1.3-1-1.7-1.4-0.5-0.4-1-0.7-1.2-0.7-0.2 0-0.7-0.5-1.1-1-0.5-0.5-1-1-1.2-1-0.2 0-1.1-0.8-2-1.8-0.9-1-1.9-1.8-2.1-1.8-0.5 0-10.9-10.5-11.8-11.9-0.4-0.6-1.2-1.4-1.7-1.8-0.5-0.4-0.9-0.9-0.9-1.1 0-0.2-0.7-1.1-1.6-2.1-2.1-2.2-2.6-2.8-2.9-3.5-0.6-1.2-1.4-2.3-3.3-4.5-0.5-0.7-1.1-1.5-1.2-1.9-0.1-0.5-0.4-0.8-0.6-0.8-0.2 0-0.6-0.7-1-1.6-0.3-0.9-0.7-1.6-0.9-1.6-0.2 0-0.7-0.8-1.1-1.7-0.4-0.9-1-1.9-1.2-2.1-0.3-0.2-0.7-1-1-1.8-0.3-0.7-0.9-1.7-1.3-2.1-0.4-0.4-0.7-1-0.7-1.3 0-0.3-0.1-0.6-0.3-0.6-0.2 0-0.7-0.9-1.1-2-0.4-1.1-0.8-2-1-2-0.1 0-0.5-0.7-0.8-1.5-0.6-1.8-2.2-5.4-3.2-7.3-0.4-0.8-0.9-2.1-1-2.9-0.2-0.8-0.4-1.5-0.6-1.5-0.2 0-0.6-1.2-1-2.7-0.4-1.5-0.9-2.8-1-2.9-0.1-0.1-0.6-1.8-1-3.7-0.4-1.9-0.9-3.5-1-3.5-0.2 0-0.5-1.4-0.8-3.1-0.3-1.7-0.7-3.2-0.8-3.3-0.2-0.1-0.7-2.7-1.1-5.8-0.4-3.1-0.8-5.7-1-5.8-1.2-0.9-1.2-36.7 0-37.6 0.2-0.1 0.6-2.8 1-6 0.4-3.2 0.9-6 1.1-6.2 0.2-0.2 0.5-1.7 0.8-3.2 0.3-1.5 0.6-2.9 0.8-3 0.1-0.1 0.6-1.6 0.9-3.4 0.4-1.7 0.9-3.3 1.1-3.4 0.1-0.1 0.6-1.5 1-3.2 0.4-1.6 1-3.2 1.2-3.5 0.3-0.3 0.7-1.2 0.8-2.1 0.1-0.9 0.5-1.9 0.8-2.1 0.3-0.3 0.7-1.3 1-2.2 0.2-1 0.6-1.7 0.8-1.7 0.1 0 0.6-1 1-2.3 0.4-1.3 0.8-2.4 1-2.5 0.1-0.1 0.9-1.6 1.8-3.3 0.8-1.7 1.7-3.1 1.8-3.1 0.2 0 0.5-0.7 0.8-1.6 0.3-0.9 0.7-1.8 1-1.9 0.2-0.2 0.8-1.1 1.2-2 0.4-0.9 0.9-1.7 1.1-1.7 0.2 0 0.6-0.6 0.9-1.4 0.3-0.8 0.7-1.4 1-1.4 0.2 0 0.4-0.2 0.4-0.5 0-0.3 0.5-1.1 1.2-1.9 0.7-0.8 1.2-1.6 1.2-1.9 0-0.3 0.4-0.7 0.8-0.9 0.4-0.2 0.8-0.7 0.8-1 0-0.3 0.3-0.8 0.7-1.1 0.4-0.3 1.1-1.1 1.5-1.9 0.4-0.8 1.4-2 2.1-2.6 0.7-0.7 1.3-1.4 1.3-1.6 0-0.2 0.8-1.1 1.8-2.2 6.9-7.2 10.4-10.8 10.7-10.8 0.2 0 3-2.5 6.5-6 0.5-0.4 1.1-0.8 1.3-0.8 0.3 0 0.7-0.3 1-0.7 0.3-0.4 0.8-0.9 1.1-1 1.1-0.5 2.2-1.3 2.7-2 0.3-0.4 0.8-0.7 1.1-0.7 0.3 0 0.6-0.2 0.6-0.4 0-0.2 0.7-0.7 1.6-1.1 0.9-0.4 1.6-0.8 1.6-1 0-0.1 0.6-0.6 1.3-0.9 0.7-0.4 1.4-0.9 1.6-1.2 0.2-0.3 0.9-0.7 1.5-0.8 0.7-0.2 1.3-0.5 1.5-0.8 0.1-0.3 0.7-0.7 1.3-1 0.7-0.2 1.2-0.5 1.2-0.7 0-0.2 0.7-0.6 1.6-0.9 0.9-0.3 1.8-0.8 1.9-1 0.2-0.3 1.2-0.8 2.2-1.2 1-0.4 1.9-0.8 1.9-1 0-0.1 0.9-0.6 2-1 1.1-0.4 2-0.8 2-1 0-0.2 0.6-0.4 1.4-0.6 0.7-0.1 1.6-0.5 1.9-0.7 0.3-0.3 1.6-0.9 2.9-1.3 1.3-0.4 2.5-0.9 2.6-1 0.3-0.3 4.4-1.6 5-1.6 0.4 0 0.6-0.2 0.6-0.3 0-0.2 1.4-0.7 3.2-1.1 1.8-0.4 3.2-0.9 3.2-1 0-0.2 1.3-0.5 2.9-0.8 1.6-0.3 3.1-0.6 3.3-0.8 0.5-0.4 7.6-1.6 9.1-1.6 0.6 0 1.1-0.2 1.1-0.3 0-0.2 2.6-0.6 5.7-0.9 3.1-0.2 6.3-0.5 7.1-0.6 5.5-0.6 33.2 0.6 33.2 1.5zm-2.5 13.1c0.1 0.2 0.7 0.4 1.4 0.4 1.7 0 8.9 1.3 9.1 1.6 0.1 0.2 1.6 0.5 3.2 0.8 1.6 0.3 3.4 0.7 3.8 1 0.5 0.3 1.9 0.7 3.1 1 1.3 0.3 2.3 0.6 2.3 0.8 0 0.1 1.3 0.6 2.8 1 1.5 0.4 2.8 0.8 2.8 0.9 0 0.2 1.1 0.6 2.4 1.1 1.3 0.4 2.4 0.9 2.4 1.1 0 0.2 0.2 0.3 0.5 0.3 0.6 0 6.4 2.8 6.7 3.2 0.1 0.2 1.1 0.6 2.1 1 1 0.4 1.9 0.8 1.9 1 0 0.2 0.7 0.6 1.6 1 0.9 0.3 1.6 0.8 1.6 1 0 0.2 0.5 0.5 1 0.6 0.6 0.2 1.1 0.5 1.3 0.8 0.2 0.2 1 0.8 1.8 1.1 0.8 0.4 1.5 0.9 1.5 1.1 0 0.2 0.5 0.5 1.2 0.8 0.7 0.3 1.4 0.7 1.5 1 0.2 0.2 0.9 0.7 1.7 1.2 0.7 0.4 1.6 1 2 1.4 0.4 0.3 1.3 1.1 2 1.6 0.7 0.6 1.7 1.3 2.1 1.7 0.5 0.4 1.5 1.2 2.3 1.8 2.8 2.3 15.9 15.8 16.3 17 0.1 0.2 0.6 0.8 1 1.3 1.6 1.7 1.9 2.2 1.9 2.8 0 0.3-0.2 0.6-0.4 0.6-0.2 0-0.8 0.5-1.4 1-0.6 0.6-1.2 1-1.4 1-0.1 0-0.8 0.5-1.6 1.2-0.8 0.7-1.5 1.2-1.7 1.2-0.2 0-0.6 0.3-1 0.6-1.4 1.3-4.5 3.4-4.9 3.4-0.2 0-0.4 0.2-0.4 0.4 0 0.7-1.2 0.4-2.2-0.6-0.5-0.6-1-1.2-1-1.4 0-0.2-0.4-0.7-0.9-1.1-0.6-0.4-1.2-1.1-1.5-1.6-0.5-1-12.3-12.9-12.7-12.9-0.2 0-0.9-0.6-1.7-1.4-0.7-0.8-1.5-1.4-1.8-1.4-0.2 0-0.6-0.4-0.9-0.8-0.3-0.4-0.8-0.8-1.1-0.8-0.3 0-0.8-0.4-1-0.8-0.2-0.4-0.6-0.8-0.8-0.8-0.3 0-6.9-4.3-7.2-4.8-0.1-0.1-1-0.6-1.9-1-0.9-0.4-1.7-0.9-1.7-1 0-0.1-0.8-0.6-1.8-1-1-0.4-1.8-0.8-1.8-1 0-0.1-0.7-0.5-1.5-0.8-0.8-0.3-1.8-0.7-2.1-1-0.3-0.3-1.4-0.7-2.3-1-0.9-0.2-1.7-0.6-1.7-0.8 0-0.1-1.1-0.6-2.5-1-1.4-0.4-2.6-0.9-2.7-1-0.1-0.1-1.3-0.6-2.6-1-1.3-0.4-2.6-0.8-2.8-1-0.2-0.1-1.5-0.5-2.8-0.8-1.3-0.3-2.6-0.7-2.8-0.8-0.2-0.2-2.3-0.6-4.6-1-2.3-0.4-4.3-0.9-4.4-1-0.4-0.6-13.4-1.6-21.3-1.6h-8.3v-16.8l4.1-0.1c8.2-0.3 25.6 0.6 25.8 1.3zm-19.3 26c4.4 0 7 0.1 7 0.4 0 0.2 1.2 0.4 2.7 0.4 3.2 0 13 1.2 13.3 1.6 0.1 0.1 1.9 0.6 3.9 1 2 0.4 3.7 0.8 3.7 1 0 0.2 1.4 0.7 3 1 1.6 0.4 3 0.9 3 1 0 0.1 0.9 0.5 2 0.8 1.1 0.3 2 0.7 2 0.8 0 0.2 1 0.6 2.2 1 1.2 0.4 2.2 0.9 2.2 1 0 0.1 0.9 0.6 2.1 1 1.2 0.4 2.2 1 2.4 1.2 0.2 0.3 0.9 0.7 1.7 1 0.8 0.3 1.4 0.6 1.4 0.8 0 0.2 0.2 0.4 0.5 0.4 1.2 0 1.9 1.3 1.2 2.1-0.3 0.4-0.8 0.7-1.1 0.7-0.3 0-0.6 0.3-0.7 0.6-0.2 0.3-0.7 0.8-1.3 1-0.5 0.2-1 0.6-1 0.8 0 0.2-0.7 0.7-1.5 1.1-0.8 0.3-1.6 0.8-1.8 1.1q-0.3 0.4-0.6 0c-0.2-0.3-1.2-0.8-2.4-1.2-1.2-0.4-2.1-0.8-2.1-0.9 0-0.2-1-0.7-2.2-1.1-1.2-0.4-2.2-0.9-2.2-1 0-0.2-0.8-0.5-1.8-0.8-1-0.3-1.9-0.7-2-0.9-0.2-0.2-0.4-0.2-0.6-0.1-0.2 0.1-0.4 0.1-0.4-0.1 0-0.2-1-0.6-2.3-0.9-1.3-0.3-2.4-0.7-2.5-0.8-0.1-0.2-1.9-0.7-3.8-1.1-2-0.3-3.7-0.7-3.8-0.9-0.3-0.4-5.7-1.2-10.1-1.5-2.1-0.1-3.9-0.4-3.9-0.6 0-0.4-11.5-0.4-11.8 0.1-0.1 0.2-1 0.4-2 0.4-2.3 0-11.5 1.2-11.8 1.6-0.1 0.1-1.8 0.6-3.8 1-2 0.4-3.7 0.8-3.8 1-0.1 0.2-1 0.5-2 0.8-1 0.2-2.5 0.8-3.4 1.2-0.9 0.4-2.2 0.8-2.9 1-0.7 0.1-1.3 0.4-1.3 0.6 0 0.2-1 0.6-2.2 1-1.2 0.3-2.2 0.8-2.2 0.9 0 0.2-0.8 0.7-1.8 1.1-1 0.4-1.8 0.9-1.8 1.1 0 0.2-0.3 0.3-0.6 0.3-0.3 0-1 0.4-1.4 0.8-0.4 0.4-0.9 0.8-1 0.8-0.3 0-2.6 1.2-3.3 1.7-0.3 0.3-1 0.9-1.5 1.3-0.5 0.4-1.5 1.1-2.2 1.5-0.7 0.4-1.8 1.3-2.5 1.9-3.9 3.5-4.5 4-4.7 4-0.4 0-3 2.6-4.6 4.5-1.2 1.5-4.4 5-5.8 6.5-0.4 0.5-0.8 1.1-0.8 1.3 0 0.3-0.3 0.7-0.7 1-0.8 0.6-1.6 1.8-2 2.8-0.1 0.4-0.4 0.7-0.6 0.7-0.2 0-0.5 0.5-0.8 1.2-0.2 0.7-0.5 1.2-0.7 1.2-0.1 0-0.6 0.7-1 1.6-0.5 0.9-0.9 1.6-1 1.6-0.2 0-0.6 0.8-1 1.8-0.4 1-0.8 1.8-1 1.8-0.2 0-0.5 0.6-0.8 1.4-0.3 0.8-0.6 1.4-0.7 1.4-0.2 0-0.7 1.2-1.1 2.6-0.4 1.4-0.9 2.6-1 2.6-0.2 0-0.6 1.2-1 2.7-0.4 1.5-0.9 2.8-1 2.9-0.2 0.1-0.6 1.6-1 3.4-0.4 1.8-0.8 3.4-1 3.6-0.2 0.2-0.5 1.8-0.8 3.6-0.3 1.8-0.7 3.3-0.8 3.4-1.3 0.8-1.3 29.1-0.1 30 0.2 0.1 0.6 1.8 0.9 3.7 0.3 1.9 0.6 3.5 0.8 3.5 0.2 0 0.5 1.1 0.8 2.5 0.2 1.4 0.7 3 1 3.7 0.3 0.7 0.8 2.2 1.2 3.5 0.4 1.3 0.8 2.3 1 2.3 0.1 0 0.5 0.9 0.8 2 0.2 1.1 0.7 2.3 1.1 2.6 0.3 0.3 0.6 0.8 0.7 1.1 0.2 1.2 0.8 2.5 1.4 3.2 0.4 0.5 0.9 1.3 1 2 0.1 0.6 0.4 1.1 0.6 1.1 0.2 0 0.6 0.7 1 1.5 0.4 0.8 0.9 1.6 1.1 1.9 0.8 1 2.3 3.3 2.7 4.1 0.2 0.5 0.6 0.9 0.8 0.9 0.2 0 0.6 0.5 0.8 1 0.2 0.6 0.7 1.1 1 1.3 0.3 0.1 0.6 0.4 0.6 0.7 0 0.3 0.9 1.5 2.1 2.7 1.2 1.3 3.5 3.8 5.3 5.7 1.8 1.8 3.4 3.4 3.6 3.4 0.2 0 1 0.6 1.8 1.4 0.7 0.8 1.5 1.4 1.8 1.4 0.2 0 0.6 0.4 0.9 0.8 0.3 0.4 0.7 0.8 1 0.8 0.3 0 0.7 0.4 1 0.8 0.3 0.4 0.8 0.8 1.1 0.8 0.3 0 0.7 0.2 0.9 0.5 0.2 0.3 0.9 0.8 1.7 1.3 0.8 0.4 1.5 0.9 1.6 1 0.3 0.4 4.4 2.8 5.3 3.1 0.4 0.1 0.7 0.3 0.7 0.5 0 0.2 0.9 0.6 1.9 1 1 0.4 2 0.8 2.1 1 0.1 0.1 1 0.5 2 0.8 0.9 0.3 1.9 0.8 2.2 1 0.2 0.3 1.6 0.8 3.1 1.2 1.5 0.4 2.7 0.8 2.7 1 0 0.2 1.1 0.5 2.5 0.8 1.4 0.3 2.6 0.7 2.7 0.8 0.1 0.2 2 0.6 4.2 1 2.2 0.4 4.4 0.8 4.8 1 3.1 1.4 29.6 1.4 30.6 0 0.1-0.1 2.2-0.6 4.6-1 2.4-0.4 4.5-0.8 4.6-1 0.1-0.1 0.9-0.4 1.8-0.6 0.9-0.1 2.3-0.6 3.2-1 0.9-0.4 2.5-1 3.5-1.2 1.1-0.3 1.9-0.6 1.9-0.8 0-0.2 1.1-0.6 2.4-1 1.3-0.4 2.4-0.9 2.4-1 0-0.2 0.9-0.6 2-1 1.1-0.4 2-0.9 2-1 0-0.2 0.5-0.5 1.2-0.8 0.7-0.3 1.2-0.6 1.2-0.7 0-0.2 0.8-0.6 1.8-1 1-0.4 1.8-0.9 1.8-1.1 0-0.2 0.7-0.7 1.6-1.1 0.9-0.4 1.6-0.8 1.6-1 0-0.3 2.3-1.5 3-1.5 0.4 0 3.8 3.3 3.8 3.7 0 0.2 0.6 0.9 1.4 1.6 1.8 1.7 1.8 2.2-0.6 3.9-1.1 0.8-2.4 1.7-2.9 2.1-0.5 0.4-1.4 1-2.1 1.3-2 1-3.6 2-3.9 2.4-0.1 0.3-1 0.7-1.9 1-0.9 0.3-1.6 0.7-1.6 0.8 0 0.2-0.9 0.6-2 1-1.1 0.4-2 0.9-2 1.1 0 0.1-1 0.6-2.2 0.9-1.2 0.4-2.2 0.8-2.2 1 0 0.2-0.9 0.5-2 0.8-1.1 0.3-2 0.6-2 0.8 0 0.2-1.4 0.7-3.1 1-1.7 0.4-3.2 0.9-3.3 1.1-0.2 0.2-1.9 0.6-3.8 1-2 0.3-3.7 0.8-3.8 0.9-0.3 0.4-10.6 1.6-14.1 1.6-1.8 0-3.1 0.2-3.1 0.4 0 0.2-1.4 0.4-3.4 0.4-2 0-3.4-0.2-3.4-0.4 0-0.2-1.5-0.4-3.7-0.4-3.9 0-14-1.1-14.3-1.6-0.1-0.1-1-0.4-2-0.5l-1.9-0.3-0.5 3.6c-0.3 2-0.6 3.6-0.8 3.6-0.2 0-0.4 0.5-0.4 1.2 0 0.6-0.2 1.3-0.4 1.4-0.4 0.2-6.9-0.9-7.2-1.3-0.1-0.2-1.6-0.7-3.3-1.1-1.7-0.4-3.1-0.8-3.1-1 0-0.1-1.1-0.6-2.5-1-1.4-0.4-2.7-1-3-1.3-0.3-0.2-1.1-0.6-1.9-0.7-0.8-0.2-1.4-0.4-1.4-0.6 0-0.2-0.9-0.6-2-1-1.1-0.4-2-0.9-2-1 0-0.2-0.8-0.6-1.8-1-1-0.4-1.8-0.9-1.8-1 0-0.1-0.8-0.6-1.7-1-0.9-0.4-2-1.1-2.5-1.5-0.4-0.4-1-0.7-1.3-0.7-0.3 0-0.5-0.2-0.5-0.4 0-0.2-0.7-0.7-1.5-1.1-0.8-0.4-1.8-0.9-2.2-1.3-0.3-0.3-1.1-1-1.7-1.4-0.6-0.4-1.5-1.2-2.1-1.7-0.5-0.5-1.1-0.9-1.3-0.9-0.2 0-0.6-0.3-0.9-0.7-0.3-0.4-1-1-1.5-1.4-1.3-0.8-10.8-10.3-12.8-12.7-0.7-1-1.6-2-1.9-2.4-0.3-0.3-0.8-1-1.2-1.4-0.4-0.5-1.4-1.9-2.3-3.2-0.9-1.3-1.9-2.7-2.3-3.2-0.4-0.4-0.7-1-0.7-1.3 0-0.2-0.2-0.6-0.5-0.8-0.3-0.2-0.9-1.1-1.3-2-0.4-0.9-0.9-1.7-1.1-1.7-0.2 0-0.3-0.2-0.3-0.4 0-0.2-0.5-1.2-1.2-2.2-0.6-1.1-1.3-2.4-1.4-3-0.1-0.7-0.4-1.2-0.6-1.2-0.3 0-1.6-3.1-1.6-4 0-0.7 1.9-2.4 3.1-2.7 0.5-0.1 0.9-0.3 0.9-0.5 0-0.2 0.9-0.6 2-1 1.2-0.5 2.1-1.1 2.2-1.5 0.3-0.8-0.5-4.3-1-4.3-0.1 0-0.6-1.3-1-3-0.4-1.6-0.9-3-1-3-0.2 0-0.5-1.1-0.8-2.5-0.3-1.4-0.7-2.6-0.8-2.7-0.2-0.1-0.7-2.2-1.1-4.6-0.4-2.4-0.8-4.5-0.9-4.6-1.5-1.1-1.4-32.6 0-33.1 0.2-0.1 0.4-0.6 0.4-1.2 0-1.5 1.3-8.3 1.6-8.5 0.2-0.1 0.5-1.3 0.8-2.6 0.3-1.3 0.6-2.5 0.8-2.6 0.1-0.1 0.6-1.4 1-2.9 0.4-1.5 0.8-2.7 1-2.7 0.1 0 0.6-1.2 1-2.6 0.4-1.4 0.9-2.6 1.1-2.6 0.1 0 0.4-0.5 0.5-1.1 0.3-1.1 2.5-5.3 3-5.7 0.1-0.1 0.5-0.8 0.8-1.6 0.3-0.8 0.7-1.6 1-1.8 0.2-0.2 0.8-1.2 1.2-2.1 0.4-0.9 0.9-1.7 1.1-1.7 0.2 0 0.5-0.4 0.7-1 0.2-0.6 0.5-1 0.7-1 0.2 0 0.5-0.3 0.6-0.7 0.4-1 1.2-2.2 2-2.8 0.4-0.3 0.7-0.8 0.7-1.1 0-0.3 0.4-0.8 0.8-1 0.4-0.2 0.8-0.7 0.8-1 0-0.3 0.7-1.2 1.6-2 0.9-0.7 1.6-1.5 1.6-1.7 0-0.5 6.8-7.4 8.2-8.3 0.7-0.4 1.5-1.2 1.9-1.7 0.4-0.5 0.9-0.9 1.1-0.9 0.2 0 1-0.6 1.8-1.4 0.8-0.8 1.5-1.4 1.7-1.4 0.2 0 0.9-0.5 1.7-1.2 0.8-0.7 1.5-1.2 1.7-1.2 0.1 0 0.5-0.2 0.8-0.5 0.3-0.3 1.1-0.9 1.8-1.3 0.7-0.3 1.3-0.8 1.3-0.9 0-0.2 0.6-0.6 1.4-0.8 0.8-0.3 1.4-0.7 1.4-0.9 0-0.2 0.9-0.6 2-1 1.1-0.4 2-0.9 2-1 0-0.2 0.9-0.6 2-1 1.1-0.4 2-0.9 2-1.1 0-0.1 1-0.6 2.2-1 1.2-0.3 2.2-0.8 2.2-0.9 0-0.2 0.8-0.5 1.7-0.8 0.9-0.3 1.8-0.7 1.9-0.8 0.1-0.2 1.5-0.6 3.1-1 1.6-0.4 2.9-0.8 2.9-1 0-0.2 1.7-0.6 3.7-1 2-0.4 3.9-0.8 4.1-1 0.5-0.4 9.7-1.6 12.2-1.6 1.1 0 2-0.2 2-0.4 0-0.3 2.6-0.4 7-0.4zm87.7 175.2c0.4 0.5 0.8 0.8 1.1 0.8 0.3 0 0.8 0.5 1.2 1 0.3 0.6 0.9 1 1.2 1 0.3 0 0.7 0.2 0.9 0.5 0.2 0.3 0.8 0.8 1.4 1.2 1.2 0.8 2 1.5 3.6 2.9 0.5 0.5 1.2 1 1.6 1.1 1 0.4 0.9 2.2-0.3 3.2-0.5 0.5-1 1-1 1.2 0 0.4-11.9 12.3-12.3 12.3-0.2 0-0.9 0.6-1.7 1.4-0.7 0.8-1.5 1.4-1.7 1.4-0.2 0-0.7 0.5-1.2 1-0.4 0.6-1 1-1.2 1-0.3 0-0.7 0.4-1 0.8-0.3 0.4-0.7 0.8-0.9 0.8-0.2 0-0.7 0.3-1.1 0.6-2.4 2.1-3.1 2.6-4.1 3.1-0.7 0.3-1.2 0.6-1.2 0.8 0 0.1-0.7 0.6-1.5 1-0.8 0.4-1.8 1-2.3 1.4-0.4 0.4-1 0.7-1.3 0.7-0.3 0-0.5 0.2-0.5 0.4 0 0.2-0.8 0.7-1.8 1.1-1 0.4-1.8 0.8-1.8 0.9 0 0.2-0.8 0.6-1.7 1-0.9 0.4-1.8 0.9-1.9 1-0.3 0.4-4.5 2.3-6.1 2.9-0.8 0.2-1.5 0.6-1.5 0.8 0 0.1-1.1 0.6-2.4 0.9-1.3 0.4-2.4 0.8-2.4 1 0 0.2-1.3 0.6-2.8 1-1.5 0.4-2.8 0.9-2.8 1 0 0.2-1 0.5-2.3 0.8-1.3 0.3-2.5 0.6-2.7 0.8-0.2 0.2-1.9 0.6-3.8 1-1.9 0.4-3.5 0.9-3.6 1-0.2 0.3-8.2 1.6-9.9 1.6-0.7 0-1.3 0.2-1.4 0.4-0.2 0.5-13 1.3-19.7 1.1l-6-0.1-0.1-1.2c-0.1-0.7-0.3-1.4-0.5-1.6-0.5-0.4-0.5-14.6-0.1-14.7 0.2 0 4.2 0 9.1-0.1 6.3 0 8.8-0.2 8.9-0.5 0.1-0.3 1-0.5 2.1-0.5 2.5 0 11.3-1.2 11.6-1.6 0.1-0.2 1.5-0.5 3-0.8 1.5-0.3 3-0.6 3.2-0.8 0.2-0.2 1.8-0.7 3.4-1 1.7-0.4 3.1-0.8 3.2-1 0.2-0.3 4.3-1.6 5-1.6 0.4 0 0.6-0.2 0.6-0.4 0-0.2 0.8-0.6 1.7-0.9 0.9-0.2 2-0.7 2.3-0.9 0.3-0.3 1.3-0.7 2.1-1 0.8-0.3 1.5-0.7 1.5-0.8 0-0.2 0.9-0.6 2-1 1.1-0.4 2-0.9 2-1 0-0.2 0.8-0.6 1.8-1 1-0.4 1.8-0.9 1.8-1 0-0.2 0.5-0.5 1.2-0.8 0.7-0.3 1.2-0.6 1.2-0.7 0-0.2 0.7-0.6 1.6-1.1 0.9-0.4 1.6-0.8 1.6-1 0-0.1 0.6-0.6 1.4-0.9 0.8-0.4 1.4-0.8 1.4-1 0-0.2 0.4-0.6 0.9-0.8 1.1-0.5 2.5-1.6 3.7-2.8 0.5-0.5 1.1-0.9 1.3-0.9 0.3 0 0.8-0.4 1.1-1 0.4-0.5 0.9-1 1.2-1 0.3 0 0.8-0.3 1.1-0.7 0.3-0.4 1-1.1 1.7-1.6 0.6-0.5 1-0.9 0.9-0.9-0.1 0 1.8-2 4.3-4.5 2.5-2.4 4.6-4.7 4.6-4.9 0-0.3 0.2-0.6 0.5-0.7 0.8-0.3 2.1 0.1 2.6 0.9z"/>
		<path id="path1" fill-rule="evenodd" class="s1" d="m246.8 2c0.1 0.2 2.3 0.5 4.9 0.8 2.6 0.3 4.7 0.6 4.7 0.8 0 0.1 2.2 0.6 4.8 1 2.6 0.4 4.8 0.9 4.8 1 0 0.2 1.8 0.6 4 1 2.2 0.4 4 0.9 4 1 0 0.2 1.1 0.5 2.5 0.8 1.4 0.3 3.2 0.8 4.1 1.2 0.9 0.4 2.3 0.9 3.1 1 0.8 0.2 1.5 0.4 1.5 0.6 0 0.1 1.4 0.6 3 1 1.7 0.4 3 0.9 3 1 0 0.2 1.2 0.6 2.6 1 1.4 0.4 2.6 0.8 2.6 1 0 0.1 1.1 0.5 2.4 1 1.3 0.4 2.4 0.9 2.4 1 0 0.2 0.8 0.5 1.8 0.8 1 0.3 1.8 0.6 1.8 0.8 0 0.1 0.9 0.6 2 1 1.1 0.4 2 0.8 2 1 0 0.1 1 0.6 2.2 1 1.2 0.4 2.2 0.9 2.2 1 0 0.2 0.9 0.6 2 1 1.1 0.4 2 0.9 2 1 0 0.2 0.6 0.5 1.4 0.8 0.8 0.3 1.4 0.6 1.4 0.8 0 0.2 0.8 0.6 1.8 1 1 0.4 1.8 0.8 1.8 1 0 0.2 0.8 0.6 1.8 1 1 0.4 1.8 0.9 1.8 1 0 0.2 0.7 0.7 1.5 1.1 0.8 0.4 1.7 0.9 2 1.2 0.3 0.2 0.9 0.6 1.3 0.7 0.4 0.1 0.8 0.4 0.8 0.6 0 0.2 0.7 0.7 1.5 1.1 0.8 0.3 1.6 0.9 1.8 1.1 0.1 0.3 0.8 0.7 1.5 1 0.7 0.3 1.2 0.6 1.2 0.8 0 0.1 0.7 0.6 1.5 1 0.8 0.4 1.7 1.1 2 1.5 0.3 0.4 0.8 0.7 1 0.7 0.3 0 0.7 0.4 1 0.8 0.3 0.4 0.8 0.8 1.1 0.8 0.3 0 0.7 0.2 0.9 0.5 0.2 0.3 0.8 0.8 1.4 1.2 1.2 0.8 2.2 1.6 3.7 3 0.5 0.5 1 0.9 1.2 0.9 0.2 0 0.7 0.4 1.2 0.8 3 2.8 4.8 4.5 5.2 4.7 1.9 1.1 18.4 17.5 19.4 19.4 0.4 0.6 2.7 3.2 4.6 5.1 0.5 0.6 1 1.2 1 1.4 0 0.2 0.4 0.7 0.8 1.2 1.8 1.8 3.2 3.6 3.2 4.1 0 0.2 0.4 0.7 0.8 0.9 0.4 0.2 0.8 0.7 0.8 0.9 0 0.3 0.4 0.8 0.8 1.2 1 0.8 1 2.2 0.1 2.6-0.3 0.1-1 0.6-1.5 1-1.7 1.6-2 1.8-3.3 2.3-0.7 0.3-1.3 0.7-1.3 0.9 0 0.1-0.6 0.6-1.3 0.9-0.7 0.4-1.6 1-2 1.4-0.5 0.5-1 0.8-1.1 0.8-0.2 0-0.8 0.5-1.4 1-0.7 0.5-1.4 1-1.7 1-0.3 0-0.5 0.2-0.5 0.4 0 0.2-0.7 0.7-1.5 1.1-0.8 0.3-1.6 0.9-1.8 1.1-0.2 0.3-0.8 0.7-1.5 1-0.7 0.3-1.2 0.7-1.2 0.9 0 0.1-0.7 0.6-1.6 1-0.9 0.4-1.6 0.8-1.6 1 0 0.2-0.5 0.3-1 0.3-0.6 0-1-0.2-1-0.6 0-0.3-0.3-0.8-0.7-1.1-0.4-0.3-1-1-1.4-1.6q-1.2-1.9-2.8-3.6c-0.4-0.4-0.7-0.8-0.7-1 0-0.1-0.4-0.7-1-1.3-2.5-2.5-4.6-4.9-4.6-5.2 0-0.2-1.4-1.7-3.2-3.4-1.7-1.8-3.2-3.4-3.2-3.6 0-0.4-1.9-2.2-2.3-2.2-0.2 0-1.6-1.3-3.1-2.9-1.6-1.6-3.5-3.4-4.2-4-1.8-1.4-3.9-3.2-5.2-4.5-0.6-0.5-1.2-1-1.4-1-0.1 0-0.7-0.4-1.1-0.8-1.9-1.7-3.3-2.8-4-3-0.4-0.2-0.7-0.4-0.7-0.6 0-0.2-0.6-0.7-1.3-1-0.7-0.4-1.4-0.8-1.5-1-0.5-0.6-4.3-3.2-4.8-3.2-0.2 0-0.4-0.2-0.4-0.4 0-0.2-0.7-0.7-1.5-1.1-0.8-0.4-1.8-1-2.2-1.4-0.4-0.4-1-0.7-1.3-0.7-0.3 0-0.7-0.2-0.9-0.5-0.3-0.6-1.9-1.5-4.4-2.7-0.9-0.4-1.7-1-1.7-1.2 0-0.2-0.2-0.4-0.5-0.4-0.6 0-7.1-3.2-7.1-3.6 0-0.1-0.6-0.5-1.4-0.7-1.3-0.5-2-1.7-1-1.7 0.2 0 0.7-1 1-2.2 0.4-1.2 0.8-2.2 1-2.2 0.1 0 0.6-1.1 1-2.4 0.4-1.3 0.8-2.4 1-2.4 0.1 0 0.6-1 1-2.3 0.4-1.3 0.9-2.4 1-2.5 0.3-0.3 1.2-2.4 1.2-2.8 0-0.3-0.5-0.6-1.2-0.9-0.7-0.2-1.2-0.5-1.2-0.7 0-0.1-1.2-0.6-2.6-1-1.4-0.4-2.6-0.9-2.6-1.1 0-0.2-0.8-0.5-1.8-0.7-1-0.3-1.8-0.6-1.8-0.8 0-0.2-1.3-0.6-2.8-1-1.5-0.4-2.8-0.9-2.8-1 0-0.2-1.4-0.6-3-1-1.6-0.4-3-0.9-3-1 0-0.2-1.4-0.6-3.2-1-1.8-0.4-3.2-0.9-3.2-1 0-0.1-1.2-0.5-2.7-0.8-1.5-0.3-2.8-0.6-2.9-0.8-0.2-0.3-6.6-1.6-7.9-1.6-0.4 0-0.9-0.2-1-0.4-0.1-0.3-8.1-1.6-10-1.6-0.6 0-1.1-0.2-1.2-0.4-0.1-0.3-11.6-1.6-14.9-1.6-0.9 0-1.8-0.2-2.1-0.4-0.6-0.7-28.8-0.7-29.4 0-0.3 0.2-1.1 0.4-1.9 0.4-2.3 0-15 1.3-15.2 1.6-0.1 0.1-2.5 0.6-5.4 1-2.9 0.3-5.3 0.8-5.4 1-0.1 0.1-2 0.6-4.3 1-2.3 0.4-4.1 0.9-4.1 1 0 0.1-1.4 0.5-3.2 0.8-1.8 0.3-3.2 0.6-3.2 0.8 0 0.2-1.4 0.7-3.1 1-1.7 0.4-3.2 0.9-3.3 1-0.1 0.2-1.3 0.5-2.5 0.8-1.3 0.3-2.6 0.7-2.8 1-0.3 0.2-1.7 0.8-3.2 1.2-1.5 0.4-2.7 0.8-2.7 1 0 0.1-0.9 0.5-2 0.8-1.1 0.3-2 0.7-2 0.8 0 0.1-1.1 0.6-2.4 1-1.3 0.4-2.4 0.8-2.4 1 0 0.2-0.9 0.6-2.1 1-1.2 0.4-2.2 0.8-2.3 1-0.1 0.1-1.1 0.6-2.1 1-1 0.4-1.9 0.8-1.9 1 0 0.1-0.7 0.5-1.6 0.8-0.9 0.3-1.6 0.7-1.6 0.8 0 0.2-0.9 0.6-1.9 1-1 0.4-2 0.9-2.2 1.2-0.1 0.2-1 0.7-1.9 1-0.9 0.3-1.6 0.7-1.6 0.8 0 0.2-0.8 0.6-1.7 1-0.9 0.5-2 1.1-2.4 1.5-0.4 0.4-1 0.7-1.3 0.7-0.3 0-0.6 0.2-0.6 0.4 0 0.2-0.7 0.7-1.5 1.1-0.8 0.4-1.8 1-2.3 1.4-0.4 0.4-1 0.7-1.3 0.7-0.2 0-0.6 0.2-0.8 0.5-0.2 0.3-0.9 0.9-1.7 1.3-1.5 0.8-2 1.2-3.2 2.3-0.4 0.4-1.3 0.9-2 1.3-0.7 0.3-1.2 0.8-1.2 0.9 0 0.2-0.4 0.6-0.9 0.8-1 0.5-2.4 1.5-3.8 2.8-0.5 0.5-1.1 0.9-1.3 0.9-0.2 0-0.7 0.4-1 1-0.4 0.6-0.9 1-1.2 1-0.3 0-1 0.5-1.7 1.2-0.6 0.7-1.2 1.2-1.4 1.2-0.4 0-1.3 0.8-7.6 7-2.1 2.1-4.1 3.8-4.3 3.8-0.2 0-0.5 0.3-0.7 0.7-0.1 0.3-2 2.4-4.1 4.5-2.1 2.2-4.6 4.8-5.5 5.9-3.1 3.5-4.5 5.2-4.5 5.4 0 0.1-0.7 1-1.6 1.9-0.9 0.9-1.6 1.8-1.6 2 0 0.1-0.5 0.8-1 1.4-0.5 0.7-1 1.3-1 1.4 0 0.3-1.1 1.6-2.6 3.2-0.3 0.3-0.8 1.1-1 1.7-0.3 0.6-0.6 1.1-0.8 1.1-0.1 0-0.6 0.7-1 1.5-0.4 0.8-1 1.6-1.3 1.8-0.3 0.2-0.5 0.6-0.5 0.8 0 0.3-0.5 1-1 1.7-0.6 0.6-1 1.2-1 1.4 0 0.2-0.5 0.8-1 1.4-0.5 0.7-1 1.4-1 1.6 0 0.3-0.4 0.9-0.8 1.4-0.4 0.5-1 1.5-1.2 2.2-0.3 0.8-0.6 1.4-0.8 1.4-0.2 0-0.6 0.8-1 1.7-0.4 0.9-0.9 1.8-1.2 2.1-1.1 0.7-1.2 3.3-0.2 3.6 0.4 0.1 0.8 0.4 0.8 0.6 0 0.2 0.6 0.5 1.4 0.8 0.8 0.3 1.5 0.7 1.7 1 0.2 0.2 1.1 0.8 2.1 1.2 0.9 0.3 2.2 1 2.7 1.4 0.6 0.5 1.3 0.8 1.6 0.8 0.3 0 0.5 0.2 0.5 0.3 0 0.2 0.8 0.7 1.7 1.1 3.2 1.4 3.3 2.1 1.5 6-0.7 1.4-1.2 2.7-1.2 3 0 0.2-0.2 0.6-0.5 0.9-0.3 0.3-0.9 1.5-1.3 2.7-0.4 1.2-0.8 2.3-1 2.4-0.1 0.1-0.6 1.2-1 2.5-0.4 1.3-0.8 2.3-1 2.3-0.2 0-0.5 1.1-0.8 2.4-0.3 1.3-0.6 2.4-0.8 2.4-0.1 0-0.6 1.4-1 3-0.4 1.7-0.9 3-1 3-0.2 0-0.6 1.5-1 3.4-0.4 1.9-0.8 3.4-1 3.4-0.1 0-0.6 1.8-1 4.1-0.4 2.3-0.9 4.2-1 4.3-0.2 0.1-0.5 1.8-0.8 3.8-0.3 2-0.6 3.7-0.8 3.8-0.3 0.2-1.6 11-1.6 13.3 0 0.8-0.2 1.5-0.5 1.6-0.7 0.2-0.7 34.2-0.1 34.6 0.3 0.2 0.6 1.9 0.7 3.9 0.4 4.8 1.2 10.7 1.5 11 0.1 0.1 0.5 1.8 0.7 3.8 0.3 2 0.7 3.7 0.9 3.8 0.1 0.1 0.6 2.1 1 4.5 0.4 2.4 0.9 4.3 1 4.3 0.2 0 0.4 0.6 0.6 1.3 0.5 2.9 1.2 5.3 1.4 5.5 0.2 0.1 0.6 1.5 1 3.2 0.4 1.6 1 3.2 1.2 3.5 0.3 0.3 0.6 1.2 0.8 2.1 0.1 0.9 0.4 1.6 0.5 1.6 0.2 0 0.6 1.1 1 2.4 0.4 1.3 0.9 2.4 1 2.4 0.2 0 0.7 1.1 1.1 2.4 0.4 1.3 0.8 2.4 1 2.4 0.1 0 0.5 0.8 0.8 1.8 0.2 1 0.6 1.8 0.8 1.8 0.2 0 0.6 0.9 1 2 0.4 1.1 0.9 2 1 2 0.2 0 0.6 0.9 1 2 0.4 1.1 0.9 2 1 2 0.2 0 0.6 0.8 1 1.7 0.4 0.9 1 1.9 1.3 2.2 0.3 0.3 0.5 0.7 0.5 0.9 0 0.2 0.5 1.2 1.2 2.1 0.7 1 1.2 2 1.2 2.3 0 0.2 0.1 0.4 0.3 0.4 0.2 0 0.6 0.7 1.1 1.6 0.4 0.9 0.9 1.6 1 1.6 0.2 0 0.5 0.4 0.6 0.9 0.2 0.5 0.8 1.6 1.4 2.4 0.7 0.8 1.2 1.6 1.2 1.9 0 0.2 0.2 0.4 0.4 0.4 0.2 0 0.7 0.6 1.1 1.4 0.3 0.8 0.8 1.4 1 1.4 0.1 0 0.6 0.5 0.9 1.2 0.4 0.7 0.9 1.6 1.3 2 0.4 0.4 1.1 1.2 1.5 1.8 0.4 0.6 1.2 1.5 1.7 2 0.5 0.5 0.9 1.1 0.9 1.3 0 0.3 0.3 0.7 0.7 1 0.4 0.3 1.1 1 1.5 1.7 0.4 0.7 1.2 1.5 1.7 1.9 0.5 0.4 0.9 0.9 0.9 1.1 0 0.2 1.5 1.9 3.4 3.9 1.9 1.9 4.3 4.5 5.5 5.8 1.2 1.2 2.3 2.3 2.5 2.3 0.1 0 1.6 1.3 3.1 2.8 1.5 1.5 2.9 2.8 3 2.8 0.2 0 0.9 0.6 1.7 1.4 0.7 0.8 1.5 1.4 1.6 1.4 0.2 0 0.8 0.4 1.3 0.9 1.1 1 2.4 2.1 4.3 3.5 0.7 0.5 1.8 1.4 2.4 1.9 0.5 0.5 1.2 0.9 1.5 0.9 0.3 0 0.7 0.4 0.9 0.8 0.2 0.4 0.7 0.8 0.9 0.8 0.3 0 0.9 0.3 1.3 0.7 1.3 1.1 4.6 3.3 5 3.3 0.2 0 0.5 0.2 0.7 0.5 0.2 0.3 1 0.9 1.9 1.3 0.9 0.4 1.7 0.9 1.8 1.1 0.3 0.4 2.2 1.5 4.3 2.5 0.7 0.3 1.3 0.8 1.3 1 0 0.1 0.9 0.6 1.9 1 1 0.4 2 0.8 2.1 1 0.1 0.1 0.9 0.6 1.8 1 0.9 0.4 1.8 1 2.1 1.2 0.2 0.3 1.3 0.7 2.3 1 1 0.3 1.8 0.7 1.8 0.8 0 0.2 0.7 0.5 1.6 0.8 0.9 0.3 1.6 0.7 1.6 0.8 0 0.2 1 0.6 2.2 1 1.2 0.3 2.2 0.8 2.2 1 0 0.2 0.7 0.5 1.5 0.7 1.5 0.3 2.2 3.6 1 4.5-0.2 0.1-0.7 1.4-1.1 2.8-0.4 1.4-0.9 2.7-1 2.8-0.1 0.1-0.6 1.4-1 2.9-0.4 1.5-0.9 2.7-1 2.7-0.2 0-0.5 0.9-0.8 1.9-0.3 1-0.7 2-0.8 2.1-0.3 0.2-1.2 3.6-1.2 4.6 0 0.4 0.6 0.8 1.8 1 1 0.3 1.8 0.6 1.8 0.8 0 0.1 1 0.5 2.2 0.8 1.2 0.3 2.2 0.6 2.2 0.8 0 0.1 1.3 0.6 3 1 1.6 0.4 3 0.8 3 1 0 0.2 1.5 0.6 3.4 1 1.9 0.4 3.4 0.8 3.4 1 0 0.1 1.7 0.6 3.8 1 2.1 0.4 3.8 0.9 3.8 1 0 0.2 1.4 0.5 3.2 0.8 1.8 0.3 3.2 0.6 3.2 0.8 0 0.1 2.5 0.6 5.5 1 3 0.4 5.6 0.9 5.7 1 0.2 0.4 14.4 1.6 18.1 1.6 1.5 0 2.7 0.2 2.7 0.4 0 0.3 3.7 0.4 10.4 0.4 5.7 0 10.4-0.2 10.4-0.3 0-0.2 2.4-0.5 5.3-0.6 6.5-0.3 14.8-1.1 15.1-1.5 0.1-0.1 2.7-0.6 5.7-1 3-0.4 5.5-0.9 5.5-1 0-0.2 1.6-0.5 3.5-0.8 1.9-0.3 3.6-0.7 3.7-0.8 0.3-0.3 5.7-1.6 6.8-1.6 0.4 0 0.8-0.2 0.8-0.4 0-0.2 1.4-0.7 3.1-1 1.7-0.4 3.2-0.8 3.3-1 0.1-0.1 1.5-0.6 3.1-1 1.6-0.4 2.9-0.9 2.9-1 0-0.2 0.6-0.5 1.3-0.6 0.7-0.2 2-0.6 2.9-1 0.9-0.4 2.4-0.9 3.3-1.2 0.9-0.3 1.7-0.6 1.7-0.8 0-0.1 1.2-0.6 2.6-1 1.4-0.4 2.6-0.9 2.6-1 0-0.2 0.9-0.6 1.9-1 1-0.4 2-0.8 2.1-1 0.1-0.1 1-0.5 1.9-0.8 0.9-0.3 1.7-0.7 1.7-0.8 0-0.2 0.9-0.6 2-1 1.1-0.4 2-0.9 2-1 0-0.2 0.8-0.6 1.8-1 1-0.4 1.8-0.9 1.8-1 0-0.2 0.9-0.6 1.9-1 1-0.4 2-1 2.2-1.3 0.2-0.3 0.6-0.5 0.9-0.5 0.3 0 0.9-0.3 1.3-0.8 0.4-0.4 1.2-0.9 1.8-1 0.7-0.2 1.3-0.5 1.4-0.8 0.1-0.3 0.9-0.8 1.9-1.2 1-0.4 1.8-0.9 1.8-1.1 0-0.2 0.6-0.6 1.4-1 0.8-0.3 1.4-0.8 1.4-1 0-0.2 0.3-0.3 0.6-0.3 0.3 0 0.8-0.3 1.1-0.7 0.3-0.4 1.2-1.1 2-1.4 0.8-0.4 1.5-0.9 1.5-1.1 0-0.2 0.5-0.5 1.2-0.8 0.6-0.3 1.6-0.9 2.2-1.3 0.5-0.5 1.5-1.3 2-1.7 0.6-0.4 1.5-1.2 2-1.7 0.5-0.5 1.1-0.9 1.3-0.9 0.3 0 0.7-0.3 1-0.7 0.3-0.4 1-1.1 1.7-1.5 0.7-0.4 1.4-1.1 1.7-1.5 0.3-0.4 0.7-0.7 0.9-0.7 0.5 0 1.4-0.9 13-12.4 4.8-4.8 9.3-9.4 9.9-10.1 0.6-0.7 1.6-1.9 2.3-2.7 0.6-0.8 1.2-1.6 1.2-1.7 0-0.2 0.4-0.7 1-1.2 0.6-0.4 1-0.9 1-1.1 0-0.2 0.3-0.7 0.7-1.1 0.4-0.4 1.1-1.3 1.7-2.1 0.5-0.7 1.2-1.5 1.4-1.8 0.3-0.2 0.8-0.9 1.2-1.6 0.4-0.7 1-1.3 1.3-1.5 0.3-0.2 0.5-0.6 0.5-0.8 0-0.3 0.3-0.9 0.7-1.3 1.3-1.5 3.7-4.9 3.7-5.4 0-0.2 0.2-0.4 0.4-0.4 0.2 0 0.7-0.7 1.1-1.5 0.4-0.8 1-1.8 1.4-2.3 0.4-0.4 0.7-1 0.7-1.3 0-1.5 3.6-1.2 5.7 0.7 1.2 1-0.2 4.6-3.4 8.2-0.4 0.4-0.8 1.1-0.9 1.5-0.1 0.4-0.4 0.7-0.6 0.7-0.2 0-0.7 0.7-1.1 1.5-0.3 0.8-1 1.7-1.4 2-0.4 0.3-0.7 0.8-0.7 1.1 0 0.4-0.3 0.7-0.6 0.9-0.3 0.1-0.6 0.4-0.6 0.7 0 0.3-0.4 0.8-0.8 1.1-0.4 0.3-0.8 0.7-0.8 0.9 0 0.2-0.6 1.1-1.4 2-0.8 0.9-1.4 1.7-1.4 1.9 0 0.1-0.7 1-1.6 1.9-0.9 0.9-1.6 1.8-1.6 2 0 0.2-0.3 0.6-0.7 0.9-0.4 0.3-1 0.9-1.4 1.5-1.9 2.8-22.1 23.1-23.5 23.5-0.3 0.1-2.5 2-4.6 4.1-0.5 0.4-1.1 0.8-1.3 0.8-0.3 0-0.8 0.5-1.1 1-0.4 0.5-0.9 1-1.2 1-0.3 0-0.8 0.3-1.1 0.7-0.3 0.4-1.1 1-1.9 1.5-1.2 0.6-1.7 1-3.6 2.8-0.4 0.3-0.8 0.6-1 0.6-0.2 0-1 0.6-1.8 1.2-0.7 0.7-1.6 1.2-1.9 1.2-0.2 0-0.6 0.2-0.8 0.5-0.2 0.3-0.9 0.8-1.7 1.3-0.8 0.4-1.6 1-1.9 1.3-0.3 0.3-0.8 0.5-1.1 0.5-0.3 0-0.7 0.2-0.9 0.5-0.2 0.3-1 0.9-1.9 1.3-0.9 0.4-1.7 0.9-1.8 1.1-0.3 0.4-2.3 1.5-4.7 2.7-0.9 0.4-1.7 0.9-1.7 1.1 0 0.2-0.7 0.6-1.6 0.9-0.9 0.3-1.6 0.6-1.6 0.8 0 0.1-0.9 0.6-2 1-1.1 0.4-2 0.8-2 1 0 0.1-0.9 0.6-2 1-1.1 0.4-2 0.8-2 1 0 0.1-0.9 0.6-2 1-1.1 0.4-2 0.8-2 1 0 0.2-0.8 0.5-1.8 0.8-1 0.2-1.8 0.6-1.8 0.7 0 0.2-1.1 0.7-2.4 1.1-1.3 0.4-2.4 0.8-2.4 1 0 0.1-1.2 0.6-2.7 1-1.5 0.4-2.9 1-3.2 1.2-0.2 0.3-1.5 0.7-2.9 1-1.3 0.3-2.4 0.7-2.4 0.8 0 0.2-1 0.6-2.2 0.8-1.2 0.3-2.2 0.7-2.2 0.8 0 0.2-1.4 0.6-3.2 1-1.8 0.4-3.2 0.8-3.2 0.9 0 0.2-1.8 0.6-4.1 1.1-2.3 0.4-4.2 0.8-4.3 1-0.1 0.2-2.2 0.6-4.6 1.1-2.4 0.4-4.5 0.8-4.6 0.9-0.2 0.3-6.1 1.2-7.7 1.2-0.6 0-1.1 0.2-1.2 0.3-0.9 2.4-65.9 2.5-65.9 0.1 0-0.1-2-0.5-4.4-0.8-2.4-0.3-4.4-0.6-4.4-0.8 0-0.1-2-0.6-4.4-1-2.4-0.4-4.4-0.8-4.4-1 0-0.1-1.9-0.6-4.2-1-2.3-0.4-4.2-0.8-4.2-1 0-0.1-1.4-0.6-3.2-1-1.8-0.4-3.2-0.8-3.2-1 0-0.2-1.1-0.5-2.4-0.8-1.3-0.3-2.4-0.6-2.4-0.8 0-0.2-1.3-0.6-2.8-1-1.5-0.4-2.8-0.8-2.8-1 0-0.1-1.2-0.6-2.6-1-1.4-0.4-2.6-0.8-2.6-1 0-0.1-1.1-0.6-2.4-1-1.3-0.4-2.4-0.8-2.4-0.9 0-0.2-0.7-0.5-1.6-0.8-0.9-0.3-1.9-0.8-2.2-1-0.3-0.3-1.3-0.8-2.2-1.1-1-0.3-1.9-0.7-2-0.8-0.1-0.1-1-0.6-2-1-1-0.4-1.9-0.8-2-0.9-0.1-0.2-1-0.7-1.9-1.1-0.9-0.4-1.7-0.8-1.7-1 0-0.1-0.7-0.5-1.6-0.8-0.9-0.3-1.6-0.7-1.6-0.8 0-0.2-0.8-0.6-1.7-1-0.9-0.4-1.8-0.9-1.9-1.1-0.2-0.3-3.2-2-5.1-2.9-0.7-0.3-1.3-0.8-1.3-1 0-0.2-0.2-0.4-0.5-0.4-0.3 0-1-0.4-1.6-1-0.6-0.5-1.7-1.1-2.3-1.4-0.7-0.3-1.2-0.7-1.2-0.8 0-0.2-0.7-0.7-1.6-1.1-0.9-0.4-1.6-0.8-1.6-1 0-0.1-0.6-0.6-1.3-0.9-0.7-0.4-1.5-0.9-1.7-1.2-1-0.8-2.2-1.8-3.3-2.5-0.6-0.4-1.2-0.9-1.4-1.2-0.2-0.3-0.6-0.5-0.9-0.5-0.3 0-0.9-0.4-1.2-1-0.4-0.6-0.9-1-1.1-1-0.3 0-0.8-0.4-1.3-0.8-1.7-1.7-4-3.6-4.3-3.6-0.2 0-1.1-0.8-2-1.8-1-1-1.9-1.8-2-1.8-0.2 0-2.4-2.1-4.9-4.6-2.5-2.5-4.8-4.6-5-4.6-0.2 0-0.4-0.2-0.4-0.4 0-0.2-1.6-2-3.6-4-2-2-3.6-3.7-3.6-3.9 0-0.1-0.8-1-1.8-2-1-0.9-1.8-1.8-1.8-2 0-0.3-2-2.7-3.6-4.3-0.4-0.5-0.8-1.1-0.8-1.3 0-0.2-0.5-0.7-1-1.1-0.6-0.3-1-0.9-1-1.2 0-0.4-0.3-0.7-0.6-0.8-0.3-0.2-0.7-0.6-0.8-1-0.1-0.3-0.5-1-0.9-1.4-1.6-1.8-3.3-4.2-3.3-4.6 0-0.2-0.2-0.5-0.5-0.7-0.6-0.4-1.4-1.6-1.8-2.6-0.1-0.4-0.4-0.7-0.6-0.7-0.2 0-0.5-0.5-0.7-1-0.2-0.6-0.9-1.6-1.4-2.4-0.6-0.7-1-1.5-1-1.7 0-0.3-0.2-0.5-0.4-0.5-0.2 0-0.7-0.6-1-1.4-0.3-0.8-0.7-1.4-0.9-1.4-0.3 0-0.6-0.5-0.7-1.1-0.1-0.7-0.5-1.5-0.9-1.9-0.4-0.5-1.1-1.6-1.5-2.5-0.4-0.9-0.8-1.7-1-1.7-0.1 0-0.5-0.7-0.8-1.6-0.3-0.8-0.7-1.6-1-1.7-0.2-0.1-0.7-1-1-1.9-0.3-0.9-0.7-1.6-0.8-1.6-0.2 0-0.6-0.9-1-2-0.4-1.1-0.9-2-1.1-2-0.1 0-0.6-1-0.9-2.2-0.4-1.2-0.8-2.2-1-2.2-0.1 0-0.5-0.8-0.8-1.7-0.3-0.9-0.7-1.8-0.8-1.9-0.2-0.1-0.6-1.1-1-2.2-0.3-1.1-0.8-2.2-1-2.4-0.2-0.2-0.6-1.4-1-2.7-0.4-1.3-0.8-2.3-1-2.3-0.2 0-0.4-0.2-0.4-0.6 0-0.7-1.3-4.7-1.6-5-0.2-0.1-0.5-1.1-0.8-2.2-0.2-1.1-0.6-2.2-0.8-2.4-0.1-0.2-0.6-1.9-1-3.7-0.5-1.8-0.9-3.3-1.1-3.3-0.1 0-0.5-1.7-0.9-3.8-0.4-2.1-0.9-3.8-1-3.8-0.2 0-0.6-2.2-1-4.8-0.4-2.6-0.9-4.8-1-4.8-0.2 0-0.5-1.9-0.8-4.3-0.3-2.4-0.7-4.4-0.8-4.5-2.4-1.7-2.4-64.8 0-66.4 0.2-0.1 0.5-2.2 0.8-4.6 0.3-2.4 0.6-4.5 0.8-4.6 0.1-0.1 0.6-2.1 1-4.4 0.4-2.3 0.8-4.3 1-4.4 0.1-0.1 0.6-2 1-4.3 0.4-2.3 0.8-4.1 1-4.1 0.1 0 0.6-1.4 1-3.2 0.4-1.8 0.8-3.2 1-3.2 0.2 0 0.5-1.1 0.8-2.4 0.3-1.3 0.6-2.4 0.8-2.4 0.2 0 0.6-1.3 1-2.8 0.4-1.5 0.8-2.8 1-2.8 0.2 0 0.6-1.1 1-2.4 0.3-1.3 0.8-2.4 0.9-2.4 0.2 0 0.6-1.2 1.1-2.6 0.4-1.4 0.9-2.6 1.1-2.6 0.1 0 0.5-0.8 0.8-1.8 0.2-1 0.6-1.8 0.7-1.8 0.2 0 0.6-0.9 1-2 0.4-1.1 0.9-2 1-2 0.2 0 0.6-0.9 1-2 0.4-1.1 0.8-2 1-2 0.1 0 0.6-0.9 1-2 0.4-1.1 0.8-2 1-2 0.1 0 0.5-0.6 0.7-1.4 0.3-0.8 0.7-1.4 0.9-1.4 0.2 0 0.5-0.6 0.8-1.4 0.3-0.8 0.7-1.5 0.9-1.7 0.3-0.2 0.9-1.1 1.3-2 0.4-0.9 0.8-1.7 1-1.7 0.1 0 0.6-0.8 1-1.8 0.4-1 0.9-1.8 1.3-2 0.3-0.1 0.5-0.4 0.5-0.8 0-0.3 0.2-0.7 0.5-0.9 0.3-0.2 0.9-1.1 1.3-2 0.4-0.9 0.9-1.7 1.2-1.9 0.4-0.1 0.6-0.4 0.6-0.8 0-0.3 0.3-0.8 0.7-1.1 0.4-0.3 1-1 1.3-1.7 0.3-0.7 0.8-1.3 1.1-1.5 0.3-0.2 0.5-0.6 0.5-0.9 0-0.3 0.3-0.8 0.7-1.1 0.4-0.3 0.9-0.8 1-1.1 0.4-0.9 1.2-2 2.1-3 0.4-0.5 1.4-1.7 2.2-2.6 0.8-0.9 1.9-2.2 2.5-2.8 0.6-0.6 1.1-1.3 1.1-1.5 0-0.3 0.6-1 1.4-1.8 0.8-0.7 1.4-1.4 1.4-1.6 0-0.1 1.2-1.4 2.6-2.8 1.4-1.4 2.6-2.7 2.6-2.9 0-0.2 2.3-2.6 5.1-5.2 2.7-2.6 6.2-6 7.8-7.5 1.5-1.5 2.9-2.7 3.1-2.7 0.1 0 0.9-0.6 1.6-1.4 0.7-0.8 1.5-1.4 1.7-1.4 0.2 0 1-0.7 1.9-1.5 2.1-2.1 3.4-3.2 4.9-4 0.7-0.4 1.5-1 1.8-1.4 0.3-0.4 0.8-0.7 1.1-0.7 0.3 0 0.8-0.4 1-0.8 0.2-0.4 0.7-0.8 1-0.8 0.3 0 0.7-0.2 0.9-0.5 0.4-0.6 1.6-1.4 2.6-1.8 0.4-0.1 0.7-0.4 0.7-0.6 0-0.2 0.6-0.6 1.4-1 0.8-0.3 1.4-0.8 1.4-1 0-0.1 0.7-0.6 1.5-1 0.8-0.4 1.7-0.9 2-1.2 0.3-0.2 0.9-0.6 1.3-0.7 0.4-0.1 0.8-0.4 0.8-0.6 0-0.2 0.7-0.7 1.6-1 0.9-0.4 1.6-0.8 1.6-1 0-0.1 0.8-0.6 1.7-1 0.9-0.4 1.9-1 2.2-1.3 0.3-0.3 0.8-0.5 1.1-0.5 0.2 0 0.8-0.3 1.2-0.7 0.5-0.5 1.5-1 2.3-1.3 0.8-0.2 1.5-0.6 1.5-0.7 0-0.2 0.8-0.7 1.8-1.1 1-0.4 1.8-0.9 1.8-1.1 0-0.1 1-0.6 2.2-0.9 1.2-0.4 2.2-0.8 2.2-1 0-0.2 0.2-0.4 0.5-0.4 0.3 0 1.5-0.5 2.7-1.1 1.3-0.7 2.8-1.3 3.3-1.4 0.6-0.2 1.1-0.5 1.1-0.6 0-0.2 1.2-0.7 2.6-1.1 1.4-0.4 2.6-0.9 2.6-1 0-0.2 1.2-0.6 2.6-1 1.4-0.4 2.6-0.8 2.6-1 0-0.1 1.3-0.6 3-1 1.6-0.4 3-0.9 3-1 0-0.2 1-0.5 2.2-0.8 1.2-0.2 2.2-0.6 2.2-0.8 0-0.2 1.5-0.6 3.4-1 1.9-0.4 3.4-0.8 3.4-1 0-0.1 1.8-0.6 4-1 2.2-0.4 4-0.9 4-1 0-0.2 2.2-0.6 4.8-1 2.6-0.4 4.8-0.9 4.8-1 0-0.2 2.1-0.5 4.6-0.8 2.5-0.3 4.6-0.7 4.6-0.8 0-0.3 7.3-1 16.2-1.6 10.5-0.7 45 0.5 45.8 1.6zm-13.3 16.7c0.1 0.3 0.8 0.5 1.6 0.5 2.7 0 12.7 1.3 12.8 1.6 0.1 0.2 0.6 0.4 1 0.4 1.4 0 9.3 1.3 9.5 1.6 0.1 0.2 1.9 0.6 3.9 1 2 0.4 3.7 0.8 3.7 1 0 0.1 1.1 0.5 2.4 0.7 1.3 0.3 2.4 0.7 2.4 0.9 0 0.1 1.4 0.6 3.2 1 1.8 0.4 3.2 0.9 3.2 1 0 0.2 1.4 0.7 3 1 3.5 0.9 4.6 3.4 2.2 5.4-0.1 0.1-0.5 1-0.8 2-0.3 0.9-0.8 1.9-1 2.2-0.2 0.2-0.7 1.2-0.9 2.1-0.3 0.9-0.7 1.7-0.8 1.7-0.2 0-0.7 1.2-1.1 2.6-0.4 1.4-0.9 2.6-1.1 2.6-0.1 0-0.4 0.5-0.6 1.2-0.3 0.8-0.7 1.2-1.3 1.2-1.2 0-4.4-0.8-4.4-1.2 0-0.1-1-0.5-2.2-0.8-1.2-0.3-2.2-0.7-2.2-0.8 0-0.2-1.5-0.6-3.4-1-1.9-0.4-3.4-0.8-3.4-1 0-0.1-1.8-0.6-4-1-2.2-0.4-4-0.9-4-1 0-0.1-2.3-0.6-5.1-1-2.8-0.4-5.3-0.9-5.5-1-0.2-0.2-3.1-0.6-6.4-0.8-3.3-0.3-6.1-0.7-6.3-1-0.4-0.5-28.6-0.5-29 0-0.2 0.3-3 0.7-6.3 1-3.3 0.3-6.1 0.6-6.2 0.8-0.1 0.1-2.4 0.6-5.2 1-2.7 0.3-5.1 0.8-5.2 0.9-0.1 0.2-2 0.7-4.1 1.1-2.1 0.4-3.9 0.8-3.9 0.9 0 0.2-1.4 0.6-3.2 1-1.8 0.4-3.2 0.9-3.2 1.1 0 0.1-1.1 0.5-2.4 0.8-1.3 0.3-2.4 0.6-2.4 0.8 0 0.1-1.3 0.6-2.8 1-1.5 0.4-2.8 0.9-2.8 1.1 0 0.1-1 0.5-2.2 0.9-1.2 0.3-2.2 0.8-2.2 1 0 0.2-0.3 0.4-0.6 0.4-0.4 0-1.8 0.5-3.1 1.2-1.4 0.6-2.9 1.2-3.4 1.4-0.5 0.1-0.9 0.4-0.9 0.6 0 0.1-1 0.6-2.2 1-1.2 0.4-2.2 0.9-2.2 1.1 0 0.2-0.7 0.6-1.5 1-0.8 0.3-1.6 0.7-1.7 0.9-0.1 0.1-0.8 0.5-1.5 0.8-0.7 0.3-1.3 0.6-1.3 0.8 0 0.1-0.8 0.6-1.7 1-0.9 0.4-2 1.1-2.5 1.5-0.4 0.4-1 0.7-1.3 0.7-0.2 0-0.6 0.2-0.8 0.5-0.2 0.3-1.1 0.9-2 1.3-0.9 0.4-1.7 0.9-1.7 1.1 0 0.2-0.5 0.5-1 0.7-0.6 0.2-1 0.6-1 0.8 0 0.2-0.7 0.7-1.5 1.1-0.8 0.3-1.7 1-2 1.4-0.3 0.4-0.8 0.7-1.1 0.7-0.3 0-0.8 0.4-1 0.8-0.2 0.4-0.6 0.8-0.9 0.8-0.3 0-0.8 0.4-1.3 0.8-1.6 1.5-4.1 3.6-4.4 3.6-0.1 0-1 0.8-1.9 1.8-1 1-1.9 1.8-2.1 1.8-0.1 0-3.3 3.1-7 6.9-9.1 9.2-10 10.2-10 10.7 0 0.2-0.5 0.7-1 1.1-0.5 0.5-1 1-1 1.2 0 0.2-0.4 0.8-0.9 1.3-0.5 0.6-1.3 1.6-1.7 2.2-0.8 1.2-1.2 1.7-2.9 3.7-0.5 0.6-0.9 1.2-0.9 1.3 0 0.2-0.5 0.8-1 1.4-0.5 0.7-1 1.4-1 1.7 0 0.2-0.2 0.6-0.5 0.8-0.3 0.2-0.9 1-1.2 1.8-0.4 0.8-0.9 1.5-1.1 1.5-0.2 0-0.5 0.4-0.6 0.8-0.5 1.7-3.1 1.8-4.4 0.2-0.2-0.2-1-0.7-1.8-1-0.8-0.3-1.5-0.8-1.7-1-0.1-0.3-1-0.7-1.9-1-0.9-0.3-1.6-0.7-1.6-0.8 0-0.2-0.8-0.7-1.7-1.2-3.1-1.5-4.1-2.1-4.4-2.7-0.2-0.3-0.6-0.5-0.9-0.5-0.8 0-0.8-1.7-0.1-2.5 0.3-0.3 0.9-1.1 1.3-1.9 0.4-0.8 1-1.5 1.3-1.7 0.3-0.2 0.5-0.6 0.5-0.9 0-0.3 0.2-0.7 0.5-0.9 0.3-0.2 0.9-1 1.3-1.8 0.4-0.8 0.9-1.5 1.1-1.5 0.1 0 0.3-0.3 0.5-0.7 0.1-0.4 0.5-1.1 0.9-1.5 0.4-0.5 1-1.3 1.4-1.9 0.9-1.5 1.9-2.6 2.8-3.4 0.4-0.4 0.7-0.9 0.7-1.2 0-0.3 0.4-0.7 0.8-1 0.4-0.3 0.8-0.7 0.8-1 0-0.2 0.4-0.8 0.9-1.2 0.5-0.4 1.2-1.2 1.7-1.9 0.4-0.7 1.1-1.4 1.5-1.7 0.4-0.3 0.7-0.7 0.7-0.9 0-0.2 1.2-1.5 2.6-3 1.4-1.4 2.6-2.7 2.6-2.8 0-0.5 10.4-10.3 14-13.4 0.8-0.6 1.8-1.5 2.3-1.9 0.4-0.4 1.4-1.1 2.1-1.7 0.7-0.5 1.7-1.4 2.2-1.9 0.5-0.5 1.1-0.9 1.3-0.9 0.3 0 0.7-0.3 1-0.7 0.3-0.4 0.8-0.9 1.1-1 1.1-0.5 2.2-1.3 2.7-2 0.3-0.4 0.8-0.7 1.1-0.7 0.3 0 0.6-0.2 0.6-0.4 0-0.2 0.7-0.7 1.5-1.1 0.8-0.3 1.7-1 2-1.4 0.3-0.4 0.8-0.7 1.1-0.7 0.4 0 0.7-0.3 0.9-0.6 0.1-0.3 0.6-0.7 1-0.8 0.5-0.2 1.4-0.7 2.1-1.2 0.7-0.5 1.6-1 2.1-1.2 0.5-0.1 0.9-0.4 0.9-0.6 0-0.2 0.7-0.7 1.6-1 0.9-0.4 1.6-0.8 1.6-1 0-0.2 0.8-0.6 1.8-1 1-0.4 1.8-0.8 1.8-1 0-0.2 0.6-0.5 1.4-0.8 0.8-0.3 1.4-0.6 1.4-0.8 0-0.1 0.9-0.6 2-1 1.1-0.4 2-0.8 2-1 0-0.1 0.9-0.6 2-1 1.1-0.4 2-0.8 2-1 0-0.1 1-0.6 2.3-1 1.2-0.4 2.5-0.9 2.8-1.2 0.3-0.3 1.2-0.7 1.9-0.8 0.8-0.2 1.4-0.4 1.4-0.6 0-0.2 1.1-0.7 2.4-1 1.3-0.4 2.4-0.8 2.4-1 0-0.1 1.3-0.6 2.8-1 1.5-0.4 2.8-0.8 2.8-1 0-0.1 1.4-0.6 3.2-1 1.8-0.4 3.2-0.9 3.2-1 0-0.2 1.1-0.6 2.4-0.8 1.3-0.3 2.4-0.6 2.4-0.8 0-0.1 1.8-0.6 3.9-1 2.1-0.4 4.1-0.8 4.3-1 0.2-0.2 2.5-0.6 5-1 2.5-0.4 4.7-0.9 4.8-1 0.2-0.3 10.8-1.6 13-1.6 0.8 0 1.4-0.2 1.4-0.4 0-0.2 1.6-0.4 3.5-0.5 8-0.4 35.1 0 35.2 0.4zm3.5 28.9c0.4 0.2 2.9 0.5 5.4 0.8 2.5 0.2 4.7 0.6 4.7 0.8 0.1 0.2 0.6 0.4 1.1 0.4 1.5 0 8.4 1.3 8.6 1.6 0.1 0.1 1.9 0.6 3.9 1 2 0.4 3.7 0.8 3.7 1 0 0.2 1.2 0.5 2.6 0.8 1.4 0.3 2.6 0.6 2.6 0.8 0 0.2 1.3 0.6 2.9 1 1.6 0.4 3.1 1 3.4 1.2 0.2 0.3 1.1 0.6 2 0.8 0.8 0.1 1.9 0.5 2.3 0.8 0.4 0.2 1.8 0.8 3 1.2 1.2 0.5 2.3 0.9 2.4 1.1 0.1 0.1 1 0.4 1.9 0.7 0.9 0.2 1.7 0.6 1.7 0.8 0 1 1.1 0.3 1.7-1 0.8-1.6 2.4-1.8 3.8-0.4 0.3 0.3 0.8 0.6 1.1 0.6 0.3 0 0.8 0.2 1.1 0.5 0.3 0.3 1.2 0.9 2.1 1.3 0.9 0.4 1.7 0.8 1.8 1 0.1 0.1 1 0.6 1.9 1 0.9 0.4 1.7 0.8 1.7 1 0 0.1 0.8 0.6 1.7 1 0.9 0.4 1.8 1 2 1.3 0.2 0.3 0.6 0.5 0.9 0.5 0.3 0 0.7 0.2 0.9 0.5 0.2 0.3 1 0.9 1.8 1.3 0.8 0.4 1.5 0.9 1.5 1 0 0.2 0.6 0.6 1.4 1 0.8 0.3 1.4 0.8 1.4 1 0 0.2 0.3 0.4 0.7 0.5 1 0.4 2.2 1.2 2.8 2 0.3 0.4 0.8 0.7 1 0.7 0.3 0 0.7 0.4 1 0.8 0.3 0.4 0.8 0.8 1.1 0.8 0.3 0 0.7 0.2 0.9 0.5 0.2 0.3 0.8 0.9 1.5 1.3 0.7 0.4 1.4 1.1 1.7 1.5 0.3 0.4 0.8 0.7 1 0.7 0.3 0 1.1 0.7 1.9 1.6 0.7 0.9 1.5 1.6 1.7 1.6 0.2 0 1.6 1.3 3.2 2.8 1.5 1.5 2.9 2.8 3 2.8 0.2 0 1.3 1.1 2.5 2.4 1.2 1.4 3.1 3.3 4.1 4.4 2.4 2.4 2.4 2.6-0.3 5-1.2 1.1-3.1 2.9-4.1 3.9-1.1 1-2.1 1.9-2.3 1.9-0.1 0-1 0.7-1.8 1.6-0.9 0.9-1.7 1.6-1.9 1.6-0.2 0-1.1 0.8-2 1.8-0.9 1-2 1.8-2.3 1.8-0.7 0-4.2-3.3-4.2-3.9 0-0.2-0.7-0.9-1.6-1.7-0.9-0.8-3.3-3-5.3-4.9-1.9-1.9-3.7-3.5-3.8-3.5-0.3 0-2.6-2-4.3-3.6-0.5-0.4-1-0.8-1.2-0.8-0.2 0-0.7-0.4-1.2-0.9-1.7-1.5-2.4-2.2-3.8-2.9-0.8-0.5-1.7-1.1-2.2-1.5-0.4-0.4-1.1-1-1.4-1.3-0.3-0.2-1.2-0.7-1.9-1-0.7-0.3-1.3-0.7-1.3-0.9 0-0.1-0.6-0.6-1.3-0.9-0.7-0.4-1.4-0.8-1.5-1-0.1-0.1-0.9-0.6-1.8-1-0.9-0.4-1.7-1-1.9-1.3-0.2-0.3-0.6-0.5-0.9-0.5-0.3 0-0.8-0.2-1.1-0.5-0.3-0.3-1.4-0.9-2.5-1.3-1.1-0.4-2.2-0.9-2.4-1.2-0.2-0.3-1.2-0.7-2.1-1-0.9-0.3-1.7-0.7-1.7-0.8 0-0.2-0.9-0.6-2-1-1.1-0.4-2-0.9-2-1 0-0.1-0.9-0.5-2-0.8-1.1-0.3-2-0.7-2-0.8 0-0.2-1.2-0.6-2.6-1-1.4-0.5-2.6-0.9-2.6-1.1 0-0.1-1.3-0.5-2.9-0.9-1.6-0.4-3-0.9-3.1-1-0.1-0.2-1.6-0.6-3.4-1-1.8-0.4-3.4-0.8-3.6-1-0.2-0.2-1.7-0.5-3.2-0.8-1.5-0.3-2.9-0.6-3-0.8-0.2-0.3-8.7-1.6-10.5-1.6-0.6 0-1.1-0.2-1.2-0.4-0.6-1.5-40.3-1.5-40.3 0.1 0 0.1-0.5 0.3-1.1 0.3-1.8 0-10.7 1.3-10.9 1.6-0.1 0.1-1.6 0.5-3.3 0.8-1.7 0.3-3.1 0.6-3.1 0.8 0 0.1-1.6 0.6-3.6 1-2 0.4-3.6 0.9-3.6 1 0 0.1-1.3 0.6-2.8 1-1.5 0.4-2.8 0.8-2.8 1 0 0.1-1.3 0.6-2.8 1-1.5 0.4-2.8 0.9-2.8 1.1 0 0.1-0.7 0.5-1.7 0.7-0.9 0.3-1.9 0.7-2.1 1-0.3 0.3-1.4 0.7-2.4 1-1 0.3-1.8 0.7-1.8 0.9 0 0.1-0.9 0.5-2 0.9-1.1 0.4-2 0.8-2 0.9 0 0.2-0.8 0.7-1.7 1.1-0.9 0.4-1.9 1-2.2 1.3-0.3 0.3-0.8 0.5-1.1 0.5-0.3 0-0.7 0.2-0.9 0.5-0.2 0.3-0.9 0.8-1.7 1.1-0.8 0.3-1.6 0.7-1.8 1-0.2 0.3-1.2 0.8-2.1 1.2-0.9 0.4-1.7 0.9-1.7 1.1 0 0.1-0.7 0.6-1.5 1-0.8 0.3-1.7 1-2 1.4-0.3 0.4-0.8 0.7-1.1 0.7-0.3 0-0.6 0.3-0.7 0.6-0.2 0.3-0.5 0.6-0.9 0.6-0.3 0-0.8 0.3-1.1 0.7-0.3 0.4-0.8 0.9-1.1 1-1.1 0.5-2.2 1.3-2.7 2-0.3 0.4-0.7 0.7-1 0.7-0.2 0-1 0.6-1.8 1.4-3.1 2.8-4.4 4-5.9 5.2-0.9 0.7-1.9 1.6-2.4 2.1-0.7 0.9-3.3 3.6-8.4 8.9-1 1.1-1.8 2-1.8 2.2 0 0.2-0.7 1-1.6 1.8-0.9 0.9-1.6 1.8-1.6 2 0 0.2-0.3 0.6-0.7 0.9-0.4 0.3-1.1 1-1.5 1.7-0.4 0.6-1.1 1.5-1.5 2-0.4 0.4-0.7 0.9-0.7 1 0 0.2-0.2 0.6-0.5 0.9-0.7 0.7-2.8 4-3.2 4.8-0.1 0.4-0.4 0.7-0.6 0.7-0.2 0-0.7 0.8-1.1 1.7-0.4 0.9-1 1.8-1.3 2-0.3 0.2-0.5 0.6-0.5 0.8 0 0.3-0.3 0.9-0.7 1.3-0.4 0.5-1 1.4-1.3 2.1-0.3 0.7-0.6 1.3-0.8 1.3-0.2 0-0.6 0.9-1 2-0.4 1.1-0.9 2-1 2-0.2 0-0.6 0.9-1 2-0.4 1.1-0.9 2-1 2-0.2 0-0.6 1-1 2.2-0.4 1.2-0.9 2.2-1 2.2-0.2 0-0.5 0.8-0.8 1.7-0.3 0.9-0.7 1.8-0.8 1.9-0.2 0.1-0.6 1.3-1 2.6-0.4 1.3-0.9 2.5-1 2.6-0.3 0.2-1.1 3-1.5 4.9-0.1 0.6-0.3 1.1-0.5 1.1-0.2 0-0.6 1.5-1 3.4-0.4 1.9-0.9 3.4-1 3.4-0.2 0-0.5 1.4-0.8 3.1-0.3 1.7-0.7 3.2-0.8 3.3-0.3 0.2-1.6 8.3-1.6 10.1 0 0.6-0.2 1.1-0.3 1.1-1.7 0-1.7 42.5-0.1 43.1 0.2 0.1 0.4 0.6 0.4 1.2 0 1.6 1.3 9.9 1.6 10.1 0.1 0.1 0.5 1.5 0.8 3.1 0.2 1.6 0.6 2.9 0.8 2.9 0.1 0 0.6 1.6 1 3.6 0.4 2 0.8 3.6 1 3.6 0.2 0 0.6 1.4 1 3 0.4 1.6 0.9 3 1.1 3 0.1 0 0.6 1.1 0.9 2.4 0.4 1.3 0.8 2.4 1 2.4 0.2 0 0.5 0.8 0.8 1.8 0.2 1 0.6 1.8 0.8 1.8 0.2 0 0.4 0.2 0.4 0.4 0 0.2 0.5 1.6 1.1 2.9 0.7 1.4 1.4 3.1 1.7 3.9 0.3 0.8 0.8 1.6 1 1.8 0.3 0.2 0.7 1 1 1.8 0.3 0.8 0.8 1.6 1.1 1.9 0.3 0.3 0.5 0.8 0.5 1.1 0 0.3 0.2 0.7 0.5 0.9 0.3 0.2 0.9 1.1 1.3 2 0.4 0.9 0.9 1.7 1 1.7 0.2 0 0.6 0.7 1 1.6 0.4 0.9 0.9 1.6 1 1.6 0.2 0 0.6 0.6 1 1.4 0.3 0.8 0.8 1.4 1 1.4 0.2 0 0.4 0.2 0.4 0.5 0 0.3 0.5 1.2 1.2 1.9 0.6 0.8 1.2 1.6 1.2 1.9 0 0.3 0.4 0.7 0.8 0.9 0.4 0.2 0.8 0.7 0.8 1 0 0.3 0.4 0.8 0.8 1.1 0.4 0.3 0.8 0.6 0.8 0.8 0 0.5 2.3 3.3 3.7 4.6 0.6 0.6 1.1 1.2 1.1 1.4 0 0.6 17.4 17.5 18 17.5 0.2 0 2.4 1.8 3.8 3.2 0.5 0.4 1 0.8 1.2 0.8 0.2 0 1 0.5 1.8 1.2 0.8 0.7 1.6 1.2 1.9 1.2 0.3 0 0.6 0.3 0.7 0.6 0.2 0.3 0.8 0.7 1.4 1 0.7 0.3 1.2 0.6 1.2 0.8 0 0.2 0.7 0.7 1.5 1.1 0.8 0.3 1.6 0.9 1.8 1.2 0.2 0.3 0.6 0.5 0.8 0.5 0.3 0 0.9 0.3 1.3 0.7 0.5 0.4 1.6 1.1 2.5 1.5 0.9 0.4 1.7 0.8 1.7 1 0 0.1 0.6 0.5 1.4 0.7 0.8 0.3 1.4 0.7 1.4 0.9 0 0.2 0.9 0.6 2 1 1.1 0.4 2 0.9 2 1 0 0.2 0.9 0.6 1.9 1 1 0.4 2 0.8 2.1 1 0.1 0.1 1.1 0.5 2.3 0.9 1.1 0.4 2.7 1.1 3.6 1.5 0.8 0.5 1.7 0.8 2 0.8 0.3 0 0.5 0.2 0.5 0.4 0 0.2 1.3 0.6 2.8 1 1.5 0.4 2.8 0.8 2.8 1 0 0.1 1.4 0.6 3.1 1 1.7 0.4 3.2 0.9 3.3 1.1 0.1 0.1 1.7 0.6 3.4 0.9 1.8 0.3 3.5 0.8 3.8 1 0.4 0.2 2.1 0.5 3.8 0.8 1.8 0.3 3.3 0.7 3.4 0.8 0.1 0.2 3.1 0.6 6.6 1 3.5 0.4 6.8 0.9 7.4 1.1 1.4 0.7 28.5 0.7 28.7 0 0.1-0.3 0.8-0.5 1.6-0.5 2.2 0 12.3-1.3 12.5-1.6 0.1-0.1 1.8-0.5 3.7-0.8 1.9-0.3 3.5-0.6 3.5-0.8 0-0.1 1.7-0.6 3.8-1 2.1-0.4 3.8-0.8 3.8-1 0-0.1 1.3-0.6 3-1 1.6-0.4 3-0.9 3-1.1 0-0.2 0.2-0.3 0.6-0.3 0.7 0 4.8-1.3 5-1.6 0.1-0.2 1-0.5 1.9-0.8 0.9-0.2 1.7-0.6 1.7-0.8 0-0.2 0.3-0.4 0.7-0.4 0.4 0 1.7-0.5 2.9-1.1 1.2-0.6 3-1.4 3.9-1.7 0.9-0.3 1.7-0.7 1.7-0.8 0-0.2 0.8-0.7 1.8-1.1 1-0.4 1.8-0.8 1.8-1 0-0.1 0.6-0.4 1.4-0.7 0.8-0.3 1.4-0.6 1.4-0.8 0-0.2 0.8-0.6 1.8-1 1-0.4 1.8-0.9 1.9-1.2 0.2-0.3 0.8-0.6 1.5-0.8 0.6-0.1 1.3-0.5 1.5-0.8 0.2-0.3 0.9-0.8 1.6-1.2 0.7-0.3 1.3-0.8 1.3-0.9 0-0.2 0.6-0.6 1.3-0.9 0.7-0.3 1.5-0.9 1.8-1.3 0.3-0.4 0.8-0.7 1.1-0.7 0.3 0 0.8-0.4 1-0.8 0.2-0.4 0.7-0.8 1-0.8 0.3 0 0.8-0.3 1.1-0.7 0.3-0.4 0.7-0.8 0.9-0.9 0.7-0.3 3-2 4-3.1 0.5-0.5 1-0.9 1.2-0.9 0.2 0 1.1-0.8 2.1-1.8 0.9-1 1.8-1.8 2-1.8 0.2 0 1-0.6 1.7-1.4 2.4-2.5 4.3-4.4 5.3-5.2 0.5-0.5 2.1-2.2 3.6-3.7 3.1-3.3 2.8-3.1 3.9-2.2 0.4 0.4 1.2 1 1.7 1.4 2 1.5 4.5 3.5 5.3 4.3 0.5 0.4 1 0.8 1.2 0.8 0.2 0 0.7 0.4 1.2 0.9 0.5 0.5 1.5 1.4 2.2 1.9 0.7 0.5 1.8 1.5 2.5 2.1 0.7 0.6 1.5 1.1 1.8 1.1 1.5 0 0.8 2.1-1.6 4.4-0.8 0.7-1.5 1.5-1.5 1.7 0 0.5-11.9 12.3-12.3 12.3-0.2 0-1.1 0.8-1.9 1.8-0.9 1-1.8 1.8-2.1 1.8-0.2 0-0.7 0.3-1 0.7-0.3 0.4-1 1.1-1.7 1.5-0.7 0.4-1.3 1-1.5 1.3-0.2 0.3-0.6 0.5-0.9 0.5-0.3 0-0.9 0.5-1.2 1-0.4 0.5-0.9 1-1.3 1-0.3 0-0.6 0.3-0.8 0.6-0.1 0.3-0.8 0.9-1.6 1.3-0.8 0.4-1.7 1-2 1.4-0.3 0.4-0.8 0.7-1.1 0.7-0.3 0-0.7 0.2-0.9 0.5-0.2 0.3-0.9 0.8-1.7 1.3-0.8 0.4-1.6 1-1.9 1.3-0.3 0.3-0.8 0.5-1.1 0.5-0.3 0-0.7 0.2-0.9 0.5-0.2 0.3-1 0.9-1.9 1.3-0.9 0.4-1.8 1-2 1.2-0.2 0.3-1 0.7-1.8 1-0.8 0.3-1.5 0.8-1.7 1-0.1 0.3-1 0.7-1.9 1-0.9 0.3-1.6 0.7-1.6 0.8 0 0.2-0.6 0.5-1.4 0.8-0.8 0.3-1.4 0.6-1.4 0.8 0 0.1-0.9 0.6-2 1-1.1 0.4-2 0.8-2 1 0 0.1-1 0.6-2.2 1-1.2 0.4-2.2 0.9-2.2 1 0 0.2-1.1 0.6-2.4 1-1.3 0.3-2.4 0.8-2.4 1 0 0.2-0.9 0.5-2 0.8-1.1 0.3-2 0.6-2 0.8 0 0.2-1.3 0.6-2.8 1-1.5 0.4-2.8 0.9-2.8 1 0 0.2-1.4 0.6-3.2 1-1.8 0.4-3.2 0.8-3.2 1 0 0.1-1.1 0.5-2.5 0.8-1.4 0.3-2.7 0.6-2.9 0.8-0.2 0.2-2.3 0.6-4.6 1-2.3 0.4-4.3 0.9-4.4 1-0.2 0.3-5.2 1-9.4 1.5-1.5 0.1-2.9 0.3-3 0.5-1 1.4-42.5 1.4-43.6 0-0.1-0.1-2.9-0.6-6.2-0.9-3.3-0.4-6.1-0.9-6.2-1-0.1-0.2-2.3-0.7-4.8-1.1-2.5-0.4-4.7-0.8-4.8-1-0.1-0.1-1.4-0.5-2.8-0.7-1.4-0.3-2.6-0.6-2.8-0.8-0.1-0.2-1.8-0.7-3.7-1.1-1.9-0.4-3.5-0.9-3.5-1 0-0.2-1.1-0.5-2.4-0.8-1.4-0.3-2.7-0.8-3-1-0.3-0.3-1.2-0.7-2-0.8-0.8-0.2-1.7-0.5-1.9-0.8-0.3-0.2-1.6-0.8-3-1.2-1.4-0.4-2.5-0.9-2.5-1 0-0.2-0.9-0.6-1.9-1-1-0.4-2-0.8-2.1-1-0.1-0.2-1.1-0.6-2.1-1-1-0.4-1.9-0.8-1.9-1 0-0.1-0.7-0.5-1.6-0.8-0.9-0.3-1.6-0.7-1.6-0.8 0-0.2-0.8-0.6-1.8-1-1-0.4-1.8-0.8-1.8-1 0-0.1-0.7-0.6-1.5-1-2.8-1.2-5.4-2.9-7-4.3-0.4-0.4-1.1-0.8-1.7-0.9-0.6-0.2-1.2-0.6-1.5-0.9-0.3-0.4-1.1-1.1-1.9-1.5-0.8-0.4-1.7-1.1-2.2-1.5-0.4-0.4-0.9-0.7-1-0.7-0.2 0-0.6-0.3-1.1-0.7-2-1.7-2.5-2.1-3.6-2.8-0.6-0.4-1.3-1-1.6-1.4-0.3-0.4-0.7-0.7-1-0.7-0.2 0-1.1-0.7-1.9-1.6-0.9-0.9-1.7-1.6-1.9-1.6-0.1 0-1.1-0.9-2.1-2-1.1-1.1-2.1-2-2.3-2-0.2 0-1.4-1-2.6-2.2-3.3-3.5-6-6.2-6.3-6.2-0.1 0-0.6-0.6-1-1.3-0.4-0.7-1.5-2-2.5-2.9-0.9-0.9-1.7-1.8-1.7-1.9 0-0.2-0.6-0.9-1.4-1.7-0.8-0.7-1.4-1.5-1.4-1.8 0-0.2-0.5-0.7-1-1.1-0.5-0.5-1-1-1-1.2 0-0.1-0.5-0.9-1.1-1.6-2.1-2.4-2.5-2.9-3.1-4.1-0.3-0.7-0.8-1.2-0.9-1.2-0.2 0-0.7-0.7-1.1-1.6-0.5-0.9-0.9-1.6-1.1-1.6-0.1 0-0.6-0.7-1-1.5-0.4-0.8-1-1.8-1.4-2.2-0.4-0.4-0.7-1-0.7-1.3 0-0.3-0.2-0.6-0.4-0.6-0.2 0-0.7-0.6-1-1.3-0.9-2-2.6-4.9-3-5.1-0.1-0.1-0.6-1.1-1-2.1-0.4-1-0.9-1.9-1-1.9-0.2 0-0.6-0.6-0.9-1.4-0.2-0.8-0.6-1.4-0.7-1.4-0.2 0-0.6-0.9-1-1.9-0.4-1-0.8-2-1-2.1-0.1-0.1-0.5-1-0.8-2-0.3-0.9-0.8-1.9-1-2.2-0.2-0.2-0.8-1.5-1.2-2.8-0.4-1.3-0.9-2.5-1-2.6-0.2-0.1-0.5-0.9-0.8-1.8-0.3-0.9-0.6-1.7-0.8-1.8-0.1-0.1-0.6-1.4-1-2.9-0.4-1.5-0.8-2.7-1-2.7-0.2 0-0.8-2.1-1.4-5.1-0.2-0.7-0.4-1.3-0.6-1.3-0.1 0-0.6-1.7-1-3.8-0.4-2.1-0.9-3.8-1-3.8-0.2 0-0.5-1.6-0.8-3.5-0.3-1.9-0.6-3.6-0.8-3.7-0.2-0.1-0.6-2.7-1-5.8-0.4-3.1-0.8-6-1-6.4-1.5-3.3-1.5-43.9 0-45 0.1-0.1 0.6-2.9 1-6.2 0.4-3.3 0.8-6.1 1-6.2 0.1-0.1 0.5-1.7 0.8-3.5 0.3-1.8 0.6-3.3 0.8-3.3 0.2 0 0.4-0.8 0.6-1.7 0.4-2.8 1.2-5.9 1.4-5.9 0.2 0 0.6-1.4 1-3.2 0.4-1.8 0.9-3.2 1-3.2 0.2 0 0.6-1.3 1-2.8 0.4-1.5 0.8-2.8 1-2.8 0.2 0 0.5-0.9 0.8-2 0.3-1.1 0.6-2 0.7-2 0.2 0 0.6-1.1 1.1-2.4 0.4-1.3 0.9-2.4 1.1-2.4 0.1 0 0.3-0.2 0.3-0.4 0-0.3 0.7-2 1.6-3.9l1.7-3.4 1.6 0.2c2.1 0.3 2.4 0.1 3.1-1.7 0.3-0.8 0.7-1.6 1-1.8 0.2-0.2 0.7-1 1-1.8 0.3-0.8 0.7-1.6 1-1.8 0.2-0.2 0.6-0.9 0.9-1.5 0.3-0.6 0.7-1.1 0.9-1.1 0.2 0 0.5-0.5 0.6-1.1 0.1-0.7 0.6-1.5 0.9-1.9 0.4-0.5 1.1-1.4 1.5-2.2 0.4-0.8 1-1.5 1.3-1.7 0.3-0.2 0.5-0.6 0.5-0.8 0-0.5 2.7-4.3 4.4-6.2 0.3-0.4 0.9-1.2 1.4-1.9 0.4-0.7 1.6-2.2 2.6-3.4 1-1.2 2-2.4 2.3-2.8 0.3-0.3 1.3-1.5 2.3-2.5 1-1.1 1.8-2 1.8-2.2 0-0.3 10.6-10.9 10.9-10.9 0.2 0 1.2-0.9 2.3-1.9 3.2-3.1 5.3-4.9 5.5-4.9 0.2 0 2.2-1.6 4-3.2 0.4-0.5 1-0.8 1.2-0.8 0.2 0 0.7-0.3 1.1-0.7 0.5-0.4 1.4-1.1 2-1.5 1.2-0.8 1.8-1.2 3.5-2.7 0.4-0.4 1.4-0.9 2.2-1.2 0.7-0.2 1.3-0.6 1.3-0.8 0-0.1 0.6-0.6 1.3-0.9 0.7-0.4 1.4-0.8 1.5-1 0.1-0.1 1-0.6 1.9-1 0.9-0.4 1.7-0.9 1.7-1 0-0.2 0.7-0.7 1.5-1.1 0.8-0.4 2.1-1.1 2.9-1.5 0.8-0.4 1.5-0.9 1.6-1 0.1-0.2 1.1-0.6 2.1-1 1-0.4 1.9-0.8 1.9-1 0-0.1 1-0.6 2.2-1 1.2-0.4 2.2-0.9 2.2-1.1 0-0.1 0.2-0.3 0.5-0.3 0.3 0 1.4-0.4 2.3-0.9 1-0.5 2.7-1.2 3.7-1.5 1-0.3 1.9-0.7 1.9-0.8 0-0.2 1.2-0.6 2.6-1 1.4-0.5 2.6-0.9 2.6-1 0-0.2 1.3-0.6 3-1 1.7-0.4 3-0.9 3-1 0-0.2 0.7-0.4 1.5-0.6 0.8-0.1 2-0.5 2.7-0.8 0.7-0.3 2.6-0.8 4.4-1.2 1.8-0.4 3.3-0.9 3.4-1 0.1-0.1 2.4-0.6 5-1 2.6-0.4 4.9-0.9 5-1 0.1-0.2 2.4-0.5 5-0.8 2.6-0.3 5.2-0.6 5.6-0.8 0.4-0.2 3.7-0.6 7.2-0.7 11.9-0.7 31.1-0.3 33.2 0.7zm140.3 250.4c1.1 0 5.9 1.3 5.9 1.6 0 0.2 1 0.6 2.2 1 1.2 0.4 2.2 0.8 2.2 1 0 0.1 0.9 0.5 1.9 0.8 1 0.3 2.3 0.7 2.7 1 0.4 0.3 1.5 0.7 2.3 1 0.8 0.2 1.5 0.6 1.5 0.8 0 0.2 0.6 0.4 1.4 0.6 1.5 0.2 1.9 2.2 0.7 3-0.2 0.1-0.6 0.8-0.9 1.6-0.3 0.8-0.7 1.5-0.8 1.6-0.1 0.1-0.6 1-1 1.9-0.4 0.9-0.9 1.7-1 1.7-0.2 0-0.6 0.9-1 1.9-0.4 1-0.9 2-1.2 2.2-0.2 0.1-0.7 1-1 1.9-0.3 0.9-0.7 1.6-0.9 1.6-0.2 0-0.5 0.5-0.7 1.2-0.3 0.6-0.7 1.2-1 1.3-0.3 0.2-0.6 0.8-0.8 1.5-0.1 0.6-0.5 1.3-0.8 1.5-0.3 0.2-0.8 0.9-1.2 1.6-0.3 0.7-0.8 1.3-0.9 1.3-0.2 0-0.6 0.7-1 1.6-0.4 0.9-0.9 1.6-1.1 1.6-0.2 0-0.4 0.2-0.4 0.5 0 0.3-0.5 1.1-1.2 1.9-0.7 0.8-1.3 1.7-1.4 2.1-0.2 0.4-0.4 0.7-0.6 0.7-0.2 0-0.6 0.4-0.8 0.9-0.4 1-1.9 3-3.9 5-0.7 0.8-1.3 1.5-1.3 1.7 0 0.2-0.5 0.9-3.3 4.2-0.6 0.7-2.3 2.5-3.9 4.2-1.5 1.6-2.8 3-2.8 3.2 0 0.4-7.7 8-8 8-0.2 0-1.6 1.3-3.3 2.8-1.6 1.6-3.4 3.3-4.1 3.8-3.1 2.7-4 3.4-4.4 3.4-0.2 0-0.8 0.5-1.2 1.2-0.4 0.6-1.1 1.2-1.4 1.4-0.7 0.2-1.8 0.9-2.8 1.8-0.4 0.3-1.2 0.9-1.7 1.3-0.5 0.4-1.7 1.3-2.7 2.1-1 0.8-2 1.4-2.3 1.4-0.3 0-0.5 0.2-0.5 0.4 0 0.2-0.7 0.7-1.5 1.1-0.8 0.3-1.6 0.9-1.8 1.1-0.1 0.3-0.8 0.7-1.5 1-0.7 0.3-1.2 0.6-1.2 0.8 0 0.1-0.6 0.5-1.4 0.8-0.7 0.3-1.5 0.8-1.6 1-0.1 0.3-0.8 0.7-1.6 1-0.8 0.3-1.4 0.6-1.4 0.8 0 0.2-0.8 0.6-1.8 1-1 0.4-1.8 0.8-1.8 1 0 0.2-0.8 0.6-1.8 1-1 0.4-1.8 0.8-1.8 1 0 0.1-0.7 0.5-1.6 0.8-0.9 0.3-1.6 0.7-1.6 0.8 0 0.2-0.9 0.6-2 1-1.1 0.4-2 0.9-2 1 0 0.2-0.9 0.6-2 1-1.1 0.4-2 0.8-2 0.9 0 0.2-1.2 0.7-2.6 1.1-1.4 0.4-2.6 0.9-2.6 1.1 0 0.2-0.8 0.5-1.8 0.7-1 0.3-1.8 0.6-1.8 0.8 0 0.2-1.2 0.6-2.7 1-1.5 0.4-2.9 1-3.2 1.2-0.2 0.3-1.1 0.6-2 0.8-0.8 0.1-2.2 0.6-3.1 1-0.9 0.4-2.7 0.9-4.1 1.2-1.4 0.3-2.5 0.6-2.5 0.8 0 0.1-1.3 0.5-2.8 0.8-1.5 0.3-2.8 0.6-2.8 0.8 0 0.1-1.8 0.6-4.1 1-2.3 0.4-4.2 0.9-4.3 1-0.2 0.3-8.5 1.6-9.9 1.6-0.4 0-0.9 0.2-1 0.4-0.1 0.3-11.6 1.6-15 1.6-1.2 0-2.1 0.2-2.1 0.4 0 0.3-5 0.4-14.2 0.4-9.2 0-14.2-0.1-14.2-0.4 0-0.2-0.9-0.4-1.9-0.4-3.2 0-15.1-1.3-15.2-1.7-0.1-0.1-0.6-0.3-1-0.3-1.5 0-9.7-1.3-9.9-1.6-0.1-0.2-2-0.6-4.3-1-2.3-0.4-4.1-0.9-4.1-1 0-0.2-1.2-0.5-2.7-0.8-1.5-0.3-2.8-0.6-2.9-0.8-0.1-0.2-1.5-0.6-3.2-1-3.9-1-4.1-1.2-3.5-3.8 0.2-1.1 0.6-2 0.7-2 0.2 0 0.5-0.7 0.6-1.6 0.2-0.9 0.5-1.9 0.8-2.2 0.3-0.3 0.6-0.7 0.6-0.9 0-0.6 1.3-4.7 1.6-4.9 0.3-0.3 1.6-4.3 1.6-5 0-0.4 0.2-0.6 0.4-0.6 0.2 0 0.4-0.2 0.4-0.5 0-1.4 0.6-1.6 3.1-1 1.4 0.2 2.5 0.6 2.5 0.8 0 0.1 1 0.5 2.3 0.7 1.3 0.3 2.4 0.6 2.5 0.8 0.1 0.2 2.1 0.6 4.4 1 2.3 0.4 4.3 0.8 4.4 1 0.2 0.3 8.7 1.6 10.5 1.6 0.6 0 1.1 0.2 1.2 0.4 0.6 1.7 48.2 1.8 49.5 0 0.1-0.1 2.6-0.6 5.6-1 3-0.4 5.5-0.8 5.6-1 0.1-0.2 2.1-0.6 4.4-1 2.3-0.4 4.3-0.9 4.4-1.1 0.1-0.1 1.2-0.5 2.4-0.7 1.2-0.2 2.3-0.6 2.4-0.7 0.1-0.2 1.7-0.7 3.5-1.1 1.8-0.4 3.3-0.8 3.3-1 0-0.1 1.3-0.6 2.8-1 1.5-0.4 2.8-0.8 2.8-1 0-0.1 1.1-0.5 2.4-0.9 1.3-0.4 2.4-0.9 2.4-1.1 0-0.2 0.6-0.4 1.4-0.6 0.7-0.1 1.6-0.4 1.9-0.7 0.3-0.3 1.5-0.8 2.8-1.3 1.3-0.4 2.3-0.9 2.3-1 0-0.2 0.9-0.6 2-1 1.1-0.4 2-0.9 2-1 0-0.2 0.9-0.6 2-1 1.1-0.4 2-0.9 2-1 0-0.2 0.7-0.6 1.5-0.8 0.8-0.3 1.6-0.7 1.8-1 0.2-0.3 0.9-0.7 1.7-1 0.8-0.3 1.4-0.6 1.4-0.8 0-0.2 0.7-0.6 1.6-1 0.9-0.3 1.6-0.8 1.6-1 0-0.2 0.2-0.4 0.4-0.4 0.3 0 1.2-0.5 2.2-1.2 1-0.7 1.9-1.2 2.2-1.2 0.2 0 0.5-0.2 0.7-0.5 0.2-0.3 1-0.9 1.8-1.3 0.8-0.4 1.5-0.9 1.5-1.1 0-0.1 0.6-0.6 1.2-0.9 0.7-0.4 1.6-0.9 2-1.3 1.1-1.1 1.7-1.5 3-2.3 0.7-0.4 1.4-1.1 1.7-1.5 0.3-0.4 0.7-0.7 1-0.7 0.2 0 0.9-0.5 1.5-1.1 0.6-0.6 1.9-1.8 2.9-2.6 0.9-0.8 2.6-2.3 3.8-3.4 1.1-1 2.5-2.3 3-2.8 0.5-0.4 1.7-1.7 2.7-2.8 1.1-1 2.8-2.7 3.8-3.7 1.1-1.1 2.5-2.6 3.2-3.4 0.7-0.8 1.7-2 2.4-2.8 0.7-0.7 1.9-2 2.7-2.9 0.8-0.9 1.5-1.9 1.5-2.1 0-0.2 0.4-0.6 0.8-0.9 0.4-0.3 0.8-0.7 0.8-0.9 0-0.2 0.6-1.1 1.4-2 0.8-0.9 1.4-1.7 1.4-1.9 0-0.2 0.4-0.7 0.8-1.2 1.4-1.6 1.8-2.1 2.4-3.3 0.3-0.7 0.8-1.5 1.1-1.8 1-1.2 3.3-4.8 3.3-5.2 0-0.2 0.2-0.4 0.4-0.4 0.3 0 1.2-1.5 2.8-4.7 0.4-0.9 0.9-1.7 1.1-1.7 0.2 0 0.6-0.7 0.9-1.5 0.2-0.8 0.9-2.2 1.4-3 0.6-0.8 1-1.7 1-1.9 0-0.2 0.2-0.4 0.4-0.4 0.2 0 0.5-0.6 0.8-1.4 0.3-1 0.7-1.4 1.3-1.4zm-159.7 30.5c1.9 0 2.6 0.1 1.7 0.2-0.9 0.1-2.5 0.1-3.4 0-0.9-0.1-0.2-0.2 1.7-0.2z"/>
	</g>
</svg>