<svg version="1.2" xmlns="http://www.w3.org/2000/svg" viewBox="0 0 812 814" width="100" height="100"><style>.a{fill:#26e11c}</style><path class="a" d="m379.5 149.5v224.3c-14 5.7-23.7 19-23.7 34.6 0 20.7 17.3 37.5 38.8 37.5 13.3 0 25-6.4 32-16.2h151.5v-42.6h-151.5c-4.6-6.5-11.3-11.4-19-14.1v-223.5z"/><path class="a" d="m781 400.5c0-207.6-168.5-376.5-375.6-376.5-96.3 0-184.3 36.6-250.9 96.5l43.3 48.3c55.1-49.6 127.9-79.9 207.6-79.9 171.4 0 310.9 139.8 310.9 311.6 0 114.7-62.2 215.1-154.6 269.2l-22.5-42-73.4 112.5 153.3 36.8-26.8-50.1c112.7-65.1 188.7-187 188.7-326.4z"/><path class="a" d="m180 701.5c27.4 20.7 57.7 37.6 90.2 50.2l24.3-60.1c-27.7-10.7-53.4-25.1-76.6-42.7z"/><path class="a" d="m94.5 400.5q0-5.4 0.2-10.7l-64.7-2.5q-0.2 6.6-0.2 13.2c0 35.5 4.9 69.9 14.1 102.5l59.5-28.6c-5.8-23.7-8.9-48.5-8.9-73.9z"/><path class="a" d="m62.9 555.1c14.5 32.1 33.3 61.7 55.7 88.2l48.8-42.6c-20.8-24.8-37.8-52.9-50.2-83.4z"/><path class="a" d="m151.7 220.6l-52.9-37.4c-28.5 40.3-49.3 86.4-60.3 136.3l62.7 16.8c8.9-42.3 26.3-81.5 50.5-115.7z"/><path class="a" d="m405.4 712.1c-18.2 0-36.1-1.6-53.5-4.7l-12 63.9c21.3 3.7 43.2 5.7 65.5 5.7 11.1 0 22.1-0.5 32.9-1.5l-20.3-63.7q-6.3 0.3-12.6 0.3z"/></svg>