<svg version="1.2" xmlns="http://www.w3.org/2000/svg" viewBox="0 0 512 512" width="100" height="100">
	<title>programming-language-cobol-svg</title>
	<style>
		.s0 { fill: #1e97cf } 
	</style>
	<path id="Layer" fill-rule="evenodd" class="s0" d="m511.5 202.4c-0.4 15-13.9 26.4-13.9 26.4 0 0-6.8-18.2-20.5-22.8-18.5-6.1-29.9 0.5-29.9 0.5 0 0 12.3 15.8 23.3 21.9 9 4.9 17.2 0.4 17.2 0.4 0 0 1 19.2-26.4 21.8-21.5 2.1-70.4-12.8-85.3-10.4-9.9 1.6-13 8.4-13 8.4 0 0 6.2 18.9 4.8 42.8-1.3 21.1-10.3 45.8-9 67.8 1.8 30 14.1 51.2 14.1 51.2l-0.9 5.8c0 0-4.6 2-10.4 1.2-6.1-0.8-13.5-4.5-13.5-4.5l-9.1 10.7c0 0 2.6 6.4 7.7 11.3 3.9 3.9 10.3 5.6 12.5 9.9 3.1 6.1-2.8 12.7-2.8 12.7 0 0-4.5-1.2-10 2.4-3 1.9-2.8 7.2-5.4 9.8-3 3.1-8.6 3.5-8.6 3.5 0 0-8.6-4.5-16.5-4-8.6 0.7-16.5 6.4-16.5 6.4 0 0-4.7-5.2-11.2-8.1-4.2-1.9-11.1-1.8-11.1-1.8 0 0-3.4-6.1-1.8-13.1 1.5-6.5 8-13.5 8-20.9 0-10.6-6.2-19.6-6.2-19.6 0 0-5.3-5.6-12.5-9.7-4.6-2.6-10.2-2.3-14.7-7.2-6.4-6.9-7.7-16.9-11.2-24.1-3-6.2-8.7-10.2-8.7-10.2 0 0-2-4.9-2.4-11.5-0.4-7.8 0.8-17.4 0.8-17.4 0 0-7.5 0.6-15.1-4.4-6.4-4.2-12.5-13.9-19.1-16.5-7.9-3.1-14.6 1.9-14.6 1.9 0 0 2.8 14-2.3 26.8-7 17.1-22.4 34.3-22.4 34.3l0.8 23.9 17.3 15.7c0 0 0 5.5-3.6 7.7-3.9 2.4-11.2 1.4-11.2 1.4 0 0-4.5 7.2-11 8.6-6.3 1.4-14.6-2.8-14.6-2.8 0 0-7.3 3.8-12.8 2.2-4.3-1.2-7-8-7-8 0 0-6.4-1.3-7.7-6.3-1.2-4.9 2.7-13.5 2.7-13.5 0 0 2.4-4.1 2.6-9.1 0.2-7.6-1.8-17.3-1.8-17.3l-3.3-7.5 6.6-8.2 3.3-15.7c0 0-64.6 31.9-101.4-34.8-36.3-66 13.1-97.3 13.1-97.3 0 0-22.7 48.6 14.9 80.3 33 27.9 62.7-2.7 62.7-2.7 0 0-11.3-49.2 9.6-80.1 26.5-39.1 68.9-43 68.9-43 0 0 7.2-3.9 14.9-11.4 8-7.7 16.6-19.2 25.2-26.7 11.3-9.9 18.5-13 18.5-13l-14.1-14.1c0 0 15.6-5.1 21.5-12.9 5.7-7.5 1.7-17.6 1.7-17.6 0 0 14 0.1 23-2.6 8.8-2.7 12.5-8.2 12.5-8.2 0 0 11 1.5 19.8-0.6 10.1-2.5 18.2-8.5 18.2-8.5 0 0 6.5 9.2 13.4 11.9 5.8 2.2 12.2-1.9 12.2-1.9 0 0 3.9 12.3 9.4 18.5 3.5 3.9 9.5 2.9 9.5 2.9 0 0 12.1-7 19.6-18 8.5-12.5 12.7-29 12.7-29 0 0 5.3 18.7 1.6 35.1-3.3 15.3-15.7 28.4-15.7 28.4l4.1 6.6c0 0 12.2-14.3 26.9-24.5 22.1-15.5 49.9-29.1 49.9-29.1 0 0-1.1 10.6-9.6 21.8-6 7.8-14.6 14.8-21.6 22.1-9.5 9.7-16.7 18.8-16.7 18.8 0 0-1.3 15.9 10.7 20.8 16.9 7.1 48.8 4 48.8 4 0 0 10.4-4.9 16.6-12.3 8-9.7 13.1-24.9 13.1-24.9 0 0 2.2 20.1-0.3 36.6-2 13.3-9.6 20.4-9.6 20.4 0 0 12.7 24.1 12.3 42.2zm-198 163.7l-2.2-42.7-11.7 3.6 3.6 30.1z"/>
</svg>