<svg version="1.2" xmlns="http://www.w3.org/2000/svg" viewBox="0 0 40 26" width="100" height="65">
	<title>svgexport-1-svg</title>
	<style>
		.s0 { fill: #74b71b } 
	</style>
	<path id="Layer" fill-rule="evenodd" class="s0" d="m14.8 0h24.8v26h-24.8v-3.1c-10.8-1-14.7-12.1-14.7-12.1 0 0 6.8-6.6 14.7-7.3v1.9q0.4 0 0.7 0c6.5-0.2 10.7 5.5 10.7 5.5 0 0-4.6 6.3-9.5 6.3q-1 0-1.9-0.3v-7.1c2.5 0.3 3 1.4 4.6 3.9l3.3-2.8c0 0-2.4-3.2-6.6-3.2q-0.6 0-1.3 0.1v-2.4c-7.1 0.6-10.7 5.8-10.7 5.8 0 0 2.7 8.7 10.7 9.7v2q0.8 0.1 1.6 0.1c5.8 0 15.9-2.9 20.2-6.5-0.6-0.6-3.7-2.1-4.5-2.7-4.5 3.9-9.3 7.2-15.8 7.2q-0.8 0-1.5-0.1v-2.2q0.9 0.2 1.8 0.2c7 0 13.8-8.1 13.8-8.1 0 0-5.9-7.6-14.9-7.3q-0.3 0-0.7 0v-3.5zm0 7.8q0 0 0 0zm0 9.1q0 0 0 0zm0 1.8c-6-1-7.7-7.2-7.7-7.2 0 0 2.9-3.2 7.7-3.7v2q0 0 0 0c-2.5-0.3-4.5 2-4.5 2 0 0 1.1 4 4.5 5.1z"/>
</svg>