<svg version="1.2" xmlns="http://www.w3.org/2000/svg" viewBox="0 0 124 94" width="100" height="76">
	<title>D_Programming_Language_logo-svg</title>
	<defs>
		<linearGradient id="g1" x2="1" gradientUnits="userSpaceOnUse" gradientTransform="matrix(25.442,19.703,-18.905,24.411,5.846,5.447)">
			<stop offset="0" stop-color="#f2f2f0" stop-opacity=".14"/>
			<stop offset="1" stop-color="#eeeeec" stop-opacity=".4"/>
		</linearGradient>
		<linearGradient id="g2" x2="1" gradientUnits="userSpaceOnUse" gradientTransform="matrix(117.002,87.106,-83.167,111.711,1.931,1.824)">
			<stop offset="0" stop-color="#ffffff" stop-opacity="1"/>
			<stop offset="1" stop-color="#ffffff" stop-opacity=".33"/>
		</linearGradient>
		<linearGradient id="g3" x2="1" gradientUnits="userSpaceOnUse" gradientTransform="matrix(25.442,-19.703,19.75,25.503,5.846,85.015)">
			<stop offset="0" stop-color="#f2f2f0" stop-opacity=".14"/>
			<stop offset="1" stop-color="#eeeeec" stop-opacity=".4"/>
		</linearGradient>
	</defs>
	<style>
		.s0 { opacity: .3;fill: #2e3436 } 
		.s1 { fill: #a40000 } 
		.s2 { fill: url(#g1) } 
		.s3 { fill: #eeeeec } 
		.s4 { fill: none;stroke: url(#g2);stroke-linecap: round;stroke-linejoin: round;stroke-width: 2 } 
		.s5 { fill: none;stroke: #323232;stroke-linecap: round;stroke-linejoin: round;stroke-width: 2 } 
		.s6 { fill: url(#g3) } 
	</style>
	<g id="layer1">
		<g id="g2225">
			<path id="rect3466" class="s0" d="m5 16.3c0-6.2 5.1-11.3 11.3-11.3h96.2c6.3 0 11.4 5.1 11.4 11.3v66.1c0 6.3-5.1 11.4-11.4 11.4h-96.2c-6.2 0-11.3-5.1-11.3-11.4z"/>
			<path id="rect3297" class="s1" d="m1 12.3c0-6.2 5.1-11.3 11.3-11.3h96.2c6.3 0 11.4 5.1 11.4 11.3v66.1c0 6.3-5.1 11.4-11.4 11.4h-96.2c-6.2 0-11.3-5.1-11.3-11.4z"/>
			<path id="rect3408" class="s2" d="m5.8 13.1c0-4.2 3.5-7.7 7.7-7.7h93.8c4.3 0 7.7 3.5 7.7 7.7v64.5c0 4.3-3.4 7.7-7.7 7.7h-93.8c-4.2 0-7.7-3.4-7.7-7.7z"/>
			<path id="path2242" fill-rule="evenodd" class="s3" d="m14.7 13.4h24.3c10.1 0 18.2 1.2 24.4 3.8 6.1 2.6 11.1 6.4 14.7 11.5 3.7 5 5.5 10.6 5.5 16.6 0 4.3-1 8.5-3 12.4-2 3.9-4.9 7.4-8.6 10.4q-5.6 4.5-13 6.8c-2.9 1-5.5 1.6-8 1.9q0 0 0 0c-2.6 0.4-6.9 0.5-13.4 0.5l-22.6 0.1h-0.2q-0.2 0-0.5-0.1-0.1 0-0.2 0-0.1 0-0.2-0.1 0 0-0.1 0 0 0-0.1-0.1-0.1 0-0.1 0-0.2-0.1-0.4-0.2 0 0 0 0-0.1-0.1-0.1-0.2 0 0-0.1 0 0-0.1-0.1-0.1 0 0 0-0.1-0.1 0-0.2-0.1 0 0 0 0 0-0.1-0.1-0.2 0 0 0 0-0.1-0.1-0.1-0.2 0 0 0 0-0.1-0.1-0.1-0.2 0 0 0-0.1 0-0.1-0.1-0.1 0-0.1 0-0.1 0-0.1 0-0.1 0-0.1 0-0.1 0-0.2 0-0.4 0-0.1 0-0.3l-0.1-58.9c0-1.2 1-2.1 2.1-2.3q0.2 0 0.4 0zm12.8 51.8h10.8c5.1-0.1 9-0.3 11.6-0.9 2.7-0.5 4.9-1.2 6.5-2q2.7-1.2 4.8-3c4.6-3.8 6.8-8.5 6.8-14.4 0-5.8-2.3-10.2-7-13.8q0-0.1 0-0.1c-1.8-1.3-3.8-2.4-6.1-3.3q-3.5-1.3-6.5-1.8c-2-0.2-5.5-0.4-10.4-0.4h-10.5z"/>
			<path id="path2211" class="s3" d="m101.4 34c0 4.2-1.8 8.2-5 11.2-3.2 2.9-7.6 4.6-12.2 4.6-4.5 0-8.9-1.7-12.1-4.6-3.2-3-5-7-5-11.2 0-4.1 1.8-8.1 5-11.1 3.2-2.9 7.6-4.6 12.1-4.6 4.6 0 9 1.7 12.2 4.6 3.2 3 5 7 5 11.1z"/>
			<path id="rect3372" class="s4" d="m2.9 12.5c0-5.4 4.3-9.7 9.7-9.7h95.7c5.3 0 9.7 4.3 9.7 9.7v65.8c0 5.3-4.4 9.7-9.7 9.7h-95.7c-5.4 0-9.7-4.4-9.7-9.7z"/>
			<path id="rect3464" class="s5" d="m1 12.3c0-6.2 5.1-11.3 11.3-11.3h96.2c6.3 0 11.4 5.1 11.4 11.3v66.1c0 6.3-5.1 11.4-11.4 11.4h-96.2c-6.2 0-11.3-5.1-11.3-11.4z"/>
			<path id="rect3477" class="s6" d="m13.5 85h93.8c4.3 0 7.7-3.7 7.7-8.3v-13.3c-33.5-12.8-82-19.7-109.2-20v33.3c0 4.6 3.5 8.3 7.7 8.3z"/>
			<path id="path2222" class="s3" d="m109.3 16.7c0 1.4-0.6 2.7-1.6 3.6-1 1-2.4 1.5-3.9 1.5-1.5 0-2.9-0.5-3.9-1.5-1-0.9-1.6-2.2-1.6-3.6 0-1.3 0.6-2.6 1.6-3.5 1-1 2.4-1.5 3.9-1.5 1.5 0 2.9 0.5 3.9 1.5 1 0.9 1.6 2.2 1.6 3.5z"/>
		</g>
	</g>
</svg>