<svg version="1.2" xmlns="http://www.w3.org/2000/svg" viewBox="0 0 332 331" width="100" height="100">
	<title>stata-fb-removebg-preview</title>
	<style>
		.s0 { fill: none;stroke: #48ff00;stroke-miterlimit:100;stroke-width: 5 } 
		.s1 { fill: #47ff00 } 
	</style>
	<path id="Shape 1" class="s0" d="m166 322c-87.4 0-158-70.6-158-158 0-87.4 70.6-158 158-158 87.4 0 158 70.6 158 158 0 87.4-70.6 158-158 158z"/>
	<path id="Layer 1" class="s0" d="m76.1 122.7c-1.4-4.7 1.3-9.7 6.1-11.2l126.8-37.4c4.8-1.4 9.8 1.3 11.2 6.1l37.5 126.8c1.4 4.8-1.4 9.8-6.1 11.2l-126.9 37.5c-4.7 1.4-9.7-1.4-11.2-6.1z"/>
	<g id="Folder 2">
		<path id="Layer 2" class="s1" d="m170.5 106.5c-0.2-0.6 0.1-1.1 0.6-1.3l29.1-9c0.5-0.1 1.1 0.2 1.2 0.7l9 29c0.2 0.6-0.1 1.1-0.6 1.3l-29.1 9c-0.5 0.1-1.1-0.1-1.2-0.7z"/>
		<path id="Layer 2 copy" class="s1" d="m134.3 117.7c-0.1-0.6 0.2-1.1 0.7-1.3l29.1-9c0.5-0.2 1.1 0.1 1.2 0.7l9 29c0.2 0.5-0.1 1.1-0.6 1.3l-29.1 9c-0.5 0.1-1.1-0.2-1.3-0.7z"/>
		<g id="Folder 1">
			<path id="Layer 2 copy 2" class="s1" d="m181.7 142.6c-0.2-0.5 0.1-1.1 0.6-1.3l29.1-9c0.5-0.1 1.1 0.2 1.2 0.7l9 29.1c0.2 0.5-0.1 1.1-0.6 1.2l-29.1 9c-0.5 0.2-1.1-0.1-1.2-0.6z"/>
			<path id="Layer 2 copy 3" class="s1" d="m145.5 153.8c-0.1-0.5 0.2-1.1 0.7-1.3l29-9c0.6-0.1 1.1 0.2 1.3 0.7l9 29c0.2 0.6-0.1 1.1-0.7 1.3l-29 9c-0.5 0.2-1.1-0.1-1.3-0.7z"/>
		</g>
	</g>
	<g id="Folder 2 copy">
		<path id="Layer 2" class="s1" d="m145.5 153.8c-0.1-0.5 0.2-1.1 0.7-1.3l29-9c0.6-0.1 1.1 0.2 1.3 0.7l9 29c0.2 0.6-0.1 1.1-0.7 1.3l-29 9c-0.5 0.2-1.1-0.1-1.3-0.7z"/>
		<path id="Layer 2 copy" class="s1" d="m109.4 165c-0.2-0.6 0.1-1.1 0.7-1.3l29-9c0.5-0.1 1.1 0.1 1.3 0.7l9 29c0.1 0.6-0.2 1.1-0.7 1.3l-29 9c-0.6 0.1-1.1-0.2-1.3-0.7z"/>
		<g id="Folder 1">
			<path id="Layer 2 copy 2" class="s1" d="m156.7 189.9c-0.1-0.5 0.1-1.1 0.7-1.2l29-9c0.6-0.2 1.1 0.1 1.3 0.6l9 29.1c0.1 0.5-0.2 1.1-0.7 1.2l-29 9c-0.6 0.2-1.1-0.1-1.3-0.6z"/>
			<path id="Layer 2 copy 3" class="s1" d="m120.6 201.1c-0.2-0.5 0.1-1.1 0.6-1.3l29.1-9c0.5-0.1 1.1 0.2 1.3 0.7l9 29.1c0.1 0.5-0.2 1-0.7 1.2l-29.1 9c-0.5 0.2-1.1-0.1-1.2-0.7z"/>
		</g>
	</g>
</svg>