<svg version="1.2" xmlns="http://www.w3.org/2000/svg" viewBox="0 0 378 378" width="378" height="378">
	<title>e-svg</title>
	<defs>
		<clipPath clipPathUnits="userSpaceOnUse" id="cp1">
			<path d="m0 0h378v378h-378z"/>
		</clipPath>
	</defs>
	<style>
		.s0 { fill: #00ccff } 
		.s1 { fill: #ff0000 } 
		.s2 { fill: #2300ff } 
		.s3 { fill: #00ff6c } 
	</style>
	<g id="Clip-Path" clip-path="url(#cp1)">
		<g id="Layer">
			<path id="Layer" fill-rule="evenodd" class="s0" d="m333.9 89.5l16.7 66.3 27.3-86z"/>
			<path id="Layer" fill-rule="evenodd" class="s1" d="m283.9 12.8c-24.8 5.9-60 14.8-87 19.5l21.8 26.5z"/>
			<path id="Layer" fill-rule="evenodd" class="s1" d="m216.9 242.9l83 51.9-20.8-82z"/>
			<path id="Layer" fill-rule="evenodd" class="s2" d="m225.9 67.7l31.9 38.1 36.1-85z"/>
			<path id="Layer" fill-rule="evenodd" class="s3" d="m167.4 174.8l72.5-52-100 9.3z"/>
			<path id="Layer" fill-rule="evenodd" class="s1" d="m242.5 334.8l57.4-28.7-84-52.3z"/>
			<path id="Layer" fill-rule="evenodd" class="s0" d="m158.9 181.2l-27.9-43.4-63.1 108z"/>
			<path id="Layer" fill-rule="evenodd" class="s2" d="m275.9 202.8l-17.9-71-42.1 100z"/>
			<path id="Layer" fill-rule="evenodd" class="s3" d="m267.9 126.8l17.8 71 53.2-25.4z"/>
			<path id="Layer" fill-rule="evenodd" class="s2" d="m246.9 130.8l-74 52.3 31.2 47.7 1.1-2.3v0.6z"/>
			<path id="Layer" fill-rule="evenodd" class="s3" d="m341.9 162.8l-17.6-69-54.4 23.6z"/>
			<path id="Layer" fill-rule="evenodd" class="s3" d="m217.4 74.8l-67.5 46 99-9z"/>
			<path id="Layer" fill-rule="evenodd" class="s1" d="m164.1 189.8l-92.2 66 124-17.2z"/>
			<path id="Layer" fill-rule="evenodd" class="s0" d="m209.9 66.2l-22-26.4-41 70z"/>
			<path id="Layer" fill-rule="evenodd" class="s1" d="m332 78.8l44.9-20.2-61-42.8z"/>
			<path id="Layer" fill-rule="evenodd" class="s0" d="m308.9 289.8l34-107-55 25.9z"/>
			<path id="Layer" fill-rule="evenodd" class="s2" d="m268.9 105.8l52-23-15.6-63z"/>
			<path id="Layer" fill-rule="evenodd" class="s0" d="m251.6 363.8h35.4l13.9-47-55 28.8z"/>
			<path id="Layer" fill-rule="evenodd" class="s3" d="m116.9 363.8l-22.8-32-43.2 32z"/>
			<path id="Layer" fill-rule="evenodd" class="s1" d="m96.3 316.8l90.6-67-126 17.4z"/>
			<path id="Layer" fill-rule="evenodd" class="s3" d="m240.9 363.8l-4.7-14-26.4 14z"/>
			<path id="Layer" fill-rule="evenodd" class="s0" d="m-0.1 363.8h33.5l54.5-40.5-35.4-50.5z"/>
			<path id="Layer" fill-rule="evenodd" class="s2" d="m129.3 363.8h19.1l45.5-107-91 68.7z"/>
			<path id="Layer" fill-rule="evenodd" class="s2" d="m161.9 363.8h25.1l45.9-23.7-27.5-83.3z"/>
		</g>
	</g>
</svg>