<svg version="1.2" xmlns="http://www.w3.org/2000/svg" viewBox="0 0 2552 2551" width="100" height="100">
	<title>Fortran_logo-svg</title>
	<style>
		.s0 { fill: #734f96 } 
		.s1 { fill: #ffffff } 
	</style>
	<g id="layer101">
		<path id="path2" class="s0" d="m375.1 2550.3c-150.7 0.1-374.1-263.2-374.1-376.5v-1802c0-152.6 264-371.8 377.9-371.8l1805.4 0.1c155.7 0 367.1 254.1 367.1 375.2v1803.8c0 177.7-238 370.5-372.3 370.6z"/>
	</g>
	<g id="layer102">
		<path id="path5" class="s1" d="m351.1 2054.1l98-6c199-13 197-12 207-168 9-148-2.3-1306.8-9-1330-10.9-38.3-52.1-60.3-175-60.3l-121-0.7v-217h1860v831l-219-3.3c-2-2-8-60.7-12-114.7-23-254-80-400.1-190-457.1-58-30-148.5-38.9-438.6-39l-270.4 0.1v623h48c81-1 184-20 218-41 44-27 81-105 94-199 9.8-68.6 17.4-119.9 17.4-119.9l212.6-0.1v990h-220v-39c0-64-30-213-51-258-33-69-89-93-248-108l-73-7 4 321c3 305 5 322 24 348 24 32 50 38 209 50l106.8 5.1-0.8 217.9h-1071z"/>
	</g>
</svg>