<svg version="1.2" xmlns="http://www.w3.org/2000/svg" viewBox="0 0 540 575" width="100" height="106">
	<title>fan fwt pod-svg</title>
	<defs>
		<linearGradient id="g1" x2="1" gradientUnits="userSpaceOnUse" gradientTransform="matrix(-105,-189,182.344,-101.302,320,244)">
			<stop offset="0" stop-color="#d1d2d4" stop-opacity="1"/>
			<stop offset="1" stop-color="#d1d2d4" stop-opacity="0"/>
		</linearGradient>
	</defs>
	<style>
		.s0 { fill: #ffffff;stroke: #000000 } 
		.s1 { fill: url(#g1) } 
		.s2 { fill: #ffffff } 
		.s3 { fill: #0044aa;stroke: #002255;stroke-linecap: round;stroke-linejoin: round;stroke-width: 7 } 
		.s4 { fill: none;stroke: #000000;stroke-linecap: round;stroke-linejoin: round;stroke-width: 8 } 
		.s5 { fill: none;stroke: #000000;stroke-linecap: round;stroke-linejoin: round;stroke-width: 6 } 
	</style>
	<path id="Layer" class="s0" d="m278 12q-8.6 0.6-17.1 1.9-8.5 1.2-17 3.1-8.4 1.9-16.6 4.4-8.3 2.5-16.3 5.6-10.8 4.9-20.9 11.1-10.1 6.3-19.2 13.9-9.2 7.6-17.2 16.4-8 8.8-14.7 18.6-1.8 2.6-3.5 5.3-1.8 2.7-3.4 5.5-1.6 2.7-3.1 5.5-1.6 2.8-3 5.7l-2 4h-3q-4.9 0.1-9.9-0.4-4.9-0.5-9.7-1.7-4.8-1.1-9.4-2.9-4.6-1.7-9-4l-6-2-13-8-3-1q-2.3-1.2-4.6-2.2-2.3-1-4.7-1.9-2.4-0.9-4.8-1.6-2.4-0.7-4.9-1.3-0.5-0.2-1-0.3-0.5-0.1-1-0.3-0.5-0.1-1-0.2-0.5-0.1-1-0.2-1.8-0.1-3.6 0-1.7 0.1-3.5 0.4-1.8 0.2-3.5 0.6-1.7 0.4-3.4 1l-3 2-1 1q-0.6 0.3-1.3 0.7-0.6 0.3-1.3 0.7-0.6 0.4-1.2 0.8-0.6 0.4-1.2 0.8l-1 1-5 6q-1.1 1.4-2 3-0.9 1.5-1.7 3.2-0.7 1.6-1.3 3.3-0.6 1.7-1 3.5v11l1 3 1 4 6 7q0.5 0.2 0.9 0.4 0.5 0.2 1 0.3 0.5 0.2 1.1 0.2 0.5 0.1 1 0.1h1c5-1 8-3 10-5l2-3 2-5q0.2-0.4 0.4-0.8 0.3-0.4 0.5-0.8 0.3-0.3 0.5-0.7 0.3-0.4 0.6-0.7 0.2-0.2 0.5-0.3 0.2-0.2 0.5-0.3 0.2-0.1 0.5-0.2 0.2-0.1 0.5-0.2h2l6 1q2 0.7 3.9 1.6 1.9 0.9 3.7 2 1.7 1.2 3.3 2.5 1.7 1.4 3.1 2.9l4 4 1 2q0.5 0.8 1.1 1.7 0.5 0.9 1 1.7 0.5 0.9 1 1.8 0.5 0.9 0.9 1.8l9 17q1.3 2.4 2.6 4.8 1.3 2.5 2.7 4.8 1.4 2.4 2.8 4.7 1.4 2.4 2.9 4.7l10 10 2 2q0.7 0.5 1.5 1.1 0.7 0.5 1.4 1 0.8 0.5 1.6 1 0.7 0.4 1.5 0.9l2 1c6 3 13 6 22 7h8q1.8-0.2 3.6-0.6 1.8-0.4 3.6-0.9 1.7-0.5 3.4-1.1 1.7-0.6 3.4-1.4 2-0.9 4-2.1 1.9-1.2 3.6-2.6 1.8-1.4 3.4-3 1.6-1.5 3-3.3l4-5 1-2q0.3 1.5 0.6 3 0.3 1.6 0.7 3.1 0.3 1.5 0.8 2.9 0.4 1.5 0.9 3l5 12 2 4 2 4q-6.2 1.3-12.4 2.2-6.2 0.8-12.5 1.3-6.2 0.5-12.5 0.7-6.3 0.1-12.6-0.2-2.8 0-5.5-0.1-2.8-0.1-5.5-0.2-2.8-0.1-5.5-0.3-2.8-0.2-5.5-0.4h-6q-2.3-0.5-4.5-1-2.3-0.4-4.5-0.9-2.3-0.5-4.5-1.1-2.3-0.5-4.5-1l-1-1h-3q-0.5-0.1-1-0.1-0.5-0.1-1-0.1-0.5 0-1 0.1-0.5 0-1 0.1-0.4 0.2-0.8 0.4-0.4 0.2-0.8 0.4-0.4 0.3-0.7 0.6-0.4 0.3-0.7 0.6l-2 2-1 2q-0.2 0.7-0.4 1.5-0.2 0.7-0.3 1.5-0.1 0.7-0.2 1.5-0.1 0.7-0.1 1.5-0.1 1.1-0.2 2.2 0 1.2 0 2.3 0 1.1 0 2.3 0.1 1.1 0.2 2.2v2q0.9 2.1 1.8 4.1 0.9 2 1.9 4 1 2 2.1 4 1.1 2 2.2 3.9 2.9 5 6.5 9.5 3.6 4.4 7.8 8.4 4.2 3.9 8.9 7.2 4.7 3.3 9.8 5.9l20 7 3 1 7 2 7 1 13 3 7 2q-0.5 1-1 1.9-0.6 0.9-1.2 1.8-0.7 0.9-1.4 1.7-0.6 0.8-1.4 1.6-0.6 0.6-1.2 1.1-0.6 0.5-1.2 1-0.6 0.5-1.3 1-0.6 0.5-1.3 0.9-1.2 0.8-2.6 1.5-1.3 0.6-2.7 1.2-1.4 0.5-2.8 0.8-1.4 0.3-2.9 0.5-0.6 0.1-1.2 0.1-0.7 0.1-1.3 0.1-0.6 0-1.3-0.1-0.6 0-1.2-0.1l-3-1-4-1h-1v-1q-8.7-2.4-17.7-3.5-8.9-1-17.9-0.8-9.1 0.3-18 1.9-8.8 1.5-17.4 4.4l-9 3q-2.2 0.8-4.4 1.7-2.1 1-4.3 2-2.1 1-4.2 2-2.1 1.1-4.1 2.3l-2 1q-1.7 1.1-3.4 2.3-1.7 1.2-3.3 2.4-1.6 1.3-3.2 2.6-1.6 1.3-3.1 2.7l-2 2-1 1-2 2-1 2-2 1-3 4-6 9q2.4-1.6 4.8-3.1 2.4-1.5 4.9-2.9 2.5-1.4 5.1-2.6 2.6-1.3 5.2-2.4 4.3-1.6 8.7-2.7 4.5-1.1 9-1.8 4.6-0.6 9.1-0.7 4.6-0.2 9.2 0.2l-11 10c-9 9-11 18-12 26v23l-1 8v2l-1 1v1l-3 6v2l-1 1-1 1q-0.9 1.2-1.8 2.4-0.9 1.2-1.9 2.3-1 1.2-2.1 2.2-1.1 1.1-2.2 2.1 1.2 0.3 2.5 0.4 1.2 0.2 2.5 0.4 1.2 0.1 2.5 0.1 1.2 0.1 2.5 0.1 1.2-0.1 2.3-0.2 1.1-0.2 2.3-0.5 1.1-0.2 2.2-0.5 1.1-0.4 2.2-0.8 0.8-0.3 1.6-0.6 0.8-0.3 1.5-0.7 0.8-0.4 1.5-0.8 0.7-0.4 1.4-0.9l7-8 1-2 7-13 2-3 4-8 1-2 4-5 1-1q1.1-1.1 2.3-2.1 1.1-0.9 2.4-1.8 1.3-0.9 2.6-1.7 1.3-0.7 2.7-1.4 0.8-0.5 1.7-0.9 0.8-0.4 1.7-0.8 0.9-0.4 1.8-0.7 0.9-0.3 1.8-0.6 0.3 1 0.5 2 0.2 1 0.3 2 0.1 1 0.2 2 0 1 0 2l-1 5-1 1q-0.3 0.8-0.6 1.6-0.3 0.7-0.7 1.5-0.4 0.7-0.8 1.5-0.4 0.7-0.9 1.4l-1 2-3 3-1 1-2 1 4 1q0.4 0 0.7 0 0.4 0 0.8 0 0.4 0 0.8 0 0.3 0 0.7 0h4l1-1h4l2-1h1c-28 23 11 43 3 72 28 1 16-55 57-29-5 29 36 40 6 64 28 8 47-1 57-28-11 38 44 94 63 84-12-22-14-39-9-55 16 16 38 27 29 49 25-12 3-27 23-46 1 25 23 43 45 50-27-52-15-102 18-139l3-2 3-2 3-2 3-2 2-2 3-2 3-2 5-5 3-2 2-2 3-3 2-2 2-3 3-2 2-3 2-2v-1l3-2 2-3 6-9 2-3q0.5-0.7 1-1.5 0.5-0.7 1-1.5 0.5-0.7 1-1.5 0.5-0.7 1-1.5l1-3q1.6-2.8 3-5.6 1.5-2.8 2.9-5.7 1.4-2.9 2.6-5.8 1.3-2.9 2.5-5.9h1l1-4q0.3-0.9 0.5-1.7 0.3-0.9 0.5-1.8 0.3-0.9 0.5-1.7 0.3-0.9 0.5-1.8l2-4 1-4 2-7 1-4 1-8q0.6-1.9 1.1-3.7 0.5-1.9 1-3.8 0.5-1.8 1-3.7 0.5-1.9 0.9-3.8l1-5v-1q0.5-2.9 1-5.7 0.4-2.9 0.8-5.8 0.4-2.8 0.7-5.7 0.3-2.9 0.5-5.8 0.7-7.5 1-15 0.3-7.5 0.2-15-0.1-7.5-0.7-15-0.5-7.5-1.5-15v-1c-2-24-9-49-22-73q-0.6-1.4-1.2-2.8-0.6-1.4-1.2-2.7-0.6-1.4-1.3-2.8-0.6-1.3-1.3-2.7h-1l-5-10h-1v-1l-3-4-1-1-1-2-1-1-1-1-1-1v-1l-2-3-4-5-2-2-1-1-1-1-2-3-2-1-1-1q-0.7-0.8-1.5-1.5-0.7-0.8-1.5-1.5-0.7-0.8-1.5-1.5-0.7-0.8-1.5-1.5l-2-2h-1l-4-4-1-1-1-1-1-1-2-1h-1l-2-2-2-2h-1q-0.6-0.4-1.2-0.8-0.7-0.3-1.3-0.7-0.6-0.4-1.2-0.8-0.7-0.3-1.3-0.7l-1-1-2-1v-1l-2-1h-1l-2-2h-1l-2-1-1-1-2-1h-1q-0.6-0.4-1.2-0.8-0.7-0.3-1.3-0.7-0.6-0.4-1.2-0.8-0.7-0.3-1.3-0.7h-1l-3-2h-1l-2-1h-1l-2-1-1-1-3-1-3-1-4-1v-1l-4-1q-0.9-0.3-1.7-0.5-0.9-0.3-1.8-0.5-0.9-0.3-1.7-0.5-0.9-0.3-1.8-0.5-0.9-0.3-1.7-0.5-0.9-0.3-1.8-0.5-0.9-0.3-1.7-0.5-0.9-0.3-1.8-0.5l-8-1v-1h-4l-1-1-7-1h-4l-8-1h-1l-4-1h-4q-1.7-0.2-3.5-0.3-1.7-0.2-3.5-0.3-1.7-0.1-3.5-0.2-1.7-0.1-3.5-0.2z"/>
	<path id="Layer" fill-rule="evenodd" class="s1" d="m282 12q1.8 0.1 3.5 0.2 1.8 0.1 3.5 0.2 1.8 0.1 3.5 0.3 1.8 0.1 3.5 0.3h4l4 1h1l8 1h4l7 1 1 1h4v1l8 1q0.9 0.2 1.8 0.5 0.8 0.2 1.7 0.5 0.9 0.2 1.8 0.5 0.8 0.2 1.7 0.5 0.9 0.2 1.8 0.5 0.8 0.2 1.7 0.5 0.9 0.2 1.8 0.5 0.8 0.2 1.7 0.5l4 1v1l4 1 6 2 1 1 2 1h1l2 1h1l3 2h1q0.6 0.4 1.3 0.7 0.6 0.4 1.2 0.8 0.6 0.4 1.3 0.7 0.6 0.4 1.2 0.8h1l2 1 1 1 2 1h1l2 2h1l2 1v1l2 1 1 1q0.6 0.4 1.3 0.7 0.6 0.4 1.2 0.8 0.6 0.4 1.3 0.7 0.6 0.4 1.2 0.8h1l4 4h1l2 1 7 7h1l2 2q0.8 0.7 1.5 1.5 0.8 0.7 1.5 1.5 0.8 0.7 1.5 1.5 0.8 0.7 1.5 1.5l1 1 2 1 2 3 4 4 4 5 2 3v1l3 3 1 2 1 1 3 4v1h1l5 10h1q0.7 1.4 1.3 2.7 0.7 1.4 1.3 2.8 0.6 1.3 1.2 2.7 0.6 1.4 1.2 2.8c13 24 20 49 22 73v1l1 13v-4l23-18c3-5 7-6 11-6 11 0 19 15 18 24 2 52-23 81-61 100v3l-1 4-2 7-1 4-2 4q-0.2 0.9-0.5 1.8-0.2 0.8-0.5 1.7-0.2 0.9-0.5 1.8-0.2 0.8-0.5 1.7l-1 4h-1q-1.2 3-2.5 5.9-1.2 2.9-2.6 5.8-1.4 2.9-2.9 5.7-1.4 2.8-3 5.6l-1 3q-0.5 0.8-1 1.5-0.5 0.8-1 1.5-0.5 0.8-1 1.5-0.5 0.8-1 1.5l-10 15-3 2v1l-2 2-2 3-3 2-2 3-7 7-3 2-5 5-6 4-2 2-12 8c-37 37-47 87-18 139-22-7-44-25-45-50-20 19 2 34-23 46 9-22-13-33-29-49-5 16-3 33 9 55-19 10-74-46-63-84-10 27-29 36-57 28 30-24-11-35-6-64-41-26-29 30-57 29 8-29-31-49-3-72h-1l-2 1h-4l-1 1h-4q-0.4 0-0.7 0-0.4 0-0.8 0-0.4 0-0.8 0-0.3 0-0.7 0l-4-1 2-1 4-4 1-2q0.5-0.7 0.9-1.4 0.4-0.8 0.8-1.5 0.4-0.8 0.7-1.5 0.3-0.8 0.6-1.6l1-1 1-5q0-1 0-2-0.1-1-0.2-2-0.1-1-0.3-2-0.2-1-0.5-2-0.9 0.3-1.8 0.6-0.9 0.3-1.8 0.7-0.9 0.4-1.7 0.8-0.9 0.4-1.7 0.9-1.4 0.7-2.7 1.4-1.3 0.8-2.6 1.7-1.3 0.9-2.4 1.8-1.2 1-2.3 2.1l-1 1-4 5-5 10-2 3-7 13-1 2-7 8q-0.7 0.5-1.4 0.9-0.7 0.4-1.5 0.8-0.7 0.4-1.5 0.7-0.8 0.3-1.6 0.6-1.1 0.4-2.2 0.8-1.1 0.3-2.2 0.5-1.2 0.3-2.3 0.5-1.1 0.1-2.3 0.2-1.3 0-2.5-0.1-1.3 0-2.5-0.1-1.3-0.2-2.5-0.4-1.3-0.1-2.5-0.4 1.1-1 2.2-2.1 1.1-1 2.1-2.2 1-1.1 1.9-2.3 0.9-1.2 1.8-2.4l2-2v-2l3-6v-1l1-1v-2l1-8v-23c1-8 3-17 12-26l11-10q-4.6-0.4-9.2-0.2-4.5 0.1-9.1 0.7-4.5 0.7-9 1.8-4.4 1.1-8.7 2.7-2.6 1.1-5.2 2.4-2.6 1.2-5.1 2.6-2.5 1.4-4.9 2.9-2.4 1.5-4.8 3.1l6-9 3-4 2-1 1-2 5-5q1.5-1.4 3.1-2.7 1.6-1.3 3.2-2.6 1.6-1.2 3.3-2.4 1.7-1.2 3.4-2.3l2-1q2-1.2 4.1-2.3 2.1-1 4.2-2 2.2-1 4.3-2 2.2-0.9 4.4-1.7l9-3q8.6-2.9 17.4-4.4 8.9-1.6 18-1.9 9-0.2 17.9 0.8 9 1.1 17.7 3.5v1h1l4 1 3 1q0.6 0.1 1.2 0.1 0.7 0.1 1.3 0.1 0.6 0 1.3-0.1 0.6 0 1.2-0.1 1.5-0.2 2.9-0.5 1.4-0.3 2.8-0.8 1.4-0.6 2.7-1.2 1.4-0.7 2.6-1.5 0.7-0.4 1.3-0.9 0.7-0.5 1.3-1 0.6-0.5 1.2-1 0.6-0.5 1.2-1.1 0.8-0.8 1.4-1.6 0.7-0.8 1.4-1.7 0.6-0.9 1.2-1.8 0.5-0.9 1-1.9l-7-2-13-3-7-1-7-2-3-1-20-7q-5.1-2.6-9.8-5.9-4.7-3.3-8.9-7.2-4.2-4-7.8-8.4-3.6-4.5-6.5-9.5-1.1-1.9-2.2-3.9-1.1-2-2.1-4-1-2-1.9-4-0.9-2-1.8-4.1v-2q-0.1-1.1-0.2-2.2 0-1.2 0-2.3 0-1.1 0-2.3 0.1-1.1 0.2-2.2 0-0.8 0.1-1.5 0.1-0.8 0.2-1.5 0.1-0.8 0.3-1.5 0.2-0.8 0.4-1.5l1-2 2-2q0.3-0.3 0.7-0.6 0.3-0.3 0.7-0.6 0.4-0.2 0.8-0.4 0.4-0.2 0.8-0.4 0.5-0.1 1-0.1 0.5-0.1 1-0.1 0.5 0 1 0.1 0.5 0 1 0.1h3l1 1q2.2 0.5 4.5 1 2.2 0.6 4.5 1.1 2.2 0.5 4.5 0.9 2.2 0.5 4.5 1h6q2.7 0.2 5.5 0.4 2.7 0.2 5.5 0.3 2.7 0.1 5.5 0.2 2.7 0.1 5.5 0.1 6.3 0.3 12.6 0.2 6.3-0.2 12.5-0.7 6.3-0.5 12.5-1.3 6.2-0.9 12.4-2.2l-4-8-5-12q-0.5-1.5-0.9-3-0.5-1.4-0.8-2.9-0.4-1.5-0.7-3.1-0.3-1.5-0.6-3l-1 2-4 5q-1.4 1.8-3 3.3-1.6 1.6-3.4 3-1.7 1.4-3.6 2.6-2 1.2-4 2.1-1.7 0.8-3.4 1.4-1.7 0.6-3.4 1.1-1.8 0.5-3.6 0.9-1.8 0.4-3.6 0.6h-8c-9-1-16-4-22-7l-2-1q-0.8-0.5-1.5-0.9-0.8-0.5-1.6-1-0.7-0.5-1.4-1-0.8-0.6-1.5-1.1l-12-12q-1.5-2.3-2.9-4.7-1.4-2.3-2.8-4.7-1.4-2.3-2.7-4.8-1.3-2.4-2.6-4.8l-9-17q-0.4-0.9-0.9-1.8-0.5-0.9-1-1.8-0.5-0.8-1-1.7-0.6-0.9-1.1-1.7l-1-2-4-4q-1.4-1.5-3.1-2.9-1.6-1.3-3.3-2.5-1.8-1.1-3.7-2-1.9-0.9-3.9-1.6l-6-1h-2q-0.3 0.1-0.5 0.2-0.3 0.1-0.5 0.2-0.3 0.1-0.5 0.3-0.3 0.1-0.5 0.3-0.3 0.3-0.6 0.7-0.2 0.4-0.5 0.7-0.2 0.4-0.5 0.8-0.2 0.4-0.4 0.8l-2 5-2 3c-2 2-5 4-10 5h-1q-0.5 0-1-0.1-0.6 0-1.1-0.2-0.5-0.1-1-0.3-0.4-0.2-0.9-0.4l-6-7-1-4-1-3v-11q0.4-1.8 1-3.5 0.6-1.7 1.3-3.3 0.8-1.7 1.7-3.2 0.9-1.6 2-3l5-6 1-1q0.6-0.4 1.2-0.8 0.6-0.4 1.2-0.8 0.7-0.4 1.3-0.7 0.7-0.4 1.3-0.7l1-1 3-2q1.7-0.6 3.4-1 1.7-0.4 3.5-0.6 1.8-0.3 3.5-0.4 1.8-0.1 3.6 0 0.5 0.1 1 0.2 0.5 0.1 1 0.2 0.5 0.2 1 0.3 0.5 0.1 1 0.3 2.5 0.6 4.9 1.3 2.4 0.7 4.8 1.6 2.4 0.9 4.7 1.9 2.3 1 4.6 2.2l3 1 13 8 6 2q4.4 2.3 9 4 4.6 1.8 9.4 2.9 4.8 1.2 9.7 1.7 5 0.5 9.9 0.4h3l2-4q1.4-2.9 3-5.7 1.5-2.8 3.1-5.5 1.6-2.8 3.4-5.5 1.7-2.7 3.5-5.3 6.7-9.8 14.7-18.6 8-8.8 17.2-16.4 9.1-7.6 19.2-13.9 10.1-6.2 20.9-11.1 8-3.1 16.3-5.6 8.2-2.5 16.6-4.4 8.5-1.9 17-3.1 8.5-1.3 17.1-1.9zm194.5 277.3q-0.2 1.1-0.5 2.2-0.2 1.1-0.5 2.3-0.2 1.1-0.5 2.2l1-4 1-5q-0.2 1.1-0.5 2.3z"/>
	<path id="Layer" class="s2" d="m407 80c20 19 26 44 16 54-11 11-35 4-54-15-19-19-26-43-16-54 11-10 35-4 54 15zm-69 41c11 10 14 23 8 29-5 6-19 2-29-8-10-10-14-23-8-29 6-6 19-3 29 8z"/>
	<path id="Layer" class="s3" d="m379 247c-54-3-38-67-94-89-51 33-49 179 95 102 114 59 111-69 78-100-40 16-36 81-79 87z"/>
	<path id="Layer" fill-rule="evenodd" class="s4" d="m278 12q-8.6 0.6-17.1 1.9-8.5 1.2-17 3.1-8.4 1.9-16.6 4.4-8.3 2.5-16.3 5.6-10.8 4.9-20.9 11.1-10.1 6.3-19.2 13.9-9.2 7.6-17.2 16.4-8 8.8-14.7 18.6-1.8 2.6-3.5 5.3-1.8 2.7-3.4 5.5-1.6 2.7-3.1 5.5-1.6 2.8-3 5.7l-2 4h-3q-4.9 0.1-9.9-0.4-4.9-0.5-9.7-1.7-4.8-1.1-9.4-2.9-4.6-1.7-9-4l-6-2-13-8-3-1q-2.3-1.2-4.6-2.2-2.3-1-4.7-1.9-2.4-0.9-4.8-1.6-2.4-0.7-4.9-1.3-0.5-0.2-1-0.3-0.5-0.1-1-0.3-0.5-0.1-1-0.2-0.5-0.1-1-0.2-1.8-0.1-3.6 0-1.7 0.1-3.5 0.4-1.8 0.2-3.5 0.6-1.7 0.4-3.4 1l-3 2-1 1q-0.6 0.3-1.3 0.7-0.6 0.3-1.3 0.7-0.6 0.4-1.2 0.8-0.6 0.4-1.2 0.8l-1 1-5 6q-1.1 1.4-2 3-0.9 1.5-1.7 3.2-0.7 1.6-1.3 3.3-0.6 1.7-1 3.5v11l1 3 1 4 6 7q0.5 0.2 0.9 0.4 0.5 0.2 1 0.3 0.5 0.2 1.1 0.2 0.5 0.1 1 0.1h1c5-1 8-3 10-5l2-3 2-5q0.2-0.4 0.4-0.8 0.3-0.4 0.5-0.8 0.3-0.3 0.5-0.7 0.3-0.4 0.6-0.7 0.2-0.2 0.5-0.3 0.2-0.2 0.5-0.3 0.2-0.1 0.5-0.2 0.2-0.1 0.5-0.2h2l6 1q2 0.7 3.9 1.6 1.9 0.9 3.7 2 1.7 1.2 3.3 2.5 1.7 1.4 3.1 2.9l4 4 1 2q0.5 0.8 1.1 1.7 0.5 0.9 1 1.7 0.5 0.9 1 1.8 0.5 0.9 0.9 1.8l9 17q1.3 2.4 2.6 4.8 1.3 2.5 2.7 4.8 1.4 2.4 2.8 4.7 1.4 2.4 2.9 4.7l10 10 2 2q0.7 0.5 1.5 1.1 0.7 0.5 1.4 1 0.8 0.5 1.6 1 0.7 0.4 1.5 0.9l2 1c6 3 13 6 22 7h8q1.8-0.2 3.6-0.6 1.8-0.4 3.6-0.9 1.7-0.5 3.4-1.1 1.7-0.6 3.4-1.4 2-0.9 4-2.1 1.9-1.2 3.6-2.6 1.8-1.4 3.4-3 1.6-1.5 3-3.3l4-5 1-2q0.3 1.5 0.6 3 0.3 1.6 0.7 3.1 0.3 1.5 0.8 2.9 0.4 1.5 0.9 3l5 12 2 4 2 4q-6.2 1.3-12.4 2.2-6.2 0.8-12.5 1.3-6.2 0.5-12.5 0.7-6.3 0.1-12.6-0.2-2.8 0-5.5-0.1-2.8-0.1-5.5-0.2-2.8-0.1-5.5-0.3-2.8-0.2-5.5-0.4h-6q-2.3-0.5-4.5-1-2.3-0.4-4.5-0.9-2.3-0.5-4.5-1.1-2.3-0.5-4.5-1l-1-1h-3q-0.5-0.1-1-0.1-0.5-0.1-1-0.1-0.5 0-1 0.1-0.5 0-1 0.1-0.4 0.2-0.8 0.4-0.4 0.2-0.8 0.4-0.4 0.3-0.7 0.6-0.4 0.3-0.7 0.6l-2 2-1 2q-0.2 0.7-0.4 1.5-0.2 0.7-0.3 1.5-0.1 0.7-0.2 1.5-0.1 0.7-0.1 1.5-0.1 1.1-0.2 2.2 0 1.2 0 2.3 0 1.1 0 2.3 0.1 1.1 0.2 2.2v2q0.9 2.1 1.8 4.1 0.9 2 1.9 4 1 2 2.1 4 1.1 2 2.2 3.9 2.9 5 6.5 9.5 3.6 4.4 7.8 8.4 4.2 3.9 8.9 7.2 4.7 3.3 9.8 5.9l20 7 3 1 7 2 7 1 13 3 7 2q-0.5 1-1 1.9-0.6 0.9-1.2 1.8-0.7 0.9-1.4 1.7-0.6 0.8-1.4 1.6-0.6 0.6-1.2 1.1-0.6 0.5-1.2 1-0.6 0.5-1.3 1-0.6 0.5-1.3 0.9-1.2 0.8-2.6 1.5-1.3 0.6-2.7 1.2-1.4 0.5-2.8 0.8-1.4 0.3-2.9 0.5-0.6 0.1-1.2 0.1-0.7 0.1-1.3 0.1-0.6 0-1.3-0.1-0.6 0-1.2-0.1l-3-1-4-1h-1v-1q-8.7-2.4-17.7-3.5-8.9-1-17.9-0.8-9.1 0.3-18 1.9-8.8 1.5-17.4 4.4l-9 3q-2.2 0.8-4.4 1.7-2.1 1-4.3 2-2.1 1-4.2 2-2.1 1.1-4.1 2.3l-2 1q-1.7 1.1-3.4 2.3-1.7 1.2-3.3 2.4-1.6 1.3-3.2 2.6-1.6 1.3-3.1 2.7l-2 2-1 1-2 2-1 2-2 1-3 4-6 9q2.4-1.6 4.8-3.1 2.4-1.5 4.9-2.9 2.5-1.4 5.1-2.6 2.6-1.3 5.2-2.4 4.3-1.6 8.7-2.7 4.5-1.1 9-1.8 4.6-0.6 9.1-0.7 4.6-0.2 9.2 0.2l-11 10c-9 9-11 18-12 26v23l-1 8v2l-1 1v1l-3 6v2l-1 1-1 1q-0.9 1.2-1.8 2.4-0.9 1.2-1.9 2.3-1 1.2-2.1 2.2-1.1 1.1-2.2 2.1 1.2 0.3 2.5 0.4 1.2 0.2 2.5 0.4 1.2 0.1 2.5 0.1 1.2 0.1 2.5 0.1 1.2-0.1 2.3-0.2 1.1-0.2 2.3-0.5 1.1-0.2 2.2-0.5 1.1-0.4 2.2-0.8 0.8-0.3 1.6-0.6 0.8-0.3 1.5-0.7 0.8-0.4 1.5-0.8 0.7-0.4 1.4-0.9l7-8 1-2 7-13 2-3 4-8 1-2 4-5 1-1q1.1-1.1 2.3-2.1 1.1-0.9 2.4-1.8 1.3-0.9 2.6-1.7 1.3-0.7 2.7-1.4 0.8-0.5 1.7-0.9 0.8-0.4 1.7-0.8 0.9-0.4 1.8-0.7 0.9-0.3 1.8-0.6 0.3 1 0.5 2 0.2 1 0.3 2 0.1 1 0.2 2 0 1 0 2l-1 5-1 1q-0.3 0.8-0.6 1.6-0.3 0.7-0.7 1.5-0.4 0.7-0.8 1.5-0.4 0.7-0.9 1.4l-1 2-3 3-1 1-2 1 4 1q0.4 0 0.7 0 0.4 0 0.8 0 0.4 0 0.8 0 0.3 0 0.7 0h4l1-1h4l2-1h1c-28 23 11 43 3 72 28 1 16-55 57-29-5 29 36 40 6 64 28 8 47-1 57-28-11 38 44 94 63 84-12-22-14-39-9-55 16 16 38 27 29 49 25-12 3-27 23-46 1 25 23 43 45 50-33-58-20-114 30-147l2-2 3-2 3-2 5-5 3-2 2-2 3-3 2-2 2-3 3-2 2-3 2-2v-1l3-2 2-3 6-9 2-3q0.5-0.7 1-1.5 0.5-0.7 1-1.5 0.5-0.7 1-1.5 0.5-0.7 1-1.5l1-3q1.6-2.8 3-5.6 1.5-2.8 2.9-5.7 1.4-2.9 2.6-5.8 1.3-2.9 2.5-5.9h1l1-4q0.3-0.9 0.5-1.7 0.3-0.9 0.5-1.8 0.3-0.9 0.5-1.7 0.3-0.9 0.5-1.8l2-4 1-4 2-7 1-4 1-8q0.6-1.9 1.1-3.7 0.5-1.9 1-3.8 0.5-1.8 1-3.7 0.5-1.9 0.9-3.8l1-5v-1q0.5-2.9 1-5.7 0.4-2.9 0.8-5.8 0.4-2.8 0.7-5.7 0.3-2.9 0.5-5.8 0.7-7.5 1-15 0.3-7.5 0.2-15-0.1-7.5-0.7-15-0.5-7.5-1.5-15v-1c-2-24-9-49-22-73q-0.6-1.4-1.2-2.8-0.6-1.4-1.2-2.7-0.6-1.4-1.3-2.8-0.6-1.3-1.3-2.7h-1l-5-10h-1v-1l-3-4-1-1-1-2-1-1-1-1-1-1v-1l-2-3-4-5-2-2-1-1-1-1-2-3-2-1-1-1q-0.7-0.8-1.5-1.5-0.7-0.8-1.5-1.5-0.7-0.8-1.5-1.5-0.7-0.8-1.5-1.5l-2-2h-1l-4-4-1-1-1-1-1-1-2-1h-1l-2-2-2-2h-1q-0.6-0.4-1.2-0.8-0.7-0.3-1.3-0.7-0.6-0.4-1.2-0.8-0.7-0.3-1.3-0.7l-1-1-2-1v-1l-2-1h-1l-2-2h-1l-2-1-1-1-2-1h-1q-0.6-0.4-1.2-0.8-0.7-0.3-1.3-0.7-0.6-0.4-1.2-0.8-0.7-0.3-1.3-0.7h-1l-3-2h-1l-2-1h-1l-2-1-1-1-3-1-3-1-4-1v-1l-4-1q-0.9-0.3-1.7-0.5-0.9-0.3-1.8-0.5-0.9-0.3-1.7-0.5-0.9-0.3-1.8-0.5-0.9-0.3-1.7-0.5-0.9-0.3-1.8-0.5-0.9-0.3-1.7-0.5-0.9-0.3-1.8-0.5l-8-1v-1h-4l-1-1-7-1h-4l-8-1h-1l-4-1h-4q-1.7-0.2-3.5-0.3-1.7-0.2-3.5-0.3-1.7-0.1-3.5-0.2-1.7-0.1-3.5-0.2z"/>
	<path id="Layer" fill-rule="evenodd" class="s4" d="m517 177c-4 0-8 1-11 6l-23 18q1.3 12.6 1.4 25.2 0.1 12.6-1 25.2-1.2 12.6-3.5 25-2.4 12.5-5.9 24.6c38-19 63-48 61-100 1-9-7-24-18-24z"/>
	<path id="Layer" fill-rule="evenodd" class="s5" d="m178 129c-12 14-14 36-10 53-8-5-12-10-14-16m46 47c-5 5-11 5-17 2 4-3 7-8 6-14zm-98-86c7-7 14-10 21-13-5 10-6 18-3 30zm22 204c6-10 15-15 26-17-8 10-9 21-5 33zm-66 10c14-4 27-2 38 2zm29 34c7-2 14-3 22 0z"/>
</svg>