<svg version="1.2" xmlns="http://www.w3.org/2000/svg" viewBox="0 0 19 15" width="100" height="79">
	<title>Fish-shell-logo-ascii-svg</title>
	<style>
		.s0 { fill: #d2232a } 
		.s1 { fill: #f5841f } 
		.s2 { fill: #fdba12 } 
	</style>
	<path id="Layer" class="s0" d="m9.6 0q0 0 0 0h0.4q0 0 0 0v0.1q0 0 0 0h-0.4q0 0 0 0z"/>
	<path id="Layer" class="s0" d="m10.1 0q0 0 0.1 0h0.4q0 0 0 0v0.1q0 0 0 0h-0.4q-0.1 0-0.1 0z"/>
	<path id="Layer" class="s0" d="m10.7 0q0 0 0 0h0.4q0.1 0 0.1 0v0.1q0 0-0.1 0h-0.4q0 0 0 0z"/>
	<path id="Layer" class="s0" d="m1.1 1q0 0 0.1 0h0.4q0 0 0 0v0.1q0 0 0 0h-0.4q-0.1 0-0.1 0z"/>
	<path id="Layer" class="s0" d="m1.7 1q0 0 0 0h0.4q0.1 0 0.1 0v0.1q0 0-0.1 0h-0.4q0 0 0 0z"/>
	<path id="Layer" class="s0" d="m2.3 1q0 0 0 0h0.4q0 0 0 0v0.1q0 0 0 0h-0.4q0 0 0 0z"/>
	<path id="Layer" class="s0" d="m2.8 0.6q0 0 0 0h0.5q0 0 0 0v0.1q0 0 0 0h-0.5q0 0 0 0zm0 0.2q0 0 0 0h0.5q0 0 0 0 0 0 0 0h-0.5q0 0 0 0z"/>
	<path id="Layer" class="s0" d="m3.4 0.6q0 0 0 0h0.4q0 0 0 0v0.1q0 0 0 0h-0.4q0 0 0 0zm0 0.2q0 0 0 0h0.4q0 0 0 0 0 0 0 0h-0.4q0 0 0 0z"/>
	<path id="Layer" class="s0" d="m3.9 0.6q0 0 0.1 0h0.4q0 0 0 0v0.1q0 0 0 0h-0.4q-0.1 0-0.1 0zm0 0.2q0 0 0.1 0h0.4q0 0 0 0 0 0 0 0h-0.4q-0.1 0-0.1 0z"/>
	<path id="Layer" class="s0" d="m4.5 0.6q0 0 0 0h0.5q0 0 0 0v0.1q0 0 0 0h-0.5q0 0 0 0zm0 0.2q0 0 0 0h0.5q0 0 0 0 0 0 0 0h-0.5q0 0 0 0z"/>
	<path id="Layer" class="s0" d="m5.1 0.6q0 0 0 0h0.4q0 0 0 0v0.1q0 0 0 0h-0.4q0 0 0 0zm0 0.2q0 0 0 0h0.4q0 0 0 0 0 0 0 0h-0.4q0 0 0 0z"/>
	<path id="Layer" class="s0" d="m5.6 0.6q0 0 0.1 0h0.4q0 0 0 0v0.1q0 0 0 0h-0.4q-0.1 0-0.1 0zm0 0.2q0 0 0.1 0h0.4q0 0 0 0 0 0 0 0h-0.4q-0.1 0-0.1 0z"/>
	<path id="Layer" class="s0" d="m6.2 1q0 0 0 0h0.4q0.1 0 0.1 0v0.1q0 0-0.1 0h-0.4q0 0 0 0z"/>
	<path id="Layer" class="s0" d="m6.8 1q0 0 0 0h0.4q0 0 0 0v0.1q0 0 0 0h-0.4q0 0 0 0z"/>
	<path id="Layer" class="s0" d="m7.3 1q0 0 0 0h0.5q0 0 0 0v0.1q0 0 0 0h-0.5q0 0 0 0z"/>
	<path id="Layer" class="s0" d="m7.9 1q0 0 0 0h0.4q0 0 0 0v0.1q0 0 0 0h-0.4q0 0 0 0z"/>
	<path id="Layer" class="s0" d="m8.4 0.6q0 0 0.1 0h0.4q0 0 0 0v0.1q0 0 0 0h-0.4q-0.1 0-0.1 0zm0 0.2q0 0 0.1 0h0.4q0 0 0 0 0 0 0 0h-0.4q-0.1 0-0.1 0z"/>
	<path id="Layer" class="s1" d="m9 0.7q0 0 0 0h0.5q0 0 0 0v0.1q0 0 0 0h-0.5q0 0 0 0z"/>
	<path id="Layer" class="s2" d="m9.6 0.7q0 0 0 0h0.4q0 0 0 0v0.1q0 0 0 0h-0.4q0 0 0 0z"/>
	<path id="Layer" class="s1" d="m10.1 0.7q0 0 0.1 0h0.4q0 0 0 0v0.1q0 0 0 0h-0.4q-0.1 0-0.1 0z"/>
	<path id="Layer" class="s1" d="m10.7 0.6q0 0 0 0h0.4q0.1 0 0.1 0v0.1q0 0-0.1 0h-0.4q0 0 0 0zm0 0.2q0 0 0 0h0.4q0.1 0 0.1 0 0 0-0.1 0h-0.4q0 0 0 0z"/>
	<path id="Layer" class="s0" d="m11.3 1.1q0.1 0 0.2-0.1 0 0 0.1-0.1 0-0.1 0-0.2 0-0.1 0-0.1-0.1-0.1-0.1-0.2-0.1 0-0.2 0 0 0 0-0.1 0 0 0 0 0 0 0 0 0.1 0 0.2 0.1 0.1 0 0.1 0.1 0.1 0.1 0.1 0.2 0 0.1-0.1 0.2 0 0.1-0.1 0.2-0.1 0.1-0.2 0.1 0 0 0 0v-0.1q0 0 0 0 0 0 0 0z"/>
	<path id="Layer" class="s0" d="m0.4 1.3q0 0 0 0 0 0 0 0h0.1q0 0 0 0.1 0 0 0 0l-0.4 0.8q0 0 0 0 0 0-0.1 0 0 0 0 0 0-0.1 0-0.1z"/>
	<path id="Layer" class="s0" d="m1.1 1.4q0 0-0.1 0h-0.2v0.6q0 0 0 0 0 0 0 0v-0.6h-0.2q-0.1 0-0.1 0v-0.1q0 0 0.1 0h0.4q0.1 0 0.1 0z"/>
	<path id="Layer" class="s0" d="m8.4 2.1q0 0 0 0.1 0 0-0.1 0 0 0 0 0 0 0 0 0l-0.4-0.8q0 0 0 0 0-0.1 0-0.1 0 0 0 0 0 0 0.1 0z"/>
	<path id="Layer" class="s0" d="m8.4 2q0 0 0.1 0h0.4q0 0 0 0v0.1q0 0 0 0h-0.4q-0.1 0-0.1 0z"/>
	<path id="Layer" class="s2" d="m9 1.7q0 0 0 0h0.5q0 0 0 0v0.1q0 0 0 0h-0.5q0 0 0 0z"/>
	<path id="Layer" class="s2" d="m9.6 1.7q0 0 0 0h0.4q0 0 0 0v0.1q0 0 0 0h-0.4q0 0 0 0z"/>
	<path id="Layer" class="s2" d="m10.1 1.6q0 0 0.1 0h0.4q0 0 0 0v0.1q0 0 0 0h-0.4q-0.1 0-0.1 0zm0 0.2q0 0 0.1 0h0.4q0 0 0 0 0 0 0 0h-0.4q-0.1 0-0.1 0z"/>
	<path id="Layer" class="s1" d="m10.7 1.6q0 0 0 0h0.4q0.1 0 0.1 0v0.1q0 0-0.1 0h-0.4q0 0 0 0zm0 0.2q0 0 0 0h0.4q0.1 0 0.1 0 0 0-0.1 0h-0.4q0 0 0 0z"/>
	<path id="Layer" class="s1" d="m11.3 1.6q0 0 0 0h0.4q0 0 0 0v0.1q0 0 0 0h-0.4q0 0 0 0zm0 0.2q0 0 0 0h0.4q0 0 0 0 0 0 0 0h-0.4q0 0 0 0z"/>
	<path id="Layer" class="s0" d="m11.9 2.1q0.1 0 0.1-0.1 0.1 0 0.1-0.1 0.1-0.1 0.1-0.2 0-0.1-0.1-0.1 0-0.1-0.1-0.2 0 0-0.1 0 0 0 0-0.1 0 0 0 0 0 0 0 0 0.1 0 0.2 0.1 0.1 0 0.1 0.1 0.1 0.1 0.1 0.2 0 0.1-0.1 0.2 0 0.1-0.1 0.2-0.1 0.1-0.2 0.1 0 0 0 0v-0.1q0 0 0 0 0 0 0 0z"/>
	<path id="Layer" class="s0" d="m0.4 3.1q0 0 0 0 0 0.1 0 0.1h-0.3q0 0 0-0.1v-0.8q0 0 0 0h0.3q0 0 0 0 0 0 0 0h-0.2v0.8z"/>
	<path id="Layer" class="s0" d="m1.6 3.1q0 0 0 0.1 0 0 0 0 0 0 0 0-0.1 0-0.1 0l-0.4-0.8q0 0 0 0 0-0.1 0-0.1h0.1q0 0 0 0 0 0 0 0z"/>
	<path id="Layer" class="s1" d="m2.7 3.1q0 0 0 0 0 0 0 0v0.1q0 0-0.1 0-0.1 0-0.1-0.1-0.1-0.1-0.2-0.2 0-0.1 0-0.2 0-0.1 0-0.2 0.1-0.1 0.2-0.1 0-0.1 0.1-0.1 0.1 0 0.1 0 0 0 0 0 0 0.1 0 0.1-0.1 0-0.2 0-0.1 0.1-0.1 0.2 0 0 0 0.1 0 0.1 0 0.2 0 0.1 0.1 0.1 0.1 0.1 0.2 0.1z"/>
	<path id="Layer" fill-rule="evenodd" class="s2" d="m3.1 2.3q0 0 0.1 0.1 0.1 0 0.1 0.2v0.2q0 0.1-0.1 0.1-0.1 0.1-0.1 0.1-0.1 0-0.2-0.1 0 0 0-0.1v-0.2q0-0.2 0-0.2 0.1-0.1 0.2-0.1zm0 0.6q0 0 0 0 0.1-0.1 0.1-0.1v-0.2q0-0.1-0.1-0.2 0 0 0 0-0.1 0-0.1 0-0.1 0.1-0.1 0.2v0.2q0 0 0.1 0.1 0 0 0.1 0z"/>
	<path id="Layer" class="s1" d="m3.5 3.1q0 0 0.1-0.1 0.1 0 0.1-0.1 0-0.1 0-0.2 0-0.1 0-0.1 0-0.1-0.1-0.2-0.1 0-0.1 0-0.1 0-0.1-0.1 0 0 0 0 0 0 0.1 0 0.1 0 0.2 0.1 0 0 0.1 0.1 0 0.1 0 0.2 0 0.1 0 0.2-0.1 0.1-0.1 0.2-0.1 0.1-0.2 0.1-0.1 0-0.1 0v-0.1q0 0 0 0 0 0 0.1 0z"/>
	<path id="Layer" class="s0" d="m6.1 3.1q0 0 0 0.1 0 0 0 0 0 0 0 0-0.1 0-0.1 0l-0.4-0.8q0 0 0 0 0-0.1 0-0.1h0.1q0 0 0 0 0 0 0 0z"/>
	<path id="Layer" class="s0" d="m6.7 2.7q0 0 0 0 0 0.1-0.1 0.1 0 0.1 0 0.1-0.1 0-0.1-0.1-0.1 0-0.1 0-0.1-0.1-0.1-0.1 0 0 0 0 0 0.1 0 0.1 0 0-0.1 0 0 0 0 0 0-0.1 0-0.1 0.1-0.1 0.1-0.1 0 0 0.1 0.1 0 0 0.1 0 0 0.1 0.1 0.1 0 0 0 0 0 0 0-0.1 0 0 0 0 0 0 0 0z"/>
	<path id="Layer" class="s0" d="m9.5 3.1q0 0 0 0.1 0 0 0 0h-0.1q0 0 0 0 0 0 0 0l-0.4-0.8q0 0 0 0 0-0.1 0-0.1 0.1 0 0.1 0 0 0 0 0z"/>
	<path id="Layer" class="s0" d="m9.6 3q0 0 0 0h0.4q0 0 0 0 0 0.1 0 0.1h-0.4q0 0 0-0.1z"/>
	<path id="Layer" class="s2" d="m10.1 2.7q0 0 0.1 0h0.4q0 0 0 0v0.1q0 0 0 0h-0.4q-0.1 0-0.1 0z"/>
	<path id="Layer" class="s2" d="m10.7 2.6q0 0 0 0h0.4q0.1 0 0.1 0v0.1q0 0-0.1 0h-0.4q0 0 0 0zm0 0.2q0 0 0 0h0.4q0.1 0 0.1 0 0 0-0.1 0h-0.4q0 0 0 0z"/>
	<path id="Layer" class="s1" d="m11.3 2.6q0 0 0 0h0.4q0 0 0 0v0.1q0 0 0 0h-0.4q0 0 0 0zm0 0.2q0 0 0 0h0.4q0 0 0 0 0 0 0 0h-0.4q0 0 0 0z"/>
	<path id="Layer" class="s0" d="m11.9 3.1q0.1 0 0.1-0.1 0.1 0 0.1-0.1 0.1-0.1 0.1-0.2 0-0.1-0.1-0.1 0-0.1-0.1-0.2 0 0-0.1 0 0 0 0-0.1 0 0 0 0 0 0 0 0 0.1 0 0.2 0.1 0.1 0 0.1 0.1 0.1 0.1 0.1 0.2 0 0.1-0.1 0.2 0 0.1-0.1 0.2-0.1 0.1-0.2 0.1 0 0 0 0v-0.1q0 0 0 0 0 0 0 0z"/>
	<path id="Layer" class="s0" d="m1 4.1q0 0 0 0.1 0 0 0 0 0 0 0 0 0 0 0 0l-0.4-0.8q0 0 0 0 0-0.1 0-0.1 0 0 0 0 0 0 0 0z"/>
	<path id="Layer" class="s0" d="m4.9 3.3q0 0 0 0 0 0 0 0h0.1q0 0 0 0.1 0 0 0 0l-0.4 0.8q0 0 0 0 0 0-0.1 0 0 0 0 0 0-0.1 0-0.1z"/>
	<path id="Layer" class="s0" d="m5.7 4.1q0.1 0 0.1-0.1 0.1 0 0.1-0.1 0.1-0.1 0.1-0.2 0-0.1-0.1-0.1 0-0.1-0.1-0.2 0 0-0.1 0 0 0 0-0.1 0 0 0 0 0 0 0 0 0.1 0 0.2 0.1 0.1 0 0.1 0.1 0.1 0.1 0.1 0.2 0 0.1-0.1 0.2 0 0.1-0.1 0.2-0.1 0.1-0.2 0.1 0 0 0 0v-0.1q0 0 0 0 0 0 0 0z"/>
	<path id="Layer" class="s0" d="m6.6 3.3q0 0 0 0v0.4q0 0.2 0 0.2-0.1 0.1-0.2 0.1-0.1 0-0.2 0 0 0 0 0 0 0 0-0.1 0 0 0.1 0 0 0 0 0 0 0 0.1 0 0 0 0.1 0 0-0.1 0-0.2v-0.3h-0.2q0 0 0 0v-0.1q0 0 0 0z"/>
	<path id="Layer" class="s1" d="m7.2 3.7q0 0 0 0 0 0.1 0 0.1 0 0.1-0.1 0.1 0 0-0.1-0.1 0 0 0 0-0.1-0.1-0.1-0.1-0.1 0-0.1 0 0 0.1 0 0.1 0 0 0 0-0.1 0-0.1 0 0-0.1 0.1-0.1 0-0.1 0.1-0.1 0 0 0 0.1 0.1 0 0.1 0 0.1 0.1 0.1 0.1 0 0 0 0 0.1 0 0.1-0.1 0 0 0 0 0 0 0 0z"/>
	<path id="Layer" class="s1" d="m7.8 3.7q0 0 0 0 0 0.1 0 0.1-0.1 0.1-0.1 0.1-0.1 0-0.1-0.1 0 0-0.1 0 0-0.1-0.1-0.1 0 0 0 0 0 0.1 0 0.1 0 0 0 0h-0.1q0 0 0 0 0-0.1 0-0.1 0.1-0.1 0.1-0.1 0.1 0 0.1 0.1 0 0 0.1 0 0 0.1 0.1 0.1 0 0 0 0 0 0 0-0.1 0 0 0 0 0 0 0 0z"/>
	<path id="Layer" class="s0" d="m10.6 4.1q0 0 0 0.1 0 0 0 0 0 0 0 0-0.1 0-0.1 0l-0.4-0.8q0 0 0 0 0-0.1 0-0.1h0.1q0 0 0 0 0 0 0 0z"/>
	<path id="Layer" class="s2" d="m10.7 3.7q0 0 0 0h0.4q0.1 0 0.1 0v0.1q0 0-0.1 0h-0.4q0 0 0 0z"/>
	<path id="Layer" class="s2" d="m11.3 3.6q0 0 0 0h0.4q0 0 0 0v0.1q0 0 0 0h-0.4q0 0 0 0zm0 0.2q0 0 0 0h0.4q0 0 0 0 0 0 0 0h-0.4q0 0 0 0z"/>
	<path id="Layer" class="s0" d="m11.9 4.1q0.1 0 0.1-0.1 0.1 0 0.1-0.1 0.1-0.1 0.1-0.2 0-0.1-0.1-0.1 0-0.1-0.1-0.2 0 0-0.1 0 0 0 0-0.1 0 0 0 0 0 0 0 0 0.1 0 0.2 0.1 0.1 0 0.1 0.1 0.1 0.1 0.1 0.2 0 0.1-0.1 0.2 0 0.1-0.1 0.2-0.1 0.1-0.2 0.1 0 0 0 0v-0.1q0 0 0 0 0 0 0 0z"/>
	<path id="Layer" class="s0" d="m1.6 5.1q0 0 0 0.1 0 0 0 0 0 0 0 0-0.1 0-0.1 0l-0.4-0.8q0 0 0 0 0-0.1 0-0.1h0.1q0 0 0 0 0 0 0 0z"/>
	<path id="Layer" class="s0" d="m2.2 5.1q0 0 0 0.1 0 0 0 0h-0.1q0 0 0 0 0 0 0 0l-0.4-0.8q0 0 0 0 0-0.1 0-0.1 0 0 0 0 0.1 0 0.1 0z"/>
	<path id="Layer" class="s0" d="m2.3 5q0 0 0 0h0.4q0 0 0 0 0 0.1 0 0.1h-0.4q0 0 0-0.1z"/>
	<path id="Layer" class="s0" d="m2.8 5q0 0 0 0h0.5q0 0 0 0 0 0.1 0 0.1h-0.5q0 0 0-0.1z"/>
	<path id="Layer" class="s0" d="m3.4 5q0 0 0 0h0.4q0 0 0 0 0 0.1 0 0.1h-0.4q0 0 0-0.1z"/>
	<path id="Layer" class="s0" d="m4.3 4.3q0.1 0 0.1 0 0 0 0 0 0 0 0 0.1 0 0 0 0l-0.4 0.8q0 0 0 0 0 0 0 0-0.1 0-0.1 0 0-0.1 0-0.1z"/>
	<path id="Layer" class="s0" d="m5.7 5.1q0.1 0 0.1-0.1 0.1 0 0.1-0.1 0.1-0.1 0.1-0.2 0-0.1-0.1-0.1 0-0.1-0.1-0.2 0 0-0.1 0 0 0 0-0.1 0 0 0 0 0 0 0 0 0.1 0 0.2 0.1 0.1 0 0.1 0.1 0.1 0.1 0.1 0.2 0 0.1-0.1 0.2 0 0.1-0.1 0.2-0.1 0.1-0.2 0.1 0 0 0 0v-0.1q0 0 0 0 0 0 0 0z"/>
	<path id="Layer" class="s0" d="m6.6 4.3q0 0 0 0v0.4q0 0.2 0 0.2-0.1 0.1-0.2 0.1-0.1 0-0.2 0 0 0 0 0 0 0 0-0.1 0 0 0.1 0 0 0 0 0 0 0 0.1 0 0 0 0.1 0 0-0.1 0-0.2v-0.3h-0.2q0 0 0 0v-0.1q0 0 0 0z"/>
	<path id="Layer" class="s0" d="m7.2 4.3q0 0 0 0v0.4q0 0.2-0.1 0.2 0 0.1-0.2 0.1 0 0-0.1 0 0 0 0 0 0 0 0-0.1 0 0 0 0 0 0 0 0 0.1 0 0.1 0 0.1 0 0.2 0 0-0.1 0-0.2v-0.3h-0.2q0 0 0 0v-0.1q0 0 0 0z"/>
	<path id="Layer" class="s1" d="m7.8 4.7q0 0 0 0 0 0.1 0 0.1-0.1 0.1-0.1 0.1-0.1 0-0.1-0.1 0 0-0.1 0 0-0.1-0.1-0.1 0 0 0 0 0 0.1 0 0.1 0 0 0 0h-0.1q0 0 0 0 0-0.1 0-0.1 0.1-0.1 0.1-0.1 0.1 0 0.1 0.1 0 0 0.1 0 0 0.1 0.1 0.1 0 0 0 0 0 0 0-0.1 0 0 0 0 0 0 0 0z"/>
	<path id="Layer" class="s2" d="m8.3 4.7q0.1 0 0.1 0 0 0.1-0.1 0.1 0 0.1-0.1 0.1 0 0 0-0.1-0.1 0-0.1 0-0.1-0.1-0.1-0.1 0 0 0 0-0.1 0.1-0.1 0.1 0 0 0 0 0 0 0 0 0-0.1 0-0.1 0-0.1 0.1-0.1 0 0 0.1 0.1 0 0 0 0 0.1 0.1 0.1 0.1 0.1 0 0.1 0 0 0 0-0.1 0 0 0 0 0 0 0 0z"/>
	<path id="Layer" class="s2" d="m8.9 4.7q0 0 0 0 0 0.1 0 0.1 0 0.1-0.1 0.1 0 0-0.1-0.1 0 0 0 0-0.1-0.1-0.1-0.1-0.1 0-0.1 0 0 0.1 0 0.1 0 0 0 0-0.1 0-0.1 0 0-0.1 0.1-0.1 0-0.1 0.1-0.1 0 0 0 0.1 0.1 0 0.1 0 0.1 0.1 0.1 0.1 0 0 0 0 0 0 0-0.1 0 0 0.1 0 0 0 0 0z"/>
	<path id="Layer" class="s0" d="m11.2 5.1q0 0 0 0.1 0 0 0 0h-0.1q0 0 0 0 0 0 0 0l-0.4-0.8q0 0 0 0 0-0.1 0-0.1 0 0 0 0 0.1 0 0.1 0z"/>
	<path id="Layer" class="s0" d="m11.3 5.1q0.1 0 0.2-0.1 0 0 0.1-0.1 0-0.1 0-0.2 0-0.1 0-0.1-0.1-0.1-0.1-0.2-0.1 0-0.2 0 0 0 0-0.1 0 0 0 0 0 0 0 0 0.1 0 0.2 0.1 0.1 0 0.1 0.1 0.1 0.1 0.1 0.2 0 0.1-0.1 0.2 0 0.1-0.1 0.2-0.1 0.1-0.2 0.1 0 0 0 0v-0.1q0 0 0 0 0 0 0 0z"/>
	<path id="Layer" class="s0" d="m2.2 6.1q0 0 0 0.1 0 0 0 0h-0.1q0 0 0 0 0 0 0 0l-0.4-0.8q0 0 0 0 0-0.1 0-0.1 0 0 0 0 0.1 0 0.1 0z"/>
	<path id="Layer" class="s0" d="m2.3 6q0 0 0 0h0.4q0 0 0 0 0 0.1 0 0.1h-0.4q0 0 0-0.1z"/>
	<path id="Layer" class="s0" d="m2.8 6q0 0 0 0h0.5q0 0 0 0 0 0.1 0 0.1h-0.5q0 0 0-0.1z"/>
	<path id="Layer" class="s0" d="m3.4 6q0 0 0 0h0.4q0 0 0 0 0 0.1 0 0.1h-0.4q0 0 0-0.1z"/>
	<path id="Layer" class="s0" d="m3.9 6q0 0 0.1 0h0.4q0 0 0 0 0 0.1 0 0.1h-0.4q-0.1 0-0.1-0.1z"/>
	<path id="Layer" class="s0" d="m4.5 6q0 0 0 0h0.5q0 0 0 0 0 0.1 0 0.1h-0.5q0 0 0-0.1z"/>
	<path id="Layer" class="s0" d="m5.5 5.3q0 0 0 0 0 0 0 0 0 0 0 0.1 0 0 0 0l-0.4 0.8q0 0 0 0 0 0 0 0 0 0 0 0 0-0.1 0-0.1z"/>
	<path id="Layer" class="s0" d="m6 5.3q0.1 0 0.1 0v0.4q0 0.2-0.1 0.2-0.1 0.1-0.2 0.1 0 0-0.1 0 0 0 0 0 0 0 0-0.1 0 0 0 0 0 0 0 0 0.1 0 0.1 0 0.1 0 0.1 0 0.1-0.1 0.1-0.2v-0.3h-0.2q-0.1 0-0.1 0v-0.1q0 0 0.1 0z"/>
	<path id="Layer" class="s0" d="m6.6 5.3q0 0 0 0v0.4q0 0.2 0 0.2-0.1 0.1-0.2 0.1-0.1 0-0.2 0 0 0 0 0 0 0 0-0.1 0 0 0.1 0 0 0 0 0 0 0 0.1 0 0 0 0.1 0 0-0.1 0-0.2v-0.3h-0.2q0 0 0 0v-0.1q0 0 0 0z"/>
	<path id="Layer" class="s0" d="m7.2 5.3q0 0 0 0v0.4q0 0.2-0.1 0.2 0 0.1-0.2 0.1 0 0-0.1 0 0 0 0 0 0 0 0-0.1 0 0 0 0 0 0 0 0 0.1 0 0.1 0 0.1 0 0.2 0 0-0.1 0-0.2v-0.3h-0.2q0 0 0 0v-0.1q0 0 0 0z"/>
	<path id="Layer" class="s1" d="m7.8 5.7q0 0 0 0 0 0.1 0 0.1-0.1 0.1-0.1 0.1-0.1 0-0.1-0.1 0 0-0.1 0 0-0.1-0.1-0.1 0 0 0 0 0 0.1 0 0.1 0 0 0 0h-0.1q0 0 0 0 0-0.1 0-0.1 0.1-0.1 0.1-0.1 0.1 0 0.1 0.1 0 0 0.1 0 0 0.1 0.1 0.1 0 0 0 0 0 0 0-0.1 0 0 0 0 0 0 0 0z"/>
	<path id="Layer" class="s1" d="m8.3 5.7q0.1 0 0.1 0 0 0.1-0.1 0.1 0 0.1-0.1 0.1 0 0 0-0.1-0.1 0-0.1 0-0.1-0.1-0.1-0.1 0 0 0 0-0.1 0.1-0.1 0.1 0 0 0 0 0 0 0 0 0-0.1 0-0.1 0-0.1 0.1-0.1 0 0 0.1 0.1 0 0 0 0 0.1 0.1 0.1 0.1 0.1 0 0.1 0 0 0 0-0.1 0 0 0 0 0 0 0 0z"/>
	<path id="Layer" class="s2" d="m8.9 5.7q0 0 0 0 0 0.1 0 0.1 0 0.1-0.1 0.1 0 0-0.1-0.1 0 0 0 0-0.1-0.1-0.1-0.1-0.1 0-0.1 0 0 0.1 0 0.1 0 0 0 0-0.1 0-0.1 0 0-0.1 0.1-0.1 0-0.1 0.1-0.1 0 0 0 0.1 0.1 0 0.1 0 0.1 0.1 0.1 0.1 0 0 0 0 0 0 0-0.1 0 0 0.1 0 0 0 0 0z"/>
	<path id="Layer" class="s2" d="m9.5 5.7q0 0 0 0 0 0.1 0 0.1-0.1 0.1-0.1 0.1-0.1 0-0.1-0.1 0 0-0.1 0 0-0.1-0.1-0.1 0 0 0 0 0 0.1 0 0.1 0 0-0.1 0 0 0 0 0 0-0.1 0-0.1 0.1-0.1 0.1-0.1 0.1 0 0.1 0.1 0 0 0.1 0 0 0.1 0.1 0.1 0 0 0 0 0 0 0-0.1 0 0 0 0 0 0 0 0z"/>
	<path id="Layer" class="s0" d="m12.3 6.1q0 0 0 0.1 0 0 0 0-0.1 0-0.1 0 0 0 0 0l-0.4-0.8q0 0 0 0 0-0.1 0-0.1h0.1q0 0 0 0 0 0 0 0z"/>
	<path id="Layer" class="s1" d="m2.1 6.3q0 0 0 0 0 0 0 0h0.1q0 0 0 0.1 0 0 0 0l-0.4 0.8q0 0-0.1 0 0 0 0 0 0 0 0 0 0-0.1 0-0.1z"/>
	<path id="Layer" class="s0" d="m3.3 7.1q0 0 0 0.1 0 0 0 0-0.1 0-0.1 0 0 0 0 0l-0.4-0.8q0 0 0 0 0-0.1 0-0.1h0.1q0 0 0 0 0 0 0 0z"/>
	<path id="Layer" class="s2" d="m4.8 6.9q0 0 0 0v0.1q0 0.1 0 0.1 0 0.1-0.1 0.1 0 0-0.1 0 0 0 0 0 0 0 0 0 0.1 0 0.1-0.1 0 0 0-0.1 0 0 0 0v-0.1q0 0 0 0z"/>
	<path id="Layer" class="s2" d="m6.1 7.1q0 0 0 0.1 0 0 0 0 0 0 0 0-0.1 0-0.1 0l-0.4-0.8q0 0 0 0 0-0.1 0-0.1h0.1q0 0 0 0 0 0 0 0z"/>
	<path id="Layer" class="s0" d="m6.6 6.3q0 0 0 0v0.4q0 0.2 0 0.2-0.1 0.1-0.2 0.1-0.1 0-0.2 0 0 0 0 0 0 0 0-0.1 0 0 0.1 0 0 0 0 0 0 0 0.1 0 0 0 0.1 0 0-0.1 0-0.2v-0.3h-0.2q0 0 0 0v-0.1q0 0 0 0z"/>
	<path id="Layer" class="s1" d="m7.2 6.7q0 0 0 0 0 0.1 0 0.1 0 0.1-0.1 0.1 0 0-0.1-0.1 0 0 0 0-0.1-0.1-0.1-0.1-0.1 0-0.1 0 0 0.1 0 0.1 0 0 0 0-0.1 0-0.1 0 0-0.1 0.1-0.1 0-0.1 0.1-0.1 0 0 0 0.1 0.1 0 0.1 0 0.1 0.1 0.1 0.1 0 0 0 0 0.1 0 0.1-0.1 0 0 0 0 0 0 0 0z"/>
	<path id="Layer" class="s1" d="m7.8 6.7q0 0 0 0 0 0.1 0 0.1-0.1 0.1-0.1 0.1-0.1 0-0.1-0.1 0 0-0.1 0 0-0.1-0.1-0.1 0 0 0 0 0 0.1 0 0.1 0 0 0 0h-0.1q0 0 0 0 0-0.1 0-0.1 0.1-0.1 0.1-0.1 0.1 0 0.1 0.1 0 0 0.1 0 0 0.1 0.1 0.1 0 0 0 0 0 0 0-0.1 0 0 0 0 0 0 0 0z"/>
	<path id="Layer" class="s1" d="m8.3 6.7q0.1 0 0.1 0 0 0.1-0.1 0.1 0 0.1-0.1 0.1 0 0 0-0.1-0.1 0-0.1 0-0.1-0.1-0.1-0.1 0 0 0 0-0.1 0.1-0.1 0.1 0 0 0 0 0 0 0 0 0-0.1 0-0.1 0-0.1 0.1-0.1 0 0 0.1 0.1 0 0 0 0 0.1 0.1 0.1 0.1 0.1 0 0.1 0 0 0 0-0.1 0 0 0 0 0 0 0 0z"/>
	<path id="Layer" class="s2" d="m8.9 6.7q0 0 0 0 0 0.1 0 0.1 0 0.1-0.1 0.1 0 0-0.1-0.1 0 0 0 0-0.1-0.1-0.1-0.1-0.1 0-0.1 0 0 0.1 0 0.1 0 0 0 0-0.1 0-0.1 0 0-0.1 0.1-0.1 0-0.1 0.1-0.1 0 0 0 0.1 0.1 0 0.1 0 0.1 0.1 0.1 0.1 0 0 0 0 0 0 0-0.1 0 0 0.1 0 0 0 0 0z"/>
	<path id="Layer" class="s2" d="m9.5 6.7q0 0 0 0 0 0.1 0 0.1-0.1 0.1-0.1 0.1-0.1 0-0.1-0.1 0 0-0.1 0 0-0.1-0.1-0.1 0 0 0 0 0 0.1 0 0.1 0 0-0.1 0 0 0 0 0 0-0.1 0-0.1 0.1-0.1 0.1-0.1 0.1 0 0.1 0.1 0 0 0.1 0 0 0.1 0.1 0.1 0 0 0 0 0 0 0-0.1 0 0 0 0 0 0 0 0z"/>
	<path id="Layer" class="s1" d="m12.9 7.1q0 0 0 0.1 0 0-0.1 0 0 0 0 0 0 0 0 0l-0.4-0.8q0 0 0 0 0-0.1 0-0.1 0 0 0 0 0 0 0.1 0z"/>
	<path id="Layer" class="s1" d="m1.5 8.1q0 0 0 0 0 0 0 0v0.1q0 0 0 0-0.1 0-0.2-0.1 0-0.1-0.1-0.2 0-0.1 0-0.2 0-0.1 0-0.2 0.1-0.1 0.1-0.1 0.1-0.1 0.2-0.1 0 0 0 0 0 0 0 0 0 0.1 0 0.1-0.1 0-0.1 0-0.1 0.1-0.1 0.2 0 0 0 0.1 0 0.1 0 0.2 0 0.1 0.1 0.1 0 0.1 0.1 0.1z"/>
	<path id="Layer" class="s1" d="m1.7 7.7q0 0 0 0h0.4q0.1 0 0.1 0v0.1q0 0-0.1 0h-0.4q0 0 0 0z"/>
	<path id="Layer" class="s2" d="m2.7 8.1q0 0 0 0.1 0 0 0 0 0 0 0 0 0 0 0 0l-0.4-0.8q0 0 0 0 0-0.1 0-0.1 0 0 0 0 0 0 0 0z"/>
	<path id="Layer" class="s2" d="m2.9 8.1q0.1 0 0.1-0.1 0.1 0 0.1-0.1 0.1-0.1 0.1-0.2 0-0.1-0.1-0.1 0-0.1-0.1-0.2 0 0-0.1 0 0 0 0-0.1 0 0 0 0 0 0 0 0 0.1 0 0.2 0.1 0.1 0 0.1 0.1 0.1 0.1 0.1 0.2 0 0.1-0.1 0.2 0 0.1-0.1 0.2-0.1 0.1-0.2 0.1 0 0 0 0v-0.1q0 0 0 0 0 0 0 0z"/>
	<path id="Layer" class="s0" d="m3.9 8.1q0 0 0 0.1 0 0-0.1 0 0 0 0 0 0 0 0 0l-0.4-0.8q0 0 0 0 0-0.1 0-0.1 0 0 0 0 0 0 0.1 0z"/>
	<path id="Layer" class="s0" d="m3.9 7.6q0 0 0.1 0h0.4q0 0 0 0v0.1q0 0 0 0h-0.4q-0.1 0-0.1 0zm0 0.2q0 0 0.1 0h0.4q0 0 0 0 0 0 0 0h-0.4q-0.1 0-0.1 0z"/>
	<path id="Layer" class="s1" d="m4.8 7.3q0 0 0 0v0.8q0 0.1 0 0.1h-0.1q0 0 0-0.1v-0.8q0 0 0 0z"/>
	<path id="Layer" class="s2" d="m5.5 8.1q0 0 0 0.1 0 0 0 0 0 0 0 0 0 0 0 0l-0.4-0.8q0 0 0 0 0-0.1 0-0.1 0 0 0 0 0 0 0 0z"/>
	<path id="Layer" class="s2" d="m6.1 8.1q0 0 0 0.1 0 0 0 0 0 0 0 0-0.1 0-0.1 0l-0.4-0.8q0 0 0 0 0-0.1 0-0.1h0.1q0 0 0 0 0 0 0 0z"/>
	<path id="Layer" class="s2" d="m6.7 8.1q0 0 0 0.1 0 0 0 0h-0.1q0 0 0 0 0 0 0 0l-0.4-0.8q0 0 0 0 0-0.1 0-0.1 0 0 0 0 0.1 0 0.1 0z"/>
	<path id="Layer" class="s1" d="m7.2 7.7q0 0 0 0 0 0.1 0 0.1 0 0.1-0.1 0.1 0 0-0.1-0.1 0 0 0 0-0.1-0.1-0.1-0.1-0.1 0-0.1 0 0 0.1 0 0.1 0 0 0 0-0.1 0-0.1 0 0-0.1 0.1-0.1 0-0.1 0.1-0.1 0 0 0 0.1 0.1 0 0.1 0 0.1 0.1 0.1 0.1 0 0 0 0 0.1 0 0.1-0.1 0 0 0 0 0 0 0 0z"/>
	<path id="Layer" class="s1" d="m7.8 7.7q0 0 0 0 0 0.1 0 0.1-0.1 0.1-0.1 0.1-0.1 0-0.1-0.1 0 0-0.1 0 0-0.1-0.1-0.1 0 0 0 0 0 0.1 0 0.1 0 0 0 0h-0.1q0 0 0 0 0-0.1 0-0.1 0.1-0.1 0.1-0.1 0.1 0 0.1 0.1 0 0 0.1 0 0 0.1 0.1 0.1 0 0 0 0 0 0 0-0.1 0 0 0 0 0 0 0 0z"/>
	<path id="Layer" class="s2" d="m8.3 7.7q0.1 0 0.1 0 0 0.1-0.1 0.1 0 0.1-0.1 0.1 0 0 0-0.1-0.1 0-0.1 0-0.1-0.1-0.1-0.1 0 0 0 0-0.1 0.1-0.1 0.1 0 0 0 0 0 0 0 0 0-0.1 0-0.1 0-0.1 0.1-0.1 0 0 0.1 0.1 0 0 0 0 0.1 0.1 0.1 0.1 0.1 0 0.1 0 0 0 0-0.1 0 0 0 0 0 0 0 0z"/>
	<path id="Layer" class="s2" d="m8.9 7.7q0 0 0 0 0 0.1 0 0.1 0 0.1-0.1 0.1 0 0-0.1-0.1 0 0 0 0-0.1-0.1-0.1-0.1-0.1 0-0.1 0 0 0.1 0 0.1 0 0 0 0-0.1 0-0.1 0 0-0.1 0.1-0.1 0-0.1 0.1-0.1 0 0 0 0.1 0.1 0 0.1 0 0.1 0.1 0.1 0.1 0 0 0 0 0 0 0-0.1 0 0 0.1 0 0 0 0 0z"/>
	<path id="Layer" class="s1" d="m13.4 7.9q0 0 0 0v0.1q0 0 0 0h-0.4q0 0 0 0v-0.7q0 0 0 0 0.1 0 0.1 0v0.6z"/>
	<path id="Layer" class="s1" d="m13.5 8q0 0 0 0h0.4q0.1 0 0.1 0 0 0.1-0.1 0.1h-0.4q0 0 0-0.1z"/>
	<path id="Layer" class="s2" d="m14.1 8q0 0 0 0h0.4q0 0 0 0 0 0.1 0 0.1h-0.4q0 0 0-0.1z"/>
	<path id="Layer" class="s1" d="m1.5 9.1q0 0 0 0 0 0 0 0v0.1q0 0 0 0-0.1 0-0.2-0.1 0-0.1-0.1-0.2 0-0.1 0-0.2 0-0.1 0-0.2 0.1-0.1 0.1-0.1 0.1-0.1 0.2-0.1 0 0 0 0 0 0 0 0 0 0.1 0 0.1-0.1 0-0.1 0-0.1 0.1-0.1 0.2 0 0 0 0.1 0 0.1 0 0.2 0 0.1 0.1 0.1 0 0.1 0.1 0.1z"/>
	<path id="Layer" class="s0" d="m2.2 9.1q0 0 0 0.1 0 0 0 0h-0.1q0 0 0 0 0 0 0 0l-0.4-0.8q0 0 0 0 0-0.1 0-0.1 0 0 0 0 0.1 0 0.1 0z"/>
	<path id="Layer" class="s1" d="m2.7 9.1q0 0 0 0.1 0 0 0 0 0 0 0 0 0 0 0 0l-0.4-0.8q0 0 0 0 0-0.1 0-0.1 0 0 0 0 0 0 0 0z"/>
	<path id="Layer" class="s1" d="m2.9 9.1q0.1 0 0.1-0.1 0.1 0 0.1-0.1 0.1-0.1 0.1-0.2 0-0.1-0.1-0.1 0-0.1-0.1-0.2 0 0-0.1 0 0 0 0-0.1 0 0 0 0 0 0 0 0 0.1 0 0.2 0.1 0.1 0 0.1 0.1 0.1 0.1 0.1 0.2 0 0.1-0.1 0.2 0 0.1-0.1 0.2-0.1 0.1-0.2 0.1 0 0 0 0v-0.1q0 0 0 0 0 0 0 0z"/>
	<path id="Layer" class="s1" d="m4.9 9.1q0 0 0 0 0 0 0 0v0.1q0 0 0 0-0.1 0-0.2-0.1-0.1-0.1-0.1-0.2-0.1-0.1-0.1-0.2 0-0.1 0.1-0.2 0-0.1 0.1-0.1 0.1-0.1 0.2-0.1 0 0 0 0 0 0 0 0 0 0.1 0 0.1-0.1 0-0.1 0-0.1 0.1-0.1 0.2-0.1 0-0.1 0.1 0 0.1 0.1 0.2 0 0.1 0.1 0.1 0 0.1 0.1 0.1z"/>
	<path id="Layer" class="s2" d="m5.5 9.1q0 0 0 0.1 0 0 0 0 0 0 0 0 0 0 0 0l-0.4-0.8q0 0 0 0 0-0.1 0-0.1 0 0 0 0 0 0 0 0z"/>
	<path id="Layer" class="s1" d="m6.1 9.1q0 0 0 0.1 0 0 0 0 0 0 0 0-0.1 0-0.1 0l-0.4-0.8q0 0 0 0 0-0.1 0-0.1h0.1q0 0 0 0 0 0 0 0z"/>
	<path id="Layer" class="s1" d="m6.7 9.1q0 0 0 0.1 0 0 0 0h-0.1q0 0 0 0 0 0 0 0l-0.4-0.8q0 0 0 0 0-0.1 0-0.1 0 0 0 0 0.1 0 0.1 0z"/>
	<path id="Layer" class="s1" d="m6.8 9.1q0.1 0 0.2-0.1 0 0 0.1-0.1 0-0.1 0-0.2 0-0.1 0-0.1-0.1-0.1-0.1-0.2-0.1 0-0.2 0 0 0 0-0.1 0 0 0 0 0 0 0 0 0.1 0 0.2 0.1 0.1 0 0.1 0.1 0.1 0.1 0.1 0.2 0 0.1-0.1 0.2 0 0.1-0.1 0.2-0.1 0.1-0.2 0.1 0 0 0 0v-0.1q0 0 0 0 0 0 0 0z"/>
	<path id="Layer" class="s0" d="m7.3 9q0 0 0 0h0.5q0 0 0 0 0 0.1 0 0.1h-0.5q0 0 0-0.1z"/>
	<path id="Layer" class="s2" d="m14.5 9.1q0 0 0 0.1 0 0 0 0 0 0 0 0 0 0 0 0l-0.4-0.8q0 0 0 0 0-0.1 0-0.1 0 0 0 0 0 0 0 0z"/>
	<path id="Layer" class="s2" d="m14.6 8.6q0 0 0.1 0h0.4q0 0 0 0v0.1q0 0 0 0h-0.4q-0.1 0-0.1 0zm0 0.2q0 0 0.1 0h0.4q0 0 0 0 0 0 0 0h-0.4q-0.1 0-0.1 0z"/>
	<path id="Layer" class="s2" d="m15.2 8.6q0 0 0 0h0.4q0.1 0 0.1 0v0.1q0 0-0.1 0h-0.4q0 0 0 0zm0 0.2q0 0 0 0h0.4q0.1 0 0.1 0 0 0-0.1 0h-0.4q0 0 0 0z"/>
	<path id="Layer" class="s1" d="m15.8 9q0 0 0 0h0.4q0 0 0 0 0 0.1 0 0.1h-0.4q0 0 0-0.1z"/>
	<path id="Layer" class="s1" d="m16.3 9q0 0 0 0h0.5q0 0 0 0 0 0.1 0 0.1h-0.5q0 0 0-0.1z"/>
	<path id="Layer" class="s0" d="m2.2 10.1q0 0 0 0.1 0 0 0 0h-0.1q0 0 0 0 0 0 0 0l-0.4-0.8q0 0 0 0 0-0.1 0-0.1 0 0 0 0 0.1 0 0.1 0z"/>
	<path id="Layer" class="s0" d="m2.6 9.9q0 0.1 0 0.1-0.1 0-0.1 0-0.1 0-0.1 0 0 0 0-0.1l-0.2-0.6q0 0 0 0 0 0 0 0 0 0 0 0h0.1q0 0 0 0l0.2 0.6q0 0 0 0 0 0 0 0 0 0 0 0 0 0 0 0l0.2-0.6q0 0 0 0 0.1 0 0.1 0 0 0 0 0z"/>
	<path id="Layer" class="s1" d="m5.5 10.1q0 0 0 0.1 0 0 0 0 0 0 0 0 0 0 0 0l-0.4-0.8q0 0 0 0 0-0.1 0-0.1 0 0 0 0 0 0 0 0z"/>
	<path id="Layer" class="s1" d="m6.1 10.1q0 0 0 0.1 0 0 0 0 0 0 0 0-0.1 0-0.1 0l-0.4-0.8q0 0 0 0 0-0.1 0-0.1h0.1q0 0 0 0 0 0 0 0z"/>
	<path id="Layer" class="s0" d="m6.7 10.1q0 0 0 0.1 0 0 0 0h-0.1q0 0 0 0 0 0 0 0l-0.4-0.8q0 0 0 0 0-0.1 0-0.1 0 0 0 0 0.1 0 0.1 0z"/>
	<path id="Layer" class="s0" d="m6.8 10.1q0.1 0 0.2-0.1 0 0 0.1-0.1 0-0.1 0-0.2 0-0.1 0-0.1-0.1-0.1-0.1-0.2-0.1 0-0.2 0 0 0 0-0.1 0 0 0 0 0 0 0 0 0.1 0 0.2 0.1 0.1 0 0.1 0.1 0.1 0.1 0.1 0.2 0 0.1-0.1 0.2 0 0.1-0.1 0.2-0.1 0.1-0.2 0.1 0 0 0 0v-0.1q0 0 0 0 0 0 0 0z"/>
	<path id="Layer" class="s0" d="m7.9 9.6q0 0 0 0h0.4q0 0 0 0v0.1q0 0 0 0h-0.4q0 0 0 0zm0 0.2q0 0 0 0h0.4q0 0 0 0 0 0 0 0h-0.4q0 0 0 0z"/>
	<path id="Layer" class="s0" d="m8.4 9.6q0 0 0.1 0h0.4q0 0 0 0v0.1q0 0 0 0h-0.4q-0.1 0-0.1 0zm0 0.2q0 0 0.1 0h0.4q0 0 0 0 0 0 0 0h-0.4q-0.1 0-0.1 0z"/>
	<path id="Layer" class="s1" d="m9 9.6q0 0 0 0h0.4q0.1 0 0.1 0v0.1q0 0-0.1 0h-0.4q0 0 0 0zm0 0.2q0 0 0 0h0.4q0.1 0 0.1 0 0 0-0.1 0h-0.4q0 0 0 0z"/>
	<path id="Layer" class="s1" d="m9.6 10q0 0 0 0h0.4q0 0 0 0 0 0.1 0 0.1h-0.4q0 0 0-0.1z"/>
	<path id="Layer" class="s1" d="m10.1 10q0 0 0.1 0h0.4q0 0 0 0 0 0.1 0 0.1h-0.4q-0.1 0-0.1-0.1z"/>
	<path id="Layer" class="s1" d="m10.7 10q0 0 0 0h0.4q0.1 0 0.1 0 0 0.1-0.1 0.1h-0.4q0 0 0-0.1z"/>
	<path id="Layer" class="s1" d="m11.3 10q0 0 0 0h0.4q0 0 0 0 0 0.1 0 0.1h-0.4q0 0 0-0.1z"/>
	<path id="Layer" class="s1" d="m11.8 10q0 0 0 0h0.5q0 0 0 0 0 0.1 0 0.1h-0.5q0 0 0-0.1z"/>
	<path id="Layer" class="s2" d="m14.5 10.1q0 0 0 0.1 0 0 0 0 0 0 0 0 0 0 0 0l-0.4-0.8q0 0 0 0 0-0.1 0-0.1 0 0 0 0 0 0 0 0z"/>
	<path id="Layer" class="s2" d="m15.1 10.1q0 0 0 0.1 0 0 0 0 0 0 0 0-0.1 0-0.1 0l-0.4-0.8q0 0 0 0 0-0.1 0-0.1h0.1q0 0 0 0 0 0 0 0z"/>
	<path id="Layer" class="s2" d="m15.7 10.1q0 0 0 0.1 0 0 0 0h-0.1q0 0 0 0 0 0 0 0l-0.4-0.8q0 0 0 0 0-0.1 0-0.1 0 0 0 0 0.1 0 0.1 0z"/>
	<path id="Layer" class="s2" d="m16.2 10.1q0 0 0 0.1 0 0 0 0 0 0 0 0 0 0 0 0l-0.4-0.8q0 0 0 0 0-0.1 0-0.1 0 0 0 0 0 0 0 0z"/>
	<path id="Layer" class="s1" d="m16.8 10.1q0 0 0 0.1 0 0 0 0-0.1 0-0.1 0 0 0 0 0l-0.4-0.8q0 0 0 0 0-0.1 0-0.1h0.1q0 0 0 0 0 0 0 0z"/>
	<path id="Layer" class="s1" d="m17.4 10.1q0 0 0 0.1 0 0-0.1 0 0 0 0 0 0 0 0 0l-0.4-0.8q0 0 0 0 0-0.1 0-0.1 0 0 0 0 0 0 0.1 0z"/>
	<path id="Layer" class="s0" d="m6.1 11.1q0 0 0 0.1 0 0 0 0 0 0 0 0-0.1 0-0.1 0l-0.4-0.8q0 0 0 0 0-0.1 0-0.1h0.1q0 0 0 0 0 0 0 0z"/>
	<path id="Layer" class="s0" d="m6.5 10.9q0 0.1 0 0.1 0 0-0.1 0 0 0 0 0-0.1 0-0.1-0.1l-0.1-0.6q0 0 0 0 0 0 0 0 0 0 0 0 0 0 0 0l0.2 0.6q0 0 0 0 0 0 0 0 0 0 0.1 0 0 0 0 0l0.1-0.6q0 0 0 0h0.1q0 0 0 0 0 0 0 0z"/>
	<path id="Layer" class="s0" d="m6.8 11.1q0.1 0 0.2-0.1 0 0 0.1-0.1 0-0.1 0-0.2 0-0.1 0-0.1-0.1-0.1-0.1-0.2-0.1 0-0.2 0 0 0 0-0.1 0 0 0 0 0 0 0 0 0.1 0 0.2 0.1 0.1 0 0.1 0.1 0.1 0.1 0.1 0.2 0 0.1-0.1 0.2 0 0.1-0.1 0.2-0.1 0.1-0.2 0.1 0 0 0 0v-0.1q0 0 0 0 0 0 0 0z"/>
	<path id="Layer" class="s0" d="m10.6 11.1q0 0 0 0.1 0 0 0 0 0 0 0 0-0.1 0-0.1 0l-0.4-0.8q0 0 0 0 0-0.1 0-0.1h0.1q0 0 0 0 0 0 0 0z"/>
	<path id="Layer" class="s0" d="m10.7 11q0 0 0 0h0.4q0.1 0 0.1 0 0 0.1-0.1 0.1h-0.4q0 0 0-0.1z"/>
	<path id="Layer" class="s0" d="m11.3 11.1q0.1 0 0.2-0.1 0 0 0.1-0.1 0-0.1 0-0.2 0-0.1 0-0.1-0.1-0.1-0.1-0.2-0.1 0-0.2 0 0 0 0-0.1 0 0 0 0 0 0 0 0 0.1 0 0.2 0.1 0.1 0 0.1 0.1 0.1 0.1 0.1 0.2 0 0.1-0.1 0.2 0 0.1-0.1 0.2-0.1 0.1-0.2 0.1 0 0 0 0v-0.1q0 0 0 0 0 0 0 0z"/>
	<path id="Layer" class="s1" d="m12.9 11.1q0 0 0 0.1 0 0-0.1 0 0 0 0 0 0 0 0 0l-0.4-0.8q0 0 0 0 0-0.1 0-0.1 0 0 0 0 0 0 0.1 0z"/>
	<path id="Layer" class="s1" d="m13.4 11.1q0 0 0 0.1 0 0 0 0 0 0 0 0 0 0-0.1 0l-0.4-0.8q0 0 0 0 0-0.1 0.1-0.1 0 0 0 0 0 0 0 0z"/>
	<path id="Layer" class="s2" d="m14 11.1q0 0 0 0.1 0 0 0 0h-0.1q0 0 0 0 0 0 0 0l-0.4-0.8q0 0 0 0 0-0.1 0-0.1 0.1 0 0.1 0 0 0 0 0z"/>
	<path id="Layer" class="s2" d="m14.5 11.1q0 0 0 0.1 0 0 0 0 0 0 0 0 0 0 0 0l-0.4-0.8q0 0 0 0 0-0.1 0-0.1 0 0 0 0 0 0 0 0z"/>
	<path id="Layer" class="s2" d="m15 10.3q0.1 0 0.1 0v0.4q0 0.2-0.1 0.2-0.1 0.1-0.2 0.1 0 0-0.1 0 0 0 0 0 0 0 0-0.1 0 0 0 0 0 0 0 0 0.1 0 0.1 0 0.1 0 0.1 0 0.1-0.1 0.1-0.2v-0.3h-0.2q-0.1 0-0.1 0v-0.1q0 0 0.1 0z"/>
	<path id="Layer" class="s2" d="m15.6 10.3q0 0 0 0v0.4q0 0.2 0 0.2-0.1 0.1-0.2 0.1-0.1 0-0.2 0 0 0 0 0 0 0 0-0.1 0 0 0.1 0 0 0 0 0 0 0 0.1 0 0 0 0.1 0 0-0.1 0-0.2v-0.3h-0.2q0 0 0 0v-0.1q0 0 0 0z"/>
	<path id="Layer" class="s2" d="m16.2 11.1q0 0 0 0.1 0 0 0 0 0 0 0 0 0 0 0 0l-0.4-0.8q0 0 0 0 0-0.1 0-0.1 0 0 0 0 0 0 0 0z"/>
	<path id="Layer" class="s1" d="m16.7 10.3q0.1 0 0.1 0v0.4q0 0.2-0.1 0.2-0.1 0.1-0.2 0.1-0.1 0-0.1 0 0 0 0 0 0 0 0-0.1 0 0 0 0 0 0 0 0 0.1 0 0.1 0 0.1 0 0.1 0 0.1-0.1 0.1-0.2v-0.3h-0.2q-0.1 0-0.1 0v-0.1q0 0 0.1 0z"/>
	<path id="Layer" class="s1" d="m17.4 11.1q0 0 0 0.1 0 0-0.1 0 0 0 0 0 0 0 0 0l-0.4-0.8q0 0 0 0 0-0.1 0-0.1 0 0 0 0 0 0 0.1 0z"/>
	<path id="Layer" class="s1" d="m17.5 11.1q0.1 0 0.2-0.1 0 0 0.1-0.1 0-0.1 0-0.2 0-0.1 0-0.1-0.1-0.1-0.1-0.2-0.1 0-0.2 0 0 0 0-0.1 0 0 0 0 0 0 0 0 0.1 0 0.2 0.1 0.1 0 0.1 0.1 0.1 0.1 0.1 0.2 0 0.1-0.1 0.2 0 0.1-0.1 0.2-0.1 0.1-0.2 0.1 0 0 0 0v-0.1q0 0 0 0 0 0 0 0z"/>
	<path id="Layer" class="s0" d="m12.8 11.3q0 0 0 0 0 0 0 0 0.1 0 0.1 0.1 0 0 0 0l-0.4 0.8q-0.1 0-0.1 0 0 0 0 0 0 0 0 0 0-0.1 0-0.1z"/>
	<path id="Layer" class="s1" d="m13.4 11.3q0 0 0 0v0.4q0 0.2-0.1 0.2-0.1 0.1-0.2 0.1 0 0-0.1 0 0 0 0 0 0 0 0-0.1 0 0 0 0 0 0 0 0 0.1 0 0.1 0 0.1 0 0.1 0 0.1-0.1 0.1-0.2v-0.3h-0.2q0 0 0 0v-0.1q0 0 0 0z"/>
	<path id="Layer" class="s2" d="m14 12.1q0 0 0 0.1 0 0 0 0h-0.1q0 0 0 0 0 0 0 0l-0.4-0.8q0 0 0 0 0-0.1 0-0.1 0.1 0 0.1 0 0 0 0 0z"/>
	<path id="Layer" class="s1" d="m14.5 11.3q0 0 0 0v0.4q0 0.2-0.1 0.2 0 0.1-0.1 0.1-0.1 0-0.2 0 0 0 0 0 0 0 0-0.1 0 0 0 0 0 0 0 0 0.1 0 0.2 0 0 0 0.1 0 0-0.1 0-0.2v-0.3h-0.2q0 0 0 0v-0.1q0 0 0 0z"/>
	<path id="Layer" class="s0" d="m15.1 11.4q0 0 0 0h-0.2v0.6q0 0 0 0h-0.1q0 0 0 0v-0.6h-0.2q0 0 0 0v-0.1q0 0 0 0h0.5q0 0 0 0z"/>
	<path id="Layer" class="s0" d="m15.7 12.1q0 0 0 0.1 0 0 0 0h-0.1q0 0 0 0 0 0 0 0l-0.4-0.8q0 0 0 0 0-0.1 0-0.1 0 0 0 0 0.1 0 0.1 0z"/>
	<path id="Layer" class="s1" d="m16.2 11.3q0 0 0 0v0.4q0 0.2-0.1 0.2 0 0.1-0.2 0.1 0 0-0.1 0 0 0 0 0 0 0 0-0.1 0 0 0 0 0 0 0 0 0.1 0 0.1 0 0.1 0 0.2 0 0-0.1 0-0.2v-0.3h-0.2q0 0 0 0v-0.1q0 0 0 0z"/>
	<path id="Layer" class="s1" d="m16.7 11.3q0.1 0 0.1 0v0.4q0 0.2-0.1 0.2-0.1 0.1-0.2 0.1-0.1 0-0.1 0 0 0 0 0 0 0 0-0.1 0 0 0 0 0 0 0 0 0.1 0 0.1 0 0.1 0 0.1 0 0.1-0.1 0.1-0.2v-0.3h-0.2q-0.1 0-0.1 0v-0.1q0 0 0.1 0z"/>
	<path id="Layer" class="s1" d="m17.3 11.3q0 0 0 0v0.4q0 0.2-0.1 0.2 0 0.1-0.1 0.1-0.1 0-0.2 0 0 0 0 0 0 0 0-0.1 0 0 0 0 0.1 0 0.1 0 0 0 0.1 0 0 0 0.1 0 0-0.1 0-0.2v-0.3h-0.2q0 0 0 0v-0.1q0 0 0 0z"/>
	<path id="Layer" class="s0" d="m17.9 11.3q0 0 0 0v0.4q0 0.2-0.1 0.2-0.1 0.1-0.2 0.1 0 0-0.1 0 0 0 0 0 0 0 0-0.1 0 0 0 0 0 0 0 0 0.1 0 0.1 0 0.1 0 0.1 0 0.1-0.1 0.1-0.2v-0.3h-0.2q0 0 0 0v-0.1q0 0 0 0z"/>
	<path id="Layer" class="s0" d="m18.1 12.1q0.1 0 0.1-0.1 0.1 0 0.1-0.1 0.1-0.1 0.1-0.2 0-0.1-0.1-0.1 0-0.1-0.1-0.2 0 0-0.1 0 0 0 0-0.1 0 0 0 0 0 0 0 0 0.1 0 0.2 0.1 0.1 0 0.1 0.1 0 0.1 0 0.2 0 0.1 0 0.2 0 0.1-0.1 0.2-0.1 0.1-0.2 0.1 0 0 0 0v-0.1q0 0 0 0 0 0 0 0z"/>
	<path id="Layer" class="s0" d="m12.8 13.1q0 0 0 0 0 0 0 0v0.1q0 0 0 0-0.1 0-0.2-0.1-0.1-0.1-0.1-0.2-0.1-0.1-0.1-0.2 0-0.1 0.1-0.2 0-0.1 0.1-0.1 0.1-0.1 0.2-0.1 0 0 0 0 0 0 0 0 0 0.1 0 0.1-0.1 0-0.2 0 0 0.1-0.1 0.2 0 0 0 0.1 0 0.1 0 0.2 0.1 0.1 0.1 0.1 0.1 0.1 0.2 0.1z"/>
	<path id="Layer" class="s0" d="m13.4 12.3q0 0 0 0v0.4q0 0.2-0.1 0.2-0.1 0.1-0.2 0.1 0 0-0.1 0 0 0 0 0 0 0 0-0.1 0 0 0 0 0 0 0 0 0.1 0 0.1 0 0.1 0 0.1 0 0.1-0.1 0.1-0.2v-0.3h-0.2q0 0 0 0v-0.1q0 0 0 0z"/>
	<path id="Layer" class="s1" d="m13.9 12.3q0 0 0 0v0.4q0 0.2 0 0.2-0.1 0.1-0.2 0.1-0.1 0-0.1 0-0.1 0-0.1 0 0 0 0-0.1h0.1q0 0 0 0 0 0 0 0 0 0 0.1 0 0.1 0 0.1 0 0.1-0.1 0.1-0.2v-0.3h-0.3q0 0 0 0v-0.1q0 0 0 0z"/>
	<path id="Layer" class="s1" d="m14.5 12.3q0 0 0 0v0.4q0 0.2-0.1 0.2 0 0.1-0.1 0.1-0.1 0-0.2 0 0 0 0 0 0 0 0-0.1 0 0 0 0 0 0 0 0 0.1 0 0.2 0 0 0 0.1 0 0-0.1 0-0.2v-0.3h-0.2q0 0 0 0v-0.1q0 0 0 0z"/>
	<path id="Layer" class="s0" d="m14.9 12.3q0 0 0 0v0.8q0 0.1 0 0.1h-0.1q0 0 0-0.1v-0.8q0 0 0 0z"/>
	<path id="Layer" class="s0" d="m16.2 13.1q0 0 0 0.1 0 0 0 0 0 0 0 0 0 0 0 0l-0.4-0.8q0 0 0 0 0-0.1 0-0.1 0 0 0 0 0 0 0 0z"/>
	<path id="Layer" class="s0" d="m16.7 12.3q0 0 0 0 0.1 0 0.1 0v0.5q0 0.2-0.2 0.2-0.2 0-0.2-0.2v-0.5q0 0 0 0 0 0 0 0v0.5q0 0.1 0.1 0.1 0 0 0.1 0 0 0 0 0 0.1 0 0.1-0.1z"/>
	<path id="Layer" class="s0" d="m17.2 12.3q0 0 0.1 0 0 0 0 0v0.5q0 0.2-0.2 0.2-0.2 0-0.2-0.2v-0.5q0 0 0 0h0.1q0 0 0 0v0.5q0 0.1 0 0.1 0.1 0 0.1 0 0.1 0 0.1 0 0 0 0-0.1z"/>
	<path id="Layer" class="s0" d="m17.8 12.3q0 0 0 0h0.1q0 0 0 0v0.5q0 0.2-0.2 0.2-0.2 0-0.2-0.2v-0.5q0 0 0 0 0.1 0 0.1 0v0.5q0 0.1 0 0.1 0 0 0.1 0 0 0 0.1 0 0 0 0-0.1z"/>
	<path id="Layer" class="s0" d="m18.1 13.1q0.1 0 0.1-0.1 0.1 0 0.1-0.1 0.1-0.1 0.1-0.2 0-0.1-0.1-0.1 0-0.1-0.1-0.2 0 0-0.1 0 0 0 0-0.1 0 0 0 0 0 0 0 0 0.1 0 0.2 0.1 0.1 0 0.1 0.1 0 0.1 0 0.2 0 0.1 0 0.2 0 0.1-0.1 0.2-0.1 0.1-0.2 0.1 0 0 0 0v-0.1q0 0 0 0 0 0 0 0z"/>
	<path id="Layer" class="s0" d="m13.3 14.1q0.1 0 0.1 0 0 0 0 0v0.1q-0.1 0-0.1 0-0.1 0-0.2-0.1 0-0.1-0.1-0.2 0-0.1 0-0.2 0-0.1 0-0.2 0.1-0.1 0.1-0.1 0.1-0.1 0.2-0.1 0 0 0.1 0 0 0 0 0 0 0.1-0.1 0.1 0 0-0.1 0-0.1 0.1-0.1 0.2 0 0 0 0.1 0 0.1 0 0.2 0 0.1 0.1 0.1 0.1 0.1 0.1 0.1z"/>
	<path id="Layer" class="s0" d="m13.9 13.3q0 0 0 0 0 0 0 0v0.5q0 0.2-0.2 0.2-0.2 0-0.2-0.2v-0.5q0 0 0.1 0 0 0 0 0v0.5q0 0.1 0.1 0.1 0 0 0 0 0.1 0 0.1 0 0.1 0 0.1-0.1z"/>
	<path id="Layer" class="s0" d="m14.4 13.3q0 0 0 0h0.1q0 0 0 0v0.5q0 0.2-0.2 0.2-0.2 0-0.2-0.2v-0.5q0 0 0 0h0.1q0 0 0 0v0.5q0 0.1 0 0.1 0 0 0.1 0 0.1 0 0.1 0 0 0 0-0.1z"/>
	<path id="Layer" class="s0" d="m14.7 14.1q0.1 0 0.1-0.1 0.1 0 0.1-0.1 0.1-0.1 0.1-0.2 0-0.1-0.1-0.1 0-0.1-0.1-0.2 0 0-0.1 0 0 0 0-0.1 0 0 0 0 0 0 0 0 0.1 0 0.2 0.1 0.1 0 0.1 0.1 0.1 0.1 0.1 0.2 0 0.1-0.1 0.2 0 0.1-0.1 0.2-0.1 0.1-0.2 0.1 0 0 0 0v-0.1q0 0 0 0 0 0 0 0z"/>
</svg>