<svg version="1.2" xmlns="http://www.w3.org/2000/svg" viewBox="0 0 400 400" width="100" height="100">
	<title>fst fsti fs7-svg</title>
	<style>
		.s0 { fill: #d3cfd0 } 
		.s1 { fill: #ec141c } 
		.s2 { fill: #1c1c1c } 
	</style>
	<g id="svgg">
		<path id="path0" fill-rule="evenodd" class="s0" d="m202.4 1.8c0 0.2 0.4 1 0.8 1.8 0.4 0.8 0.8 1.2 0.8 1 0-0.2-0.4-1-0.8-1.8-0.4-0.8-0.8-1.2-0.8-1zm-0.4 4.8c0 0.2 0.3 0.9 0.6 1.4 0.3 0.6 0.6 0.8 0.6 0.6 0-0.2-0.3-0.8-0.6-1.4-0.3-0.5-0.6-0.8-0.6-0.6zm2.8 0.4c0 0.2 0.4 1 0.8 1.8 0.4 0.8 0.8 1.2 0.8 1 0-0.2-0.4-1-0.8-1.8-0.4-0.8-0.8-1.2-0.8-1zm-14.1 12c-2.2 4.3-3.9 7.9-3.9 8.1 0 0.2 1.8-3.3 4-7.6 2.2-4.4 4-8 3.9-8.1-0.1-0.1-1.9 3.3-4 7.6zm13.7-7.2c0 0.2 0.3 0.9 0.6 1.4 0.3 0.6 0.6 0.8 0.6 0.6 0-0.2-0.3-0.9-0.6-1.4-0.3-0.5-0.6-0.8-0.6-0.6zm3.2 1.2c0 0.2 0.3 0.9 0.6 1.4 0.3 0.5 0.6 0.8 0.6 0.6 0-0.2-0.3-0.8-0.6-1.4-0.3-0.5-0.6-0.8-0.6-0.6zm-0.8 4c0 0.2 0.4 1 0.8 1.8 0.4 0.8 0.8 1.2 0.8 1 0-0.2-0.4-1-0.8-1.8-0.4-0.8-0.8-1.2-0.8-1zm3.2 1.2c0 0.2 0.4 1 0.8 1.8 0.4 0.8 0.8 1.2 0.8 1 0-0.2-0.4-1-0.8-1.8-0.4-0.8-0.8-1.2-0.8-1zm-0.8 4c0 0.2 0.4 1 0.8 1.8 0.4 0.8 0.8 1.2 0.8 1 0-0.2-0.4-1-0.8-1.8-0.4-0.8-0.8-1.2-0.8-1zm-7.8 19.4c0 10.4 0 14.7 0.1 9.5 0.1-5.2 0.1-13.8 0-19-0.1-5.2-0.1-0.9-0.1 9.5zm11.4-17.4c0 0.2 0.3 0.9 0.6 1.4 0.3 0.5 0.6 0.8 0.6 0.6 0-0.2-0.3-0.8-0.6-1.4-0.3-0.5-0.6-0.8-0.6-0.6zm-0.8 4c0 0.2 0.3 0.9 0.6 1.4 0.3 0.5 0.6 0.8 0.6 0.6 0-0.2-0.3-0.8-0.6-1.4-0.3-0.5-0.6-0.8-0.6-0.6zm3.2 1.2c0 0.2 0.3 0.9 0.6 1.4 0.3 0.6 0.6 0.8 0.6 0.6 0-0.2-0.3-0.8-0.6-1.4-0.3-0.6-0.6-0.8-0.6-0.6zm-0.8 4c0 0.2 0.3 0.9 0.6 1.4 0.3 0.6 0.6 0.8 0.6 0.6 0-0.2-0.3-0.9-0.6-1.4-0.3-0.5-0.6-0.8-0.6-0.6zm3.2 1.2c0 0.2 0.4 1 0.8 1.8 0.4 0.8 0.8 1.2 0.8 1 0-0.2-0.4-1-0.8-1.8-0.4-0.8-0.8-1.2-0.8-1zm-0.8 4c0 0.2 0.4 1 0.8 1.8 0.4 0.8 0.8 1.2 0.8 1 0-0.2-0.4-1-0.8-1.8-0.4-0.8-0.8-1.2-0.8-1zm3.6 2c0 0.2 0.3 0.9 0.6 1.4 0.3 0.5 0.6 0.8 0.6 0.6 0-0.2-0.3-0.8-0.6-1.4-0.3-0.6-0.6-0.8-0.6-0.6zm-45.9 11.2c-2 4.1-3.7 7.5-3.7 7.7 0 0.2 1.8-3.1 3.8-7.2 2.1-4.2 3.8-7.6 3.7-7.7-0.1-0.1-1.8 3.2-3.8 7.2zm45.1-7.2c0 0.2 0.3 0.9 0.6 1.4 0.3 0.5 0.6 0.8 0.6 0.6 0-0.2-0.3-0.8-0.6-1.4-0.3-0.5-0.6-0.8-0.6-0.6zm3.2 1.2c0 0.2 0.3 0.9 0.6 1.4 0.3 0.6 0.6 0.8 0.6 0.6 0-0.2-0.3-0.8-0.6-1.4-0.3-0.5-0.6-0.8-0.6-0.6zm-0.8 4c0 0.2 0.3 0.9 0.6 1.4 0.3 0.6 0.6 0.8 0.6 0.6 0-0.2-0.3-0.8-0.6-1.4-0.3-0.5-0.6-0.8-0.6-0.6zm3.2 1.2c0 0.2 0.4 1 0.8 1.8 0.4 0.8 0.8 1.2 0.8 1 0-0.2-0.4-1-0.8-1.8-0.4-0.8-0.8-1.2-0.8-1zm-0.8 4c0 0.2 0.4 1 0.8 1.8 0.4 0.8 0.8 1.2 0.8 1 0-0.2-0.4-1-0.8-1.8-0.4-0.8-0.8-1.2-0.8-1zm3.6 2c0 0.2 0.3 0.9 0.6 1.4 0.3 0.6 0.6 0.8 0.6 0.6 0-0.2-0.3-0.8-0.6-1.4-0.3-0.6-0.6-0.8-0.6-0.6zm-0.8 4c0 0.2 0.3 0.9 0.6 1.4 0.3 0.6 0.6 0.8 0.6 0.6 0-0.2-0.3-0.8-0.6-1.4-0.3-0.6-0.6-0.8-0.6-0.6zm3.2 1.2c0 0.2 0.3 0.8 0.6 1.4 0.3 0.6 0.6 0.8 0.6 0.6 0-0.2-0.3-0.8-0.6-1.4-0.3-0.5-0.6-0.8-0.6-0.6zm-0.8 4c0 0.2 0.3 0.8 0.6 1.4 0.3 0.6 0.6 0.8 0.6 0.6 0-0.2-0.3-0.9-0.6-1.4-0.3-0.5-0.6-0.8-0.6-0.6zm3.2 1.2c0 0.2 0.4 1 0.8 1.8 0.4 0.8 0.8 1.2 0.8 1 0-0.2-0.4-1-0.8-1.8-0.4-0.8-0.8-1.2-0.8-1zm-0.8 4c0 0.2 0.4 1 0.8 1.8 0.4 0.8 0.8 1.2 0.8 1 0-0.2-0.4-1-0.8-1.8-0.4-0.8-0.8-1.2-0.8-1zm3.6 2c0 0.2 0.3 0.9 0.6 1.4 0.3 0.5 0.6 0.8 0.6 0.6 0-0.2-0.3-0.9-0.6-1.4-0.3-0.5-0.6-0.8-0.6-0.6zm-1.2 3.2c0 0.2 0.4 1 0.8 1.8 0.4 0.8 0.8 1.2 0.8 1 0-0.2-0.4-1-0.8-1.8-0.4-0.8-0.8-1.2-0.8-1zm-76.5 8.8c-2.2 4.3-3.9 7.9-3.9 8.1 0 0.2 1.8-3.3 4-7.6 2.2-4.4 4-8 3.9-8.1-0.1-0.1-1.9 3.3-4 7.6zm80.1-6.8c0 0.2 0.3 0.9 0.6 1.4 0.3 0.5 0.6 0.8 0.6 0.6 0-0.2-0.3-0.8-0.6-1.4-0.3-0.5-0.6-0.8-0.6-0.6zm-0.8 4c0 0.2 0.3 0.9 0.6 1.4 0.3 0.5 0.6 0.8 0.6 0.6 0-0.2-0.3-0.8-0.6-1.4-0.3-0.5-0.6-0.8-0.6-0.6zm3.2 1.2c0 0.2 0.4 1 0.8 1.8 0.4 0.8 0.8 1.2 0.8 1 0-0.2-0.4-1-0.8-1.8-0.4-0.8-0.8-1.2-0.8-1zm-39.4 21.8c0 10.4 0 14.7 0.1 9.5 0.1-5.2 0.1-13.8 0-19-0.1-5.2-0.1-0.9-0.1 9.5zm38.6-17.8c0 0.2 0.3 0.9 0.6 1.4 0.3 0.6 0.6 0.8 0.6 0.6 0-0.2-0.3-0.8-0.6-1.4-0.3-0.6-0.6-0.8-0.6-0.6zm3.6 2c0 0.2 0.3 0.9 0.6 1.4 0.3 0.6 0.6 0.8 0.6 0.6 0-0.2-0.3-0.8-0.6-1.4-0.3-0.6-0.6-0.8-0.6-0.6zm-1.2 3.2c0 0.2 0.4 1 0.8 1.8 0.4 0.8 0.8 1.2 0.8 1 0-0.2-0.4-1-0.8-1.8-0.4-0.8-0.8-1.2-0.8-1zm3.6 2c0 0.2 0.3 0.8 0.6 1.4 0.3 0.6 0.6 0.8 0.6 0.6 0-0.2-0.3-0.8-0.6-1.4-0.3-0.6-0.6-0.8-0.6-0.6zm-0.8 4c0 0.2 0.3 0.8 0.6 1.4 0.3 0.6 0.6 0.8 0.6 0.6 0-0.2-0.3-0.8-0.6-1.4-0.3-0.6-0.6-0.8-0.6-0.6zm3.2 1.2c0 0.2 0.4 1 0.8 1.8 0.4 0.8 0.8 1.2 0.8 1 0-0.2-0.4-1-0.8-1.8-0.4-0.8-0.8-1.2-0.8-1zm-0.8 4c0 0.2 0.3 0.8 0.6 1.4 0.3 0.6 0.6 0.8 0.6 0.6 0-0.2-0.3-0.9-0.6-1.4-0.3-0.5-0.6-0.8-0.6-0.6zm3.6 2c0 0.2 0.3 0.8 0.6 1.4 0.3 0.6 0.6 0.8 0.6 0.6 0-0.2-0.3-0.9-0.6-1.4-0.3-0.5-0.6-0.8-0.6-0.6zm-1.2 3.2c0 0.2 0.4 1 0.8 1.8 0.4 0.8 0.8 1.2 0.8 1 0-0.2-0.4-1-0.8-1.8-0.4-0.8-0.8-1.2-0.8-1zm-107.9 8.8c-2 4.1-3.7 7.5-3.7 7.7 0 0.2 1.8-3.1 3.8-7.2 2.1-4.2 3.8-7.6 3.7-7.7-0.1-0.1-1.8 3.2-3.8 7.2zm111.5-6.8c0 0.2 0.3 0.8 0.6 1.4 0.3 0.5 0.6 0.8 0.6 0.6 0-0.2-0.3-0.9-0.6-1.4-0.3-0.5-0.6-0.8-0.6-0.6zm-0.8 4c0 0.2 0.3 0.8 0.6 1.4 0.3 0.5 0.6 0.8 0.6 0.6 0-0.2-0.3-0.9-0.6-1.4-0.3-0.5-0.6-0.8-0.6-0.6zm3.2 1.2c0 0.2 0.4 1 0.8 1.8 0.4 0.8 0.8 1.2 0.8 1 0-0.2-0.4-1-0.8-1.8-0.4-0.8-0.8-1.2-0.8-1zm-0.8 4c0 0.2 0.3 0.9 0.6 1.4 0.3 0.5 0.6 0.8 0.6 0.6 0-0.2-0.3-0.9-0.6-1.4-0.3-0.5-0.6-0.8-0.6-0.6zm3.6 2c0 0.2 0.3 0.9 0.6 1.4 0.3 0.5 0.6 0.8 0.6 0.6 0-0.2-0.3-0.9-0.6-1.4-0.3-0.5-0.6-0.8-0.6-0.6zm-1.2 3.2c0 0.2 0.4 1 0.8 1.8 0.4 0.8 0.8 1.2 0.8 1 0-0.2-0.4-1-0.8-1.8-0.4-0.8-0.8-1.2-0.8-1zm3.6 2c0 0.2 0.3 0.9 0.6 1.4 0.3 0.5 0.6 0.8 0.6 0.6 0-0.2-0.3-0.9-0.6-1.4-0.3-0.6-0.6-0.8-0.6-0.6zm-55.1 4.9c0.6 0.1 1.6 0.1 2.2 0 0.6-0.1 0.1-0.2-1.1-0.2-1.2 0-1.7 0.1-1.1 0.2zm-10.8 2.4c0.6 0.1 1.5 0.1 2 0 0.5-0.1 0-0.2-1.1-0.2-1.1 0-1.5 0.1-0.9 0.2zm11.6 0c0.6 0.1 1.5 0.1 2 0 0.5-0.1 0-0.2-1.1-0.2-1.1 0-1.5 0.1-0.9 0.2zm45.9 5.3c-1.3 1.8-2.3 3.2-2.2 3.2 0.1 0 1.3-1.4 2.6-3.2 1.3-1.8 2.3-3.2 2.2-3.2-0.1 0-1.3 1.4-2.6 3.2zm-17.6-1c0.5 0.3 1.2 0.6 1.4 0.6 0.2 0 0-0.3-0.6-0.6-0.5-0.3-1.2-0.6-1.4-0.6-0.2 0 0.1 0.3 0.6 0.6zm-68.4 3.2c-0.5 0.3-0.8 0.6-0.6 0.6 0.2 0 0.9-0.3 1.4-0.6 0.6-0.3 0.8-0.6 0.6-0.6-0.2 0-0.9 0.3-1.4 0.6zm69.6 0c0.6 0.3 1.2 0.6 1.4 0.6 0.2 0 0-0.3-0.6-0.6-0.5-0.3-1.2-0.6-1.4-0.6-0.2 0 0.1 0.3 0.6 0.6zm5.6 0c0 0.1 0.5 0.5 1.2 0.8 0.7 0.3 1.2 0.5 1.2 0.4 0-0.1-0.5-0.5-1.2-0.8-0.7-0.3-1.2-0.5-1.2-0.4zm-78.1 1.4c-0.8 0.5-1.5 0.9-1.5 1 0 0.1 0.7-0.2 1.6-0.6 0.9-0.4 1.6-0.9 1.6-1 0-0.3 0-0.3-1.7 0.6zm74.5-0.6c0 0.1 0.7 0.6 1.6 1 0.9 0.4 1.6 0.7 1.6 0.6 0-0.1-0.7-0.6-1.6-1-0.9-0.4-1.6-0.7-1.6-0.6zm6.4 3.5c0 0.1 0.8 0.7 1.7 1.3 0.9 0.6 1.5 0.9 1.2 0.6-0.5-0.6-2.9-2.2-2.9-1.9zm-243.2 5.3c0.7 0.8 1.4 1.4 1.6 1.4 0.1 0-0.5-0.6-1.2-1.4-0.7-0.8-1.4-1.4-1.6-1.4-0.1 0 0.5 0.6 1.2 1.4zm6.2 3c1.5 1.6 2.9 2.8 3 2.8 0.1 0-0.9-1.1-2.2-2.4-1.5-1.5-2.1-2.4-1.7-2.5 0.3-0.1 0-0.3-0.6-0.4-1.1-0.2-0.9 0.1 1.5 2.5zm382.2 8.7l-10.2 10.3 10.3-10.2c9.6-9.5 10.5-10.4 10.2-10.4-0.1 0-4.7 4.6-10.3 10.3zm-381.2-4.2c3 3 5.4 5.5 5.5 5.5 0.3 0-0.3-0.6-5.4-5.6l-5.5-5.4zm135.4-0.8l-4.4 4.5 4.5-4.4c2.5-2.4 4.5-4.4 4.5-4.5 0-0.3-0.5 0.2-4.6 4.4zm115.2-0.1c2.4 2.4 4.5 4.4 4.6 4.4 0.1 0-1.8-2-4.2-4.4-2.4-2.4-4.5-4.4-4.6-4.4-0.1 0 1.8 2 4.2 4.4zm134.8-3.3c0.1 0.1-0.8 1.3-2.1 2.7l-2.3 2.4 2.7-2.6c3-2.9 3-2.8 2-2.8-0.3 0-0.5 0.1-0.4 0.3zm-377.7 8.6c3 3 5.4 5.5 5.5 5.5 0.3 0-0.3-0.6-5.4-5.6l-5.5-5.4zm359.6 10.6l-12.2 12.3 12.3-12.2c6.8-6.7 12.3-12.2 12.3-12.3 0-0.3-1.1 0.8-12.4 12.2zm-237-10.2c-1.4 1.5-3.5 4.3-3.3 4.3 0.1 0 1.2-1.2 2.3-2.6 2-2.6 2.5-3.4 1-1.7zm126.4 0.8c0.8 1.1 1.6 1.9 1.7 1.9 0.3 0-2.3-3.1-2.8-3.5-0.3-0.1 0.2 0.6 1.1 1.6zm-245.2 6.3c2.9 2.9 5.3 5.2 5.4 5.2 0.1 0-2.1-2.3-5-5.2-2.8-2.9-5.3-5.2-5.4-5.2-0.1 0 2.2 2.3 5 5.2zm7.6 4.4c2.9 2.9 5.3 5.2 5.4 5.2 0.1 0-2.1-2.3-5-5.2-2.8-2.9-5.3-5.2-5.4-5.2-0.1 0 2.2 2.3 5 5.2zm179.5-4.1l30.7 0.1 0.1 18.3 0.1 18.3 0.1-18.5 0.1-18.5-30.9 0.1-30.9 0.1zm-9.1 4.6c-0.1 0.3-0.1 8.9-0.1 19.1l0.1 18.6 0.1-18.9 0.1-18.9h9.2 9.2l0.1 11.8 0.1 11.8v-11.9-11.9l-9.3-0.1c-7.2-0.1-9.3 0-9.5 0.4zm168.2 11.4l-11.8 11.9 11.9-11.8c6.6-6.5 11.9-11.8 11.9-11.9 0-0.3-1 0.7-12 11.8zm-335.2-5c3 3 5.5 5.5 5.5 5.5 0.3 0-0.3-0.6-5.4-5.6l-5.5-5.4zm97.8-3.3c-0.6 1.2-1 2.1-0.9 2.2 0.1 0.1 0.6-0.8 1.2-2 0.6-1.2 1-2.2 0.9-2.2-0.1 0-0.6 0.9-1.2 2zm145.7 0.2c0.6 1.2 1.1 2.1 1.2 2 0.2-0.2-1.8-4.2-2.1-4.2-0.1 0 0.3 1 0.9 2.2zm-235.5 7.9c3 3 5.5 5.5 5.5 5.5 0.3 0-0.3-0.6-5.4-5.6l-5.5-5.4zm3.2 6.8c3 3 5.5 5.5 5.5 5.5 0.3 0-0.3-0.6-5.4-5.6l-5.5-5.4zm307.4 6.8l-12 12.1 12.1-12c11.3-11.2 12.3-12.2 12-12.2 0 0-5.5 5.4-12.1 12.1zm-299.2-1.7c2.9 2.9 5.3 5.2 5.4 5.2 0.1 0-2.1-2.3-5-5.2-2.8-2.9-5.2-5.2-5.4-5.2-0.1 0 2.2 2.3 5 5.2zm3.2 6.8c2.9 2.9 5.3 5.2 5.4 5.2 0.1 0-2.1-2.3-5-5.2-2.8-2.9-5.2-5.2-5.4-5.2-0.1 0 2.2 2.3 5 5.2zm287.4 7.1l-11.8 11.9 11.9-11.8c6.6-6.5 11.9-11.8 11.9-11.9 0-0.3-1 0.7-12 11.8zm-117.6-10.9c0.6 0.3 1.5 0.6 2 0.7 0.6 0.2 0.3-0.1-0.6-0.5-1.8-0.8-2.9-1.1-1.4-0.2zm-161.8 8.6c2.9 2.9 5.3 5.2 5.4 5.2 0.1 0-2.1-2.3-5-5.2-2.8-2.9-5.2-5.2-5.4-5.2-0.1 0 2.2 2.3 5 5.2zm223.5-4c0 0.8 0.1 1.1 0.2 0.7 0.1-0.4 0.1-1 0-1.4-0.1-0.4-0.2-0.1-0.2 0.7zm-164.7 5c0 1.3 0 1.8 0.1 1.1 0.1-0.7 0.1-1.8 0-2.4-0.1-0.6-0.1 0-0.1 1.3zm162.8 0.4c0 1.5 0 2.1 0.1 1.3 0.1-0.8 0.1-2.1 0-2.8-0.1-0.7-0.1 0-0.1 1.5zm-165.2 3.8c0 3.4 0.1 4.8 0.1 3.1 0.1-1.7 0.1-4.5 0-6.2 0-1.7-0.1-0.3-0.1 3.1zm167.6 0c0 3.4 0.1 4.8 0.1 3.1 0.1-1.7 0.1-4.5 0-6.2 0-1.7-0.1-0.3-0.1 3.1zm-101.3-4.2c0.4 0.4 0.9 0.6 1.1 0.5 0.3-0.1 0-0.4-0.6-0.6-1.1-0.5-1.1-0.5-0.5 0.1zm-119.5 5.8c2.9 2.9 5.3 5.2 5.4 5.2 0.1 0-2.1-2.3-5-5.2-2.8-2.9-5.2-5.2-5.4-5.2-0.1 0 2.2 2.3 5 5.2zm124.6-3.4c1 0.5 2 1 2.2 1 0.3 0-0.4-0.5-1.4-1-1-0.5-1.9-1-2.2-1-0.2 0 0.4 0.5 1.4 1zm10.4 0.8c0 0.3 2.5 1.5 2.7 1.3 0.1-0.1-0.5-0.5-1.3-0.8-0.7-0.4-1.4-0.6-1.4-0.5zm124 12.1l-12.2 12.3 12.3-12.2c11.5-11.3 12.5-12.4 12.2-12.4 0 0-5.6 5.5-12.3 12.3zm-129.2-10.5c0.6 0.3 1.2 0.6 1.4 0.6 0.3 0 0-0.3-0.6-0.6-0.5-0.3-1.1-0.6-1.4-0.6-0.2 0 0.1 0.3 0.6 0.6zm88.6 3c0 1.6 0 2.3 0.1 1.5 0.1-0.8 0.1-2.2 0-3-0.1-0.8-0.1-0.2-0.1 1.5zm-210.2 2.9c3 3 5.5 5.5 5.5 5.5 0.3 0-0.3-0.6-5.4-5.6l-5.5-5.4zm132.6-4.9c0.5 0.2 1.1 0.3 1.4 0.3q0.6 0-0.2-0.3c-0.4-0.2-1-0.3-1.4-0.3q-0.5 0 0.2 0.3zm-85.2 2.6c0 1.3 0 1.8 0.1 1.1 0.1-0.7 0.1-1.8 0-2.4-0.1-0.6-0.1 0-0.1 1.3zm93-0.3c0.3 0.3 0.2 0.5-0.7 0.9-0.7 0.3-1.2 0.6-1.1 0.7 0.1 0.1 0.8-0.2 1.6-0.6 1.3-0.6 1.4-1.3 0-1.3-0.2 0-0.1 0.2 0.2 0.3zm-8.2 0.5c0.5 0.2 1.1 0.3 1.4 0.3q0.6 0-0.2-0.3c-0.4-0.2-1-0.3-1.4-0.3q-0.5 0 0.2 0.3zm-129 8.9c3 3 5.5 5.5 5.5 5.5 0.3 0-0.3-0.6-5.4-5.6l-5.5-5.4zm44.5-4.1c0 0.8 0.1 1.1 0.2 0.7 0.1-0.4 0.1-1 0-1.4-0.1-0.4-0.2-0.1-0.2 0.7zm82.2-0.4c-0.8 0.5-1.5 0.9-1.5 1 0 0.2 3.2-1.3 3.6-1.7 0.5-0.4-0.7 0-2.1 0.7zm79.8 0.4c0 0.8 0.1 1.1 0.2 0.7 0.1-0.4 0.1-1 0-1.4-0.1-0.4-0.2-0.1-0.2 0.7zm-88.9-0.2c-0.5 0.3-0.8 0.6-0.6 0.6 0.3 0 0.9-0.3 1.4-0.6 0.6-0.3 0.9-0.6 0.6-0.6-0.2 0-0.8 0.3-1.4 0.6zm5.7 2.1c-0.9 0.9-0.9 1-0.1 0.3 1.7-1.3 1.8-1.4 1.5-1.4-0.1 0-0.7 0.5-1.4 1.1zm-10.5 0.1c-0.7 0.4-1.2 0.8-1 0.8 0.3 0 1.1-0.4 1.8-0.8 0.8-0.4 1.3-0.8 1-0.8-0.2 0-1 0.4-1.8 0.8zm126.8 11.5l-11.8 11.9 11.9-11.8c6.6-6.5 11.9-11.8 11.9-11.9 0-0.3-1 0.7-12 11.8zm-231.4-4.3c2.9 2.9 5.3 5.2 5.4 5.2 0.1 0-2.1-2.3-5-5.2-2.8-2.9-5.2-5.2-5.3-5.2-0.2 0 2.1 2.3 4.9 5.2zm98.4-4.6c-1 0.5-1 0.5-0.2 0.3 1.2-0.2 2.5-0.9 1.8-0.9-0.2 0-0.9 0.3-1.6 0.6zm-6.1 19.5l0.1 18.1 0.1-17.9 0.2-17.9 0.8-0.1c0.8-0.2 0.8-0.2-0.2-0.3h-1.1zm-89.3-8.4c3 3 5.5 5.5 5.5 5.5 0.3 0-0.2-0.6-5.4-5.6l-5.5-5.4zm8.1 4.9c2.7 2.7 5 5 5.1 5 0.2 0-2-2.3-4.7-5-2.8-2.8-5.1-5-5.2-5-0.1 0 2 2.2 4.8 5zm208.3 1.6c-3.2 3.2-5.7 5.8-5.6 5.8 0.2 0 2.9-2.6 6.1-5.8 3.1-3.2 5.7-5.8 5.6-5.8-0.2 0-2.9 2.6-6.1 5.8zm-182.9-4c-1 0.5-1.1 0.5-0.2 0.3 1.1-0.2 2.4-0.9 1.8-0.9-0.3 0-1 0.3-1.6 0.6zm-24.4 7c1.5 1.7 2.8 3 2.9 2.9 0.1-0.1-1.1-1.4-2.7-3l-3-2.9zm30.2-2.6c0 0.2 0.3 0.8 0.6 1.4 0.3 0.5 0.5 0.8 0.5 0.6 0-0.2-0.2-0.9-0.5-1.4-0.3-0.6-0.6-0.8-0.6-0.6zm149.6 0.8c-0.6 1.5-0.5 1.8 0.2 0.5 0.4-0.7 0.6-1.3 0.5-1.3-0.1-0.1-0.4 0.2-0.7 0.8zm24.8 5.1c-0.6 0.7-0.8 1.3-0.7 1.9l0.2 1v-1c0-0.5 0.5-1.4 0.9-1.9 0.5-0.5 0.8-0.9 0.7-0.9-0.1 0-0.6 0.4-1.1 0.9zm-170.6 1.9c0.3 0.6 0.7 1.2 0.8 1.2 0.1 0-0.1-0.6-0.4-1.2-0.4-0.7-0.7-1.2-0.9-1.2-0.1 0 0.1 0.5 0.5 1.2zm142.4 0c-0.4 0.6-0.6 1.2-0.5 1.2 0.2 0 0.5-0.6 0.9-1.2 0.3-0.7 0.5-1.2 0.4-1.2-0.1 0-0.5 0.5-0.8 1.2zm-134.2 12.1c0 0.1 0.6 0.7 1.3 1.3l1.3 1.2-1.2-1.3c-1.1-1.2-1.4-1.5-1.4-1.2zm124.9 1.2l-1.1 1.3 1.3-1.2c0.7-0.6 1.3-1.2 1.3-1.3 0-0.3-0.4 0-1.5 1.2zm-119.5 4.7c1.7 1.7 3.2 3.2 3.3 3.2 0.2 0-1.2-1.5-2.9-3.2-1.8-1.8-3.3-3.2-3.4-3.2-0.1 0 1.2 1.4 3 3.2zm115.2 0.1l-3.2 3.3 3.3-3.2c3-3 3.5-3.4 3.2-3.4-0.1 0-1.6 1.5-3.3 3.3zm-111.4 3.2c0 0.1 0.6 0.7 1.3 1.3l1.3 1.2-1.2-1.3c-1.1-1.2-1.4-1.5-1.4-1.2zm106.5 1.2l-1.1 1.3 1.3-1.2c0.7-0.6 1.3-1.2 1.3-1.3 0-0.3-0.4 0-1.5 1.2zm-103.4 1.5c0.5 0.7 4.1 3.3 4.1 3.1 0-0.1-1.1-1-2.3-1.9-1.3-1-2.1-1.5-1.8-1.2zm100.1 1c-2.6 2-3 2.5-0.7 1 1.7-1.2 3.1-2.5 2.6-2.4-0.1 0-0.9 0.7-1.9 1.4zm-6.7 4.6c-1.4 0.9-1.8 1.5-0.6 0.8 0.9-0.5 2.3-1.6 2.1-1.6-0.1 0-0.8 0.4-1.5 0.8zm-4.2 2.4c-0.9 0.5-1.5 0.9-1.5 1 0 0.1 0.7-0.2 1.6-0.6 0.8-0.5 1.6-0.9 1.6-1 0-0.3 0-0.3-1.7 0.6zm-87.5 0.8c-0.5 0.6-0.8 1.2-0.7 1.2 0.1 0 0.6-0.6 1.1-1.2 0.4-0.7 0.7-1.2 0.6-1.2-0.1 0-0.6 0.5-1 1.2zm94 2c0.4 0.6 0.9 1.2 1 1.2 0.1 0-0.2-0.6-0.6-1.2-0.5-0.7-1-1.2-1.1-1.2-0.1 0 0.2 0.5 0.7 1.2zm-78.8-0.2c0.5 0.3 1.1 0.6 1.4 0.6 0.2 0-0.1-0.3-0.6-0.6-0.6-0.3-1.2-0.6-1.4-0.6-0.3 0 0 0.3 0.6 0.6zm67.2 0c-0.6 0.3-0.9 0.6-0.6 0.6 0.2 0 0.8-0.3 1.4-0.6 0.5-0.3 0.8-0.6 0.6-0.6-0.3 0-0.9 0.3-1.4 0.6zm-86 3.4c-0.5 0.6-0.8 1.2-0.7 1.2 0.1 0 0.6-0.6 1.1-1.2 0.4-0.7 0.7-1.2 0.6-1.2-0.1 0-0.6 0.5-1 1.2zm100.4 0.8c0.4 0.6 0.9 1.2 1 1.2 0.1 0-0.2-0.6-0.6-1.2-0.5-0.7-1-1.2-1.1-1.2-0.1 0 0.2 0.5 0.7 1.2zm-103.2 3.2c-0.5 0.6-0.8 1.2-0.7 1.2 0.1 0 0.6-0.6 1.1-1.2 0.4-0.7 0.7-1.2 0.6-1.2-0.1 0-0.6 0.5-1 1.2zm52.9-0.1c1.5 0.1 3.9 0.1 5.4 0 1.5-0.1 0.2-0.2-2.7-0.2-3 0-4.2 0.1-2.7 0.2zm53.9 2.1c0.4 0.6 0.9 1.2 1 1.2 0.1 0-0.2-0.6-0.6-1.2-0.5-0.7-1-1.2-1.1-1.2-0.1 0 0.2 0.5 0.7 1.2zm-60.3-0.1c0.4 0.1 1 0.1 1.4 0 0.4-0.1 0-0.2-0.7-0.2-0.8 0-1.1 0.1-0.7 0.2zm16.8 0c0.4 0.1 1 0.1 1.4 0 0.4-0.1 0-0.2-0.7-0.2-0.8 0-1.1 0.1-0.7 0.2zm-12 0.4c0.6 0.1 0.7 1.3 0.8 14.6l0.1 14.5 0.1-14.7 0.1-14.7h-0.9c-0.7 0.1-0.8 0.1-0.2 0.3zm3.2 14.2l0.1 14.5 0.1-14.3 0.1-14.3 2.9-0.1 2.9-0.2h-3.1l-3.1-0.1zm-58.1-11.3c-0.5 0.6-0.8 1.2-0.7 1.2 0.1 0 0.6-0.6 1.1-1.2 0.4-0.7 0.7-1.2 0.6-1.2-0.1 0-0.6 0.5-1 1.2zm113.2 0.8c0.4 0.6 0.9 1.2 1 1.2 0.1 0-0.2-0.6-0.6-1.2-0.5-0.7-1-1.2-1.1-1.2-0.1 0 0.2 0.5 0.7 1.2zm-116 3.2c-0.5 0.6-0.8 1.2-0.7 1.2 0.1 0 0.6-0.6 1.1-1.2 0.4-0.7 0.7-1.2 0.6-1.2-0.1 0-0.6 0.5-1 1.2zm119.2 1.4c0.7 1 1.3 1.8 1.4 1.8 0.1 0-0.3-0.8-1-1.8-0.7-1-1.4-1.8-1.5-1.8-0.1 0 0.4 0.8 1.1 1.8zm-122 2.6c-0.5 0.6-0.8 1.2-0.7 1.2 0.1 0 0.6-0.6 1.1-1.2 0.4-0.7 0.7-1.2 0.6-1.2-0.1 0-0.6 0.5-1 1.2zm125.2 2c0.4 0.6 0.9 1.2 1 1.2 0.1 0-0.2-0.6-0.6-1.2-0.5-0.7-1-1.2-1.1-1.2-0.1 0 0.2 0.5 0.7 1.2zm-128.8 3.2c-0.5 0.6-0.8 1.2-0.7 1.2 0.1 0 0.6-0.6 1.1-1.2 0.4-0.7 0.7-1.2 0.6-1.2-0.1 0-0.6 0.5-1 1.2zm132 1.4c0.7 1 1.3 1.8 1.4 1.8 0.1 0-0.3-0.8-1-1.8-0.7-1-1.4-1.8-1.5-1.8-0.1 0 0.4 0.8 1.1 1.8zm-135.2 3.2c-0.7 1-1.2 1.8-1.1 1.8 0.1 0 0.8-0.8 1.5-1.8 0.7-1 1.1-1.8 1-1.8-0.1 0-0.7 0.8-1.4 1.8zm138.4 1.4c0.4 0.6 0.9 1.2 1 1.2 0.1 0-0.2-0.6-0.6-1.2-0.5-0.7-1-1.2-1.1-1.2-0.1 0 0.2 0.5 0.7 1.2zm-141.6 3.2c-0.5 0.6-0.8 1.2-0.7 1.2 0.1 0 0.6-0.6 1.1-1.2 0.4-0.7 0.7-1.2 0.6-1.2-0.1 0-0.6 0.5-1 1.2zm144.4 0.8c0.4 0.6 0.9 1.2 1 1.2 0.1 0-0.2-0.6-0.6-1.2-0.5-0.7-1-1.2-1.1-1.2-0.1 0 0.2 0.5 0.7 1.2zm-147.2 3.2c-0.5 0.6-0.8 1.2-0.7 1.2 0.1 0 0.6-0.6 1.1-1.2 0.4-0.7 0.7-1.2 0.6-1.2-0.1 0-0.6 0.5-1 1.2zm72.3 0.2c-1.5 0.8-1.4 1.2 0.1 0.4 0.6-0.4 1.2-0.7 1.2-0.8 0-0.3-0.1-0.3-1.3 0.4zm5.7 0c0 0.1 0.5 0.4 1.2 0.8 0.6 0.3 1.2 0.5 1.2 0.4 0-0.1-0.6-0.5-1.2-0.8-0.7-0.4-1.2-0.5-1.2-0.4zm72.8 1.8c0.4 0.6 0.9 1.2 1 1.2 0.1 0-0.2-0.6-0.6-1.2-0.5-0.7-1-1.2-1.1-1.2-0.1 0 0.2 0.5 0.7 1.2zm-82.9 0.6c-1.5 0.8-1.4 1.2 0.1 0.4 0.6-0.4 1.2-0.7 1.2-0.8 0-0.3-0.1-0.3-1.3 0.4zm3.6 0.8c-1.5 0.8-1.4 1.2 0.1 0.4 0.6-0.4 1.2-0.7 1.2-0.8 0-0.3-0.1-0.3-1.3 0.4zm6.5-0.4c0 0.1 0.5 0.4 1.2 0.8 0.6 0.3 1.2 0.5 1.2 0.4 0-0.1-0.6-0.5-1.2-0.8-0.7-0.4-1.2-0.5-1.2-0.4zm6.4 0.8c0 0.1 0.5 0.4 1.2 0.8 0.6 0.3 1.2 0.5 1.2 0.4 0-0.1-0.6-0.5-1.2-0.8-0.7-0.4-1.2-0.5-1.2-0.4zm-88 1.4c-0.5 0.6-0.8 1.2-0.7 1.2 0.1 0 0.6-0.6 1.1-1.2 0.4-0.7 0.7-1.2 0.6-1.2-0.1 0-0.6 0.5-1 1.2zm67.9-0.6c-1.5 0.8-1.4 1.2 0.1 0.4 0.6-0.4 1.2-0.7 1.2-0.8 0-0.3-0.1-0.3-1.3 0.4zm17.3 0.4c0 0.1 0.5 0.4 1.2 0.8 0.6 0.3 1.2 0.5 1.2 0.4 0-0.1-0.6-0.5-1.2-0.8-0.7-0.4-1.2-0.5-1.2-0.4zm72 1c0.4 0.6 0.9 1.2 1 1.2 0.1 0-0.2-0.6-0.6-1.2-0.5-0.7-1-1.2-1.1-1.2-0.1 0 0.2 0.5 0.7 1.2zm-86.5-0.2c-1.5 0.8-1.4 1.2 0.1 0.4 0.6-0.4 1.2-0.7 1.2-0.8 0-0.3-0.1-0.3-1.3 0.4zm20.9 0c0 0.1 0.5 0.4 1.2 0.8 0.6 0.3 1.2 0.5 1.2 0.4 0-0.1-0.6-0.5-1.2-0.8-0.7-0.4-1.2-0.5-1.2-0.4zm-28.5 1.4c-0.9 0.4-1.5 0.9-1.5 1 0 0.1 0.7-0.2 1.6-0.6 0.9-0.5 1.6-0.9 1.6-1 0-0.3 0-0.3-1.7 0.6zm3.2 1c-1.5 0.8-1.4 1.2 0.1 0.4 0.6-0.4 1.2-0.7 1.2-0.8 0-0.3-0.1-0.3-1.3 0.4zm28.9-0.4c0 0.1 0.5 0.4 1.2 0.8 0.6 0.3 1.2 0.5 1.2 0.4 0-0.1-0.6-0.5-1.2-0.8-0.7-0.4-1.2-0.5-1.2-0.4zm-98 1.4c-0.5 0.6-0.8 1.2-0.7 1.2 0.1 0 0.6-0.6 1.1-1.2 0.4-0.7 0.7-1.2 0.6-1.2-0.1 0-0.6 0.5-1 1.2zm94.4-0.6c0 0.1 0.5 0.4 1.2 0.8 0.6 0.3 1.2 0.5 1.2 0.4 0-0.1-0.6-0.5-1.2-0.8-0.7-0.4-1.2-0.5-1.2-0.4zm-32.5 0.8c-1.5 0.8-1.4 1.2 0.1 0.4 0.6-0.4 1.2-0.7 1.2-0.8 0-0.3-0.1-0.3-1.3 0.4zm2.8 1.2c-1.5 0.8-1.4 1.2 0.1 0.4 0.6-0.4 1.2-0.7 1.2-0.8 0-0.3-0.1-0.3-1.3 0.4zm98.9 0.6c0.4 0.6 0.9 1.2 1 1.2 0.1 0-0.2-0.6-0.6-1.2-0.5-0.7-1-1.2-1.1-1.2-0.1 0 0.2 0.5 0.7 1.2zm-65.6-0.6c0 0.1 0.5 0.4 1.2 0.8 0.6 0.3 1.2 0.5 1.2 0.4 0-0.1-0.6-0.5-1.2-0.8-0.7-0.4-1.2-0.5-1.2-0.4zm-40.5 1.2c-1.5 0.8-1.4 1.2 0.1 0.4 0.6-0.4 1.2-0.7 1.2-0.8 0-0.3-0.1-0.3-1.3 0.4zm46.9-0.4c0 0.1 0.5 0.4 1.2 0.8 0.6 0.3 1.2 0.5 1.2 0.4 0-0.1-0.6-0.5-1.2-0.8-0.7-0.4-1.2-0.5-1.2-0.4zm-43.7 1.4c-0.9 0.4-1.5 0.9-1.5 1 0 0.1 0.7-0.2 1.6-0.6 0.9-0.5 1.6-0.9 1.6-1 0-0.3 0-0.3-1.7 0.6zm40.9-0.2c0 0.1 0.5 0.4 1.2 0.8 0.6 0.3 1.2 0.5 1.2 0.4 0-0.1-0.6-0.5-1.2-0.8-0.7-0.4-1.2-0.5-1.2-0.4zm-105.2 1.8c-0.5 0.6-0.8 1.2-0.7 1.2 0.1 0 0.6-0.6 1.1-1.2 0.4-0.7 0.7-1.2 0.6-1.2-0.1 0-0.6 0.5-1 1.2zm111.6-1c0 0.1 0.5 0.4 1.2 0.8 0.6 0.3 1.2 0.5 1.2 0.4 0-0.1-0.6-0.5-1.2-0.8-0.7-0.4-1.2-0.5-1.2-0.4zm-54.9 0.8c-1.5 0.8-1.4 1.2 0.1 0.4 0.6-0.4 1.2-0.7 1.2-0.8 0-0.3-0.1-0.3-1.3 0.4zm3.6 0.8c-1.5 0.8-1.4 1.2 0.1 0.4 0.6-0.4 1.2-0.7 1.2-0.8 0-0.3-0.1-0.3-1.3 0.4zm110.5 1.4c0.4 0.6 0.9 1.2 1 1.2 0.1 0-0.2-0.6-0.6-1.2-0.5-0.7-1-1.2-1.1-1.2-0.1 0 0.2 0.5 0.7 1.2zm-118.5 0.2c-1.5 0.8-1.4 1.2 0.1 0.4 0.6-0.4 1.2-0.7 1.2-0.8 0-0.3-0.1-0.3-1.3 0.4zm59.3-0.4c0 0.1 0.5 0.4 1.2 0.8 0.6 0.3 1.2 0.5 1.2 0.4 0-0.1-0.6-0.5-1.2-0.8-0.7-0.4-1.2-0.5-1.2-0.4zm-55.7 1.2c-1.5 0.8-1.4 1.2 0.1 0.4 0.6-0.4 1.2-0.7 1.2-0.8 0-0.3-0.1-0.3-1.3 0.4zm62.1-0.4c0 0.1 0.5 0.4 1.2 0.8 0.6 0.3 1.2 0.5 1.2 0.4 0-0.1-0.6-0.5-1.2-0.8-0.7-0.4-1.2-0.5-1.2-0.4zm-120.8 1.4c-0.5 0.6-0.8 1.2-0.7 1.2 0.1 0 0.6-0.6 1.1-1.2 0.4-0.7 0.7-1.2 0.6-1.2-0.1 0-0.6 0.5-1 1.2zm118-0.2c0 0.1 0.5 0.4 1.2 0.8 0.6 0.3 1.2 0.5 1.2 0.4 0-0.1-0.6-0.5-1.2-0.8-0.7-0.4-1.2-0.5-1.2-0.4zm-67.3 0.8c-1.5 0.8-1.4 1.2 0.1 0.4 0.6-0.4 1.2-0.7 1.2-0.8 0-0.3-0.1-0.3-1.3 0.4zm73.7 0c0 0.1 0.5 0.4 1.2 0.8 0.6 0.3 1.2 0.5 1.2 0.4 0-0.1-0.6-0.5-1.2-0.8-0.7-0.4-1.2-0.5-1.2-0.4zm-70.1 0.8c-1.5 0.8-1.4 1.2 0.1 0.4 0.6-0.4 1.2-0.7 1.2-0.8 0-0.3-0.1-0.3-1.3 0.4zm-7.6 1.4c-0.9 0.4-1.5 0.9-1.5 1 0 0.1 0.7-0.2 1.6-0.6 0.9-0.5 1.6-0.9 1.6-1 0-0.3 0-0.3-1.7 0.6zm-49.5 1.2c-0.5 0.6-0.8 1.2-0.7 1.2 0.1 0 0.6-0.6 1.1-1.2 0.4-0.7 0.7-1.2 0.6-1.2-0.1 0-0.6 0.5-1 1.2zm52.7-0.2c-1.5 0.8-1.4 1.2 0.1 0.4 0.6-0.4 1.2-0.7 1.2-0.8 0-0.3-0.1-0.3-1.3 0.4zm74.5-0.4c0 0.1 0.5 0.4 1.2 0.8 0.6 0.3 1.2 0.5 1.2 0.4 0-0.1-0.6-0.5-1.2-0.8-0.7-0.4-1.2-0.5-1.2-0.4zm6.4 0.8c0 0.1 0.5 0.4 1.2 0.8 0.6 0.3 1.2 0.5 1.2 0.4 0-0.1-0.6-0.5-1.2-0.8-0.7-0.4-1.2-0.5-1.2-0.4zm-88.5 1c-0.9 0.5-1.5 0.9-1.5 1 0 0.1 0.7-0.2 1.6-0.6 0.9-0.5 1.6-0.9 1.6-1 0-0.3 0-0.3-1.7 0.6zm85.7 0.2c0 0.1 0.5 0.4 1.2 0.8 0.6 0.3 1.2 0.5 1.2 0.4 0-0.1-0.6-0.5-1.2-0.8-0.7-0.4-1.2-0.5-1.2-0.4zm-82.5 0.8c-1.5 0.8-1.4 1.2 0.1 0.4 0.6-0.4 1.2-0.7 1.2-0.8 0-0.3-0.1-0.3-1.3 0.4zm88.9 0c0 0.1 0.5 0.4 1.2 0.8 0.6 0.3 1.2 0.5 1.2 0.4 0-0.1-0.6-0.5-1.2-0.8-0.7-0.4-1.2-0.5-1.2-0.4zm-96.1 1.2c-1.5 0.8-1.4 1.2 0.1 0.4 0.6-0.4 1.2-0.7 1.2-0.8 0-0.3-0.1-0.3-1.3 0.4zm93.3 0c0 0.1 0.5 0.4 1.2 0.8 0.6 0.3 1.2 0.5 1.2 0.4 0-0.1-0.6-0.5-1.2-0.8-0.7-0.4-1.2-0.5-1.2-0.4zm-138 1.8c-0.5 0.6-0.8 1.2-0.7 1.2 0.1 0 0.6-0.6 1.1-1.2 0.4-0.7 0.7-1.2 0.6-1.2-0.1 0-0.6 0.5-1 1.2zm47.5-0.6c-1.5 0.8-1.4 1.2 0.1 0.4 0.6-0.4 1.2-0.7 1.2-0.8 0-0.3-0.1-0.3-1.3 0.4zm96.9-0.4c0 0.1 0.5 0.4 1.2 0.8 0.6 0.3 1.2 0.5 1.2 0.4 0-0.1-0.6-0.5-1.2-0.8-0.7-0.4-1.2-0.5-1.2-0.4zm-104.1 1.6c-1.5 0.8-1.4 1.2 0.1 0.4 0.6-0.4 1.2-0.7 1.2-0.8 0-0.3-0.1-0.3-1.3 0.4zm3.6 0.8c-1.5 0.8-1.4 1.2 0.1 0.4 0.6-0.4 1.2-0.7 1.2-0.8 0-0.3-0.1-0.3-1.3 0.4zm100.5 0.4c0 0.1 0.5 0.4 1.2 0.8 0.6 0.3 1.2 0.5 1.2 0.4 0-0.1-0.6-0.5-1.2-0.8-0.7-0.4-1.2-0.5-1.2-0.4zm-108.5 1.2c-1.5 0.8-1.4 1.2 0.1 0.4 0.6-0.4 1.2-0.7 1.2-0.8 0-0.3-0.1-0.3-1.3 0.4zm114.9-0.4c0 0.1 0.5 0.4 1.2 0.8 0.6 0.3 1.2 0.5 1.2 0.4 0-0.1-0.6-0.5-1.2-0.8-0.7-0.4-1.2-0.5-1.2-0.4zm-154 2c-0.7 1-1.2 1.8-1.1 1.8 0.1 0 0.8-0.8 1.5-1.8 0.7-1 1.1-1.8 1-1.8-0.1 0-0.7 0.8-1.4 1.8zm42.7-0.8c-1.5 0.8-1.4 1.2 0.1 0.4 0.6-0.4 1.2-0.7 1.2-0.8 0-0.3-0.1-0.3-1.3 0.4zm108.5 0c0 0.1 0.5 0.4 1.2 0.8 0.6 0.3 1.2 0.5 1.2 0.4 0-0.1-0.6-0.5-1.2-0.8-0.7-0.4-1.2-0.5-1.2-0.4zm-116.5 1.6c-1.5 0.8-1.4 1.2 0.1 0.4 0.6-0.4 1.2-0.7 1.2-0.8 0-0.3-0.1-0.3-1.3 0.4zm3.6 0.8c-1.5 0.8-1.4 1.2 0.1 0.4 0.6-0.4 1.2-0.7 1.2-0.8 0-0.3-0.1-0.3-1.3 0.4zm116.5-0.4c0 0.1 0.5 0.4 1.2 0.8 0.6 0.3 1.2 0.5 1.2 0.4 0-0.1-0.6-0.5-1.2-0.8-0.7-0.4-1.2-0.5-1.2-0.4zm-124.5 2c-1.5 0.8-1.4 1.2 0.1 0.4 0.6-0.4 1.2-0.7 1.2-0.8 0-0.3-0.1-0.3-1.3 0.4zm-33.5 1.4c-0.5 0.6-0.8 1.2-0.7 1.2 0.1 0 0.6-0.6 1.1-1.2 0.4-0.7 0.7-1.2 0.6-1.2-0.1 0-0.6 0.5-1 1.2zm37.1-0.6c-1.5 0.8-1.4 1.2 0.1 0.4 0.6-0.4 1.2-0.7 1.2-0.8 0-0.3-0.1-0.3-1.3 0.4zm130.1-0.4c0 0.1 0.5 0.4 1.2 0.8 0.6 0.3 1.2 0.5 1.2 0.4 0-0.1-0.6-0.5-1.2-0.8-0.7-0.4-1.2-0.5-1.2-0.4zm-137.3 1.6c-1.5 0.8-1.4 1.2 0.1 0.4 0.6-0.4 1.2-0.7 1.2-0.8 0-0.3-0.1-0.3-1.3 0.4zm3.2 1c-0.9 0.5-1.5 0.9-1.5 1 0 0.1 0.7-0.2 1.6-0.6 0.9-0.5 1.6-0.9 1.6-1 0-0.3 0-0.3-1.7 0.6zm137.7-0.6c0 0.1 0.5 0.4 1.2 0.8 0.6 0.3 1.2 0.5 1.2 0.4 0-0.1-0.6-0.5-1.2-0.8-0.7-0.4-1.2-0.5-1.2-0.4zm31.6 1.8c0.4 0.6 0.9 1.2 1 1.2 0.1 0-0.2-0.6-0.6-1.2-0.5-0.7-1-1.2-1.1-1.2-0.1 0 0.2 0.5 0.7 1.2zm-34.4-0.6c0 0.1 0.5 0.4 1.2 0.8 0.6 0.3 1.2 0.5 1.2 0.4 0-0.1-0.6-0.5-1.2-0.8-0.7-0.4-1.2-0.5-1.2-0.4zm-142.9 1c-0.9 0.4-1.5 0.9-1.5 1 0 0.1 0.7-0.2 1.6-0.6 0.9-0.5 1.6-0.9 1.6-1 0-0.3 0-0.3-1.7 0.6zm-27.9 0.8c-0.5 0.6-0.8 1.2-0.7 1.2 0.1 0 0.6-0.6 1.1-1.2 0.4-0.7 0.7-1.2 0.6-1.2-0.1 0-0.6 0.5-1 1.2zm31.9-0.2c-1.5 0.8-1.4 1.2 0.1 0.4 0.6-0.4 1.2-0.7 1.2-0.8 0-0.3-0.1-0.3-1.3 0.4zm148.1 0.8c0 0.1 0.5 0.4 1.2 0.8 0.6 0.3 1.2 0.5 1.2 0.4 0-0.1-0.6-0.5-1.2-0.8-0.7-0.4-1.2-0.5-1.2-0.4zm-156.1 0.8c-1.5 0.8-1.4 1.2 0.1 0.4 0.6-0.4 1.2-0.7 1.2-0.8 0-0.3-0.1-0.3-1.3 0.4zm3.6 0.8c-1.5 0.8-1.4 1.2 0.1 0.4 0.6-0.4 1.2-0.7 1.2-0.8 0-0.3-0.1-0.3-1.3 0.4zm156.1 0.4c0 0.1 0.5 0.4 1.2 0.8 0.6 0.3 1.2 0.5 1.2 0.4 0-0.1-0.6-0.5-1.2-0.8-0.7-0.4-1.2-0.5-1.2-0.4zm-164.1 1.2c-1.5 0.8-1.4 1.2 0.1 0.4 0.6-0.4 1.2-0.7 1.2-0.8 0-0.3-0.1-0.3-1.3 0.4zm161.3 0c0 0.1 0.5 0.4 1.2 0.8 0.6 0.3 1.2 0.5 1.2 0.4 0-0.1-0.6-0.5-1.2-0.8-0.7-0.4-1.2-0.5-1.2-0.4zm-184.4 1.4c-0.5 0.6-0.8 1.2-0.7 1.2 0.1 0 0.6-0.6 1.1-1.2 0.4-0.7 0.7-1.2 0.6-1.2-0.1 0-0.6 0.5-1 1.2zm26.7-0.6c-1.5 0.8-1.4 1.2 0.1 0.4 0.6-0.4 1.2-0.7 1.2-0.8 0-0.3-0.1-0.3-1.3 0.4zm187.3 1.8c0.4 0.6 0.9 1.2 1 1.2 0.1 0-0.2-0.6-0.6-1.2-0.5-0.7-1-1.2-1.1-1.2-0.1 0 0.2 0.5 0.7 1.2zm-195.3-0.2c-1.5 0.8-1.4 1.2 0.1 0.4 0.6-0.4 1.2-0.7 1.2-0.8 0-0.3-0.1-0.3-1.3 0.4zm169.3-0.4c0 0.1 0.5 0.4 1.2 0.8 0.6 0.3 1.2 0.5 1.2 0.4 0-0.1-0.6-0.5-1.2-0.8-0.7-0.4-1.2-0.5-1.2-0.4zm5.6 0.4c0 0.1 0.5 0.4 1.2 0.8 0.6 0.3 1.2 0.5 1.2 0.4 0-0.1-0.6-0.5-1.2-0.8-0.7-0.4-1.2-0.5-1.2-0.4zm-171.3 0.8c-1.5 0.8-1.4 1.2 0.1 0.4 0.6-0.4 1.2-0.7 1.2-0.8 0-0.3-0.1-0.3-1.3 0.4zm-25.1 2.2c-0.5 0.6-0.8 1.2-0.7 1.2 0.1 0 0.6-0.6 1.1-1.2 0.4-0.7 0.7-1.2 0.6-1.2-0.1 0-0.6 0.5-1 1.2zm17.1-0.6c-1.5 0.8-1.4 1.2 0.1 0.4 0.6-0.4 1.2-0.7 1.2-0.8 0-0.3-0.1-0.3-1.3 0.4zm182.9-0.4c0 0.1 0.5 0.4 1.2 0.8 0.6 0.3 1.2 0.5 1.2 0.4 0-0.1-0.6-0.5-1.2-0.8-0.7-0.4-1.2-0.5-1.2-0.4zm-179.3 1.2c-1.5 0.8-1.4 1.2 0.1 0.4 0.6-0.4 1.2-0.7 1.2-0.8 0-0.3-0.1-0.3-1.3 0.4zm176.5 0c0 0.1 0.5 0.4 1.2 0.8 0.6 0.3 1.2 0.5 1.2 0.4 0-0.1-0.6-0.5-1.2-0.8-0.7-0.4-1.2-0.5-1.2-0.4zm6.4 0.8c0 0.1 0.5 0.4 1.2 0.8 0.6 0.3 1.2 0.5 1.2 0.4 0-0.1-0.6-0.5-1.2-0.8-0.7-0.4-1.2-0.5-1.2-0.4zm-190.9 0.8c-1.5 0.8-1.4 1.2 0.1 0.4 0.6-0.4 1.2-0.7 1.2-0.8 0-0.3-0.1-0.3-1.3 0.4zm4 0.6c-0.9 0.5-1.5 0.9-1.5 1 0 0.1 0.7-0.2 1.6-0.6 0.9-0.5 1.6-0.9 1.6-1 0-0.3 0-0.3-1.7 0.6zm-19.9 2.2c-0.7 1-1.2 1.8-1.1 1.8 0.1 0 0.8-0.8 1.5-1.8 0.7-1 1.1-1.8 1-1.8-0.1 0-0.7 0.8-1.4 1.8zm11.9-0.6c-0.9 0.4-1.5 0.9-1.5 1 0 0.1 0.7-0.2 1.6-0.6 0.9-0.5 1.6-0.9 1.6-1 0-0.3 0-0.3-1.7 0.6zm214.1 2c0.9 1.3 1.7 2.4 1.8 2.4 0.1 0-0.5-1.1-1.4-2.4-0.9-1.3-1.7-2.4-1.9-2.4-0.1 0 0.6 1.1 1.5 2.4zm-210.1-1.4c-1.5 0.8-1.4 1.2 0.1 0.4 0.6-0.4 1.2-0.7 1.2-0.8 0-0.3-0.1-0.3-1.3 0.4zm197.3 0c0 0.1 0.5 0.4 1.2 0.8 0.6 0.3 1.2 0.5 1.2 0.4 0-0.1-0.6-0.5-1.2-0.8-0.7-0.4-1.2-0.5-1.2-0.4zm-205.7 1.8c-0.9 0.5-1.5 0.9-1.5 1 0 0.1 0.7-0.2 1.6-0.6 0.9-0.5 1.6-0.9 1.6-1 0-0.3 0-0.3-1.7 0.6zm202.9-0.6c0 0.1 0.5 0.4 1.2 0.8 0.6 0.3 1.2 0.5 1.2 0.4 0-0.1-0.6-0.5-1.2-0.8-0.7-0.4-1.2-0.5-1.2-0.4zm-198.9 1.2c-1.5 0.8-1.4 1.2 0.1 0.4 0.6-0.4 1.2-0.7 1.2-0.8 0-0.3-0.1-0.3-1.3 0.4zm205.3-0.4c0 0.1 0.5 0.4 1.2 0.8 0.6 0.3 1.2 0.5 1.2 0.4 0-0.1-0.6-0.5-1.2-0.8-0.7-0.4-1.2-0.5-1.2-0.4zm-2.8 1.2c0 0.1 0.5 0.4 1.2 0.8 0.6 0.3 1.2 0.5 1.2 0.4 0-0.1-0.6-0.5-1.2-0.8-0.7-0.4-1.2-0.5-1.2-0.4zm-217.2 1.4c-0.5 0.6-0.8 1.2-0.7 1.2 0.1 0 0.6-0.6 1.1-1.2 0.4-0.7 0.7-1.2 0.6-1.2-0.1 0-0.6 0.5-1 1.2zm6.7-0.6c-1.5 0.8-1.4 1.2 0.1 0.4 0.6-0.4 1.2-0.7 1.2-0.8 0-0.3-0.1-0.3-1.3 0.4zm3.6 0.8c-1.5 0.8-1.4 1.2 0.1 0.4 0.6-0.4 1.2-0.7 1.2-0.8 0-0.3-0.1-0.3-1.3 0.4zm210.5 0.4c0 0.1 0.5 0.4 1.2 0.8 0.6 0.3 1.2 0.5 1.2 0.4 0-0.1-0.6-0.5-1.2-0.8-0.7-0.4-1.2-0.5-1.2-0.4zm5.6 0.4c0 0.1 0.5 0.4 1.2 0.8 0.6 0.3 1.2 0.5 1.2 0.4 0-0.1-0.6-0.5-1.2-0.8-0.7-0.4-1.2-0.5-1.2-0.4zm-224.1 0.8c-1.5 0.8-1.4 1.2 0.1 0.4 0.6-0.4 1.2-0.7 1.2-0.8 0-0.3-0.1-0.3-1.3 0.4zm3.6 0.8c-1.5 0.8-1.4 1.2 0.1 0.4 0.6-0.4 1.2-0.7 1.2-0.8 0-0.3-0.1-0.3-1.3 0.4zm-8.7 1.4c-0.5 0.6-0.8 1.2-0.6 1.2 0.4 0 2.6-1.2 2.6-1.4 0-0.1-0.4 0-0.8 0.2-0.9 0.5-1.1 0-0.3-0.7 0.2-0.3 0.3-0.5 0.2-0.5-0.2 0-0.7 0.5-1.1 1.2zm232.8-1c0 0.1 0.5 0.4 1.2 0.8 0.6 0.3 1.2 0.5 1.2 0.4 0-0.1-0.6-0.5-1.2-0.8-0.7-0.4-1.2-0.5-1.2-0.4zm4.2 1.2c0.7 1 0.7 1.1 0.1 0.9-1.2-0.5-0.8 0 0.5 0.7l1.3 0.6-0.8-1.2c-0.4-0.7-1-1.5-1.3-1.7-0.3-0.3-0.2 0 0.2 0.7zm-232.3 0.6c-0.9 0.4-1.5 0.9-1.5 1 0 0.1 0.7-0.2 1.6-0.6 0.9-0.5 1.6-0.9 1.6-1 0-0.3 0-0.3-1.7 0.6zm225.3-0.6c0 0.1 0.5 0.4 1.2 0.8 0.6 0.3 1.2 0.5 1.2 0.4 0-0.1-0.6-0.5-1.2-0.8-0.7-0.4-1.2-0.5-1.2-0.4zm3.6 2c0 0.1 0.5 0.4 1.2 0.8 0.6 0.3 1.2 0.5 1.2 0.4 0-0.1-0.6-0.5-1.2-0.8-0.7-0.4-1.2-0.5-1.2-0.4zm-233.3 1c-0.9 0.5-1.5 0.9-1.5 1 0 0.1 0.7-0.2 1.6-0.6 0.9-0.5 1.6-0.9 1.6-1 0-0.3 0-0.3-1.7 0.6zm-5.1 1.9c0 0.9 0.9 1.3 1.4 0.5 0.1-0.2 0-0.3-0.4-0.2-0.3 0.2-0.6 0-0.7-0.5-0.2-0.6-0.2-0.5-0.3 0.2zm244.8 0.7c0 0.1 0.5 0.4 1.2 0.8 0.6 0.3 1.2 0.5 1.2 0.4 0-0.1-0.6-0.5-1.2-0.8-0.7-0.4-1.2-0.5-1.2-0.4z"/>
		<path id="path1" fill-rule="evenodd" class="s1" d="m176.4 190v18.1l8.1 3.9c11.4 5.5 17 7.8 21.1 8.6 1.3 0.3 1.2 0.3-1.9 1.2-3 0.9-4.8 1.7-16.9 7-2.5 1.1-5.8 2.3-7.3 2.7l-2.7 0.7v17.7 17.7l10.5-0.1 10.5-0.1 0.1-19.4c0.1-17.4 0.2-19.4 0.8-20.1 1-1.1 4.3-2.9 8.9-4.7 6.8-2.7 6.7-2.5 2.5-3.8-6.2-1.8-9.2-3-10.9-4.2l-1.6-1.2 0.1-18.9 0.1-18.9h9.4 9.4l0.1 11.8 0.1 11.8 4.9 1.9c2.7 1 7.4 2.9 10.4 4.1l5.5 2.1v-17.9-18h-30.6-30.6z"/>
		<path id="path2" fill-rule="evenodd" class="s2" d="m201 0.1c0.4 0.1 11.3 23 30.9 65.3 16.6 35.9 30.3 65.3 30.4 65.4 0.1 0.1 31 5.1 68.8 11.1 37.7 5.9 68.7 10.9 68.8 11.1 0.2 0.1-4.3 4.9-10 10.5-10.1 10.2-84.2 85.6-88 89.5l-2 2.1 0.9 5.1c4.6 29.2 22 139.5 21.9 139.6-0.1 0-27.7-15.4-61.5-34.3-33.7-18.9-61.6-34.3-62-34.2-0.3 0-28.2 15.2-61.9 33.6-33.8 18.5-61.4 33.5-61.6 33.4-0.1-0.1 2-13.3 4.7-29.4 2.6-16 6.5-39.7 8.6-52.7 2.1-13 5.2-32.4 7-43.2l3.1-19.6-2.7-2.8c-15.8-16.2-96-99.5-95.9-99.6 0.1-0.1 7.2-1.2 15.9-2.6 8.7-1.3 23.7-3.7 33.4-5.2 9.7-1.6 31.6-5.1 48.6-7.8 17.1-2.7 32.5-5.2 34.3-5.4 1.8-0.3 3.4-0.6 3.6-0.8 0.4-0.2 37.6-75.3 57.8-116.3 4.7-9.7 6.5-12.9 6.9-12.8zm0.8 5.6c-0.2-0.3-0.6 36-0.8 80.6l-0.3 46.1h1.2c13.7 0.1 29.2 4.3 41.4 11.3 4 2.3 4.9 2.7 5.3 2.2 8.1-10.6 11-14.6 11-15 0-0.3-13-28.6-28.8-62.8-15.9-34.3-28.9-62.4-29-62.4zm-9 129.4c-63 7.5-94.2 79.6-56.4 130.3 32.3 43.2 98.1 43.2 130.4 0 36.6-49.1 9-118.5-51.6-129.6-3.7-0.7-18.8-1.2-22.4-0.7zm-186.9 17.7c-1-0.3-0.6 0.3 2.4 3.3 1.9 2 23.3 24.3 47.6 49.4l44.1 45.7 3.1-1.2c1.7-0.6 6.7-2.3 11.2-3.8l8-2.6-0.9-3.1c-4.8-15.3-4.6-34.6 0.5-49.8 0.5-1.7 0.9-3.2 0.8-3.3 0-0.1-26.1-7.8-57.9-17.2-31.8-9.4-58.3-17.3-58.9-17.4zm388.5 2.4c-0.3 0.1-13.5 3.9-29.2 8.6-15.7 4.7-41.1 12.2-56.3 16.7-15.3 4.5-27.8 8.3-27.9 8.4-0.1 0.1 0.3 1.5 0.8 3.2 4.8 15.2 4.6 34.7-0.6 50.3-0.8 2.5-1.5 4.6-1.4 4.7 0 0.1 4.2 1.5 9.2 3.3l9.2 3.2 5-5.1c5.6-5.6 83.4-84.8 88.6-90 1.7-1.8 2.9-3.3 2.6-3.3zm-241.6 133.1c-12.1 17.2-73.5 105.5-73.4 105.6 0.1 0.1 26.9-14.5 59.6-32.3l59.4-32.5v-29.1h-1.4c-10.8 0-27.3-5.1-38.9-12-3.9-2.4-3.4-2.5-5.3 0.3zm91.8 0.1c-0.2 0.1-2 1-4 2-10.1 5.5-22.7 9-34.7 9.5l-5.5 0.2v28.7l1.5 1c0.8 0.5 27.3 15.4 58.9 33 31.6 17.7 57.6 32.2 57.8 32.3 0.8 0.5-24.1-35.7-61.2-89-6.8-9.8-12.5-17.7-12.8-17.7z"/>
	</g>
</svg>