<svg version="1.2" xmlns="http://www.w3.org/2000/svg" viewBox="0 0 184 208" width="100" height="113"><style>.a{fill:#007979}</style><path class="a" d="m159 69.8h-74.1c-2.3 0-4.2-2.5-4.2-5.6 0-3.1 1.9-5.6 4.2-5.6h74.1c2.4 0 4.2 2.5 4.2 5.6 0 3.1-1.8 5.6-4.2 5.6z"/><path class="a" d="m64.2 68.7h-35.5c-2.3 0-4.2-2.2-4.2-5 0-2.8 1.9-5.1 4.2-5.1h35.5c2.4 0 4.2 2.3 4.2 5.1 0 2.8-1.8 5-4.2 5z"/><path class="a" d="m86.3 34.5h-57.6c-2.3 0-4.2-2.5-4.2-5.6 0-3.1 1.9-5.7 4.2-5.7h57.6c2.3 0 4.2 2.6 4.2 5.7 0 3.1-1.9 5.6-4.2 5.6z"/><path class="a" d="m130.2 100.8h-102.4c-1.8 0-3.3-2.6-3.3-5.7 0-3.1 1.5-5.6 3.3-5.6h102.4c1.8 0 3.3 2.5 3.3 5.6 0 3.1-1.5 5.7-3.3 5.7z"/><path class="a" d="m102.8 131.7h-74.1c-2.3 0-4.2-2.6-4.2-5.7 0-3.1 1.9-5.6 4.2-5.6h74.1c2.4 0 4.2 2.5 4.2 5.6 0 3.1-1.8 5.7-4.2 5.7z"/><path class="a" d="m159 131.7h-35.5c-2.3 0-4.2-2.6-4.2-5.7 0-3.1 1.9-5.6 4.2-5.6h35.5c2.4 0 4.2 2.5 4.2 5.6 0 3.1-1.8 5.7-4.2 5.7z"/><path class="a" d="m159 162.6h-130.3c-2.3 0-4.2-2.5-4.2-5.6 0-3.1 1.9-5.7 4.2-5.7h130.3c2.4 0 4.2 2.6 4.2 5.7 0 3.1-1.8 5.6-4.2 5.6z"/><path class="a" d="m64 193.5h-35.5c-2.3 0-4.2-2.5-4.2-5.6 0-3.1 1.9-5.7 4.2-5.7h35.5c2.4 0 4.2 2.6 4.2 5.7 0 3.1-1.8 5.6-4.2 5.6z"/></svg>