<svg version="1.2" xmlns="http://www.w3.org/2000/svg" viewBox="0 0 228 167" width="100" height="73">
	<title>LOGO-GRADLE-HZ_RGB-REV-svg</title>
	<defs>
		<clipPath clipPathUnits="userSpaceOnUse" id="cp1">
			<path d="m0.5 0.87h600v166.12h-600z"/>
		</clipPath>
		<linearGradient id="g1" x2="1" gradientUnits="userSpaceOnUse" gradientTransform="matrix(122.932,141.205,-216.93,188.858,44.865,15.064)">
			<stop offset="0" stop-color="#209bc4"/>
			<stop offset="1" stop-color="#4dc9c0"/>
		</linearGradient>
	</defs>
	<style>
		.s0 { fill: url(#g1) } 
	</style>
	<g id="Clip-Path" clip-path="url(#cp1)">
		<g id="Layer">
			<path id="Layer" fill-rule="evenodd" class="s0" d="m184.2 104c-16.6 12.3-22.4 37-22.7 58.5-0.1 1.8-1.6 3.3-3.4 3.3h-15.2c-1.7 0-3.2-1.2-3.4-2.9-1.3-10.5-9.6-18.8-20.1-20.1-12.7-1.6-24.2 7.4-25.8 20.1-0.3 1.7-1.7 2.9-3.4 2.9h-15.4c-1.7 0-3.1-1.3-3.3-2.9-1.4-10.5-9.6-18.7-20-20-12.7-1.7-24.4 7.3-26 20-0.2 1.7-1.7 3-3.5 2.9h-15.8c-1.6 0-3-1.1-3.3-2.7-8.7-45.9 7.5-82.2 34.1-101.1l13.9 24c3.4 5.7 9.5 9.3 16.2 9.3 3.2 0 6.3-0.8 9-2.4l6.5-3.6 0.2-0.2c7.7-4.7 14.8-10.1 21.5-16.2q0.3-0.2 0.5-0.4c1.1-1.5 0.9-3.6-0.5-4.7-1.4-1.2-3.4-1.1-4.7 0.1-6.4 5.7-13.2 10.8-20.5 15.3l-6.5 3.7 0.3-0.3-0.4 0.3c-5.5 3-12.5 1.1-15.7-4.4l-14.7-25.4q-0.3-0.4-0.5-0.9c-2.7-5.8-0.1-12.7 5.7-15.4 85.6-40.8 123.5 38.5 151.7 10.1 3.8-3.8 5.9-9 5.9-14.4 0-11.3-9.1-20.4-20.4-20.4-4.4 0-8.7 1.4-12.2 4.1-1.4 1-3.2 0.8-4.4-0.4l-4.5-4.4c-0.7-0.7-1-1.6-1-2.5 0-0.9 0.4-1.8 1.1-2.4 14-13.1 35.9-12.8 49.5 0.8 13.2 13.3 28.2 49.9-28.8 92.7zm-26.7-33.6c-0.1-3.8-3.1-6.8-6.9-6.8-3.8 0-6.9 3.1-6.8 6.9l10.9 5.5c1.7-1.3 2.8-3.4 2.8-5.6z"/>
		</g>
	</g>
</svg>