<svg version="1.2" xmlns="http://www.w3.org/2000/svg" viewBox="0 0 884 867" width="100" height="98">
	<title>Apache_Hive_logo-svg</title>
	<style>
		.s0 { fill: #fdee21 } 
		.s1 { fill: #c8c037 } 
		.s2 { fill: #fcf6a0 } 
		.s3 { fill: #000000 } 
		.s4 { fill: #ffffff } 
		.s5 { fill: #000000;stroke: #000000;stroke-width: .4 } 
	</style>
	<g id="Layer">
		<path id="Layer" fill-rule="evenodd" class="s0" d="m503.1 119.8c-7.7-21.2-272.9-124.3-276.3-112.9-48.7 12.6-68.5 68.8-102 104.3l-74.4-4.2c-32.8 42.1-50 85.2-38.3 129.9 42 56.9 90.8 105.4 121.2 176.8 2.4 33.7 145.8 3.6 176.6-3.1-42 30.1-78.6 76.6-62.9 210.8 14.4 63 24.2 133.4 151.4 204.7 16.8 9.4 51.4 20.2 72.8 28.1 20.5 9.4 44.5 13.2 112.1-7.4 39.1-16.9 81.4-27.1 119.7-43.9l-46 2.2c-63.4 1.4-112.3 6.1-127.4-11.6l-58.3-100.7 34-66c47 4.8 62.6 42.9 104.1 57.5l48.9-36.2c142 83.8 198.5-53.2 214.7-159.8-1.8-43.4-94 13.6-88.4-6.7 2.2-46.6-35.9-107.7-60.4-155.2l28.4-110c12.9-11.5-59.7-133.9-119-149.1-52-13.4-130.5 52.5-130.5 52.5z"/>
	</g>
	<g id="Layer">
		<g id="Layer">
			<path id="Layer" fill-rule="evenodd" class="s1" d="m736.4 353.6c0.5 11.8 0.4 26.1 1.6 35.1-0.2 6.8-5.3 7.1-9.6 8.5l27.6 10.1c5.5 9.3 9.9 18.5 14.4 27.7 5.2 22.7 1.3 23.4-2.1 25.1-10.1 0.1-20.1 0.1-29.4-1.9 4.2 2.2 5.1 3.8 5.6 6.6 0.8 5.3-2.6 12.4-8.1 19.2 8.2 4.6 23.1 9 34.1 13.2l12.6-28.1c-5.7-41.3-23-79.3-46.7-115.6z"/>
			<path id="Layer" fill-rule="evenodd" class="s1" d="m788 492c15.3 6.4 36.5 4.5 65.8-10.6 4.4-3.1 8.4-1.3 0.6 3.8-38.5 34.6-56.9 17.3-66.4 6.8z"/>
			<path id="Layer" fill-rule="evenodd" class="s1" d="m856.7 476.8c4.6 8.8 1.8 15.8 0.3 23.2-4.7 37.5-16.4 67.1-39.3 98-74.5 119.7-149.7 44.8-209.6-3.9l-24.8 62.1c-1.3 5.4-6.8 9.7 31.9 26.7l39.5-27.8c150.4 114.4 257-160.3 202-178.3z"/>
			<path id="Layer" fill-rule="evenodd" class="s1" d="m626.2 583.8c-10.1 0.8-40.3 11-41.7 17l13.9-20.7z"/>
			<path id="Layer" fill-rule="evenodd" class="s1" d="m606.5 456.9c1.8 0 10.8 2.4 9.8 1.8-1.4-0.7-0.1 12.6 2.7 19.5l-10.9 23.7c20.8-24.1 53.8-22.5 84.5-25.6l-14.7-9c2.6-8.5-0.4-15.2-1.8-22.4z"/>
			<path id="Layer" fill-rule="evenodd" class="s1" d="m657.7 385.5c-22.3 6.9-43.8 18.1-58.2 42 11-39.4 13.3-37.9 16.8-39.9 15.4-6.8 27.9-2.5 41.4-2.1z"/>
		</g>
		<g id="Layer">
			<path id="Layer" fill-rule="evenodd" class="s2" d="m538.2 847.3c-27.1 29.8-87.5-2.3-137.6-18.7-127.5-81-152.4-157.3-154.1-232.2-6.6-107.2 26.3-169.5 68-184.3-27.6 53.2-40.4 148.5-27.6 219.5 10.3 39.4 10.5 106 76.5 141.6 32.3 18.2 23.6 32.3 45.4 49.4 24 18.7 90.8 36.4 129.4 24.7z"/>
			<path id="Layer" fill-rule="evenodd" class="s2" d="m578.6 351.7c-45.8-65-110.3-89.3-182.9-92 14.5-4.8 29.1-7.2 43.7-14.3 3.5-3.7 2.4-10.3 1-17-69.9-18.3-114.1-40.9-170-61.8l150.9 36.2c101.9 3.9 93.2 29.1 157.3 148.9z"/>
			<path id="Layer" fill-rule="evenodd" class="s2" d="m627.7 320.4c-33.9-48.3-66.7-107-111.3-144.3-107.6-48.6-214.1-84.7-338.9-117.5l39.8-51.3c132.4 30.3 256.8 80.8 368.2 164.2 18.9 47.7 31.4 95.4 42.2 148.9z"/>
			<path id="Layer" fill-rule="evenodd" class="s2" d="m696 235c0 0-19-42.6-28.2-58.9-21.5-23.8-32.3-68.1-76.3-88.9 13.9 3.7 23.4-0.7 51.8 25l44.7 84.7z"/>
			<path id="Layer" fill-rule="evenodd" class="s2" d="m719.6 308.8c4.4-36.9 12.7-96.1 3.2-119.5-26.6-35.7-53.3-72.5-80.1-106.7-4.4-4.1-7.6-9.7-11.1-14.1 37.6 9.8 76.9 35.9 129.8 139.2z"/>
		</g>
		<g id="Layer">
			<path id="Layer" fill-rule="evenodd" class="s3" d="m561.5 313.1c-15-11.8-28.3-53.5-51-62.1-21.1-1.8-28.8-8.4-56.4-2.8 10-5 19.5-11.4 30.1-14.9 7.3-1.7 14 0.2 20.9 1.2 1.7-0.8 2.8-1.8 2.4-3.3-27.8-17.2-84.9-17.5-123.4-27.3 44.7 1.5 94.2-1 127.8 9.8 27 24 35.8 69.1 49.6 99.4z"/>
			<path id="Layer" fill-rule="evenodd" class="s3" d="m643.4 112c6.2 0.6 39.6 53.4 41.1 62.2 2.8 19.2 9.7 40.7 11.5 60.8-5.5-19.3-11.5-38.6-19-57.8-2.2-5.3-7.7-17.3-23.1-34.3-7.1-12-8.7-21.4-10.5-30.9z"/>
			<path id="Layer" fill-rule="evenodd" class="s3" d="m756.5 399.6l-14.3-0.1 15.8 4.2z"/>
			<path id="Layer" fill-rule="evenodd" class="s3" d="m659.1 385.3c-14.4-1.8-29.1-2-43.5 1.1-5.8 7.9-6.2 15.9-8.8 23.3 17.5-19.2 24.4-20.4 52.3-24.4z"/>
			<path id="Layer" fill-rule="evenodd" class="s3" d="m854.9 484.6c-8 6.3-8.8 12.3-32.4 19.5-17.3 4.1-27-2.8-35.1-12.1 12.3 3.5 14.3 12.8 47.2 2.4z"/>
			<path id="Layer" fill-rule="evenodd" class="s3" d="m783.3 488.6c-5.8 15.8-12 31.8-18.2 46.6-14.9 17.4-8.6 7.5-30.8 34.6 7.1-11 16.4-21.6 21.2-33 3.4-7.6 7.7-15.6 9.6-22.3-6-2.9-18-3.2-19.7-2.1-19.8 11.7-23.4 24-35 36.1 8.4-13.6 15.7-28.3 25.5-40.5 1.1-1.6 8.3-1.9 12.8-2.8-6.9-1.2-19.8-3.7-20.8-3.6-12.9 3.1-20.2 14.4-29.8 21.8 7-10.1 13.5-20.6 22.4-29.2 0.8-1.1 24.8 1 37.3 6l0.2 4.9 7.1 2.9 5.3-13.3z"/>
			<path id="Layer" fill-rule="evenodd" class="s3" d="m626.5 583.9c-3.2-1.1-31.3-4.7-31.3-3.9-10.8 7.7-12.5 15.1-12.2 21.5 18-17.7 17.3-17.8 43.5-17.6z"/>
			<path id="Layer" fill-rule="evenodd" class="s3" d="m605.1 456.6c0 0 20.4-3 20-1.1-1.5 7.1 2.5 24.3 2.9 21.9l-11.4 9.3c23.9-12 49.1-9.6 74.6-11.4 0 0-21.5-6-20.2-6.2 4.8-0.7-1.2-22.4-2.9-22.9 4.1-1.4 8.1-2.4 12.2-3.4-30.7-8.1-48.5-3.3-75.2 13.8z"/>
			<path id="Layer" fill-rule="evenodd" class="s3" d="m781 471.8l-4.5 2.2c-0.6-13.2-14.8-12.2-26.8-12.3l-9.9-2.4c3 2.7 12.3 2.5 8.5 8.5-3.1 1.7-4.5 8.9-6.3 14.9l-5.3 0.3c9.3 3.6 18.1 6.8 28.4 11.1l6.1 1 14.6-7.9z"/>
		</g>
		<g id="Layer">
			<path id="Layer" fill-rule="evenodd" class="s4" d="m646.3 462.9c-2.3-4.6-13.8-3.9-16.2-1-2.1 2.4-0.2 17.6 2.4 15.1 3.7-3.3 8.6-4.7 14.5-4.4 0.7-2.8 0.5-5.9-0.7-9.7z"/>
			<path id="Layer" fill-rule="evenodd" class="s4" d="m756.7 485.6c1.1-0.8 3.3-8.4 2.6-10.7-1.5-5.4-12.2-4.3-12.2-4.3-2.6 1.5-4.9 10-3.9 12.7 0.4 2.4 11.8 3.1 13.5 2.3z"/>
		</g>
		<g id="Layer">
			<path id="Layer" fill-rule="evenodd" class="s3" d="m299.1 749.6l6.8 0.7c40 19.7 106 48.8 201.5 33.2l15 23.6c-42 20.4-87.3 15.7-129.7 17.1z"/>
			<path id="Layer" fill-rule="evenodd" class="s3" d="m241.6 594.1l20.1 84.3c53.7 33.6 145.5 72 222 68.9l-16.9-38.8c-159.7-33.9-173.2-76.8-225.2-114.4z"/>
			<path id="Layer" fill-rule="evenodd" class="s3" d="m291.5 421.5c9.8 65.3 22.9 114.8 79.7 156.3 34.8 25 69.4 49.9 111.4 70.5 0 0-3.7 19.2-6.8 18.8-125-13.9-216.6-117.6-227.7-164.9 10.8-36.3 26.2-59 43.4-80.7z"/>
			<path id="Layer" fill-rule="evenodd" class="s3" d="m351.6 384.5c16.7 72.4 56.4 145.7 95.9 212.2 14.5 18.3 18.3 26.4 40.6 37.6 30.2 9.6 51.5 7.1 73.4 5.7-6-11.1-11.3-22.7-18.2-33.1-49.1-38.8-26.4-74.1-13.4-96.4-27.2-6.9-63.3-21.6-68.3-40.8-8-62.3-4-82 4-114-36.9 7.8-74.3 15.5-114 28.8z"/>
			<path id="Layer" fill-rule="evenodd" class="s5" d="m216.2 0.1c72.4 5.6 151.4 34 164.1 45.9 26.5 12.1 51.2 24.8 71.7 35.8 3.1 1.8 19.8 14.8 54.4 32 15.6-9.9 28.9-26.7 45.9-37.5 10.7-6.9 24.2-10.1 39.9-13.4 13-2.4 50.5 1.6 60 5.8 34.1 15.4 52.7 39.9 74.5 71.3 9.6 14.6 16.9 28.4 23 40.8 6 12.2 14.4 24.8 14.2 34.1 0.2 5.3-3.7 9.2-6.6 16.1-10 27.4-18.7 49.9-23.8 81.2-0.5 4.1-2.3 10.1-2.9 17.3-0.2 1.1 0.4 3.9 0.4 3.9l-0.9 10.4c-0.7 5.8-0.1 10.1-0.2 18.2 0 0-13.5-29.9-10.3-53.9 0-5.8 15.7-49.4 18.5-55.8 3-9.5 5.2-17.4 8-31.6 2.8-14.3 0.4-22.1-5.7-33.9-25.2-48.4-67.1-94.2-83.1-106.7-1.6-1.4-15.6-4.2-19.9-6.5-4.2-1.8 5.2 9 5.2 9-5.9 5.6-31.1-21.8-75-2-10 3.7-16.6 9.9-23.7 15.4-7.5 5.7-15.9 14.8-22.6 21.6 0.3 2 4.6 4.9 12.6 9.5 21.2 12.2 55.7 38.6 64 49 2.9 3.1 13.8 62 24.7 99.9 3.3 11.8 29.2 25.1 29.2 25.1-5.8 0.7-19.8-3.7-25.7-5.9-0.9 4.8 4.8 31 4.8 31 0 0-5.9-12.7-12.6-44.1-9.3-30.9-19.5-62.8-33.6-92.4-13.8-19.2-60.9-54.8-76.5-59.9-17.9-10.2-36.5-18.7-57.1-29.8-50.5-27.1-114.5-67.5-216-83.6-11 1.2-16.1 4.1-29 9.7-28.3 26.7-36.1 56.4-79.1 81.7 1.2 3.4 3.8 5.3 8.1 5.9 28.6 5.9 73.9 34.7 114.3 57 0 0-53.9-25-94.7-40.2-16.1-6-31.8-8.1-39.3-9.3-16.3-3.2-37.3-3.6-58.6-4-20.4 20.9-32.4 41.7-39.8 67.2v0.1l-0.1 0.1c-2.5 27.3 2.3 36.9 4.1 46.1 7.4 31.3 33.7 60.8 64.4 91.3 8.5 8.5 17.2 16.7 24.7 26.8l0.2 0.1 0.1 0.2c12.8 18.8 16.7 53.9 30.7 73.5 2.3 2.1 37.6-0.4 58.4 2.4 9 1.2 18.2 1.2 27.6 0 28.8-7.2 47.6-14 70.2-20.6 9.9-5.4 45.1-18.2 55.6-20.6l2.1 13.5c-21 4.6-40.4 12.9-58.3 25-3.5 1.4-7.7 8.7-11.5 13.1-60.3 76.5-38 177.4-22.5 235.6 10.3 24.2 24.3 58.4 39.1 75.1 24.6 25.1 53.7 50.5 85.2 70.4q2.3 1.4 4.6 2.8c26.6 16.2 54.8 28.2 83.7 32.8 14.6 2.5 85.5 11.9 54.2-29-0.5-0.9-7.8-8.6-11.2-17.2-0.3-0.8-9.6-13.8-14.5-21.2-16.9-25.2-43.6-66.5-37.7-76.7-0.2-14 3.2-30.7 7.2-40.5 5.9-14 10.6-26.6 14.5-34.6l46.7-33.6c8.8 14.1 19.1 24.2 27 40.7 15.8 42.5 54.6 45.4 87.2 12.9l9.6-8.2c25.1 12.9 49.2 33.1 95.5 25 38-5.7 64.8-47.1 88.7-93.2 11.5-26.2 19-54.9 21.2-79.7 0.2-1.7-1-24.1-12.9-23.1-17.7 1.3-16.8 10.3-37.3 14.7-12.5-0.7-28.5 1-29.3-0.6-8.3-12.3 1.5-34.1-9.4-51.7-2.2-2.7-32.9-60.7-38.9-85.2-1.6-6.5-5.8-7.1-5.8-7.1l0.9-10.5c0 0 10.7 9.9 15.1 13.6 10.1 9.5 16.2 33.5 18.3 36.6 8 15.3 19.5 35.6 28.3 54.9 1 2 3.4 13.9 1.2 38.3 0 0.3-5.8 0.4-9.3 0.6 28.9 3.4 39.6-11.4 68.8-19.3 8.2-1.8 17.7 10.9 24.9 23.2 5.2 6.1-13.2 112-71.3 179.2-45.7 38.3-111.5 29.2-151.9-0.5-13.6 19.1-25.8 40.8-82 24.1-16.8-11.1-18.8-26.4-26.2-41.7-11 2.7-18.8 1.1-36.8-0.9-6 0.1-8.5 0.4-13 9.4l14.8 22.1c5.5 6.4 10.6 19.1 44.8 33.6 3.7 1.9 13.1 1.5 15 1.2l-3.2 1c-16.8 5.4-40-5.1-40.2-4.6-18.1-5.7-31.7-16.8-42.4-30 0.8 11.8 1.1 24.6 5.3 36.1 3.1 8.7 4.8 10.9 7.4 17.4 1.4 1.8 7.4 2.7 14.7 5.6 2.9 1 12.2 4.4 17.7 5 16.4 1.9 34.9-0.2 34.9-0.2-10.6 10.9-41.9 9.2-56 8 5.8 10.9 11.3 23.3 15 32.4 2.3 5.8 1.9 5.8 34 9.2-15 1.4-24.8 5.4-28.2 5.5-2.5 0.1 1.4 7.8 2.4 9.2 6.4 6.2 16.4 6.7 25.4 8.1 39.3 3.9 124.9-3.2 124.9-3.2 0 0-96.5 33.9-143.8 48.3-17.9 4.7-36.9 5.9-53.6 3.7-95.9-21.6-164.7-77.4-195.5-120.9-10.4-14.7-21.2-36.7-26.3-50.6-11.1-30.4-18.4-56.9-22-89-6.2-72.3 3.6-118.1 39.6-169.6 3.8-5.9 13.9-10.3 15.3-15-10.7 4.2-22.4 8.7-35.6 11.9-13.6 4.7-29.7 7.2-43.4 9.8-10 1.1-20.5 1.4-28.2 1.2-17.7-1.5-37.5-1.5-51.9-4.6-6.6-1.4-6.1-1.4-8.6-6.3-6.8-15.3-13.1-37.2-21.6-53.1-11.3-24.6-27.1-41.3-54.6-68.1-30.8-32.3-62.9-74.3-50.3-125.2 6.1-20 20.8-51.7 32.4-68.5 10.6-12.6 21.5-16.7 32.9-10.5 13 1.7 17.6 0.5 24.6 0.1 15-0.8 26.9-6.7 31.1-10.4 21.2-15.6 35.1-36.6 55.9-58.2 12.6-12.9 24.3-24.2 36.4-32.1zm355.8 707.5q0 0-0.3 0.1zm76.7-54.8l-8.5-10.6c-3.7 2.7-7.3 5.1-12 15.1-2.3 3.9-5.3 6.5-7.7 6.7-10.4 1.4-22-1-34.5-9.6 1.7 5 12.5 10.7 19.7 16-7 0.4-17.4-0.3-20.2-4.2-10.6-14.9-9.1-19.5-6.9-22.9 10.8-14.6 24.8-29.3 28.6-50.1 11.9 17.7 29.8 34.8 51.1 51.4z"/>
		</g>
	</g>
</svg>