<svg version="1.2" xmlns="http://www.w3.org/2000/svg" viewBox="0 0 195 185" width="100" height="95"><style>.a{fill:#fc0}.b{fill:#ffe680}.c{fill:#fd5}.d{fill:#ffd42a}</style><path class="a" d="m157.1 184.7l-60-31.5-60 31.5 11.4-66.8-48.5-47.4 67.1-9.7 30-60.8 30 60.8 67.1 9.8-48.6 47.3z"/><path class="b" d="m127.3 60.4c-30.4 41.4-30.7 41.8-30.7 41.8l97.4-31.9z"/><path fill-rule="evenodd" class="c" d="m97.1 101.3v52l-60.6 31.1zm48.4 15.5l11.2 66-59.6-81.5z"/><path class="b" d="m0.4 70.4l96.7 30.9-29.9-40.8z"/><path class="c" d="m97.1 101.3v-101.2l29.8 60.4z"/><path class="d" d="m37.1 183.6l11.2-66.6 48.8-15.7z"/></svg>