<svg version="1.2" xmlns="http://www.w3.org/2000/svg" viewBox="0 0 281 217" width="100" height="77">
	<title>Kawa-logo-svg</title>
	<style>
		.s0 { fill: #00437c } 
	</style>
	<path id="path2825" fill-rule="evenodd" class="s0" d="m236.4 67.8v18.5q1.6-0.1 3.2-0.1c18.9 0 34.2 14.2 34.2 31.7 0 17.5-15.3 31.7-34.2 31.7q-1.6 0-3.2-0.1v6.6c0 12.4-9.9 22.3-22.3 22.3h-151.5c-12.4 0-22.3-9.9-22.3-22.3v-88.3c0 0 196.1 0 196.1 0zm-137.6 23.7q-1.3 0-2.1 0.2-2.4 2.3-4.7 5.6-2.2 3.3-4 7.3-1.8 4.1-3 8.9-1 4.8-1 10.2 0 5.3 1 10.2 1.2 4.7 3 8.8 1.8 4 4 7.3 2.3 3.3 4.7 5.6 0.8 0.2 2.1 0.2 1.3 0.1 2.6 0.1 1.5 0 3-0.1 1.5 0 2.6-0.2c-0.8-0.9-1.9-2.3-3.3-4.2q-2.1-2.7-4.2-6.7-2.1-4-3.5-9.3-1.5-5.3-1.5-11.7 0-6.5 1.5-11.8 1.4-5.2 3.5-9.3 2.1-4 4.2-6.7c1.4-1.9 2.5-3.3 3.3-4.2q-1.1-0.2-2.5-0.2-1.4-0.1-2.9-0.1-1.4 0-2.8 0.1zm73.4 0q-1.3 0-2.5 0.2c0.9 0.9 2 2.3 3.4 4.2q2.1 2.7 4.1 6.7 2.1 4.1 3.5 9.3 1.5 5.3 1.5 11.8 0 6.4-1.5 11.7-1.4 5.3-3.5 9.3-2 4-4.1 6.7c-1.4 1.9-2.5 3.3-3.4 4.2q1.2 0.2 2.6 0.2 1.5 0.1 2.9 0.1 1.4 0 2.7-0.1 1.3 0 2.1-0.2c1.5-1.5 3.1-3.4 4.7-5.6q2.3-3.3 4.1-7.3 1.7-4.1 2.8-8.8 1.1-4.9 1.1-10.2 0-5.4-1.1-10.2-1.1-4.8-2.8-8.9-1.8-4-4.1-7.3c-1.6-2.2-3.2-4-4.7-5.6q-0.8-0.2-2.2-0.2-1.3-0.1-2.8-0.1-1.4 0-2.8 0.1zm-53.6 11.4h4.3q3.5 0 4.9 1 1.4 1.1 2.4 3.9l2.4 6.3-16.3 38.3h13.5l8.8-22.1 8.4 22.1h13.4l-17.2-45.8q-2.6-6.8-6.3-9.7-3.7-2.9-10.5-2.9h-7.8zm117.8-1.4v32.9q1.6 0.2 3.2 0.2c10 0 18-7.4 18-16.7 0-9.2-8-16.7-18-16.7q-1.6 0-3.2 0.3z"/>
	<path id="path2826" class="s0" d="m32.4 212.3c-12.4 0-22.3-10-22.3-22.3v-5.4h256.5v5.4c0 12.3-9.9 22.3-22.3 22.3z"/>
	<path id="path2824" fill-rule="evenodd" class="s0" d="m119.9 9.3q6.6 0 6.6 6.7v43.2h-10v-13.3h-19.9v13.3h-10v-43.2q0-6.7 6.7-6.7zm109.7 0q6.6 0 6.6 6.7v43.2h-9.9v-13.3h-20v13.3h-10v-43.2q0-6.7 6.7-6.7zm-179.5 0v20h6.3l6.9-20h10l-7 20q5.6 0.6 7.7 6.6l9.3 23.3h-10l-8.3-19.9h-14.9v19.9h-10v-49.9zm93 0v39.9h13.4v-39.9h9.9v39.9h13.3v-39.9h10v43.3q0 6.6-6.7 6.6h-43.2q-6.6 0-6.6-6.6v-43.3c0 0 9.9 0 9.9 0zm-46.5 26.6h20v-16.6h-20zm109.7 0h20v-16.7h-20z"/>
</svg>