<svg version="1.2" xmlns="http://www.w3.org/2000/svg" viewBox="0 0 507 478" width="100" height="94">
	<title>kk-svg</title>
	<style>
		.s0 { fill: #ffffff } 
		.s1 { fill: #000000 } 
	</style>
	<path id="path0 copy" fill-rule="evenodd" class="s0" d="m331.8 31.3c136.6 44.3 189.1 209.6 103.1 324.5-72.2 96.4-211.9 111.6-303.3 33-105.3-90.5-94.7-256.2 21.2-333.1 30.3-20.1 59.8-30 102.3-34.2 19.8-2 54 2.4 76.7 9.8zm-112 28.2l-2.9 0.8-0.4 6.5c-1.1 20.9-2.4 112.3-2.4 170v25.6l2-0.4c6.7-1.3 21.2-13.2 50.9-41.7 24.2-23.4 40.6-42.3 40.7-47 0-0.9 1.6-0.9 26.7-0.9 21.2 0 26.6 0.1 26.6 0.6 0 8.2-54.5 56.2-95.5 84.2-8.8 6-8.8 5.4 0 12.5 22.8 18.5 63.4 62.2 93.5 100.6 7 8.9 5.9 8.5 11.2 4.7 37.5-26.5 63.6-67.4 72-113 18.3-100.2-51.9-195.4-153.3-207.8-21.7-2.6-49.1-0.5-69.1 5.3zm-47.6 21.6c-0.3-0.3-9.1 5.9-14.4 10.1-94 74.8-88.5 219 10.8 286l6.1 4.1 0.4-5.7c0.6-10.4 1.4-50.2 2.1-104.1 0.9-78-0.3-133.4-4.1-180.5-0.4-5.3-0.8-9.8-0.9-9.9zm43.8 198.3l-2.1-0.4 0.4 24.8c0.5 36.4 2.2 95.8 2.7 96.3 0.4 0.4 8.3 2.4 15.1 3.8 28.5 5.9 58.5 4.5 87.3-3.9l3-0.9-1.3-2.8c-7.6-15.1-53.6-71.6-79-97.1-11.4-11.5-16.5-15.8-21.4-18.2-1.5-0.7-3.6-1.4-4.7-1.6z"/>
	<path id="path0 copy 2" fill-rule="evenodd" class="s0" d="m324.5 54.1c120.9 39.2 167.4 185.6 91.2 287.3-63.9 85.3-187.6 98.8-268.5 29.3-93.2-80.2-83.9-226.9 18.8-295 26.8-17.8 53-26.6 90.5-30.3 17.6-1.7 47.8 2.1 68 8.7zm-99.2 24.9l-2.6 0.8-0.3 5.7c-1 18.5-2.1 99.4-2.1 150.5l-0.1 22.7 1.8-0.4c6-1.1 18.8-11.6 45.1-36.9 21.4-20.7 36-37.4 36-41.6 0-0.8 1.4-0.8 23.6-0.8 18.8 0 23.7 0.1 23.7 0.6 0 7.2-48.3 49.7-84.6 74.5-7.8 5.3-7.8 4.8 0 11.1 20.2 16.3 56.1 55 82.8 89.1 6.2 7.9 5.1 7.4 9.8 4.1 33.3-23.4 56.4-59.7 63.8-100 16.2-88.7-46-173.1-135.8-184-19.1-2.4-43.4-0.5-61.1 4.6zm-42.2 19.2c-0.2-0.3-8 5.2-12.7 8.9-83.2 66.3-78.4 193.9 9.6 253.3l5.4 3.6 0.3-5.1c0.6-9.2 1.3-44.4 1.9-92.2 0.8-69-0.3-118-3.6-159.7-0.4-4.8-0.8-8.7-0.9-8.8zm38.8 175.5l-1.8-0.3 0.3 22c0.5 32.2 2 84.8 2.4 85.2 0.4 0.4 7.3 2.2 13.4 3.4 25.2 5.2 51.8 4 77.3-3.5l2.7-0.8-1.2-2.4c-6.8-13.4-47.4-63.4-69.9-86-10.2-10.2-14.7-14-19-16.1-1.3-0.6-3.2-1.3-4.2-1.5z"/>
	<g id="svgg">
		<path id="path0" fill-rule="evenodd" class="s1" d="m328.4 42c129.1 41.9 178.8 198.3 97.4 307-68.3 91.2-200.4 105.6-286.8 31.3-99.6-85.7-89.6-242.4 20-315.2 28.7-19 56.6-28.3 96.8-32.3 18.7-1.9 51 2.3 72.6 9.2zm-106 26.7l-2.8 0.8-0.3 6.1c-1 19.8-2.3 106.2-2.3 160.8v24.2l1.9-0.3c6.3-1.2 20.1-12.5 48.1-39.5 23-22.1 38.5-40 38.5-44.4 0-0.8 1.5-0.9 25.3-0.9 20.1 0 25.2 0.1 25.2 0.6 0 7.7-51.6 53.2-90.4 79.7-8.3 5.6-8.3 5 0.1 11.8 21.5 17.4 59.9 58.7 88.4 95.1 6.6 8.5 5.5 8 10.5 4.5 35.5-25.1 60.2-63.8 68.1-106.9 17.4-94.8-49.1-184.9-145-196.6-20.4-2.5-46.4-0.5-65.3 5zm-45.1 20.5c-0.2-0.3-8.6 5.6-13.5 9.5-88.9 70.8-83.8 207.2 10.2 270.6l5.8 3.9 0.3-5.5c0.6-9.8 1.4-47.5 2-98.4 0.9-73.9-0.3-126.2-3.9-170.8-0.4-5-0.8-9.2-0.9-9.3zm41.5 187.5l-1.9-0.3 0.3 23.4c0.5 34.5 2.1 90.6 2.5 91.1 0.4 0.4 7.9 2.3 14.3 3.6 27 5.5 55.4 4.2 82.6-3.7l2.9-0.9-1.3-2.6c-7.2-14.3-50.6-67.7-74.7-91.8-10.8-10.9-15.7-15-20.2-17.2-1.4-0.7-3.4-1.4-4.5-1.6z"/>
	</g>
</svg>