<svg version="1.2" xmlns="http://www.w3.org/2000/svg" viewBox="0 0 609 588" width="100" height="97">
	<title>Bot logo-svg</title>
	<style>
		.s0 { fill: #00d2ff } 
		.s1 { fill: #00e04a } 
		.s2 { fill: #ff0400 } 
		.s3 { fill: #ffffff } 
		.s4 { fill: #f8fb02 } 
	</style>
	<g id="Page-3">
		<g id="logo-copy">
			<g id="Folder 1">
				<path id="Shape" class="s0" d="m167 588c-55.1 0-110.3 0-167 0 0-55.2 0-108.8 0-164 55.1 0 110.3 0 167 0 0 53.6 0 108.8 0 164z"/>
				<path id="Shape" class="s1" d="m1 400c0-55.2 0-108.8 0-164 55.1 0 110.3 0 167 0 0 55.2 0 108.8 0 164-56.7 0-111.9 0-167 0z"/>
				<path id="Shape" class="s2" d="m1 51q82.5 0 165 0c0 55.2 0 108.8 0 164q-82.5 0-165 0c0-53.6 0-107.2 0-164z"/>
			</g>
			<g id="Folder 2">
				<path id="Shape" class="s2" d="m359 588c-55.1 0-110.3 0-167 0 0-55.2 0-108.8 0-164 55.1 0 110.3 0 167 0 0 53.6 0 108.8 0 164z"/>
				<path id="Shape" class="s0" d="m361 403c-55.1 0-110.3 0-167 0 0-55.2 0-108.8 0-164 55.1 0 110.3 0 167 0 0 55.2 0 108.8 0 164z"/>
				<path id="Shape" class="s0" d="m194 216c0-55.2 0-108.8 0-164 55.1 0 110.3 0 167 0 0 55.2 0 108.8 0 164-55.1 0-110.3 0-167 0z"/>
			</g>
			<path id="Shape" class="s3" d="m554 403c-55.1 0-110.3 0-167 0 0-55.2 0-108.8 0-164 55.1 0 110.3 0 167 0 0 53.6 0 108.8 0 164z"/>
			<path id="Shape" class="s4" d="m384 588c0-55.2 0-108.8 0-164 55.1 0 110.3 0 167 0 0 55.2 0 108.8 0 164-55.1 0-110.3 0-167 0z"/>
			<path id="Shape" class="s1" d="m563.2 206c-55.1-14.6-107.1-29.1-162.2-45.3 14.6-53.5 29.2-105.3 43.8-158.7 55.1 14.6 108.7 29.1 162.2 45.3-14.6 51.8-29.2 105.3-43.8 158.7z"/>
		</g>
	</g>
</svg>