<svg version="1.2" xmlns="http://www.w3.org/2000/svg" viewBox="0 0 166 145" width="100" height="87">
	<title>OCaml_Logo-svg</title>
	<defs>
		<linearGradient id="g1" x2="1" gradientUnits="userSpaceOnUse" gradientTransform="matrix(0,.182,-0.035,0,82.925,97.718)">
			<stop offset="0" stop-color="#f29100"/>
			<stop offset="1" stop-color="#ec670f"/>
		</linearGradient>
		<linearGradient id="g2" x2="1" gradientUnits="userSpaceOnUse" gradientTransform="matrix(0,45.296,-49.283,0,61.275,98.981)">
			<stop offset="0" stop-color="#f29100"/>
			<stop offset="1" stop-color="#ec670f"/>
		</linearGradient>
		<linearGradient id="g3" x2="1" gradientUnits="userSpaceOnUse" gradientTransform="matrix(0,144.245,-165.543,0,82.781,0)">
			<stop offset="0" stop-color="#f29100"/>
			<stop offset="1" stop-color="#ec670f"/>
		</linearGradient>
		<linearGradient id="g4" x2="1" gradientUnits="userSpaceOnUse" gradientTransform="matrix(0,51.134,-45.728,0,22.871,92.114)">
			<stop offset="0" stop-color="#f29100"/>
			<stop offset="1" stop-color="#ec670f"/>
		</linearGradient>
	</defs>
	<style>
		.s0 { fill: #ffffff } 
		.s1 { fill: #484444 } 
		.s2 { fill: url(#g1) } 
		.s3 { fill: url(#g2) } 
		.s4 { fill: url(#g3) } 
		.s5 { fill: url(#g4) } 
	</style>
	<g id="Layer">
		<g id="Layer">
			<path id="Layer" class="s0" d="m86.1 127c-0.2-1.4 0.2-2.8-0.2-4.2-0.4-1.1-1.3-1.2-1.8-2.2-1.5-2.5-3-5.7-3.1-8.8-0.1-2.7-1.1-5.2-1.3-7.9 0-1.3 0.1-2.6 0.1-3.9-0.1-0.7-0.1-1.2-0.2-1.9-0.1-0.1-0.2-0.8-0.2-1.1l0.3-0.9c-0.1-0.3 2.9-0.2 3.8-0.2 1.6 0.1 3 0.1 4.6 0.2 3.1 0.2 6 0.1 9.1-0.3 6.8-1.1 9.9-3.9 11.5-5 6.3-4.6 9.2-12 9.2-12 1-2.3 1-6.4 3.2-8.2 2.6-2.2 7-2.1 10-3.4 1.8-0.8 3.1-1.2 4.9-0.8 1.3 0.2 3.7 1.8 4.2-0.4-0.4-0.3-0.6-0.8-0.8-1.1 2.5-0.2 0-6-1-7.1-1.5-1.8-4-2.6-6.7-3.3-3.2-0.9-6.1-1.8-9.1-1.2-5.2 1-4.8-2-7.9-2-3.7 0-10.3 0.2-11.4 3.8-0.6 1.7-1.1 1.7-2 3-0.8 1.1 0.1 2.1-0.3 3.4-0.4 1.3-1 5.8-1.6 7.4-1.1 2.7-2.3 6.1-4.7 6.1-3.2 0.4-5.8 0.5-8.4-0.5-1.6-0.5-4.3-1.4-5.6-2-6.1-2.6-7.1-5.4-7.1-5.4-0.7-1-2.4-2.8-3-5.1-0.7-2.5-1.9-4.5-2.4-5.9-0.5-1.3-1.7-3.5-2.6-5.8-1.3-3-2.9-5.2-4.2-6.3-1.9-1.7-3.6-4.3-7.5-3.6-0.7 0.2-3.2 0.3-5.1 1.9-1.3 1.1-1.7 3.3-2.9 5.2-0.7 1.1-1.9 4.3-3 6.9-0.8 1.8-1.2 3.2-2 3.8-0.7 0.6-1.5 1.2-2.5 0.9q-0.9-0.4-1.9-1.2c-0.9-0.7-2.9-4.1-4.2-6.6-1-2.3-3.3-5.6-4.7-7.3-1.9-2.6-3-3.3-5.8-3.3-6.1 0-6.5 3.4-9.2 8.4-1.2 2.2-1.6 5.6-4 8.3-1.3 1.5-5.6 7.9-8.6 9v-0.1 0.1 45.2 0.1-0.3q0.3-0.9 0.6-1.7c1.2-2.4 3.9-4.7 5.4-7.2 0.8-1.4 1.7-2.8 2.2-4.2 0.5-1.2 0.7-3.1 1.4-4.2 0.8-1.3 2.1-1.7 3.4-2 2-0.3 3.8 3 6.4 4.2 1.1 0.5 6.3 2.3 7.8 2.7 2.6 0.6 5.4 1.1 8 1.7 1.4 0.2 2.7 0.4 4.2 0.6 1.2 0.1 6 0.2 6.3 0.6-2.4 1.2-3.8 4.7-4.7 7.2-1 2.6-1.7 5.4-2.8 8-1.3 2.7-4 3.9-3.7 7.1 0.2 1.3 0.4 2.7 0.2 4.1-0.3 1.5-0.9 2.7-1.3 4.2-0.6 1.9-1.2 8.1-2.1 9.9l5.3-0.7c0.6-1.4 1.2-7.2 1.3-7.8 1-2.9 2.4-5.3 4.4-7.6 2-2.2 1.9-5.1 3-7.7 1.3-2.8 3-5 4.6-7.6 2.9-4.8 4.8-10.8 10.9-12 0.6-0.1 4.4 2.6 6.1 4.2 1.9 1.8 3.9 3.9 5.2 6.4 2.4 4.9 4.5 12 5.3 15.9 0.4 2.3 0.8 2.4 2.3 4.2 0.7 0.8 2.1 3.4 2.5 4.3 0.5 1.1 1.2 3.5 1.8 4.7 0.4 0.7 1.3 2.9 1.9 4.8l5-0.1c0 0 0.1 0 0.1 0q0 0 0 0 0-0.1 0-0.1c-2.5-5-4.1-10.8-4.9-16.3z"/>
			<path id="Layer" class="s1" d="m82.9 97.9v-0.1c0-0.1 0-0.1 0 0.1z"/>
			<g id="Layer">
				<g id="Layer">
					<path id="Layer" class="s2" d="m82.9 97.9v-0.1c0-0.1 0-0.1 0 0.1z"/>
					<g id="Layer">
						<path id="Layer" class="s3" d="m84 138.7c-0.6-1.2-1.3-3.6-1.8-4.7-0.4-0.9-1.8-3.5-2.5-4.3-1.5-1.8-1.9-1.9-2.3-4.2-0.8-3.9-2.9-11-5.3-15.9-1.3-2.5-3.3-4.6-5.2-6.4-1.7-1.6-5.5-4.3-6.1-4.2-6.1 1.2-8 7.2-10.9 12-1.6 2.6-3.3 4.8-4.6 7.6-1.1 2.6-1 5.5-3 7.7-2 2.3-3.4 4.7-4.4 7.6-0.1 0.6-0.7 6.4-1.3 7.8q0 0 0 0l9.1-0.6c8.5 0.5 6.1 3.8 19.3 3.1l20.9-0.7c-0.6-1.9-1.5-4.1-1.9-4.8z"/>
					</g>
					<g id="Layer">
						<g id="Layer">
							<path id="Layer" fill-rule="evenodd" class="s4" d="m165.6 20.9v122.5c-14.9 3.4-23.9-4.9-40.4-3.4-6.5 0.7-16.7 0.1-24 1.2-4 0.6-7.1 1.7-10.2 2.2q0 0 0 0 0-0.1 0-0.1c-2.5-5-4.1-10.8-4.9-16.3-0.2-1.4 0.2-2.8-0.2-4.2-0.4-1.1-1.3-1.3-1.8-2.2-1.5-2.5-3-5.7-3.1-8.8-0.1-2.7-1.1-5.2-1.3-7.9 0-1.3 0.1-2.6 0.1-3.9-0.1-0.7-0.1-1.2-0.2-1.9-0.1-0.2-0.2-0.8-0.2-1.1l0.3-0.9c-0.1-0.3 2.9-0.2 3.8-0.2 1.6 0.1 3 0.1 4.6 0.2 3.1 0.2 6 0.1 9.1-0.3 6.8-1.1 9.9-3.9 11.5-5.1 6.3-4.5 9.2-11.9 9.2-11.9 1-2.3 1-6.4 3.2-8.2 2.6-2.2 7-2.1 10-3.4 1.8-0.8 3.1-1.2 4.9-0.8 1.3 0.2 3.7 1.8 4.2-0.4-0.4-0.3-0.6-0.8-0.8-1.1 2.5-0.2 0-6-1-7.1-1.5-1.8-4-2.6-6.7-3.3-3.2-0.9-6.1-1.8-9.1-1.2-5.2 1-4.8-2-7.9-2-3.7 0-10.3 0.2-11.4 3.8-0.6 1.7-1.1 1.7-2 3-0.8 1.1 0.1 2.1-0.3 3.4-0.4 1.3-1 5.8-1.6 7.4-1.1 2.7-2.3 6.1-4.7 6.1-3.2 0.4-5.8 0.5-8.4-0.5-1.6-0.5-4.3-1.4-5.6-2-6.1-2.6-7.1-5.4-7.1-5.4-0.7-1-2.4-2.8-3-5.1-0.7-2.5-1.9-4.6-2.4-5.9-0.5-1.3-1.7-3.5-2.6-5.8-1.3-3-2.9-5.2-4.2-6.3-1.9-1.7-3.6-4.3-7.5-3.6-0.7 0.2-3.2 0.3-5.1 1.9-1.3 1.1-1.7 3.3-2.9 5.2-0.7 1.1-1.9 4.3-3 6.9-0.8 1.8-1.2 3.2-2 3.8-0.7 0.6-1.5 1.2-2.5 0.9q-0.9-0.4-1.9-1.2c-0.9-0.7-2.9-4.1-4.2-6.7-1-2.2-3.3-5.5-4.7-7.2-1.9-2.6-3-3.3-5.8-3.3-6.1 0-6.5 3.4-9.2 8.4-1.2 2.1-1.6 5.6-4 8.3-1.3 1.5-5.6 7.9-8.6 9v-45.5c0-11.6 9.3-20.9 20.9-20.9h123.8c11.5 0 20.9 9.3 20.9 20.9zm-82.7 76.9c0-0.1 0-0.1 0 0.1z"/>
						</g>
					</g>
					<g id="Layer">
						<path id="Layer" class="s5" d="m38.2 117.1c1.1-2.6 1.8-5.4 2.7-8 1-2.5 2.4-6 4.8-7.2-0.3-0.4-5.1-0.5-6.3-0.6-1.5-0.2-2.8-0.4-4.2-0.6-2.6-0.6-5.4-1.1-8-1.7-1.5-0.4-6.7-2.2-7.8-2.7-2.6-1.2-4.4-4.5-6.4-4.2-1.3 0.3-2.6 0.7-3.4 2-0.7 1.1-0.9 3-1.4 4.2-0.5 1.4-1.4 2.8-2.2 4.2-1.5 2.5-4.2 4.8-5.4 7.2q-0.3 0.8-0.6 1.7v0.3 9.1 16.4 2.3c1.4 0.2 2.8 0.5 4.3 0.9 11.7 3.2 14.5 3.4 25.9 2.1l1.1-0.1c0.9-1.9 1.5-8 2.1-10 0.4-1.4 1-2.6 1.3-4.1 0.2-1.4 0-2.8-0.2-4.1-0.3-3.2 2.4-4.4 3.7-7.1z"/>
					</g>
				</g>
			</g>
		</g>
	</g>
</svg>