<svg version="1.2" xmlns="http://www.w3.org/2000/svg" viewBox="0 0 260 260" width="100" height="100">
	<title>Odin logo-svg</title>
	<defs>
		<radialGradient id="g1" cx="0" cy="0" r="1" gradientUnits="userSpaceOnUse" gradientTransform="matrix(260,0,0,260,0,0)">
			<stop offset="0" stop-color="#189cff"/>
			<stop offset=".58" stop-color="#138eeb"/>
			<stop offset=".8" stop-color="#0971bf"/>
			<stop offset="1" stop-color="#005493"/>
		</radialGradient>
	</defs>
	<style>
		.s0 { fill: url(#g1) } 
		.s1 { fill: #ffffff } 
	</style>
	<g id="Layer">
		<path id="Layer" fill-rule="evenodd" class="s0" d="m260 26c0-14.3-11.7-26-26-26h-208c-14.3 0-26 11.7-26 26v208c0 14.3 11.7 26 26 26h208c14.3 0 26-11.7 26-26z"/>
	</g>
	<g id="Layer">
		<path id="Layer" fill-rule="evenodd" class="s1" d="m73.1 212.3c-3.8-2.7-6.8-5.2-6.8-5.2l98.6-170.8c0 0 4 1.5 7.4 3.1 4.2 2 7.7 4 7.7 4 47.8 27.6 64.2 88.8 36.6 136.6-27.6 47.8-88.8 64.2-136.6 36.6 0 0-3.3-1.9-6.9-4.3zm98.6-154.5l-83.4 144.4c39.9 23 90.9 9.3 113.9-30.5 23-39.9 9.3-90.9-30.5-113.9zm-123.8 129.4c-3.3-4.9-4.5-7.2-4.5-7.2-17.2-29.9-18.5-68 0-100 18.5-32 52.1-50 86.6-50 0 0 4.7 0 8.5 0.4 5.9 0.5 9.8 1.3 9.8 1.3l-94.3 163.3c0 0-2.3-2.3-6.1-7.8zm72.1-139.9c-25.1 3-48.5 17.4-62.2 41-13.6 23.6-14.3 51.1-4.4 74.4z"/>
	</g>
</svg>