<svg version="1.2" xmlns="http://www.w3.org/2000/svg" viewBox="0 0 94 65" width="100" height="69">
	<title>logo-svg</title>
	<style>
		.s0 { fill: #ffffff } 
	</style>
	<path id="Layer" class="s0" d="m65.6 50.2l-6.4-6h-28.4l6.4 6z"/>
	<path id="Layer" class="s0" d="m37.2 29.1l-6.4 6h28.4l6.4-6z"/>
	<path id="Layer" class="s0" d="m65.6 20l-6.4-6h-28.4l6.4 6z"/>
	<path id="Layer" class="s0" d="m27.8 26l-4.3-4.3-15.8 15.8c-0.6 0.6-0.9 1.4-0.9 2.2 0 0.8 0.3 1.5 0.9 2.1l15.8 15.8 4.3-4.2-13.7-13.7z"/>
	<path id="Layer" class="s0" d="m88.7 22.4l-15.8-15.8-4.3 4.2 13.7 13.7-13.7 13.7 4.3 4.3 15.8-15.8c0.6-0.6 0.9-1.4 0.9-2.2 0-0.8-0.3-1.5-0.9-2.1z"/>
</svg>