<svg version="1.2" xmlns="http://www.w3.org/2000/svg" viewBox="0 0 324 257" width="100" height="79">
	<title>raku rakumod rakudoc rakutest p6 pl6-svg</title>
	<defs>
		<clipPath clipPathUnits="userSpaceOnUse" id="cp1">
			<path d="m-333 448.13h990.13v-765.13h-990.13z"/>
		</clipPath>
	</defs>
	<style>
		.s0 { fill: #ffff00 } 
		.s1 { fill: none;stroke: #000000;stroke-linejoin: round;stroke-width: 10.8 } 
		.s2 { fill: #ffffff } 
		.s3 { fill: none;stroke: #000000;stroke-linejoin: round;stroke-width: 12.6 } 
		.s4 { fill: #000000 } 
		.s5 { fill: none } 
		.s6 { fill: none;stroke: #ff3366;stroke-linejoin: round;stroke-width: 16.2 } 
	</style>
	<g id="Layer">
		<g id="Clip-Path: Clip-Path" clip-path="url(#cp1)">
			<g id="Clip-Path">
				<g id="Layer">
					<path id="Layer" fill-rule="evenodd" class="s0" d="m166.4 245.5c-80 0-144.8-51.8-144.8-115.8 0-63.8 64.8-115.7 144.8-115.7 80 0 144.7 51.9 144.7 115.8 0 64-64.7 115.7-144.7 115.7z"/>
					<path id="Layer" fill-rule="evenodd" class="s1" d="m166.4 245.5c-80 0-144.8-51.8-144.8-115.8 0-63.8 64.8-115.7 144.8-115.7 80 0 144.7 51.9 144.7 115.8 0 64-64.7 115.7-144.7 115.7z"/>
					<path id="Layer" fill-rule="evenodd" class="s2" d="m67.1 128.4c-32 0-57.8-26-57.8-57.9 0-32 25.8-57.9 57.8-57.9 32 0 58 25.9 58 57.9 0 31.9-26 57.9-58 57.9z"/>
					<path id="Layer" fill-rule="evenodd" class="s3" d="m67.1 128.4c-32 0-57.8-26-57.8-57.9 0-32 25.8-57.9 57.8-57.9 32 0 58 25.9 58 57.9 0 31.9-26 57.9-58 57.9z"/>
					<path id="Layer" fill-rule="evenodd" class="s2" d="m258.8 128.4c-32.1 0-58.1-26-58.1-57.9 0-32 26-57.9 58-57.9 32 0 57.9 25.9 57.9 57.9 0 31.9-25.9 57.9-57.9 57.9z"/>
					<path id="Layer" fill-rule="evenodd" class="s3" d="m258.8 128.4c-32.1 0-58.1-26-58.1-57.9 0-32 26-57.9 58-57.9 32 0 57.9 25.9 57.9 57.9 0 31.9-25.9 57.9-57.9 57.9z"/>
					<path id="Layer" fill-rule="evenodd" class="s4" d="m68.9 99.3c-16-0.1-29-13.1-29-29.1 0-16 13-29 29-29 16 0 28.8 13 28.8 29 0 16-12.8 29-28.8 29z"/>
					<path id="Layer" fill-rule="evenodd" class="s5" d="m68.9 99.3c-16-0.1-29-13.1-29-29.1 0-16 13-29 29-29 16 0 28.8 13 28.8 29 0 16-12.8 29-28.8 29z"/>
					<path id="Layer" fill-rule="evenodd" class="s4" d="m260.9 96c-16.1 0-29-13-29-28.9 0-16 12.9-28.9 29-28.9 16 0 28.9 12.9 28.9 28.9 0 15.9-12.9 28.9-28.9 28.9z"/>
					<path id="Layer" fill-rule="evenodd" class="s5" d="m260.9 96c-16.1 0-29-13-29-28.9 0-16 12.9-28.9 29-28.9 16 0 28.9 12.9 28.9 28.9 0 15.9-12.9 28.9-28.9 28.9z"/>
					<path id="Layer" fill-rule="evenodd" class="s6" d="m117 160.5c-5.8 39.6 109.4 68.3 95.5 6.8v-3.4"/>
				</g>
			</g>
		</g>
	</g>
</svg>