<svg version="1.2" xmlns="http://www.w3.org/2000/svg" viewBox="0 0 579 684" width="100" height="118">
	<title>RAML-logo-ai</title>
	<style>
		.s0 { fill: #70cfef } 
	</style>
	<path id="&lt;Path&gt;" class="s0" d="m361.1 37.7h-337.4l33.6 54h301.9c36.8 0 71.5 14.8 97.7 41.7 26.1 26.7 40.4 62 40.4 99.3 0 36.7-13.7 69.7-39.7 95.5-24.7 24.6-59.2 40.7-97.1 45.5h-37l-101.9-0.8 29.4 50.9h44.7l2.4 3.9h0.4l131.5 222.1 0.6 1 0.9 0.9c5.7 5.7 12.9 8.5 22 8.5 15.4 0 28.5-13.5 28.5-29.5 0-6.3-2.1-9.2-4.6-12.1-1-1.1-2.2-2.6-4.2-5.8l-108.7-185.1c50.6-0.9 97.8-21 133.5-57 36.4-36.7 56.4-85.7 56.4-138 0-107.5-86.7-195-193.3-195z"/>
</svg>