<svg version="1.2" xmlns="http://www.w3.org/2000/svg" viewBox="0 0 216 216" width="100" height="100">
	<title>re rei-svg</title>
	<style>
		.s0 { fill: #dd4b39 } 
		.s1 { fill: #ffffff } 
	</style>
	<g id="Layer">
		<path id="b" fill-rule="evenodd" class="s0" d="m0 8c0-4.4 3.6-8 8-8h200c4.4 0 8 3.6 8 8v200c0 4.4-3.6 8-8 8h-200c-4.4 0-8-3.6-8-8z"/>
		<path id="c" fill-rule="evenodd" class="s1" d="m128.1 197h-24.4l-12-22.9h-16.1v22.9h-21.6v-82.7h37.2c21.9 0 34.5 10.6 34.5 29 0 12.5-5.2 21.7-14.8 26.7zm-52.5-65.5v25.4h15.7c8.7 0 13.8-4.5 13.8-12.9 0-8.1-5.1-12.5-13.8-12.5zm63.8-17.2h65.3v17.2h-43.7v15.4h39.4v17.2l-39.4 0.1v15.5h44.9v17.3h-66.5z"/>
		<path id="c" fill-rule="evenodd" class="s1" d="m128.1 197h-24.4l-12-22.9h-16.1v22.9h-21.6v-82.7h37.2c21.9 0 34.5 10.6 34.5 29 0 12.5-5.2 21.7-14.8 26.7zm-52.5-65.5v25.4h15.7c8.7 0 13.8-4.5 13.8-12.9 0-8.1-5.1-12.5-13.8-12.5zm63.8-17.2h65.3v17.2h-43.7v15.4h39.4v17.2l-39.4 0.1v15.5h44.9v17.3h-66.5z"/>
	</g>
</svg>