<svg version="1.2" xmlns="http://www.w3.org/2000/svg" viewBox="0 0 378 378" width="100" height="100">
	<title>sas-svg</title>
	<defs>
		<clipPath clipPathUnits="userSpaceOnUse" id="cp1">
			<path d="m0 0h378v378h-378z"/>
		</clipPath>
	</defs>
	<style>
		.s0 { fill: #007cc2 } 
	</style>
	<g id="Clip-Path" clip-path="url(#cp1)">
		<g id="Layer">
			<path id="Layer" fill-rule="evenodd" class="s0" d="m194.6 0c-13.1-0.3-26.5 1.3-40.3 4.7-63.8 15.9-135.1 98-57.2 192.6l46.5 56.3 13.1 16c8.8 10.5 23.3 10.3 33.9 1.6 10.6-8.8 13.6-23.2 4.9-33.9-0.1 0-3.8-4.5-5.4-6.4h0.2c-3.3-4.1-4.1-4.7-7.5-8.9-16.9-20.3-36.1-43.7-36.1-43.7-33.8-41-18.7-91.8 27.2-120.6 40.4-25.4 114.6-16.3 140.1 25.4-16.1-47.6-63-81.8-119.4-83.1zm9.3 99.3c-6-0.2-12.3 2.1-17.6 6.5-10.6 8.8-13.6 23.2-4.9 33.8 0.1 0 1.1 1.4 2.9 3.6 20.2 24.2 47 56.7 47 56.7 33.8 41.1 18.7 91.6-27.2 120.5-40.4 25.4-114.6 16.3-140.2-25.4 19.9 58.5 86.3 96.7 159.8 78.4 63.8-16 135.1-97.8 57.2-192.4l-54.5-65.9-6.2-7.8c-4.5-5.2-10.3-7.8-16.3-8z"/>
		</g>
	</g>
</svg>