<svg version="1.2" xmlns="http://www.w3.org/2000/svg" viewBox="0 0 360 241" width="100" height="67">
	<title>The_ATS_Logo-svg</title>
	<style>
		.s0 { fill: #ff0000 } 
		.s1 { fill: #0000ff } 
	</style>
	<g id="Layer">
		<path id="Layer" class="s0" d="m66.5 17.4c-14.8 3.8-30.7 13.8-48.3 30.2l-8.4 7.7 11.3 11.3 11.3 11.3 5.5-5.2c9.6-9.1 20.8-17.4 28.5-21.3 6.6-3.2 8.2-3.6 13.3-3.2 6.9 0.5 10.1 2.5 13.5 8.3 3.3 5.7 6.8 14.4 7.4 18.7 0.6 3.5-1.3 6.7-43 71.8-24 37.4-43.6 68.4-43.6 68.9 0 0.9 24.5 17.1 25.8 17.1 0.4 0 14-20.8 30.2-46.2 16.2-25.4 30.2-47.1 31.1-48.2 1.5-1.8 1.6-1 2.2 11 2.2 45.8 15.6 70 44.4 80.2l7.8 2.7 95.3 0.3 95.2 0.3v-16-16.1l-93.7-0.2-93.8-0.3-4.1-2.2c-8.8-4.7-14-13.6-17-29.3-2-10-3.4-45.9-2.4-59 2.8-34.8-8.7-70.6-27-84.4-8.7-6.5-15.6-8.8-27-9.2-5.6-0.2-11.5 0.2-14.5 1z"/>
		<path id="Layer" fill-rule="evenodd" class="s1" d="m165 22h160v40h-67v16h80v109h-186v-109h80v-16h-67zm67 96h-54v29h54zm80 0h-54v29h54z"/>
	</g>
</svg>