<svg version="1.2" xmlns="http://www.w3.org/2000/svg" viewBox="0 0 246 238" width="100" height="97">
	<title>Pharo_Logo_v3</title>
	<defs>
		<linearGradient id="g1" x2="1" gradientUnits="userSpaceOnUse" gradientTransform="matrix(0,12.7,-12.611,0,169,65)">
			<stop offset="0" stop-color="#f7931e"/>
			<stop offset="1" stop-color="#ed1c24"/>
		</linearGradient>
		<linearGradient id="g2" x2="1" gradientUnits="userSpaceOnUse" gradientTransform="matrix(6.456,-87.522,75.434,5.564,164.874,165.082)">
			<stop offset="0" stop-color="#2b98d8"/>
			<stop offset="1" stop-color="#a10b0b"/>
		</linearGradient>
		<linearGradient id="g3" x2="1" gradientUnits="userSpaceOnUse" gradientTransform="matrix(6.456,-87.522,69.744,5.145,164.874,165.082)">
			<stop offset="0" stop-color="#2b98d8"/>
			<stop offset="1" stop-color="#a10b0b"/>
		</linearGradient>
		<linearGradient id="g4" x2="1" gradientUnits="userSpaceOnUse" gradientTransform="matrix(6.456,-87.522,74.051,5.462,164.874,165.082)">
			<stop offset="0" stop-color="#2b98d8"/>
			<stop offset="1" stop-color="#a10b0b"/>
		</linearGradient>
	</defs>
	<style>
		.s0 { fill: none } 
		.s1 { fill: #2b98d8 } 
		.s2 { fill: #3297d4 } 
		.s3 { fill: url(#g1) } 
		.s4 { fill: #164c6c } 
		.s5 { fill: url(#g2) } 
		.s6 { fill: url(#g3) } 
		.s7 { fill: url(#g4) } 
		.s8 { opacity: .5;fill: #ffffff } 
	</style>
	<g id="logo">
		<g id="icon">
			<path id="background" fill-rule="evenodd" class="s0" d="m22.9 119.6c0 57.4 46.5 104 103.9 104 57.4 0 103.9-46.6 103.9-104 0-57.4-46.5-103.9-103.9-103.9-57.4 0-104 46.5-103.9 103.9z"/>
			<g id="water-splashes">
				<path id="path75" fill-rule="evenodd" class="s1" d="m153.3 203.6c-0.2-0.1 0-0.1-0.1-0.2 0.3-0.2 0.5-0.1 0.6 0.1q-0.3 0.3-0.5 0.1z"/>
				<path id="path77" fill-rule="evenodd" class="s1" d="m152.2 203.8c-0.2 0-0.5-0.5-0.4-0.7q0.1 0 0.3-0.1c0.3 0.1 0.6 0.7 0.1 0.8z"/>
				<path id="path79" fill-rule="evenodd" class="s1" d="m154.6 202.1c-0.2 0.1-0.4 0-0.4-0.2 0.1-0.1 0.3-0.1 0.3-0.1q0.1 0.2 0.1 0.3z"/>
				<path id="path81" fill-rule="evenodd" class="s1" d="m135.9 210.7c-0.3 0.2-0.4 0.2-0.6 0-0.2 0.1-0.3 0.3-0.5 0.4-0.2-0.4 0-0.8 0.5-1.1 0 0.2 0.2 0.3 0.4 0.4 0.2-0.7 0.7-0.5 1.3-0.7 0 0.3 0.3 0.8 0.3 1.1-0.5 0.4-1.2 0.6-1.4-0.1"/>
				<path id="path83" fill-rule="evenodd" class="s1" d="m154.1 201.4c-0.3 0.1-0.6 0-0.7-0.2-0.4-0.6 0.6-1.3 1-0.9 0.3 0.4 0 0.9-0.3 1.1z"/>
				<path id="path85" fill-rule="evenodd" class="s1" d="m129.4 213.4q-0.2-0.3 0.1-0.4 0 0 0.1 0.2 0 0.1-0.2 0.2z"/>
				<path id="path87" fill-rule="evenodd" class="s1" d="m130.1 212.8c-0.1 0-0.1-0.1-0.2 0 0.1-0.2 0.1-0.4 0.4-0.6 0.1 0.3-0.1 0.4-0.2 0.6z"/>
				<path id="path89" fill-rule="evenodd" class="s1" d="m136.2 209.6c0.1-0.5 0.3-0.9 0.8-1.3 0.3 0.5-0.4 0.7-0.4 1.2-0.2 0-0.3 0.1-0.4 0.1z"/>
				<path id="path91" fill-rule="evenodd" class="s1" d="m208.1 172.2c-0.2-0.3-0.8-0.2-0.9-0.7 0.4 0.1 0.7 0.3 0.9 0.7z"/>
				<path id="path93" fill-rule="evenodd" class="s1" d="m137.8 207.9c-0.1 0.1-0.2 0.1-0.3 0.1 0-0.2 0-0.3-0.1-0.4 0.1-0.1 0.1-0.2 0.2-0.2 0.2 0.2 0 0.3 0.2 0.5z"/>
				<path id="path95" fill-rule="evenodd" class="s1" d="m131.9 210.8c-0.1-0.2-0.1-0.3-0.2-0.5 0.2-0.2 0.5-0.5 0.8-0.4q0.1 0.2 0.2 0.4c-0.1 0.2-0.5 0.6-0.8 0.5z"/>
				<path id="path97" fill-rule="evenodd" class="s1" d="m140.2 206.4c-0.1 0-0.2 0.1-0.2 0-0.2-0.1 0.2-0.3 0.2 0z"/>
				<path id="path99" fill-rule="evenodd" class="s1" d="m139.2 206.8c-0.5-0.2-0.9 0-1.3 0.1-0.2 0.1-0.2 0.2-0.2 0.4-0.3-0.2 0.2-0.5-0.1-0.8 0.2-0.7 1.2-0.9 1.6-0.3 0.1 0.2-0.1 0.4 0 0.6z"/>
				<path id="path101" fill-rule="evenodd" class="s1" d="m135.7 208.3c0-0.2 0-0.3 0.2-0.4 0.1 0.2 0.1 0.4-0.2 0.4z"/>
				<path id="path103" fill-rule="evenodd" class="s1" d="m208.4 171.1c-0.5 0-0.6-0.2-1-0.1-0.1-0.2-0.2-0.4 0-0.5 0.2 0.7 0.7 0.2 1 0.6z"/>
				<path id="path105" fill-rule="evenodd" class="s1" d="m140.1 205.7c0.1-0.3 0-0.8-0.2-1.3 0.4-0.4 1-0.5 1.4-0.5 0.1 0.2 0.4 0.4 0.4 0.7-0.6 0.2-0.9 0.7-1.4 0.5-0.1 0.2 0.3 0.7-0.2 0.6z"/>
				<path id="path107" fill-rule="evenodd" class="s1" d="m145.5 202.6c0-0.1-0.1-0.1-0.1-0.2-0.2 0.2-0.4 0.4-0.6 0.6-0.6-0.3 0-0.9 0.3-1.2 0.1 0.2 0.2 0.2 0.3 0.4-0.2-0.5 0.7-1.1 0.9-0.2 0 0.4-0.5 0.3-0.8 0.6z"/>
				<path id="path109" fill-rule="evenodd" class="s1" d="m131.9 209.4c-0.3-0.8 1.2-2.4 1.6-1-0.3 0.2-0.6 0.4-0.7 0.1-0.4 0.3-0.5 0.7-0.9 0.9z"/>
				<path id="path111" fill-rule="evenodd" class="s1" d="m152.7 198.4c-0.1-0.2 0.2-0.4 0.3-0.4q0.1 0.1 0.1 0.1c0.2 0.3-0.2 0.7-0.4 0.3"/>
				<path id="path113" fill-rule="evenodd" class="s1" d="m129.6 209.8c0-0.5 0.3-1.8 1-1.3 0 0.5-0.6 0.9-1 1.2z"/>
				<path id="path115" fill-rule="evenodd" class="s1" d="m145.2 201.7c-0.1 0.1-0.2 0-0.2 0.1q-0.2-0.3-0.1-0.5c0.2 0 0.2 0.2 0.3 0.4z"/>
				<path id="path117" fill-rule="evenodd" class="s1" d="m139 204.4c-0.1-0.4 0.3-1.2 0.9-1 0.4 0.5-0.6 1.2-0.9 1z"/>
				<path id="path119" fill-rule="evenodd" class="s1" d="m178.8 183.6c0.1-0.2 0.2-0.3 0.5-0.4 0.9 0.2-0.2 1.3-0.5 0.4z"/>
				<path id="path121" fill-rule="evenodd" class="s1" d="m149.3 198.9c-0.1-0.2 0.1-0.4 0.3-0.5 0.5 0.3 0 0.9-0.3 0.5z"/>
				<path id="path123" fill-rule="evenodd" class="s1" d="m126.6 210.7q-0.1 0.1-0.2 0.1c-0.1-0.3 0.1-0.3 0.2-0.1z"/>
				<path id="path125" fill-rule="evenodd" class="s1" d="m147.4 199.9c-0.2-0.3-0.1-0.5 0.2-0.6 0.3 0.2 0.2 0.7-0.2 0.6z"/>
				<path id="path127" fill-rule="evenodd" class="s1" d="m206.9 169.5c-0.2 0.1-0.3-0.1-0.4-0.3 0.2-0.1 0.4 0.1 0.4 0.3z"/>
				<path id="path129" fill-rule="evenodd" class="s1" d="m156.6 194.8c-0.3-0.6-0.1-1.2 0.5-1.3 0.6 0.5 0.3 1.6-0.5 1.3z"/>
				<path id="path131" fill-rule="evenodd" class="s1" d="m136.2 205.3c-0.1-0.4 0.2-0.9 0.7-0.9 0.1 0.5-0.2 0.7-0.7 0.9z"/>
				<path id="path133" fill-rule="evenodd" class="s1" d="m139.6 202.5c0.4 0.5-0.3 0.9-0.5 0.6-0.2-0.2 0-0.7 0.5-0.6z"/>
				<path id="path135" fill-rule="evenodd" class="s1" d="m135.8 205.1c-0.1 0-0.1 0-0.2 0 0-0.1-0.1-0.3 0.1-0.3 0.1 0 0 0.1 0.1 0.3z"/>
				<path id="path137" fill-rule="evenodd" class="s1" d="m132.1 206.8c-0.7-0.4-0.1-1.5 0.7-1.7 0 0.7-0.1 1.3-0.7 1.7z"/>
				<path id="path139" fill-rule="evenodd" class="s1" d="m147.2 198.9c-0.2 0.1-0.5-0.3-0.1-0.4 0.1-0.2-0.2-0.5 0.1-0.6 0.1 0.1 0.2 0.2 0.3 0.3-0.4 0.3-0.2 0.4-0.3 0.7z"/>
				<path id="path141" fill-rule="evenodd" class="s1" d="m140 202.3q-0.1-0.2-0.1-0.3c0.1-0.2 0.3-0.2 0.5-0.3 0.3 0.3-0.1 0.5-0.4 0.6z"/>
				<path id="path143" fill-rule="evenodd" class="s1" d="m152.5 195.5c0.2-0.1 0.2-0.1 0.3-0.1 0.1 0.2-0.2 0.3-0.3 0.1z"/>
				<path id="path145" fill-rule="evenodd" class="s1" d="m145.7 198.6c0.1-0.1 0.3-0.2 0.4-0.1 0.3 0.4-0.4 0.6-0.4 0.1z"/>
				<path id="path147" fill-rule="evenodd" class="s1" d="m139.1 202.1c0.1-0.2 0.2-0.4 0.5-0.5 0.6 0.2-0.1 0.9-0.5 0.5z"/>
				<path id="path149" fill-rule="evenodd" class="s1" d="m137.5 203.1q-0.1-0.4 0.4-0.7c0.2 0.4-0.1 0.5-0.4 0.7z"/>
				<path id="path151" fill-rule="evenodd" class="s1" d="m145.2 198.9q-0.1 0.1-0.3-0.1c-0.1-0.1 0.1-0.3 0.3-0.3q0 0.1 0.1 0c0.1 0.2 0 0.3-0.1 0.4"/>
				<path id="path153" fill-rule="evenodd" class="s1" d="m146.9 198q-0.1 0-0.2 0.1-0.1-0.3 0.1-0.3 0.1 0 0.1 0.2z"/>
				<path id="path155" fill-rule="evenodd" class="s1" d="m131.2 205.1c0.3 0.5-0.1 0.8-0.7 1-0.1-0.4 0.5-0.7 0.7-1z"/>
				<path id="path157" fill-rule="evenodd" class="s1" d="m138.3 201.9c-0.2-0.2-0.1-0.6 0.3-0.7 0.4 0.2 0.1 0.6-0.3 0.7z"/>
				<path id="path159" fill-rule="evenodd" class="s1" d="m140.1 200.6c-0.3-0.1-0.3-0.3-0.5-0.6 0.1-0.1 0.3-0.4 0.6-0.4 0.2 0.4-0.2 0.7-0.1 1z"/>
				<path id="path161" fill-rule="evenodd" class="s1" d="m130.9 204.7c-0.2 0.1-0.3-0.3-0.1-0.3 0.2 0 0.1 0.2 0.1 0.3z"/>
				<path id="path163" fill-rule="evenodd" class="s1" d="m137.7 201.1c-0.1 0.1-0.2 0.1-0.3-0.1q0.1 0 0.2-0.1 0 0.1 0.1 0.2z"/>
				<path id="path165" fill-rule="evenodd" class="s1" d="m133.1 203.3c0-0.1 0-0.2 0.2-0.2q0.1 0.1 0.1 0.1c0 0.1-0.1 0.2-0.3 0.1z"/>
				<path id="path167" fill-rule="evenodd" class="s1" d="m126.1 206.8c-0.1-0.1-0.1-0.2-0.1-0.3-0.2 0.1-0.4 0.1-0.5 0-0.1-0.2 0-0.3 0-0.4 0.2 0 0.4 0 0.6 0.2 0.1-0.1 0.3-0.1 0.5-0.1 0.3 0.3-0.2 0.6-0.5 0.6z"/>
				<path id="path169" fill-rule="evenodd" class="s1" d="m135 201.6c-0.1-0.3 0.1-0.4 0.3-0.5 0.2 0.3-0.1 0.5-0.3 0.5z"/>
				<path id="path171" fill-rule="evenodd" class="s1" d="m129.5 204c-0.1-0.2-0.2-0.5-0.1-0.7 0.3-0.2 0.5-0.1 0.6-0.2 0.1 0.2 0.2 0.2 0.3 0.5-0.1 0.3-0.5 0.4-0.8 0.4z"/>
				<path id="path173" fill-rule="evenodd" class="s1" d="m139.4 198.9c-0.3-0.4 0.1-0.7 0.4-0.5 0.1 0.2-0.1 0.5-0.4 0.5z"/>
				<path id="path175" fill-rule="evenodd" class="s1" d="m145 195.7c-0.1-0.3-0.1-0.4 0-0.6 0.2-0.1 0.2 0.2 0.4 0.2 0 0.2-0.3 0.3-0.4 0.4z"/>
				<path id="path177" fill-rule="evenodd" class="s1" d="m136.1 200c-0.1 0-0.2 0-0.2 0q-0.1-0.1 0.1-0.2 0.1 0.1 0.1 0.2z"/>
				<path id="path179" fill-rule="evenodd" class="s1" d="m127 204.3q-0.1 0.1-0.2 0.1 0-0.1-0.1-0.2c0.2-0.1 0.2 0 0.3 0.1z"/>
				<path id="path181" fill-rule="evenodd" class="s1" d="m128.2 202c0.1-0.1 0.2 0 0.4-0.2 0.5 0.3 1.3 1.1 0.4 1.4-0.5 0.3-1-0.6-0.8-1.2z"/>
				<path id="path183" fill-rule="evenodd" class="s1" d="m125.6 204.8c-0.1-0.3 0.2-0.2 0.3-0.3 0.1 0.2-0.2 0.4-0.3 0.3z"/>
				<path id="path185" fill-rule="evenodd" class="s1" d="m124.1 205.6q-0.1 0-0.2 0.1c-0.3-0.1-0.5-0.4-0.5-0.6 0.2 0 0.4 0 0.7 0.1 0.1 0.1 0 0.2 0 0.4z"/>
				<path id="path187" fill-rule="evenodd" class="s1" d="m148.1 193.1c-0.1 0-0.1-0.1-0.2-0.1-0.1-0.3 0-0.5 0.2-0.7 0.3 0.1 0.5 0.7 0 0.8"/>
				<path id="path189" fill-rule="evenodd" class="s1" d="m143 195.5c-0.1-0.2-0.5-0.2-0.4-0.4 0.2-0.2 0.4-0.1 0.6-0.2q0.3 0.4-0.2 0.6z"/>
				<path id="path191" fill-rule="evenodd" class="s1" d="m147.6 193q-0.1 0.1-0.1 0.1c-0.1-0.1-0.1-0.2 0-0.3q0.1 0.1 0.1 0.2z"/>
				<path id="path193" fill-rule="evenodd" class="s1" d="m113.9 210c-0.2 0.1-0.4 0.2-0.5 0.2-0.1-0.2 0.2-0.3 0.4-0.4q0 0.1 0.1 0.2z"/>
				<path id="path195" fill-rule="evenodd" class="s1" d="m135.9 197.6c0.2 0.4 0.1 0.6 0.2 0.9-0.8 1.1-1.4-1.2-0.2-0.9z"/>
				<path id="path197" fill-rule="evenodd" class="s1" d="m133 199.9q-0.1-0.1-0.1-0.2 0.1-0.1 0.2-0.2c0.1 0.2 0.1 0.4-0.1 0.4z"/>
				<path id="path199" fill-rule="evenodd" class="s1" d="m136.1 194.9c0.3 0.2 0.3 0.5 0.2 0.6 0.6 0.8 0.6 2.3-0.6 1.7-0.5-0.8 0.1-1.6 0.5-2.2"/>
				<path id="path201" fill-rule="evenodd" class="s1" d="m135.2 197.7q-0.1 0.1-0.1 0.1-0.1-0.1-0.1 0-0.1-0.1-0.1-0.1 0.1-0.1 0.1-0.1 0-0.1 0.1-0.1 0 0.1 0 0 0.1 0.1 0.1 0.1-0.1 0.1 0 0.1z"/>
				<path id="path203" fill-rule="evenodd" class="s1" d="m138.8 195.7c-0.2-0.2-0.1-0.4 0.1-0.5 0.5 0 0.3 0.6-0.1 0.5z"/>
				<path id="path205" fill-rule="evenodd" class="s1" d="m114.4 208.2c-0.1 0.1-0.3 0.2-0.4 0.1 0-0.1 0.2-0.2 0.3-0.3q0 0.1 0.1 0.2"/>
				<path id="path207" fill-rule="evenodd" class="s1" d="m145.7 192.2c-0.5-0.3-0.7-1.3-0.4-1.6 0.6 0.2 1.3 1.2 0.4 1.6z"/>
				<path id="path209" fill-rule="evenodd" class="s1" d="m126.1 201.7c-0.1-0.2-0.1-0.1-0.1-0.2 0.2-0.2 0.3 0.1 0.1 0.2z"/>
				<path id="path211" fill-rule="evenodd" class="s1" d="m157.7 185.3c-0.1-0.3 0.1-0.4 0.4-0.5 0.3 0.3-0.1 0.7-0.4 0.5z"/>
				<path id="path213" fill-rule="evenodd" class="s1" d="m138.7 195.1q-0.3 0.2-0.4 0.1c-0.1-0.2 0-0.3 0.2-0.4 0.1 0 0.2 0.2 0.2 0.3z"/>
				<path id="path215" fill-rule="evenodd" class="s1" d="m119.9 203.7c0.1-0.1 0.3-0.2 0.3 0 0 0.1-0.2 0.2-0.3 0z"/>
				<path id="path217" fill-rule="evenodd" class="s1" d="m135.9 194.4q0.1-0.2 0.4-0.3c0.4 0.2-0.2 0.6-0.4 0.3z"/>
				<path id="path219" fill-rule="evenodd" class="s1" d="m109.3 207.9c-0.2 0.1-0.4 0.2-0.5 0 0.2-0.1 0.5-0.3 0.5 0z"/>
				<path id="path221" fill-rule="evenodd" class="s1" d="m134.4 194.9q-0.2-0.5 0-0.8c0.2 0 0.4 0.1 0.6 0.4-0.1 0.2-0.3 0.5-0.6 0.4"/>
				<path id="path223" fill-rule="evenodd" class="s1" d="m133.2 195.3c-0.1-0.1 0.2-0.3 0.3-0.2q0 0.1 0.1 0.1c-0.1 0.1-0.3 0.3-0.4 0.1z"/>
				<path id="path225" fill-rule="evenodd" class="s1" d="m135.4 194.2q-0.1-0.1 0-0.3c0.1-0.1 0.2 0 0.2 0.2q0 0.1-0.2 0.1z"/>
				<path id="path227" fill-rule="evenodd" class="s1" d="m101.6 210.6q-0.1 0.1-0.2 0.1 0 0-0.1 0c-0.1-0.2 0.3-0.3 0.3-0.1"/>
				<path id="path229" fill-rule="evenodd" class="s1" d="m125.1 198.2q0-0.1-0.1-0.2c0.1-0.1 0.3-0.1 0.4 0.1q-0.1 0.1-0.3 0.1z"/>
				<path id="path231" fill-rule="evenodd" class="s1" d="m148.5 186.1c0-0.2 0-0.2 0-0.3 0.1 0 0.2 0 0.3 0.1 0 0.1-0.2 0.2-0.3 0.2z"/>
				<path id="path233" fill-rule="evenodd" class="s1" d="m132.4 193.9c-0.1-0.3-0.3-0.7 0.1-0.8 0.5 0.1 0.6 0.8-0.1 0.8z"/>
				<path id="path235" fill-rule="evenodd" class="s1" d="m131.8 193.5c-0.2 0.1-0.4-0.1-0.1-0.2 0.1 0.1 0 0.1 0.1 0.2z"/>
				<path id="path237" fill-rule="evenodd" class="s1" d="m122.1 198q-0.1-0.1-0.1-0.2c0.1-0.1 0.2-0.1 0.3 0.1q-0.1 0.1-0.2 0.1z"/>
				<path id="path239" fill-rule="evenodd" class="s1" d="m133.9 191.5q-0.4 0.2-0.6-0.2c0.1-0.1 0.3-0.1 0.4-0.1q0.1 0.1 0.2 0.3z"/>
				<path id="path241" fill-rule="evenodd" class="s1" d="m134.2 189.7c0-0.1 0-0.3 0.2-0.4 0.3 0.2 0.1 0.7-0.2 0.4z"/>
				<path id="path243" fill-rule="evenodd" class="s1" d="m118.5 197.7q-0.2 0.1-0.3-0.1 0.1-0.1 0.2-0.1 0.1 0.1 0.1 0.2"/>
				<path id="path245" fill-rule="evenodd" class="s1" d="m119 196.6c0.1-0.2 0.5-0.2 0.6 0-0.1 0.2-0.5 0.2-0.6 0z"/>
				<path id="path247" fill-rule="evenodd" class="s1" d="m128.8 191.7c0-0.2-0.1-0.3 0.1-0.3q0.1 0 0.1 0.1 0 0.1-0.2 0.2z"/>
				<path id="path249" fill-rule="evenodd" class="s1" d="m125.7 193.3c-0.3 0.1-0.7 0.1-0.7-0.1 0.2-0.2 0.4-0.2 0.6-0.2q0 0.1 0.1 0.3z"/>
				<path id="path251" fill-rule="evenodd" class="s1" d="m127.5 190.6c0-0.2 0-0.5 0.2-0.7 0.7 0.3 0.4 1.5-0.2 0.7z"/>
				<path id="path253" fill-rule="evenodd" class="s1" d="m118.1 195.9c-0.5 0.1-0.7-0.5-1.1-0.8 0.4 0.1 1 0.2 1.1 0.8z"/>
				<path id="path255" fill-rule="evenodd" class="s1" d="m120.3 193.9c-0.3 0.1-0.6 0-0.7-0.2q0.4-0.1 0.6-0.1 0.1 0.1 0.1 0.3z"/>
				<path id="path257" fill-rule="evenodd" class="s1" d="m94.8 206.4c0.2-0.1 0.5-0.3 0.9-0.3-0.1 0.4-0.7 0.5-0.9 0.3z"/>
				<path id="path259" fill-rule="evenodd" class="s1" d="m124.9 189.3q-0.1 0-0.2 0.1c-0.1-0.2 0-0.4-0.2-0.5 0.3-0.2 0.4 0.2 0.4 0.4z"/>
				<path id="path261" fill-rule="evenodd" class="s1" d="m120.3 190.7c0.2 0 0.5 0.1 0.6 0.2 0.3 0.6-0.8 0.5-0.6-0.2z"/>
				<path id="path263" fill-rule="evenodd" class="s1" d="m130.7 184.4c0.1 0.2 0.1 0.3 0 0.4 0.5 0.2 0.4 1.1-0.2 1-0.4-0.5-0.3-1.3 0.2-1.4z"/>
				<path id="path265" fill-rule="evenodd" class="s1" d="m106.5 197c-0.1-0.1 0-0.1-0.1-0.2q0.2-0.1 0.3 0.1c0 0.1-0.1 0-0.2 0.1z"/>
				<path id="path267" fill-rule="evenodd" class="s1" d="m169.6 164.7c-0.1 0.1-0.1-0.1-0.2-0.1q0.1-0.1 0.2-0.1c0 0.1 0 0.1 0 0.2"/>
				<path id="path269" fill-rule="evenodd" class="s1" d="m101.2 199.1c-0.4 0.2-0.6 0.1-0.8-0.2 0.3-0.2 0.2-0.2 0.4-0.3 0.2 0.1 0.3 0.2 0.4 0.5z"/>
				<path id="path271" fill-rule="evenodd" class="s1" d="m128.6 184.3c-0.3-0.4-0.3-0.9-0.3-1.2 0.4 0.1 0.9 1.1 0.3 1.2z"/>
				<path id="path273" fill-rule="evenodd" class="s1" d="m143.2 176.7c-0.5-0.5-0.2-1.1-0.3-1.6 0.3 0.3 0.9 1.4 0.3 1.6z"/>
				<path id="path275" fill-rule="evenodd" class="s1" d="m105.4 193.6c-0.5 0.1-0.9 0-1.3-0.3 0.4 0.1 0.8-0.1 1.2 0q0.1 0.1 0.1 0.3z"/>
				<path id="path277" fill-rule="evenodd" class="s1" d="m113.8 189c-0.2-0.2-0.3-0.3-0.3-0.5 0.3-0.1 0.4 0.1 0.5 0.3q0 0.1-0.2 0.2z"/>
				<path id="path279" fill-rule="evenodd" class="s1" d="m117.1 186c-0.1 0.1-0.3-0.1-0.3-0.3 0.1 0 0.2 0 0.3 0 0.1 0.2 0 0.2 0 0.3z"/>
				<path id="path281" fill-rule="evenodd" class="s1" d="m117.2 184.5c-0.2 0.2-0.3-0.1-0.3-0.2 0.2-0.1 0.4 0 0.3 0.2z"/>
				<path id="path283" fill-rule="evenodd" class="s1" d="m125.2 180.2c-0.1 0-0.1 0-0.2 0-0.2-0.1-0.3-0.5 0-0.6 0.2 0.2 0.2 0.3 0.2 0.6"/>
				<path id="path285" fill-rule="evenodd" class="s1" d="m118.8 178.5c-0.3 0.6 1 1 0.7 1.7-0.8 0-0.7-1.3-1.3-1.7 0 0 0-0.1-0.1-0.2 0.3-0.2 0.4 0 0.5 0.1 0.1-0.1-0.1-0.3 0.2-0.3 0.2 0.4 0.8 0.5 0.7 1-0.4 0.1-0.6-0.1-0.7-0.6z"/>
				<path id="path287" fill-rule="evenodd" class="s1" d="m75.3 198.3c-0.4 0.2-0.6 0.1-0.8 0-0.3-0.7 0.9-0.8 0.8 0z"/>
				<path id="path289" fill-rule="evenodd" class="s1" d="m107.8 179.9c-0.2 0.1-0.4 0-0.4-0.2q0.3 0 0.4 0.2z"/>
				<path id="path291" fill-rule="evenodd" class="s1" d="m123.6 170.4c-0.1 0-0.1-0.1-0.2-0.1-0.2-0.2-0.2-0.6 0.1-0.6 0.1 0.3 0 0.4 0.1 0.7z"/>
				<path id="path293" fill-rule="evenodd" class="s1" d="m102.5 178.1c-0.1 0.1-0.2 0-0.2-0.1q0.2-0.2 0.3 0-0.1 0-0.1 0.1"/>
				<path id="path295" fill-rule="evenodd" class="s1" d="m122.1 167.9c-0.6-0.1-0.6-1.2-0.7-1.7 0.4 0.1 0.9 1.3 0.7 1.7z"/>
				<path id="path297" fill-rule="evenodd" class="s1" d="m102.7 168.5c0-0.1-0.1-0.1-0.2-0.3 0.2-0.1 0.3 0 0.4 0 0.1 0.2 0 0.3-0.2 0.3z"/>
				<path id="path299" fill-rule="evenodd" class="s1" d="m134.4 145.1q-0.1 0.1-0.2 0.1c-0.5-0.5-0.5-1.3-0.5-1.8 0.5 0.3 0.6 1.2 0.7 1.7z"/>
				<path id="path301" fill-rule="evenodd" class="s1" d="m139.1 130.8c-0.1-0.1-0.3-0.5 0-0.5 0.2 0.1 0 0.3 0 0.5z"/>
				<path id="path303" fill-rule="evenodd" class="s1" d="m161.8 113.2c-0.1-0.3-0.1-0.4-0.1-0.5 0.2-0.1 0.4-0.1 0.5-0.1 0.1 0.1 0.3 0.2 0.4 0.4-0.3 0.3-0.5 0-0.8 0.2z"/>
				<path id="path305" fill-rule="evenodd" class="s1" d="m87.1 148.6c-0.5 0-0.6-0.4-0.8-0.7-0.2-0.1-0.5-0.2-0.5-0.5 0.2-0.1 0.3 0 0.4 0 0 0.6 0.8 0.6 0.8 1.2"/>
				<path id="path307" fill-rule="evenodd" class="s1" d="m81.9 150c0.1-0.1 0.3-0.2 0.3 0 0 0.1-0.2 0.2-0.3 0z"/>
				<path id="path309" fill-rule="evenodd" class="s1" d="m63.4 146.8q-0.1 0-0.2 0.1c-0.1-0.2 0.2-0.4 0.2-0.1z"/>
				<path id="path311" fill-rule="evenodd" class="s1" d="m79 135.8c-0.2-0.1-0.9-0.5-0.5-0.9 0.2 0.3 0.5 0.5 0.5 0.9z"/>
				<path id="path313" fill-rule="evenodd" class="s1" d="m76.4 136.6q-0.1 0-0.2 0 0-0.1-0.1-0.2c0.1 0 0.2 0 0.3 0.2z"/>
				<path id="path315" fill-rule="evenodd" class="s1" d="m117.9 112.2c-0.2 0-0.3-0.1-0.4-0.1 0.1-0.3-0.1-0.3-0.1-0.5 0.3-0.2 0.5 0.3 0.5 0.6z"/>
				<path id="path317" fill-rule="evenodd" class="s1" d="m71.8 134.4c0.3-0.1 0.3-0.2 0.4-0.2 0.3 0.4-0.2 0.6-0.4 0.2z"/>
				<path id="path319" fill-rule="evenodd" class="s1" d="m28.9 119.3c1.2-1 2.7 0 2.3 1.3-0.5 0.5-1.1 1-1.8 0.9-0.3-0.4-0.7-0.4-0.9-0.8-0.2-0.6 0.3-1 0.4-1.4z"/>
				<path id="path321" fill-rule="evenodd" class="s1" d="m46.4 85.8c0.2-0.3 0.6-0.1 0.9 0 0.2 0.8-1.1 0.8-0.9 0z"/>
				<path id="path323" fill-rule="evenodd" class="s1" d="m48 85.3c0-0.1-0.1-0.1-0.1-0.1-0.1-0.3 0.2-0.5 0.5-0.4 0.1 0.3-0.1 0.5-0.4 0.5z"/>
				<path id="path325" fill-rule="evenodd" class="s1" d="m31.4 110.3q-0.3 0.2-0.5-0.1c0.1-0.2 0.3-0.2 0.5-0.2q0.1 0.2 0 0.3z"/>
				<path id="path327" fill-rule="evenodd" class="s1" d="m39.8 89.2c0.2 0 0.2 0.3 0.3 0.5-0.3 0.9-1.2-0.2-0.3-0.5z"/>
				<path id="path329" fill-rule="evenodd" class="s1" d="m41.2 81.4c-0.6-0.4 0-1.1-0.2-1.6 0.2 0 0.4-0.2 0.6-0.1 0.3 0.7 0.1 1.2-0.4 1.7z"/>
				<path id="path331" fill-rule="evenodd" class="s1" d="m30.2 61.1c-0.1-0.2 0-0.4 0.1-0.5 0.3 0.1 0.2 0.6-0.1 0.5z"/>
			</g>
			<path id="outer_o" fill-rule="evenodd" class="s2" d="m122.8 10.6c31.8 0 60.7 12.2 81.7 31.8 21.1 19.8 34.4 47.4 34.5 77.9 0.1 19.4-5.2 37.8-14.4 53.7 0.1-0.6 0.1-1.1 0.7-1.5 0.3-0.9 0.4-1.7 0.6-2.5 1.2-1.1 1.8-2.4 2-3.9 0.7-0.8 1.1-1.8 1.7-2.7-0.1-0.6 0-1 0.1-1.6 0.2-0.7 0.4-1.3 0.6-1.9 0.1-0.3 0.4-0.5 0.6-0.8 0.1-0.2 0-0.4 0.1-0.6 0.1-0.4 0.3-0.7 0.5-1 0-0.3 0-0.5 0-0.8 0.5-0.3 0.2-0.9 0.3-1.3 0.1-0.4 0.5-1 0.6-1.4 0.1-0.4 0.2-0.8 0.1-1.1 0.7-1 0.5-2.3 1.2-3.2-0.1-0.6 0.2-1-0.1-1.7 0.3-0.5 0.4-1.2 0.8-1.7-0.2-0.9 0.4-1.6 0.5-2.3 0.1-0.5-0.1-1 0.2-1.5-0.3-0.3-0.1-0.7-0.1-1.1 0-0.2-0.2-0.4-0.2-0.6-0.1-0.6 0.4-1.2 0.5-1.9 0.1-0.6-0.1-1.1 0.4-1.4q0.3-2.1 0.4-4.2c0.1-0.1 0.2-0.2 0.2-0.3-0.2-0.4 0.2-0.6-0.1-1q0.1-0.2 0.3-0.3c0.1-0.9-0.2-1.9 0.1-2.8 0-0.1-0.1-0.2-0.1-0.4 0.2-0.1 0.2-0.3 0.2-0.4-0.1-0.6 0-1.2-0.1-1.8 0-0.2-0.2-0.3-0.2-0.4-0.1-0.5 0.1-0.9 0-1.4 0-0.3-0.2-0.5-0.3-0.8 0-0.1 0.1-0.3 0.1-0.4 0-0.2-0.2-0.5-0.2-0.7 0-0.5 0.2-1 0.2-1.5 0-0.9-0.3-1.7-0.2-2.5-0.4-0.5 0-0.9 0-1.5 0-0.1-0.1-0.3 0-0.4 0-0.2 0.2-0.3 0.2-0.5 0-0.2-0.2-0.4-0.2-0.6 0-0.2 0.2-0.5 0.2-0.7 0-0.5-0.2-1-0.3-1.6 0-0.2 0.1-0.3 0.1-0.4 0-1.1-0.3-2.2-0.6-3.1-0.2-0.9-0.5-1.5-0.6-2.4-0.3-1.2-0.8-2.4-1.3-3.7-0.1-0.9-0.4-1.8-0.7-2.7-0.1-0.3-0.3-0.6-0.4-0.9-0.1-0.4 0-0.8-0.1-1.1-0.2-0.6-0.6-1.1-0.9-1.7-0.2-0.5-0.4-1-0.6-1.4-0.1-0.4-0.1-0.8-0.2-1.2-0.1-0.1-0.2-0.3-0.3-0.4-0.3-0.7-0.4-1.4-0.6-2.2-0.1-0.3-0.3-0.6-0.4-0.9-0.3-1-0.5-1.8-1.2-2.7 0.3-1.1-1-2.3-1.5-3.4q-0.1 0-0.2 0c-0.1 0-0.2 0-0.2 0 0.2-0.3-0.3-0.8-0.2-1.1-0.6-0.7-1-2-1.7-2.8-0.2 0.4-0.5 0.7-0.4 1.1 0.1 0.4 0.9 0.9 1 1.4 0 0.6 0.5 1.1 0.9 1.9-0.1 1.4 0.2 3.1 1 4.7 0 0.7 0.7 1.7 0.5 2.3q0.1 0.1 0.3 0.3c0.2 0.9 0.2 1.6 0.4 2.3 0 0.3 0.2 0.4 0.3 0.7 0.2 0.5 0.2 1.2 0.4 1.9 0.2 1 0.5 1.8 0.8 2.6 0.1 0.2-0.2 0.3-0.1 0.4 0.4 0.5 0.2 0.9 0.3 1.3 0 0.1 0.1 0.3 0.2 0.4 0.1 0.2 0 0.6 0.1 0.8 0.2 0.5 0.4 1 0.2 1.6 0.7 0.7 0.1 1.5 0.7 2.2 0 0.6-0.1 1.2-0.2 1.7 0.2 0.2 0.3 0.5 0.5 0.8 0.1 0.4-0.2 0.6-0.1 1.1 0.1 0.5 0.7 1 0.2 1.3 0.3 1.4 0.7 2.8 0.6 4 0.1 0.2 0.1 0.2 0.1 0.4-0.2 0.5 0.3 1.2 0.1 1.7 0.5 0.3 0.2 0.8 0.2 1.1 0.6 0.9 0.1 1.5 0.1 2.3-0.1 0.5-0.2 1.1-0.2 1.4 0 0.5 0.4 0.9 0.5 1.4 0.4 1 0 2.1 0.2 3.1 0 0.1 0.1 0.1 0.2 0.3-0.5 1.5-1 3.1-1.3 4.6-0.3 0.2-0.3 0.5-0.5 0.7 0.2 0.6-0.1 0.9-0.2 1.4 0.2 0.2 0.1 0.3 0.2 0.5-0.3 0.4-0.1 0.8-0.2 1.2-0.1 0.2-0.2 0.3-0.3 0.4-0.1 0.3-0.1 0.8-0.1 1.1 0 0.1 0.2 0.2 0.2 0.4-0.1 0.3-0.3 0.5-0.4 0.8-0.1 0.6-0.1 1.2-0.4 1.7 0.1 0.1 0.1 0.3 0.1 0.5-0.4 0.9 0 2.2-0.8 3.1 0.2 0.4-0.2 0.8-0.3 1.2 0 0.2 0.1 0.4 0.1 0.5 0 0.2-0.2 0.4-0.2 0.7 0 0.2 0 0.4 0 0.5-0.1 0.4-0.4 0.7-0.5 1.1-0.1 0.2 0 0.4-0.1 0.6-0.1 0.3-0.3 0.4-0.3 0.6-0.1 0.2 0 0.4 0 0.5 0 0.1-0.2 0.2-0.2 0.2-0.1 0.5-0.3 1.1-0.5 1.5-0.1 0.1 0.1 0.3 0 0.4-0.3 1.1-0.8 2.2-1.1 3.3-0.5 0.4-0.4 0.9-0.5 1.4-0.9 1.4-1.1 3-1.9 4.4 0 0.6-0.2 1.1-0.9 1.4 0 0.2-0.1 0.4-0.2 0.6 0.1 0.2 0.1 0.5 0.1 0.7q0 0.1 0 0.1c-0.1-0.4-0.4-0.7-0.3-1-0.4 0.2-1.5 0.6-1.5 1.3 0.1 0 0.3-0.1 0.5-0.1 0.2-0.1 0.4-0.2 0.6 0-0.1 0.2-0.1 0.3-0.1 0.5q0.1 0.1 0.2 0.1c-0.1 0.4-0.3 0.8-0.7 1.1 0 0.6-0.5 1-0.7 1.5-0.3-0.3-0.9-0.2-1.2-0.5-0.5-0.6 0.2-0.9 0.5-1.3-0.5-1.1 0.8-2 0.8-3 0.2-0.2 0.3-0.3 0.5-0.4-0.1-0.4 0.2-0.6 0.5-0.8q-0.1-0.2-0.2-0.4c0.1-0.6 0.7-1.2 0.8-1.7 0.2-1.2 0.9-2.1 1.1-3.2 1.2-1 0.6-2.7 1.9-3.8 0-0.2 0.1-0.4-0.1-0.7 0.3-0.4 0.2-0.9 0.3-1.4 0.1-0.1 0.1-0.2 0.2-0.2-0.2-0.9 0.6-1.5 0.9-2.2-0.2-0.3 0-0.5 0.1-0.7q-0.1-0.2-0.2-0.4c0.3-1.2 1.1-2.3 0.8-3.7 0.1-0.2 0.2-0.4 0.3-0.6-0.1-1.3 0.7-2.2 0.5-3.5 0.6-0.5 0.4-1.3 0.6-1.9 0.1-0.5 0.4-0.7 0.4-1.1 0-0.1-0.2-0.3-0.2-0.4 0-0.1 0.2-0.3 0.2-0.5 0-0.1-0.2-0.3-0.1-0.4 0-0.1 0.1-0.2 0.1-0.3 0.1-0.7 0-1.6-0.1-2.3 0-0.3 0.2-0.5 0.2-0.7 0-0.6 0-1.1 0.1-1.7 0.1-0.8 0.2-1.5 0.5-2.2-0.3-2.2-0.4-4.4-0.1-6.4-0.1-0.6-0.3-1.2-0.1-1.7-0.6-1.5-0.3-3.1-0.3-4.6-0.1-0.3-0.2-0.6-0.3-0.9 0-0.3 0.1-0.7 0.1-1 0-0.3-0.2-0.6-0.3-0.9 0-0.3 0.1-0.5 0.1-0.8 0.1-0.7 0.2-1.9 0-2.6 0-0.1-0.2-0.2-0.3-0.4-0.2-0.5-0.2-1.2-0.4-1.8 0-0.2-0.2-0.3-0.3-0.4-0.5-1.2-0.5-2.6-1.2-3.8 0.1-0.4-0.1-0.9 0-1.4-0.1-0.1-0.2-0.1-0.3-0.3 0.3-1.4-0.9-2.9-1.6-4.4 0-0.6 0-1.4-0.2-2.2-0.1-0.3-0.4-0.5-0.5-0.8 0-0.2 0.1-0.5 0-0.7 0-0.2-0.2-0.3-0.3-0.5-0.2-0.6-0.1-1.3-0.2-1.9-0.5-0.1-0.7-1.3-1.2-1.4 0.4-0.5-0.1-1.2 0-1.7-0.2-0.2-0.4-0.3-0.5-0.5 0.1-0.5-0.4-0.8-0.5-1.2-0.1-0.2 0-0.4-0.1-0.5-0.1-0.3-0.4-0.4-0.5-0.7-0.3-0.5-0.1-1-0.2-1.4-0.2-0.8-0.9-1.3-1.2-1.8-0.1-0.1 0-0.3-0.1-0.5-0.3-0.7-0.8-1.7-1.3-2.4-0.6-0.8-1-1.4-1.4-2.2-0.2-0.4-0.4-0.7-0.7-1-0.2-0.3-0.2-0.6-0.3-0.9-0.5-1.2-1.1-2.4-1.7-3.3-0.3-0.5-0.2-1-0.4-1.4-0.2-0.5-0.6-0.7-0.7-1-0.2-0.3-0.3-0.8-0.5-1.1-0.1-0.1-0.3-0.2-0.3-0.3-0.2-0.2-0.2-0.4-0.3-0.6-0.7-1.6-2.1-3-2.9-4.7-1.2-1.2-2.3-2.8-3.5-4.3-0.5-0.5-1.2-1-1.7-1.6-0.6-0.8-1.1-1.7-1.8-2.4-0.3-0.2-0.6-0.3-0.7-0.7q-0.3-0.2-0.5-0.4c-0.6-1.6-2.3-1.7-2.9-3.5-1.4-0.9-2.6-2.2-3.8-3.4q-0.1-0.2-0.3-0.4c-0.5-0.5-1.1-0.9-1.6-1.7q-0.6-0.2-1.1-0.9c-1-0.2-1.7-1.3-2.5-1.9-0.8-1.7-2.6-1.3-3.7-2.5-0.4-0.1-0.6-0.4-0.8-0.8-0.6-0.1-1.1-0.7-1.6-1.1-0.9-0.4-1.9-0.8-2.7-1.4-0.5-0.1-1.1-0.3-1.5-0.8-1.3-0.4-2.4-1.7-3.6-2.3-0.8-0.7-1.7-0.8-2.4-1.6-0.5-0.3-1.1-0.4-1.5-0.9-0.7 0-1.3-0.4-2.1-0.4-1.1-0.5-2.3-0.7-3.4-1.4-1.7-0.4-3.2-1.5-5-1.4-0.3-0.2-0.8-0.2-1.1-0.4-0.6 0.1-1.2 0.1-1.8-0.1-0.3 0.2-0.6 0.2-0.9 0.1-0.2 0-0.4-0.1-0.7 0-0.9-0.4-2-0.1-2.9-0.6-0.2 0.1-0.3 0.1-0.4 0.1-0.1 0-0.2 0-0.3 0.1-0.5-0.3-1.2-0.2-1.8-0.2-0.6 0.1-1.2 0.1-1.7-0.1-0.6 0.1-1.2 0.1-1.8 0.1q-0.5 0-1 0c-0.4 0-0.8-0.1-1.2-0.1-0.4 0-0.7 0.3-1.2 0.5-0.3 0.1-0.7 0-1.1 0.1-0.3 0-0.5 0.2-0.8 0.3q-0.1 0-0.2 0-0.2-0.1-0.3-0.1c-0.8 0.2-1.5 0.8-2.3 1.1-0.5 0.2-1.2 0.2-1.6 0.3-0.3 0.1-0.7 0.3-1.1 0.5-1.1 0.3-2.3 0.6-3.3 0.8-0.9-0.2-1.8-0.1-2.7 0.1-0.7 0.1-1.3 0.1-1.9 0.1-0.6 0.5-1.3 0.3-1.9 0.4-0.3 0.1-0.5 0.3-0.8 0.3q-0.2 0.1-0.3 0-0.2 0-0.4 0c-0.2 0.1-0.4 0.2-0.6 0.3q-0.1 0-0.3-0.1-0.1 0-0.2 0c-0.6 0-1.2 0.2-1.7 0.2q-0.2 0.1-0.4 0.2c-0.7-0.4-1.5 0-2.2 0.2q-0.1 0-0.2 0-0.1-0.1-0.3 0c-0.7 0.2-1.7 0.5-2.2 0.6-0.4 0.1-0.7 0.4-1.1 0.5q-0.1 0-0.2 0-0.1-0.1-0.2-0.1c-0.3 0.1-0.6 0.3-0.9 0.4-0.3 0.1-0.7 0.1-1 0.2-0.3 0-0.5 0.3-0.8 0.3-0.2 0.1-0.5 0.1-0.7 0.1-0.7 0.3-1.4 0.9-2.1 1.2-1 0.5-2.1 0.6-3 1.1-0.7 0.2-1.2 0.8-2 1-0.1 0.2-0.2 0.3-0.3 0.5-0.9 0.4-1.8 0.7-2.6 1.1-0.4 0.2-0.5 0.6-0.7 0.7-0.2 0.1-0.4 0.1-0.6 0.2-0.7 0.5-1.4 1.3-2.2 1.5-0.4 0.9-1.9 1.2-2.4 2-0.1 0-0.3 0-0.4 0.1-0.1 0.2-0.3 0.3-0.6 0.3-0.7 0.7-1.4 1.5-2.5 2-0.3 0.6-1.7 1.1-2.3 1.4-0.5 0.4-1.1 1-1.5 1.3-0.5 0.2-0.8 0.6-1.2 1-0.4 0.3-0.4 0.3-0.6 0.6-0.5 0.6-1.3 1.1-1.6 1.7-0.3 0.1-0.7 0.1-1 0.2-0.3 0.6-1.3 1.3-2 1.6-0.2 0.4-0.5 0.9-0.9 1 0 0.8-1.1 1.1-1.5 1.8-1.3 0.7-1.4 1.8-2.5 2.6q0 0.2-0.2 0.4c-0.7 0.6-0.9 1.3-1.3 2-0.2 0.1-0.3 0.2-0.4 0.3-0.1 0.6-1.1 1.2-1.6 1.6-0.1 0.4-0.5 0.6-0.9 0.9 0 0.1 0 0.3-0.1 0.5-0.9 1.2-1.9 2.5-2.7 3.7-0.6 0.2-0.7 0.9-1.2 1.2 0 0.2 0.2 0.2 0.3 0.4-0.2 0.1-0.1 0.3-0.3 0.4-0.1 0-0.1 0-0.2 0 0-0.1-0.1-0.1-0.2 0-0.1 0.1-0.2 0.3-0.3 0.5-1.3 0.7-1.3 1.8-2.3 2.6 0.1 0.6-0.2 1-0.4 1.5-0.2 0.4-0.5 0.6-0.7 0.9-0.1 0.2-0.1 0.5-0.2 0.7-0.2 0.6-0.7 0.9-1 1.5-0.1 0.1-0.2 0.2-0.4 0.4-0.1 0.9-0.5 1.7-1 2.5 0.1 0.6-0.3 1-0.7 1.4v0.6c-0.3 0.1-0.2 0.5-0.3 0.7-0.2 0.1-0.2 0.3-0.3 0.4-0.1 1.1-1 1.8-1.4 2.8-0.1 0.3-0.2 0.6-0.3 0.8-0.1 0.1-0.3 0.1-0.3 0.2-0.2 0.2-0.3 0.6-0.6 0.7-0.5 1.6-1.2 3-1.7 4.6q-0.2 0.1-0.2 0.2c-0.1 0.6 0.1 1.2-0.4 1.7 0.2 0.9-0.6 1.5-0.4 2.4-0.2 0.1-0.2 0.3-0.4 0.5q0.1 0.2 0.2 0.4-0.1 0.4-0.2 0.8c-0.4 0.7-0.6 1.6-0.9 2.3-0.5 0.5-0.6 0.9-0.9 1.4 0 0.8-0.1 1.6-0.5 2.2q0 0.1 0.1 0.3c-0.4 0.5-0.1 1.2-0.6 1.6 0.2 0.2 0.1 0.4 0.3 0.7-0.4 1.4-0.6 2.8-0.6 4.4-0.2 0-0.1 0.1-0.2 0.1 0.1 0.9-0.5 1.6-0.1 2.6-0.2 0.3-0.1 0.8-0.3 1.1 0 0.1 0 0.3 0.1 0.5-1 1.8 0.5 4.5-0.5 6.3 0.1 0.1 0.1 0.3 0.2 0.4-0.1 0.2-0.3 0.4-0.3 0.7 0.5 1.2-0.6 1.9-0.1 3.2-0.4 0.9-1.1 1.6-0.6 2.8-0.5 1.2 0.2 2.9-0.1 4.2 0.1 0.2 0.1 0.4 0.2 0.6-0.3 0.5-0.1 0.8 0 1.4 0 0.3-0.1 0.6 0 0.8 0 0.3 0.2 0.4 0.2 0.6 0.2 0.7 0 1.6 0.6 2.3 0.1 1.1-0.3 2.3 0.6 3.2 0.1 0.2-0.1 0.3 0 0.4 0.4 0.2 0.7 0.9 0.5 1.3 0.3 0.7 0.1 1.2-0.2 1.7 0.2 0.4 0 1 0.4 1.5-0.4 0.3-0.2 0.9 0.2 1.2 0 0.1-0.1 0.3 0 0.4 1 2.9 0.9 5.5 2.5 8.6 0 0.2-0.1 0.3 0 0.5 1 1.3 0.6 2.3 1.4 3.6 0.2 1.2 1.1 2 1.7 3.1 0.9 0.3 1.8 1.7 1.6 2.6 0.5 1.5 2.2 3.1 2.4 4.7 0.4 0.8 1.2 1.8 1.3 2.6 0.1 0.2-0.1 0.5 0 0.7 0.1 0.4 0.5 0.5 0.7 0.9 0.4 0.4 0.6 0.7 0.9 1.2 0.6 0.1 1 1.2 1.4 1.8 0.3 0.3 0.6 0.5 0.8 0.8 0.2 0.2 0.1 0.5 0.3 0.8 0 0.1 0.3 0.1 0.4 0.3 0.1 0.2 0.2 0.5 0.4 0.7 0.5 0.8 1.4 1.2 1.8 1.9 0.5 0.7 0.8 1.4 1.3 2 0.4 0.5 1.1 1 1.3 1.4 0.4 0.4 0.7 1.2 0.7 1.5 0.4 0.2 0.3 0.6 0.5 0.8 0.2 0.2 0.6 0.3 0.7 0.6 0.2 0.3 0.1 0.7 0.3 1 0.3 0.6 1.3 1 1.7 1.8 0.1 0.2 0.1 0.6 0.2 0.9 0.3 0.5 0.8 0.8 1.1 1.3 0.2 0.3 0.1 0.6 0.4 0.8 0 0.2 0.2 0.6 0.2 0.8 1 0.7 1.6 2.3 2.8 2.3 0 0.2-0.1 0.3 0.1 0.4 0.4 0.3 0.8 0.6 1.1 0.9 0.1 0.2 0.1 0.3 0.2 0.5 0.5 0.5 1.4 0.3 1.7 1.1 0.4 0.2 0.8 0.2 1.2 0.4 0.1 0.4 0.3 0.6 0.4 0.9 0.2 0.1 0.4 0.1 0.6 0.3 0.7-0.1 1.2 0.2 1.7 0.6 0.6 0.4 1.2 0.8 1.9 0.6 0.4 0.5 0.9 0.7 1.3 1.3 0.7-0.1 1.1 0.7 1.8 0.8-0.1 0.1 0.1 0.2 0.1 0.3 0.5 0.4 1 0.8 1.6 0.9q1 1 2.4 0.7c0.3 0.3 0.7 0.5 1.2 0.5 0.1 0 0.3 0 0.5-0.1 0.5 0.6 1.5 0.3 2.1 0.6 0.2 0.1 0.3 0.3 0.6 0.3 0 0.1 0 0.2 0.1 0.3 0.4 0 0.7 0.6 1 1.1 0.5-0.1 0.8 0.5 1.2 0.8 0.5-0.5 0.8 0 1.1 0.2 0.7 0.3 1.3 0.1 1.8 0.3 0.4 0.1 0.7 0.6 1 0.7q0.2 0 0.2 0c0.2-0.1 0.3-0.1 0.3 0.1 0.2-0.1 0.2-0.2 0.4-0.3 0.1 0.2 0.3 0.2 0.4 0.3 1.1-0.2 2.1-0.1 3-0.3 0.3 0.1 0.5 0.1 0.7 0.3 0.2-0.2 0.3-0.1 0.5-0.2 1.6 0.7 3.3 1.1 5.1 1.4 0 0 0.1 0.1 0.2 0.3 1.1-0.1 2.3-0.2 3.3 0.4 0.2-0.1 0.2-0.2 0.4-0.2 0 0.2 0.2 0.1 0.4 0.3 1.4-0.1 2.6-0.2 3.8 0.3 0.1 0 0.2 0.1 0.2 0.3 0.8 0.1 1.6 0.1 2.3 0.3 0.5-0.1 1-0.1 1.4 0.1 0.6-0.2 1.1 0 1.5 0.3 1.2-0.5 2.1-0.1 3.3-0.6 0.1-0.2 0.3-0.9 0.7-0.6 0 0.2-0.3 0.3-0.3 0.5 0.4 0.3 0.7-0.1 1.1-0.3 0.2 0.2 0 0.3 0.1 0.4 0.3 0 0.6 0 1 0.1 0.4 0 0.9 0.1 1.4-0.1 0.1 0.2 0.3 0.2 0.5 0.3q1.5-0.5 2.7-0.3c0-0.1 0.3-0.1 0.5-0.2 0.1 0.2 0.4 0 0.6 0.2 0.1-0.1 0-0.2 0.2-0.3 0.3 0.4 0.7 0.3 1.1 0.2 0.3-0.2 0.6-0.3 0.9-0.1 0.2-0.2 0.1-0.7 0.6-0.7 0.2 0.3 0 0.5 0.1 0.8 0.1 0.1 0.2 0 0.3-0.1 0.1 0 0.2-0.1 0.3-0.1q0 0.2 0.1 0.4c0.9-0.4 1.1-0.5 1.8-1.1 0.1-0.5 0.4-1.1 0.9-1.5 0.1-0.4 0-0.9 0.2-1.4 0.3-0.2 0.4-0.4 0.4-0.7-0.1-0.3-0.3-0.4-0.2-0.6 0.3-0.3 0.7-0.3 0.9-0.4 0.1-0.1-0.1-0.3 0-0.4 0.4-0.2 0.5-0.3 0.8-0.3-0.1-0.2 0.1-0.3 0.1-0.4-0.1-0.2-0.3-0.1-0.4-0.4 0.1-0.1 0.1-0.2 0.3-0.3 0.2 0.2 0.3 0.2 0.3 0.5 0.7-1.3 3-2.4 4.3-2.1-0.2-0.6-0.3-1.2 0.1-1.4 0.6-0.4 0.9 0.9 1.3 1.4 1.3 0.4 2.9 0.1 4.2 0.5 0.3-0.2 0.5-0.2 0.7-0.2 0.2-0.3 0.4-0.5 0.8-0.7 0-0.2-0.2-0.4 0-0.5 0.2 0.2 0.3 0.3 0.4 0.5 1.1-0.1 2 0.3 2.8 0.9 0.1 0.1 0 0.2 0.1 0.4 0.2-0.1 0.3 0 0.4 0q0.1 0 0.3-0.1c0.5-0.9-1.3-1.2-1.2-2.1 0.1-0.5 0.8-0.3 1.1-0.5 0.6-0.3 0.5-1 1.2-1.3 0.5-0.8 0.9-1.7 1.2-2.6-0.3-0.3-0.6-0.2-0.8-0.5-0.7-1.1 2.1-2.4 2.4-1.5 0.1 0.4-0.4 0.4-0.3 1-0.2 0.4-0.8 0.6-1 1-0.2 0.2-0.2 0.8-0.4 1.2-0.1 0.3-0.3 0.6-0.4 0.9-0.2 0.7 0.1 1.6 0.2 2.3 2.6-0.7 4.9-2.3 7.5-3 0.7 0.3 1.6-0.2 2.4-0.2 0.3 0.5 0.9 0.1 1.1-0.3 0.3 0.1 0.6 0 0.9 0 0.4-0.1 0.9-0.2 1.2 0 0.2-0.3 0.6-0.2 0.8-0.3 0.1-1 1.6-1.5 2.5-1.3 0.3-0.4 0.2-0.6 0.6-0.8 0.2-0.1 0.3-0.1 0.5-0.1q0.2 0.1 0.4 0c0.3-0.1 0.3-0.3 0.5-0.4 0.3-0.2 0.9 0 0.9-0.5 1.2 0.4 1.3-1.3 2.4-1.3 0.3-0.3 0.2-1 0.6-1.4 0.1 0 0.4-0.1 0.5-0.1 0.6-0.4 1-1.1 1.5-0.9 0.1-0.3 0.3-0.5 0.7-0.5 0.2-0.3 0.3-0.6 0.6-0.8 0.3-0.2 0.7-0.2 1-0.4 0.3-0.2 0.4-0.5 0.7-0.8 0.1-0.1 0.2-0.1 0.3-0.2 0.5-0.3 0.5-0.8 0.9-1.2 0.3-0.3 0.7-0.4 0.9-0.8 0.9-0.7 2.1-1.3 2.8-2 0.5-0.1 0.7-0.3 1-0.4 0.2-0.4 0.6-0.3 0.9-0.6 0.1-0.1 0.1-0.3 0.1-0.4 0.3-0.3 0.6-0.3 1-0.5 0.6-0.9 1.3-1.9 2.4-2.5 0.7-1.1 1.6-2.3 2.8-3.2 0.4-0.7 0.7-1.5 1.7-1.9 0.1-0.1 0-0.4 0.2-0.5 0.1 0.1 0.3 0 0.4 0 0.1-0.1 0.3-0.1 0.4 0 0 0.2-0.2 0.5-0.4 0.7 0.1 0.2 0.1 0.4 0.1 0.6-0.5 0.4-0.8 1.1-0.5 1.7 0.4-0.2 0-0.6 0.4-0.8q0.1 0.3 0.1 0.6-0.3 0.1-0.5 0.2c-0.1 0.1 0.1 0.3 0 0.4-1 1-1.5 2.3-2.5 3.2-0.3 0.3-0.8 0.5-1 1-0.3 0.3-0.6 0.7-0.8 1q-0.1 0-0.3 0.1c0 0.7-1.2 1-1.1 1.7-0.6 0.5-1 0.9-1.4 1.3 0.3 0.7-0.5 1-0.5 1.6-0.6 0.1-0.7 0.7-1 1.1-0.2 0.3-0.6 0.5-0.9 0.8-0.1 0.2-0.1 0.4-0.2 0.6-0.4 0.4-1 0.7-1.4 1.2-0.3 0.4-0.6 0.9-1.2 1.2-0.1 0.1 0 0.3-0.2 0.5-1.3 0.7-1.6 1.9-2.8 2.4-0.2 0.2-0.2 0.4-0.3 0.5-2.6 1.7-4.4 3.7-6.6 5.4-0.6 0.1-0.7 0.8-1.3 0.9-0.1 0.2-0.2 0.3-0.3 0.4-0.1 0-0.3 0.1-0.5 0.2-0.8 1.1-2.1 1.5-3.2 2.2-0.3 0.3-0.5 0.6-0.7 0.8-0.3 0.2-0.7 0.3-1 0.5-0.2 0.1-0.3 0.3-0.5 0.4-0.3 0.2-0.7 0.2-1 0.4-0.2 0.1-0.2 0.3-0.3 0.4-0.3 0.2-0.7 0.2-1.1 0.4-0.4 0.2-0.7 0.7-1.1 1-0.1 0.1-0.4 0.1-0.5 0.2-1 0.5-1.8 1.3-2.6 1.1-0.1 0.1 0.1 0.3-0.2 0.3-1.2 0.6-2.1 1.4-3.2 1.5-1.3 1.2-3.5 1.6-4.8 2.4-0.8 0.5-2.2 0.7-3.3 1.3-0.4 0.2-0.7 0.5-1.1 0.6q-0.1 0-0.2 0-0.1 0-0.3 0c-0.6 0.1-1.3 0.5-1.9 0.4-0.1 0.1-0.2 0.3-0.4 0.4-0.5 0-0.9 0.2-1.3 0.6-0.4-0.1-0.8 0.4-0.7 0.7 0.5 0.1 1 0.1 1.4-0.4 1 0.1 2.1-0.3 3.1-0.5q0.1-0.1 0.3-0.3c0.8 0 1.5-0.5 2.2-0.7q0.2 0 0.5 0.1c0.1 0 0.3 0 0.4 0 0.6-0.1 1.1-0.6 1.7-0.7 0 0 0.1 0 0.2 0q0 0 0.1 0c0.4-0.1 0.7-0.4 1-0.3 0.5-0.6 1.5-0.8 2-0.9 0.3-0.6 1.2-0.7 1.7-0.7 0.2-0.1 0.3-0.2 0.4-0.3 0.5-0.1 1.1-0.2 1.5-0.3 0.8-0.3 1.4-0.8 2-1q0.1-0.1 0.2-0.1 0.2 0.1 0.3 0c0.3-0.1 0.4-0.3 0.8-0.5q0.6-0.1 1-0.4c0.4-0.1 0.7 0 1-0.1 0.7-0.3 1.2-1 1.8-1.4 0.5-0.1 1-0.1 1.4-0.1q0.4 0.1 0.9 0c0.1-0.7 1.1-0.5 1.5-0.7 0.2-0.1 0.3-0.4 0.5-0.5 0.2-0.1 0.5-0.1 0.7-0.2 0.3-0.2 0.5-0.6 0.8-0.8 0.8-0.6 2-0.8 2.8-1.5 0.4-0.6 1.2-0.6 1.9-0.9 1-0.6 1.6-1.6 2.9-2.1 0.1-0.1 0.1-0.2 0.2-0.3q0.3 0 0.6-0.1c0.9-1.2 2.5-1.8 3.6-3q0.1-0.1 0.2 0c0 0 0.1 0 0.2-0.1 0.9-1.1 2.6-2 3.7-3.3 0.1 0 0.2 0 0.4 0 0-0.3 0.3-0.4 0.6-0.6 0.5-1 1.8-1.3 2.5-2.2 0.1-0.1 0.1-0.3 0.2-0.4 0.1-0.2 0.4-0.2 0.5-0.3 0.4-0.4 0.8-1.1 1.3-1.4 1.3-1 2.3-2.3 3.2-3.3 0.2-0.1 0.2-0.1 0.4-0.2 0.1-0.7 1.2-1.1 1.3-1.8q1-1 1.9-2.1-5.1 6.6-11.2 12.5c-21 20-50 32.5-82.1 32.6-15.6 0.1-30.6-2.8-44.3-8q-0.5-0.4-1-0.8c-0.6 0-1.2-0.3-1.2-0.7-0.2 0-0.4-0.1-0.6-0.1-0.6-0.9-1.8-1-2.7-1.5-0.2-0.1-0.3-0.3-0.4-0.4-1.2-0.9-2.7-1.5-4.1-2.1-0.7-0.7-2.2-0.8-2.5-1.5-1-0.3-1.8-1.1-3-1.5-0.5-0.7-1.4-1-2-1.5 0 0-0.1-0.2-0.1-0.3-0.1 0-0.3 0-0.5-0.1-0.3-0.2-0.7-0.7-1.4-0.9-0.1-0.1 0-0.3-0.1-0.3-1.4-0.4-3-0.5-3.8-1.4 0 0-0.1 0-0.2 0-0.1-0.1-0.2-0.1-0.2-0.1-0.5-0.6-1.4-0.8-2.2-1.1-1.3-0.6-2.1-1.5-3.1-2.3-0.5 0.1-0.9-0.4-1.1-0.7q-0.2 0-0.3 0-2-1.6-3.8-3.2c-0.6-0.7-1.1-1.3-1.4-2.1-0.4-0.2-0.5-0.5-0.8-0.8 0.1-0.2-0.1-0.3-0.2-0.5-1-0.7-1.9-1.4-2-2.4 0-0.2-0.6-0.2-0.5-0.5-0.3 0-0.5 0-0.7 0q-0.5-0.7-1.5-1.1c-0.8-0.7-1.5-1.5-2.2-2.2q0-0.4-0.1-0.6c-1.3-0.4-2.1-1.3-2.5-2.2-0.4-0.1-0.5-0.4-0.9-0.5-0.5-1-1.2-2-1.7-3-0.2 0-0.3 0-0.5-0.1-0.3-1.1-0.7-2.2-0.8-3.5-0.4-0.1-0.5-0.3-0.7-0.6 0.1-1.1-1.6-1.5-1.5-2.6-0.4-0.5-0.9-1.1-1-1.8-0.9-0.5-0.6-1.4-1.5-1.8 0.1-0.4-0.3-0.6-0.6-0.8-0.2-0.7-0.4-1.4-0.9-1.9-1.3 0-3-0.8-2.4-2-0.3-0.5-0.3-1.1-0.8-1.4-0.3-0.3-0.8-0.3-0.9-0.6-0.4-0.8-0.3-1.9-1.1-2.6-0.1-1.1-1.4-1.7-1.2-3-0.4-0.6-0.3-1.4-1-1.9-0.1-0.5-0.2-1-0.5-1.4-0.2-0.4-0.1-0.7-0.2-1.1-0.2-0.4-0.8-0.9-1-1.3-0.2-0.3-0.2-0.7-0.4-1-0.2-0.5-0.7-0.9-0.7-1.4q0 0-0.1-0.1-0.1-0.4-0.3-0.7 0.1-0.1 0.1-0.1-0.1-0.1-0.1-0.1-2.4-7-3.8-14.4 0.1-0.8-0.2-1.4c0.2-1.1-0.2-2.1-0.1-3.1 0.1-0.4-0.2-1.2-0.2-1.5 0.1-0.8-0.4-1.3-0.1-2-0.4-1-0.5-2.4-0.3-3.5-0.3-1.1-0.1-2.7 0.4-3.7-0.3-0.4-0.5-1-0.2-1.5 0-0.2-0.2-0.3-0.2-0.6 0.5-1-0.4-2 0.4-3-0.7-1-0.1-2.9 0.2-4.2-0.8-1.6-1-3.6-0.5-5.5-0.4-0.4-0.6-0.8-0.2-1.4q-0.1-0.1-0.2-0.2 0.3-2.5 0.7-5c0.2-0.4 0.4-0.7 0.4-1.1 0-0.2-0.1-0.3-0.1-0.5 0.1-0.4 0.6-0.6 0.7-0.9-0.3-1.7 1-2.9 1.8-4.3 0.5-0.7 0.8-1.7 1-2.6 0-0.2-0.1-0.4 0-0.5 0.1-0.5 0.5-0.8 0.6-1.1 0.2-0.5 0.1-0.9 0.3-1.4 0.3-0.5 0.8-0.8 1-1.3 0.3-0.5 0.3-1.3 0.4-2 0.5-0.7 1.1-1.6 1.2-2.5-0.7 0-1 0.7-1.7 0.7-0.4 0.4-0.1 1-0.4 1.5-0.1 0.2-0.4 0.3-0.6 0.5-0.3 0.6-0.4 1.3-0.8 1.9-0.6 0.3-0.6 1.2-1 1.7q0 0-0.1 0.1c5.3-18.7 15.7-35.5 29.7-48.9 21-20 50-32.4 82.1-32.6q0.3 0 0.6 0zm-58.9 23.2q-0.1 0.1-0.3 0.1-0.1 0-0.1 0-0.2 0-0.4 0c-0.7 0.3-1.2 0.8-1.8 1-0.7-0.2-1.2 0.5-1.8 0.7q-0.2 0-0.4 0c-0.1 0-0.2-0.1-0.3 0-0.6 0.2-1.1 0.7-1.7 0.9-0.3 0.1-0.4 0.2-0.7 0.4-0.9 0.4-2 0.6-2.7 1.4-0.1 0-0.2-0.1-0.3-0.1-0.1-0.1-0.1-0.1-0.2-0.1-0.1 0.2-0.1 0.3-0.3 0.5-0.8 0.4-1.5 1.1-1.9 1.8-0.9 0.4-1.9 0.9-2.8 1.6q-0.1 0.1-0.3 0c-0.1 0-0.2-0.1-0.3 0-0.1 1.1-1.5 1.5-2.2 2.4-0.1 0.1-0.3 0-0.4 0.2-0.7 1-2.1 1.6-3.1 2.5-0.2 0.1-0.3 0.4-0.5 0.5-0.6 0.4-1.3 0.6-1.4 1.4-0.6 0.1-1 0.8-1.5 1.2-0.7 0.4-1.4 0.6-1.5 1.4-0.6 0.6-1.1 1.6-2.1 1.9-0.3 0.8-0.9 1.1-1.3 1.8-0.1 0.1-0.1 0.1-0.2 0.1q-0.1 0-0.2 0c-0.5 1.3-1.6 2.5-2.7 3.5-0.1 0.3-0.3 0.5-0.3 0.7q-1 1-1.5 2c-0.8 0.9-1.2 1.9-1.8 2.8-0.4 0.2-0.5 0.5-0.9 0.8-0.1 0.8-0.4 1.5-1 2.1-0.3 0.1-0.3 0.3-0.5 0.4-0.6 2.3-2.6 4.1-3.1 6.4q-0.2 0.2-0.4 0.3c-0.4 1.6-1.5 2.9-1.8 4.5q-0.1 0.1-0.3 0.2c0 1-0.8 1.8-0.9 2.8-0.1 0.1-0.3 0.3-0.5 0.4 0 0.1 0.2 0.3 0.3 0.4-0.4 0.7-0.7 1.4-0.8 2.2-0.7 0.3-0.6 1.2-0.8 1.8-0.6 0.8-0.4 1.8-0.9 2.6 0.4 0.8 0.1 1.4-0.5 2q0.1 0.8-0.3 1.5c0.2 0.5-0.2 0.8 0 1.3-0.3 0.2-0.1 0.4-0.2 0.6-0.1 0.7-0.6 1.3-0.7 2-0.1 0.1 0 0.2 0 0.3-0.1 0.3-0.2 0.6-0.3 0.9 0 0.4 0.2 0.7 0.1 1-0.2 0.3-0.2 0.4-0.3 0.8 0 0.1-0.1 0.1-0.1 0.2-0.1 0.3 0 0.7-0.1 1-0.1 0.5-0.3 1 0 1.6-0.7 0.8-0.5 1.8-0.6 2.7q-0.1 0-0.1 0c-0.1 0-0.2-0.1-0.1 0.1-0.1 0.9 0.1 1.8-0.5 2.6 0.3 0.7 0.4 1.3-0.1 1.8 0.5 1.1-0.1 1.9 0.1 3-0.1 0.1-0.2 0.2-0.4 0.4 0.1 0.5 0.2 0.9 0.2 1.4 0.4 0.5 0.1 0.9 0.3 1.4-0.4 1.2 0.1 2.6-0.4 3.8 0.5 0.9 0.4 1.7 0.1 2.5 0.3 0.6 0.6 1.2 0.2 1.6 0.6 1.9 0.1 3.5 0.6 5.3-0.3 0.6 0 1.4 0.3 2.1 0 0.2-0.2 0.4-0.3 0.6 0.3 1.2 1 2.6 0.5 3.6 0.1 0.2 0.2 0.1 0.3 0.3q0 0.3-0.1 0.6 0.2 0.3 0.4 0.6c0.2 1.2 0.1 2.5 0.7 3.7 0 0.3-0.1 0.5 0 0.8q0.1 0.2 0.2 0.4c0 0.9 0.4 1.9 0.4 2.8 0.4 0.3 0.4 0.9 0.2 1.2 0.9 1.6 0.6 2.8 1.5 4.4-0.1 0.2 0 0.4-0.1 0.6 0.3 0.4 0.2 0.7 0.6 1.2 0 0.2-0.1 0.3-0.2 0.4 1 1.1 0.6 2.7 1.7 4-0.1 0.2-0.1 0.3-0.3 0.4q0.3 0.2 0.6 0.6c0.4 1.5 1.1 3.1 1.9 4.5-0.1 0.6 0.5 1.2 1 1.8-0.2 0.4 0.3 0.8 0.5 1.4 0.1 0.3-0.1 0.6 0 0.9 0.1 0.2 0.3 0.3 0.4 0.5 0.1 0.2 0 0.4 0.1 0.7 0.1 0.1 0.4 0.3 0.5 0.5 0 0.2 0 0.4 0.1 0.5q0 0 0 0c0.1-0.1 0.1-0.1 0.1 0 0 0 0 0.1 0 0.2 0.1 0.4 0.2 0.5 0.2 0.7 0.8 1.3 1.5 2.7 2 3.9 0 0.1 0.2 0.1 0.2 0.2 0.2 0.4 0.2 0.8 0.4 1.1 0.3 0.6 0.7 1.5 1.1 2 0.1 0.2 0.4 0.3 0.5 0.5 0.3 0.4 0.2 0.6 0.2 0.8 0.1 0.4 0.4 0.5 0.7 0.9 0.4 0.5 0.9 1.7 1 2.1 0.8 0.7 1.3 1.8 1.9 2.6 0.1 0.1 0.2 0.1 0.4 0.2 0.8 1.2 1.1 2 2 3.1 0.3 0 0.5 0 0.7-0.1-0.4-2.2-1.8-4.5-2.3-6.6-0.4-0.4-0.6-1-0.4-1.3-0.2-0.1-0.3-0.4-0.5-0.5 0.1-1-0.8-1.9-1.2-2.8 0-0.2 0-0.4 0-0.6-0.5-1.4-1.3-2.8-2-4.1-0.1-1-1.2-1.9-1.1-2.8-0.6-0.8-0.7-2-1.3-3 0-0.8-0.5-1.6-0.7-2.3 0-0.1 0.1-0.3 0-0.4 0-0.1-0.2-0.2-0.2-0.4-0.1-0.4-0.2-1-0.6-1.5 0-0.2 0.2-0.2 0.1-0.4-0.9-1.1-2-2.2-2.1-3.4 0 0-0.1-0.1-0.1-0.2-0.1 0-0.1-0.1-0.2-0.1 0.1-0.8-0.6-1.5-1-2.3-0.7-1.2-0.7-2.5-1-3.6-0.5-0.3-0.5-1-0.5-1.3-0.4-0.2-0.8-1-0.9-1.6-0.2-0.6 0.2-1.3-0.4-1.8 0.1-1.4-0.1-2.8 0.3-4.1-0.2-0.5-0.1-0.8-0.2-1.2 0.2-0.1 0.1-0.3 0.2-0.5-0.4-1.1-0.7-2.2-0.1-3.1 0.1-0.2-0.4-0.6-0.1-0.7-0.3-0.2-0.4-0.3-0.6-0.5q0.1-0.8-0.5-1.7c-0.2-1.1-0.2-2.1-0.3-3.1q0.2-0.3 0.2-0.6c-0.8-1.1-0.9-2.3-0.6-3.2-0.2-0.4-0.2-0.7-0.4-1 0.2-1.1 0.3-2.3 0.5-3.4-0.1-0.1-0.2-0.2-0.3-0.4 0.4-1.1 0.7-2.2 1.5-3.2-0.2-0.3-0.2-0.6-0.2-0.9 0.7-0.8-0.3-2.1 0.4-3 0-0.7 0-1.4 0.4-2.1-0.5-0.8 0.4-1.4-0.1-2.3 0.2-0.3 0.1-0.6 0-1 0.2-0.7 0.6-1.3 0.5-2.1-1.1-0.8-2-2.4-0.7-3 0-0.6 0.4-1 0.3-1.6-0.2-0.4-0.5-0.8-0.4-1.1 0.2-0.9 0.9-1.6 0.7-2.7 0.7-0.9 0-2.2 0.9-3 0-0.8 0.7-1.4 0.4-2.2 0.3-0.4 0.5-0.9 0.4-1.4 0.2-0.4 0.4-0.6 0.5-1 0.1-0.4 0-1.2 0-1.6 0.1-0.4 0.3-0.7 0.4-1 0.1-0.5 0-1.2 0.3-1.6-0.1-0.1 0-0.2-0.1-0.3 0.2-0.2 0.1-0.5 0.4-0.6-0.2-0.6 0.3-1 0.1-1.6 0.7-0.8 0.5-1.8 1.3-2.6 0.1-0.2-0.1-0.5 0-0.7 0.4-0.1 0.2-0.3 0.2-0.5 0.4-0.1 0.2-0.3 0.5-0.5 0.1-0.5 0.2-1 0.6-1.5-0.2-0.6 0.2-0.9 0.4-1.3 0.2-0.4 0.2-0.7 0.5-1 0.7-0.7 0.9-1.8 1.3-2.7 0.2-0.4 0.8-0.9 0.8-1.3q0.7-0.6 0.9-1.3c0.8-0.8 1.1-1.8 1.8-2.5 0.3-0.3 0.6-1.1 0.8-1.3 0.5-0.6 0.5-1.3 1.1-1.7 0.3-1 1.1-2.1 1.9-2.9 0.4-1 1.6-2.2 2.6-2.7 0.1-0.5 0.3-1 0.8-1.3 0.1-0.1 0-0.4 0.2-0.5 1-0.5 1-1.8 2.1-2.1 0.1-1.3 1.7-2.4 2.8-3.3 0.3-1.7 1.5-3.4 3-4.6-0.1-0.6 0.1-1 0.7-1.2-0.1-1 1.3-1.6 1.7-2.5q0 0 0.1 0 0.1 0 0.3 0c0-0.2 0.1-0.3 0.2-0.5 0.1 0 0.2 0 0.2 0 0.1 0 0.2 0.1 0.3 0 0.2-0.8 1.3-0.8 1.8-1.4 0.1-0.1 0.1-0.4 0.3-0.5 0.3-0.2 0.8-0.1 1.1-0.2 0.8-1.5 2.5-1.7 4-2.3 0.8-0.3 1.7-0.9 2.4-1.5 0.1-0.1 0.2-0.3 0.3-0.4 0.4-0.3 0.9-0.3 1.2-0.5 0.4-0.3 0.7-0.6 1.1-0.9 0.5-0.2 1.1-0.2 1.5-0.4 0.7-0.2 1.1-0.8 1.6-1.3 0.8-0.2 1.8-0.6 2.5-1.2-0.6-0.5-1.2-0.2-1.8-0.6-0.5 0.1-0.7 0.7-1.2 1zm157.2 132.2c0.2-0.1 0.1-0.6-0.2-0.4 0.1 0.1 0.1 0.4 0.2 0.4zm-96.9 50.4q0.1 0 0.1-0.1c0-0.1-0.1-0.2-0.2-0.2 0 0.2 0 0.3 0.1 0.3zm94.9-48.4c0.1-0.4-0.3-0.7 0.2-1.1 0.2 0.2 0.1 0.5 0.2 0.8 0.1 0.1 0.2 0 0.3 0 0 0 0.1-0.1 0.2 0-0.1 0.2 0 0.4 0.2 0.7q-0.1 0.2-0.2 0.4c-0.2-0.3-0.4-0.5-0.4-0.9-0.1-0.1-0.2 0-0.3 0.1-0.1 0-0.1 0.1-0.2 0zm1.7-0.7q-0.1 0.2-0.1 0.5 0 0 0 0c-0.1-0.2 0-0.4 0.1-0.5zm-1.2 1.5c0.1 0 0.2 0.2 0.3 0.3q-0.1 0.1-0.2 0.2c-0.1-0.1-0.2-0.3-0.1-0.5zm-2.7 2.1q0 0 0.1 0c0.3 0.6-0.5 0.4-0.4 0.9 0.1 0.1 0.2 0.1 0.2 0 0.1-0.1 0.2-0.2 0.3 0 0.1 0.3-0.2 0.4-0.2 0.6q0.3 0.4 0.5 0.7-0.3 0.4-0.6 0.9c-0.1 0-0.2-0.1-0.3-0.2q0.2-0.1 0.4-0.2c-0.1-0.3-0.3-0.4-0.6-0.3-0.2 0.3-0.1 0.8 0.3 1q-0.2 0.2-0.3 0.4-0.1 0-0.2 0c0.4-0.2 0-0.4-0.1-0.7-0.2 0-0.5 0.2-0.7 0 0.1-0.5 1.1-0.7 1.1-1.3-0.2-0.4-0.5-0.3-0.8-0.6 0.1-0.2 0.3-0.2 0.5-0.3q-0.1-0.3 0.1-0.6c0.2 0.1 0.3 0 0.5-0.1 0.1-0.1 0.1-0.2 0.2-0.2zm7.6 3.2q-0.2 0.5-0.5 0.9 0.2-0.4 0.5-0.9zm-1.4 2.3q0.1-0.1 0.2-0.2-0.2 0.2-0.3 0.4c0-0.1 0-0.1 0.1-0.2zm-6.3 9.6q0 0.1 0 0.1c0 0.1-0.1 0.1-0.2 0.1q0-0.2 0.2-0.2z"/>
			<g id="beacon">
				<path id="fire" class="s3" d="m157.6 64.6v19.3h22.7v-20.2l-11.2-2.7z"/>
				<path id="cap" class="s4" d="m156.4 67.5c0.2-0.7 1.2-1.5 2.8-2.4 2.3-1.2 5.9-2.4 9.8-2.4 6.6-0.1 12.1 2.8 12.7 4.4h0.1c-0.1-3.6-5.2-10.1-11.7-10.3l-3.2 0.1c-6 0.6-10.6 7.1-10.6 10.6z"/>
				<g id="column">
					<path id="top" class="s5" d="m164.5 75.2c-6.2 0.4-11.8 3-11.8 3v5.4c0 0-0.1 1.3 2.6 2.2l0.1 5.5c-7.2 0.9-12 2.5-12 4.3 0 0.4 2.3 3.6 2.3 3.6 0 0 0.8 1 1.7 1.1 0.9 0.1 2.6 0.9 3.6 1.8 1.1 0.9 2 2.5 2 3.7 0 1.2 1.2 2.1 2.6 2.1l3.4-0.1c-4 2.3-5.3 4.8-6.5 6.5-1.3 1.7-2.3 16.8-2.3 16.8 0 0 0.6-1.5 2.9-5.1 2.3-3.6 11.4-8.5 18.3-12.3 5.8-3.1 11-6.2 11-6.2 1.4-0.8 2.6-1.5 2.6-2.6 0-1.4 0.6-3.1 1.3-3.7 0.8-0.7 2.2-1.4 3.1-1.5 1-0.2 1.7-1.2 1.7-1.2 0 0 2.1-3.2 2.1-3.7 0-1.7-4.4-3.1-11.1-3.8l-0.1-5.4c1.9-0.6 3.1-1.3 3.1-2v-5.4c0 0-5.1-2.8-11.9-3.1-2.4 0-6.3 0-8.6 0.1"/>
					<path id="middle" class="s6" d="m171.5 128.1c-15.1 7.2-22.5 10.9-23.5 18.7-1.1 7.7-2.3 15.4-2.3 15.4 1-5.6 11.9-12.2 22.8-17.5 10.9-5.3 18.7-8.8 18.2-14.5-0.4-5.2-1.5-12.2-1.7-13.7 0 1.1-0.6 5.4-13.5 11.6"/>
					<path id="bottom" class="s7" d="m169.3 162.3c-20.4 9.4-25.4 12-26 17.9-0.5 5-1.7 15.5-2 18.4 0.4-1.6 2.5-5.6 13.3-11.4 14.1-7.7 36.7-14.1 36.1-22.1-0.5-8-2.1-18.6-2.1-18.6 0 0 1 6.3-19.4 15.8"/>
				</g>
				<path id="flare" class="s8" d="m227.9 17.8c-78.6 68.7-72.7 53.8-18 45.5-54.7 8.3-63.6-4.9 27.2 40.5-90.8-45.4-74.9-44.4-48.7-3.1-26.2-41.3-16.3-53.9-30.2 38.4 13.9-92.3 17.9-76.8-12.1-47.3 30-29.5 44.9-24-45.9-16.8 90.8-7.2 77.4 1.3 41.3-26.2 36.1 27.5 35.5 43.5 1.8-48.8 33.7 92.3 21.4 82.1 37.6 31.2-16.2 50.9-31.6 55.3 47-13.4z"/>
			</g>
		</g>
	</g>
</svg>