<svg version="1.2" xmlns="http://www.w3.org/2000/svg" viewBox="0 0 259 223" width="100" height="86">
	<title>Apache_Apex_Logo-svg</title>
	<style>
		.s0 { fill: #00aad4;stroke: #ffffff;stroke-width: .5 } 
		.s1 { fill: #00aad4;stroke: #ffffff;stroke-width: .4 } 
	</style>
	<g id="Layer">
		<g id="Layer">
			<path id="Layer" class="s0" d="m91.8 220.1c-6-1-7.6-1.9-8.1-4.7-0.9-4.3 1.2-20.3 3.5-27.2 2-6.1 8.5-21.5 10-23.7 0.5-0.8 2.5-0.2 8.9 2.6 4.4 1.9 12.1 4.9 17 6.5 9.9 3.3 9.5 2.5 5.2 10.3-2.8 4.9-7.3 17.6-8 22.6-0.6 3.4-0.4 4.1 0.8 4.6 1 0.3 2-0.1 3-1.3 2.4-2.9 5.5-1.6 7.1 2.9 1.8 4.8 1.7 6.3-0.3 7.3-1.6 0.7-34.4 0.7-39.1 0z"/>
			<path id="Layer" class="s0" d="m160.5 220.6c-2.8-0.2-5.6-0.8-6.1-1.4-1.5-1.7 2.4-6 7.2-8.2l4.2-2 0.3-6.3c0.2-3.6-0.2-9.7-0.9-13.7-0.7-4-1.1-7.3-1-7.4 0.1-0.1 6.7 0.1 14.8 0.5 11.3 0.5 14.9 0.9 15.9 1.8 1.4 1.3 2.8 10.2 2.8 17 0 4.9-5.2 16.8-8.1 18.5-1.9 1.1-19.7 1.8-29.1 1.1z"/>
			<path id="Layer" class="s1" d="m202.7 220.9c-0.7-0.7-1.3-1.7-1.3-2.2 0.1-2.4 3.3-5.8 7-7.5 3.7-1.7 4.1-2.2 4.1-4.4 0.1-3.3-3.8-15.9-8-25.8-7.6-18.5-18.3-40.8-16.4-34.2 4.7 16.2 8.1 28.4 8.1 29.2 0 1.8-4 2-18.1 1.1-23.3-1.7-41.4-4.9-54.1-9.6-7.6-2.8-18.9-8.5-20.7-10.5-1.3-1.5-1.3-1.7 0.2-5.8 0.9-2.3 3.4-8.7 5.6-14.1 4.7-11.1 4.1-10.9-3.1 0.8-14.2 23.1-19 29.9-29.8 42-3.8 4.3-8.4 9.9-10 12.4-3.4 5.1-6.5 12.5-6.2 14.8 0.2 1.3 0.4 1.3 2.5 0.3 5.4-2.8 9.2 0 9.7 7.1 0.3 4.2 0.3 4.4-1.9 5.2-1.5 0.5-9.2 0.7-23.1 0.4-17.5-0.4-21.5-0.7-24.6-1.9-3.6-1.4-3.8-1.6-3.7-4.4 0-6.4 1.8-23.6 3-28.4 3.4-14.3 19.3-43.1 46.3-83.8 8.9-13.5 25.6-37.1 28.8-40.7 1.8-2.1 20.7-13.5 22.3-13.5 0.5 0 0.8 2.2 1.9 13.2 0.3 3 0.8 5 1.4 5 0.5 0 4.3-3.7 8.4-8.3 4.1-4.5 7.7-8.2 8-8.2 0.3 0 3.6 3.5 7.4 7.8 3.7 4.2 7.1 7.7 7.6 7.7 0.5 0 1.6-3.4 2.4-7.9 0.8-4.3 1.8-8.1 2.2-8.5 0.4-0.5 3.6 0.3 7.9 2l7.1 2.7 27.5 30.5c15.1 16.7 28.7 32.3 30.3 34.6 3.7 5.5 6.6 13.4 11.8 31.5 5.8 20 9.8 39 9.9 46.3 0 5.7-0.1 6.3-4.6 15.2-4 8-5 9.4-7.3 10.4-4.2 1.7-36.8 1.4-38.5-0.4z"/>
			<path id="Layer" class="s1" d="m124.3 55.9c-0.2-0.3-0.6-3.5-0.8-7.1-0.4-4.9-0.8-6.5-1.7-6.5-0.6 0-4.2 1.5-8 3.5-3.8 2-6.9 3.1-7.1 2.7-0.3-1.1 10.5-14.3 17.8-21.7 4.3-4.3 6.2-5.7 8.5-6.1 4.5-0.8 8.6 0.9 15.2 6.4 7.3 6 18 16.8 17.3 17.5-0.3 0.3-2.4-0.1-4.6-0.9-2.3-0.8-4.3-1.1-4.7-0.7-0.4 0.4-1.3 3.3-2 6.5-0.7 3.2-1.4 6.1-1.7 6.5-0.7 1.2-2.9-0.6-7.7-6.4-2.6-3.1-5-5.6-5.5-5.6-0.5 0-3.7 2.8-7.1 6.2-6.3 6.2-7.1 6.8-7.8 5.7z"/>
			<path id="Layer" fill-rule="evenodd" class="s1" d="m20.4 115.1c-5.3-3.2-9.3-6.3-9.3-7.2 0-0.3 1.8-1.6 4.1-2.7 5.6-2.8 14.1-8.4 16.7-11.1 1.6-1.7 2.3-3.4 2.6-6.5l0.6-4.3-2.8 3.6c-5.2 6.6-16.6 14.8-20.5 14.8-1.4-0.1-2.9-0.9-4.5-2.8-4.8-5.6-4.3-9 2.9-17.2 4-4.7 5.1-6.5 4.8-7.8-0.3-1 0-2.5 0.5-3.5 1.6-2.7 10.2-11.2 10.9-10.8 0.3 0.2 0-1.1-0.8-3-2-4.4-1.9-7.2 0.3-12 3.7-7.5 22.9-31 31.4-38.2 3.8-3.3 7.1-3.7 11.5-1.6 4.5 2.2 39.6 31.6 39.5 33.1 0 0.4-4.5 6.7-10.1 14.1-5.6 7.5-16.3 21.8-23.7 31.9-16.3 22.2-20.1 26.3-28.4 30.2-5.5 2.7-6.8 3-13.8 3.3-7.5 0.2-7.7 0.2-11.9-2.3zm15.7-33.1c-0.2-0.6-0.4-0.4-0.5 0.5 0 0.8 0.2 1.3 0.4 1 0.3-0.2 0.3-0.9 0.1-1.5z"/>
		</g>
	</g>
</svg>