<svg version="1.2" xmlns="http://www.w3.org/2000/svg" viewBox="0 0 440 438" width="100" height="100">
	<title>V_Logo_SVG-svg</title>
	<defs>
		<clipPath clipPathUnits="userSpaceOnUse" id="cp1">
			<path d="m-28-33h500v500h-500z"/>
		</clipPath>
	</defs>
	<style>
		.s0 { fill: #536b8a } 
		.s1 { fill: #ebebeb } 
		.s2 { fill: #5d87bf } 
	</style>
	<g id="Clip-Path" clip-path="url(#cp1)">
		<g id="Layer">
			<path id="Layer" class="s0" d="m290.4 420.5l145.3-404c2.5-6.8-1.4-11.8-8.7-11.1l-114.2 11c-7.3 0.7-15.1 6.8-17.5 13.7l-134.5 386.1c-2.4 6.9 1.6 12.5 8.9 12.5h111.2c3.6 0 7.6-2.8 8.8-6.2z"/>
			<g id="Layer">
				<path id="Layer" class="s1" d="m273.8 422.5l-60.4-174.8 8.6-5.4 61.6 178.2z"/>
			</g>
			<path id="Layer" class="s2" d="m17 5.4l114.2 11c7.3 0.7 15.1 6.8 17.5 13.7l137.3 392.3c1.2 3.5-0.8 6.3-4.4 6.3h-111.9c-7.3 0-15.2-5.6-17.7-12.4l-143.7-399.8c-2.5-6.8 1.4-11.8 8.7-11.1z"/>
		</g>
	</g>
</svg>