<svg version="1.2" xmlns="http://www.w3.org/2000/svg" viewBox="0 0 612 612" width="100" height="100">
	<title>WebAssembly_Logo-svg</title>
	<style>
		.s0 { fill: #654ff0 } 
		.s1 { fill: #ffffff } 
	</style>
	<path id="Layer" class="s0" d="m376 0q0 1.6 0 3.3c0 38.8-31.4 70.2-70.2 70.2-38.7 0-70.1-31.5-70.1-70.2q0-1.7 0-3.3h-235.7v612h612v-612z"/>
	<path id="Layer" fill-rule="evenodd" class="s1" d="m142.2 329.8h40.5l27.7 147.5h0.5l33.3-147.5h37.9l30.1 149.3h0.6l31.5-149.3h39.8l-51.7 216.7h-40.2l-29.8-147.5h-0.8l-31.9 147.5h-41zm287.7 0h63.9l63.5 216.7h-41.8l-13.8-48.2h-72.9l-10.6 48.2h-40.8zm24.4 53.4l-17.7 79.5h55l-20.3-79.5z"/>
</svg>