<svg version="1.2" xmlns="http://www.w3.org/2000/svg" viewBox="0 0 154 140" width="100" height="91">
	<title>zig zir-svg</title>
	<style>
		.s0 { fill: #f7a41d } 
	</style>
	<g id="Layer">
		<g id="Layer">
			<path id="Layer" class="s0" d="m46 22l-18 22-9-14z"/>
			<path id="Layer" class="s0" d="m46 22l-13 11-5 11h-6v51h9l-11 5-8 17h-12v-95z"/>
			<path id="Layer" class="s0" d="m31 95l-19 22-8-11z"/>
		</g>
		<g id="Layer">
			<path id="Layer" class="s0" d="m56 22l6 14-25 8z"/>
			<path id="Layer" class="s0" d="m56 22h55v22h-74l19-12z"/>
			<path id="Layer" class="s0" d="m116 95l-19 22-7-13z"/>
			<path id="Layer" class="s0" d="m116 95l-16 9-3 13h-55v-22z"/>
			<path id="Layer" class="s0" d="m150 0l-98 117-49 23 98-118z"/>
		</g>
		<g id="Layer">
			<path id="Layer" class="s0" d="m141 22l-1 18-18 5z"/>
			<path id="Layer" class="s0" d="m153 22v95h-47l14-12 5-10h6v-50h-9l10-9 9-14z"/>
			<path id="Layer" class="s0" d="m125 95l5 15-24 7z"/>
		</g>
	</g>
</svg>