<svg version="1.2" xmlns="http://www.w3.org/2000/svg" viewBox="0 0 497 299" width="100" height="60">
	<title>Z_Shell_Logo_Color_Horizontal-svg</title>
	<style>
		.s0 { fill: #000000;stroke: #f15a24;stroke-linecap: round;stroke-linejoin: round;stroke-width: 10 } 
		.s1 { fill: none;stroke: #f15a24;stroke-linecap: round;stroke-linejoin: round;stroke-width: 9.8 } 
		.s2 { fill: none;stroke: #f15a24;stroke-linecap: round;stroke-linejoin: round;stroke-width: 10 } 
	</style>
	<g id="Layer">
		<path id="Layer" fill-rule="evenodd" class="s0" d="m231.8 25l-215.8 257"/>
		<path id="Layer" class="s1" d="m70.7 127.2c-24.6 0-44.5-19.9-44.5-44.6 0-24.6 19.9-44.5 44.5-44.5 24.7 0 44.6 19.9 44.6 44.5 0 24.7-19.9 44.6-44.6 44.6z"/>
		<path id="Layer" class="s1" d="m176.3 269.1c-24.6 0-44.5-19.9-44.5-44.6 0-24.6 19.9-44.5 44.5-44.5 24.7 0 44.6 19.9 44.6 44.5 0 24.7-19.9 44.6-44.6 44.6z"/>
		<path id="Layer" fill-rule="evenodd" class="s2" d="m475.2 275.6h-154.1"/>
	</g>
</svg>